%
M48
M72
T01C0.01200
T02C0.02362
T03C0.03150
T04C0.03937
T05C0.04000
T06C0.04600
%
T01
X101020Y251600
X93520Y280350
T02
X313520Y171600
X318520Y171600
X318520Y166600
X318520Y161600
X318520Y156600
X318520Y151600
X313520Y151600
X313520Y156600
X313520Y161600
X313520Y166600
T03
X318520Y231600
X318520Y241600
X318520Y251600
X318520Y261600
X202020Y261600
X202020Y251600
X202020Y241600
X202020Y231600
X202020Y221600
X43520Y102702
X31709Y121600
X43520Y76600
X43520Y66600
X43520Y56600
X43520Y46600
T04
X73520Y101600
X73520Y111600
X73520Y121600
X73520Y131600
X73520Y141600
X73520Y151600
X83520Y146600
X83520Y136600
X73520Y161600
X73520Y171600
X73520Y181600
X73520Y191600
X73520Y201600
X73520Y211600
X83520Y211600
X93520Y211600
X103520Y211600
X133520Y211600
X133520Y201600
X133520Y191600
X133520Y181600
X133520Y171600
X133520Y161600
X133520Y151600
X133520Y141600
X133520Y131600
X133520Y121600
X133520Y111600
X133520Y101600
X156020Y104100
X156020Y94100
X156020Y84100
X156020Y74100
X156020Y64100
X156020Y54100
X156020Y44100
X156020Y114100
X156020Y124100
X156020Y134100
X183520Y189100
X183520Y199100
X183520Y209100
X183520Y219100
X183520Y229100
X183520Y239100
X183520Y249100
X183520Y259100
X183520Y269100
X183520Y279100
X55331Y121600
T05
X43520Y26600
X53520Y26600
X63520Y26600
X73520Y26600
X123520Y26600
X133520Y26600
X143520Y26600
X153520Y26600
X203520Y26600
X213520Y26600
X223520Y26600
X233520Y26600
X283520Y26600
X293520Y26600
X303520Y26600
X313520Y26600
X141020Y226600
X141020Y236600
X141020Y246600
X141020Y256600
X143520Y296600
X153520Y296600
X133520Y296600
X123520Y296600
X73520Y296600
X63520Y296600
X53520Y296600
X43520Y296600
X203520Y296600
X213520Y296600
X223520Y296600
X233520Y296600
X283520Y296600
X293520Y296600
X303520Y296600
X313520Y296600
T06
X38520Y191443
X38520Y171757
M30
