G75*
%MOIN*%
%OFA0B0*%
%FSLAX25Y25*%
%IPPOS*%
%LPD*%
%AMOC8*
5,1,8,0,0,1.08239X$1,22.5*
%
%ADD10C,0.00000*%
%ADD11C,0.00600*%
%ADD12C,0.07400*%
%ADD13C,0.08600*%
%ADD14C,0.05906*%
%ADD15R,0.04724X0.04724*%
%ADD16C,0.04724*%
%ADD17R,0.08000X0.08000*%
%ADD18C,0.08000*%
%ADD19C,0.03562*%
%ADD20C,0.07600*%
%ADD21R,0.05906X0.05906*%
D10*
X0013520Y0011600D02*
X0013520Y0311561D01*
X0013523Y0311803D01*
X0013532Y0312044D01*
X0013546Y0312285D01*
X0013567Y0312526D01*
X0013593Y0312766D01*
X0013625Y0313006D01*
X0013663Y0313245D01*
X0013706Y0313482D01*
X0013756Y0313719D01*
X0013811Y0313954D01*
X0013871Y0314188D01*
X0013938Y0314420D01*
X0014009Y0314651D01*
X0014087Y0314880D01*
X0014170Y0315107D01*
X0014258Y0315332D01*
X0014352Y0315555D01*
X0014451Y0315775D01*
X0014556Y0315993D01*
X0014665Y0316208D01*
X0014780Y0316421D01*
X0014900Y0316631D01*
X0015025Y0316837D01*
X0015155Y0317041D01*
X0015290Y0317242D01*
X0015430Y0317439D01*
X0015574Y0317633D01*
X0015723Y0317823D01*
X0015877Y0318009D01*
X0016035Y0318192D01*
X0016197Y0318371D01*
X0016364Y0318546D01*
X0016535Y0318717D01*
X0016710Y0318884D01*
X0016889Y0319046D01*
X0017072Y0319204D01*
X0017258Y0319358D01*
X0017448Y0319507D01*
X0017642Y0319651D01*
X0017839Y0319791D01*
X0018040Y0319926D01*
X0018244Y0320056D01*
X0018450Y0320181D01*
X0018660Y0320301D01*
X0018873Y0320416D01*
X0019088Y0320525D01*
X0019306Y0320630D01*
X0019526Y0320729D01*
X0019749Y0320823D01*
X0019974Y0320911D01*
X0020201Y0320994D01*
X0020430Y0321072D01*
X0020661Y0321143D01*
X0020893Y0321210D01*
X0021127Y0321270D01*
X0021362Y0321325D01*
X0021599Y0321375D01*
X0021836Y0321418D01*
X0022075Y0321456D01*
X0022315Y0321488D01*
X0022555Y0321514D01*
X0022796Y0321535D01*
X0023037Y0321549D01*
X0023278Y0321558D01*
X0023520Y0321561D01*
X0332260Y0321561D01*
X0332501Y0321558D01*
X0332741Y0321549D01*
X0332982Y0321535D01*
X0333221Y0321514D01*
X0333461Y0321488D01*
X0333699Y0321456D01*
X0333937Y0321419D01*
X0334174Y0321375D01*
X0334409Y0321326D01*
X0334644Y0321272D01*
X0334877Y0321211D01*
X0335108Y0321145D01*
X0335338Y0321073D01*
X0335566Y0320996D01*
X0335792Y0320914D01*
X0336016Y0320826D01*
X0336238Y0320732D01*
X0336458Y0320633D01*
X0336675Y0320529D01*
X0336889Y0320420D01*
X0337101Y0320306D01*
X0337310Y0320186D01*
X0337516Y0320062D01*
X0337719Y0319932D01*
X0337918Y0319798D01*
X0338115Y0319659D01*
X0338308Y0319515D01*
X0338497Y0319366D01*
X0338683Y0319213D01*
X0338865Y0319056D01*
X0339044Y0318894D01*
X0339218Y0318728D01*
X0339388Y0318558D01*
X0339554Y0318384D01*
X0339716Y0318205D01*
X0339873Y0318023D01*
X0340026Y0317837D01*
X0340175Y0317648D01*
X0340319Y0317455D01*
X0340458Y0317258D01*
X0340592Y0317059D01*
X0340722Y0316856D01*
X0340846Y0316650D01*
X0340966Y0316441D01*
X0341080Y0316229D01*
X0341189Y0316015D01*
X0341293Y0315798D01*
X0341392Y0315578D01*
X0341486Y0315356D01*
X0341574Y0315132D01*
X0341656Y0314906D01*
X0341733Y0314678D01*
X0341805Y0314448D01*
X0341871Y0314217D01*
X0341932Y0313984D01*
X0341986Y0313749D01*
X0342035Y0313514D01*
X0342079Y0313277D01*
X0342116Y0313039D01*
X0342148Y0312801D01*
X0342174Y0312561D01*
X0342195Y0312322D01*
X0342209Y0312081D01*
X0342218Y0311841D01*
X0342221Y0311600D01*
X0342220Y0311600D02*
X0342220Y0010301D01*
X0342221Y0010301D02*
X0342218Y0010091D01*
X0342211Y0009881D01*
X0342198Y0009671D01*
X0342180Y0009461D01*
X0342158Y0009252D01*
X0342130Y0009044D01*
X0342097Y0008836D01*
X0342059Y0008629D01*
X0342016Y0008423D01*
X0341968Y0008219D01*
X0341915Y0008015D01*
X0341858Y0007813D01*
X0341795Y0007612D01*
X0341728Y0007413D01*
X0341656Y0007216D01*
X0341579Y0007020D01*
X0341497Y0006826D01*
X0341411Y0006634D01*
X0341320Y0006445D01*
X0341224Y0006257D01*
X0341124Y0006072D01*
X0341020Y0005890D01*
X0340911Y0005710D01*
X0340798Y0005533D01*
X0340681Y0005358D01*
X0340559Y0005187D01*
X0340434Y0005018D01*
X0340304Y0004853D01*
X0340170Y0004690D01*
X0340033Y0004531D01*
X0339891Y0004375D01*
X0339746Y0004223D01*
X0339598Y0004075D01*
X0339446Y0003930D01*
X0339290Y0003788D01*
X0339131Y0003651D01*
X0338968Y0003517D01*
X0338803Y0003387D01*
X0338634Y0003262D01*
X0338463Y0003140D01*
X0338288Y0003023D01*
X0338111Y0002910D01*
X0337931Y0002801D01*
X0337749Y0002697D01*
X0337564Y0002597D01*
X0337376Y0002501D01*
X0337187Y0002410D01*
X0336995Y0002324D01*
X0336801Y0002242D01*
X0336605Y0002165D01*
X0336408Y0002093D01*
X0336209Y0002026D01*
X0336008Y0001963D01*
X0335806Y0001906D01*
X0335602Y0001853D01*
X0335398Y0001805D01*
X0335192Y0001762D01*
X0334985Y0001724D01*
X0334777Y0001691D01*
X0334569Y0001663D01*
X0334360Y0001641D01*
X0334150Y0001623D01*
X0333940Y0001610D01*
X0333730Y0001603D01*
X0333520Y0001600D01*
X0023520Y0001600D01*
X0023278Y0001603D01*
X0023037Y0001612D01*
X0022796Y0001626D01*
X0022555Y0001647D01*
X0022315Y0001673D01*
X0022075Y0001705D01*
X0021836Y0001743D01*
X0021599Y0001786D01*
X0021362Y0001836D01*
X0021127Y0001891D01*
X0020893Y0001951D01*
X0020661Y0002018D01*
X0020430Y0002089D01*
X0020201Y0002167D01*
X0019974Y0002250D01*
X0019749Y0002338D01*
X0019526Y0002432D01*
X0019306Y0002531D01*
X0019088Y0002636D01*
X0018873Y0002745D01*
X0018660Y0002860D01*
X0018450Y0002980D01*
X0018244Y0003105D01*
X0018040Y0003235D01*
X0017839Y0003370D01*
X0017642Y0003510D01*
X0017448Y0003654D01*
X0017258Y0003803D01*
X0017072Y0003957D01*
X0016889Y0004115D01*
X0016710Y0004277D01*
X0016535Y0004444D01*
X0016364Y0004615D01*
X0016197Y0004790D01*
X0016035Y0004969D01*
X0015877Y0005152D01*
X0015723Y0005338D01*
X0015574Y0005528D01*
X0015430Y0005722D01*
X0015290Y0005919D01*
X0015155Y0006120D01*
X0015025Y0006324D01*
X0014900Y0006530D01*
X0014780Y0006740D01*
X0014665Y0006953D01*
X0014556Y0007168D01*
X0014451Y0007386D01*
X0014352Y0007606D01*
X0014258Y0007829D01*
X0014170Y0008054D01*
X0014087Y0008281D01*
X0014009Y0008510D01*
X0013938Y0008741D01*
X0013871Y0008973D01*
X0013811Y0009207D01*
X0013756Y0009442D01*
X0013706Y0009679D01*
X0013663Y0009916D01*
X0013625Y0010155D01*
X0013593Y0010395D01*
X0013567Y0010635D01*
X0013546Y0010876D01*
X0013532Y0011117D01*
X0013523Y0011358D01*
X0013520Y0011600D01*
D11*
X0018520Y0011600D02*
X0018522Y0011741D01*
X0018528Y0011882D01*
X0018538Y0012022D01*
X0018552Y0012162D01*
X0018570Y0012302D01*
X0018591Y0012441D01*
X0018617Y0012580D01*
X0018646Y0012718D01*
X0018680Y0012854D01*
X0018717Y0012990D01*
X0018758Y0013125D01*
X0018803Y0013259D01*
X0018852Y0013391D01*
X0018904Y0013522D01*
X0018960Y0013651D01*
X0019020Y0013778D01*
X0019083Y0013904D01*
X0019149Y0014028D01*
X0019220Y0014151D01*
X0019293Y0014271D01*
X0019370Y0014389D01*
X0019450Y0014505D01*
X0019534Y0014618D01*
X0019620Y0014729D01*
X0019710Y0014838D01*
X0019803Y0014944D01*
X0019898Y0015047D01*
X0019997Y0015148D01*
X0020098Y0015246D01*
X0020202Y0015341D01*
X0020309Y0015433D01*
X0020418Y0015522D01*
X0020530Y0015607D01*
X0020644Y0015690D01*
X0020760Y0015770D01*
X0020879Y0015846D01*
X0021000Y0015918D01*
X0021122Y0015988D01*
X0021247Y0016053D01*
X0021373Y0016116D01*
X0021501Y0016174D01*
X0021631Y0016229D01*
X0021762Y0016281D01*
X0021895Y0016328D01*
X0022029Y0016372D01*
X0022164Y0016413D01*
X0022300Y0016449D01*
X0022437Y0016481D01*
X0022575Y0016510D01*
X0022713Y0016535D01*
X0022853Y0016555D01*
X0022993Y0016572D01*
X0023133Y0016585D01*
X0023274Y0016594D01*
X0023414Y0016599D01*
X0023555Y0016600D01*
X0023696Y0016597D01*
X0023837Y0016590D01*
X0023977Y0016579D01*
X0024117Y0016564D01*
X0024257Y0016545D01*
X0024396Y0016523D01*
X0024534Y0016496D01*
X0024672Y0016466D01*
X0024808Y0016431D01*
X0024944Y0016393D01*
X0025078Y0016351D01*
X0025212Y0016305D01*
X0025344Y0016256D01*
X0025474Y0016202D01*
X0025603Y0016145D01*
X0025730Y0016085D01*
X0025856Y0016021D01*
X0025979Y0015953D01*
X0026101Y0015882D01*
X0026221Y0015808D01*
X0026338Y0015730D01*
X0026453Y0015649D01*
X0026566Y0015565D01*
X0026677Y0015478D01*
X0026785Y0015387D01*
X0026890Y0015294D01*
X0026993Y0015197D01*
X0027093Y0015098D01*
X0027190Y0014996D01*
X0027284Y0014891D01*
X0027375Y0014784D01*
X0027463Y0014674D01*
X0027548Y0014562D01*
X0027630Y0014447D01*
X0027709Y0014330D01*
X0027784Y0014211D01*
X0027856Y0014090D01*
X0027924Y0013967D01*
X0027989Y0013842D01*
X0028051Y0013715D01*
X0028108Y0013586D01*
X0028163Y0013456D01*
X0028213Y0013325D01*
X0028260Y0013192D01*
X0028303Y0013058D01*
X0028342Y0012922D01*
X0028377Y0012786D01*
X0028409Y0012649D01*
X0028436Y0012511D01*
X0028460Y0012372D01*
X0028480Y0012232D01*
X0028496Y0012092D01*
X0028508Y0011952D01*
X0028516Y0011811D01*
X0028520Y0011670D01*
X0028520Y0011530D01*
X0028516Y0011389D01*
X0028508Y0011248D01*
X0028496Y0011108D01*
X0028480Y0010968D01*
X0028460Y0010828D01*
X0028436Y0010689D01*
X0028409Y0010551D01*
X0028377Y0010414D01*
X0028342Y0010278D01*
X0028303Y0010142D01*
X0028260Y0010008D01*
X0028213Y0009875D01*
X0028163Y0009744D01*
X0028108Y0009614D01*
X0028051Y0009485D01*
X0027989Y0009358D01*
X0027924Y0009233D01*
X0027856Y0009110D01*
X0027784Y0008989D01*
X0027709Y0008870D01*
X0027630Y0008753D01*
X0027548Y0008638D01*
X0027463Y0008526D01*
X0027375Y0008416D01*
X0027284Y0008309D01*
X0027190Y0008204D01*
X0027093Y0008102D01*
X0026993Y0008003D01*
X0026890Y0007906D01*
X0026785Y0007813D01*
X0026677Y0007722D01*
X0026566Y0007635D01*
X0026453Y0007551D01*
X0026338Y0007470D01*
X0026221Y0007392D01*
X0026101Y0007318D01*
X0025979Y0007247D01*
X0025856Y0007179D01*
X0025730Y0007115D01*
X0025603Y0007055D01*
X0025474Y0006998D01*
X0025344Y0006944D01*
X0025212Y0006895D01*
X0025078Y0006849D01*
X0024944Y0006807D01*
X0024808Y0006769D01*
X0024672Y0006734D01*
X0024534Y0006704D01*
X0024396Y0006677D01*
X0024257Y0006655D01*
X0024117Y0006636D01*
X0023977Y0006621D01*
X0023837Y0006610D01*
X0023696Y0006603D01*
X0023555Y0006600D01*
X0023414Y0006601D01*
X0023274Y0006606D01*
X0023133Y0006615D01*
X0022993Y0006628D01*
X0022853Y0006645D01*
X0022713Y0006665D01*
X0022575Y0006690D01*
X0022437Y0006719D01*
X0022300Y0006751D01*
X0022164Y0006787D01*
X0022029Y0006828D01*
X0021895Y0006872D01*
X0021762Y0006919D01*
X0021631Y0006971D01*
X0021501Y0007026D01*
X0021373Y0007084D01*
X0021247Y0007147D01*
X0021122Y0007212D01*
X0021000Y0007282D01*
X0020879Y0007354D01*
X0020760Y0007430D01*
X0020644Y0007510D01*
X0020530Y0007593D01*
X0020418Y0007678D01*
X0020309Y0007767D01*
X0020202Y0007859D01*
X0020098Y0007954D01*
X0019997Y0008052D01*
X0019898Y0008153D01*
X0019803Y0008256D01*
X0019710Y0008362D01*
X0019620Y0008471D01*
X0019534Y0008582D01*
X0019450Y0008695D01*
X0019370Y0008811D01*
X0019293Y0008929D01*
X0019220Y0009049D01*
X0019149Y0009172D01*
X0019083Y0009296D01*
X0019020Y0009422D01*
X0018960Y0009549D01*
X0018904Y0009678D01*
X0018852Y0009809D01*
X0018803Y0009941D01*
X0018758Y0010075D01*
X0018717Y0010210D01*
X0018680Y0010346D01*
X0018646Y0010482D01*
X0018617Y0010620D01*
X0018591Y0010759D01*
X0018570Y0010898D01*
X0018552Y0011038D01*
X0018538Y0011178D01*
X0018528Y0011318D01*
X0018522Y0011459D01*
X0018520Y0011600D01*
X0104130Y0161600D02*
X0104132Y0161769D01*
X0104138Y0161938D01*
X0104149Y0162107D01*
X0104163Y0162275D01*
X0104182Y0162443D01*
X0104205Y0162611D01*
X0104231Y0162778D01*
X0104262Y0162944D01*
X0104297Y0163110D01*
X0104336Y0163274D01*
X0104380Y0163438D01*
X0104427Y0163600D01*
X0104478Y0163761D01*
X0104533Y0163921D01*
X0104592Y0164080D01*
X0104654Y0164237D01*
X0104721Y0164392D01*
X0104792Y0164546D01*
X0104866Y0164698D01*
X0104944Y0164848D01*
X0105025Y0164996D01*
X0105110Y0165142D01*
X0105199Y0165286D01*
X0105291Y0165428D01*
X0105387Y0165567D01*
X0105486Y0165704D01*
X0105588Y0165839D01*
X0105694Y0165971D01*
X0105803Y0166100D01*
X0105915Y0166227D01*
X0106030Y0166351D01*
X0106148Y0166472D01*
X0106269Y0166590D01*
X0106393Y0166705D01*
X0106520Y0166817D01*
X0106649Y0166926D01*
X0106781Y0167032D01*
X0106916Y0167134D01*
X0107053Y0167233D01*
X0107192Y0167329D01*
X0107334Y0167421D01*
X0107478Y0167510D01*
X0107624Y0167595D01*
X0107772Y0167676D01*
X0107922Y0167754D01*
X0108074Y0167828D01*
X0108228Y0167899D01*
X0108383Y0167966D01*
X0108540Y0168028D01*
X0108699Y0168087D01*
X0108859Y0168142D01*
X0109020Y0168193D01*
X0109182Y0168240D01*
X0109346Y0168284D01*
X0109510Y0168323D01*
X0109676Y0168358D01*
X0109842Y0168389D01*
X0110009Y0168415D01*
X0110177Y0168438D01*
X0110345Y0168457D01*
X0110513Y0168471D01*
X0110682Y0168482D01*
X0110851Y0168488D01*
X0111020Y0168490D01*
X0111189Y0168488D01*
X0111358Y0168482D01*
X0111527Y0168471D01*
X0111695Y0168457D01*
X0111863Y0168438D01*
X0112031Y0168415D01*
X0112198Y0168389D01*
X0112364Y0168358D01*
X0112530Y0168323D01*
X0112694Y0168284D01*
X0112858Y0168240D01*
X0113020Y0168193D01*
X0113181Y0168142D01*
X0113341Y0168087D01*
X0113500Y0168028D01*
X0113657Y0167966D01*
X0113812Y0167899D01*
X0113966Y0167828D01*
X0114118Y0167754D01*
X0114268Y0167676D01*
X0114416Y0167595D01*
X0114562Y0167510D01*
X0114706Y0167421D01*
X0114848Y0167329D01*
X0114987Y0167233D01*
X0115124Y0167134D01*
X0115259Y0167032D01*
X0115391Y0166926D01*
X0115520Y0166817D01*
X0115647Y0166705D01*
X0115771Y0166590D01*
X0115892Y0166472D01*
X0116010Y0166351D01*
X0116125Y0166227D01*
X0116237Y0166100D01*
X0116346Y0165971D01*
X0116452Y0165839D01*
X0116554Y0165704D01*
X0116653Y0165567D01*
X0116749Y0165428D01*
X0116841Y0165286D01*
X0116930Y0165142D01*
X0117015Y0164996D01*
X0117096Y0164848D01*
X0117174Y0164698D01*
X0117248Y0164546D01*
X0117319Y0164392D01*
X0117386Y0164237D01*
X0117448Y0164080D01*
X0117507Y0163921D01*
X0117562Y0163761D01*
X0117613Y0163600D01*
X0117660Y0163438D01*
X0117704Y0163274D01*
X0117743Y0163110D01*
X0117778Y0162944D01*
X0117809Y0162778D01*
X0117835Y0162611D01*
X0117858Y0162443D01*
X0117877Y0162275D01*
X0117891Y0162107D01*
X0117902Y0161938D01*
X0117908Y0161769D01*
X0117910Y0161600D01*
X0117908Y0161431D01*
X0117902Y0161262D01*
X0117891Y0161093D01*
X0117877Y0160925D01*
X0117858Y0160757D01*
X0117835Y0160589D01*
X0117809Y0160422D01*
X0117778Y0160256D01*
X0117743Y0160090D01*
X0117704Y0159926D01*
X0117660Y0159762D01*
X0117613Y0159600D01*
X0117562Y0159439D01*
X0117507Y0159279D01*
X0117448Y0159120D01*
X0117386Y0158963D01*
X0117319Y0158808D01*
X0117248Y0158654D01*
X0117174Y0158502D01*
X0117096Y0158352D01*
X0117015Y0158204D01*
X0116930Y0158058D01*
X0116841Y0157914D01*
X0116749Y0157772D01*
X0116653Y0157633D01*
X0116554Y0157496D01*
X0116452Y0157361D01*
X0116346Y0157229D01*
X0116237Y0157100D01*
X0116125Y0156973D01*
X0116010Y0156849D01*
X0115892Y0156728D01*
X0115771Y0156610D01*
X0115647Y0156495D01*
X0115520Y0156383D01*
X0115391Y0156274D01*
X0115259Y0156168D01*
X0115124Y0156066D01*
X0114987Y0155967D01*
X0114848Y0155871D01*
X0114706Y0155779D01*
X0114562Y0155690D01*
X0114416Y0155605D01*
X0114268Y0155524D01*
X0114118Y0155446D01*
X0113966Y0155372D01*
X0113812Y0155301D01*
X0113657Y0155234D01*
X0113500Y0155172D01*
X0113341Y0155113D01*
X0113181Y0155058D01*
X0113020Y0155007D01*
X0112858Y0154960D01*
X0112694Y0154916D01*
X0112530Y0154877D01*
X0112364Y0154842D01*
X0112198Y0154811D01*
X0112031Y0154785D01*
X0111863Y0154762D01*
X0111695Y0154743D01*
X0111527Y0154729D01*
X0111358Y0154718D01*
X0111189Y0154712D01*
X0111020Y0154710D01*
X0110851Y0154712D01*
X0110682Y0154718D01*
X0110513Y0154729D01*
X0110345Y0154743D01*
X0110177Y0154762D01*
X0110009Y0154785D01*
X0109842Y0154811D01*
X0109676Y0154842D01*
X0109510Y0154877D01*
X0109346Y0154916D01*
X0109182Y0154960D01*
X0109020Y0155007D01*
X0108859Y0155058D01*
X0108699Y0155113D01*
X0108540Y0155172D01*
X0108383Y0155234D01*
X0108228Y0155301D01*
X0108074Y0155372D01*
X0107922Y0155446D01*
X0107772Y0155524D01*
X0107624Y0155605D01*
X0107478Y0155690D01*
X0107334Y0155779D01*
X0107192Y0155871D01*
X0107053Y0155967D01*
X0106916Y0156066D01*
X0106781Y0156168D01*
X0106649Y0156274D01*
X0106520Y0156383D01*
X0106393Y0156495D01*
X0106269Y0156610D01*
X0106148Y0156728D01*
X0106030Y0156849D01*
X0105915Y0156973D01*
X0105803Y0157100D01*
X0105694Y0157229D01*
X0105588Y0157361D01*
X0105486Y0157496D01*
X0105387Y0157633D01*
X0105291Y0157772D01*
X0105199Y0157914D01*
X0105110Y0158058D01*
X0105025Y0158204D01*
X0104944Y0158352D01*
X0104866Y0158502D01*
X0104792Y0158654D01*
X0104721Y0158808D01*
X0104654Y0158963D01*
X0104592Y0159120D01*
X0104533Y0159279D01*
X0104478Y0159439D01*
X0104427Y0159600D01*
X0104380Y0159762D01*
X0104336Y0159926D01*
X0104297Y0160090D01*
X0104262Y0160256D01*
X0104231Y0160422D01*
X0104205Y0160589D01*
X0104182Y0160757D01*
X0104163Y0160925D01*
X0104149Y0161093D01*
X0104138Y0161262D01*
X0104132Y0161431D01*
X0104130Y0161600D01*
X0018520Y0311600D02*
X0018522Y0311741D01*
X0018528Y0311882D01*
X0018538Y0312022D01*
X0018552Y0312162D01*
X0018570Y0312302D01*
X0018591Y0312441D01*
X0018617Y0312580D01*
X0018646Y0312718D01*
X0018680Y0312854D01*
X0018717Y0312990D01*
X0018758Y0313125D01*
X0018803Y0313259D01*
X0018852Y0313391D01*
X0018904Y0313522D01*
X0018960Y0313651D01*
X0019020Y0313778D01*
X0019083Y0313904D01*
X0019149Y0314028D01*
X0019220Y0314151D01*
X0019293Y0314271D01*
X0019370Y0314389D01*
X0019450Y0314505D01*
X0019534Y0314618D01*
X0019620Y0314729D01*
X0019710Y0314838D01*
X0019803Y0314944D01*
X0019898Y0315047D01*
X0019997Y0315148D01*
X0020098Y0315246D01*
X0020202Y0315341D01*
X0020309Y0315433D01*
X0020418Y0315522D01*
X0020530Y0315607D01*
X0020644Y0315690D01*
X0020760Y0315770D01*
X0020879Y0315846D01*
X0021000Y0315918D01*
X0021122Y0315988D01*
X0021247Y0316053D01*
X0021373Y0316116D01*
X0021501Y0316174D01*
X0021631Y0316229D01*
X0021762Y0316281D01*
X0021895Y0316328D01*
X0022029Y0316372D01*
X0022164Y0316413D01*
X0022300Y0316449D01*
X0022437Y0316481D01*
X0022575Y0316510D01*
X0022713Y0316535D01*
X0022853Y0316555D01*
X0022993Y0316572D01*
X0023133Y0316585D01*
X0023274Y0316594D01*
X0023414Y0316599D01*
X0023555Y0316600D01*
X0023696Y0316597D01*
X0023837Y0316590D01*
X0023977Y0316579D01*
X0024117Y0316564D01*
X0024257Y0316545D01*
X0024396Y0316523D01*
X0024534Y0316496D01*
X0024672Y0316466D01*
X0024808Y0316431D01*
X0024944Y0316393D01*
X0025078Y0316351D01*
X0025212Y0316305D01*
X0025344Y0316256D01*
X0025474Y0316202D01*
X0025603Y0316145D01*
X0025730Y0316085D01*
X0025856Y0316021D01*
X0025979Y0315953D01*
X0026101Y0315882D01*
X0026221Y0315808D01*
X0026338Y0315730D01*
X0026453Y0315649D01*
X0026566Y0315565D01*
X0026677Y0315478D01*
X0026785Y0315387D01*
X0026890Y0315294D01*
X0026993Y0315197D01*
X0027093Y0315098D01*
X0027190Y0314996D01*
X0027284Y0314891D01*
X0027375Y0314784D01*
X0027463Y0314674D01*
X0027548Y0314562D01*
X0027630Y0314447D01*
X0027709Y0314330D01*
X0027784Y0314211D01*
X0027856Y0314090D01*
X0027924Y0313967D01*
X0027989Y0313842D01*
X0028051Y0313715D01*
X0028108Y0313586D01*
X0028163Y0313456D01*
X0028213Y0313325D01*
X0028260Y0313192D01*
X0028303Y0313058D01*
X0028342Y0312922D01*
X0028377Y0312786D01*
X0028409Y0312649D01*
X0028436Y0312511D01*
X0028460Y0312372D01*
X0028480Y0312232D01*
X0028496Y0312092D01*
X0028508Y0311952D01*
X0028516Y0311811D01*
X0028520Y0311670D01*
X0028520Y0311530D01*
X0028516Y0311389D01*
X0028508Y0311248D01*
X0028496Y0311108D01*
X0028480Y0310968D01*
X0028460Y0310828D01*
X0028436Y0310689D01*
X0028409Y0310551D01*
X0028377Y0310414D01*
X0028342Y0310278D01*
X0028303Y0310142D01*
X0028260Y0310008D01*
X0028213Y0309875D01*
X0028163Y0309744D01*
X0028108Y0309614D01*
X0028051Y0309485D01*
X0027989Y0309358D01*
X0027924Y0309233D01*
X0027856Y0309110D01*
X0027784Y0308989D01*
X0027709Y0308870D01*
X0027630Y0308753D01*
X0027548Y0308638D01*
X0027463Y0308526D01*
X0027375Y0308416D01*
X0027284Y0308309D01*
X0027190Y0308204D01*
X0027093Y0308102D01*
X0026993Y0308003D01*
X0026890Y0307906D01*
X0026785Y0307813D01*
X0026677Y0307722D01*
X0026566Y0307635D01*
X0026453Y0307551D01*
X0026338Y0307470D01*
X0026221Y0307392D01*
X0026101Y0307318D01*
X0025979Y0307247D01*
X0025856Y0307179D01*
X0025730Y0307115D01*
X0025603Y0307055D01*
X0025474Y0306998D01*
X0025344Y0306944D01*
X0025212Y0306895D01*
X0025078Y0306849D01*
X0024944Y0306807D01*
X0024808Y0306769D01*
X0024672Y0306734D01*
X0024534Y0306704D01*
X0024396Y0306677D01*
X0024257Y0306655D01*
X0024117Y0306636D01*
X0023977Y0306621D01*
X0023837Y0306610D01*
X0023696Y0306603D01*
X0023555Y0306600D01*
X0023414Y0306601D01*
X0023274Y0306606D01*
X0023133Y0306615D01*
X0022993Y0306628D01*
X0022853Y0306645D01*
X0022713Y0306665D01*
X0022575Y0306690D01*
X0022437Y0306719D01*
X0022300Y0306751D01*
X0022164Y0306787D01*
X0022029Y0306828D01*
X0021895Y0306872D01*
X0021762Y0306919D01*
X0021631Y0306971D01*
X0021501Y0307026D01*
X0021373Y0307084D01*
X0021247Y0307147D01*
X0021122Y0307212D01*
X0021000Y0307282D01*
X0020879Y0307354D01*
X0020760Y0307430D01*
X0020644Y0307510D01*
X0020530Y0307593D01*
X0020418Y0307678D01*
X0020309Y0307767D01*
X0020202Y0307859D01*
X0020098Y0307954D01*
X0019997Y0308052D01*
X0019898Y0308153D01*
X0019803Y0308256D01*
X0019710Y0308362D01*
X0019620Y0308471D01*
X0019534Y0308582D01*
X0019450Y0308695D01*
X0019370Y0308811D01*
X0019293Y0308929D01*
X0019220Y0309049D01*
X0019149Y0309172D01*
X0019083Y0309296D01*
X0019020Y0309422D01*
X0018960Y0309549D01*
X0018904Y0309678D01*
X0018852Y0309809D01*
X0018803Y0309941D01*
X0018758Y0310075D01*
X0018717Y0310210D01*
X0018680Y0310346D01*
X0018646Y0310482D01*
X0018617Y0310620D01*
X0018591Y0310759D01*
X0018570Y0310898D01*
X0018552Y0311038D01*
X0018538Y0311178D01*
X0018528Y0311318D01*
X0018522Y0311459D01*
X0018520Y0311600D01*
X0327417Y0311600D02*
X0327419Y0311741D01*
X0327425Y0311882D01*
X0327435Y0312022D01*
X0327449Y0312162D01*
X0327467Y0312302D01*
X0327488Y0312441D01*
X0327514Y0312580D01*
X0327543Y0312718D01*
X0327577Y0312854D01*
X0327614Y0312990D01*
X0327655Y0313125D01*
X0327700Y0313259D01*
X0327749Y0313391D01*
X0327801Y0313522D01*
X0327857Y0313651D01*
X0327917Y0313778D01*
X0327980Y0313904D01*
X0328046Y0314028D01*
X0328117Y0314151D01*
X0328190Y0314271D01*
X0328267Y0314389D01*
X0328347Y0314505D01*
X0328431Y0314618D01*
X0328517Y0314729D01*
X0328607Y0314838D01*
X0328700Y0314944D01*
X0328795Y0315047D01*
X0328894Y0315148D01*
X0328995Y0315246D01*
X0329099Y0315341D01*
X0329206Y0315433D01*
X0329315Y0315522D01*
X0329427Y0315607D01*
X0329541Y0315690D01*
X0329657Y0315770D01*
X0329776Y0315846D01*
X0329897Y0315918D01*
X0330019Y0315988D01*
X0330144Y0316053D01*
X0330270Y0316116D01*
X0330398Y0316174D01*
X0330528Y0316229D01*
X0330659Y0316281D01*
X0330792Y0316328D01*
X0330926Y0316372D01*
X0331061Y0316413D01*
X0331197Y0316449D01*
X0331334Y0316481D01*
X0331472Y0316510D01*
X0331610Y0316535D01*
X0331750Y0316555D01*
X0331890Y0316572D01*
X0332030Y0316585D01*
X0332171Y0316594D01*
X0332311Y0316599D01*
X0332452Y0316600D01*
X0332593Y0316597D01*
X0332734Y0316590D01*
X0332874Y0316579D01*
X0333014Y0316564D01*
X0333154Y0316545D01*
X0333293Y0316523D01*
X0333431Y0316496D01*
X0333569Y0316466D01*
X0333705Y0316431D01*
X0333841Y0316393D01*
X0333975Y0316351D01*
X0334109Y0316305D01*
X0334241Y0316256D01*
X0334371Y0316202D01*
X0334500Y0316145D01*
X0334627Y0316085D01*
X0334753Y0316021D01*
X0334876Y0315953D01*
X0334998Y0315882D01*
X0335118Y0315808D01*
X0335235Y0315730D01*
X0335350Y0315649D01*
X0335463Y0315565D01*
X0335574Y0315478D01*
X0335682Y0315387D01*
X0335787Y0315294D01*
X0335890Y0315197D01*
X0335990Y0315098D01*
X0336087Y0314996D01*
X0336181Y0314891D01*
X0336272Y0314784D01*
X0336360Y0314674D01*
X0336445Y0314562D01*
X0336527Y0314447D01*
X0336606Y0314330D01*
X0336681Y0314211D01*
X0336753Y0314090D01*
X0336821Y0313967D01*
X0336886Y0313842D01*
X0336948Y0313715D01*
X0337005Y0313586D01*
X0337060Y0313456D01*
X0337110Y0313325D01*
X0337157Y0313192D01*
X0337200Y0313058D01*
X0337239Y0312922D01*
X0337274Y0312786D01*
X0337306Y0312649D01*
X0337333Y0312511D01*
X0337357Y0312372D01*
X0337377Y0312232D01*
X0337393Y0312092D01*
X0337405Y0311952D01*
X0337413Y0311811D01*
X0337417Y0311670D01*
X0337417Y0311530D01*
X0337413Y0311389D01*
X0337405Y0311248D01*
X0337393Y0311108D01*
X0337377Y0310968D01*
X0337357Y0310828D01*
X0337333Y0310689D01*
X0337306Y0310551D01*
X0337274Y0310414D01*
X0337239Y0310278D01*
X0337200Y0310142D01*
X0337157Y0310008D01*
X0337110Y0309875D01*
X0337060Y0309744D01*
X0337005Y0309614D01*
X0336948Y0309485D01*
X0336886Y0309358D01*
X0336821Y0309233D01*
X0336753Y0309110D01*
X0336681Y0308989D01*
X0336606Y0308870D01*
X0336527Y0308753D01*
X0336445Y0308638D01*
X0336360Y0308526D01*
X0336272Y0308416D01*
X0336181Y0308309D01*
X0336087Y0308204D01*
X0335990Y0308102D01*
X0335890Y0308003D01*
X0335787Y0307906D01*
X0335682Y0307813D01*
X0335574Y0307722D01*
X0335463Y0307635D01*
X0335350Y0307551D01*
X0335235Y0307470D01*
X0335118Y0307392D01*
X0334998Y0307318D01*
X0334876Y0307247D01*
X0334753Y0307179D01*
X0334627Y0307115D01*
X0334500Y0307055D01*
X0334371Y0306998D01*
X0334241Y0306944D01*
X0334109Y0306895D01*
X0333975Y0306849D01*
X0333841Y0306807D01*
X0333705Y0306769D01*
X0333569Y0306734D01*
X0333431Y0306704D01*
X0333293Y0306677D01*
X0333154Y0306655D01*
X0333014Y0306636D01*
X0332874Y0306621D01*
X0332734Y0306610D01*
X0332593Y0306603D01*
X0332452Y0306600D01*
X0332311Y0306601D01*
X0332171Y0306606D01*
X0332030Y0306615D01*
X0331890Y0306628D01*
X0331750Y0306645D01*
X0331610Y0306665D01*
X0331472Y0306690D01*
X0331334Y0306719D01*
X0331197Y0306751D01*
X0331061Y0306787D01*
X0330926Y0306828D01*
X0330792Y0306872D01*
X0330659Y0306919D01*
X0330528Y0306971D01*
X0330398Y0307026D01*
X0330270Y0307084D01*
X0330144Y0307147D01*
X0330019Y0307212D01*
X0329897Y0307282D01*
X0329776Y0307354D01*
X0329657Y0307430D01*
X0329541Y0307510D01*
X0329427Y0307593D01*
X0329315Y0307678D01*
X0329206Y0307767D01*
X0329099Y0307859D01*
X0328995Y0307954D01*
X0328894Y0308052D01*
X0328795Y0308153D01*
X0328700Y0308256D01*
X0328607Y0308362D01*
X0328517Y0308471D01*
X0328431Y0308582D01*
X0328347Y0308695D01*
X0328267Y0308811D01*
X0328190Y0308929D01*
X0328117Y0309049D01*
X0328046Y0309172D01*
X0327980Y0309296D01*
X0327917Y0309422D01*
X0327857Y0309549D01*
X0327801Y0309678D01*
X0327749Y0309809D01*
X0327700Y0309941D01*
X0327655Y0310075D01*
X0327614Y0310210D01*
X0327577Y0310346D01*
X0327543Y0310482D01*
X0327514Y0310620D01*
X0327488Y0310759D01*
X0327467Y0310898D01*
X0327449Y0311038D01*
X0327435Y0311178D01*
X0327425Y0311318D01*
X0327419Y0311459D01*
X0327417Y0311600D01*
X0327417Y0011600D02*
X0327419Y0011741D01*
X0327425Y0011882D01*
X0327435Y0012022D01*
X0327449Y0012162D01*
X0327467Y0012302D01*
X0327488Y0012441D01*
X0327514Y0012580D01*
X0327543Y0012718D01*
X0327577Y0012854D01*
X0327614Y0012990D01*
X0327655Y0013125D01*
X0327700Y0013259D01*
X0327749Y0013391D01*
X0327801Y0013522D01*
X0327857Y0013651D01*
X0327917Y0013778D01*
X0327980Y0013904D01*
X0328046Y0014028D01*
X0328117Y0014151D01*
X0328190Y0014271D01*
X0328267Y0014389D01*
X0328347Y0014505D01*
X0328431Y0014618D01*
X0328517Y0014729D01*
X0328607Y0014838D01*
X0328700Y0014944D01*
X0328795Y0015047D01*
X0328894Y0015148D01*
X0328995Y0015246D01*
X0329099Y0015341D01*
X0329206Y0015433D01*
X0329315Y0015522D01*
X0329427Y0015607D01*
X0329541Y0015690D01*
X0329657Y0015770D01*
X0329776Y0015846D01*
X0329897Y0015918D01*
X0330019Y0015988D01*
X0330144Y0016053D01*
X0330270Y0016116D01*
X0330398Y0016174D01*
X0330528Y0016229D01*
X0330659Y0016281D01*
X0330792Y0016328D01*
X0330926Y0016372D01*
X0331061Y0016413D01*
X0331197Y0016449D01*
X0331334Y0016481D01*
X0331472Y0016510D01*
X0331610Y0016535D01*
X0331750Y0016555D01*
X0331890Y0016572D01*
X0332030Y0016585D01*
X0332171Y0016594D01*
X0332311Y0016599D01*
X0332452Y0016600D01*
X0332593Y0016597D01*
X0332734Y0016590D01*
X0332874Y0016579D01*
X0333014Y0016564D01*
X0333154Y0016545D01*
X0333293Y0016523D01*
X0333431Y0016496D01*
X0333569Y0016466D01*
X0333705Y0016431D01*
X0333841Y0016393D01*
X0333975Y0016351D01*
X0334109Y0016305D01*
X0334241Y0016256D01*
X0334371Y0016202D01*
X0334500Y0016145D01*
X0334627Y0016085D01*
X0334753Y0016021D01*
X0334876Y0015953D01*
X0334998Y0015882D01*
X0335118Y0015808D01*
X0335235Y0015730D01*
X0335350Y0015649D01*
X0335463Y0015565D01*
X0335574Y0015478D01*
X0335682Y0015387D01*
X0335787Y0015294D01*
X0335890Y0015197D01*
X0335990Y0015098D01*
X0336087Y0014996D01*
X0336181Y0014891D01*
X0336272Y0014784D01*
X0336360Y0014674D01*
X0336445Y0014562D01*
X0336527Y0014447D01*
X0336606Y0014330D01*
X0336681Y0014211D01*
X0336753Y0014090D01*
X0336821Y0013967D01*
X0336886Y0013842D01*
X0336948Y0013715D01*
X0337005Y0013586D01*
X0337060Y0013456D01*
X0337110Y0013325D01*
X0337157Y0013192D01*
X0337200Y0013058D01*
X0337239Y0012922D01*
X0337274Y0012786D01*
X0337306Y0012649D01*
X0337333Y0012511D01*
X0337357Y0012372D01*
X0337377Y0012232D01*
X0337393Y0012092D01*
X0337405Y0011952D01*
X0337413Y0011811D01*
X0337417Y0011670D01*
X0337417Y0011530D01*
X0337413Y0011389D01*
X0337405Y0011248D01*
X0337393Y0011108D01*
X0337377Y0010968D01*
X0337357Y0010828D01*
X0337333Y0010689D01*
X0337306Y0010551D01*
X0337274Y0010414D01*
X0337239Y0010278D01*
X0337200Y0010142D01*
X0337157Y0010008D01*
X0337110Y0009875D01*
X0337060Y0009744D01*
X0337005Y0009614D01*
X0336948Y0009485D01*
X0336886Y0009358D01*
X0336821Y0009233D01*
X0336753Y0009110D01*
X0336681Y0008989D01*
X0336606Y0008870D01*
X0336527Y0008753D01*
X0336445Y0008638D01*
X0336360Y0008526D01*
X0336272Y0008416D01*
X0336181Y0008309D01*
X0336087Y0008204D01*
X0335990Y0008102D01*
X0335890Y0008003D01*
X0335787Y0007906D01*
X0335682Y0007813D01*
X0335574Y0007722D01*
X0335463Y0007635D01*
X0335350Y0007551D01*
X0335235Y0007470D01*
X0335118Y0007392D01*
X0334998Y0007318D01*
X0334876Y0007247D01*
X0334753Y0007179D01*
X0334627Y0007115D01*
X0334500Y0007055D01*
X0334371Y0006998D01*
X0334241Y0006944D01*
X0334109Y0006895D01*
X0333975Y0006849D01*
X0333841Y0006807D01*
X0333705Y0006769D01*
X0333569Y0006734D01*
X0333431Y0006704D01*
X0333293Y0006677D01*
X0333154Y0006655D01*
X0333014Y0006636D01*
X0332874Y0006621D01*
X0332734Y0006610D01*
X0332593Y0006603D01*
X0332452Y0006600D01*
X0332311Y0006601D01*
X0332171Y0006606D01*
X0332030Y0006615D01*
X0331890Y0006628D01*
X0331750Y0006645D01*
X0331610Y0006665D01*
X0331472Y0006690D01*
X0331334Y0006719D01*
X0331197Y0006751D01*
X0331061Y0006787D01*
X0330926Y0006828D01*
X0330792Y0006872D01*
X0330659Y0006919D01*
X0330528Y0006971D01*
X0330398Y0007026D01*
X0330270Y0007084D01*
X0330144Y0007147D01*
X0330019Y0007212D01*
X0329897Y0007282D01*
X0329776Y0007354D01*
X0329657Y0007430D01*
X0329541Y0007510D01*
X0329427Y0007593D01*
X0329315Y0007678D01*
X0329206Y0007767D01*
X0329099Y0007859D01*
X0328995Y0007954D01*
X0328894Y0008052D01*
X0328795Y0008153D01*
X0328700Y0008256D01*
X0328607Y0008362D01*
X0328517Y0008471D01*
X0328431Y0008582D01*
X0328347Y0008695D01*
X0328267Y0008811D01*
X0328190Y0008929D01*
X0328117Y0009049D01*
X0328046Y0009172D01*
X0327980Y0009296D01*
X0327917Y0009422D01*
X0327857Y0009549D01*
X0327801Y0009678D01*
X0327749Y0009809D01*
X0327700Y0009941D01*
X0327655Y0010075D01*
X0327614Y0010210D01*
X0327577Y0010346D01*
X0327543Y0010482D01*
X0327514Y0010620D01*
X0327488Y0010759D01*
X0327467Y0010898D01*
X0327449Y0011038D01*
X0327435Y0011178D01*
X0327425Y0011318D01*
X0327419Y0011459D01*
X0327417Y0011600D01*
D12*
X0313520Y0026600D03*
X0303520Y0026600D03*
X0293520Y0026600D03*
X0283520Y0026600D03*
X0233520Y0026600D03*
X0223520Y0026600D03*
X0213520Y0026600D03*
X0203520Y0026600D03*
X0153520Y0026600D03*
X0143520Y0026600D03*
X0133520Y0026600D03*
X0123520Y0026600D03*
X0073520Y0026600D03*
X0063520Y0026600D03*
X0053520Y0026600D03*
X0043520Y0026600D03*
X0141020Y0226600D03*
X0141020Y0236600D03*
X0141020Y0246600D03*
X0141020Y0256600D03*
X0143520Y0296600D03*
X0153520Y0296600D03*
X0133520Y0296600D03*
X0123520Y0296600D03*
X0073520Y0296600D03*
X0063520Y0296600D03*
X0053520Y0296600D03*
X0043520Y0296600D03*
X0203520Y0296600D03*
X0213520Y0296600D03*
X0223520Y0296600D03*
X0233520Y0296600D03*
X0283520Y0296600D03*
X0293520Y0296600D03*
X0303520Y0296600D03*
X0313520Y0296600D03*
D13*
X0055331Y0125900D02*
X0055331Y0117300D01*
X0047820Y0102702D02*
X0039220Y0102702D01*
X0031709Y0117300D02*
X0031709Y0125900D01*
D14*
X0073520Y0121600D03*
X0073520Y0111600D03*
X0073520Y0101600D03*
X0073520Y0131600D03*
X0073520Y0141600D03*
X0073520Y0151600D03*
X0083520Y0146600D03*
X0083520Y0136600D03*
X0073520Y0161600D03*
X0073520Y0171600D03*
X0073520Y0181600D03*
X0073520Y0191600D03*
X0073520Y0201600D03*
X0073520Y0211600D03*
X0083520Y0211600D03*
X0093520Y0211600D03*
X0103520Y0211600D03*
X0133520Y0211600D03*
X0133520Y0201600D03*
X0133520Y0191600D03*
X0133520Y0181600D03*
X0133520Y0171600D03*
X0133520Y0161600D03*
X0133520Y0151600D03*
X0133520Y0141600D03*
X0133520Y0131600D03*
X0133520Y0121600D03*
X0133520Y0111600D03*
X0133520Y0101600D03*
X0156020Y0104100D03*
X0156020Y0094100D03*
X0156020Y0084100D03*
X0156020Y0074100D03*
X0156020Y0064100D03*
X0156020Y0054100D03*
X0156020Y0044100D03*
X0156020Y0114100D03*
X0156020Y0124100D03*
X0183520Y0199100D03*
X0183520Y0209100D03*
X0183520Y0219100D03*
X0183520Y0229100D03*
X0183520Y0239100D03*
X0183520Y0249100D03*
X0183520Y0259100D03*
X0183520Y0269100D03*
X0183520Y0279100D03*
D15*
X0202020Y0261600D03*
D16*
X0202020Y0251600D03*
X0202020Y0241600D03*
X0202020Y0231600D03*
X0202020Y0221600D03*
X0318520Y0231600D03*
X0318520Y0241600D03*
X0318520Y0251600D03*
X0318520Y0261600D03*
D17*
X0038520Y0191443D03*
D18*
X0038520Y0171757D03*
D19*
X0313520Y0171600D03*
X0318520Y0171600D03*
X0318520Y0166600D03*
X0318520Y0161600D03*
X0318520Y0156600D03*
X0318520Y0151600D03*
X0313520Y0151600D03*
X0313520Y0156600D03*
X0313520Y0161600D03*
X0313520Y0166600D03*
D20*
X0043520Y0076600D03*
X0043520Y0066600D03*
X0043520Y0056600D03*
X0043520Y0046600D03*
D21*
X0156020Y0134100D03*
X0183520Y0189100D03*
M02*
