G75*
%MOIN*%
%OFA0B0*%
%FSLAX25Y25*%
%IPPOS*%
%LPD*%
%AMOC8*
5,1,8,0,0,1.08239X$1,22.5*
%
%ADD10C,0.00000*%
%ADD11C,0.00600*%
%ADD12C,0.07400*%
%ADD13C,0.08600*%
%ADD14C,0.05906*%
%ADD15R,0.04724X0.04724*%
%ADD16C,0.04724*%
%ADD17R,0.08000X0.08000*%
%ADD18C,0.08000*%
%ADD19C,0.03562*%
%ADD20C,0.07600*%
%ADD21C,0.01200*%
%ADD22C,0.01600*%
%ADD23C,0.02400*%
%ADD24C,0.02400*%
D10*
X0013520Y0011600D02*
X0013520Y0311561D01*
X0013523Y0311803D01*
X0013532Y0312044D01*
X0013546Y0312285D01*
X0013567Y0312526D01*
X0013593Y0312766D01*
X0013625Y0313006D01*
X0013663Y0313245D01*
X0013706Y0313482D01*
X0013756Y0313719D01*
X0013811Y0313954D01*
X0013871Y0314188D01*
X0013938Y0314420D01*
X0014009Y0314651D01*
X0014087Y0314880D01*
X0014170Y0315107D01*
X0014258Y0315332D01*
X0014352Y0315555D01*
X0014451Y0315775D01*
X0014556Y0315993D01*
X0014665Y0316208D01*
X0014780Y0316421D01*
X0014900Y0316631D01*
X0015025Y0316837D01*
X0015155Y0317041D01*
X0015290Y0317242D01*
X0015430Y0317439D01*
X0015574Y0317633D01*
X0015723Y0317823D01*
X0015877Y0318009D01*
X0016035Y0318192D01*
X0016197Y0318371D01*
X0016364Y0318546D01*
X0016535Y0318717D01*
X0016710Y0318884D01*
X0016889Y0319046D01*
X0017072Y0319204D01*
X0017258Y0319358D01*
X0017448Y0319507D01*
X0017642Y0319651D01*
X0017839Y0319791D01*
X0018040Y0319926D01*
X0018244Y0320056D01*
X0018450Y0320181D01*
X0018660Y0320301D01*
X0018873Y0320416D01*
X0019088Y0320525D01*
X0019306Y0320630D01*
X0019526Y0320729D01*
X0019749Y0320823D01*
X0019974Y0320911D01*
X0020201Y0320994D01*
X0020430Y0321072D01*
X0020661Y0321143D01*
X0020893Y0321210D01*
X0021127Y0321270D01*
X0021362Y0321325D01*
X0021599Y0321375D01*
X0021836Y0321418D01*
X0022075Y0321456D01*
X0022315Y0321488D01*
X0022555Y0321514D01*
X0022796Y0321535D01*
X0023037Y0321549D01*
X0023278Y0321558D01*
X0023520Y0321561D01*
X0332260Y0321561D01*
X0332501Y0321558D01*
X0332741Y0321549D01*
X0332982Y0321535D01*
X0333221Y0321514D01*
X0333461Y0321488D01*
X0333699Y0321456D01*
X0333937Y0321419D01*
X0334174Y0321375D01*
X0334409Y0321326D01*
X0334644Y0321272D01*
X0334877Y0321211D01*
X0335108Y0321145D01*
X0335338Y0321073D01*
X0335566Y0320996D01*
X0335792Y0320914D01*
X0336016Y0320826D01*
X0336238Y0320732D01*
X0336458Y0320633D01*
X0336675Y0320529D01*
X0336889Y0320420D01*
X0337101Y0320306D01*
X0337310Y0320186D01*
X0337516Y0320062D01*
X0337719Y0319932D01*
X0337918Y0319798D01*
X0338115Y0319659D01*
X0338308Y0319515D01*
X0338497Y0319366D01*
X0338683Y0319213D01*
X0338865Y0319056D01*
X0339044Y0318894D01*
X0339218Y0318728D01*
X0339388Y0318558D01*
X0339554Y0318384D01*
X0339716Y0318205D01*
X0339873Y0318023D01*
X0340026Y0317837D01*
X0340175Y0317648D01*
X0340319Y0317455D01*
X0340458Y0317258D01*
X0340592Y0317059D01*
X0340722Y0316856D01*
X0340846Y0316650D01*
X0340966Y0316441D01*
X0341080Y0316229D01*
X0341189Y0316015D01*
X0341293Y0315798D01*
X0341392Y0315578D01*
X0341486Y0315356D01*
X0341574Y0315132D01*
X0341656Y0314906D01*
X0341733Y0314678D01*
X0341805Y0314448D01*
X0341871Y0314217D01*
X0341932Y0313984D01*
X0341986Y0313749D01*
X0342035Y0313514D01*
X0342079Y0313277D01*
X0342116Y0313039D01*
X0342148Y0312801D01*
X0342174Y0312561D01*
X0342195Y0312322D01*
X0342209Y0312081D01*
X0342218Y0311841D01*
X0342221Y0311600D01*
X0342220Y0311600D02*
X0342220Y0010301D01*
X0342221Y0010301D02*
X0342218Y0010091D01*
X0342211Y0009881D01*
X0342198Y0009671D01*
X0342180Y0009461D01*
X0342158Y0009252D01*
X0342130Y0009044D01*
X0342097Y0008836D01*
X0342059Y0008629D01*
X0342016Y0008423D01*
X0341968Y0008219D01*
X0341915Y0008015D01*
X0341858Y0007813D01*
X0341795Y0007612D01*
X0341728Y0007413D01*
X0341656Y0007216D01*
X0341579Y0007020D01*
X0341497Y0006826D01*
X0341411Y0006634D01*
X0341320Y0006445D01*
X0341224Y0006257D01*
X0341124Y0006072D01*
X0341020Y0005890D01*
X0340911Y0005710D01*
X0340798Y0005533D01*
X0340681Y0005358D01*
X0340559Y0005187D01*
X0340434Y0005018D01*
X0340304Y0004853D01*
X0340170Y0004690D01*
X0340033Y0004531D01*
X0339891Y0004375D01*
X0339746Y0004223D01*
X0339598Y0004075D01*
X0339446Y0003930D01*
X0339290Y0003788D01*
X0339131Y0003651D01*
X0338968Y0003517D01*
X0338803Y0003387D01*
X0338634Y0003262D01*
X0338463Y0003140D01*
X0338288Y0003023D01*
X0338111Y0002910D01*
X0337931Y0002801D01*
X0337749Y0002697D01*
X0337564Y0002597D01*
X0337376Y0002501D01*
X0337187Y0002410D01*
X0336995Y0002324D01*
X0336801Y0002242D01*
X0336605Y0002165D01*
X0336408Y0002093D01*
X0336209Y0002026D01*
X0336008Y0001963D01*
X0335806Y0001906D01*
X0335602Y0001853D01*
X0335398Y0001805D01*
X0335192Y0001762D01*
X0334985Y0001724D01*
X0334777Y0001691D01*
X0334569Y0001663D01*
X0334360Y0001641D01*
X0334150Y0001623D01*
X0333940Y0001610D01*
X0333730Y0001603D01*
X0333520Y0001600D01*
X0023520Y0001600D01*
X0023278Y0001603D01*
X0023037Y0001612D01*
X0022796Y0001626D01*
X0022555Y0001647D01*
X0022315Y0001673D01*
X0022075Y0001705D01*
X0021836Y0001743D01*
X0021599Y0001786D01*
X0021362Y0001836D01*
X0021127Y0001891D01*
X0020893Y0001951D01*
X0020661Y0002018D01*
X0020430Y0002089D01*
X0020201Y0002167D01*
X0019974Y0002250D01*
X0019749Y0002338D01*
X0019526Y0002432D01*
X0019306Y0002531D01*
X0019088Y0002636D01*
X0018873Y0002745D01*
X0018660Y0002860D01*
X0018450Y0002980D01*
X0018244Y0003105D01*
X0018040Y0003235D01*
X0017839Y0003370D01*
X0017642Y0003510D01*
X0017448Y0003654D01*
X0017258Y0003803D01*
X0017072Y0003957D01*
X0016889Y0004115D01*
X0016710Y0004277D01*
X0016535Y0004444D01*
X0016364Y0004615D01*
X0016197Y0004790D01*
X0016035Y0004969D01*
X0015877Y0005152D01*
X0015723Y0005338D01*
X0015574Y0005528D01*
X0015430Y0005722D01*
X0015290Y0005919D01*
X0015155Y0006120D01*
X0015025Y0006324D01*
X0014900Y0006530D01*
X0014780Y0006740D01*
X0014665Y0006953D01*
X0014556Y0007168D01*
X0014451Y0007386D01*
X0014352Y0007606D01*
X0014258Y0007829D01*
X0014170Y0008054D01*
X0014087Y0008281D01*
X0014009Y0008510D01*
X0013938Y0008741D01*
X0013871Y0008973D01*
X0013811Y0009207D01*
X0013756Y0009442D01*
X0013706Y0009679D01*
X0013663Y0009916D01*
X0013625Y0010155D01*
X0013593Y0010395D01*
X0013567Y0010635D01*
X0013546Y0010876D01*
X0013532Y0011117D01*
X0013523Y0011358D01*
X0013520Y0011600D01*
D11*
X0018520Y0011600D02*
X0018522Y0011741D01*
X0018528Y0011882D01*
X0018538Y0012022D01*
X0018552Y0012162D01*
X0018570Y0012302D01*
X0018591Y0012441D01*
X0018617Y0012580D01*
X0018646Y0012718D01*
X0018680Y0012854D01*
X0018717Y0012990D01*
X0018758Y0013125D01*
X0018803Y0013259D01*
X0018852Y0013391D01*
X0018904Y0013522D01*
X0018960Y0013651D01*
X0019020Y0013778D01*
X0019083Y0013904D01*
X0019149Y0014028D01*
X0019220Y0014151D01*
X0019293Y0014271D01*
X0019370Y0014389D01*
X0019450Y0014505D01*
X0019534Y0014618D01*
X0019620Y0014729D01*
X0019710Y0014838D01*
X0019803Y0014944D01*
X0019898Y0015047D01*
X0019997Y0015148D01*
X0020098Y0015246D01*
X0020202Y0015341D01*
X0020309Y0015433D01*
X0020418Y0015522D01*
X0020530Y0015607D01*
X0020644Y0015690D01*
X0020760Y0015770D01*
X0020879Y0015846D01*
X0021000Y0015918D01*
X0021122Y0015988D01*
X0021247Y0016053D01*
X0021373Y0016116D01*
X0021501Y0016174D01*
X0021631Y0016229D01*
X0021762Y0016281D01*
X0021895Y0016328D01*
X0022029Y0016372D01*
X0022164Y0016413D01*
X0022300Y0016449D01*
X0022437Y0016481D01*
X0022575Y0016510D01*
X0022713Y0016535D01*
X0022853Y0016555D01*
X0022993Y0016572D01*
X0023133Y0016585D01*
X0023274Y0016594D01*
X0023414Y0016599D01*
X0023555Y0016600D01*
X0023696Y0016597D01*
X0023837Y0016590D01*
X0023977Y0016579D01*
X0024117Y0016564D01*
X0024257Y0016545D01*
X0024396Y0016523D01*
X0024534Y0016496D01*
X0024672Y0016466D01*
X0024808Y0016431D01*
X0024944Y0016393D01*
X0025078Y0016351D01*
X0025212Y0016305D01*
X0025344Y0016256D01*
X0025474Y0016202D01*
X0025603Y0016145D01*
X0025730Y0016085D01*
X0025856Y0016021D01*
X0025979Y0015953D01*
X0026101Y0015882D01*
X0026221Y0015808D01*
X0026338Y0015730D01*
X0026453Y0015649D01*
X0026566Y0015565D01*
X0026677Y0015478D01*
X0026785Y0015387D01*
X0026890Y0015294D01*
X0026993Y0015197D01*
X0027093Y0015098D01*
X0027190Y0014996D01*
X0027284Y0014891D01*
X0027375Y0014784D01*
X0027463Y0014674D01*
X0027548Y0014562D01*
X0027630Y0014447D01*
X0027709Y0014330D01*
X0027784Y0014211D01*
X0027856Y0014090D01*
X0027924Y0013967D01*
X0027989Y0013842D01*
X0028051Y0013715D01*
X0028108Y0013586D01*
X0028163Y0013456D01*
X0028213Y0013325D01*
X0028260Y0013192D01*
X0028303Y0013058D01*
X0028342Y0012922D01*
X0028377Y0012786D01*
X0028409Y0012649D01*
X0028436Y0012511D01*
X0028460Y0012372D01*
X0028480Y0012232D01*
X0028496Y0012092D01*
X0028508Y0011952D01*
X0028516Y0011811D01*
X0028520Y0011670D01*
X0028520Y0011530D01*
X0028516Y0011389D01*
X0028508Y0011248D01*
X0028496Y0011108D01*
X0028480Y0010968D01*
X0028460Y0010828D01*
X0028436Y0010689D01*
X0028409Y0010551D01*
X0028377Y0010414D01*
X0028342Y0010278D01*
X0028303Y0010142D01*
X0028260Y0010008D01*
X0028213Y0009875D01*
X0028163Y0009744D01*
X0028108Y0009614D01*
X0028051Y0009485D01*
X0027989Y0009358D01*
X0027924Y0009233D01*
X0027856Y0009110D01*
X0027784Y0008989D01*
X0027709Y0008870D01*
X0027630Y0008753D01*
X0027548Y0008638D01*
X0027463Y0008526D01*
X0027375Y0008416D01*
X0027284Y0008309D01*
X0027190Y0008204D01*
X0027093Y0008102D01*
X0026993Y0008003D01*
X0026890Y0007906D01*
X0026785Y0007813D01*
X0026677Y0007722D01*
X0026566Y0007635D01*
X0026453Y0007551D01*
X0026338Y0007470D01*
X0026221Y0007392D01*
X0026101Y0007318D01*
X0025979Y0007247D01*
X0025856Y0007179D01*
X0025730Y0007115D01*
X0025603Y0007055D01*
X0025474Y0006998D01*
X0025344Y0006944D01*
X0025212Y0006895D01*
X0025078Y0006849D01*
X0024944Y0006807D01*
X0024808Y0006769D01*
X0024672Y0006734D01*
X0024534Y0006704D01*
X0024396Y0006677D01*
X0024257Y0006655D01*
X0024117Y0006636D01*
X0023977Y0006621D01*
X0023837Y0006610D01*
X0023696Y0006603D01*
X0023555Y0006600D01*
X0023414Y0006601D01*
X0023274Y0006606D01*
X0023133Y0006615D01*
X0022993Y0006628D01*
X0022853Y0006645D01*
X0022713Y0006665D01*
X0022575Y0006690D01*
X0022437Y0006719D01*
X0022300Y0006751D01*
X0022164Y0006787D01*
X0022029Y0006828D01*
X0021895Y0006872D01*
X0021762Y0006919D01*
X0021631Y0006971D01*
X0021501Y0007026D01*
X0021373Y0007084D01*
X0021247Y0007147D01*
X0021122Y0007212D01*
X0021000Y0007282D01*
X0020879Y0007354D01*
X0020760Y0007430D01*
X0020644Y0007510D01*
X0020530Y0007593D01*
X0020418Y0007678D01*
X0020309Y0007767D01*
X0020202Y0007859D01*
X0020098Y0007954D01*
X0019997Y0008052D01*
X0019898Y0008153D01*
X0019803Y0008256D01*
X0019710Y0008362D01*
X0019620Y0008471D01*
X0019534Y0008582D01*
X0019450Y0008695D01*
X0019370Y0008811D01*
X0019293Y0008929D01*
X0019220Y0009049D01*
X0019149Y0009172D01*
X0019083Y0009296D01*
X0019020Y0009422D01*
X0018960Y0009549D01*
X0018904Y0009678D01*
X0018852Y0009809D01*
X0018803Y0009941D01*
X0018758Y0010075D01*
X0018717Y0010210D01*
X0018680Y0010346D01*
X0018646Y0010482D01*
X0018617Y0010620D01*
X0018591Y0010759D01*
X0018570Y0010898D01*
X0018552Y0011038D01*
X0018538Y0011178D01*
X0018528Y0011318D01*
X0018522Y0011459D01*
X0018520Y0011600D01*
X0166630Y0071600D02*
X0166632Y0071769D01*
X0166638Y0071938D01*
X0166649Y0072107D01*
X0166663Y0072275D01*
X0166682Y0072443D01*
X0166705Y0072611D01*
X0166731Y0072778D01*
X0166762Y0072944D01*
X0166797Y0073110D01*
X0166836Y0073274D01*
X0166880Y0073438D01*
X0166927Y0073600D01*
X0166978Y0073761D01*
X0167033Y0073921D01*
X0167092Y0074080D01*
X0167154Y0074237D01*
X0167221Y0074392D01*
X0167292Y0074546D01*
X0167366Y0074698D01*
X0167444Y0074848D01*
X0167525Y0074996D01*
X0167610Y0075142D01*
X0167699Y0075286D01*
X0167791Y0075428D01*
X0167887Y0075567D01*
X0167986Y0075704D01*
X0168088Y0075839D01*
X0168194Y0075971D01*
X0168303Y0076100D01*
X0168415Y0076227D01*
X0168530Y0076351D01*
X0168648Y0076472D01*
X0168769Y0076590D01*
X0168893Y0076705D01*
X0169020Y0076817D01*
X0169149Y0076926D01*
X0169281Y0077032D01*
X0169416Y0077134D01*
X0169553Y0077233D01*
X0169692Y0077329D01*
X0169834Y0077421D01*
X0169978Y0077510D01*
X0170124Y0077595D01*
X0170272Y0077676D01*
X0170422Y0077754D01*
X0170574Y0077828D01*
X0170728Y0077899D01*
X0170883Y0077966D01*
X0171040Y0078028D01*
X0171199Y0078087D01*
X0171359Y0078142D01*
X0171520Y0078193D01*
X0171682Y0078240D01*
X0171846Y0078284D01*
X0172010Y0078323D01*
X0172176Y0078358D01*
X0172342Y0078389D01*
X0172509Y0078415D01*
X0172677Y0078438D01*
X0172845Y0078457D01*
X0173013Y0078471D01*
X0173182Y0078482D01*
X0173351Y0078488D01*
X0173520Y0078490D01*
X0173689Y0078488D01*
X0173858Y0078482D01*
X0174027Y0078471D01*
X0174195Y0078457D01*
X0174363Y0078438D01*
X0174531Y0078415D01*
X0174698Y0078389D01*
X0174864Y0078358D01*
X0175030Y0078323D01*
X0175194Y0078284D01*
X0175358Y0078240D01*
X0175520Y0078193D01*
X0175681Y0078142D01*
X0175841Y0078087D01*
X0176000Y0078028D01*
X0176157Y0077966D01*
X0176312Y0077899D01*
X0176466Y0077828D01*
X0176618Y0077754D01*
X0176768Y0077676D01*
X0176916Y0077595D01*
X0177062Y0077510D01*
X0177206Y0077421D01*
X0177348Y0077329D01*
X0177487Y0077233D01*
X0177624Y0077134D01*
X0177759Y0077032D01*
X0177891Y0076926D01*
X0178020Y0076817D01*
X0178147Y0076705D01*
X0178271Y0076590D01*
X0178392Y0076472D01*
X0178510Y0076351D01*
X0178625Y0076227D01*
X0178737Y0076100D01*
X0178846Y0075971D01*
X0178952Y0075839D01*
X0179054Y0075704D01*
X0179153Y0075567D01*
X0179249Y0075428D01*
X0179341Y0075286D01*
X0179430Y0075142D01*
X0179515Y0074996D01*
X0179596Y0074848D01*
X0179674Y0074698D01*
X0179748Y0074546D01*
X0179819Y0074392D01*
X0179886Y0074237D01*
X0179948Y0074080D01*
X0180007Y0073921D01*
X0180062Y0073761D01*
X0180113Y0073600D01*
X0180160Y0073438D01*
X0180204Y0073274D01*
X0180243Y0073110D01*
X0180278Y0072944D01*
X0180309Y0072778D01*
X0180335Y0072611D01*
X0180358Y0072443D01*
X0180377Y0072275D01*
X0180391Y0072107D01*
X0180402Y0071938D01*
X0180408Y0071769D01*
X0180410Y0071600D01*
X0180408Y0071431D01*
X0180402Y0071262D01*
X0180391Y0071093D01*
X0180377Y0070925D01*
X0180358Y0070757D01*
X0180335Y0070589D01*
X0180309Y0070422D01*
X0180278Y0070256D01*
X0180243Y0070090D01*
X0180204Y0069926D01*
X0180160Y0069762D01*
X0180113Y0069600D01*
X0180062Y0069439D01*
X0180007Y0069279D01*
X0179948Y0069120D01*
X0179886Y0068963D01*
X0179819Y0068808D01*
X0179748Y0068654D01*
X0179674Y0068502D01*
X0179596Y0068352D01*
X0179515Y0068204D01*
X0179430Y0068058D01*
X0179341Y0067914D01*
X0179249Y0067772D01*
X0179153Y0067633D01*
X0179054Y0067496D01*
X0178952Y0067361D01*
X0178846Y0067229D01*
X0178737Y0067100D01*
X0178625Y0066973D01*
X0178510Y0066849D01*
X0178392Y0066728D01*
X0178271Y0066610D01*
X0178147Y0066495D01*
X0178020Y0066383D01*
X0177891Y0066274D01*
X0177759Y0066168D01*
X0177624Y0066066D01*
X0177487Y0065967D01*
X0177348Y0065871D01*
X0177206Y0065779D01*
X0177062Y0065690D01*
X0176916Y0065605D01*
X0176768Y0065524D01*
X0176618Y0065446D01*
X0176466Y0065372D01*
X0176312Y0065301D01*
X0176157Y0065234D01*
X0176000Y0065172D01*
X0175841Y0065113D01*
X0175681Y0065058D01*
X0175520Y0065007D01*
X0175358Y0064960D01*
X0175194Y0064916D01*
X0175030Y0064877D01*
X0174864Y0064842D01*
X0174698Y0064811D01*
X0174531Y0064785D01*
X0174363Y0064762D01*
X0174195Y0064743D01*
X0174027Y0064729D01*
X0173858Y0064718D01*
X0173689Y0064712D01*
X0173520Y0064710D01*
X0173351Y0064712D01*
X0173182Y0064718D01*
X0173013Y0064729D01*
X0172845Y0064743D01*
X0172677Y0064762D01*
X0172509Y0064785D01*
X0172342Y0064811D01*
X0172176Y0064842D01*
X0172010Y0064877D01*
X0171846Y0064916D01*
X0171682Y0064960D01*
X0171520Y0065007D01*
X0171359Y0065058D01*
X0171199Y0065113D01*
X0171040Y0065172D01*
X0170883Y0065234D01*
X0170728Y0065301D01*
X0170574Y0065372D01*
X0170422Y0065446D01*
X0170272Y0065524D01*
X0170124Y0065605D01*
X0169978Y0065690D01*
X0169834Y0065779D01*
X0169692Y0065871D01*
X0169553Y0065967D01*
X0169416Y0066066D01*
X0169281Y0066168D01*
X0169149Y0066274D01*
X0169020Y0066383D01*
X0168893Y0066495D01*
X0168769Y0066610D01*
X0168648Y0066728D01*
X0168530Y0066849D01*
X0168415Y0066973D01*
X0168303Y0067100D01*
X0168194Y0067229D01*
X0168088Y0067361D01*
X0167986Y0067496D01*
X0167887Y0067633D01*
X0167791Y0067772D01*
X0167699Y0067914D01*
X0167610Y0068058D01*
X0167525Y0068204D01*
X0167444Y0068352D01*
X0167366Y0068502D01*
X0167292Y0068654D01*
X0167221Y0068808D01*
X0167154Y0068963D01*
X0167092Y0069120D01*
X0167033Y0069279D01*
X0166978Y0069439D01*
X0166927Y0069600D01*
X0166880Y0069762D01*
X0166836Y0069926D01*
X0166797Y0070090D01*
X0166762Y0070256D01*
X0166731Y0070422D01*
X0166705Y0070589D01*
X0166682Y0070757D01*
X0166663Y0070925D01*
X0166649Y0071093D01*
X0166638Y0071262D01*
X0166632Y0071431D01*
X0166630Y0071600D01*
X0327417Y0011600D02*
X0327419Y0011741D01*
X0327425Y0011882D01*
X0327435Y0012022D01*
X0327449Y0012162D01*
X0327467Y0012302D01*
X0327488Y0012441D01*
X0327514Y0012580D01*
X0327543Y0012718D01*
X0327577Y0012854D01*
X0327614Y0012990D01*
X0327655Y0013125D01*
X0327700Y0013259D01*
X0327749Y0013391D01*
X0327801Y0013522D01*
X0327857Y0013651D01*
X0327917Y0013778D01*
X0327980Y0013904D01*
X0328046Y0014028D01*
X0328117Y0014151D01*
X0328190Y0014271D01*
X0328267Y0014389D01*
X0328347Y0014505D01*
X0328431Y0014618D01*
X0328517Y0014729D01*
X0328607Y0014838D01*
X0328700Y0014944D01*
X0328795Y0015047D01*
X0328894Y0015148D01*
X0328995Y0015246D01*
X0329099Y0015341D01*
X0329206Y0015433D01*
X0329315Y0015522D01*
X0329427Y0015607D01*
X0329541Y0015690D01*
X0329657Y0015770D01*
X0329776Y0015846D01*
X0329897Y0015918D01*
X0330019Y0015988D01*
X0330144Y0016053D01*
X0330270Y0016116D01*
X0330398Y0016174D01*
X0330528Y0016229D01*
X0330659Y0016281D01*
X0330792Y0016328D01*
X0330926Y0016372D01*
X0331061Y0016413D01*
X0331197Y0016449D01*
X0331334Y0016481D01*
X0331472Y0016510D01*
X0331610Y0016535D01*
X0331750Y0016555D01*
X0331890Y0016572D01*
X0332030Y0016585D01*
X0332171Y0016594D01*
X0332311Y0016599D01*
X0332452Y0016600D01*
X0332593Y0016597D01*
X0332734Y0016590D01*
X0332874Y0016579D01*
X0333014Y0016564D01*
X0333154Y0016545D01*
X0333293Y0016523D01*
X0333431Y0016496D01*
X0333569Y0016466D01*
X0333705Y0016431D01*
X0333841Y0016393D01*
X0333975Y0016351D01*
X0334109Y0016305D01*
X0334241Y0016256D01*
X0334371Y0016202D01*
X0334500Y0016145D01*
X0334627Y0016085D01*
X0334753Y0016021D01*
X0334876Y0015953D01*
X0334998Y0015882D01*
X0335118Y0015808D01*
X0335235Y0015730D01*
X0335350Y0015649D01*
X0335463Y0015565D01*
X0335574Y0015478D01*
X0335682Y0015387D01*
X0335787Y0015294D01*
X0335890Y0015197D01*
X0335990Y0015098D01*
X0336087Y0014996D01*
X0336181Y0014891D01*
X0336272Y0014784D01*
X0336360Y0014674D01*
X0336445Y0014562D01*
X0336527Y0014447D01*
X0336606Y0014330D01*
X0336681Y0014211D01*
X0336753Y0014090D01*
X0336821Y0013967D01*
X0336886Y0013842D01*
X0336948Y0013715D01*
X0337005Y0013586D01*
X0337060Y0013456D01*
X0337110Y0013325D01*
X0337157Y0013192D01*
X0337200Y0013058D01*
X0337239Y0012922D01*
X0337274Y0012786D01*
X0337306Y0012649D01*
X0337333Y0012511D01*
X0337357Y0012372D01*
X0337377Y0012232D01*
X0337393Y0012092D01*
X0337405Y0011952D01*
X0337413Y0011811D01*
X0337417Y0011670D01*
X0337417Y0011530D01*
X0337413Y0011389D01*
X0337405Y0011248D01*
X0337393Y0011108D01*
X0337377Y0010968D01*
X0337357Y0010828D01*
X0337333Y0010689D01*
X0337306Y0010551D01*
X0337274Y0010414D01*
X0337239Y0010278D01*
X0337200Y0010142D01*
X0337157Y0010008D01*
X0337110Y0009875D01*
X0337060Y0009744D01*
X0337005Y0009614D01*
X0336948Y0009485D01*
X0336886Y0009358D01*
X0336821Y0009233D01*
X0336753Y0009110D01*
X0336681Y0008989D01*
X0336606Y0008870D01*
X0336527Y0008753D01*
X0336445Y0008638D01*
X0336360Y0008526D01*
X0336272Y0008416D01*
X0336181Y0008309D01*
X0336087Y0008204D01*
X0335990Y0008102D01*
X0335890Y0008003D01*
X0335787Y0007906D01*
X0335682Y0007813D01*
X0335574Y0007722D01*
X0335463Y0007635D01*
X0335350Y0007551D01*
X0335235Y0007470D01*
X0335118Y0007392D01*
X0334998Y0007318D01*
X0334876Y0007247D01*
X0334753Y0007179D01*
X0334627Y0007115D01*
X0334500Y0007055D01*
X0334371Y0006998D01*
X0334241Y0006944D01*
X0334109Y0006895D01*
X0333975Y0006849D01*
X0333841Y0006807D01*
X0333705Y0006769D01*
X0333569Y0006734D01*
X0333431Y0006704D01*
X0333293Y0006677D01*
X0333154Y0006655D01*
X0333014Y0006636D01*
X0332874Y0006621D01*
X0332734Y0006610D01*
X0332593Y0006603D01*
X0332452Y0006600D01*
X0332311Y0006601D01*
X0332171Y0006606D01*
X0332030Y0006615D01*
X0331890Y0006628D01*
X0331750Y0006645D01*
X0331610Y0006665D01*
X0331472Y0006690D01*
X0331334Y0006719D01*
X0331197Y0006751D01*
X0331061Y0006787D01*
X0330926Y0006828D01*
X0330792Y0006872D01*
X0330659Y0006919D01*
X0330528Y0006971D01*
X0330398Y0007026D01*
X0330270Y0007084D01*
X0330144Y0007147D01*
X0330019Y0007212D01*
X0329897Y0007282D01*
X0329776Y0007354D01*
X0329657Y0007430D01*
X0329541Y0007510D01*
X0329427Y0007593D01*
X0329315Y0007678D01*
X0329206Y0007767D01*
X0329099Y0007859D01*
X0328995Y0007954D01*
X0328894Y0008052D01*
X0328795Y0008153D01*
X0328700Y0008256D01*
X0328607Y0008362D01*
X0328517Y0008471D01*
X0328431Y0008582D01*
X0328347Y0008695D01*
X0328267Y0008811D01*
X0328190Y0008929D01*
X0328117Y0009049D01*
X0328046Y0009172D01*
X0327980Y0009296D01*
X0327917Y0009422D01*
X0327857Y0009549D01*
X0327801Y0009678D01*
X0327749Y0009809D01*
X0327700Y0009941D01*
X0327655Y0010075D01*
X0327614Y0010210D01*
X0327577Y0010346D01*
X0327543Y0010482D01*
X0327514Y0010620D01*
X0327488Y0010759D01*
X0327467Y0010898D01*
X0327449Y0011038D01*
X0327435Y0011178D01*
X0327425Y0011318D01*
X0327419Y0011459D01*
X0327417Y0011600D01*
X0166630Y0266600D02*
X0166632Y0266769D01*
X0166638Y0266938D01*
X0166649Y0267107D01*
X0166663Y0267275D01*
X0166682Y0267443D01*
X0166705Y0267611D01*
X0166731Y0267778D01*
X0166762Y0267944D01*
X0166797Y0268110D01*
X0166836Y0268274D01*
X0166880Y0268438D01*
X0166927Y0268600D01*
X0166978Y0268761D01*
X0167033Y0268921D01*
X0167092Y0269080D01*
X0167154Y0269237D01*
X0167221Y0269392D01*
X0167292Y0269546D01*
X0167366Y0269698D01*
X0167444Y0269848D01*
X0167525Y0269996D01*
X0167610Y0270142D01*
X0167699Y0270286D01*
X0167791Y0270428D01*
X0167887Y0270567D01*
X0167986Y0270704D01*
X0168088Y0270839D01*
X0168194Y0270971D01*
X0168303Y0271100D01*
X0168415Y0271227D01*
X0168530Y0271351D01*
X0168648Y0271472D01*
X0168769Y0271590D01*
X0168893Y0271705D01*
X0169020Y0271817D01*
X0169149Y0271926D01*
X0169281Y0272032D01*
X0169416Y0272134D01*
X0169553Y0272233D01*
X0169692Y0272329D01*
X0169834Y0272421D01*
X0169978Y0272510D01*
X0170124Y0272595D01*
X0170272Y0272676D01*
X0170422Y0272754D01*
X0170574Y0272828D01*
X0170728Y0272899D01*
X0170883Y0272966D01*
X0171040Y0273028D01*
X0171199Y0273087D01*
X0171359Y0273142D01*
X0171520Y0273193D01*
X0171682Y0273240D01*
X0171846Y0273284D01*
X0172010Y0273323D01*
X0172176Y0273358D01*
X0172342Y0273389D01*
X0172509Y0273415D01*
X0172677Y0273438D01*
X0172845Y0273457D01*
X0173013Y0273471D01*
X0173182Y0273482D01*
X0173351Y0273488D01*
X0173520Y0273490D01*
X0173689Y0273488D01*
X0173858Y0273482D01*
X0174027Y0273471D01*
X0174195Y0273457D01*
X0174363Y0273438D01*
X0174531Y0273415D01*
X0174698Y0273389D01*
X0174864Y0273358D01*
X0175030Y0273323D01*
X0175194Y0273284D01*
X0175358Y0273240D01*
X0175520Y0273193D01*
X0175681Y0273142D01*
X0175841Y0273087D01*
X0176000Y0273028D01*
X0176157Y0272966D01*
X0176312Y0272899D01*
X0176466Y0272828D01*
X0176618Y0272754D01*
X0176768Y0272676D01*
X0176916Y0272595D01*
X0177062Y0272510D01*
X0177206Y0272421D01*
X0177348Y0272329D01*
X0177487Y0272233D01*
X0177624Y0272134D01*
X0177759Y0272032D01*
X0177891Y0271926D01*
X0178020Y0271817D01*
X0178147Y0271705D01*
X0178271Y0271590D01*
X0178392Y0271472D01*
X0178510Y0271351D01*
X0178625Y0271227D01*
X0178737Y0271100D01*
X0178846Y0270971D01*
X0178952Y0270839D01*
X0179054Y0270704D01*
X0179153Y0270567D01*
X0179249Y0270428D01*
X0179341Y0270286D01*
X0179430Y0270142D01*
X0179515Y0269996D01*
X0179596Y0269848D01*
X0179674Y0269698D01*
X0179748Y0269546D01*
X0179819Y0269392D01*
X0179886Y0269237D01*
X0179948Y0269080D01*
X0180007Y0268921D01*
X0180062Y0268761D01*
X0180113Y0268600D01*
X0180160Y0268438D01*
X0180204Y0268274D01*
X0180243Y0268110D01*
X0180278Y0267944D01*
X0180309Y0267778D01*
X0180335Y0267611D01*
X0180358Y0267443D01*
X0180377Y0267275D01*
X0180391Y0267107D01*
X0180402Y0266938D01*
X0180408Y0266769D01*
X0180410Y0266600D01*
X0180408Y0266431D01*
X0180402Y0266262D01*
X0180391Y0266093D01*
X0180377Y0265925D01*
X0180358Y0265757D01*
X0180335Y0265589D01*
X0180309Y0265422D01*
X0180278Y0265256D01*
X0180243Y0265090D01*
X0180204Y0264926D01*
X0180160Y0264762D01*
X0180113Y0264600D01*
X0180062Y0264439D01*
X0180007Y0264279D01*
X0179948Y0264120D01*
X0179886Y0263963D01*
X0179819Y0263808D01*
X0179748Y0263654D01*
X0179674Y0263502D01*
X0179596Y0263352D01*
X0179515Y0263204D01*
X0179430Y0263058D01*
X0179341Y0262914D01*
X0179249Y0262772D01*
X0179153Y0262633D01*
X0179054Y0262496D01*
X0178952Y0262361D01*
X0178846Y0262229D01*
X0178737Y0262100D01*
X0178625Y0261973D01*
X0178510Y0261849D01*
X0178392Y0261728D01*
X0178271Y0261610D01*
X0178147Y0261495D01*
X0178020Y0261383D01*
X0177891Y0261274D01*
X0177759Y0261168D01*
X0177624Y0261066D01*
X0177487Y0260967D01*
X0177348Y0260871D01*
X0177206Y0260779D01*
X0177062Y0260690D01*
X0176916Y0260605D01*
X0176768Y0260524D01*
X0176618Y0260446D01*
X0176466Y0260372D01*
X0176312Y0260301D01*
X0176157Y0260234D01*
X0176000Y0260172D01*
X0175841Y0260113D01*
X0175681Y0260058D01*
X0175520Y0260007D01*
X0175358Y0259960D01*
X0175194Y0259916D01*
X0175030Y0259877D01*
X0174864Y0259842D01*
X0174698Y0259811D01*
X0174531Y0259785D01*
X0174363Y0259762D01*
X0174195Y0259743D01*
X0174027Y0259729D01*
X0173858Y0259718D01*
X0173689Y0259712D01*
X0173520Y0259710D01*
X0173351Y0259712D01*
X0173182Y0259718D01*
X0173013Y0259729D01*
X0172845Y0259743D01*
X0172677Y0259762D01*
X0172509Y0259785D01*
X0172342Y0259811D01*
X0172176Y0259842D01*
X0172010Y0259877D01*
X0171846Y0259916D01*
X0171682Y0259960D01*
X0171520Y0260007D01*
X0171359Y0260058D01*
X0171199Y0260113D01*
X0171040Y0260172D01*
X0170883Y0260234D01*
X0170728Y0260301D01*
X0170574Y0260372D01*
X0170422Y0260446D01*
X0170272Y0260524D01*
X0170124Y0260605D01*
X0169978Y0260690D01*
X0169834Y0260779D01*
X0169692Y0260871D01*
X0169553Y0260967D01*
X0169416Y0261066D01*
X0169281Y0261168D01*
X0169149Y0261274D01*
X0169020Y0261383D01*
X0168893Y0261495D01*
X0168769Y0261610D01*
X0168648Y0261728D01*
X0168530Y0261849D01*
X0168415Y0261973D01*
X0168303Y0262100D01*
X0168194Y0262229D01*
X0168088Y0262361D01*
X0167986Y0262496D01*
X0167887Y0262633D01*
X0167791Y0262772D01*
X0167699Y0262914D01*
X0167610Y0263058D01*
X0167525Y0263204D01*
X0167444Y0263352D01*
X0167366Y0263502D01*
X0167292Y0263654D01*
X0167221Y0263808D01*
X0167154Y0263963D01*
X0167092Y0264120D01*
X0167033Y0264279D01*
X0166978Y0264439D01*
X0166927Y0264600D01*
X0166880Y0264762D01*
X0166836Y0264926D01*
X0166797Y0265090D01*
X0166762Y0265256D01*
X0166731Y0265422D01*
X0166705Y0265589D01*
X0166682Y0265757D01*
X0166663Y0265925D01*
X0166649Y0266093D01*
X0166638Y0266262D01*
X0166632Y0266431D01*
X0166630Y0266600D01*
X0018520Y0311600D02*
X0018522Y0311741D01*
X0018528Y0311882D01*
X0018538Y0312022D01*
X0018552Y0312162D01*
X0018570Y0312302D01*
X0018591Y0312441D01*
X0018617Y0312580D01*
X0018646Y0312718D01*
X0018680Y0312854D01*
X0018717Y0312990D01*
X0018758Y0313125D01*
X0018803Y0313259D01*
X0018852Y0313391D01*
X0018904Y0313522D01*
X0018960Y0313651D01*
X0019020Y0313778D01*
X0019083Y0313904D01*
X0019149Y0314028D01*
X0019220Y0314151D01*
X0019293Y0314271D01*
X0019370Y0314389D01*
X0019450Y0314505D01*
X0019534Y0314618D01*
X0019620Y0314729D01*
X0019710Y0314838D01*
X0019803Y0314944D01*
X0019898Y0315047D01*
X0019997Y0315148D01*
X0020098Y0315246D01*
X0020202Y0315341D01*
X0020309Y0315433D01*
X0020418Y0315522D01*
X0020530Y0315607D01*
X0020644Y0315690D01*
X0020760Y0315770D01*
X0020879Y0315846D01*
X0021000Y0315918D01*
X0021122Y0315988D01*
X0021247Y0316053D01*
X0021373Y0316116D01*
X0021501Y0316174D01*
X0021631Y0316229D01*
X0021762Y0316281D01*
X0021895Y0316328D01*
X0022029Y0316372D01*
X0022164Y0316413D01*
X0022300Y0316449D01*
X0022437Y0316481D01*
X0022575Y0316510D01*
X0022713Y0316535D01*
X0022853Y0316555D01*
X0022993Y0316572D01*
X0023133Y0316585D01*
X0023274Y0316594D01*
X0023414Y0316599D01*
X0023555Y0316600D01*
X0023696Y0316597D01*
X0023837Y0316590D01*
X0023977Y0316579D01*
X0024117Y0316564D01*
X0024257Y0316545D01*
X0024396Y0316523D01*
X0024534Y0316496D01*
X0024672Y0316466D01*
X0024808Y0316431D01*
X0024944Y0316393D01*
X0025078Y0316351D01*
X0025212Y0316305D01*
X0025344Y0316256D01*
X0025474Y0316202D01*
X0025603Y0316145D01*
X0025730Y0316085D01*
X0025856Y0316021D01*
X0025979Y0315953D01*
X0026101Y0315882D01*
X0026221Y0315808D01*
X0026338Y0315730D01*
X0026453Y0315649D01*
X0026566Y0315565D01*
X0026677Y0315478D01*
X0026785Y0315387D01*
X0026890Y0315294D01*
X0026993Y0315197D01*
X0027093Y0315098D01*
X0027190Y0314996D01*
X0027284Y0314891D01*
X0027375Y0314784D01*
X0027463Y0314674D01*
X0027548Y0314562D01*
X0027630Y0314447D01*
X0027709Y0314330D01*
X0027784Y0314211D01*
X0027856Y0314090D01*
X0027924Y0313967D01*
X0027989Y0313842D01*
X0028051Y0313715D01*
X0028108Y0313586D01*
X0028163Y0313456D01*
X0028213Y0313325D01*
X0028260Y0313192D01*
X0028303Y0313058D01*
X0028342Y0312922D01*
X0028377Y0312786D01*
X0028409Y0312649D01*
X0028436Y0312511D01*
X0028460Y0312372D01*
X0028480Y0312232D01*
X0028496Y0312092D01*
X0028508Y0311952D01*
X0028516Y0311811D01*
X0028520Y0311670D01*
X0028520Y0311530D01*
X0028516Y0311389D01*
X0028508Y0311248D01*
X0028496Y0311108D01*
X0028480Y0310968D01*
X0028460Y0310828D01*
X0028436Y0310689D01*
X0028409Y0310551D01*
X0028377Y0310414D01*
X0028342Y0310278D01*
X0028303Y0310142D01*
X0028260Y0310008D01*
X0028213Y0309875D01*
X0028163Y0309744D01*
X0028108Y0309614D01*
X0028051Y0309485D01*
X0027989Y0309358D01*
X0027924Y0309233D01*
X0027856Y0309110D01*
X0027784Y0308989D01*
X0027709Y0308870D01*
X0027630Y0308753D01*
X0027548Y0308638D01*
X0027463Y0308526D01*
X0027375Y0308416D01*
X0027284Y0308309D01*
X0027190Y0308204D01*
X0027093Y0308102D01*
X0026993Y0308003D01*
X0026890Y0307906D01*
X0026785Y0307813D01*
X0026677Y0307722D01*
X0026566Y0307635D01*
X0026453Y0307551D01*
X0026338Y0307470D01*
X0026221Y0307392D01*
X0026101Y0307318D01*
X0025979Y0307247D01*
X0025856Y0307179D01*
X0025730Y0307115D01*
X0025603Y0307055D01*
X0025474Y0306998D01*
X0025344Y0306944D01*
X0025212Y0306895D01*
X0025078Y0306849D01*
X0024944Y0306807D01*
X0024808Y0306769D01*
X0024672Y0306734D01*
X0024534Y0306704D01*
X0024396Y0306677D01*
X0024257Y0306655D01*
X0024117Y0306636D01*
X0023977Y0306621D01*
X0023837Y0306610D01*
X0023696Y0306603D01*
X0023555Y0306600D01*
X0023414Y0306601D01*
X0023274Y0306606D01*
X0023133Y0306615D01*
X0022993Y0306628D01*
X0022853Y0306645D01*
X0022713Y0306665D01*
X0022575Y0306690D01*
X0022437Y0306719D01*
X0022300Y0306751D01*
X0022164Y0306787D01*
X0022029Y0306828D01*
X0021895Y0306872D01*
X0021762Y0306919D01*
X0021631Y0306971D01*
X0021501Y0307026D01*
X0021373Y0307084D01*
X0021247Y0307147D01*
X0021122Y0307212D01*
X0021000Y0307282D01*
X0020879Y0307354D01*
X0020760Y0307430D01*
X0020644Y0307510D01*
X0020530Y0307593D01*
X0020418Y0307678D01*
X0020309Y0307767D01*
X0020202Y0307859D01*
X0020098Y0307954D01*
X0019997Y0308052D01*
X0019898Y0308153D01*
X0019803Y0308256D01*
X0019710Y0308362D01*
X0019620Y0308471D01*
X0019534Y0308582D01*
X0019450Y0308695D01*
X0019370Y0308811D01*
X0019293Y0308929D01*
X0019220Y0309049D01*
X0019149Y0309172D01*
X0019083Y0309296D01*
X0019020Y0309422D01*
X0018960Y0309549D01*
X0018904Y0309678D01*
X0018852Y0309809D01*
X0018803Y0309941D01*
X0018758Y0310075D01*
X0018717Y0310210D01*
X0018680Y0310346D01*
X0018646Y0310482D01*
X0018617Y0310620D01*
X0018591Y0310759D01*
X0018570Y0310898D01*
X0018552Y0311038D01*
X0018538Y0311178D01*
X0018528Y0311318D01*
X0018522Y0311459D01*
X0018520Y0311600D01*
X0327417Y0311600D02*
X0327419Y0311741D01*
X0327425Y0311882D01*
X0327435Y0312022D01*
X0327449Y0312162D01*
X0327467Y0312302D01*
X0327488Y0312441D01*
X0327514Y0312580D01*
X0327543Y0312718D01*
X0327577Y0312854D01*
X0327614Y0312990D01*
X0327655Y0313125D01*
X0327700Y0313259D01*
X0327749Y0313391D01*
X0327801Y0313522D01*
X0327857Y0313651D01*
X0327917Y0313778D01*
X0327980Y0313904D01*
X0328046Y0314028D01*
X0328117Y0314151D01*
X0328190Y0314271D01*
X0328267Y0314389D01*
X0328347Y0314505D01*
X0328431Y0314618D01*
X0328517Y0314729D01*
X0328607Y0314838D01*
X0328700Y0314944D01*
X0328795Y0315047D01*
X0328894Y0315148D01*
X0328995Y0315246D01*
X0329099Y0315341D01*
X0329206Y0315433D01*
X0329315Y0315522D01*
X0329427Y0315607D01*
X0329541Y0315690D01*
X0329657Y0315770D01*
X0329776Y0315846D01*
X0329897Y0315918D01*
X0330019Y0315988D01*
X0330144Y0316053D01*
X0330270Y0316116D01*
X0330398Y0316174D01*
X0330528Y0316229D01*
X0330659Y0316281D01*
X0330792Y0316328D01*
X0330926Y0316372D01*
X0331061Y0316413D01*
X0331197Y0316449D01*
X0331334Y0316481D01*
X0331472Y0316510D01*
X0331610Y0316535D01*
X0331750Y0316555D01*
X0331890Y0316572D01*
X0332030Y0316585D01*
X0332171Y0316594D01*
X0332311Y0316599D01*
X0332452Y0316600D01*
X0332593Y0316597D01*
X0332734Y0316590D01*
X0332874Y0316579D01*
X0333014Y0316564D01*
X0333154Y0316545D01*
X0333293Y0316523D01*
X0333431Y0316496D01*
X0333569Y0316466D01*
X0333705Y0316431D01*
X0333841Y0316393D01*
X0333975Y0316351D01*
X0334109Y0316305D01*
X0334241Y0316256D01*
X0334371Y0316202D01*
X0334500Y0316145D01*
X0334627Y0316085D01*
X0334753Y0316021D01*
X0334876Y0315953D01*
X0334998Y0315882D01*
X0335118Y0315808D01*
X0335235Y0315730D01*
X0335350Y0315649D01*
X0335463Y0315565D01*
X0335574Y0315478D01*
X0335682Y0315387D01*
X0335787Y0315294D01*
X0335890Y0315197D01*
X0335990Y0315098D01*
X0336087Y0314996D01*
X0336181Y0314891D01*
X0336272Y0314784D01*
X0336360Y0314674D01*
X0336445Y0314562D01*
X0336527Y0314447D01*
X0336606Y0314330D01*
X0336681Y0314211D01*
X0336753Y0314090D01*
X0336821Y0313967D01*
X0336886Y0313842D01*
X0336948Y0313715D01*
X0337005Y0313586D01*
X0337060Y0313456D01*
X0337110Y0313325D01*
X0337157Y0313192D01*
X0337200Y0313058D01*
X0337239Y0312922D01*
X0337274Y0312786D01*
X0337306Y0312649D01*
X0337333Y0312511D01*
X0337357Y0312372D01*
X0337377Y0312232D01*
X0337393Y0312092D01*
X0337405Y0311952D01*
X0337413Y0311811D01*
X0337417Y0311670D01*
X0337417Y0311530D01*
X0337413Y0311389D01*
X0337405Y0311248D01*
X0337393Y0311108D01*
X0337377Y0310968D01*
X0337357Y0310828D01*
X0337333Y0310689D01*
X0337306Y0310551D01*
X0337274Y0310414D01*
X0337239Y0310278D01*
X0337200Y0310142D01*
X0337157Y0310008D01*
X0337110Y0309875D01*
X0337060Y0309744D01*
X0337005Y0309614D01*
X0336948Y0309485D01*
X0336886Y0309358D01*
X0336821Y0309233D01*
X0336753Y0309110D01*
X0336681Y0308989D01*
X0336606Y0308870D01*
X0336527Y0308753D01*
X0336445Y0308638D01*
X0336360Y0308526D01*
X0336272Y0308416D01*
X0336181Y0308309D01*
X0336087Y0308204D01*
X0335990Y0308102D01*
X0335890Y0308003D01*
X0335787Y0307906D01*
X0335682Y0307813D01*
X0335574Y0307722D01*
X0335463Y0307635D01*
X0335350Y0307551D01*
X0335235Y0307470D01*
X0335118Y0307392D01*
X0334998Y0307318D01*
X0334876Y0307247D01*
X0334753Y0307179D01*
X0334627Y0307115D01*
X0334500Y0307055D01*
X0334371Y0306998D01*
X0334241Y0306944D01*
X0334109Y0306895D01*
X0333975Y0306849D01*
X0333841Y0306807D01*
X0333705Y0306769D01*
X0333569Y0306734D01*
X0333431Y0306704D01*
X0333293Y0306677D01*
X0333154Y0306655D01*
X0333014Y0306636D01*
X0332874Y0306621D01*
X0332734Y0306610D01*
X0332593Y0306603D01*
X0332452Y0306600D01*
X0332311Y0306601D01*
X0332171Y0306606D01*
X0332030Y0306615D01*
X0331890Y0306628D01*
X0331750Y0306645D01*
X0331610Y0306665D01*
X0331472Y0306690D01*
X0331334Y0306719D01*
X0331197Y0306751D01*
X0331061Y0306787D01*
X0330926Y0306828D01*
X0330792Y0306872D01*
X0330659Y0306919D01*
X0330528Y0306971D01*
X0330398Y0307026D01*
X0330270Y0307084D01*
X0330144Y0307147D01*
X0330019Y0307212D01*
X0329897Y0307282D01*
X0329776Y0307354D01*
X0329657Y0307430D01*
X0329541Y0307510D01*
X0329427Y0307593D01*
X0329315Y0307678D01*
X0329206Y0307767D01*
X0329099Y0307859D01*
X0328995Y0307954D01*
X0328894Y0308052D01*
X0328795Y0308153D01*
X0328700Y0308256D01*
X0328607Y0308362D01*
X0328517Y0308471D01*
X0328431Y0308582D01*
X0328347Y0308695D01*
X0328267Y0308811D01*
X0328190Y0308929D01*
X0328117Y0309049D01*
X0328046Y0309172D01*
X0327980Y0309296D01*
X0327917Y0309422D01*
X0327857Y0309549D01*
X0327801Y0309678D01*
X0327749Y0309809D01*
X0327700Y0309941D01*
X0327655Y0310075D01*
X0327614Y0310210D01*
X0327577Y0310346D01*
X0327543Y0310482D01*
X0327514Y0310620D01*
X0327488Y0310759D01*
X0327467Y0310898D01*
X0327449Y0311038D01*
X0327435Y0311178D01*
X0327425Y0311318D01*
X0327419Y0311459D01*
X0327417Y0311600D01*
D12*
X0313520Y0296600D03*
X0303520Y0296600D03*
X0293520Y0296600D03*
X0283520Y0296600D03*
X0233520Y0296600D03*
X0223520Y0296600D03*
X0213520Y0296600D03*
X0203520Y0296600D03*
X0153520Y0296600D03*
X0143520Y0296600D03*
X0133520Y0296600D03*
X0123520Y0296600D03*
X0073520Y0296600D03*
X0063520Y0296600D03*
X0053520Y0296600D03*
X0043520Y0296600D03*
X0043520Y0026600D03*
X0053520Y0026600D03*
X0063520Y0026600D03*
X0073520Y0026600D03*
X0123520Y0026600D03*
X0133520Y0026600D03*
X0143520Y0026600D03*
X0153520Y0026600D03*
X0203520Y0026600D03*
X0213520Y0026600D03*
X0223520Y0026600D03*
X0233520Y0026600D03*
X0283520Y0026600D03*
X0293520Y0026600D03*
X0303520Y0026600D03*
X0313520Y0026600D03*
D13*
X0055331Y0117300D02*
X0055331Y0125900D01*
X0031709Y0125900D02*
X0031709Y0117300D01*
X0039220Y0102702D02*
X0047820Y0102702D01*
D14*
X0073520Y0101600D03*
X0073520Y0111600D03*
X0073520Y0121600D03*
X0073520Y0131600D03*
X0073520Y0141600D03*
X0073520Y0151600D03*
X0083520Y0146600D03*
X0083520Y0136600D03*
X0073520Y0161600D03*
X0073520Y0171600D03*
X0073520Y0181600D03*
X0073520Y0191600D03*
X0073520Y0201600D03*
X0073520Y0211600D03*
X0083520Y0211600D03*
X0093520Y0211600D03*
X0103520Y0211600D03*
X0133520Y0211600D03*
X0133520Y0201600D03*
X0133520Y0191600D03*
X0133520Y0181600D03*
X0133520Y0171600D03*
X0133520Y0161600D03*
X0133520Y0151600D03*
X0133520Y0141600D03*
X0133520Y0131600D03*
X0133520Y0121600D03*
X0133520Y0111600D03*
X0133520Y0101600D03*
D15*
X0202020Y0261600D03*
D16*
X0202020Y0251600D03*
X0202020Y0241600D03*
X0202020Y0231600D03*
X0202020Y0221600D03*
X0318520Y0231600D03*
X0318520Y0241600D03*
X0318520Y0251600D03*
X0318520Y0261600D03*
D17*
X0038520Y0191443D03*
D18*
X0038520Y0171757D03*
D19*
X0313520Y0171600D03*
X0318520Y0171600D03*
X0318520Y0166600D03*
X0318520Y0161600D03*
X0318520Y0156600D03*
X0318520Y0151600D03*
X0313520Y0151600D03*
X0313520Y0156600D03*
X0313520Y0161600D03*
X0313520Y0166600D03*
D20*
X0043520Y0076600D03*
X0043520Y0066600D03*
X0043520Y0056600D03*
X0043520Y0046600D03*
D21*
X0038698Y0048548D02*
X0016120Y0048548D01*
X0016120Y0049746D02*
X0039312Y0049746D01*
X0039111Y0049546D02*
X0038320Y0047634D01*
X0038320Y0045566D01*
X0039111Y0043654D01*
X0040574Y0042192D01*
X0042485Y0041400D01*
X0044554Y0041400D01*
X0046465Y0042192D01*
X0047928Y0043654D01*
X0048720Y0045566D01*
X0048720Y0047634D01*
X0047928Y0049546D01*
X0046465Y0051008D01*
X0045287Y0051496D01*
X0045593Y0051596D01*
X0046350Y0051982D01*
X0047038Y0052481D01*
X0047639Y0053082D01*
X0048138Y0053770D01*
X0048524Y0054527D01*
X0048787Y0055335D01*
X0048920Y0056175D01*
X0048920Y0056413D01*
X0043707Y0056413D01*
X0043707Y0056787D01*
X0048920Y0056787D01*
X0048920Y0057025D01*
X0048787Y0057865D01*
X0048524Y0058673D01*
X0048138Y0059430D01*
X0047639Y0060118D01*
X0047038Y0060719D01*
X0046350Y0061218D01*
X0045593Y0061604D01*
X0045287Y0061704D01*
X0046465Y0062192D01*
X0047928Y0063654D01*
X0048720Y0065566D01*
X0048720Y0067634D01*
X0047928Y0069546D01*
X0046465Y0071008D01*
X0045037Y0071600D01*
X0046465Y0072192D01*
X0047928Y0073654D01*
X0048720Y0075566D01*
X0048720Y0077634D01*
X0047928Y0079546D01*
X0046465Y0081008D01*
X0044554Y0081800D01*
X0042485Y0081800D01*
X0040574Y0081008D01*
X0039111Y0079546D01*
X0038320Y0077634D01*
X0038320Y0075566D01*
X0039111Y0073654D01*
X0040574Y0072192D01*
X0042003Y0071600D01*
X0040574Y0071008D01*
X0039111Y0069546D01*
X0038320Y0067634D01*
X0038320Y0065566D01*
X0039111Y0063654D01*
X0040574Y0062192D01*
X0041752Y0061704D01*
X0041447Y0061604D01*
X0040689Y0061218D01*
X0040002Y0060719D01*
X0039401Y0060118D01*
X0038901Y0059430D01*
X0038515Y0058673D01*
X0038253Y0057865D01*
X0038120Y0057025D01*
X0038120Y0056787D01*
X0043332Y0056787D01*
X0043332Y0056413D01*
X0038120Y0056413D01*
X0038120Y0056175D01*
X0038253Y0055335D01*
X0038515Y0054527D01*
X0038901Y0053770D01*
X0039401Y0053082D01*
X0040002Y0052481D01*
X0040689Y0051982D01*
X0041447Y0051596D01*
X0041752Y0051496D01*
X0040574Y0051008D01*
X0039111Y0049546D01*
X0040511Y0050945D02*
X0016120Y0050945D01*
X0016120Y0052143D02*
X0040467Y0052143D01*
X0039212Y0053342D02*
X0016120Y0053342D01*
X0016120Y0054540D02*
X0038511Y0054540D01*
X0038189Y0055739D02*
X0016120Y0055739D01*
X0016120Y0056937D02*
X0038120Y0056937D01*
X0038341Y0058136D02*
X0016120Y0058136D01*
X0016120Y0059334D02*
X0038852Y0059334D01*
X0039816Y0060533D02*
X0016120Y0060533D01*
X0016120Y0061732D02*
X0041685Y0061732D01*
X0039836Y0062930D02*
X0016120Y0062930D01*
X0016120Y0064129D02*
X0038915Y0064129D01*
X0038419Y0065327D02*
X0016120Y0065327D01*
X0016120Y0066526D02*
X0038320Y0066526D01*
X0038357Y0067724D02*
X0016120Y0067724D01*
X0016120Y0068923D02*
X0038853Y0068923D01*
X0039687Y0070121D02*
X0016120Y0070121D01*
X0016120Y0071320D02*
X0041326Y0071320D01*
X0040248Y0072518D02*
X0016120Y0072518D01*
X0016120Y0073717D02*
X0039086Y0073717D01*
X0038589Y0074915D02*
X0016120Y0074915D01*
X0016120Y0076114D02*
X0038320Y0076114D01*
X0038320Y0077312D02*
X0016120Y0077312D01*
X0016120Y0078511D02*
X0038683Y0078511D01*
X0039275Y0079709D02*
X0016120Y0079709D01*
X0016120Y0080908D02*
X0040473Y0080908D01*
X0046566Y0080908D02*
X0061520Y0080908D01*
X0061520Y0082106D02*
X0016120Y0082106D01*
X0016120Y0083305D02*
X0061520Y0083305D01*
X0061520Y0084503D02*
X0016120Y0084503D01*
X0016120Y0085702D02*
X0061520Y0085702D01*
X0061520Y0086900D02*
X0016120Y0086900D01*
X0016120Y0088099D02*
X0061520Y0088099D01*
X0061520Y0089297D02*
X0016120Y0089297D01*
X0016120Y0090496D02*
X0061520Y0090496D01*
X0061520Y0091694D02*
X0016120Y0091694D01*
X0016120Y0092893D02*
X0061520Y0092893D01*
X0061520Y0094091D02*
X0016120Y0094091D01*
X0016120Y0095290D02*
X0061520Y0095290D01*
X0061520Y0096488D02*
X0016120Y0096488D01*
X0016120Y0097687D02*
X0036085Y0097687D01*
X0036127Y0097656D02*
X0036955Y0097235D01*
X0037838Y0096948D01*
X0038755Y0096802D01*
X0043332Y0096802D01*
X0043332Y0102515D01*
X0033320Y0102515D01*
X0033320Y0102238D01*
X0033465Y0101321D01*
X0033752Y0100438D01*
X0034174Y0099610D01*
X0034719Y0098859D01*
X0035376Y0098202D01*
X0036127Y0097656D01*
X0034700Y0098885D02*
X0016120Y0098885D01*
X0016120Y0100084D02*
X0033932Y0100084D01*
X0033477Y0101282D02*
X0016120Y0101282D01*
X0016120Y0102481D02*
X0033320Y0102481D01*
X0033320Y0102890D02*
X0043332Y0102890D01*
X0043332Y0102515D01*
X0043707Y0102515D01*
X0043707Y0096802D01*
X0048284Y0096802D01*
X0049201Y0096948D01*
X0050084Y0097235D01*
X0050912Y0097656D01*
X0051663Y0098202D01*
X0052320Y0098859D01*
X0052866Y0099610D01*
X0053287Y0100438D01*
X0053574Y0101321D01*
X0053720Y0102238D01*
X0053720Y0102515D01*
X0043707Y0102515D01*
X0043707Y0102890D01*
X0043332Y0102890D01*
X0043332Y0108602D01*
X0038755Y0108602D01*
X0037838Y0108457D01*
X0036955Y0108170D01*
X0036127Y0107748D01*
X0035376Y0107203D01*
X0034719Y0106546D01*
X0034174Y0105795D01*
X0033752Y0104967D01*
X0033465Y0104084D01*
X0033320Y0103167D01*
X0033320Y0102890D01*
X0033401Y0103679D02*
X0016120Y0103679D01*
X0016120Y0104878D02*
X0033723Y0104878D01*
X0034378Y0106076D02*
X0016120Y0106076D01*
X0016120Y0107275D02*
X0035476Y0107275D01*
X0037942Y0108473D02*
X0016120Y0108473D01*
X0016120Y0109672D02*
X0061520Y0109672D01*
X0061520Y0110870D02*
X0016120Y0110870D01*
X0016120Y0112069D02*
X0028979Y0112069D01*
X0028616Y0112254D02*
X0029444Y0111832D01*
X0030327Y0111545D01*
X0031244Y0111400D01*
X0031521Y0111400D01*
X0031521Y0121413D01*
X0025809Y0121413D01*
X0025809Y0116836D01*
X0025954Y0115918D01*
X0026241Y0115035D01*
X0026663Y0114208D01*
X0027208Y0113456D01*
X0027865Y0112800D01*
X0028616Y0112254D01*
X0027397Y0113268D02*
X0016120Y0113268D01*
X0016120Y0114466D02*
X0026531Y0114466D01*
X0026036Y0115665D02*
X0016120Y0115665D01*
X0016120Y0116863D02*
X0025809Y0116863D01*
X0025809Y0118062D02*
X0016120Y0118062D01*
X0016120Y0119260D02*
X0025809Y0119260D01*
X0025809Y0120459D02*
X0016120Y0120459D01*
X0016120Y0121657D02*
X0031521Y0121657D01*
X0031521Y0121787D02*
X0031521Y0121413D01*
X0031896Y0121413D01*
X0031896Y0121787D01*
X0037609Y0121787D01*
X0037609Y0126364D01*
X0037463Y0127282D01*
X0037176Y0128165D01*
X0036755Y0128992D01*
X0036209Y0129744D01*
X0035552Y0130400D01*
X0034801Y0130946D01*
X0033973Y0131368D01*
X0033090Y0131655D01*
X0032173Y0131800D01*
X0031896Y0131800D01*
X0031896Y0121787D01*
X0031521Y0121787D01*
X0025809Y0121787D01*
X0025809Y0126364D01*
X0025954Y0127282D01*
X0026241Y0128165D01*
X0026663Y0128992D01*
X0027208Y0129744D01*
X0027865Y0130400D01*
X0028616Y0130946D01*
X0029444Y0131368D01*
X0030327Y0131655D01*
X0031244Y0131800D01*
X0031521Y0131800D01*
X0031521Y0121787D01*
X0031896Y0121657D02*
X0049631Y0121657D01*
X0049631Y0120459D02*
X0037609Y0120459D01*
X0037609Y0121413D02*
X0031896Y0121413D01*
X0031896Y0111400D01*
X0032173Y0111400D01*
X0033090Y0111545D01*
X0033973Y0111832D01*
X0034801Y0112254D01*
X0035552Y0112800D01*
X0036209Y0113456D01*
X0036755Y0114208D01*
X0037176Y0115035D01*
X0037463Y0115918D01*
X0037609Y0116836D01*
X0037609Y0121413D01*
X0037609Y0122856D02*
X0049631Y0122856D01*
X0049631Y0124054D02*
X0037609Y0124054D01*
X0037609Y0125253D02*
X0049631Y0125253D01*
X0049631Y0126451D02*
X0037595Y0126451D01*
X0037344Y0127650D02*
X0049886Y0127650D01*
X0049631Y0127034D02*
X0050498Y0129129D01*
X0052102Y0130732D01*
X0054197Y0131600D01*
X0056465Y0131600D01*
X0058559Y0130732D01*
X0060163Y0129129D01*
X0061031Y0127034D01*
X0061031Y0116166D01*
X0060163Y0114071D01*
X0058559Y0112468D01*
X0056465Y0111600D01*
X0054197Y0111600D01*
X0052102Y0112468D01*
X0050498Y0114071D01*
X0049631Y0116166D01*
X0049631Y0127034D01*
X0050382Y0128848D02*
X0036828Y0128848D01*
X0035906Y0130047D02*
X0051416Y0130047D01*
X0053340Y0131245D02*
X0034214Y0131245D01*
X0031896Y0131245D02*
X0031521Y0131245D01*
X0031521Y0130047D02*
X0031896Y0130047D01*
X0031896Y0128848D02*
X0031521Y0128848D01*
X0031521Y0127650D02*
X0031896Y0127650D01*
X0031896Y0126451D02*
X0031521Y0126451D01*
X0031521Y0125253D02*
X0031896Y0125253D01*
X0031896Y0124054D02*
X0031521Y0124054D01*
X0031521Y0122856D02*
X0031896Y0122856D01*
X0031896Y0120459D02*
X0031521Y0120459D01*
X0031521Y0119260D02*
X0031896Y0119260D01*
X0031896Y0118062D02*
X0031521Y0118062D01*
X0031521Y0116863D02*
X0031896Y0116863D01*
X0031896Y0115665D02*
X0031521Y0115665D01*
X0031521Y0114466D02*
X0031896Y0114466D01*
X0031896Y0113268D02*
X0031521Y0113268D01*
X0031521Y0112069D02*
X0031896Y0112069D01*
X0034438Y0112069D02*
X0053065Y0112069D01*
X0051302Y0113268D02*
X0036020Y0113268D01*
X0036886Y0114466D02*
X0050335Y0114466D01*
X0049838Y0115665D02*
X0037381Y0115665D01*
X0037609Y0116863D02*
X0049631Y0116863D01*
X0049631Y0118062D02*
X0037609Y0118062D01*
X0037609Y0119260D02*
X0049631Y0119260D01*
X0057597Y0112069D02*
X0061520Y0112069D01*
X0061520Y0113268D02*
X0059359Y0113268D01*
X0060326Y0114466D02*
X0061520Y0114466D01*
X0061520Y0115665D02*
X0060823Y0115665D01*
X0061031Y0116863D02*
X0061520Y0116863D01*
X0061520Y0118062D02*
X0061031Y0118062D01*
X0061031Y0119260D02*
X0061520Y0119260D01*
X0061520Y0120459D02*
X0061031Y0120459D01*
X0061031Y0121657D02*
X0061520Y0121657D01*
X0061520Y0122856D02*
X0061031Y0122856D01*
X0061031Y0124054D02*
X0061520Y0124054D01*
X0061520Y0125253D02*
X0061031Y0125253D01*
X0061031Y0126451D02*
X0061520Y0126451D01*
X0061520Y0127650D02*
X0060776Y0127650D01*
X0060279Y0128848D02*
X0061520Y0128848D01*
X0061520Y0130047D02*
X0059245Y0130047D01*
X0057321Y0131245D02*
X0061520Y0131245D01*
X0061520Y0132444D02*
X0016120Y0132444D01*
X0016120Y0133642D02*
X0061520Y0133642D01*
X0061520Y0134841D02*
X0016120Y0134841D01*
X0016120Y0136039D02*
X0061520Y0136039D01*
X0061520Y0137238D02*
X0016120Y0137238D01*
X0016120Y0138436D02*
X0061520Y0138436D01*
X0061520Y0139635D02*
X0016120Y0139635D01*
X0016120Y0140833D02*
X0061520Y0140833D01*
X0061520Y0142032D02*
X0016120Y0142032D01*
X0016120Y0143230D02*
X0061520Y0143230D01*
X0061520Y0144429D02*
X0016120Y0144429D01*
X0016120Y0145627D02*
X0061520Y0145627D01*
X0061520Y0146826D02*
X0016120Y0146826D01*
X0016120Y0148024D02*
X0061520Y0148024D01*
X0061520Y0149223D02*
X0016120Y0149223D01*
X0016120Y0150421D02*
X0061520Y0150421D01*
X0061520Y0151620D02*
X0016120Y0151620D01*
X0016120Y0152818D02*
X0061520Y0152818D01*
X0061520Y0154017D02*
X0016120Y0154017D01*
X0016120Y0155215D02*
X0061520Y0155215D01*
X0061520Y0156414D02*
X0016120Y0156414D01*
X0016120Y0157612D02*
X0061520Y0157612D01*
X0061520Y0158811D02*
X0016120Y0158811D01*
X0016120Y0160009D02*
X0061520Y0160009D01*
X0061520Y0161208D02*
X0016120Y0161208D01*
X0016120Y0162406D02*
X0061520Y0162406D01*
X0061520Y0162428D02*
X0061520Y0047428D01*
X0045423Y0031332D01*
X0044534Y0031700D01*
X0042505Y0031700D01*
X0040631Y0030924D01*
X0039196Y0029489D01*
X0038420Y0027614D01*
X0038420Y0025586D01*
X0039196Y0023711D01*
X0040631Y0022276D01*
X0042505Y0021500D01*
X0044534Y0021500D01*
X0046409Y0022276D01*
X0047843Y0023711D01*
X0048520Y0025344D01*
X0049196Y0023711D01*
X0050631Y0022276D01*
X0052505Y0021500D01*
X0054534Y0021500D01*
X0056409Y0022276D01*
X0057843Y0023711D01*
X0058427Y0025121D01*
X0058608Y0024566D01*
X0058987Y0023822D01*
X0059477Y0023147D01*
X0060067Y0022557D01*
X0060742Y0022067D01*
X0061485Y0021688D01*
X0062279Y0021430D01*
X0063103Y0021300D01*
X0063120Y0021300D01*
X0063120Y0026200D01*
X0063920Y0026200D01*
X0063920Y0021300D01*
X0063937Y0021300D01*
X0064761Y0021430D01*
X0065554Y0021688D01*
X0066297Y0022067D01*
X0066972Y0022557D01*
X0067562Y0023147D01*
X0068053Y0023822D01*
X0068431Y0024566D01*
X0068612Y0025121D01*
X0069196Y0023711D01*
X0070631Y0022276D01*
X0072505Y0021500D01*
X0074534Y0021500D01*
X0076409Y0022276D01*
X0077843Y0023711D01*
X0078620Y0025586D01*
X0078620Y0027614D01*
X0077843Y0029489D01*
X0076409Y0030924D01*
X0074534Y0031700D01*
X0072505Y0031700D01*
X0070631Y0030924D01*
X0069196Y0029489D01*
X0068612Y0028079D01*
X0068431Y0028634D01*
X0068053Y0029378D01*
X0067562Y0030053D01*
X0066972Y0030643D01*
X0066297Y0031133D01*
X0065554Y0031512D01*
X0064761Y0031769D01*
X0063937Y0031900D01*
X0063920Y0031900D01*
X0063920Y0027000D01*
X0063120Y0027000D01*
X0063120Y0031900D01*
X0063103Y0031900D01*
X0062279Y0031769D01*
X0061485Y0031512D01*
X0060742Y0031133D01*
X0060067Y0030643D01*
X0059477Y0030053D01*
X0058987Y0029378D01*
X0058608Y0028634D01*
X0058427Y0028079D01*
X0057843Y0029489D01*
X0056409Y0030924D01*
X0054534Y0031700D01*
X0052505Y0031700D01*
X0050701Y0030952D01*
X0064348Y0044600D01*
X0064348Y0044600D01*
X0064605Y0044857D01*
X0065691Y0043772D01*
X0078591Y0030872D01*
X0079763Y0029700D01*
X0117591Y0029700D01*
X0118788Y0028503D01*
X0118420Y0027614D01*
X0118420Y0025586D01*
X0119196Y0023711D01*
X0120631Y0022276D01*
X0122505Y0021500D01*
X0124534Y0021500D01*
X0126409Y0022276D01*
X0127843Y0023711D01*
X0128520Y0025344D01*
X0129196Y0023711D01*
X0130631Y0022276D01*
X0132505Y0021500D01*
X0134534Y0021500D01*
X0136409Y0022276D01*
X0137843Y0023711D01*
X0138427Y0025121D01*
X0138608Y0024566D01*
X0138987Y0023822D01*
X0139477Y0023147D01*
X0140067Y0022557D01*
X0140742Y0022067D01*
X0141485Y0021688D01*
X0142279Y0021430D01*
X0143103Y0021300D01*
X0143120Y0021300D01*
X0143120Y0026200D01*
X0143920Y0026200D01*
X0143920Y0021300D01*
X0143937Y0021300D01*
X0144761Y0021430D01*
X0145554Y0021688D01*
X0146297Y0022067D01*
X0146972Y0022557D01*
X0147562Y0023147D01*
X0148053Y0023822D01*
X0148431Y0024566D01*
X0148612Y0025121D01*
X0149196Y0023711D01*
X0150631Y0022276D01*
X0152505Y0021500D01*
X0154534Y0021500D01*
X0156409Y0022276D01*
X0157843Y0023711D01*
X0158620Y0025586D01*
X0158620Y0027614D01*
X0157843Y0029489D01*
X0156409Y0030924D01*
X0154534Y0031700D01*
X0152505Y0031700D01*
X0150631Y0030924D01*
X0149196Y0029489D01*
X0148612Y0028079D01*
X0148431Y0028634D01*
X0148053Y0029378D01*
X0147562Y0030053D01*
X0146972Y0030643D01*
X0146297Y0031133D01*
X0145554Y0031512D01*
X0144975Y0031700D01*
X0195591Y0031700D01*
X0198788Y0028503D01*
X0198420Y0027614D01*
X0198420Y0025586D01*
X0199196Y0023711D01*
X0200631Y0022276D01*
X0202505Y0021500D01*
X0204534Y0021500D01*
X0206409Y0022276D01*
X0207843Y0023711D01*
X0208520Y0025344D01*
X0209196Y0023711D01*
X0210631Y0022276D01*
X0212505Y0021500D01*
X0214534Y0021500D01*
X0216409Y0022276D01*
X0217843Y0023711D01*
X0218427Y0025121D01*
X0218608Y0024566D01*
X0218987Y0023822D01*
X0219477Y0023147D01*
X0220067Y0022557D01*
X0220742Y0022067D01*
X0221485Y0021688D01*
X0222279Y0021430D01*
X0223103Y0021300D01*
X0223120Y0021300D01*
X0223120Y0026200D01*
X0223920Y0026200D01*
X0223920Y0021300D01*
X0223937Y0021300D01*
X0224761Y0021430D01*
X0225554Y0021688D01*
X0226297Y0022067D01*
X0226972Y0022557D01*
X0227562Y0023147D01*
X0228053Y0023822D01*
X0228431Y0024566D01*
X0228612Y0025121D01*
X0229196Y0023711D01*
X0230631Y0022276D01*
X0232505Y0021500D01*
X0234534Y0021500D01*
X0236409Y0022276D01*
X0237843Y0023711D01*
X0238620Y0025586D01*
X0238620Y0027614D01*
X0237843Y0029489D01*
X0236409Y0030924D01*
X0234534Y0031700D01*
X0232505Y0031700D01*
X0230631Y0030924D01*
X0229196Y0029489D01*
X0228612Y0028079D01*
X0228431Y0028634D01*
X0228053Y0029378D01*
X0227562Y0030053D01*
X0226972Y0030643D01*
X0226297Y0031133D01*
X0225554Y0031512D01*
X0224761Y0031769D01*
X0223937Y0031900D01*
X0223920Y0031900D01*
X0223920Y0027000D01*
X0223120Y0027000D01*
X0223120Y0031900D01*
X0223103Y0031900D01*
X0222279Y0031769D01*
X0221485Y0031512D01*
X0220742Y0031133D01*
X0220067Y0030643D01*
X0219477Y0030053D01*
X0218987Y0029378D01*
X0218608Y0028634D01*
X0218427Y0028079D01*
X0217843Y0029489D01*
X0216409Y0030924D01*
X0214534Y0031700D01*
X0212505Y0031700D01*
X0210631Y0030924D01*
X0209196Y0029489D01*
X0208520Y0027856D01*
X0207843Y0029489D01*
X0206409Y0030924D01*
X0204534Y0031700D01*
X0202505Y0031700D01*
X0201616Y0031332D01*
X0198420Y0034528D01*
X0198348Y0034600D01*
X0272691Y0034600D01*
X0278788Y0028503D01*
X0278420Y0027614D01*
X0278420Y0025586D01*
X0279196Y0023711D01*
X0280631Y0022276D01*
X0282505Y0021500D01*
X0284534Y0021500D01*
X0286409Y0022276D01*
X0287843Y0023711D01*
X0288520Y0025344D01*
X0289196Y0023711D01*
X0290631Y0022276D01*
X0292505Y0021500D01*
X0294534Y0021500D01*
X0296409Y0022276D01*
X0297843Y0023711D01*
X0298427Y0025121D01*
X0298608Y0024566D01*
X0298987Y0023822D01*
X0299477Y0023147D01*
X0300067Y0022557D01*
X0300742Y0022067D01*
X0301485Y0021688D01*
X0302279Y0021430D01*
X0303103Y0021300D01*
X0303120Y0021300D01*
X0303120Y0026200D01*
X0303920Y0026200D01*
X0303920Y0021300D01*
X0303937Y0021300D01*
X0304761Y0021430D01*
X0305554Y0021688D01*
X0306297Y0022067D01*
X0306972Y0022557D01*
X0307562Y0023147D01*
X0308053Y0023822D01*
X0308431Y0024566D01*
X0308612Y0025121D01*
X0309196Y0023711D01*
X0310631Y0022276D01*
X0312505Y0021500D01*
X0314534Y0021500D01*
X0316409Y0022276D01*
X0317843Y0023711D01*
X0318620Y0025586D01*
X0318620Y0027614D01*
X0317843Y0029489D01*
X0316409Y0030924D01*
X0314534Y0031700D01*
X0312505Y0031700D01*
X0310631Y0030924D01*
X0309196Y0029489D01*
X0308612Y0028079D01*
X0308431Y0028634D01*
X0308053Y0029378D01*
X0307562Y0030053D01*
X0306972Y0030643D01*
X0306297Y0031133D01*
X0305554Y0031512D01*
X0304761Y0031769D01*
X0303937Y0031900D01*
X0303920Y0031900D01*
X0303920Y0027000D01*
X0303120Y0027000D01*
X0303120Y0031900D01*
X0303103Y0031900D01*
X0302279Y0031769D01*
X0301485Y0031512D01*
X0300742Y0031133D01*
X0300067Y0030643D01*
X0299477Y0030053D01*
X0298987Y0029378D01*
X0298608Y0028634D01*
X0298427Y0028079D01*
X0297843Y0029489D01*
X0296409Y0030924D01*
X0294534Y0031700D01*
X0292505Y0031700D01*
X0290631Y0030924D01*
X0289196Y0029489D01*
X0288520Y0027856D01*
X0287843Y0029489D01*
X0286409Y0030924D01*
X0284534Y0031700D01*
X0282505Y0031700D01*
X0281616Y0031332D01*
X0274348Y0038600D01*
X0084348Y0038600D01*
X0080520Y0042428D01*
X0080520Y0133444D01*
X0081054Y0132910D01*
X0082654Y0132247D01*
X0084385Y0132247D01*
X0085985Y0132910D01*
X0087210Y0134134D01*
X0087872Y0135734D01*
X0087872Y0137466D01*
X0087210Y0139066D01*
X0086762Y0139514D01*
X0089348Y0142100D01*
X0089348Y0142100D01*
X0090520Y0143272D01*
X0090520Y0174928D01*
X0078020Y0187428D01*
X0076848Y0188600D01*
X0076675Y0188600D01*
X0077210Y0189134D01*
X0077872Y0190734D01*
X0077872Y0192466D01*
X0077210Y0194066D01*
X0075985Y0195290D01*
X0074385Y0195953D01*
X0072654Y0195953D01*
X0071054Y0195290D01*
X0070520Y0194756D01*
X0070520Y0198444D01*
X0071054Y0197910D01*
X0072654Y0197247D01*
X0074385Y0197247D01*
X0075985Y0197910D01*
X0076520Y0198444D01*
X0076520Y0195772D01*
X0129360Y0142931D01*
X0129167Y0142466D01*
X0129167Y0140734D01*
X0129830Y0139134D01*
X0131054Y0137910D01*
X0132654Y0137247D01*
X0134385Y0137247D01*
X0135985Y0137910D01*
X0137210Y0139134D01*
X0137872Y0140734D01*
X0137872Y0142466D01*
X0137210Y0144066D01*
X0135985Y0145290D01*
X0134385Y0145953D01*
X0132654Y0145953D01*
X0132188Y0145760D01*
X0080520Y0197428D01*
X0080520Y0208444D01*
X0081054Y0207910D01*
X0082654Y0207247D01*
X0084385Y0207247D01*
X0085985Y0207910D01*
X0086683Y0208608D01*
X0089520Y0205772D01*
X0090691Y0204600D01*
X0130364Y0204600D01*
X0129830Y0204066D01*
X0129167Y0202466D01*
X0129167Y0200734D01*
X0129830Y0199134D01*
X0131054Y0197910D01*
X0132654Y0197247D01*
X0134385Y0197247D01*
X0135985Y0197910D01*
X0137210Y0199134D01*
X0137872Y0200734D01*
X0137872Y0202466D01*
X0137210Y0204066D01*
X0136675Y0204600D01*
X0224348Y0204600D01*
X0311616Y0291868D01*
X0312505Y0291500D01*
X0314534Y0291500D01*
X0316409Y0292276D01*
X0317843Y0293711D01*
X0318620Y0295586D01*
X0318620Y0297614D01*
X0317843Y0299489D01*
X0316409Y0300924D01*
X0314534Y0301700D01*
X0312505Y0301700D01*
X0310631Y0300924D01*
X0309196Y0299489D01*
X0308520Y0297856D01*
X0307843Y0299489D01*
X0306409Y0300924D01*
X0304534Y0301700D01*
X0302505Y0301700D01*
X0300631Y0300924D01*
X0299196Y0299489D01*
X0298612Y0298079D01*
X0298431Y0298634D01*
X0298053Y0299378D01*
X0297562Y0300053D01*
X0296972Y0300643D01*
X0296297Y0301133D01*
X0295554Y0301512D01*
X0294761Y0301769D01*
X0293937Y0301900D01*
X0293920Y0301900D01*
X0293920Y0297000D01*
X0293120Y0297000D01*
X0293120Y0301900D01*
X0293103Y0301900D01*
X0292279Y0301769D01*
X0291485Y0301512D01*
X0290742Y0301133D01*
X0290067Y0300643D01*
X0289477Y0300053D01*
X0288987Y0299378D01*
X0288608Y0298634D01*
X0288427Y0298079D01*
X0287843Y0299489D01*
X0286409Y0300924D01*
X0284534Y0301700D01*
X0282505Y0301700D01*
X0280631Y0300924D01*
X0279196Y0299489D01*
X0278420Y0297614D01*
X0278420Y0295586D01*
X0279196Y0293711D01*
X0280631Y0292276D01*
X0282505Y0291500D01*
X0284534Y0291500D01*
X0286409Y0292276D01*
X0287843Y0293711D01*
X0288427Y0295121D01*
X0288608Y0294566D01*
X0288987Y0293822D01*
X0289477Y0293147D01*
X0290067Y0292557D01*
X0290742Y0292067D01*
X0291485Y0291688D01*
X0292279Y0291430D01*
X0293103Y0291300D01*
X0293120Y0291300D01*
X0293120Y0296200D01*
X0293920Y0296200D01*
X0293920Y0291300D01*
X0293937Y0291300D01*
X0294761Y0291430D01*
X0295554Y0291688D01*
X0296297Y0292067D01*
X0296972Y0292557D01*
X0297562Y0293147D01*
X0298053Y0293822D01*
X0298431Y0294566D01*
X0298612Y0295121D01*
X0299196Y0293711D01*
X0300631Y0292276D01*
X0302505Y0291500D01*
X0304534Y0291500D01*
X0306339Y0292248D01*
X0222691Y0208600D01*
X0136675Y0208600D01*
X0137210Y0209134D01*
X0137872Y0210734D01*
X0137872Y0212466D01*
X0137210Y0214066D01*
X0135985Y0215290D01*
X0134385Y0215953D01*
X0132654Y0215953D01*
X0131054Y0215290D01*
X0129830Y0214066D01*
X0129167Y0212466D01*
X0129167Y0210734D01*
X0129830Y0209134D01*
X0130364Y0208600D01*
X0106958Y0208600D01*
X0106992Y0208634D01*
X0107414Y0209214D01*
X0107739Y0209852D01*
X0107960Y0210534D01*
X0108068Y0211216D01*
X0103904Y0211216D01*
X0103904Y0211984D01*
X0108068Y0211984D01*
X0107960Y0212666D01*
X0107739Y0213348D01*
X0107414Y0213986D01*
X0106992Y0214566D01*
X0106486Y0215073D01*
X0105906Y0215494D01*
X0105267Y0215819D01*
X0104586Y0216041D01*
X0103904Y0216149D01*
X0103904Y0211984D01*
X0103135Y0211984D01*
X0099732Y0211984D01*
X0097441Y0209693D01*
X0097210Y0209134D01*
X0096675Y0208600D01*
X0100081Y0208600D01*
X0100047Y0208634D01*
X0099626Y0209214D01*
X0099300Y0209852D01*
X0099079Y0210534D01*
X0098971Y0211216D01*
X0103135Y0211216D01*
X0103135Y0211984D01*
X0103135Y0215387D01*
X0176348Y0288600D01*
X0228348Y0288600D01*
X0231616Y0291868D01*
X0232505Y0291500D01*
X0234534Y0291500D01*
X0236409Y0292276D01*
X0237843Y0293711D01*
X0238620Y0295586D01*
X0238620Y0297614D01*
X0237843Y0299489D01*
X0236409Y0300924D01*
X0234534Y0301700D01*
X0232505Y0301700D01*
X0230631Y0300924D01*
X0229196Y0299489D01*
X0228520Y0297856D01*
X0227843Y0299489D01*
X0226409Y0300924D01*
X0224534Y0301700D01*
X0222505Y0301700D01*
X0220631Y0300924D01*
X0219196Y0299489D01*
X0218612Y0298079D01*
X0218431Y0298634D01*
X0218053Y0299378D01*
X0217562Y0300053D01*
X0216972Y0300643D01*
X0216297Y0301133D01*
X0215554Y0301512D01*
X0214761Y0301769D01*
X0213937Y0301900D01*
X0213920Y0301900D01*
X0213920Y0297000D01*
X0213120Y0297000D01*
X0213120Y0301900D01*
X0213103Y0301900D01*
X0212279Y0301769D01*
X0211485Y0301512D01*
X0210742Y0301133D01*
X0210067Y0300643D01*
X0209477Y0300053D01*
X0208987Y0299378D01*
X0208608Y0298634D01*
X0208427Y0298079D01*
X0207843Y0299489D01*
X0206409Y0300924D01*
X0204534Y0301700D01*
X0202505Y0301700D01*
X0200631Y0300924D01*
X0199196Y0299489D01*
X0198420Y0297614D01*
X0198420Y0295586D01*
X0199196Y0293711D01*
X0200307Y0292600D01*
X0174691Y0292600D01*
X0173520Y0291428D01*
X0096683Y0214592D01*
X0095985Y0215290D01*
X0094385Y0215953D01*
X0092654Y0215953D01*
X0091054Y0215290D01*
X0089830Y0214066D01*
X0089167Y0212466D01*
X0089167Y0211781D01*
X0087441Y0213507D01*
X0087210Y0214066D01*
X0085985Y0215290D01*
X0084385Y0215953D01*
X0082654Y0215953D01*
X0081054Y0215290D01*
X0080520Y0214756D01*
X0080520Y0263923D01*
X0080724Y0264127D01*
X0081120Y0265083D01*
X0081120Y0266117D01*
X0080724Y0267073D01*
X0079992Y0267804D01*
X0079037Y0268200D01*
X0078002Y0268200D01*
X0077047Y0267804D01*
X0076316Y0267073D01*
X0075920Y0266117D01*
X0075920Y0265083D01*
X0076316Y0264127D01*
X0076520Y0263923D01*
X0076520Y0214756D01*
X0075985Y0215290D01*
X0074385Y0215953D01*
X0072654Y0215953D01*
X0071054Y0215290D01*
X0070520Y0214756D01*
X0070520Y0280443D01*
X0077177Y0287100D01*
X0146848Y0287100D01*
X0151616Y0291868D01*
X0152505Y0291500D01*
X0154534Y0291500D01*
X0156409Y0292276D01*
X0157843Y0293711D01*
X0158620Y0295586D01*
X0158620Y0297614D01*
X0157843Y0299489D01*
X0156409Y0300924D01*
X0154534Y0301700D01*
X0152505Y0301700D01*
X0150631Y0300924D01*
X0149196Y0299489D01*
X0148520Y0297856D01*
X0147843Y0299489D01*
X0146409Y0300924D01*
X0144534Y0301700D01*
X0142505Y0301700D01*
X0140631Y0300924D01*
X0139196Y0299489D01*
X0138612Y0298079D01*
X0138431Y0298634D01*
X0138053Y0299378D01*
X0137562Y0300053D01*
X0136972Y0300643D01*
X0136297Y0301133D01*
X0135554Y0301512D01*
X0134761Y0301769D01*
X0133937Y0301900D01*
X0133920Y0301900D01*
X0133920Y0297000D01*
X0133120Y0297000D01*
X0133120Y0301900D01*
X0133103Y0301900D01*
X0132279Y0301769D01*
X0131485Y0301512D01*
X0130742Y0301133D01*
X0130067Y0300643D01*
X0129477Y0300053D01*
X0128987Y0299378D01*
X0128608Y0298634D01*
X0128427Y0298079D01*
X0127843Y0299489D01*
X0126409Y0300924D01*
X0124534Y0301700D01*
X0122505Y0301700D01*
X0120631Y0300924D01*
X0119196Y0299489D01*
X0118420Y0297614D01*
X0118420Y0295586D01*
X0119196Y0293711D01*
X0120631Y0292276D01*
X0122505Y0291500D01*
X0124534Y0291500D01*
X0126409Y0292276D01*
X0127843Y0293711D01*
X0128427Y0295121D01*
X0128608Y0294566D01*
X0128987Y0293822D01*
X0129477Y0293147D01*
X0130067Y0292557D01*
X0130742Y0292067D01*
X0131485Y0291688D01*
X0132279Y0291430D01*
X0133103Y0291300D01*
X0133120Y0291300D01*
X0133120Y0296200D01*
X0133920Y0296200D01*
X0133920Y0291300D01*
X0133937Y0291300D01*
X0134761Y0291430D01*
X0135554Y0291688D01*
X0136297Y0292067D01*
X0136972Y0292557D01*
X0137562Y0293147D01*
X0138053Y0293822D01*
X0138431Y0294566D01*
X0138612Y0295121D01*
X0139196Y0293711D01*
X0140631Y0292276D01*
X0142505Y0291500D01*
X0144534Y0291500D01*
X0146339Y0292248D01*
X0145191Y0291100D01*
X0075520Y0291100D01*
X0075520Y0291908D01*
X0076409Y0292276D01*
X0077843Y0293711D01*
X0078620Y0295586D01*
X0078620Y0297614D01*
X0077843Y0299489D01*
X0076409Y0300924D01*
X0074534Y0301700D01*
X0072505Y0301700D01*
X0070631Y0300924D01*
X0069196Y0299489D01*
X0068520Y0297856D01*
X0067843Y0299489D01*
X0066409Y0300924D01*
X0064534Y0301700D01*
X0062505Y0301700D01*
X0060631Y0300924D01*
X0059196Y0299489D01*
X0058612Y0298079D01*
X0058520Y0298363D01*
X0058520Y0318961D01*
X0330065Y0318961D01*
X0328467Y0318442D01*
X0326026Y0316243D01*
X0324690Y0313242D01*
X0324690Y0309957D01*
X0326026Y0306957D01*
X0326026Y0306956D01*
X0328467Y0304758D01*
X0331592Y0303743D01*
X0334859Y0304087D01*
X0337703Y0305729D01*
X0337703Y0305729D01*
X0339620Y0308368D01*
X0339620Y0014832D01*
X0337703Y0017471D01*
X0334859Y0019113D01*
X0334859Y0019113D01*
X0331592Y0019457D01*
X0328467Y0018442D01*
X0328467Y0018442D01*
X0328467Y0018442D01*
X0326026Y0016243D01*
X0324690Y0013242D01*
X0324690Y0009958D01*
X0326026Y0006957D01*
X0326026Y0006956D01*
X0328467Y0004758D01*
X0330186Y0004200D01*
X0026157Y0004200D01*
X0028806Y0005729D01*
X0028806Y0005729D01*
X0028806Y0005729D01*
X0030737Y0008387D01*
X0031420Y0011600D01*
X0030737Y0014813D01*
X0030737Y0014813D01*
X0028806Y0017471D01*
X0028806Y0017471D01*
X0028806Y0017471D01*
X0025961Y0019113D01*
X0025961Y0019113D01*
X0022694Y0019457D01*
X0019570Y0018442D01*
X0017128Y0016243D01*
X0016120Y0013978D01*
X0016120Y0209100D01*
X0058520Y0209100D01*
X0058520Y0294837D01*
X0058612Y0295121D01*
X0059196Y0293711D01*
X0060631Y0292276D01*
X0062505Y0291500D01*
X0064534Y0291500D01*
X0066409Y0292276D01*
X0067843Y0293711D01*
X0068520Y0295344D01*
X0069196Y0293711D01*
X0070631Y0292276D01*
X0071520Y0291908D01*
X0071520Y0289928D01*
X0065191Y0283600D01*
X0064020Y0282428D01*
X0064020Y0178272D01*
X0065191Y0177100D01*
X0067691Y0174600D01*
X0070364Y0174600D01*
X0069830Y0174066D01*
X0069167Y0172466D01*
X0069167Y0170734D01*
X0069360Y0170269D01*
X0062691Y0163600D01*
X0061520Y0162428D01*
X0062696Y0163605D02*
X0016120Y0163605D01*
X0016120Y0164803D02*
X0063895Y0164803D01*
X0065093Y0166002D02*
X0016120Y0166002D01*
X0016120Y0167201D02*
X0035265Y0167201D01*
X0035585Y0166968D02*
X0036370Y0166568D01*
X0037208Y0166295D01*
X0037970Y0166175D01*
X0037970Y0171207D01*
X0039070Y0171207D01*
X0039070Y0166175D01*
X0039831Y0166295D01*
X0040669Y0166568D01*
X0041455Y0166968D01*
X0042168Y0167486D01*
X0042791Y0168109D01*
X0043309Y0168822D01*
X0043709Y0169608D01*
X0043982Y0170446D01*
X0044102Y0171207D01*
X0039070Y0171207D01*
X0039070Y0172307D01*
X0044102Y0172307D01*
X0043982Y0173069D01*
X0043709Y0173907D01*
X0043309Y0174693D01*
X0042791Y0175406D01*
X0042168Y0176029D01*
X0041455Y0176547D01*
X0040669Y0176947D01*
X0039831Y0177220D01*
X0039070Y0177340D01*
X0039070Y0172308D01*
X0037970Y0172308D01*
X0037970Y0177340D01*
X0037208Y0177220D01*
X0036370Y0176947D01*
X0035585Y0176547D01*
X0034872Y0176029D01*
X0034248Y0175406D01*
X0033730Y0174693D01*
X0033330Y0173907D01*
X0033058Y0173069D01*
X0032937Y0172307D01*
X0037970Y0172307D01*
X0037970Y0171207D01*
X0032937Y0171207D01*
X0033058Y0170446D01*
X0033330Y0169608D01*
X0033730Y0168822D01*
X0034248Y0168109D01*
X0034872Y0167486D01*
X0035585Y0166968D01*
X0034038Y0168399D02*
X0016120Y0168399D01*
X0016120Y0169598D02*
X0033335Y0169598D01*
X0033002Y0170796D02*
X0016120Y0170796D01*
X0016120Y0171995D02*
X0037970Y0171995D01*
X0039070Y0171995D02*
X0069167Y0171995D01*
X0069167Y0170796D02*
X0044037Y0170796D01*
X0043704Y0169598D02*
X0068689Y0169598D01*
X0067490Y0168399D02*
X0043002Y0168399D01*
X0041775Y0167201D02*
X0066292Y0167201D01*
X0063520Y0161600D02*
X0063520Y0046600D01*
X0043520Y0026600D01*
X0048202Y0024578D02*
X0048837Y0024578D01*
X0049528Y0023379D02*
X0047511Y0023379D01*
X0046177Y0022181D02*
X0050862Y0022181D01*
X0056177Y0022181D02*
X0060585Y0022181D01*
X0059309Y0023379D02*
X0057511Y0023379D01*
X0058202Y0024578D02*
X0058604Y0024578D01*
X0058458Y0028173D02*
X0058388Y0028173D01*
X0057892Y0029372D02*
X0058984Y0029372D01*
X0059995Y0030570D02*
X0056762Y0030570D01*
X0053914Y0034166D02*
X0075297Y0034166D01*
X0074099Y0035364D02*
X0055112Y0035364D01*
X0056311Y0036563D02*
X0072900Y0036563D01*
X0071702Y0037761D02*
X0057509Y0037761D01*
X0058708Y0038960D02*
X0070503Y0038960D01*
X0069304Y0040158D02*
X0059906Y0040158D01*
X0061105Y0041357D02*
X0068106Y0041357D01*
X0066907Y0042555D02*
X0062303Y0042555D01*
X0063502Y0043754D02*
X0065709Y0043754D01*
X0066520Y0045772D02*
X0066520Y0154600D01*
X0073520Y0161600D01*
X0073520Y0171600D02*
X0063520Y0161600D01*
X0069468Y0173193D02*
X0043941Y0173193D01*
X0043463Y0174392D02*
X0070156Y0174392D01*
X0068520Y0176600D02*
X0066020Y0179100D01*
X0066020Y0281600D01*
X0073520Y0289100D01*
X0073520Y0296600D01*
X0078620Y0296640D02*
X0118420Y0296640D01*
X0118479Y0295441D02*
X0078560Y0295441D01*
X0078063Y0294243D02*
X0118976Y0294243D01*
X0119863Y0293044D02*
X0077176Y0293044D01*
X0075520Y0291846D02*
X0121671Y0291846D01*
X0125369Y0291846D02*
X0131176Y0291846D01*
X0133120Y0291846D02*
X0133920Y0291846D01*
X0133920Y0293044D02*
X0133120Y0293044D01*
X0133120Y0294243D02*
X0133920Y0294243D01*
X0133920Y0295441D02*
X0133120Y0295441D01*
X0133120Y0297838D02*
X0133920Y0297838D01*
X0133920Y0299037D02*
X0133120Y0299037D01*
X0133120Y0300235D02*
X0133920Y0300235D01*
X0133920Y0301434D02*
X0133120Y0301434D01*
X0131332Y0301434D02*
X0125177Y0301434D01*
X0127097Y0300235D02*
X0129660Y0300235D01*
X0128813Y0299037D02*
X0128031Y0299037D01*
X0128063Y0294243D02*
X0128772Y0294243D01*
X0129580Y0293044D02*
X0127176Y0293044D01*
X0118512Y0297838D02*
X0078527Y0297838D01*
X0078031Y0299037D02*
X0119009Y0299037D01*
X0119942Y0300235D02*
X0077097Y0300235D01*
X0075177Y0301434D02*
X0121863Y0301434D01*
X0135707Y0301434D02*
X0141863Y0301434D01*
X0139942Y0300235D02*
X0137380Y0300235D01*
X0138226Y0299037D02*
X0139009Y0299037D01*
X0138976Y0294243D02*
X0138267Y0294243D01*
X0137459Y0293044D02*
X0139863Y0293044D01*
X0141671Y0291846D02*
X0135863Y0291846D01*
X0145369Y0291846D02*
X0145937Y0291846D01*
X0146020Y0289100D02*
X0153520Y0296600D01*
X0158620Y0296640D02*
X0198420Y0296640D01*
X0198479Y0295441D02*
X0158560Y0295441D01*
X0158063Y0294243D02*
X0198976Y0294243D01*
X0199863Y0293044D02*
X0157176Y0293044D01*
X0155369Y0291846D02*
X0173937Y0291846D01*
X0172738Y0290647D02*
X0150395Y0290647D01*
X0149197Y0289449D02*
X0171540Y0289449D01*
X0170341Y0288250D02*
X0147998Y0288250D01*
X0146020Y0289100D02*
X0076020Y0289100D01*
X0075520Y0288600D01*
X0075520Y0288272D01*
X0068520Y0281272D01*
X0068520Y0189100D01*
X0071020Y0186600D01*
X0076020Y0186600D01*
X0088520Y0174100D01*
X0088520Y0144100D01*
X0083520Y0139100D01*
X0083520Y0136600D01*
X0087502Y0134841D02*
X0130322Y0134841D01*
X0130554Y0135073D02*
X0130047Y0134566D01*
X0129626Y0133986D01*
X0129300Y0133348D01*
X0129079Y0132666D01*
X0128971Y0131984D01*
X0133135Y0131984D01*
X0133135Y0131216D01*
X0128971Y0131216D01*
X0129079Y0130534D01*
X0129300Y0129852D01*
X0129626Y0129214D01*
X0130047Y0128634D01*
X0130554Y0128127D01*
X0131134Y0127706D01*
X0131772Y0127381D01*
X0132454Y0127159D01*
X0133135Y0127051D01*
X0133135Y0131216D01*
X0133904Y0131216D01*
X0133904Y0131984D01*
X0138068Y0131984D01*
X0137960Y0132666D01*
X0137739Y0133348D01*
X0137414Y0133986D01*
X0136992Y0134566D01*
X0136486Y0135073D01*
X0135906Y0135494D01*
X0135267Y0135819D01*
X0134586Y0136041D01*
X0133904Y0136149D01*
X0133904Y0131984D01*
X0133135Y0131984D01*
X0133135Y0136149D01*
X0132454Y0136041D01*
X0131772Y0135819D01*
X0131134Y0135494D01*
X0130554Y0135073D01*
X0129451Y0133642D02*
X0086718Y0133642D01*
X0084860Y0132444D02*
X0129044Y0132444D01*
X0129237Y0130047D02*
X0080520Y0130047D01*
X0080520Y0131245D02*
X0133135Y0131245D01*
X0133904Y0131245D02*
X0339620Y0131245D01*
X0339620Y0130047D02*
X0137802Y0130047D01*
X0137739Y0129852D02*
X0137960Y0130534D01*
X0138068Y0131216D01*
X0133904Y0131216D01*
X0133904Y0127051D01*
X0134586Y0127159D01*
X0135267Y0127381D01*
X0135906Y0127706D01*
X0136486Y0128127D01*
X0136992Y0128634D01*
X0137414Y0129214D01*
X0137739Y0129852D01*
X0137148Y0128848D02*
X0339620Y0128848D01*
X0339620Y0127650D02*
X0135795Y0127650D01*
X0133904Y0127650D02*
X0133135Y0127650D01*
X0133135Y0128848D02*
X0133904Y0128848D01*
X0133904Y0130047D02*
X0133135Y0130047D01*
X0133135Y0132444D02*
X0133904Y0132444D01*
X0133904Y0133642D02*
X0133135Y0133642D01*
X0133135Y0134841D02*
X0133904Y0134841D01*
X0133904Y0136039D02*
X0133135Y0136039D01*
X0132449Y0136039D02*
X0087872Y0136039D01*
X0087872Y0137238D02*
X0339620Y0137238D01*
X0339620Y0138436D02*
X0136512Y0138436D01*
X0137417Y0139635D02*
X0339620Y0139635D01*
X0339620Y0140833D02*
X0137872Y0140833D01*
X0137872Y0142032D02*
X0339620Y0142032D01*
X0339620Y0143230D02*
X0137556Y0143230D01*
X0136847Y0144429D02*
X0339620Y0144429D01*
X0339620Y0145627D02*
X0135171Y0145627D01*
X0134385Y0147247D02*
X0135985Y0147910D01*
X0137210Y0149134D01*
X0137403Y0149600D01*
X0308051Y0149600D01*
X0311332Y0146319D01*
X0315707Y0146319D01*
X0317831Y0148442D01*
X0317887Y0148419D01*
X0319152Y0148419D01*
X0320322Y0148903D01*
X0321216Y0149798D01*
X0321701Y0150967D01*
X0321701Y0152233D01*
X0321216Y0153402D01*
X0320518Y0154100D01*
X0321216Y0154798D01*
X0321701Y0155967D01*
X0321701Y0157233D01*
X0321216Y0158402D01*
X0320518Y0159100D01*
X0321216Y0159798D01*
X0321701Y0160967D01*
X0321701Y0162233D01*
X0321216Y0163402D01*
X0320657Y0163962D01*
X0320675Y0163974D01*
X0321146Y0164445D01*
X0321516Y0164998D01*
X0321771Y0165614D01*
X0321901Y0166267D01*
X0321901Y0166600D01*
X0321901Y0166933D01*
X0321771Y0167586D01*
X0321516Y0168202D01*
X0321146Y0168755D01*
X0320675Y0169226D01*
X0320657Y0169238D01*
X0321216Y0169798D01*
X0321701Y0170967D01*
X0321701Y0171953D01*
X0330520Y0180772D01*
X0330520Y0257428D01*
X0329348Y0258600D01*
X0324348Y0263600D01*
X0321763Y0263600D01*
X0321709Y0263731D01*
X0320651Y0264789D01*
X0319268Y0265362D01*
X0317771Y0265362D01*
X0316389Y0264789D01*
X0315330Y0263731D01*
X0314757Y0262348D01*
X0314757Y0260852D01*
X0315330Y0259469D01*
X0316389Y0258411D01*
X0317771Y0257838D01*
X0319268Y0257838D01*
X0320651Y0258411D01*
X0321709Y0259469D01*
X0321763Y0259600D01*
X0322691Y0259600D01*
X0326520Y0255772D01*
X0326520Y0182428D01*
X0318872Y0174781D01*
X0317887Y0174781D01*
X0316718Y0174297D01*
X0316221Y0173800D01*
X0315818Y0173800D01*
X0315322Y0174297D01*
X0314152Y0174781D01*
X0312887Y0174781D01*
X0311718Y0174297D01*
X0310823Y0173402D01*
X0310339Y0172233D01*
X0310339Y0170967D01*
X0310823Y0169798D01*
X0311383Y0169238D01*
X0311364Y0169226D01*
X0310893Y0168755D01*
X0310523Y0168202D01*
X0310269Y0167586D01*
X0310139Y0166933D01*
X0310139Y0166600D01*
X0310139Y0166267D01*
X0310269Y0165614D01*
X0310523Y0164998D01*
X0310893Y0164445D01*
X0311364Y0163974D01*
X0311383Y0163962D01*
X0310823Y0163402D01*
X0310339Y0162233D01*
X0310339Y0160967D01*
X0310823Y0159798D01*
X0311521Y0159100D01*
X0310823Y0158402D01*
X0310339Y0157233D01*
X0310339Y0155967D01*
X0310823Y0154798D01*
X0311521Y0154100D01*
X0310823Y0153402D01*
X0310554Y0152754D01*
X0309708Y0153600D01*
X0137403Y0153600D01*
X0137210Y0154066D01*
X0135985Y0155290D01*
X0134385Y0155953D01*
X0132654Y0155953D01*
X0131054Y0155290D01*
X0129830Y0154066D01*
X0129167Y0152466D01*
X0129167Y0150734D01*
X0129830Y0149134D01*
X0131054Y0147910D01*
X0132654Y0147247D01*
X0134385Y0147247D01*
X0136100Y0148024D02*
X0309627Y0148024D01*
X0310825Y0146826D02*
X0131122Y0146826D01*
X0130940Y0148024D02*
X0129924Y0148024D01*
X0129793Y0149223D02*
X0128725Y0149223D01*
X0129296Y0150421D02*
X0127527Y0150421D01*
X0126328Y0151620D02*
X0129167Y0151620D01*
X0129313Y0152818D02*
X0125130Y0152818D01*
X0123931Y0154017D02*
X0129809Y0154017D01*
X0130979Y0155215D02*
X0122733Y0155215D01*
X0121534Y0156414D02*
X0310339Y0156414D01*
X0310496Y0157612D02*
X0135267Y0157612D01*
X0135985Y0157910D02*
X0137210Y0159134D01*
X0137872Y0160734D01*
X0137872Y0162466D01*
X0137210Y0164066D01*
X0135985Y0165290D01*
X0134385Y0165953D01*
X0132654Y0165953D01*
X0131054Y0165290D01*
X0129830Y0164066D01*
X0129167Y0162466D01*
X0129167Y0160734D01*
X0129830Y0159134D01*
X0131054Y0157910D01*
X0132654Y0157247D01*
X0134385Y0157247D01*
X0135985Y0157910D01*
X0136886Y0158811D02*
X0311232Y0158811D01*
X0310735Y0160009D02*
X0137572Y0160009D01*
X0137872Y0161208D02*
X0310339Y0161208D01*
X0310411Y0162406D02*
X0137872Y0162406D01*
X0137401Y0163605D02*
X0311026Y0163605D01*
X0310654Y0164803D02*
X0136472Y0164803D01*
X0135985Y0167910D02*
X0134385Y0167247D01*
X0132654Y0167247D01*
X0131054Y0167910D01*
X0129830Y0169134D01*
X0129167Y0170734D01*
X0129167Y0172466D01*
X0129830Y0174066D01*
X0131054Y0175290D01*
X0132654Y0175953D01*
X0134385Y0175953D01*
X0135985Y0175290D01*
X0137210Y0174066D01*
X0137872Y0172466D01*
X0137872Y0170734D01*
X0137210Y0169134D01*
X0135985Y0167910D01*
X0136474Y0168399D02*
X0310655Y0168399D01*
X0311023Y0169598D02*
X0137402Y0169598D01*
X0137872Y0170796D02*
X0310409Y0170796D01*
X0310339Y0171995D02*
X0137872Y0171995D01*
X0137571Y0173193D02*
X0310736Y0173193D01*
X0311947Y0174392D02*
X0136884Y0174392D01*
X0135261Y0175590D02*
X0319681Y0175590D01*
X0320880Y0176789D02*
X0101159Y0176789D01*
X0099961Y0177987D02*
X0130977Y0177987D01*
X0131054Y0177910D02*
X0132654Y0177247D01*
X0134385Y0177247D01*
X0135985Y0177910D01*
X0137210Y0179134D01*
X0137872Y0180734D01*
X0137872Y0182466D01*
X0137210Y0184066D01*
X0135985Y0185290D01*
X0134385Y0185953D01*
X0132654Y0185953D01*
X0131054Y0185290D01*
X0129830Y0184066D01*
X0129167Y0182466D01*
X0129167Y0180734D01*
X0129830Y0179134D01*
X0131054Y0177910D01*
X0129808Y0179186D02*
X0098762Y0179186D01*
X0097564Y0180384D02*
X0129312Y0180384D01*
X0129167Y0181583D02*
X0096365Y0181583D01*
X0095167Y0182781D02*
X0129298Y0182781D01*
X0129794Y0183980D02*
X0093968Y0183980D01*
X0092770Y0185178D02*
X0130942Y0185178D01*
X0131862Y0187575D02*
X0090373Y0187575D01*
X0091571Y0186377D02*
X0326520Y0186377D01*
X0326520Y0187575D02*
X0135177Y0187575D01*
X0134385Y0187247D02*
X0135985Y0187910D01*
X0137210Y0189134D01*
X0137872Y0190734D01*
X0137872Y0192466D01*
X0137210Y0194066D01*
X0135985Y0195290D01*
X0134385Y0195953D01*
X0132654Y0195953D01*
X0131054Y0195290D01*
X0129830Y0194066D01*
X0129167Y0192466D01*
X0129167Y0190734D01*
X0129830Y0189134D01*
X0131054Y0187910D01*
X0132654Y0187247D01*
X0134385Y0187247D01*
X0136097Y0185178D02*
X0326520Y0185178D01*
X0326520Y0183980D02*
X0137245Y0183980D01*
X0137742Y0182781D02*
X0326520Y0182781D01*
X0325674Y0181583D02*
X0137872Y0181583D01*
X0137727Y0180384D02*
X0324475Y0180384D01*
X0323277Y0179186D02*
X0137231Y0179186D01*
X0136063Y0177987D02*
X0322078Y0177987D01*
X0325338Y0175590D02*
X0339620Y0175590D01*
X0339620Y0174392D02*
X0324140Y0174392D01*
X0322941Y0173193D02*
X0339620Y0173193D01*
X0339620Y0171995D02*
X0321743Y0171995D01*
X0321630Y0170796D02*
X0339620Y0170796D01*
X0339620Y0169598D02*
X0321016Y0169598D01*
X0321384Y0168399D02*
X0339620Y0168399D01*
X0339620Y0167201D02*
X0321848Y0167201D01*
X0321901Y0166600D02*
X0318520Y0166600D01*
X0318520Y0166600D01*
X0321901Y0166600D01*
X0321848Y0166002D02*
X0339620Y0166002D01*
X0339620Y0164803D02*
X0321386Y0164803D01*
X0321013Y0163605D02*
X0339620Y0163605D01*
X0339620Y0162406D02*
X0321629Y0162406D01*
X0321701Y0161208D02*
X0339620Y0161208D01*
X0339620Y0160009D02*
X0321304Y0160009D01*
X0320807Y0158811D02*
X0339620Y0158811D01*
X0339620Y0157612D02*
X0321544Y0157612D01*
X0321701Y0156414D02*
X0339620Y0156414D01*
X0339620Y0155215D02*
X0321389Y0155215D01*
X0320602Y0154017D02*
X0339620Y0154017D01*
X0339620Y0152818D02*
X0321458Y0152818D01*
X0321701Y0151620D02*
X0339620Y0151620D01*
X0339620Y0150421D02*
X0321475Y0150421D01*
X0320641Y0149223D02*
X0339620Y0149223D01*
X0339620Y0148024D02*
X0317413Y0148024D01*
X0316214Y0146826D02*
X0339620Y0146826D01*
X0339620Y0136039D02*
X0134590Y0136039D01*
X0136718Y0134841D02*
X0339620Y0134841D01*
X0339620Y0133642D02*
X0137589Y0133642D01*
X0137996Y0132444D02*
X0339620Y0132444D01*
X0339620Y0126451D02*
X0080520Y0126451D01*
X0080520Y0125253D02*
X0131017Y0125253D01*
X0131054Y0125290D02*
X0129830Y0124066D01*
X0129167Y0122466D01*
X0129167Y0120734D01*
X0129830Y0119134D01*
X0131054Y0117910D01*
X0132654Y0117247D01*
X0134385Y0117247D01*
X0135985Y0117910D01*
X0137210Y0119134D01*
X0137872Y0120734D01*
X0137872Y0122466D01*
X0137210Y0124066D01*
X0135985Y0125290D01*
X0134385Y0125953D01*
X0132654Y0125953D01*
X0131054Y0125290D01*
X0129825Y0124054D02*
X0080520Y0124054D01*
X0080520Y0122856D02*
X0129328Y0122856D01*
X0129167Y0121657D02*
X0080520Y0121657D01*
X0080520Y0120459D02*
X0129281Y0120459D01*
X0129778Y0119260D02*
X0080520Y0119260D01*
X0080520Y0118062D02*
X0130902Y0118062D01*
X0131958Y0115665D02*
X0080520Y0115665D01*
X0080520Y0116863D02*
X0339620Y0116863D01*
X0339620Y0115665D02*
X0135081Y0115665D01*
X0134385Y0115953D02*
X0135985Y0115290D01*
X0137210Y0114066D01*
X0137872Y0112466D01*
X0137872Y0110734D01*
X0137210Y0109134D01*
X0135985Y0107910D01*
X0134385Y0107247D01*
X0132654Y0107247D01*
X0131054Y0107910D01*
X0129830Y0109134D01*
X0129167Y0110734D01*
X0129167Y0112466D01*
X0129830Y0114066D01*
X0131054Y0115290D01*
X0132654Y0115953D01*
X0134385Y0115953D01*
X0136137Y0118062D02*
X0339620Y0118062D01*
X0339620Y0119260D02*
X0137262Y0119260D01*
X0137758Y0120459D02*
X0339620Y0120459D01*
X0339620Y0121657D02*
X0137872Y0121657D01*
X0137711Y0122856D02*
X0339620Y0122856D01*
X0339620Y0124054D02*
X0137215Y0124054D01*
X0136023Y0125253D02*
X0339620Y0125253D01*
X0339620Y0114466D02*
X0136809Y0114466D01*
X0137540Y0113268D02*
X0339620Y0113268D01*
X0339620Y0112069D02*
X0137872Y0112069D01*
X0137872Y0110870D02*
X0339620Y0110870D01*
X0339620Y0109672D02*
X0137432Y0109672D01*
X0136549Y0108473D02*
X0339620Y0108473D01*
X0339620Y0107275D02*
X0134452Y0107275D01*
X0134385Y0105953D02*
X0132654Y0105953D01*
X0131054Y0105290D01*
X0129830Y0104066D01*
X0129167Y0102466D01*
X0129167Y0100734D01*
X0129830Y0099134D01*
X0131054Y0097910D01*
X0132654Y0097247D01*
X0134385Y0097247D01*
X0135985Y0097910D01*
X0137210Y0099134D01*
X0137872Y0100734D01*
X0137872Y0102466D01*
X0137210Y0104066D01*
X0135985Y0105290D01*
X0134385Y0105953D01*
X0132587Y0107275D02*
X0080520Y0107275D01*
X0080520Y0108473D02*
X0130490Y0108473D01*
X0129607Y0109672D02*
X0080520Y0109672D01*
X0080520Y0110870D02*
X0129167Y0110870D01*
X0129167Y0112069D02*
X0080520Y0112069D01*
X0080520Y0113268D02*
X0129499Y0113268D01*
X0130230Y0114466D02*
X0080520Y0114466D01*
X0076520Y0115039D02*
X0076520Y0118444D01*
X0075985Y0117910D01*
X0074385Y0117247D01*
X0072654Y0117247D01*
X0071054Y0117910D01*
X0070520Y0118444D01*
X0070520Y0115039D01*
X0070554Y0115073D01*
X0071134Y0115494D01*
X0071772Y0115819D01*
X0072454Y0116041D01*
X0073135Y0116149D01*
X0073135Y0111984D01*
X0073904Y0111984D01*
X0073904Y0116149D01*
X0074586Y0116041D01*
X0075267Y0115819D01*
X0075906Y0115494D01*
X0076486Y0115073D01*
X0076520Y0115039D01*
X0076520Y0115665D02*
X0075571Y0115665D01*
X0076520Y0116863D02*
X0070520Y0116863D01*
X0070520Y0115665D02*
X0071468Y0115665D01*
X0073135Y0115665D02*
X0073904Y0115665D01*
X0073904Y0114466D02*
X0073135Y0114466D01*
X0073135Y0113268D02*
X0073904Y0113268D01*
X0073904Y0112069D02*
X0073135Y0112069D01*
X0073135Y0111216D02*
X0073904Y0111216D01*
X0073904Y0107051D01*
X0074586Y0107159D01*
X0075267Y0107381D01*
X0075906Y0107706D01*
X0076486Y0108127D01*
X0076520Y0108161D01*
X0076520Y0104756D01*
X0075985Y0105290D01*
X0074385Y0105953D01*
X0072654Y0105953D01*
X0071054Y0105290D01*
X0070520Y0104756D01*
X0070520Y0108161D01*
X0070554Y0108127D01*
X0071134Y0107706D01*
X0071772Y0107381D01*
X0072454Y0107159D01*
X0073135Y0107051D01*
X0073135Y0111216D01*
X0073135Y0110870D02*
X0073904Y0110870D01*
X0073904Y0109672D02*
X0073135Y0109672D01*
X0073135Y0108473D02*
X0073904Y0108473D01*
X0073904Y0107275D02*
X0073135Y0107275D01*
X0072098Y0107275D02*
X0070520Y0107275D01*
X0070520Y0106076D02*
X0076520Y0106076D01*
X0076520Y0104878D02*
X0076397Y0104878D01*
X0076520Y0107275D02*
X0074942Y0107275D01*
X0070642Y0104878D02*
X0070520Y0104878D01*
X0061520Y0104878D02*
X0053316Y0104878D01*
X0053287Y0104967D02*
X0052866Y0105795D01*
X0052320Y0106546D01*
X0051663Y0107203D01*
X0050912Y0107748D01*
X0050084Y0108170D01*
X0049201Y0108457D01*
X0048284Y0108602D01*
X0043707Y0108602D01*
X0043707Y0102890D01*
X0053720Y0102890D01*
X0053720Y0103167D01*
X0053574Y0104084D01*
X0053287Y0104967D01*
X0052661Y0106076D02*
X0061520Y0106076D01*
X0061520Y0107275D02*
X0051564Y0107275D01*
X0049098Y0108473D02*
X0061520Y0108473D01*
X0061520Y0103679D02*
X0053638Y0103679D01*
X0053720Y0102481D02*
X0061520Y0102481D01*
X0061520Y0101282D02*
X0053562Y0101282D01*
X0053107Y0100084D02*
X0061520Y0100084D01*
X0061520Y0098885D02*
X0052339Y0098885D01*
X0050954Y0097687D02*
X0061520Y0097687D01*
X0043707Y0097687D02*
X0043332Y0097687D01*
X0043332Y0098885D02*
X0043707Y0098885D01*
X0043707Y0100084D02*
X0043332Y0100084D01*
X0043332Y0101282D02*
X0043707Y0101282D01*
X0043707Y0102481D02*
X0043332Y0102481D01*
X0043332Y0103679D02*
X0043707Y0103679D01*
X0043707Y0104878D02*
X0043332Y0104878D01*
X0043332Y0106076D02*
X0043707Y0106076D01*
X0043707Y0107275D02*
X0043332Y0107275D01*
X0043332Y0108473D02*
X0043707Y0108473D01*
X0025809Y0122856D02*
X0016120Y0122856D01*
X0016120Y0124054D02*
X0025809Y0124054D01*
X0025809Y0125253D02*
X0016120Y0125253D01*
X0016120Y0126451D02*
X0025822Y0126451D01*
X0026074Y0127650D02*
X0016120Y0127650D01*
X0016120Y0128848D02*
X0026589Y0128848D01*
X0027511Y0130047D02*
X0016120Y0130047D01*
X0016120Y0131245D02*
X0029203Y0131245D01*
X0037970Y0167201D02*
X0039070Y0167201D01*
X0039070Y0168399D02*
X0037970Y0168399D01*
X0037970Y0169598D02*
X0039070Y0169598D01*
X0039070Y0170796D02*
X0037970Y0170796D01*
X0037970Y0173193D02*
X0039070Y0173193D01*
X0039070Y0174392D02*
X0037970Y0174392D01*
X0037970Y0175590D02*
X0039070Y0175590D01*
X0039070Y0176789D02*
X0037970Y0176789D01*
X0036059Y0176789D02*
X0016120Y0176789D01*
X0016120Y0177987D02*
X0064304Y0177987D01*
X0064020Y0179186D02*
X0016120Y0179186D01*
X0016120Y0180384D02*
X0064020Y0180384D01*
X0064020Y0181583D02*
X0016120Y0181583D01*
X0016120Y0182781D02*
X0064020Y0182781D01*
X0064020Y0183980D02*
X0016120Y0183980D01*
X0016120Y0185178D02*
X0064020Y0185178D01*
X0064020Y0186377D02*
X0043434Y0186377D01*
X0043100Y0186043D02*
X0043920Y0186863D01*
X0043920Y0196022D01*
X0043100Y0196843D01*
X0033940Y0196843D01*
X0033120Y0196022D01*
X0033120Y0186863D01*
X0033940Y0186043D01*
X0043100Y0186043D01*
X0043920Y0187575D02*
X0064020Y0187575D01*
X0064020Y0188774D02*
X0043920Y0188774D01*
X0043920Y0189972D02*
X0064020Y0189972D01*
X0064020Y0191171D02*
X0043920Y0191171D01*
X0043920Y0192369D02*
X0064020Y0192369D01*
X0064020Y0193568D02*
X0043920Y0193568D01*
X0043920Y0194766D02*
X0064020Y0194766D01*
X0064020Y0195965D02*
X0043920Y0195965D01*
X0033120Y0195965D02*
X0016120Y0195965D01*
X0016120Y0197163D02*
X0064020Y0197163D01*
X0064020Y0198362D02*
X0016120Y0198362D01*
X0016120Y0199560D02*
X0064020Y0199560D01*
X0064020Y0200759D02*
X0016120Y0200759D01*
X0016120Y0201957D02*
X0064020Y0201957D01*
X0064020Y0203156D02*
X0016120Y0203156D01*
X0016120Y0204354D02*
X0064020Y0204354D01*
X0064020Y0205553D02*
X0016120Y0205553D01*
X0016120Y0206751D02*
X0064020Y0206751D01*
X0064020Y0207950D02*
X0016120Y0207950D01*
X0016120Y0194766D02*
X0033120Y0194766D01*
X0033120Y0193568D02*
X0016120Y0193568D01*
X0016120Y0192369D02*
X0033120Y0192369D01*
X0033120Y0191171D02*
X0016120Y0191171D01*
X0016120Y0189972D02*
X0033120Y0189972D01*
X0033120Y0188774D02*
X0016120Y0188774D01*
X0016120Y0187575D02*
X0033120Y0187575D01*
X0033606Y0186377D02*
X0016120Y0186377D01*
X0016120Y0175590D02*
X0034433Y0175590D01*
X0033577Y0174392D02*
X0016120Y0174392D01*
X0016120Y0173193D02*
X0033098Y0173193D01*
X0040981Y0176789D02*
X0065503Y0176789D01*
X0066701Y0175590D02*
X0042607Y0175590D01*
X0068520Y0176600D02*
X0076020Y0176600D01*
X0083520Y0169100D01*
X0083520Y0146600D01*
X0090520Y0146826D02*
X0125465Y0146826D01*
X0124267Y0148024D02*
X0090520Y0148024D01*
X0090520Y0149223D02*
X0123068Y0149223D01*
X0121870Y0150421D02*
X0090520Y0150421D01*
X0090520Y0151620D02*
X0120671Y0151620D01*
X0119473Y0152818D02*
X0090520Y0152818D01*
X0090520Y0154017D02*
X0118274Y0154017D01*
X0117076Y0155215D02*
X0090520Y0155215D01*
X0090520Y0156414D02*
X0115877Y0156414D01*
X0114679Y0157612D02*
X0090520Y0157612D01*
X0090520Y0158811D02*
X0113480Y0158811D01*
X0112282Y0160009D02*
X0090520Y0160009D01*
X0090520Y0161208D02*
X0111083Y0161208D01*
X0109885Y0162406D02*
X0090520Y0162406D01*
X0090520Y0163605D02*
X0108686Y0163605D01*
X0107488Y0164803D02*
X0090520Y0164803D01*
X0090520Y0166002D02*
X0106289Y0166002D01*
X0105091Y0167201D02*
X0090520Y0167201D01*
X0090520Y0168399D02*
X0103892Y0168399D01*
X0102694Y0169598D02*
X0090520Y0169598D01*
X0090520Y0170796D02*
X0101495Y0170796D01*
X0100297Y0171995D02*
X0090520Y0171995D01*
X0090520Y0173193D02*
X0099098Y0173193D01*
X0097900Y0174392D02*
X0090520Y0174392D01*
X0089858Y0175590D02*
X0096701Y0175590D01*
X0095503Y0176789D02*
X0088659Y0176789D01*
X0087461Y0177987D02*
X0094304Y0177987D01*
X0093106Y0179186D02*
X0086262Y0179186D01*
X0085064Y0180384D02*
X0091907Y0180384D01*
X0090709Y0181583D02*
X0083865Y0181583D01*
X0082667Y0182781D02*
X0089510Y0182781D01*
X0088312Y0183980D02*
X0081468Y0183980D01*
X0080270Y0185178D02*
X0087113Y0185178D01*
X0085915Y0186377D02*
X0079071Y0186377D01*
X0077873Y0187575D02*
X0084716Y0187575D01*
X0083518Y0188774D02*
X0076849Y0188774D01*
X0077557Y0189972D02*
X0082319Y0189972D01*
X0081121Y0191171D02*
X0077872Y0191171D01*
X0077872Y0192369D02*
X0079922Y0192369D01*
X0078723Y0193568D02*
X0077416Y0193568D01*
X0077525Y0194766D02*
X0076509Y0194766D01*
X0076520Y0195965D02*
X0070520Y0195965D01*
X0070520Y0197163D02*
X0076520Y0197163D01*
X0076520Y0198362D02*
X0076437Y0198362D01*
X0078520Y0196600D02*
X0133520Y0141600D01*
X0130528Y0138436D02*
X0087470Y0138436D01*
X0086883Y0139635D02*
X0129622Y0139635D01*
X0129167Y0140833D02*
X0088081Y0140833D01*
X0089280Y0142032D02*
X0129167Y0142032D01*
X0129061Y0143230D02*
X0090478Y0143230D01*
X0090520Y0144429D02*
X0127862Y0144429D01*
X0126664Y0145627D02*
X0090520Y0145627D01*
X0078520Y0136600D02*
X0078520Y0041600D01*
X0083520Y0036600D01*
X0273520Y0036600D01*
X0283520Y0026600D01*
X0288202Y0024578D02*
X0288837Y0024578D01*
X0289528Y0023379D02*
X0287511Y0023379D01*
X0286177Y0022181D02*
X0290862Y0022181D01*
X0296177Y0022181D02*
X0300585Y0022181D01*
X0299309Y0023379D02*
X0297511Y0023379D01*
X0298202Y0024578D02*
X0298604Y0024578D01*
X0298458Y0028173D02*
X0298388Y0028173D01*
X0297892Y0029372D02*
X0298984Y0029372D01*
X0299995Y0030570D02*
X0296762Y0030570D01*
X0290277Y0030570D02*
X0286762Y0030570D01*
X0287892Y0029372D02*
X0289148Y0029372D01*
X0288651Y0028173D02*
X0288388Y0028173D01*
X0281179Y0031769D02*
X0302276Y0031769D01*
X0303120Y0031769D02*
X0303920Y0031769D01*
X0304763Y0031769D02*
X0339620Y0031769D01*
X0339620Y0032967D02*
X0279981Y0032967D01*
X0278782Y0034166D02*
X0339620Y0034166D01*
X0339620Y0035364D02*
X0277584Y0035364D01*
X0276385Y0036563D02*
X0339620Y0036563D01*
X0339620Y0037761D02*
X0275187Y0037761D01*
X0273125Y0034166D02*
X0198782Y0034166D01*
X0199981Y0032967D02*
X0274324Y0032967D01*
X0275523Y0031769D02*
X0224763Y0031769D01*
X0223920Y0031769D02*
X0223120Y0031769D01*
X0222276Y0031769D02*
X0201179Y0031769D01*
X0197920Y0029372D02*
X0157892Y0029372D01*
X0158388Y0028173D02*
X0198651Y0028173D01*
X0198420Y0026975D02*
X0158620Y0026975D01*
X0158620Y0025776D02*
X0198420Y0025776D01*
X0198837Y0024578D02*
X0158202Y0024578D01*
X0157511Y0023379D02*
X0199528Y0023379D01*
X0200862Y0022181D02*
X0156177Y0022181D01*
X0150862Y0022181D02*
X0146454Y0022181D01*
X0147731Y0023379D02*
X0149528Y0023379D01*
X0148837Y0024578D02*
X0148435Y0024578D01*
X0148581Y0028173D02*
X0148651Y0028173D01*
X0149148Y0029372D02*
X0148056Y0029372D01*
X0147045Y0030570D02*
X0150277Y0030570D01*
X0156762Y0030570D02*
X0196721Y0030570D01*
X0196420Y0033700D02*
X0081420Y0033700D01*
X0068520Y0046600D01*
X0068520Y0146600D01*
X0073520Y0151600D01*
X0073520Y0141600D02*
X0078520Y0136600D01*
X0080520Y0132444D02*
X0082180Y0132444D01*
X0080520Y0128848D02*
X0129891Y0128848D01*
X0131244Y0127650D02*
X0080520Y0127650D01*
X0076520Y0118062D02*
X0076137Y0118062D01*
X0070902Y0118062D02*
X0070520Y0118062D01*
X0080520Y0106076D02*
X0339620Y0106076D01*
X0339620Y0104878D02*
X0136397Y0104878D01*
X0137370Y0103679D02*
X0339620Y0103679D01*
X0339620Y0102481D02*
X0137866Y0102481D01*
X0137872Y0101282D02*
X0339620Y0101282D01*
X0339620Y0100084D02*
X0137603Y0100084D01*
X0136961Y0098885D02*
X0339620Y0098885D01*
X0339620Y0097687D02*
X0135447Y0097687D01*
X0131593Y0097687D02*
X0080520Y0097687D01*
X0080520Y0098885D02*
X0130079Y0098885D01*
X0129436Y0100084D02*
X0080520Y0100084D01*
X0080520Y0101282D02*
X0129167Y0101282D01*
X0129173Y0102481D02*
X0080520Y0102481D01*
X0080520Y0103679D02*
X0129670Y0103679D01*
X0130642Y0104878D02*
X0080520Y0104878D01*
X0080520Y0096488D02*
X0339620Y0096488D01*
X0339620Y0095290D02*
X0080520Y0095290D01*
X0080520Y0094091D02*
X0339620Y0094091D01*
X0339620Y0092893D02*
X0080520Y0092893D01*
X0080520Y0091694D02*
X0339620Y0091694D01*
X0339620Y0090496D02*
X0080520Y0090496D01*
X0080520Y0089297D02*
X0339620Y0089297D01*
X0339620Y0088099D02*
X0080520Y0088099D01*
X0080520Y0086900D02*
X0339620Y0086900D01*
X0339620Y0085702D02*
X0080520Y0085702D01*
X0080520Y0084503D02*
X0339620Y0084503D01*
X0339620Y0083305D02*
X0080520Y0083305D01*
X0080520Y0082106D02*
X0339620Y0082106D01*
X0339620Y0080908D02*
X0175943Y0080908D01*
X0177266Y0080645D02*
X0173520Y0081390D01*
X0173520Y0081390D01*
X0169773Y0080645D01*
X0166597Y0078522D01*
X0164475Y0075346D01*
X0163730Y0071600D01*
X0164475Y0067854D01*
X0164475Y0067854D01*
X0166597Y0064678D01*
X0166597Y0064678D01*
X0166597Y0064678D01*
X0169773Y0062555D01*
X0169773Y0062555D01*
X0173520Y0061810D01*
X0177266Y0062555D01*
X0180442Y0064678D01*
X0182564Y0067854D01*
X0183309Y0071600D01*
X0182564Y0075346D01*
X0182564Y0075346D01*
X0180442Y0078522D01*
X0180442Y0078522D01*
X0177266Y0080645D01*
X0177266Y0080645D01*
X0178666Y0079709D02*
X0339620Y0079709D01*
X0339620Y0078511D02*
X0180450Y0078511D01*
X0180442Y0078522D02*
X0180442Y0078522D01*
X0181251Y0077312D02*
X0339620Y0077312D01*
X0339620Y0076114D02*
X0182052Y0076114D01*
X0182650Y0074915D02*
X0339620Y0074915D01*
X0339620Y0073717D02*
X0182888Y0073717D01*
X0183127Y0072518D02*
X0339620Y0072518D01*
X0339620Y0071320D02*
X0183254Y0071320D01*
X0183015Y0070121D02*
X0339620Y0070121D01*
X0339620Y0068923D02*
X0182777Y0068923D01*
X0182564Y0067854D02*
X0182564Y0067854D01*
X0182478Y0067724D02*
X0339620Y0067724D01*
X0339620Y0066526D02*
X0181677Y0066526D01*
X0180876Y0065327D02*
X0339620Y0065327D01*
X0339620Y0064129D02*
X0179620Y0064129D01*
X0180442Y0064678D02*
X0180442Y0064678D01*
X0177827Y0062930D02*
X0339620Y0062930D01*
X0339620Y0061732D02*
X0080520Y0061732D01*
X0080520Y0062930D02*
X0169213Y0062930D01*
X0167419Y0064129D02*
X0080520Y0064129D01*
X0080520Y0065327D02*
X0166163Y0065327D01*
X0165362Y0066526D02*
X0080520Y0066526D01*
X0080520Y0067724D02*
X0164562Y0067724D01*
X0164262Y0068923D02*
X0080520Y0068923D01*
X0080520Y0070121D02*
X0164024Y0070121D01*
X0163786Y0071320D02*
X0080520Y0071320D01*
X0080520Y0072518D02*
X0163913Y0072518D01*
X0163730Y0071600D02*
X0163730Y0071600D01*
X0164151Y0073717D02*
X0080520Y0073717D01*
X0080520Y0074915D02*
X0164389Y0074915D01*
X0164475Y0075346D02*
X0164475Y0075346D01*
X0164988Y0076114D02*
X0080520Y0076114D01*
X0080520Y0077312D02*
X0165789Y0077312D01*
X0166589Y0078511D02*
X0080520Y0078511D01*
X0080520Y0079709D02*
X0168373Y0079709D01*
X0169773Y0080645D02*
X0169773Y0080645D01*
X0171096Y0080908D02*
X0080520Y0080908D01*
X0061520Y0079709D02*
X0047764Y0079709D01*
X0048357Y0078511D02*
X0061520Y0078511D01*
X0061520Y0077312D02*
X0048720Y0077312D01*
X0048720Y0076114D02*
X0061520Y0076114D01*
X0061520Y0074915D02*
X0048450Y0074915D01*
X0047954Y0073717D02*
X0061520Y0073717D01*
X0061520Y0072518D02*
X0046792Y0072518D01*
X0045714Y0071320D02*
X0061520Y0071320D01*
X0061520Y0070121D02*
X0047352Y0070121D01*
X0048186Y0068923D02*
X0061520Y0068923D01*
X0061520Y0067724D02*
X0048683Y0067724D01*
X0048720Y0066526D02*
X0061520Y0066526D01*
X0061520Y0065327D02*
X0048621Y0065327D01*
X0048124Y0064129D02*
X0061520Y0064129D01*
X0061520Y0062930D02*
X0047204Y0062930D01*
X0045354Y0061732D02*
X0061520Y0061732D01*
X0061520Y0060533D02*
X0047223Y0060533D01*
X0048187Y0059334D02*
X0061520Y0059334D01*
X0061520Y0058136D02*
X0048699Y0058136D01*
X0048920Y0056937D02*
X0061520Y0056937D01*
X0061520Y0055739D02*
X0048851Y0055739D01*
X0048528Y0054540D02*
X0061520Y0054540D01*
X0061520Y0053342D02*
X0047827Y0053342D01*
X0046573Y0052143D02*
X0061520Y0052143D01*
X0061520Y0050945D02*
X0046529Y0050945D01*
X0047727Y0049746D02*
X0061520Y0049746D01*
X0061520Y0048548D02*
X0048341Y0048548D01*
X0048720Y0047349D02*
X0061441Y0047349D01*
X0060242Y0046151D02*
X0048720Y0046151D01*
X0048466Y0044952D02*
X0059044Y0044952D01*
X0057845Y0043754D02*
X0047969Y0043754D01*
X0046829Y0042555D02*
X0056647Y0042555D01*
X0055448Y0041357D02*
X0016120Y0041357D01*
X0016120Y0042555D02*
X0040210Y0042555D01*
X0039070Y0043754D02*
X0016120Y0043754D01*
X0016120Y0044952D02*
X0038574Y0044952D01*
X0038320Y0046151D02*
X0016120Y0046151D01*
X0016120Y0047349D02*
X0038320Y0047349D01*
X0050654Y0036563D02*
X0016120Y0036563D01*
X0016120Y0037761D02*
X0051853Y0037761D01*
X0053051Y0038960D02*
X0016120Y0038960D01*
X0016120Y0040158D02*
X0054250Y0040158D01*
X0049456Y0035364D02*
X0016120Y0035364D01*
X0016120Y0034166D02*
X0048257Y0034166D01*
X0047059Y0032967D02*
X0016120Y0032967D01*
X0016120Y0031769D02*
X0045860Y0031769D01*
X0051517Y0031769D02*
X0062276Y0031769D01*
X0063120Y0031769D02*
X0063920Y0031769D01*
X0064763Y0031769D02*
X0077694Y0031769D01*
X0076762Y0030570D02*
X0078893Y0030570D01*
X0077892Y0029372D02*
X0117920Y0029372D01*
X0118651Y0028173D02*
X0078388Y0028173D01*
X0078620Y0026975D02*
X0118420Y0026975D01*
X0118420Y0025776D02*
X0078620Y0025776D01*
X0078202Y0024578D02*
X0118837Y0024578D01*
X0119528Y0023379D02*
X0077511Y0023379D01*
X0076177Y0022181D02*
X0120862Y0022181D01*
X0126177Y0022181D02*
X0130862Y0022181D01*
X0129528Y0023379D02*
X0127511Y0023379D01*
X0128202Y0024578D02*
X0128837Y0024578D01*
X0123520Y0026600D02*
X0118420Y0031700D01*
X0080591Y0031700D01*
X0066520Y0045772D01*
X0080520Y0046151D02*
X0339620Y0046151D01*
X0339620Y0047349D02*
X0080520Y0047349D01*
X0080520Y0048548D02*
X0339620Y0048548D01*
X0339620Y0049746D02*
X0080520Y0049746D01*
X0080520Y0050945D02*
X0339620Y0050945D01*
X0339620Y0052143D02*
X0080520Y0052143D01*
X0080520Y0053342D02*
X0339620Y0053342D01*
X0339620Y0054540D02*
X0080520Y0054540D01*
X0080520Y0055739D02*
X0339620Y0055739D01*
X0339620Y0056937D02*
X0080520Y0056937D01*
X0080520Y0058136D02*
X0339620Y0058136D01*
X0339620Y0059334D02*
X0080520Y0059334D01*
X0080520Y0060533D02*
X0339620Y0060533D01*
X0339620Y0044952D02*
X0080520Y0044952D01*
X0080520Y0043754D02*
X0339620Y0043754D01*
X0339620Y0042555D02*
X0080520Y0042555D01*
X0081591Y0041357D02*
X0339620Y0041357D01*
X0339620Y0040158D02*
X0082790Y0040158D01*
X0083988Y0038960D02*
X0339620Y0038960D01*
X0339620Y0030570D02*
X0316762Y0030570D01*
X0317892Y0029372D02*
X0339620Y0029372D01*
X0339620Y0028173D02*
X0318388Y0028173D01*
X0318620Y0026975D02*
X0339620Y0026975D01*
X0339620Y0025776D02*
X0318620Y0025776D01*
X0318202Y0024578D02*
X0339620Y0024578D01*
X0339620Y0023379D02*
X0317511Y0023379D01*
X0316177Y0022181D02*
X0339620Y0022181D01*
X0339620Y0020982D02*
X0016120Y0020982D01*
X0016120Y0019784D02*
X0339620Y0019784D01*
X0339620Y0018585D02*
X0335773Y0018585D01*
X0337703Y0017471D02*
X0337703Y0017471D01*
X0337765Y0017387D02*
X0339620Y0017387D01*
X0339620Y0016188D02*
X0338635Y0016188D01*
X0339506Y0014990D02*
X0339620Y0014990D01*
X0331592Y0019457D02*
X0331592Y0019457D01*
X0328909Y0018585D02*
X0026876Y0018585D01*
X0028867Y0017387D02*
X0327296Y0017387D01*
X0326001Y0016188D02*
X0029738Y0016188D01*
X0030609Y0014990D02*
X0325468Y0014990D01*
X0324934Y0013791D02*
X0030954Y0013791D01*
X0031209Y0012593D02*
X0324690Y0012593D01*
X0324690Y0011394D02*
X0031376Y0011394D01*
X0031121Y0010196D02*
X0324690Y0010196D01*
X0325118Y0008997D02*
X0030866Y0008997D01*
X0030737Y0008387D02*
X0030737Y0008387D01*
X0030309Y0007799D02*
X0325651Y0007799D01*
X0326422Y0006600D02*
X0029438Y0006600D01*
X0028238Y0005401D02*
X0327753Y0005401D01*
X0328467Y0004758D02*
X0328467Y0004758D01*
X0330177Y0004203D02*
X0026162Y0004203D01*
X0016570Y0014990D02*
X0016120Y0014990D01*
X0016120Y0016188D02*
X0017104Y0016188D01*
X0017128Y0016243D02*
X0017128Y0016243D01*
X0016120Y0017387D02*
X0018398Y0017387D01*
X0019570Y0018442D02*
X0019570Y0018442D01*
X0020011Y0018585D02*
X0016120Y0018585D01*
X0016120Y0022181D02*
X0040862Y0022181D01*
X0039528Y0023379D02*
X0016120Y0023379D01*
X0016120Y0024578D02*
X0038837Y0024578D01*
X0038420Y0025776D02*
X0016120Y0025776D01*
X0016120Y0026975D02*
X0038420Y0026975D01*
X0038651Y0028173D02*
X0016120Y0028173D01*
X0016120Y0029372D02*
X0039148Y0029372D01*
X0040277Y0030570D02*
X0016120Y0030570D01*
X0022694Y0019457D02*
X0022694Y0019457D01*
X0052715Y0032967D02*
X0076496Y0032967D01*
X0070277Y0030570D02*
X0067045Y0030570D01*
X0068056Y0029372D02*
X0069148Y0029372D01*
X0068651Y0028173D02*
X0068581Y0028173D01*
X0068435Y0024578D02*
X0068837Y0024578D01*
X0069528Y0023379D02*
X0067731Y0023379D01*
X0066454Y0022181D02*
X0070862Y0022181D01*
X0063920Y0022181D02*
X0063120Y0022181D01*
X0063120Y0023379D02*
X0063920Y0023379D01*
X0063920Y0024578D02*
X0063120Y0024578D01*
X0063120Y0025776D02*
X0063920Y0025776D01*
X0063920Y0028173D02*
X0063120Y0028173D01*
X0063120Y0029372D02*
X0063920Y0029372D01*
X0063920Y0030570D02*
X0063120Y0030570D01*
X0136177Y0022181D02*
X0140585Y0022181D01*
X0139309Y0023379D02*
X0137511Y0023379D01*
X0138202Y0024578D02*
X0138604Y0024578D01*
X0143120Y0024578D02*
X0143920Y0024578D01*
X0143920Y0025776D02*
X0143120Y0025776D01*
X0143120Y0023379D02*
X0143920Y0023379D01*
X0143920Y0022181D02*
X0143120Y0022181D01*
X0173520Y0061810D02*
X0173520Y0061810D01*
X0177266Y0062555D02*
X0177266Y0062555D01*
X0166597Y0078522D02*
X0166597Y0078522D01*
X0166597Y0078522D01*
X0196420Y0033700D02*
X0203520Y0026600D01*
X0206762Y0030570D02*
X0210277Y0030570D01*
X0209148Y0029372D02*
X0207892Y0029372D01*
X0208388Y0028173D02*
X0208651Y0028173D01*
X0208837Y0024578D02*
X0208202Y0024578D01*
X0207511Y0023379D02*
X0209528Y0023379D01*
X0210862Y0022181D02*
X0206177Y0022181D01*
X0216177Y0022181D02*
X0220585Y0022181D01*
X0219309Y0023379D02*
X0217511Y0023379D01*
X0218202Y0024578D02*
X0218604Y0024578D01*
X0218458Y0028173D02*
X0218388Y0028173D01*
X0217892Y0029372D02*
X0218984Y0029372D01*
X0219995Y0030570D02*
X0216762Y0030570D01*
X0223120Y0030570D02*
X0223920Y0030570D01*
X0223920Y0029372D02*
X0223120Y0029372D01*
X0223120Y0028173D02*
X0223920Y0028173D01*
X0223920Y0025776D02*
X0223120Y0025776D01*
X0223120Y0024578D02*
X0223920Y0024578D01*
X0223920Y0023379D02*
X0223120Y0023379D01*
X0223120Y0022181D02*
X0223920Y0022181D01*
X0226454Y0022181D02*
X0230862Y0022181D01*
X0229528Y0023379D02*
X0227731Y0023379D01*
X0228435Y0024578D02*
X0228837Y0024578D01*
X0228651Y0028173D02*
X0228581Y0028173D01*
X0228056Y0029372D02*
X0229148Y0029372D01*
X0230277Y0030570D02*
X0227045Y0030570D01*
X0236762Y0030570D02*
X0276721Y0030570D01*
X0277920Y0029372D02*
X0237892Y0029372D01*
X0238388Y0028173D02*
X0278651Y0028173D01*
X0278420Y0026975D02*
X0238620Y0026975D01*
X0238620Y0025776D02*
X0278420Y0025776D01*
X0278837Y0024578D02*
X0238202Y0024578D01*
X0237511Y0023379D02*
X0279528Y0023379D01*
X0280862Y0022181D02*
X0236177Y0022181D01*
X0303120Y0022181D02*
X0303920Y0022181D01*
X0303920Y0023379D02*
X0303120Y0023379D01*
X0303120Y0024578D02*
X0303920Y0024578D01*
X0303920Y0025776D02*
X0303120Y0025776D01*
X0303120Y0028173D02*
X0303920Y0028173D01*
X0303920Y0029372D02*
X0303120Y0029372D01*
X0303120Y0030570D02*
X0303920Y0030570D01*
X0307045Y0030570D02*
X0310277Y0030570D01*
X0309148Y0029372D02*
X0308056Y0029372D01*
X0308581Y0028173D02*
X0308651Y0028173D01*
X0308837Y0024578D02*
X0308435Y0024578D01*
X0307731Y0023379D02*
X0309528Y0023379D01*
X0310862Y0022181D02*
X0306454Y0022181D01*
X0312161Y0148319D02*
X0308880Y0151600D01*
X0133520Y0151600D01*
X0137246Y0149223D02*
X0308428Y0149223D01*
X0312161Y0148319D02*
X0314879Y0148319D01*
X0318160Y0151600D01*
X0318520Y0151600D01*
X0311438Y0154017D02*
X0137230Y0154017D01*
X0136060Y0155215D02*
X0310650Y0155215D01*
X0310581Y0152818D02*
X0310490Y0152818D01*
X0310191Y0166002D02*
X0111946Y0166002D01*
X0110748Y0167201D02*
X0310192Y0167201D01*
X0310139Y0166600D02*
X0313520Y0166600D01*
X0316901Y0166600D01*
X0318520Y0166600D01*
X0313520Y0166600D01*
X0313520Y0166600D01*
X0310139Y0166600D01*
X0313520Y0166600D02*
X0313520Y0166600D01*
X0318520Y0166600D02*
X0318520Y0166600D01*
X0318520Y0171600D02*
X0328520Y0181600D01*
X0328520Y0256600D01*
X0323520Y0261600D01*
X0318520Y0261600D01*
X0321160Y0264280D02*
X0339620Y0264280D01*
X0339620Y0265478D02*
X0285227Y0265478D01*
X0286425Y0266677D02*
X0339620Y0266677D01*
X0339620Y0267875D02*
X0287624Y0267875D01*
X0288822Y0269074D02*
X0339620Y0269074D01*
X0339620Y0270272D02*
X0290021Y0270272D01*
X0291219Y0271471D02*
X0339620Y0271471D01*
X0339620Y0272670D02*
X0292418Y0272670D01*
X0293616Y0273868D02*
X0339620Y0273868D01*
X0339620Y0275067D02*
X0294815Y0275067D01*
X0296013Y0276265D02*
X0339620Y0276265D01*
X0339620Y0277464D02*
X0297212Y0277464D01*
X0298410Y0278662D02*
X0339620Y0278662D01*
X0339620Y0279861D02*
X0299609Y0279861D01*
X0300807Y0281059D02*
X0339620Y0281059D01*
X0339620Y0282258D02*
X0302006Y0282258D01*
X0303204Y0283456D02*
X0339620Y0283456D01*
X0339620Y0284655D02*
X0304403Y0284655D01*
X0305601Y0285853D02*
X0339620Y0285853D01*
X0339620Y0287052D02*
X0306800Y0287052D01*
X0307998Y0288250D02*
X0339620Y0288250D01*
X0339620Y0289449D02*
X0309197Y0289449D01*
X0310395Y0290647D02*
X0339620Y0290647D01*
X0339620Y0291846D02*
X0315369Y0291846D01*
X0317176Y0293044D02*
X0339620Y0293044D01*
X0339620Y0294243D02*
X0318063Y0294243D01*
X0318560Y0295441D02*
X0339620Y0295441D01*
X0339620Y0296640D02*
X0318620Y0296640D01*
X0318527Y0297838D02*
X0339620Y0297838D01*
X0339620Y0299037D02*
X0318031Y0299037D01*
X0317097Y0300235D02*
X0339620Y0300235D01*
X0339620Y0301434D02*
X0315177Y0301434D01*
X0311863Y0301434D02*
X0305177Y0301434D01*
X0307097Y0300235D02*
X0309942Y0300235D01*
X0309009Y0299037D02*
X0308031Y0299037D01*
X0313520Y0296600D02*
X0223520Y0206600D01*
X0091520Y0206600D01*
X0086520Y0211600D01*
X0083520Y0211600D01*
X0086134Y0215141D02*
X0090905Y0215141D01*
X0089779Y0213942D02*
X0087261Y0213942D01*
X0088204Y0212744D02*
X0089282Y0212744D01*
X0087341Y0207950D02*
X0086025Y0207950D01*
X0088540Y0206751D02*
X0080520Y0206751D01*
X0080520Y0205553D02*
X0089738Y0205553D01*
X0093520Y0211600D02*
X0096520Y0211600D01*
X0175520Y0290600D01*
X0227520Y0290600D01*
X0233520Y0296600D01*
X0237097Y0300235D02*
X0279942Y0300235D01*
X0279009Y0299037D02*
X0238031Y0299037D01*
X0238527Y0297838D02*
X0278512Y0297838D01*
X0278420Y0296640D02*
X0238620Y0296640D01*
X0238560Y0295441D02*
X0278479Y0295441D01*
X0278976Y0294243D02*
X0238063Y0294243D01*
X0237176Y0293044D02*
X0279863Y0293044D01*
X0281671Y0291846D02*
X0235369Y0291846D01*
X0231671Y0291846D02*
X0231594Y0291846D01*
X0230395Y0290647D02*
X0304738Y0290647D01*
X0305369Y0291846D02*
X0305937Y0291846D01*
X0303540Y0289449D02*
X0229197Y0289449D01*
X0229009Y0299037D02*
X0228031Y0299037D01*
X0227097Y0300235D02*
X0229942Y0300235D01*
X0231863Y0301434D02*
X0225177Y0301434D01*
X0221863Y0301434D02*
X0215707Y0301434D01*
X0213920Y0301434D02*
X0213120Y0301434D01*
X0213120Y0300235D02*
X0213920Y0300235D01*
X0213920Y0299037D02*
X0213120Y0299037D01*
X0213120Y0297838D02*
X0213920Y0297838D01*
X0217380Y0300235D02*
X0219942Y0300235D01*
X0219009Y0299037D02*
X0218226Y0299037D01*
X0211332Y0301434D02*
X0205177Y0301434D01*
X0207097Y0300235D02*
X0209660Y0300235D01*
X0208813Y0299037D02*
X0208031Y0299037D01*
X0201863Y0301434D02*
X0155177Y0301434D01*
X0157097Y0300235D02*
X0199942Y0300235D01*
X0199009Y0299037D02*
X0158031Y0299037D01*
X0158527Y0297838D02*
X0198512Y0297838D01*
X0175998Y0288250D02*
X0302341Y0288250D01*
X0301143Y0287052D02*
X0174800Y0287052D01*
X0173601Y0285853D02*
X0299944Y0285853D01*
X0298746Y0284655D02*
X0172403Y0284655D01*
X0171204Y0283456D02*
X0297547Y0283456D01*
X0296349Y0282258D02*
X0170006Y0282258D01*
X0168807Y0281059D02*
X0295150Y0281059D01*
X0293952Y0279861D02*
X0167609Y0279861D01*
X0166410Y0278662D02*
X0292753Y0278662D01*
X0291555Y0277464D02*
X0165212Y0277464D01*
X0164013Y0276265D02*
X0172893Y0276265D01*
X0173520Y0276390D02*
X0169773Y0275645D01*
X0166597Y0273522D01*
X0164475Y0270346D01*
X0163730Y0266600D01*
X0164475Y0262854D01*
X0164475Y0262854D01*
X0166597Y0259678D01*
X0166597Y0259678D01*
X0166597Y0259678D01*
X0169773Y0257555D01*
X0169773Y0257555D01*
X0173520Y0256810D01*
X0177266Y0257555D01*
X0180442Y0259678D01*
X0182564Y0262854D01*
X0183309Y0266600D01*
X0182564Y0270346D01*
X0180442Y0273522D01*
X0177266Y0275645D01*
X0173520Y0276390D01*
X0173520Y0276390D01*
X0174147Y0276265D02*
X0290356Y0276265D01*
X0289158Y0275067D02*
X0178131Y0275067D01*
X0177266Y0275645D02*
X0177266Y0275645D01*
X0179925Y0273868D02*
X0287959Y0273868D01*
X0286761Y0272670D02*
X0181012Y0272670D01*
X0180442Y0273522D02*
X0180442Y0273522D01*
X0181813Y0271471D02*
X0285562Y0271471D01*
X0284364Y0270272D02*
X0182579Y0270272D01*
X0182817Y0269074D02*
X0283165Y0269074D01*
X0281967Y0267875D02*
X0183056Y0267875D01*
X0183294Y0266677D02*
X0280768Y0266677D01*
X0279570Y0265478D02*
X0183086Y0265478D01*
X0183309Y0266600D02*
X0183309Y0266600D01*
X0182848Y0264280D02*
X0198257Y0264280D01*
X0198257Y0264542D02*
X0199078Y0265362D01*
X0204962Y0265362D01*
X0205782Y0264542D01*
X0205782Y0258658D01*
X0204962Y0257838D01*
X0199078Y0257838D01*
X0198257Y0258658D01*
X0198257Y0264542D01*
X0198257Y0263081D02*
X0182610Y0263081D01*
X0182564Y0262854D02*
X0182564Y0262854D01*
X0181916Y0261883D02*
X0198257Y0261883D01*
X0198257Y0260684D02*
X0181115Y0260684D01*
X0180442Y0259678D02*
X0180442Y0259678D01*
X0180442Y0259678D01*
X0180155Y0259486D02*
X0198257Y0259486D01*
X0198628Y0258287D02*
X0178361Y0258287D01*
X0177266Y0257555D02*
X0177266Y0257555D01*
X0174920Y0257089D02*
X0271180Y0257089D01*
X0269982Y0255890D02*
X0143638Y0255890D01*
X0142440Y0254692D02*
X0199791Y0254692D01*
X0199889Y0254789D02*
X0198830Y0253731D01*
X0198257Y0252348D01*
X0198257Y0250852D01*
X0198830Y0249469D01*
X0199889Y0248411D01*
X0201271Y0247838D01*
X0202768Y0247838D01*
X0204151Y0248411D01*
X0205209Y0249469D01*
X0205782Y0250852D01*
X0205782Y0252348D01*
X0205209Y0253731D01*
X0204151Y0254789D01*
X0202768Y0255362D01*
X0201271Y0255362D01*
X0199889Y0254789D01*
X0198732Y0253493D02*
X0141241Y0253493D01*
X0140043Y0252295D02*
X0198257Y0252295D01*
X0198257Y0251096D02*
X0138844Y0251096D01*
X0137646Y0249898D02*
X0198653Y0249898D01*
X0199600Y0248699D02*
X0136447Y0248699D01*
X0135249Y0247501D02*
X0261592Y0247501D01*
X0262791Y0248699D02*
X0204440Y0248699D01*
X0205387Y0249898D02*
X0263989Y0249898D01*
X0265188Y0251096D02*
X0205782Y0251096D01*
X0205782Y0252295D02*
X0266386Y0252295D01*
X0267585Y0253493D02*
X0205308Y0253493D01*
X0204248Y0254692D02*
X0268783Y0254692D01*
X0272043Y0252295D02*
X0314618Y0252295D01*
X0314557Y0251990D02*
X0314710Y0252756D01*
X0315008Y0253477D01*
X0315442Y0254126D01*
X0315994Y0254678D01*
X0316643Y0255111D01*
X0317364Y0255410D01*
X0318129Y0255562D01*
X0318332Y0255562D01*
X0318332Y0251787D01*
X0318332Y0251413D01*
X0314557Y0251413D01*
X0314557Y0251210D01*
X0314710Y0250444D01*
X0315008Y0249723D01*
X0315442Y0249074D01*
X0315994Y0248522D01*
X0316643Y0248089D01*
X0317364Y0247790D01*
X0318129Y0247638D01*
X0318332Y0247638D01*
X0318332Y0251413D01*
X0318707Y0251413D01*
X0318707Y0251787D01*
X0322482Y0251787D01*
X0322482Y0251990D01*
X0322330Y0252756D01*
X0322031Y0253477D01*
X0321597Y0254126D01*
X0321045Y0254678D01*
X0320396Y0255111D01*
X0319675Y0255410D01*
X0318910Y0255562D01*
X0318707Y0255562D01*
X0318707Y0251787D01*
X0318332Y0251787D01*
X0314557Y0251787D01*
X0314557Y0251990D01*
X0314580Y0251096D02*
X0270844Y0251096D01*
X0269646Y0249898D02*
X0314936Y0249898D01*
X0315817Y0248699D02*
X0268447Y0248699D01*
X0267249Y0247501D02*
X0326520Y0247501D01*
X0326520Y0248699D02*
X0321222Y0248699D01*
X0321045Y0248522D02*
X0321597Y0249074D01*
X0322031Y0249723D01*
X0322330Y0250444D01*
X0322482Y0251210D01*
X0322482Y0251413D01*
X0318707Y0251413D01*
X0318707Y0247638D01*
X0318910Y0247638D01*
X0319675Y0247790D01*
X0320396Y0248089D01*
X0321045Y0248522D01*
X0322103Y0249898D02*
X0326520Y0249898D01*
X0326520Y0251096D02*
X0322459Y0251096D01*
X0322421Y0252295D02*
X0326520Y0252295D01*
X0326520Y0253493D02*
X0322020Y0253493D01*
X0321024Y0254692D02*
X0326520Y0254692D01*
X0326401Y0255890D02*
X0275638Y0255890D01*
X0274440Y0254692D02*
X0316015Y0254692D01*
X0315019Y0253493D02*
X0273241Y0253493D01*
X0272379Y0258287D02*
X0205411Y0258287D01*
X0205782Y0259486D02*
X0273577Y0259486D01*
X0274776Y0260684D02*
X0205782Y0260684D01*
X0205782Y0261883D02*
X0275974Y0261883D01*
X0277173Y0263081D02*
X0205782Y0263081D01*
X0205782Y0264280D02*
X0278371Y0264280D01*
X0281631Y0261883D02*
X0314757Y0261883D01*
X0314827Y0260684D02*
X0280432Y0260684D01*
X0279234Y0259486D02*
X0315323Y0259486D01*
X0316686Y0258287D02*
X0278035Y0258287D01*
X0276837Y0257089D02*
X0325202Y0257089D01*
X0324004Y0258287D02*
X0320353Y0258287D01*
X0321716Y0259486D02*
X0322805Y0259486D01*
X0326065Y0261883D02*
X0339620Y0261883D01*
X0339620Y0263081D02*
X0324867Y0263081D01*
X0327264Y0260684D02*
X0339620Y0260684D01*
X0339620Y0259486D02*
X0328462Y0259486D01*
X0329661Y0258287D02*
X0339620Y0258287D01*
X0339620Y0257089D02*
X0330520Y0257089D01*
X0330520Y0255890D02*
X0339620Y0255890D01*
X0339620Y0254692D02*
X0330520Y0254692D01*
X0330520Y0253493D02*
X0339620Y0253493D01*
X0339620Y0252295D02*
X0330520Y0252295D01*
X0330520Y0251096D02*
X0339620Y0251096D01*
X0339620Y0249898D02*
X0330520Y0249898D01*
X0330520Y0248699D02*
X0339620Y0248699D01*
X0339620Y0247501D02*
X0330520Y0247501D01*
X0330520Y0246302D02*
X0339620Y0246302D01*
X0339620Y0245104D02*
X0330520Y0245104D01*
X0330520Y0243905D02*
X0339620Y0243905D01*
X0339620Y0242707D02*
X0330520Y0242707D01*
X0330520Y0241508D02*
X0339620Y0241508D01*
X0339620Y0240310D02*
X0330520Y0240310D01*
X0330520Y0239111D02*
X0339620Y0239111D01*
X0339620Y0237913D02*
X0330520Y0237913D01*
X0330520Y0236714D02*
X0339620Y0236714D01*
X0339620Y0235516D02*
X0330520Y0235516D01*
X0330520Y0234317D02*
X0339620Y0234317D01*
X0339620Y0233119D02*
X0330520Y0233119D01*
X0330520Y0231920D02*
X0339620Y0231920D01*
X0339620Y0230722D02*
X0330520Y0230722D01*
X0330520Y0229523D02*
X0339620Y0229523D01*
X0339620Y0228325D02*
X0330520Y0228325D01*
X0330520Y0227126D02*
X0339620Y0227126D01*
X0339620Y0225928D02*
X0330520Y0225928D01*
X0330520Y0224729D02*
X0339620Y0224729D01*
X0339620Y0223531D02*
X0330520Y0223531D01*
X0330520Y0222332D02*
X0339620Y0222332D01*
X0339620Y0221134D02*
X0330520Y0221134D01*
X0330520Y0219935D02*
X0339620Y0219935D01*
X0339620Y0218737D02*
X0330520Y0218737D01*
X0330520Y0217538D02*
X0339620Y0217538D01*
X0339620Y0216339D02*
X0330520Y0216339D01*
X0330520Y0215141D02*
X0339620Y0215141D01*
X0339620Y0213942D02*
X0330520Y0213942D01*
X0330520Y0212744D02*
X0339620Y0212744D01*
X0339620Y0211545D02*
X0330520Y0211545D01*
X0330520Y0210347D02*
X0339620Y0210347D01*
X0339620Y0209148D02*
X0330520Y0209148D01*
X0330520Y0207950D02*
X0339620Y0207950D01*
X0339620Y0206751D02*
X0330520Y0206751D01*
X0330520Y0205553D02*
X0339620Y0205553D01*
X0339620Y0204354D02*
X0330520Y0204354D01*
X0330520Y0203156D02*
X0339620Y0203156D01*
X0339620Y0201957D02*
X0330520Y0201957D01*
X0330520Y0200759D02*
X0339620Y0200759D01*
X0339620Y0199560D02*
X0330520Y0199560D01*
X0330520Y0198362D02*
X0339620Y0198362D01*
X0339620Y0197163D02*
X0330520Y0197163D01*
X0330520Y0195965D02*
X0339620Y0195965D01*
X0339620Y0194766D02*
X0330520Y0194766D01*
X0330520Y0193568D02*
X0339620Y0193568D01*
X0339620Y0192369D02*
X0330520Y0192369D01*
X0330520Y0191171D02*
X0339620Y0191171D01*
X0339620Y0189972D02*
X0330520Y0189972D01*
X0330520Y0188774D02*
X0339620Y0188774D01*
X0339620Y0187575D02*
X0330520Y0187575D01*
X0330520Y0186377D02*
X0339620Y0186377D01*
X0339620Y0185178D02*
X0330520Y0185178D01*
X0330520Y0183980D02*
X0339620Y0183980D01*
X0339620Y0182781D02*
X0330520Y0182781D01*
X0330520Y0181583D02*
X0339620Y0181583D01*
X0339620Y0180384D02*
X0330132Y0180384D01*
X0328934Y0179186D02*
X0339620Y0179186D01*
X0339620Y0177987D02*
X0327735Y0177987D01*
X0326537Y0176789D02*
X0339620Y0176789D01*
X0326520Y0188774D02*
X0136849Y0188774D01*
X0137557Y0189972D02*
X0326520Y0189972D01*
X0326520Y0191171D02*
X0137872Y0191171D01*
X0137872Y0192369D02*
X0326520Y0192369D01*
X0326520Y0193568D02*
X0137416Y0193568D01*
X0136509Y0194766D02*
X0326520Y0194766D01*
X0326520Y0195965D02*
X0081983Y0195965D01*
X0080785Y0197163D02*
X0326520Y0197163D01*
X0326520Y0198362D02*
X0136437Y0198362D01*
X0137386Y0199560D02*
X0326520Y0199560D01*
X0326520Y0200759D02*
X0137872Y0200759D01*
X0137872Y0201957D02*
X0326520Y0201957D01*
X0326520Y0203156D02*
X0137587Y0203156D01*
X0136921Y0204354D02*
X0326520Y0204354D01*
X0326520Y0205553D02*
X0225301Y0205553D01*
X0226499Y0206751D02*
X0326520Y0206751D01*
X0326520Y0207950D02*
X0227698Y0207950D01*
X0228897Y0209148D02*
X0326520Y0209148D01*
X0326520Y0210347D02*
X0230095Y0210347D01*
X0231294Y0211545D02*
X0326520Y0211545D01*
X0326520Y0212744D02*
X0232492Y0212744D01*
X0233691Y0213942D02*
X0326520Y0213942D01*
X0326520Y0215141D02*
X0234889Y0215141D01*
X0236088Y0216339D02*
X0326520Y0216339D01*
X0326520Y0217538D02*
X0237286Y0217538D01*
X0238485Y0218737D02*
X0326520Y0218737D01*
X0326520Y0219935D02*
X0239683Y0219935D01*
X0240882Y0221134D02*
X0326520Y0221134D01*
X0326520Y0222332D02*
X0242080Y0222332D01*
X0243279Y0223531D02*
X0326520Y0223531D01*
X0326520Y0224729D02*
X0244477Y0224729D01*
X0245676Y0225928D02*
X0326520Y0225928D01*
X0326520Y0227126D02*
X0246874Y0227126D01*
X0248073Y0228325D02*
X0316596Y0228325D01*
X0316389Y0228411D02*
X0317771Y0227838D01*
X0319268Y0227838D01*
X0320651Y0228411D01*
X0321709Y0229469D01*
X0322282Y0230852D01*
X0322282Y0232348D01*
X0321709Y0233731D01*
X0320651Y0234789D01*
X0319268Y0235362D01*
X0317771Y0235362D01*
X0316389Y0234789D01*
X0315330Y0233731D01*
X0314757Y0232348D01*
X0314757Y0230852D01*
X0315330Y0229469D01*
X0316389Y0228411D01*
X0315308Y0229523D02*
X0249271Y0229523D01*
X0250470Y0230722D02*
X0314811Y0230722D01*
X0314757Y0231920D02*
X0251668Y0231920D01*
X0252867Y0233119D02*
X0315077Y0233119D01*
X0315916Y0234317D02*
X0254065Y0234317D01*
X0255264Y0235516D02*
X0326520Y0235516D01*
X0326520Y0236714D02*
X0256462Y0236714D01*
X0257661Y0237913D02*
X0317591Y0237913D01*
X0317771Y0237838D02*
X0319268Y0237838D01*
X0320651Y0238411D01*
X0321709Y0239469D01*
X0322282Y0240852D01*
X0322282Y0242348D01*
X0321709Y0243731D01*
X0320651Y0244789D01*
X0319268Y0245362D01*
X0317771Y0245362D01*
X0316389Y0244789D01*
X0315330Y0243731D01*
X0314757Y0242348D01*
X0314757Y0240852D01*
X0315330Y0239469D01*
X0316389Y0238411D01*
X0317771Y0237838D01*
X0319449Y0237913D02*
X0326520Y0237913D01*
X0326520Y0239111D02*
X0321351Y0239111D01*
X0322057Y0240310D02*
X0326520Y0240310D01*
X0326520Y0241508D02*
X0322282Y0241508D01*
X0322133Y0242707D02*
X0326520Y0242707D01*
X0326520Y0243905D02*
X0321535Y0243905D01*
X0319892Y0245104D02*
X0326520Y0245104D01*
X0326520Y0246302D02*
X0266050Y0246302D01*
X0264852Y0245104D02*
X0317147Y0245104D01*
X0315504Y0243905D02*
X0263653Y0243905D01*
X0262455Y0242707D02*
X0314906Y0242707D01*
X0314757Y0241508D02*
X0261256Y0241508D01*
X0260058Y0240310D02*
X0314982Y0240310D01*
X0315688Y0239111D02*
X0258859Y0239111D01*
X0255599Y0241508D02*
X0205782Y0241508D01*
X0205782Y0240852D02*
X0205209Y0239469D01*
X0204151Y0238411D01*
X0202768Y0237838D01*
X0201271Y0237838D01*
X0199889Y0238411D01*
X0198830Y0239469D01*
X0198257Y0240852D01*
X0198257Y0242348D01*
X0198830Y0243731D01*
X0199889Y0244789D01*
X0201271Y0245362D01*
X0202768Y0245362D01*
X0204151Y0244789D01*
X0205209Y0243731D01*
X0205782Y0242348D01*
X0205782Y0240852D01*
X0205557Y0240310D02*
X0254401Y0240310D01*
X0253202Y0239111D02*
X0204851Y0239111D01*
X0202949Y0237913D02*
X0252004Y0237913D01*
X0250805Y0236714D02*
X0124462Y0236714D01*
X0123264Y0235516D02*
X0249607Y0235516D01*
X0248408Y0234317D02*
X0204623Y0234317D01*
X0204151Y0234789D02*
X0202768Y0235362D01*
X0201271Y0235362D01*
X0199889Y0234789D01*
X0198830Y0233731D01*
X0198257Y0232348D01*
X0198257Y0230852D01*
X0198830Y0229469D01*
X0199889Y0228411D01*
X0201271Y0227838D01*
X0202768Y0227838D01*
X0204151Y0228411D01*
X0205209Y0229469D01*
X0205782Y0230852D01*
X0205782Y0232348D01*
X0205209Y0233731D01*
X0204151Y0234789D01*
X0205463Y0233119D02*
X0247210Y0233119D01*
X0246011Y0231920D02*
X0205782Y0231920D01*
X0205728Y0230722D02*
X0244813Y0230722D01*
X0243614Y0229523D02*
X0205232Y0229523D01*
X0203943Y0228325D02*
X0242416Y0228325D01*
X0241217Y0227126D02*
X0114874Y0227126D01*
X0113676Y0225928D02*
X0240019Y0225928D01*
X0238820Y0224729D02*
X0204211Y0224729D01*
X0204151Y0224789D02*
X0202768Y0225362D01*
X0201271Y0225362D01*
X0199889Y0224789D01*
X0198830Y0223731D01*
X0198257Y0222348D01*
X0198257Y0220852D01*
X0198830Y0219469D01*
X0199889Y0218411D01*
X0201271Y0217838D01*
X0202768Y0217838D01*
X0204151Y0218411D01*
X0205209Y0219469D01*
X0205782Y0220852D01*
X0205782Y0222348D01*
X0205209Y0223731D01*
X0204151Y0224789D01*
X0205292Y0223531D02*
X0237622Y0223531D01*
X0236423Y0222332D02*
X0205782Y0222332D01*
X0205782Y0221134D02*
X0235225Y0221134D01*
X0234026Y0219935D02*
X0205402Y0219935D01*
X0204477Y0218737D02*
X0232828Y0218737D01*
X0231629Y0217538D02*
X0105286Y0217538D01*
X0104088Y0216339D02*
X0230431Y0216339D01*
X0229232Y0215141D02*
X0136134Y0215141D01*
X0137261Y0213942D02*
X0228034Y0213942D01*
X0226835Y0212744D02*
X0137757Y0212744D01*
X0137872Y0211545D02*
X0225637Y0211545D01*
X0224438Y0210347D02*
X0137712Y0210347D01*
X0137216Y0209148D02*
X0223240Y0209148D01*
X0199563Y0218737D02*
X0106485Y0218737D01*
X0107683Y0219935D02*
X0198637Y0219935D01*
X0198257Y0221134D02*
X0108882Y0221134D01*
X0110080Y0222332D02*
X0198257Y0222332D01*
X0198747Y0223531D02*
X0111279Y0223531D01*
X0112477Y0224729D02*
X0199828Y0224729D01*
X0200096Y0228325D02*
X0116073Y0228325D01*
X0117271Y0229523D02*
X0198808Y0229523D01*
X0198311Y0230722D02*
X0118470Y0230722D01*
X0119668Y0231920D02*
X0198257Y0231920D01*
X0198577Y0233119D02*
X0120867Y0233119D01*
X0122065Y0234317D02*
X0199416Y0234317D01*
X0201091Y0237913D02*
X0125661Y0237913D01*
X0126859Y0239111D02*
X0199188Y0239111D01*
X0198482Y0240310D02*
X0128058Y0240310D01*
X0129256Y0241508D02*
X0198257Y0241508D01*
X0198406Y0242707D02*
X0130455Y0242707D01*
X0131653Y0243905D02*
X0199004Y0243905D01*
X0200647Y0245104D02*
X0132852Y0245104D01*
X0134050Y0246302D02*
X0260394Y0246302D01*
X0259195Y0245104D02*
X0203392Y0245104D01*
X0205035Y0243905D02*
X0257997Y0243905D01*
X0256798Y0242707D02*
X0205633Y0242707D01*
X0173520Y0256810D02*
X0173520Y0256810D01*
X0172119Y0257089D02*
X0144837Y0257089D01*
X0146035Y0258287D02*
X0168678Y0258287D01*
X0166884Y0259486D02*
X0147234Y0259486D01*
X0148433Y0260684D02*
X0165925Y0260684D01*
X0165124Y0261883D02*
X0149631Y0261883D01*
X0150830Y0263081D02*
X0164430Y0263081D01*
X0164191Y0264280D02*
X0152028Y0264280D01*
X0153227Y0265478D02*
X0163953Y0265478D01*
X0163730Y0266600D02*
X0163730Y0266600D01*
X0163745Y0266677D02*
X0154425Y0266677D01*
X0155624Y0267875D02*
X0163984Y0267875D01*
X0164222Y0269074D02*
X0156822Y0269074D01*
X0158021Y0270272D02*
X0164460Y0270272D01*
X0164475Y0270346D02*
X0164475Y0270346D01*
X0165227Y0271471D02*
X0159219Y0271471D01*
X0160418Y0272670D02*
X0166027Y0272670D01*
X0166597Y0273522D02*
X0166597Y0273522D01*
X0166597Y0273522D01*
X0167115Y0273868D02*
X0161616Y0273868D01*
X0162815Y0275067D02*
X0168908Y0275067D01*
X0169773Y0275645D02*
X0169773Y0275645D01*
X0164349Y0282258D02*
X0072334Y0282258D01*
X0073533Y0283456D02*
X0165547Y0283456D01*
X0166746Y0284655D02*
X0074731Y0284655D01*
X0075930Y0285853D02*
X0167944Y0285853D01*
X0169143Y0287052D02*
X0077128Y0287052D01*
X0071040Y0289449D02*
X0058520Y0289449D01*
X0058520Y0290647D02*
X0071520Y0290647D01*
X0071520Y0291846D02*
X0065369Y0291846D01*
X0067176Y0293044D02*
X0069863Y0293044D01*
X0068976Y0294243D02*
X0068063Y0294243D01*
X0068031Y0299037D02*
X0069009Y0299037D01*
X0069942Y0300235D02*
X0067097Y0300235D01*
X0065177Y0301434D02*
X0071863Y0301434D01*
X0061863Y0301434D02*
X0058520Y0301434D01*
X0058520Y0302632D02*
X0339620Y0302632D01*
X0339620Y0303831D02*
X0332424Y0303831D01*
X0331592Y0303743D02*
X0331592Y0303743D01*
X0331322Y0303831D02*
X0058520Y0303831D01*
X0058520Y0305029D02*
X0328166Y0305029D01*
X0328467Y0304758D02*
X0328467Y0304758D01*
X0326835Y0306228D02*
X0058520Y0306228D01*
X0058520Y0307426D02*
X0325817Y0307426D01*
X0325283Y0308625D02*
X0058520Y0308625D01*
X0058520Y0309823D02*
X0324750Y0309823D01*
X0324690Y0311022D02*
X0058520Y0311022D01*
X0058520Y0312220D02*
X0324690Y0312220D01*
X0324769Y0313419D02*
X0058520Y0313419D01*
X0058520Y0314617D02*
X0325302Y0314617D01*
X0325836Y0315816D02*
X0058520Y0315816D01*
X0058520Y0317014D02*
X0326882Y0317014D01*
X0326026Y0316243D02*
X0326026Y0316243D01*
X0328213Y0318213D02*
X0058520Y0318213D01*
X0058520Y0300235D02*
X0059942Y0300235D01*
X0059009Y0299037D02*
X0058520Y0299037D01*
X0058520Y0294243D02*
X0058976Y0294243D01*
X0058520Y0293044D02*
X0059863Y0293044D01*
X0058520Y0291846D02*
X0061671Y0291846D01*
X0058520Y0288250D02*
X0069841Y0288250D01*
X0068643Y0287052D02*
X0058520Y0287052D01*
X0058520Y0285853D02*
X0067444Y0285853D01*
X0066246Y0284655D02*
X0058520Y0284655D01*
X0058520Y0283456D02*
X0065047Y0283456D01*
X0064020Y0282258D02*
X0058520Y0282258D01*
X0058520Y0281059D02*
X0064020Y0281059D01*
X0064020Y0279861D02*
X0058520Y0279861D01*
X0058520Y0278662D02*
X0064020Y0278662D01*
X0064020Y0277464D02*
X0058520Y0277464D01*
X0058520Y0276265D02*
X0064020Y0276265D01*
X0064020Y0275067D02*
X0058520Y0275067D01*
X0058520Y0273868D02*
X0064020Y0273868D01*
X0064020Y0272670D02*
X0058520Y0272670D01*
X0058520Y0271471D02*
X0064020Y0271471D01*
X0064020Y0270272D02*
X0058520Y0270272D01*
X0058520Y0269074D02*
X0064020Y0269074D01*
X0064020Y0267875D02*
X0058520Y0267875D01*
X0058520Y0266677D02*
X0064020Y0266677D01*
X0064020Y0265478D02*
X0058520Y0265478D01*
X0058520Y0264280D02*
X0064020Y0264280D01*
X0064020Y0263081D02*
X0058520Y0263081D01*
X0058520Y0261883D02*
X0064020Y0261883D01*
X0064020Y0260684D02*
X0058520Y0260684D01*
X0058520Y0259486D02*
X0064020Y0259486D01*
X0064020Y0258287D02*
X0058520Y0258287D01*
X0058520Y0257089D02*
X0064020Y0257089D01*
X0064020Y0255890D02*
X0058520Y0255890D01*
X0058520Y0254692D02*
X0064020Y0254692D01*
X0064020Y0253493D02*
X0058520Y0253493D01*
X0058520Y0252295D02*
X0064020Y0252295D01*
X0064020Y0251096D02*
X0058520Y0251096D01*
X0058520Y0249898D02*
X0064020Y0249898D01*
X0064020Y0248699D02*
X0058520Y0248699D01*
X0058520Y0247501D02*
X0064020Y0247501D01*
X0064020Y0246302D02*
X0058520Y0246302D01*
X0058520Y0245104D02*
X0064020Y0245104D01*
X0064020Y0243905D02*
X0058520Y0243905D01*
X0058520Y0242707D02*
X0064020Y0242707D01*
X0064020Y0241508D02*
X0058520Y0241508D01*
X0058520Y0240310D02*
X0064020Y0240310D01*
X0064020Y0239111D02*
X0058520Y0239111D01*
X0058520Y0237913D02*
X0064020Y0237913D01*
X0064020Y0236714D02*
X0058520Y0236714D01*
X0058520Y0235516D02*
X0064020Y0235516D01*
X0064020Y0234317D02*
X0058520Y0234317D01*
X0058520Y0233119D02*
X0064020Y0233119D01*
X0064020Y0231920D02*
X0058520Y0231920D01*
X0058520Y0230722D02*
X0064020Y0230722D01*
X0064020Y0229523D02*
X0058520Y0229523D01*
X0058520Y0228325D02*
X0064020Y0228325D01*
X0064020Y0227126D02*
X0058520Y0227126D01*
X0058520Y0225928D02*
X0064020Y0225928D01*
X0064020Y0224729D02*
X0058520Y0224729D01*
X0058520Y0223531D02*
X0064020Y0223531D01*
X0064020Y0222332D02*
X0058520Y0222332D01*
X0058520Y0221134D02*
X0064020Y0221134D01*
X0064020Y0219935D02*
X0058520Y0219935D01*
X0058520Y0218737D02*
X0064020Y0218737D01*
X0064020Y0217538D02*
X0058520Y0217538D01*
X0058520Y0216339D02*
X0064020Y0216339D01*
X0064020Y0215141D02*
X0058520Y0215141D01*
X0058520Y0213942D02*
X0064020Y0213942D01*
X0064020Y0212744D02*
X0058520Y0212744D01*
X0058520Y0211545D02*
X0064020Y0211545D01*
X0064020Y0210347D02*
X0058520Y0210347D01*
X0058520Y0209148D02*
X0064020Y0209148D01*
X0070520Y0215141D02*
X0070905Y0215141D01*
X0070520Y0216339D02*
X0076520Y0216339D01*
X0076520Y0215141D02*
X0076134Y0215141D01*
X0076520Y0217538D02*
X0070520Y0217538D01*
X0070520Y0218737D02*
X0076520Y0218737D01*
X0076520Y0219935D02*
X0070520Y0219935D01*
X0070520Y0221134D02*
X0076520Y0221134D01*
X0076520Y0222332D02*
X0070520Y0222332D01*
X0070520Y0223531D02*
X0076520Y0223531D01*
X0076520Y0224729D02*
X0070520Y0224729D01*
X0070520Y0225928D02*
X0076520Y0225928D01*
X0076520Y0227126D02*
X0070520Y0227126D01*
X0070520Y0228325D02*
X0076520Y0228325D01*
X0076520Y0229523D02*
X0070520Y0229523D01*
X0070520Y0230722D02*
X0076520Y0230722D01*
X0076520Y0231920D02*
X0070520Y0231920D01*
X0070520Y0233119D02*
X0076520Y0233119D01*
X0076520Y0234317D02*
X0070520Y0234317D01*
X0070520Y0235516D02*
X0076520Y0235516D01*
X0076520Y0236714D02*
X0070520Y0236714D01*
X0070520Y0237913D02*
X0076520Y0237913D01*
X0076520Y0239111D02*
X0070520Y0239111D01*
X0070520Y0240310D02*
X0076520Y0240310D01*
X0076520Y0241508D02*
X0070520Y0241508D01*
X0070520Y0242707D02*
X0076520Y0242707D01*
X0076520Y0243905D02*
X0070520Y0243905D01*
X0070520Y0245104D02*
X0076520Y0245104D01*
X0076520Y0246302D02*
X0070520Y0246302D01*
X0070520Y0247501D02*
X0076520Y0247501D01*
X0076520Y0248699D02*
X0070520Y0248699D01*
X0070520Y0249898D02*
X0076520Y0249898D01*
X0076520Y0251096D02*
X0070520Y0251096D01*
X0070520Y0252295D02*
X0076520Y0252295D01*
X0076520Y0253493D02*
X0070520Y0253493D01*
X0070520Y0254692D02*
X0076520Y0254692D01*
X0076520Y0255890D02*
X0070520Y0255890D01*
X0070520Y0257089D02*
X0076520Y0257089D01*
X0076520Y0258287D02*
X0070520Y0258287D01*
X0070520Y0259486D02*
X0076520Y0259486D01*
X0076520Y0260684D02*
X0070520Y0260684D01*
X0070520Y0261883D02*
X0076520Y0261883D01*
X0076520Y0263081D02*
X0070520Y0263081D01*
X0070520Y0264280D02*
X0076252Y0264280D01*
X0075920Y0265478D02*
X0070520Y0265478D01*
X0070520Y0266677D02*
X0076152Y0266677D01*
X0077219Y0267875D02*
X0070520Y0267875D01*
X0070520Y0269074D02*
X0151165Y0269074D01*
X0149967Y0267875D02*
X0079820Y0267875D01*
X0080888Y0266677D02*
X0148768Y0266677D01*
X0147570Y0265478D02*
X0081120Y0265478D01*
X0080787Y0264280D02*
X0146371Y0264280D01*
X0145173Y0263081D02*
X0080520Y0263081D01*
X0080520Y0261883D02*
X0143974Y0261883D01*
X0142776Y0260684D02*
X0080520Y0260684D01*
X0080520Y0259486D02*
X0141577Y0259486D01*
X0140379Y0258287D02*
X0080520Y0258287D01*
X0080520Y0257089D02*
X0139180Y0257089D01*
X0137982Y0255890D02*
X0080520Y0255890D01*
X0080520Y0254692D02*
X0136783Y0254692D01*
X0135585Y0253493D02*
X0080520Y0253493D01*
X0080520Y0252295D02*
X0134386Y0252295D01*
X0133188Y0251096D02*
X0080520Y0251096D01*
X0080520Y0249898D02*
X0131989Y0249898D01*
X0130791Y0248699D02*
X0080520Y0248699D01*
X0080520Y0247501D02*
X0129592Y0247501D01*
X0128394Y0246302D02*
X0080520Y0246302D01*
X0080520Y0245104D02*
X0127195Y0245104D01*
X0125997Y0243905D02*
X0080520Y0243905D01*
X0080520Y0242707D02*
X0124798Y0242707D01*
X0123599Y0241508D02*
X0080520Y0241508D01*
X0080520Y0240310D02*
X0122401Y0240310D01*
X0121202Y0239111D02*
X0080520Y0239111D01*
X0080520Y0237913D02*
X0120004Y0237913D01*
X0118805Y0236714D02*
X0080520Y0236714D01*
X0080520Y0235516D02*
X0117607Y0235516D01*
X0116408Y0234317D02*
X0080520Y0234317D01*
X0080520Y0233119D02*
X0115210Y0233119D01*
X0114011Y0231920D02*
X0080520Y0231920D01*
X0080520Y0230722D02*
X0112813Y0230722D01*
X0111614Y0229523D02*
X0080520Y0229523D01*
X0080520Y0228325D02*
X0110416Y0228325D01*
X0109217Y0227126D02*
X0080520Y0227126D01*
X0080520Y0225928D02*
X0108019Y0225928D01*
X0106820Y0224729D02*
X0080520Y0224729D01*
X0080520Y0223531D02*
X0105622Y0223531D01*
X0104423Y0222332D02*
X0080520Y0222332D01*
X0080520Y0221134D02*
X0103225Y0221134D01*
X0102026Y0219935D02*
X0080520Y0219935D01*
X0080520Y0218737D02*
X0100828Y0218737D01*
X0099629Y0217538D02*
X0080520Y0217538D01*
X0080520Y0216339D02*
X0098431Y0216339D01*
X0097232Y0215141D02*
X0096134Y0215141D01*
X0099294Y0211545D02*
X0103135Y0211545D01*
X0103904Y0211545D02*
X0129167Y0211545D01*
X0129282Y0212744D02*
X0107935Y0212744D01*
X0107436Y0213942D02*
X0129779Y0213942D01*
X0130905Y0215141D02*
X0106392Y0215141D01*
X0103904Y0215141D02*
X0103135Y0215141D01*
X0103135Y0213942D02*
X0103904Y0213942D01*
X0103904Y0212744D02*
X0103135Y0212744D01*
X0099140Y0210347D02*
X0098095Y0210347D01*
X0097216Y0209148D02*
X0099673Y0209148D01*
X0107366Y0209148D02*
X0129824Y0209148D01*
X0129327Y0210347D02*
X0107900Y0210347D01*
X0129453Y0203156D02*
X0080520Y0203156D01*
X0080520Y0204354D02*
X0130118Y0204354D01*
X0129167Y0201957D02*
X0080520Y0201957D01*
X0080520Y0200759D02*
X0129167Y0200759D01*
X0129653Y0199560D02*
X0080520Y0199560D01*
X0080520Y0198362D02*
X0130602Y0198362D01*
X0130530Y0194766D02*
X0083182Y0194766D01*
X0084380Y0193568D02*
X0129623Y0193568D01*
X0129167Y0192369D02*
X0085579Y0192369D01*
X0086777Y0191171D02*
X0129167Y0191171D01*
X0129483Y0189972D02*
X0087976Y0189972D01*
X0089174Y0188774D02*
X0130190Y0188774D01*
X0131778Y0175590D02*
X0102358Y0175590D01*
X0103557Y0174392D02*
X0130156Y0174392D01*
X0129468Y0173193D02*
X0104755Y0173193D01*
X0105954Y0171995D02*
X0129167Y0171995D01*
X0129167Y0170796D02*
X0107152Y0170796D01*
X0108351Y0169598D02*
X0129638Y0169598D01*
X0130565Y0168399D02*
X0109549Y0168399D01*
X0113145Y0164803D02*
X0130567Y0164803D01*
X0129639Y0163605D02*
X0114343Y0163605D01*
X0115542Y0162406D02*
X0129167Y0162406D01*
X0129167Y0161208D02*
X0116740Y0161208D01*
X0117939Y0160009D02*
X0129467Y0160009D01*
X0130153Y0158811D02*
X0119137Y0158811D01*
X0120336Y0157612D02*
X0131772Y0157612D01*
X0078520Y0196600D02*
X0078520Y0265600D01*
X0070520Y0270272D02*
X0152364Y0270272D01*
X0153562Y0271471D02*
X0070520Y0271471D01*
X0070520Y0272670D02*
X0154761Y0272670D01*
X0155959Y0273868D02*
X0070520Y0273868D01*
X0070520Y0275067D02*
X0157158Y0275067D01*
X0158356Y0276265D02*
X0070520Y0276265D01*
X0070520Y0277464D02*
X0159555Y0277464D01*
X0160753Y0278662D02*
X0070520Y0278662D01*
X0070520Y0279861D02*
X0161952Y0279861D01*
X0163150Y0281059D02*
X0071136Y0281059D01*
X0080520Y0215141D02*
X0080905Y0215141D01*
X0081014Y0207950D02*
X0080520Y0207950D01*
X0070602Y0198362D02*
X0070520Y0198362D01*
X0070520Y0194766D02*
X0070530Y0194766D01*
X0151594Y0291846D02*
X0151671Y0291846D01*
X0149009Y0299037D02*
X0148031Y0299037D01*
X0147097Y0300235D02*
X0149942Y0300235D01*
X0151863Y0301434D02*
X0145177Y0301434D01*
X0235177Y0301434D02*
X0281863Y0301434D01*
X0285177Y0301434D02*
X0291332Y0301434D01*
X0293120Y0301434D02*
X0293920Y0301434D01*
X0293920Y0300235D02*
X0293120Y0300235D01*
X0293120Y0299037D02*
X0293920Y0299037D01*
X0293920Y0297838D02*
X0293120Y0297838D01*
X0293120Y0295441D02*
X0293920Y0295441D01*
X0293920Y0294243D02*
X0293120Y0294243D01*
X0293120Y0293044D02*
X0293920Y0293044D01*
X0293920Y0291846D02*
X0293120Y0291846D01*
X0291176Y0291846D02*
X0285369Y0291846D01*
X0287176Y0293044D02*
X0289580Y0293044D01*
X0288772Y0294243D02*
X0288063Y0294243D01*
X0288031Y0299037D02*
X0288813Y0299037D01*
X0289660Y0300235D02*
X0287097Y0300235D01*
X0295707Y0301434D02*
X0301863Y0301434D01*
X0299942Y0300235D02*
X0297380Y0300235D01*
X0298226Y0299037D02*
X0299009Y0299037D01*
X0298976Y0294243D02*
X0298267Y0294243D01*
X0297459Y0293044D02*
X0299863Y0293044D01*
X0301671Y0291846D02*
X0295863Y0291846D01*
X0311594Y0291846D02*
X0311671Y0291846D01*
X0334859Y0304087D02*
X0334859Y0304087D01*
X0336491Y0305029D02*
X0339620Y0305029D01*
X0339620Y0306228D02*
X0338066Y0306228D01*
X0337703Y0305729D02*
X0337703Y0305729D01*
X0338937Y0307426D02*
X0339620Y0307426D01*
X0328467Y0318442D02*
X0328467Y0318442D01*
X0315879Y0264280D02*
X0284028Y0264280D01*
X0282830Y0263081D02*
X0315061Y0263081D01*
X0318332Y0254692D02*
X0318707Y0254692D01*
X0318707Y0253493D02*
X0318332Y0253493D01*
X0318332Y0252295D02*
X0318707Y0252295D01*
X0318707Y0251096D02*
X0318332Y0251096D01*
X0318332Y0249898D02*
X0318707Y0249898D01*
X0318707Y0248699D02*
X0318332Y0248699D01*
X0321123Y0234317D02*
X0326520Y0234317D01*
X0326520Y0233119D02*
X0321963Y0233119D01*
X0322282Y0231920D02*
X0326520Y0231920D01*
X0326520Y0230722D02*
X0322228Y0230722D01*
X0321732Y0229523D02*
X0326520Y0229523D01*
X0326520Y0228325D02*
X0320443Y0228325D01*
X0316947Y0174392D02*
X0315093Y0174392D01*
D22*
X0313520Y0171600D02*
X0318520Y0171600D01*
X0044622Y0101600D02*
X0043520Y0102702D01*
D23*
X0042122Y0102702D01*
X0031709Y0113116D01*
X0031709Y0121600D01*
X0031020Y0122289D01*
X0031020Y0146600D01*
X0038520Y0154100D01*
X0058520Y0154100D01*
X0058520Y0291600D01*
X0056020Y0291600D01*
X0053520Y0294100D01*
X0053520Y0296600D01*
X0053520Y0301600D01*
X0058520Y0306600D01*
X0128520Y0306600D01*
X0133520Y0301600D01*
X0138520Y0306600D01*
X0208520Y0306600D01*
X0213520Y0301600D01*
X0218520Y0306600D01*
X0288520Y0306600D01*
X0293520Y0301600D01*
X0293520Y0296600D01*
X0313520Y0251600D02*
X0308520Y0246600D01*
X0308520Y0169100D01*
X0311020Y0166600D01*
X0313520Y0166600D01*
X0318520Y0166600D02*
X0321020Y0166600D01*
X0326020Y0161600D01*
X0326020Y0146600D01*
X0311020Y0131600D01*
X0133520Y0131600D01*
X0042122Y0102702D02*
X0031020Y0091600D01*
X0031020Y0064100D01*
X0038520Y0056600D01*
X0043520Y0056600D01*
X0038520Y0056600D02*
X0033520Y0051600D01*
X0033520Y0021600D01*
X0038520Y0016600D01*
X0058520Y0016600D01*
X0063520Y0021600D01*
X0063520Y0026600D01*
X0063520Y0021600D02*
X0068520Y0016600D01*
X0138520Y0016600D01*
X0143520Y0021600D01*
X0143520Y0026600D01*
X0143520Y0021600D02*
X0148520Y0016600D01*
X0218520Y0016600D01*
X0223520Y0021600D01*
X0223520Y0026600D01*
X0223520Y0021600D02*
X0228520Y0016600D01*
X0298520Y0016600D01*
X0303520Y0021600D01*
X0303520Y0026600D01*
X0313520Y0251600D02*
X0318520Y0251600D01*
X0213520Y0296600D02*
X0213520Y0301600D01*
X0133520Y0301600D02*
X0133520Y0296600D01*
X0038520Y0171757D02*
X0038520Y0154100D01*
D24*
X0078520Y0265600D03*
M02*
