G75*
%MOIN*%
%OFA0B0*%
%FSLAX25Y25*%
%IPPOS*%
%LPD*%
%AMOC8*
5,1,8,0,0,1.08239X$1,22.5*
%
%ADD10C,0.00000*%
%ADD11C,0.00600*%
%ADD12C,0.07400*%
%ADD13C,0.08600*%
%ADD14C,0.05906*%
%ADD15R,0.04724X0.04724*%
%ADD16C,0.04724*%
%ADD17R,0.08000X0.08000*%
%ADD18C,0.08000*%
%ADD19C,0.03562*%
%ADD20C,0.07600*%
%ADD21R,0.05906X0.05906*%
%ADD22C,0.01200*%
%ADD23C,0.01600*%
%ADD24C,0.02578*%
D10*
X0013520Y0011600D02*
X0013520Y0311561D01*
X0013523Y0311803D01*
X0013532Y0312044D01*
X0013546Y0312285D01*
X0013567Y0312526D01*
X0013593Y0312766D01*
X0013625Y0313006D01*
X0013663Y0313245D01*
X0013706Y0313482D01*
X0013756Y0313719D01*
X0013811Y0313954D01*
X0013871Y0314188D01*
X0013938Y0314420D01*
X0014009Y0314651D01*
X0014087Y0314880D01*
X0014170Y0315107D01*
X0014258Y0315332D01*
X0014352Y0315555D01*
X0014451Y0315775D01*
X0014556Y0315993D01*
X0014665Y0316208D01*
X0014780Y0316421D01*
X0014900Y0316631D01*
X0015025Y0316837D01*
X0015155Y0317041D01*
X0015290Y0317242D01*
X0015430Y0317439D01*
X0015574Y0317633D01*
X0015723Y0317823D01*
X0015877Y0318009D01*
X0016035Y0318192D01*
X0016197Y0318371D01*
X0016364Y0318546D01*
X0016535Y0318717D01*
X0016710Y0318884D01*
X0016889Y0319046D01*
X0017072Y0319204D01*
X0017258Y0319358D01*
X0017448Y0319507D01*
X0017642Y0319651D01*
X0017839Y0319791D01*
X0018040Y0319926D01*
X0018244Y0320056D01*
X0018450Y0320181D01*
X0018660Y0320301D01*
X0018873Y0320416D01*
X0019088Y0320525D01*
X0019306Y0320630D01*
X0019526Y0320729D01*
X0019749Y0320823D01*
X0019974Y0320911D01*
X0020201Y0320994D01*
X0020430Y0321072D01*
X0020661Y0321143D01*
X0020893Y0321210D01*
X0021127Y0321270D01*
X0021362Y0321325D01*
X0021599Y0321375D01*
X0021836Y0321418D01*
X0022075Y0321456D01*
X0022315Y0321488D01*
X0022555Y0321514D01*
X0022796Y0321535D01*
X0023037Y0321549D01*
X0023278Y0321558D01*
X0023520Y0321561D01*
X0332260Y0321561D01*
X0332501Y0321558D01*
X0332741Y0321549D01*
X0332982Y0321535D01*
X0333221Y0321514D01*
X0333461Y0321488D01*
X0333699Y0321456D01*
X0333937Y0321419D01*
X0334174Y0321375D01*
X0334409Y0321326D01*
X0334644Y0321272D01*
X0334877Y0321211D01*
X0335108Y0321145D01*
X0335338Y0321073D01*
X0335566Y0320996D01*
X0335792Y0320914D01*
X0336016Y0320826D01*
X0336238Y0320732D01*
X0336458Y0320633D01*
X0336675Y0320529D01*
X0336889Y0320420D01*
X0337101Y0320306D01*
X0337310Y0320186D01*
X0337516Y0320062D01*
X0337719Y0319932D01*
X0337918Y0319798D01*
X0338115Y0319659D01*
X0338308Y0319515D01*
X0338497Y0319366D01*
X0338683Y0319213D01*
X0338865Y0319056D01*
X0339044Y0318894D01*
X0339218Y0318728D01*
X0339388Y0318558D01*
X0339554Y0318384D01*
X0339716Y0318205D01*
X0339873Y0318023D01*
X0340026Y0317837D01*
X0340175Y0317648D01*
X0340319Y0317455D01*
X0340458Y0317258D01*
X0340592Y0317059D01*
X0340722Y0316856D01*
X0340846Y0316650D01*
X0340966Y0316441D01*
X0341080Y0316229D01*
X0341189Y0316015D01*
X0341293Y0315798D01*
X0341392Y0315578D01*
X0341486Y0315356D01*
X0341574Y0315132D01*
X0341656Y0314906D01*
X0341733Y0314678D01*
X0341805Y0314448D01*
X0341871Y0314217D01*
X0341932Y0313984D01*
X0341986Y0313749D01*
X0342035Y0313514D01*
X0342079Y0313277D01*
X0342116Y0313039D01*
X0342148Y0312801D01*
X0342174Y0312561D01*
X0342195Y0312322D01*
X0342209Y0312081D01*
X0342218Y0311841D01*
X0342221Y0311600D01*
X0342220Y0311600D02*
X0342220Y0010301D01*
X0342221Y0010301D02*
X0342218Y0010091D01*
X0342211Y0009881D01*
X0342198Y0009671D01*
X0342180Y0009461D01*
X0342158Y0009252D01*
X0342130Y0009044D01*
X0342097Y0008836D01*
X0342059Y0008629D01*
X0342016Y0008423D01*
X0341968Y0008219D01*
X0341915Y0008015D01*
X0341858Y0007813D01*
X0341795Y0007612D01*
X0341728Y0007413D01*
X0341656Y0007216D01*
X0341579Y0007020D01*
X0341497Y0006826D01*
X0341411Y0006634D01*
X0341320Y0006445D01*
X0341224Y0006257D01*
X0341124Y0006072D01*
X0341020Y0005890D01*
X0340911Y0005710D01*
X0340798Y0005533D01*
X0340681Y0005358D01*
X0340559Y0005187D01*
X0340434Y0005018D01*
X0340304Y0004853D01*
X0340170Y0004690D01*
X0340033Y0004531D01*
X0339891Y0004375D01*
X0339746Y0004223D01*
X0339598Y0004075D01*
X0339446Y0003930D01*
X0339290Y0003788D01*
X0339131Y0003651D01*
X0338968Y0003517D01*
X0338803Y0003387D01*
X0338634Y0003262D01*
X0338463Y0003140D01*
X0338288Y0003023D01*
X0338111Y0002910D01*
X0337931Y0002801D01*
X0337749Y0002697D01*
X0337564Y0002597D01*
X0337376Y0002501D01*
X0337187Y0002410D01*
X0336995Y0002324D01*
X0336801Y0002242D01*
X0336605Y0002165D01*
X0336408Y0002093D01*
X0336209Y0002026D01*
X0336008Y0001963D01*
X0335806Y0001906D01*
X0335602Y0001853D01*
X0335398Y0001805D01*
X0335192Y0001762D01*
X0334985Y0001724D01*
X0334777Y0001691D01*
X0334569Y0001663D01*
X0334360Y0001641D01*
X0334150Y0001623D01*
X0333940Y0001610D01*
X0333730Y0001603D01*
X0333520Y0001600D01*
X0023520Y0001600D01*
X0023278Y0001603D01*
X0023037Y0001612D01*
X0022796Y0001626D01*
X0022555Y0001647D01*
X0022315Y0001673D01*
X0022075Y0001705D01*
X0021836Y0001743D01*
X0021599Y0001786D01*
X0021362Y0001836D01*
X0021127Y0001891D01*
X0020893Y0001951D01*
X0020661Y0002018D01*
X0020430Y0002089D01*
X0020201Y0002167D01*
X0019974Y0002250D01*
X0019749Y0002338D01*
X0019526Y0002432D01*
X0019306Y0002531D01*
X0019088Y0002636D01*
X0018873Y0002745D01*
X0018660Y0002860D01*
X0018450Y0002980D01*
X0018244Y0003105D01*
X0018040Y0003235D01*
X0017839Y0003370D01*
X0017642Y0003510D01*
X0017448Y0003654D01*
X0017258Y0003803D01*
X0017072Y0003957D01*
X0016889Y0004115D01*
X0016710Y0004277D01*
X0016535Y0004444D01*
X0016364Y0004615D01*
X0016197Y0004790D01*
X0016035Y0004969D01*
X0015877Y0005152D01*
X0015723Y0005338D01*
X0015574Y0005528D01*
X0015430Y0005722D01*
X0015290Y0005919D01*
X0015155Y0006120D01*
X0015025Y0006324D01*
X0014900Y0006530D01*
X0014780Y0006740D01*
X0014665Y0006953D01*
X0014556Y0007168D01*
X0014451Y0007386D01*
X0014352Y0007606D01*
X0014258Y0007829D01*
X0014170Y0008054D01*
X0014087Y0008281D01*
X0014009Y0008510D01*
X0013938Y0008741D01*
X0013871Y0008973D01*
X0013811Y0009207D01*
X0013756Y0009442D01*
X0013706Y0009679D01*
X0013663Y0009916D01*
X0013625Y0010155D01*
X0013593Y0010395D01*
X0013567Y0010635D01*
X0013546Y0010876D01*
X0013532Y0011117D01*
X0013523Y0011358D01*
X0013520Y0011600D01*
D11*
X0018520Y0011600D02*
X0018522Y0011741D01*
X0018528Y0011882D01*
X0018538Y0012022D01*
X0018552Y0012162D01*
X0018570Y0012302D01*
X0018591Y0012441D01*
X0018617Y0012580D01*
X0018646Y0012718D01*
X0018680Y0012854D01*
X0018717Y0012990D01*
X0018758Y0013125D01*
X0018803Y0013259D01*
X0018852Y0013391D01*
X0018904Y0013522D01*
X0018960Y0013651D01*
X0019020Y0013778D01*
X0019083Y0013904D01*
X0019149Y0014028D01*
X0019220Y0014151D01*
X0019293Y0014271D01*
X0019370Y0014389D01*
X0019450Y0014505D01*
X0019534Y0014618D01*
X0019620Y0014729D01*
X0019710Y0014838D01*
X0019803Y0014944D01*
X0019898Y0015047D01*
X0019997Y0015148D01*
X0020098Y0015246D01*
X0020202Y0015341D01*
X0020309Y0015433D01*
X0020418Y0015522D01*
X0020530Y0015607D01*
X0020644Y0015690D01*
X0020760Y0015770D01*
X0020879Y0015846D01*
X0021000Y0015918D01*
X0021122Y0015988D01*
X0021247Y0016053D01*
X0021373Y0016116D01*
X0021501Y0016174D01*
X0021631Y0016229D01*
X0021762Y0016281D01*
X0021895Y0016328D01*
X0022029Y0016372D01*
X0022164Y0016413D01*
X0022300Y0016449D01*
X0022437Y0016481D01*
X0022575Y0016510D01*
X0022713Y0016535D01*
X0022853Y0016555D01*
X0022993Y0016572D01*
X0023133Y0016585D01*
X0023274Y0016594D01*
X0023414Y0016599D01*
X0023555Y0016600D01*
X0023696Y0016597D01*
X0023837Y0016590D01*
X0023977Y0016579D01*
X0024117Y0016564D01*
X0024257Y0016545D01*
X0024396Y0016523D01*
X0024534Y0016496D01*
X0024672Y0016466D01*
X0024808Y0016431D01*
X0024944Y0016393D01*
X0025078Y0016351D01*
X0025212Y0016305D01*
X0025344Y0016256D01*
X0025474Y0016202D01*
X0025603Y0016145D01*
X0025730Y0016085D01*
X0025856Y0016021D01*
X0025979Y0015953D01*
X0026101Y0015882D01*
X0026221Y0015808D01*
X0026338Y0015730D01*
X0026453Y0015649D01*
X0026566Y0015565D01*
X0026677Y0015478D01*
X0026785Y0015387D01*
X0026890Y0015294D01*
X0026993Y0015197D01*
X0027093Y0015098D01*
X0027190Y0014996D01*
X0027284Y0014891D01*
X0027375Y0014784D01*
X0027463Y0014674D01*
X0027548Y0014562D01*
X0027630Y0014447D01*
X0027709Y0014330D01*
X0027784Y0014211D01*
X0027856Y0014090D01*
X0027924Y0013967D01*
X0027989Y0013842D01*
X0028051Y0013715D01*
X0028108Y0013586D01*
X0028163Y0013456D01*
X0028213Y0013325D01*
X0028260Y0013192D01*
X0028303Y0013058D01*
X0028342Y0012922D01*
X0028377Y0012786D01*
X0028409Y0012649D01*
X0028436Y0012511D01*
X0028460Y0012372D01*
X0028480Y0012232D01*
X0028496Y0012092D01*
X0028508Y0011952D01*
X0028516Y0011811D01*
X0028520Y0011670D01*
X0028520Y0011530D01*
X0028516Y0011389D01*
X0028508Y0011248D01*
X0028496Y0011108D01*
X0028480Y0010968D01*
X0028460Y0010828D01*
X0028436Y0010689D01*
X0028409Y0010551D01*
X0028377Y0010414D01*
X0028342Y0010278D01*
X0028303Y0010142D01*
X0028260Y0010008D01*
X0028213Y0009875D01*
X0028163Y0009744D01*
X0028108Y0009614D01*
X0028051Y0009485D01*
X0027989Y0009358D01*
X0027924Y0009233D01*
X0027856Y0009110D01*
X0027784Y0008989D01*
X0027709Y0008870D01*
X0027630Y0008753D01*
X0027548Y0008638D01*
X0027463Y0008526D01*
X0027375Y0008416D01*
X0027284Y0008309D01*
X0027190Y0008204D01*
X0027093Y0008102D01*
X0026993Y0008003D01*
X0026890Y0007906D01*
X0026785Y0007813D01*
X0026677Y0007722D01*
X0026566Y0007635D01*
X0026453Y0007551D01*
X0026338Y0007470D01*
X0026221Y0007392D01*
X0026101Y0007318D01*
X0025979Y0007247D01*
X0025856Y0007179D01*
X0025730Y0007115D01*
X0025603Y0007055D01*
X0025474Y0006998D01*
X0025344Y0006944D01*
X0025212Y0006895D01*
X0025078Y0006849D01*
X0024944Y0006807D01*
X0024808Y0006769D01*
X0024672Y0006734D01*
X0024534Y0006704D01*
X0024396Y0006677D01*
X0024257Y0006655D01*
X0024117Y0006636D01*
X0023977Y0006621D01*
X0023837Y0006610D01*
X0023696Y0006603D01*
X0023555Y0006600D01*
X0023414Y0006601D01*
X0023274Y0006606D01*
X0023133Y0006615D01*
X0022993Y0006628D01*
X0022853Y0006645D01*
X0022713Y0006665D01*
X0022575Y0006690D01*
X0022437Y0006719D01*
X0022300Y0006751D01*
X0022164Y0006787D01*
X0022029Y0006828D01*
X0021895Y0006872D01*
X0021762Y0006919D01*
X0021631Y0006971D01*
X0021501Y0007026D01*
X0021373Y0007084D01*
X0021247Y0007147D01*
X0021122Y0007212D01*
X0021000Y0007282D01*
X0020879Y0007354D01*
X0020760Y0007430D01*
X0020644Y0007510D01*
X0020530Y0007593D01*
X0020418Y0007678D01*
X0020309Y0007767D01*
X0020202Y0007859D01*
X0020098Y0007954D01*
X0019997Y0008052D01*
X0019898Y0008153D01*
X0019803Y0008256D01*
X0019710Y0008362D01*
X0019620Y0008471D01*
X0019534Y0008582D01*
X0019450Y0008695D01*
X0019370Y0008811D01*
X0019293Y0008929D01*
X0019220Y0009049D01*
X0019149Y0009172D01*
X0019083Y0009296D01*
X0019020Y0009422D01*
X0018960Y0009549D01*
X0018904Y0009678D01*
X0018852Y0009809D01*
X0018803Y0009941D01*
X0018758Y0010075D01*
X0018717Y0010210D01*
X0018680Y0010346D01*
X0018646Y0010482D01*
X0018617Y0010620D01*
X0018591Y0010759D01*
X0018570Y0010898D01*
X0018552Y0011038D01*
X0018538Y0011178D01*
X0018528Y0011318D01*
X0018522Y0011459D01*
X0018520Y0011600D01*
X0166630Y0071600D02*
X0166632Y0071769D01*
X0166638Y0071938D01*
X0166649Y0072107D01*
X0166663Y0072275D01*
X0166682Y0072443D01*
X0166705Y0072611D01*
X0166731Y0072778D01*
X0166762Y0072944D01*
X0166797Y0073110D01*
X0166836Y0073274D01*
X0166880Y0073438D01*
X0166927Y0073600D01*
X0166978Y0073761D01*
X0167033Y0073921D01*
X0167092Y0074080D01*
X0167154Y0074237D01*
X0167221Y0074392D01*
X0167292Y0074546D01*
X0167366Y0074698D01*
X0167444Y0074848D01*
X0167525Y0074996D01*
X0167610Y0075142D01*
X0167699Y0075286D01*
X0167791Y0075428D01*
X0167887Y0075567D01*
X0167986Y0075704D01*
X0168088Y0075839D01*
X0168194Y0075971D01*
X0168303Y0076100D01*
X0168415Y0076227D01*
X0168530Y0076351D01*
X0168648Y0076472D01*
X0168769Y0076590D01*
X0168893Y0076705D01*
X0169020Y0076817D01*
X0169149Y0076926D01*
X0169281Y0077032D01*
X0169416Y0077134D01*
X0169553Y0077233D01*
X0169692Y0077329D01*
X0169834Y0077421D01*
X0169978Y0077510D01*
X0170124Y0077595D01*
X0170272Y0077676D01*
X0170422Y0077754D01*
X0170574Y0077828D01*
X0170728Y0077899D01*
X0170883Y0077966D01*
X0171040Y0078028D01*
X0171199Y0078087D01*
X0171359Y0078142D01*
X0171520Y0078193D01*
X0171682Y0078240D01*
X0171846Y0078284D01*
X0172010Y0078323D01*
X0172176Y0078358D01*
X0172342Y0078389D01*
X0172509Y0078415D01*
X0172677Y0078438D01*
X0172845Y0078457D01*
X0173013Y0078471D01*
X0173182Y0078482D01*
X0173351Y0078488D01*
X0173520Y0078490D01*
X0173689Y0078488D01*
X0173858Y0078482D01*
X0174027Y0078471D01*
X0174195Y0078457D01*
X0174363Y0078438D01*
X0174531Y0078415D01*
X0174698Y0078389D01*
X0174864Y0078358D01*
X0175030Y0078323D01*
X0175194Y0078284D01*
X0175358Y0078240D01*
X0175520Y0078193D01*
X0175681Y0078142D01*
X0175841Y0078087D01*
X0176000Y0078028D01*
X0176157Y0077966D01*
X0176312Y0077899D01*
X0176466Y0077828D01*
X0176618Y0077754D01*
X0176768Y0077676D01*
X0176916Y0077595D01*
X0177062Y0077510D01*
X0177206Y0077421D01*
X0177348Y0077329D01*
X0177487Y0077233D01*
X0177624Y0077134D01*
X0177759Y0077032D01*
X0177891Y0076926D01*
X0178020Y0076817D01*
X0178147Y0076705D01*
X0178271Y0076590D01*
X0178392Y0076472D01*
X0178510Y0076351D01*
X0178625Y0076227D01*
X0178737Y0076100D01*
X0178846Y0075971D01*
X0178952Y0075839D01*
X0179054Y0075704D01*
X0179153Y0075567D01*
X0179249Y0075428D01*
X0179341Y0075286D01*
X0179430Y0075142D01*
X0179515Y0074996D01*
X0179596Y0074848D01*
X0179674Y0074698D01*
X0179748Y0074546D01*
X0179819Y0074392D01*
X0179886Y0074237D01*
X0179948Y0074080D01*
X0180007Y0073921D01*
X0180062Y0073761D01*
X0180113Y0073600D01*
X0180160Y0073438D01*
X0180204Y0073274D01*
X0180243Y0073110D01*
X0180278Y0072944D01*
X0180309Y0072778D01*
X0180335Y0072611D01*
X0180358Y0072443D01*
X0180377Y0072275D01*
X0180391Y0072107D01*
X0180402Y0071938D01*
X0180408Y0071769D01*
X0180410Y0071600D01*
X0180408Y0071431D01*
X0180402Y0071262D01*
X0180391Y0071093D01*
X0180377Y0070925D01*
X0180358Y0070757D01*
X0180335Y0070589D01*
X0180309Y0070422D01*
X0180278Y0070256D01*
X0180243Y0070090D01*
X0180204Y0069926D01*
X0180160Y0069762D01*
X0180113Y0069600D01*
X0180062Y0069439D01*
X0180007Y0069279D01*
X0179948Y0069120D01*
X0179886Y0068963D01*
X0179819Y0068808D01*
X0179748Y0068654D01*
X0179674Y0068502D01*
X0179596Y0068352D01*
X0179515Y0068204D01*
X0179430Y0068058D01*
X0179341Y0067914D01*
X0179249Y0067772D01*
X0179153Y0067633D01*
X0179054Y0067496D01*
X0178952Y0067361D01*
X0178846Y0067229D01*
X0178737Y0067100D01*
X0178625Y0066973D01*
X0178510Y0066849D01*
X0178392Y0066728D01*
X0178271Y0066610D01*
X0178147Y0066495D01*
X0178020Y0066383D01*
X0177891Y0066274D01*
X0177759Y0066168D01*
X0177624Y0066066D01*
X0177487Y0065967D01*
X0177348Y0065871D01*
X0177206Y0065779D01*
X0177062Y0065690D01*
X0176916Y0065605D01*
X0176768Y0065524D01*
X0176618Y0065446D01*
X0176466Y0065372D01*
X0176312Y0065301D01*
X0176157Y0065234D01*
X0176000Y0065172D01*
X0175841Y0065113D01*
X0175681Y0065058D01*
X0175520Y0065007D01*
X0175358Y0064960D01*
X0175194Y0064916D01*
X0175030Y0064877D01*
X0174864Y0064842D01*
X0174698Y0064811D01*
X0174531Y0064785D01*
X0174363Y0064762D01*
X0174195Y0064743D01*
X0174027Y0064729D01*
X0173858Y0064718D01*
X0173689Y0064712D01*
X0173520Y0064710D01*
X0173351Y0064712D01*
X0173182Y0064718D01*
X0173013Y0064729D01*
X0172845Y0064743D01*
X0172677Y0064762D01*
X0172509Y0064785D01*
X0172342Y0064811D01*
X0172176Y0064842D01*
X0172010Y0064877D01*
X0171846Y0064916D01*
X0171682Y0064960D01*
X0171520Y0065007D01*
X0171359Y0065058D01*
X0171199Y0065113D01*
X0171040Y0065172D01*
X0170883Y0065234D01*
X0170728Y0065301D01*
X0170574Y0065372D01*
X0170422Y0065446D01*
X0170272Y0065524D01*
X0170124Y0065605D01*
X0169978Y0065690D01*
X0169834Y0065779D01*
X0169692Y0065871D01*
X0169553Y0065967D01*
X0169416Y0066066D01*
X0169281Y0066168D01*
X0169149Y0066274D01*
X0169020Y0066383D01*
X0168893Y0066495D01*
X0168769Y0066610D01*
X0168648Y0066728D01*
X0168530Y0066849D01*
X0168415Y0066973D01*
X0168303Y0067100D01*
X0168194Y0067229D01*
X0168088Y0067361D01*
X0167986Y0067496D01*
X0167887Y0067633D01*
X0167791Y0067772D01*
X0167699Y0067914D01*
X0167610Y0068058D01*
X0167525Y0068204D01*
X0167444Y0068352D01*
X0167366Y0068502D01*
X0167292Y0068654D01*
X0167221Y0068808D01*
X0167154Y0068963D01*
X0167092Y0069120D01*
X0167033Y0069279D01*
X0166978Y0069439D01*
X0166927Y0069600D01*
X0166880Y0069762D01*
X0166836Y0069926D01*
X0166797Y0070090D01*
X0166762Y0070256D01*
X0166731Y0070422D01*
X0166705Y0070589D01*
X0166682Y0070757D01*
X0166663Y0070925D01*
X0166649Y0071093D01*
X0166638Y0071262D01*
X0166632Y0071431D01*
X0166630Y0071600D01*
X0327417Y0011600D02*
X0327419Y0011741D01*
X0327425Y0011882D01*
X0327435Y0012022D01*
X0327449Y0012162D01*
X0327467Y0012302D01*
X0327488Y0012441D01*
X0327514Y0012580D01*
X0327543Y0012718D01*
X0327577Y0012854D01*
X0327614Y0012990D01*
X0327655Y0013125D01*
X0327700Y0013259D01*
X0327749Y0013391D01*
X0327801Y0013522D01*
X0327857Y0013651D01*
X0327917Y0013778D01*
X0327980Y0013904D01*
X0328046Y0014028D01*
X0328117Y0014151D01*
X0328190Y0014271D01*
X0328267Y0014389D01*
X0328347Y0014505D01*
X0328431Y0014618D01*
X0328517Y0014729D01*
X0328607Y0014838D01*
X0328700Y0014944D01*
X0328795Y0015047D01*
X0328894Y0015148D01*
X0328995Y0015246D01*
X0329099Y0015341D01*
X0329206Y0015433D01*
X0329315Y0015522D01*
X0329427Y0015607D01*
X0329541Y0015690D01*
X0329657Y0015770D01*
X0329776Y0015846D01*
X0329897Y0015918D01*
X0330019Y0015988D01*
X0330144Y0016053D01*
X0330270Y0016116D01*
X0330398Y0016174D01*
X0330528Y0016229D01*
X0330659Y0016281D01*
X0330792Y0016328D01*
X0330926Y0016372D01*
X0331061Y0016413D01*
X0331197Y0016449D01*
X0331334Y0016481D01*
X0331472Y0016510D01*
X0331610Y0016535D01*
X0331750Y0016555D01*
X0331890Y0016572D01*
X0332030Y0016585D01*
X0332171Y0016594D01*
X0332311Y0016599D01*
X0332452Y0016600D01*
X0332593Y0016597D01*
X0332734Y0016590D01*
X0332874Y0016579D01*
X0333014Y0016564D01*
X0333154Y0016545D01*
X0333293Y0016523D01*
X0333431Y0016496D01*
X0333569Y0016466D01*
X0333705Y0016431D01*
X0333841Y0016393D01*
X0333975Y0016351D01*
X0334109Y0016305D01*
X0334241Y0016256D01*
X0334371Y0016202D01*
X0334500Y0016145D01*
X0334627Y0016085D01*
X0334753Y0016021D01*
X0334876Y0015953D01*
X0334998Y0015882D01*
X0335118Y0015808D01*
X0335235Y0015730D01*
X0335350Y0015649D01*
X0335463Y0015565D01*
X0335574Y0015478D01*
X0335682Y0015387D01*
X0335787Y0015294D01*
X0335890Y0015197D01*
X0335990Y0015098D01*
X0336087Y0014996D01*
X0336181Y0014891D01*
X0336272Y0014784D01*
X0336360Y0014674D01*
X0336445Y0014562D01*
X0336527Y0014447D01*
X0336606Y0014330D01*
X0336681Y0014211D01*
X0336753Y0014090D01*
X0336821Y0013967D01*
X0336886Y0013842D01*
X0336948Y0013715D01*
X0337005Y0013586D01*
X0337060Y0013456D01*
X0337110Y0013325D01*
X0337157Y0013192D01*
X0337200Y0013058D01*
X0337239Y0012922D01*
X0337274Y0012786D01*
X0337306Y0012649D01*
X0337333Y0012511D01*
X0337357Y0012372D01*
X0337377Y0012232D01*
X0337393Y0012092D01*
X0337405Y0011952D01*
X0337413Y0011811D01*
X0337417Y0011670D01*
X0337417Y0011530D01*
X0337413Y0011389D01*
X0337405Y0011248D01*
X0337393Y0011108D01*
X0337377Y0010968D01*
X0337357Y0010828D01*
X0337333Y0010689D01*
X0337306Y0010551D01*
X0337274Y0010414D01*
X0337239Y0010278D01*
X0337200Y0010142D01*
X0337157Y0010008D01*
X0337110Y0009875D01*
X0337060Y0009744D01*
X0337005Y0009614D01*
X0336948Y0009485D01*
X0336886Y0009358D01*
X0336821Y0009233D01*
X0336753Y0009110D01*
X0336681Y0008989D01*
X0336606Y0008870D01*
X0336527Y0008753D01*
X0336445Y0008638D01*
X0336360Y0008526D01*
X0336272Y0008416D01*
X0336181Y0008309D01*
X0336087Y0008204D01*
X0335990Y0008102D01*
X0335890Y0008003D01*
X0335787Y0007906D01*
X0335682Y0007813D01*
X0335574Y0007722D01*
X0335463Y0007635D01*
X0335350Y0007551D01*
X0335235Y0007470D01*
X0335118Y0007392D01*
X0334998Y0007318D01*
X0334876Y0007247D01*
X0334753Y0007179D01*
X0334627Y0007115D01*
X0334500Y0007055D01*
X0334371Y0006998D01*
X0334241Y0006944D01*
X0334109Y0006895D01*
X0333975Y0006849D01*
X0333841Y0006807D01*
X0333705Y0006769D01*
X0333569Y0006734D01*
X0333431Y0006704D01*
X0333293Y0006677D01*
X0333154Y0006655D01*
X0333014Y0006636D01*
X0332874Y0006621D01*
X0332734Y0006610D01*
X0332593Y0006603D01*
X0332452Y0006600D01*
X0332311Y0006601D01*
X0332171Y0006606D01*
X0332030Y0006615D01*
X0331890Y0006628D01*
X0331750Y0006645D01*
X0331610Y0006665D01*
X0331472Y0006690D01*
X0331334Y0006719D01*
X0331197Y0006751D01*
X0331061Y0006787D01*
X0330926Y0006828D01*
X0330792Y0006872D01*
X0330659Y0006919D01*
X0330528Y0006971D01*
X0330398Y0007026D01*
X0330270Y0007084D01*
X0330144Y0007147D01*
X0330019Y0007212D01*
X0329897Y0007282D01*
X0329776Y0007354D01*
X0329657Y0007430D01*
X0329541Y0007510D01*
X0329427Y0007593D01*
X0329315Y0007678D01*
X0329206Y0007767D01*
X0329099Y0007859D01*
X0328995Y0007954D01*
X0328894Y0008052D01*
X0328795Y0008153D01*
X0328700Y0008256D01*
X0328607Y0008362D01*
X0328517Y0008471D01*
X0328431Y0008582D01*
X0328347Y0008695D01*
X0328267Y0008811D01*
X0328190Y0008929D01*
X0328117Y0009049D01*
X0328046Y0009172D01*
X0327980Y0009296D01*
X0327917Y0009422D01*
X0327857Y0009549D01*
X0327801Y0009678D01*
X0327749Y0009809D01*
X0327700Y0009941D01*
X0327655Y0010075D01*
X0327614Y0010210D01*
X0327577Y0010346D01*
X0327543Y0010482D01*
X0327514Y0010620D01*
X0327488Y0010759D01*
X0327467Y0010898D01*
X0327449Y0011038D01*
X0327435Y0011178D01*
X0327425Y0011318D01*
X0327419Y0011459D01*
X0327417Y0011600D01*
X0166630Y0266600D02*
X0166632Y0266769D01*
X0166638Y0266938D01*
X0166649Y0267107D01*
X0166663Y0267275D01*
X0166682Y0267443D01*
X0166705Y0267611D01*
X0166731Y0267778D01*
X0166762Y0267944D01*
X0166797Y0268110D01*
X0166836Y0268274D01*
X0166880Y0268438D01*
X0166927Y0268600D01*
X0166978Y0268761D01*
X0167033Y0268921D01*
X0167092Y0269080D01*
X0167154Y0269237D01*
X0167221Y0269392D01*
X0167292Y0269546D01*
X0167366Y0269698D01*
X0167444Y0269848D01*
X0167525Y0269996D01*
X0167610Y0270142D01*
X0167699Y0270286D01*
X0167791Y0270428D01*
X0167887Y0270567D01*
X0167986Y0270704D01*
X0168088Y0270839D01*
X0168194Y0270971D01*
X0168303Y0271100D01*
X0168415Y0271227D01*
X0168530Y0271351D01*
X0168648Y0271472D01*
X0168769Y0271590D01*
X0168893Y0271705D01*
X0169020Y0271817D01*
X0169149Y0271926D01*
X0169281Y0272032D01*
X0169416Y0272134D01*
X0169553Y0272233D01*
X0169692Y0272329D01*
X0169834Y0272421D01*
X0169978Y0272510D01*
X0170124Y0272595D01*
X0170272Y0272676D01*
X0170422Y0272754D01*
X0170574Y0272828D01*
X0170728Y0272899D01*
X0170883Y0272966D01*
X0171040Y0273028D01*
X0171199Y0273087D01*
X0171359Y0273142D01*
X0171520Y0273193D01*
X0171682Y0273240D01*
X0171846Y0273284D01*
X0172010Y0273323D01*
X0172176Y0273358D01*
X0172342Y0273389D01*
X0172509Y0273415D01*
X0172677Y0273438D01*
X0172845Y0273457D01*
X0173013Y0273471D01*
X0173182Y0273482D01*
X0173351Y0273488D01*
X0173520Y0273490D01*
X0173689Y0273488D01*
X0173858Y0273482D01*
X0174027Y0273471D01*
X0174195Y0273457D01*
X0174363Y0273438D01*
X0174531Y0273415D01*
X0174698Y0273389D01*
X0174864Y0273358D01*
X0175030Y0273323D01*
X0175194Y0273284D01*
X0175358Y0273240D01*
X0175520Y0273193D01*
X0175681Y0273142D01*
X0175841Y0273087D01*
X0176000Y0273028D01*
X0176157Y0272966D01*
X0176312Y0272899D01*
X0176466Y0272828D01*
X0176618Y0272754D01*
X0176768Y0272676D01*
X0176916Y0272595D01*
X0177062Y0272510D01*
X0177206Y0272421D01*
X0177348Y0272329D01*
X0177487Y0272233D01*
X0177624Y0272134D01*
X0177759Y0272032D01*
X0177891Y0271926D01*
X0178020Y0271817D01*
X0178147Y0271705D01*
X0178271Y0271590D01*
X0178392Y0271472D01*
X0178510Y0271351D01*
X0178625Y0271227D01*
X0178737Y0271100D01*
X0178846Y0270971D01*
X0178952Y0270839D01*
X0179054Y0270704D01*
X0179153Y0270567D01*
X0179249Y0270428D01*
X0179341Y0270286D01*
X0179430Y0270142D01*
X0179515Y0269996D01*
X0179596Y0269848D01*
X0179674Y0269698D01*
X0179748Y0269546D01*
X0179819Y0269392D01*
X0179886Y0269237D01*
X0179948Y0269080D01*
X0180007Y0268921D01*
X0180062Y0268761D01*
X0180113Y0268600D01*
X0180160Y0268438D01*
X0180204Y0268274D01*
X0180243Y0268110D01*
X0180278Y0267944D01*
X0180309Y0267778D01*
X0180335Y0267611D01*
X0180358Y0267443D01*
X0180377Y0267275D01*
X0180391Y0267107D01*
X0180402Y0266938D01*
X0180408Y0266769D01*
X0180410Y0266600D01*
X0180408Y0266431D01*
X0180402Y0266262D01*
X0180391Y0266093D01*
X0180377Y0265925D01*
X0180358Y0265757D01*
X0180335Y0265589D01*
X0180309Y0265422D01*
X0180278Y0265256D01*
X0180243Y0265090D01*
X0180204Y0264926D01*
X0180160Y0264762D01*
X0180113Y0264600D01*
X0180062Y0264439D01*
X0180007Y0264279D01*
X0179948Y0264120D01*
X0179886Y0263963D01*
X0179819Y0263808D01*
X0179748Y0263654D01*
X0179674Y0263502D01*
X0179596Y0263352D01*
X0179515Y0263204D01*
X0179430Y0263058D01*
X0179341Y0262914D01*
X0179249Y0262772D01*
X0179153Y0262633D01*
X0179054Y0262496D01*
X0178952Y0262361D01*
X0178846Y0262229D01*
X0178737Y0262100D01*
X0178625Y0261973D01*
X0178510Y0261849D01*
X0178392Y0261728D01*
X0178271Y0261610D01*
X0178147Y0261495D01*
X0178020Y0261383D01*
X0177891Y0261274D01*
X0177759Y0261168D01*
X0177624Y0261066D01*
X0177487Y0260967D01*
X0177348Y0260871D01*
X0177206Y0260779D01*
X0177062Y0260690D01*
X0176916Y0260605D01*
X0176768Y0260524D01*
X0176618Y0260446D01*
X0176466Y0260372D01*
X0176312Y0260301D01*
X0176157Y0260234D01*
X0176000Y0260172D01*
X0175841Y0260113D01*
X0175681Y0260058D01*
X0175520Y0260007D01*
X0175358Y0259960D01*
X0175194Y0259916D01*
X0175030Y0259877D01*
X0174864Y0259842D01*
X0174698Y0259811D01*
X0174531Y0259785D01*
X0174363Y0259762D01*
X0174195Y0259743D01*
X0174027Y0259729D01*
X0173858Y0259718D01*
X0173689Y0259712D01*
X0173520Y0259710D01*
X0173351Y0259712D01*
X0173182Y0259718D01*
X0173013Y0259729D01*
X0172845Y0259743D01*
X0172677Y0259762D01*
X0172509Y0259785D01*
X0172342Y0259811D01*
X0172176Y0259842D01*
X0172010Y0259877D01*
X0171846Y0259916D01*
X0171682Y0259960D01*
X0171520Y0260007D01*
X0171359Y0260058D01*
X0171199Y0260113D01*
X0171040Y0260172D01*
X0170883Y0260234D01*
X0170728Y0260301D01*
X0170574Y0260372D01*
X0170422Y0260446D01*
X0170272Y0260524D01*
X0170124Y0260605D01*
X0169978Y0260690D01*
X0169834Y0260779D01*
X0169692Y0260871D01*
X0169553Y0260967D01*
X0169416Y0261066D01*
X0169281Y0261168D01*
X0169149Y0261274D01*
X0169020Y0261383D01*
X0168893Y0261495D01*
X0168769Y0261610D01*
X0168648Y0261728D01*
X0168530Y0261849D01*
X0168415Y0261973D01*
X0168303Y0262100D01*
X0168194Y0262229D01*
X0168088Y0262361D01*
X0167986Y0262496D01*
X0167887Y0262633D01*
X0167791Y0262772D01*
X0167699Y0262914D01*
X0167610Y0263058D01*
X0167525Y0263204D01*
X0167444Y0263352D01*
X0167366Y0263502D01*
X0167292Y0263654D01*
X0167221Y0263808D01*
X0167154Y0263963D01*
X0167092Y0264120D01*
X0167033Y0264279D01*
X0166978Y0264439D01*
X0166927Y0264600D01*
X0166880Y0264762D01*
X0166836Y0264926D01*
X0166797Y0265090D01*
X0166762Y0265256D01*
X0166731Y0265422D01*
X0166705Y0265589D01*
X0166682Y0265757D01*
X0166663Y0265925D01*
X0166649Y0266093D01*
X0166638Y0266262D01*
X0166632Y0266431D01*
X0166630Y0266600D01*
X0018520Y0311600D02*
X0018522Y0311741D01*
X0018528Y0311882D01*
X0018538Y0312022D01*
X0018552Y0312162D01*
X0018570Y0312302D01*
X0018591Y0312441D01*
X0018617Y0312580D01*
X0018646Y0312718D01*
X0018680Y0312854D01*
X0018717Y0312990D01*
X0018758Y0313125D01*
X0018803Y0313259D01*
X0018852Y0313391D01*
X0018904Y0313522D01*
X0018960Y0313651D01*
X0019020Y0313778D01*
X0019083Y0313904D01*
X0019149Y0314028D01*
X0019220Y0314151D01*
X0019293Y0314271D01*
X0019370Y0314389D01*
X0019450Y0314505D01*
X0019534Y0314618D01*
X0019620Y0314729D01*
X0019710Y0314838D01*
X0019803Y0314944D01*
X0019898Y0315047D01*
X0019997Y0315148D01*
X0020098Y0315246D01*
X0020202Y0315341D01*
X0020309Y0315433D01*
X0020418Y0315522D01*
X0020530Y0315607D01*
X0020644Y0315690D01*
X0020760Y0315770D01*
X0020879Y0315846D01*
X0021000Y0315918D01*
X0021122Y0315988D01*
X0021247Y0316053D01*
X0021373Y0316116D01*
X0021501Y0316174D01*
X0021631Y0316229D01*
X0021762Y0316281D01*
X0021895Y0316328D01*
X0022029Y0316372D01*
X0022164Y0316413D01*
X0022300Y0316449D01*
X0022437Y0316481D01*
X0022575Y0316510D01*
X0022713Y0316535D01*
X0022853Y0316555D01*
X0022993Y0316572D01*
X0023133Y0316585D01*
X0023274Y0316594D01*
X0023414Y0316599D01*
X0023555Y0316600D01*
X0023696Y0316597D01*
X0023837Y0316590D01*
X0023977Y0316579D01*
X0024117Y0316564D01*
X0024257Y0316545D01*
X0024396Y0316523D01*
X0024534Y0316496D01*
X0024672Y0316466D01*
X0024808Y0316431D01*
X0024944Y0316393D01*
X0025078Y0316351D01*
X0025212Y0316305D01*
X0025344Y0316256D01*
X0025474Y0316202D01*
X0025603Y0316145D01*
X0025730Y0316085D01*
X0025856Y0316021D01*
X0025979Y0315953D01*
X0026101Y0315882D01*
X0026221Y0315808D01*
X0026338Y0315730D01*
X0026453Y0315649D01*
X0026566Y0315565D01*
X0026677Y0315478D01*
X0026785Y0315387D01*
X0026890Y0315294D01*
X0026993Y0315197D01*
X0027093Y0315098D01*
X0027190Y0314996D01*
X0027284Y0314891D01*
X0027375Y0314784D01*
X0027463Y0314674D01*
X0027548Y0314562D01*
X0027630Y0314447D01*
X0027709Y0314330D01*
X0027784Y0314211D01*
X0027856Y0314090D01*
X0027924Y0313967D01*
X0027989Y0313842D01*
X0028051Y0313715D01*
X0028108Y0313586D01*
X0028163Y0313456D01*
X0028213Y0313325D01*
X0028260Y0313192D01*
X0028303Y0313058D01*
X0028342Y0312922D01*
X0028377Y0312786D01*
X0028409Y0312649D01*
X0028436Y0312511D01*
X0028460Y0312372D01*
X0028480Y0312232D01*
X0028496Y0312092D01*
X0028508Y0311952D01*
X0028516Y0311811D01*
X0028520Y0311670D01*
X0028520Y0311530D01*
X0028516Y0311389D01*
X0028508Y0311248D01*
X0028496Y0311108D01*
X0028480Y0310968D01*
X0028460Y0310828D01*
X0028436Y0310689D01*
X0028409Y0310551D01*
X0028377Y0310414D01*
X0028342Y0310278D01*
X0028303Y0310142D01*
X0028260Y0310008D01*
X0028213Y0309875D01*
X0028163Y0309744D01*
X0028108Y0309614D01*
X0028051Y0309485D01*
X0027989Y0309358D01*
X0027924Y0309233D01*
X0027856Y0309110D01*
X0027784Y0308989D01*
X0027709Y0308870D01*
X0027630Y0308753D01*
X0027548Y0308638D01*
X0027463Y0308526D01*
X0027375Y0308416D01*
X0027284Y0308309D01*
X0027190Y0308204D01*
X0027093Y0308102D01*
X0026993Y0308003D01*
X0026890Y0307906D01*
X0026785Y0307813D01*
X0026677Y0307722D01*
X0026566Y0307635D01*
X0026453Y0307551D01*
X0026338Y0307470D01*
X0026221Y0307392D01*
X0026101Y0307318D01*
X0025979Y0307247D01*
X0025856Y0307179D01*
X0025730Y0307115D01*
X0025603Y0307055D01*
X0025474Y0306998D01*
X0025344Y0306944D01*
X0025212Y0306895D01*
X0025078Y0306849D01*
X0024944Y0306807D01*
X0024808Y0306769D01*
X0024672Y0306734D01*
X0024534Y0306704D01*
X0024396Y0306677D01*
X0024257Y0306655D01*
X0024117Y0306636D01*
X0023977Y0306621D01*
X0023837Y0306610D01*
X0023696Y0306603D01*
X0023555Y0306600D01*
X0023414Y0306601D01*
X0023274Y0306606D01*
X0023133Y0306615D01*
X0022993Y0306628D01*
X0022853Y0306645D01*
X0022713Y0306665D01*
X0022575Y0306690D01*
X0022437Y0306719D01*
X0022300Y0306751D01*
X0022164Y0306787D01*
X0022029Y0306828D01*
X0021895Y0306872D01*
X0021762Y0306919D01*
X0021631Y0306971D01*
X0021501Y0307026D01*
X0021373Y0307084D01*
X0021247Y0307147D01*
X0021122Y0307212D01*
X0021000Y0307282D01*
X0020879Y0307354D01*
X0020760Y0307430D01*
X0020644Y0307510D01*
X0020530Y0307593D01*
X0020418Y0307678D01*
X0020309Y0307767D01*
X0020202Y0307859D01*
X0020098Y0307954D01*
X0019997Y0308052D01*
X0019898Y0308153D01*
X0019803Y0308256D01*
X0019710Y0308362D01*
X0019620Y0308471D01*
X0019534Y0308582D01*
X0019450Y0308695D01*
X0019370Y0308811D01*
X0019293Y0308929D01*
X0019220Y0309049D01*
X0019149Y0309172D01*
X0019083Y0309296D01*
X0019020Y0309422D01*
X0018960Y0309549D01*
X0018904Y0309678D01*
X0018852Y0309809D01*
X0018803Y0309941D01*
X0018758Y0310075D01*
X0018717Y0310210D01*
X0018680Y0310346D01*
X0018646Y0310482D01*
X0018617Y0310620D01*
X0018591Y0310759D01*
X0018570Y0310898D01*
X0018552Y0311038D01*
X0018538Y0311178D01*
X0018528Y0311318D01*
X0018522Y0311459D01*
X0018520Y0311600D01*
X0327417Y0311600D02*
X0327419Y0311741D01*
X0327425Y0311882D01*
X0327435Y0312022D01*
X0327449Y0312162D01*
X0327467Y0312302D01*
X0327488Y0312441D01*
X0327514Y0312580D01*
X0327543Y0312718D01*
X0327577Y0312854D01*
X0327614Y0312990D01*
X0327655Y0313125D01*
X0327700Y0313259D01*
X0327749Y0313391D01*
X0327801Y0313522D01*
X0327857Y0313651D01*
X0327917Y0313778D01*
X0327980Y0313904D01*
X0328046Y0314028D01*
X0328117Y0314151D01*
X0328190Y0314271D01*
X0328267Y0314389D01*
X0328347Y0314505D01*
X0328431Y0314618D01*
X0328517Y0314729D01*
X0328607Y0314838D01*
X0328700Y0314944D01*
X0328795Y0315047D01*
X0328894Y0315148D01*
X0328995Y0315246D01*
X0329099Y0315341D01*
X0329206Y0315433D01*
X0329315Y0315522D01*
X0329427Y0315607D01*
X0329541Y0315690D01*
X0329657Y0315770D01*
X0329776Y0315846D01*
X0329897Y0315918D01*
X0330019Y0315988D01*
X0330144Y0316053D01*
X0330270Y0316116D01*
X0330398Y0316174D01*
X0330528Y0316229D01*
X0330659Y0316281D01*
X0330792Y0316328D01*
X0330926Y0316372D01*
X0331061Y0316413D01*
X0331197Y0316449D01*
X0331334Y0316481D01*
X0331472Y0316510D01*
X0331610Y0316535D01*
X0331750Y0316555D01*
X0331890Y0316572D01*
X0332030Y0316585D01*
X0332171Y0316594D01*
X0332311Y0316599D01*
X0332452Y0316600D01*
X0332593Y0316597D01*
X0332734Y0316590D01*
X0332874Y0316579D01*
X0333014Y0316564D01*
X0333154Y0316545D01*
X0333293Y0316523D01*
X0333431Y0316496D01*
X0333569Y0316466D01*
X0333705Y0316431D01*
X0333841Y0316393D01*
X0333975Y0316351D01*
X0334109Y0316305D01*
X0334241Y0316256D01*
X0334371Y0316202D01*
X0334500Y0316145D01*
X0334627Y0316085D01*
X0334753Y0316021D01*
X0334876Y0315953D01*
X0334998Y0315882D01*
X0335118Y0315808D01*
X0335235Y0315730D01*
X0335350Y0315649D01*
X0335463Y0315565D01*
X0335574Y0315478D01*
X0335682Y0315387D01*
X0335787Y0315294D01*
X0335890Y0315197D01*
X0335990Y0315098D01*
X0336087Y0314996D01*
X0336181Y0314891D01*
X0336272Y0314784D01*
X0336360Y0314674D01*
X0336445Y0314562D01*
X0336527Y0314447D01*
X0336606Y0314330D01*
X0336681Y0314211D01*
X0336753Y0314090D01*
X0336821Y0313967D01*
X0336886Y0313842D01*
X0336948Y0313715D01*
X0337005Y0313586D01*
X0337060Y0313456D01*
X0337110Y0313325D01*
X0337157Y0313192D01*
X0337200Y0313058D01*
X0337239Y0312922D01*
X0337274Y0312786D01*
X0337306Y0312649D01*
X0337333Y0312511D01*
X0337357Y0312372D01*
X0337377Y0312232D01*
X0337393Y0312092D01*
X0337405Y0311952D01*
X0337413Y0311811D01*
X0337417Y0311670D01*
X0337417Y0311530D01*
X0337413Y0311389D01*
X0337405Y0311248D01*
X0337393Y0311108D01*
X0337377Y0310968D01*
X0337357Y0310828D01*
X0337333Y0310689D01*
X0337306Y0310551D01*
X0337274Y0310414D01*
X0337239Y0310278D01*
X0337200Y0310142D01*
X0337157Y0310008D01*
X0337110Y0309875D01*
X0337060Y0309744D01*
X0337005Y0309614D01*
X0336948Y0309485D01*
X0336886Y0309358D01*
X0336821Y0309233D01*
X0336753Y0309110D01*
X0336681Y0308989D01*
X0336606Y0308870D01*
X0336527Y0308753D01*
X0336445Y0308638D01*
X0336360Y0308526D01*
X0336272Y0308416D01*
X0336181Y0308309D01*
X0336087Y0308204D01*
X0335990Y0308102D01*
X0335890Y0308003D01*
X0335787Y0307906D01*
X0335682Y0307813D01*
X0335574Y0307722D01*
X0335463Y0307635D01*
X0335350Y0307551D01*
X0335235Y0307470D01*
X0335118Y0307392D01*
X0334998Y0307318D01*
X0334876Y0307247D01*
X0334753Y0307179D01*
X0334627Y0307115D01*
X0334500Y0307055D01*
X0334371Y0306998D01*
X0334241Y0306944D01*
X0334109Y0306895D01*
X0333975Y0306849D01*
X0333841Y0306807D01*
X0333705Y0306769D01*
X0333569Y0306734D01*
X0333431Y0306704D01*
X0333293Y0306677D01*
X0333154Y0306655D01*
X0333014Y0306636D01*
X0332874Y0306621D01*
X0332734Y0306610D01*
X0332593Y0306603D01*
X0332452Y0306600D01*
X0332311Y0306601D01*
X0332171Y0306606D01*
X0332030Y0306615D01*
X0331890Y0306628D01*
X0331750Y0306645D01*
X0331610Y0306665D01*
X0331472Y0306690D01*
X0331334Y0306719D01*
X0331197Y0306751D01*
X0331061Y0306787D01*
X0330926Y0306828D01*
X0330792Y0306872D01*
X0330659Y0306919D01*
X0330528Y0306971D01*
X0330398Y0307026D01*
X0330270Y0307084D01*
X0330144Y0307147D01*
X0330019Y0307212D01*
X0329897Y0307282D01*
X0329776Y0307354D01*
X0329657Y0307430D01*
X0329541Y0307510D01*
X0329427Y0307593D01*
X0329315Y0307678D01*
X0329206Y0307767D01*
X0329099Y0307859D01*
X0328995Y0307954D01*
X0328894Y0308052D01*
X0328795Y0308153D01*
X0328700Y0308256D01*
X0328607Y0308362D01*
X0328517Y0308471D01*
X0328431Y0308582D01*
X0328347Y0308695D01*
X0328267Y0308811D01*
X0328190Y0308929D01*
X0328117Y0309049D01*
X0328046Y0309172D01*
X0327980Y0309296D01*
X0327917Y0309422D01*
X0327857Y0309549D01*
X0327801Y0309678D01*
X0327749Y0309809D01*
X0327700Y0309941D01*
X0327655Y0310075D01*
X0327614Y0310210D01*
X0327577Y0310346D01*
X0327543Y0310482D01*
X0327514Y0310620D01*
X0327488Y0310759D01*
X0327467Y0310898D01*
X0327449Y0311038D01*
X0327435Y0311178D01*
X0327425Y0311318D01*
X0327419Y0311459D01*
X0327417Y0311600D01*
D12*
X0313520Y0296600D03*
X0303520Y0296600D03*
X0293520Y0296600D03*
X0283520Y0296600D03*
X0233520Y0296600D03*
X0223520Y0296600D03*
X0213520Y0296600D03*
X0203520Y0296600D03*
X0153520Y0296600D03*
X0143520Y0296600D03*
X0133520Y0296600D03*
X0123520Y0296600D03*
X0073520Y0296600D03*
X0063520Y0296600D03*
X0053520Y0296600D03*
X0043520Y0296600D03*
X0043520Y0026600D03*
X0053520Y0026600D03*
X0063520Y0026600D03*
X0073520Y0026600D03*
X0123520Y0026600D03*
X0133520Y0026600D03*
X0143520Y0026600D03*
X0153520Y0026600D03*
X0203520Y0026600D03*
X0213520Y0026600D03*
X0223520Y0026600D03*
X0233520Y0026600D03*
X0283520Y0026600D03*
X0293520Y0026600D03*
X0303520Y0026600D03*
X0313520Y0026600D03*
D13*
X0055331Y0117300D02*
X0055331Y0125900D01*
X0031709Y0125900D02*
X0031709Y0117300D01*
X0039220Y0102702D02*
X0047820Y0102702D01*
D14*
X0073520Y0101600D03*
X0073520Y0111600D03*
X0073520Y0121600D03*
X0073520Y0131600D03*
X0073520Y0141600D03*
X0073520Y0151600D03*
X0083520Y0146600D03*
X0083520Y0136600D03*
X0073520Y0161600D03*
X0073520Y0171600D03*
X0073520Y0181600D03*
X0073520Y0191600D03*
X0073520Y0201600D03*
X0073520Y0211600D03*
X0083520Y0211600D03*
X0093520Y0211600D03*
X0103520Y0211600D03*
X0113520Y0236600D03*
X0113520Y0246600D03*
X0123520Y0246600D03*
X0123520Y0256600D03*
X0123520Y0266600D03*
X0113520Y0266600D03*
X0113520Y0256600D03*
X0133520Y0211600D03*
X0133520Y0201600D03*
X0133520Y0191600D03*
X0133520Y0181600D03*
X0133520Y0171600D03*
X0133520Y0161600D03*
X0133520Y0151600D03*
X0133520Y0141600D03*
X0133520Y0131600D03*
X0133520Y0121600D03*
X0133520Y0111600D03*
X0133520Y0101600D03*
D15*
X0202020Y0261600D03*
D16*
X0202020Y0251600D03*
X0202020Y0241600D03*
X0202020Y0231600D03*
X0202020Y0221600D03*
X0318520Y0231600D03*
X0318520Y0241600D03*
X0318520Y0251600D03*
X0318520Y0261600D03*
D17*
X0038520Y0191443D03*
D18*
X0038520Y0171757D03*
D19*
X0313520Y0171600D03*
X0318520Y0171600D03*
X0318520Y0166600D03*
X0318520Y0161600D03*
X0318520Y0156600D03*
X0318520Y0151600D03*
X0313520Y0151600D03*
X0313520Y0156600D03*
X0313520Y0161600D03*
X0313520Y0166600D03*
D20*
X0043520Y0076600D03*
X0043520Y0066600D03*
X0043520Y0056600D03*
X0043520Y0046600D03*
D21*
X0123520Y0236600D03*
D22*
X0123904Y0236984D02*
X0123135Y0236984D01*
X0123135Y0241153D01*
X0120520Y0241153D01*
X0120520Y0243444D01*
X0121054Y0242910D01*
X0122654Y0242247D01*
X0124385Y0242247D01*
X0125985Y0242910D01*
X0126520Y0243444D01*
X0126520Y0241153D01*
X0123904Y0241153D01*
X0123904Y0236984D01*
X0123904Y0236216D02*
X0123904Y0232047D01*
X0126520Y0232047D01*
X0126520Y0148772D01*
X0127691Y0147600D01*
X0130528Y0144764D01*
X0129830Y0144066D01*
X0129167Y0142466D01*
X0129167Y0140734D01*
X0129830Y0139134D01*
X0131054Y0137910D01*
X0132654Y0137247D01*
X0134385Y0137247D01*
X0135985Y0137910D01*
X0137210Y0139134D01*
X0137872Y0140734D01*
X0137872Y0142466D01*
X0137210Y0144066D01*
X0135985Y0145290D01*
X0135427Y0145522D01*
X0133701Y0147247D01*
X0134385Y0147247D01*
X0135985Y0147910D01*
X0137210Y0149134D01*
X0137403Y0149600D01*
X0308051Y0149600D01*
X0311332Y0146319D01*
X0315707Y0146319D01*
X0317831Y0148442D01*
X0317887Y0148419D01*
X0319152Y0148419D01*
X0320322Y0148903D01*
X0321216Y0149798D01*
X0321701Y0150967D01*
X0321701Y0152233D01*
X0321216Y0153402D01*
X0320518Y0154100D01*
X0321216Y0154798D01*
X0321701Y0155967D01*
X0321701Y0157233D01*
X0321216Y0158402D01*
X0320518Y0159100D01*
X0321216Y0159798D01*
X0321701Y0160967D01*
X0321701Y0162233D01*
X0321216Y0163402D01*
X0320657Y0163962D01*
X0320675Y0163974D01*
X0321146Y0164445D01*
X0321516Y0164998D01*
X0321771Y0165614D01*
X0321901Y0166267D01*
X0321901Y0166600D01*
X0321901Y0166933D01*
X0321771Y0167586D01*
X0321516Y0168202D01*
X0321146Y0168755D01*
X0320675Y0169226D01*
X0320657Y0169238D01*
X0321216Y0169798D01*
X0321701Y0170967D01*
X0321701Y0171953D01*
X0330520Y0180772D01*
X0330520Y0257428D01*
X0329348Y0258600D01*
X0324348Y0263600D01*
X0321763Y0263600D01*
X0321709Y0263731D01*
X0320651Y0264789D01*
X0319268Y0265362D01*
X0317771Y0265362D01*
X0316389Y0264789D01*
X0315330Y0263731D01*
X0314757Y0262348D01*
X0314757Y0260852D01*
X0315330Y0259469D01*
X0316389Y0258411D01*
X0317771Y0257838D01*
X0319268Y0257838D01*
X0320651Y0258411D01*
X0321709Y0259469D01*
X0321763Y0259600D01*
X0322691Y0259600D01*
X0326520Y0255772D01*
X0326520Y0182428D01*
X0318872Y0174781D01*
X0317887Y0174781D01*
X0316718Y0174297D01*
X0316221Y0173800D01*
X0315818Y0173800D01*
X0315322Y0174297D01*
X0314152Y0174781D01*
X0312887Y0174781D01*
X0311718Y0174297D01*
X0310823Y0173402D01*
X0310339Y0172233D01*
X0310339Y0170967D01*
X0310823Y0169798D01*
X0311383Y0169238D01*
X0311364Y0169226D01*
X0310893Y0168755D01*
X0310523Y0168202D01*
X0310269Y0167586D01*
X0310139Y0166933D01*
X0310139Y0166600D01*
X0310139Y0166267D01*
X0310269Y0165614D01*
X0310523Y0164998D01*
X0310893Y0164445D01*
X0311364Y0163974D01*
X0311383Y0163962D01*
X0310823Y0163402D01*
X0310339Y0162233D01*
X0310339Y0160967D01*
X0310823Y0159798D01*
X0311521Y0159100D01*
X0310823Y0158402D01*
X0310339Y0157233D01*
X0310339Y0155967D01*
X0310823Y0154798D01*
X0311521Y0154100D01*
X0310823Y0153402D01*
X0310554Y0152754D01*
X0309708Y0153600D01*
X0137403Y0153600D01*
X0137210Y0154066D01*
X0135985Y0155290D01*
X0134385Y0155953D01*
X0132654Y0155953D01*
X0131054Y0155290D01*
X0130520Y0154756D01*
X0130520Y0158444D01*
X0131054Y0157910D01*
X0132654Y0157247D01*
X0134385Y0157247D01*
X0135985Y0157910D01*
X0137210Y0159134D01*
X0137872Y0160734D01*
X0137872Y0162466D01*
X0137210Y0164066D01*
X0135985Y0165290D01*
X0134385Y0165953D01*
X0132654Y0165953D01*
X0131054Y0165290D01*
X0130520Y0164756D01*
X0130520Y0168444D01*
X0131054Y0167910D01*
X0132654Y0167247D01*
X0134385Y0167247D01*
X0135985Y0167910D01*
X0137210Y0169134D01*
X0137872Y0170734D01*
X0137872Y0172466D01*
X0137210Y0174066D01*
X0135985Y0175290D01*
X0134385Y0175953D01*
X0132654Y0175953D01*
X0131054Y0175290D01*
X0130520Y0174756D01*
X0130520Y0178444D01*
X0131054Y0177910D01*
X0132654Y0177247D01*
X0134385Y0177247D01*
X0135985Y0177910D01*
X0137210Y0179134D01*
X0137872Y0180734D01*
X0137872Y0182466D01*
X0137210Y0184066D01*
X0135985Y0185290D01*
X0134385Y0185953D01*
X0132654Y0185953D01*
X0131054Y0185290D01*
X0130520Y0184756D01*
X0130520Y0188444D01*
X0131054Y0187910D01*
X0132654Y0187247D01*
X0134385Y0187247D01*
X0135985Y0187910D01*
X0137210Y0189134D01*
X0137872Y0190734D01*
X0137872Y0192466D01*
X0137680Y0192931D01*
X0184348Y0239600D01*
X0198776Y0239600D01*
X0198830Y0239469D01*
X0199889Y0238411D01*
X0201271Y0237838D01*
X0202768Y0237838D01*
X0204151Y0238411D01*
X0205209Y0239469D01*
X0205782Y0240852D01*
X0205782Y0242348D01*
X0205209Y0243731D01*
X0204151Y0244789D01*
X0202768Y0245362D01*
X0201271Y0245362D01*
X0199889Y0244789D01*
X0198830Y0243731D01*
X0198776Y0243600D01*
X0182691Y0243600D01*
X0134851Y0195760D01*
X0134385Y0195953D01*
X0132654Y0195953D01*
X0131054Y0195290D01*
X0130520Y0194756D01*
X0130520Y0198444D01*
X0131054Y0197910D01*
X0132654Y0197247D01*
X0134385Y0197247D01*
X0135985Y0197910D01*
X0137210Y0199134D01*
X0137872Y0200734D01*
X0137872Y0202466D01*
X0137210Y0204066D01*
X0135985Y0205290D01*
X0134385Y0205953D01*
X0132654Y0205953D01*
X0131054Y0205290D01*
X0130520Y0204756D01*
X0130520Y0208444D01*
X0131054Y0207910D01*
X0132654Y0207247D01*
X0134385Y0207247D01*
X0135985Y0207910D01*
X0137210Y0209134D01*
X0137872Y0210734D01*
X0137872Y0212466D01*
X0137210Y0214066D01*
X0135985Y0215290D01*
X0134385Y0215953D01*
X0132654Y0215953D01*
X0131054Y0215290D01*
X0130520Y0214756D01*
X0130520Y0259428D01*
X0127520Y0262428D01*
X0126512Y0263436D01*
X0127210Y0264134D01*
X0127872Y0265734D01*
X0127872Y0267466D01*
X0127210Y0269066D01*
X0125985Y0270290D01*
X0124385Y0270953D01*
X0122654Y0270953D01*
X0122188Y0270760D01*
X0119348Y0273600D01*
X0113348Y0273600D01*
X0128348Y0288600D01*
X0198348Y0288600D01*
X0199520Y0289772D01*
X0201616Y0291868D01*
X0202505Y0291500D01*
X0204534Y0291500D01*
X0206409Y0292276D01*
X0207843Y0293711D01*
X0208520Y0295344D01*
X0209196Y0293711D01*
X0210631Y0292276D01*
X0212505Y0291500D01*
X0214534Y0291500D01*
X0216409Y0292276D01*
X0217843Y0293711D01*
X0218427Y0295121D01*
X0218608Y0294566D01*
X0218987Y0293822D01*
X0219477Y0293147D01*
X0220067Y0292557D01*
X0220742Y0292067D01*
X0221485Y0291688D01*
X0222279Y0291430D01*
X0223103Y0291300D01*
X0223120Y0291300D01*
X0223120Y0296200D01*
X0223920Y0296200D01*
X0223920Y0291300D01*
X0223937Y0291300D01*
X0224761Y0291430D01*
X0225554Y0291688D01*
X0226297Y0292067D01*
X0226972Y0292557D01*
X0227562Y0293147D01*
X0228053Y0293822D01*
X0228431Y0294566D01*
X0228612Y0295121D01*
X0229196Y0293711D01*
X0230631Y0292276D01*
X0232505Y0291500D01*
X0234534Y0291500D01*
X0236409Y0292276D01*
X0237843Y0293711D01*
X0238620Y0295586D01*
X0238620Y0297614D01*
X0237843Y0299489D01*
X0236409Y0300924D01*
X0234534Y0301700D01*
X0232505Y0301700D01*
X0230631Y0300924D01*
X0229196Y0299489D01*
X0228612Y0298079D01*
X0228431Y0298634D01*
X0228053Y0299378D01*
X0227562Y0300053D01*
X0226972Y0300643D01*
X0226297Y0301133D01*
X0225554Y0301512D01*
X0224761Y0301769D01*
X0223937Y0301900D01*
X0223920Y0301900D01*
X0223920Y0297000D01*
X0223120Y0297000D01*
X0223120Y0301900D01*
X0223103Y0301900D01*
X0222279Y0301769D01*
X0221485Y0301512D01*
X0220742Y0301133D01*
X0220067Y0300643D01*
X0219477Y0300053D01*
X0218987Y0299378D01*
X0218608Y0298634D01*
X0218427Y0298079D01*
X0217843Y0299489D01*
X0216409Y0300924D01*
X0214534Y0301700D01*
X0212505Y0301700D01*
X0210631Y0300924D01*
X0209196Y0299489D01*
X0208520Y0297856D01*
X0207843Y0299489D01*
X0206409Y0300924D01*
X0204534Y0301700D01*
X0202505Y0301700D01*
X0200631Y0300924D01*
X0199196Y0299489D01*
X0198420Y0297614D01*
X0198420Y0295586D01*
X0198788Y0294697D01*
X0196691Y0292600D01*
X0156732Y0292600D01*
X0157843Y0293711D01*
X0158620Y0295586D01*
X0158620Y0297614D01*
X0157843Y0299489D01*
X0156409Y0300924D01*
X0154534Y0301700D01*
X0152505Y0301700D01*
X0150631Y0300924D01*
X0149196Y0299489D01*
X0148612Y0298079D01*
X0148431Y0298634D01*
X0148053Y0299378D01*
X0147562Y0300053D01*
X0146972Y0300643D01*
X0146297Y0301133D01*
X0145554Y0301512D01*
X0144761Y0301769D01*
X0143937Y0301900D01*
X0143920Y0301900D01*
X0143920Y0297000D01*
X0143120Y0297000D01*
X0143120Y0301900D01*
X0143103Y0301900D01*
X0142279Y0301769D01*
X0141485Y0301512D01*
X0140742Y0301133D01*
X0140067Y0300643D01*
X0139477Y0300053D01*
X0138987Y0299378D01*
X0138608Y0298634D01*
X0138427Y0298079D01*
X0137843Y0299489D01*
X0136409Y0300924D01*
X0134534Y0301700D01*
X0132505Y0301700D01*
X0130631Y0300924D01*
X0129196Y0299489D01*
X0128520Y0297856D01*
X0127843Y0299489D01*
X0126409Y0300924D01*
X0124534Y0301700D01*
X0122505Y0301700D01*
X0120631Y0300924D01*
X0119196Y0299489D01*
X0118420Y0297614D01*
X0118420Y0295586D01*
X0119196Y0293711D01*
X0120631Y0292276D01*
X0122505Y0291500D01*
X0124534Y0291500D01*
X0126339Y0292248D01*
X0125520Y0291428D01*
X0114209Y0280117D01*
X0114209Y0280135D01*
X0113799Y0281123D01*
X0113043Y0281880D01*
X0112055Y0282289D01*
X0110985Y0282289D01*
X0109996Y0281880D01*
X0109240Y0281123D01*
X0108831Y0280135D01*
X0108831Y0279739D01*
X0083520Y0254428D01*
X0083520Y0249403D01*
X0083240Y0249123D01*
X0082831Y0248135D01*
X0082831Y0247065D01*
X0083240Y0246077D01*
X0083996Y0245320D01*
X0084985Y0244911D01*
X0086055Y0244911D01*
X0087043Y0245320D01*
X0087799Y0246077D01*
X0088209Y0247065D01*
X0088209Y0248135D01*
X0087799Y0249123D01*
X0087520Y0249403D01*
X0087520Y0252772D01*
X0091520Y0256772D01*
X0091520Y0215483D01*
X0091054Y0215290D01*
X0089830Y0214066D01*
X0089167Y0212466D01*
X0089167Y0210734D01*
X0089830Y0209134D01*
X0091054Y0207910D01*
X0092654Y0207247D01*
X0093339Y0207247D01*
X0079691Y0193600D01*
X0077403Y0193600D01*
X0077210Y0194066D01*
X0075985Y0195290D01*
X0074385Y0195953D01*
X0072654Y0195953D01*
X0071054Y0195290D01*
X0069830Y0194066D01*
X0069167Y0192466D01*
X0069167Y0190734D01*
X0069830Y0189134D01*
X0071054Y0187910D01*
X0072654Y0187247D01*
X0074385Y0187247D01*
X0075985Y0187910D01*
X0077210Y0189134D01*
X0077403Y0189600D01*
X0081348Y0189600D01*
X0099348Y0207600D01*
X0100215Y0208467D01*
X0100554Y0208127D01*
X0101134Y0207706D01*
X0101772Y0207381D01*
X0102454Y0207159D01*
X0103135Y0207051D01*
X0103135Y0211216D01*
X0103904Y0211216D01*
X0103904Y0211984D01*
X0108068Y0211984D01*
X0107960Y0212666D01*
X0107739Y0213348D01*
X0107414Y0213986D01*
X0106992Y0214566D01*
X0106486Y0215073D01*
X0105906Y0215494D01*
X0105267Y0215819D01*
X0104586Y0216041D01*
X0103904Y0216149D01*
X0103904Y0211984D01*
X0103135Y0211984D01*
X0103135Y0216149D01*
X0102454Y0216041D01*
X0101772Y0215819D01*
X0101134Y0215494D01*
X0100554Y0215073D01*
X0100520Y0215039D01*
X0100520Y0257772D01*
X0109167Y0266419D01*
X0109167Y0265734D01*
X0109830Y0264134D01*
X0111054Y0262910D01*
X0112654Y0262247D01*
X0114385Y0262247D01*
X0114851Y0262440D01*
X0117691Y0259600D01*
X0120364Y0259600D01*
X0119830Y0259066D01*
X0119167Y0257466D01*
X0119167Y0255734D01*
X0119360Y0255269D01*
X0116520Y0252428D01*
X0116520Y0249756D01*
X0115985Y0250290D01*
X0114385Y0250953D01*
X0112654Y0250953D01*
X0111054Y0250290D01*
X0109830Y0249066D01*
X0109167Y0247466D01*
X0109167Y0245734D01*
X0109830Y0244134D01*
X0111054Y0242910D01*
X0112654Y0242247D01*
X0114385Y0242247D01*
X0115985Y0242910D01*
X0116520Y0243444D01*
X0116520Y0239756D01*
X0115985Y0240290D01*
X0114385Y0240953D01*
X0112654Y0240953D01*
X0111054Y0240290D01*
X0109830Y0239066D01*
X0109167Y0237466D01*
X0109167Y0235734D01*
X0109830Y0234134D01*
X0111054Y0232910D01*
X0112654Y0232247D01*
X0114385Y0232247D01*
X0115985Y0232910D01*
X0116520Y0233444D01*
X0116520Y0220428D01*
X0107307Y0211216D01*
X0103904Y0211216D01*
X0103904Y0207813D01*
X0079691Y0183600D01*
X0077403Y0183600D01*
X0077210Y0184066D01*
X0075985Y0185290D01*
X0074385Y0185953D01*
X0072654Y0185953D01*
X0071054Y0185290D01*
X0069830Y0184066D01*
X0069167Y0182466D01*
X0069167Y0180734D01*
X0069830Y0179134D01*
X0071054Y0177910D01*
X0072654Y0177247D01*
X0074385Y0177247D01*
X0075985Y0177910D01*
X0077210Y0179134D01*
X0077403Y0179600D01*
X0081348Y0179600D01*
X0119348Y0217600D01*
X0120520Y0218772D01*
X0120520Y0232047D01*
X0123135Y0232047D01*
X0123135Y0236216D01*
X0123904Y0236216D01*
X0123904Y0235516D02*
X0123135Y0235516D01*
X0123135Y0234317D02*
X0123904Y0234317D01*
X0123904Y0233119D02*
X0123135Y0233119D01*
X0120520Y0231920D02*
X0126520Y0231920D01*
X0126520Y0230722D02*
X0120520Y0230722D01*
X0120520Y0229523D02*
X0126520Y0229523D01*
X0126520Y0228325D02*
X0120520Y0228325D01*
X0120520Y0227126D02*
X0126520Y0227126D01*
X0126520Y0225928D02*
X0120520Y0225928D01*
X0120520Y0224729D02*
X0126520Y0224729D01*
X0126520Y0223531D02*
X0120520Y0223531D01*
X0120520Y0222332D02*
X0126520Y0222332D01*
X0126520Y0221134D02*
X0120520Y0221134D01*
X0120520Y0219935D02*
X0126520Y0219935D01*
X0126520Y0218737D02*
X0120485Y0218737D01*
X0119286Y0217538D02*
X0126520Y0217538D01*
X0126520Y0216339D02*
X0118088Y0216339D01*
X0116889Y0215141D02*
X0126520Y0215141D01*
X0126520Y0213942D02*
X0115691Y0213942D01*
X0114492Y0212744D02*
X0126520Y0212744D01*
X0126520Y0211545D02*
X0113294Y0211545D01*
X0112095Y0210347D02*
X0126520Y0210347D01*
X0126520Y0209148D02*
X0110897Y0209148D01*
X0109698Y0207950D02*
X0126520Y0207950D01*
X0126520Y0206751D02*
X0108499Y0206751D01*
X0107301Y0205553D02*
X0126520Y0205553D01*
X0126520Y0204354D02*
X0106102Y0204354D01*
X0104904Y0203156D02*
X0126520Y0203156D01*
X0126520Y0201957D02*
X0103705Y0201957D01*
X0102507Y0200759D02*
X0126520Y0200759D01*
X0126520Y0199560D02*
X0101308Y0199560D01*
X0100110Y0198362D02*
X0126520Y0198362D01*
X0126520Y0197163D02*
X0098911Y0197163D01*
X0097713Y0195965D02*
X0126520Y0195965D01*
X0126520Y0194766D02*
X0096514Y0194766D01*
X0095316Y0193568D02*
X0126520Y0193568D01*
X0126520Y0192369D02*
X0094117Y0192369D01*
X0092919Y0191171D02*
X0126520Y0191171D01*
X0126520Y0189972D02*
X0091720Y0189972D01*
X0090522Y0188774D02*
X0126520Y0188774D01*
X0126520Y0187575D02*
X0089323Y0187575D01*
X0088125Y0186377D02*
X0126520Y0186377D01*
X0126520Y0185178D02*
X0086926Y0185178D01*
X0085728Y0183980D02*
X0126520Y0183980D01*
X0126520Y0182781D02*
X0084529Y0182781D01*
X0083331Y0181583D02*
X0126520Y0181583D01*
X0126520Y0180384D02*
X0082132Y0180384D01*
X0080520Y0181600D02*
X0118520Y0219600D01*
X0118520Y0251600D01*
X0123520Y0256600D01*
X0119507Y0258287D02*
X0117532Y0258287D01*
X0117210Y0259066D02*
X0117872Y0257466D01*
X0117872Y0255734D01*
X0117210Y0254134D01*
X0115985Y0252910D01*
X0114385Y0252247D01*
X0112654Y0252247D01*
X0111054Y0252910D01*
X0109830Y0254134D01*
X0109167Y0255734D01*
X0109167Y0257466D01*
X0109830Y0259066D01*
X0111054Y0260290D01*
X0112654Y0260953D01*
X0114385Y0260953D01*
X0115985Y0260290D01*
X0117210Y0259066D01*
X0116790Y0259486D02*
X0120250Y0259486D01*
X0119167Y0257089D02*
X0117872Y0257089D01*
X0117872Y0255890D02*
X0119167Y0255890D01*
X0118783Y0254692D02*
X0117441Y0254692D01*
X0117585Y0253493D02*
X0116569Y0253493D01*
X0116520Y0252295D02*
X0114500Y0252295D01*
X0112539Y0252295D02*
X0100520Y0252295D01*
X0100520Y0253493D02*
X0110471Y0253493D01*
X0109599Y0254692D02*
X0100520Y0254692D01*
X0100520Y0255890D02*
X0109167Y0255890D01*
X0109167Y0257089D02*
X0100520Y0257089D01*
X0101035Y0258287D02*
X0109507Y0258287D01*
X0110250Y0259486D02*
X0102234Y0259486D01*
X0103432Y0260684D02*
X0112006Y0260684D01*
X0110883Y0263081D02*
X0105830Y0263081D01*
X0107028Y0264280D02*
X0109769Y0264280D01*
X0109273Y0265478D02*
X0108227Y0265478D01*
X0104631Y0261883D02*
X0115408Y0261883D01*
X0115033Y0260684D02*
X0116607Y0260684D01*
X0118520Y0261600D02*
X0113520Y0266600D01*
X0111520Y0271600D02*
X0098520Y0258600D01*
X0098520Y0209600D01*
X0080520Y0191600D01*
X0073520Y0191600D01*
X0075177Y0187575D02*
X0083666Y0187575D01*
X0082468Y0186377D02*
X0043434Y0186377D01*
X0043100Y0186043D02*
X0043920Y0186863D01*
X0043920Y0196022D01*
X0043100Y0196843D01*
X0033940Y0196843D01*
X0033120Y0196022D01*
X0033120Y0186863D01*
X0033940Y0186043D01*
X0043100Y0186043D01*
X0043920Y0187575D02*
X0071862Y0187575D01*
X0070190Y0188774D02*
X0043920Y0188774D01*
X0043920Y0189972D02*
X0069483Y0189972D01*
X0069167Y0191171D02*
X0043920Y0191171D01*
X0043920Y0192369D02*
X0069167Y0192369D01*
X0069623Y0193568D02*
X0043920Y0193568D01*
X0043920Y0194766D02*
X0070530Y0194766D01*
X0071054Y0197910D02*
X0072654Y0197247D01*
X0074385Y0197247D01*
X0075985Y0197910D01*
X0077210Y0199134D01*
X0077872Y0200734D01*
X0077872Y0202466D01*
X0077210Y0204066D01*
X0075985Y0205290D01*
X0074385Y0205953D01*
X0072654Y0205953D01*
X0071054Y0205290D01*
X0069830Y0204066D01*
X0069167Y0202466D01*
X0069167Y0200734D01*
X0069830Y0199134D01*
X0071054Y0197910D01*
X0070602Y0198362D02*
X0016120Y0198362D01*
X0016120Y0199560D02*
X0069653Y0199560D01*
X0069167Y0200759D02*
X0016120Y0200759D01*
X0016120Y0201957D02*
X0069167Y0201957D01*
X0069453Y0203156D02*
X0016120Y0203156D01*
X0016120Y0204354D02*
X0070118Y0204354D01*
X0071688Y0205553D02*
X0016120Y0205553D01*
X0016120Y0206751D02*
X0092843Y0206751D01*
X0091644Y0205553D02*
X0075351Y0205553D01*
X0074385Y0207247D02*
X0075985Y0207910D01*
X0077210Y0209134D01*
X0077872Y0210734D01*
X0077872Y0212466D01*
X0077210Y0214066D01*
X0075985Y0215290D01*
X0074385Y0215953D01*
X0072654Y0215953D01*
X0071054Y0215290D01*
X0069830Y0214066D01*
X0069167Y0212466D01*
X0069167Y0210734D01*
X0069830Y0209134D01*
X0071054Y0207910D01*
X0072654Y0207247D01*
X0074385Y0207247D01*
X0076025Y0207950D02*
X0081014Y0207950D01*
X0081054Y0207910D02*
X0082654Y0207247D01*
X0084385Y0207247D01*
X0085985Y0207910D01*
X0087210Y0209134D01*
X0087872Y0210734D01*
X0087872Y0212466D01*
X0087210Y0214066D01*
X0085985Y0215290D01*
X0084385Y0215953D01*
X0082654Y0215953D01*
X0081054Y0215290D01*
X0079830Y0214066D01*
X0079167Y0212466D01*
X0079167Y0210734D01*
X0079830Y0209134D01*
X0081054Y0207910D01*
X0079824Y0209148D02*
X0077216Y0209148D01*
X0077712Y0210347D02*
X0079327Y0210347D01*
X0079167Y0211545D02*
X0077872Y0211545D01*
X0077757Y0212744D02*
X0079282Y0212744D01*
X0079779Y0213942D02*
X0077261Y0213942D01*
X0076134Y0215141D02*
X0080905Y0215141D01*
X0086134Y0215141D02*
X0090905Y0215141D01*
X0091520Y0216339D02*
X0016120Y0216339D01*
X0016120Y0215141D02*
X0070905Y0215141D01*
X0069779Y0213942D02*
X0016120Y0213942D01*
X0016120Y0212744D02*
X0069282Y0212744D01*
X0069167Y0211545D02*
X0016120Y0211545D01*
X0016120Y0210347D02*
X0069327Y0210347D01*
X0069824Y0209148D02*
X0016120Y0209148D01*
X0016120Y0207950D02*
X0071014Y0207950D01*
X0076921Y0204354D02*
X0090446Y0204354D01*
X0089247Y0203156D02*
X0077587Y0203156D01*
X0077872Y0201957D02*
X0088049Y0201957D01*
X0086850Y0200759D02*
X0077872Y0200759D01*
X0077386Y0199560D02*
X0085652Y0199560D01*
X0084453Y0198362D02*
X0076437Y0198362D01*
X0076509Y0194766D02*
X0080858Y0194766D01*
X0082056Y0195965D02*
X0043920Y0195965D01*
X0033120Y0195965D02*
X0016120Y0195965D01*
X0016120Y0197163D02*
X0083255Y0197163D01*
X0086514Y0194766D02*
X0090858Y0194766D01*
X0092056Y0195965D02*
X0087713Y0195965D01*
X0088911Y0197163D02*
X0093255Y0197163D01*
X0094453Y0198362D02*
X0090110Y0198362D01*
X0091308Y0199560D02*
X0095652Y0199560D01*
X0096850Y0200759D02*
X0092507Y0200759D01*
X0093705Y0201957D02*
X0098049Y0201957D01*
X0099247Y0203156D02*
X0094904Y0203156D01*
X0096102Y0204354D02*
X0100446Y0204354D01*
X0101644Y0205553D02*
X0097301Y0205553D01*
X0098499Y0206751D02*
X0102843Y0206751D01*
X0103135Y0207950D02*
X0103904Y0207950D01*
X0103904Y0209148D02*
X0103135Y0209148D01*
X0103135Y0210347D02*
X0103904Y0210347D01*
X0103904Y0211545D02*
X0107637Y0211545D01*
X0107935Y0212744D02*
X0108835Y0212744D01*
X0110034Y0213942D02*
X0107436Y0213942D01*
X0106392Y0215141D02*
X0111232Y0215141D01*
X0112431Y0216339D02*
X0100520Y0216339D01*
X0100520Y0215141D02*
X0100648Y0215141D01*
X0100520Y0217538D02*
X0113629Y0217538D01*
X0114828Y0218737D02*
X0100520Y0218737D01*
X0100520Y0219935D02*
X0116026Y0219935D01*
X0116520Y0221134D02*
X0100520Y0221134D01*
X0100520Y0222332D02*
X0116520Y0222332D01*
X0116520Y0223531D02*
X0100520Y0223531D01*
X0100520Y0224729D02*
X0116520Y0224729D01*
X0116520Y0225928D02*
X0100520Y0225928D01*
X0100520Y0227126D02*
X0116520Y0227126D01*
X0116520Y0228325D02*
X0100520Y0228325D01*
X0100520Y0229523D02*
X0116520Y0229523D01*
X0116520Y0230722D02*
X0100520Y0230722D01*
X0100520Y0231920D02*
X0116520Y0231920D01*
X0116520Y0233119D02*
X0116194Y0233119D01*
X0110845Y0233119D02*
X0100520Y0233119D01*
X0100520Y0234317D02*
X0109754Y0234317D01*
X0109257Y0235516D02*
X0100520Y0235516D01*
X0100520Y0236714D02*
X0109167Y0236714D01*
X0109352Y0237913D02*
X0100520Y0237913D01*
X0100520Y0239111D02*
X0109875Y0239111D01*
X0111101Y0240310D02*
X0100520Y0240310D01*
X0100520Y0241508D02*
X0116520Y0241508D01*
X0116520Y0240310D02*
X0115938Y0240310D01*
X0115495Y0242707D02*
X0116520Y0242707D01*
X0120520Y0242707D02*
X0121545Y0242707D01*
X0120520Y0241508D02*
X0126520Y0241508D01*
X0126520Y0242707D02*
X0125495Y0242707D01*
X0123904Y0240310D02*
X0123135Y0240310D01*
X0123135Y0239111D02*
X0123904Y0239111D01*
X0123904Y0237913D02*
X0123135Y0237913D01*
X0130520Y0237913D02*
X0177004Y0237913D01*
X0178202Y0239111D02*
X0130520Y0239111D01*
X0130520Y0240310D02*
X0179401Y0240310D01*
X0180599Y0241508D02*
X0130520Y0241508D01*
X0130520Y0242707D02*
X0181798Y0242707D01*
X0183520Y0241600D02*
X0133520Y0191600D01*
X0137557Y0189972D02*
X0326520Y0189972D01*
X0326520Y0188774D02*
X0136849Y0188774D01*
X0135177Y0187575D02*
X0326520Y0187575D01*
X0326520Y0186377D02*
X0130520Y0186377D01*
X0130520Y0187575D02*
X0131862Y0187575D01*
X0130942Y0185178D02*
X0130520Y0185178D01*
X0136097Y0185178D02*
X0326520Y0185178D01*
X0326520Y0183980D02*
X0137245Y0183980D01*
X0137742Y0182781D02*
X0326520Y0182781D01*
X0325674Y0181583D02*
X0137872Y0181583D01*
X0137727Y0180384D02*
X0324475Y0180384D01*
X0323277Y0179186D02*
X0137231Y0179186D01*
X0136063Y0177987D02*
X0322078Y0177987D01*
X0320880Y0176789D02*
X0130520Y0176789D01*
X0130520Y0177987D02*
X0130977Y0177987D01*
X0130520Y0175590D02*
X0131778Y0175590D01*
X0135261Y0175590D02*
X0319681Y0175590D01*
X0316947Y0174392D02*
X0315093Y0174392D01*
X0311947Y0174392D02*
X0136884Y0174392D01*
X0137571Y0173193D02*
X0310736Y0173193D01*
X0310339Y0171995D02*
X0137872Y0171995D01*
X0137872Y0170796D02*
X0310409Y0170796D01*
X0311023Y0169598D02*
X0137402Y0169598D01*
X0136474Y0168399D02*
X0310655Y0168399D01*
X0310192Y0167201D02*
X0130520Y0167201D01*
X0130520Y0168399D02*
X0130565Y0168399D01*
X0130520Y0166002D02*
X0310191Y0166002D01*
X0310139Y0166600D02*
X0313520Y0166600D01*
X0316901Y0166600D01*
X0318520Y0166600D01*
X0321901Y0166600D01*
X0318520Y0166600D01*
X0318520Y0166600D01*
X0313520Y0166600D01*
X0313520Y0166600D01*
X0318520Y0166600D01*
X0318520Y0166600D01*
X0321848Y0167201D02*
X0339620Y0167201D01*
X0339620Y0168399D02*
X0321384Y0168399D01*
X0321016Y0169598D02*
X0339620Y0169598D01*
X0339620Y0170796D02*
X0321630Y0170796D01*
X0321743Y0171995D02*
X0339620Y0171995D01*
X0339620Y0173193D02*
X0322941Y0173193D01*
X0324140Y0174392D02*
X0339620Y0174392D01*
X0339620Y0175590D02*
X0325338Y0175590D01*
X0326537Y0176789D02*
X0339620Y0176789D01*
X0339620Y0177987D02*
X0327735Y0177987D01*
X0328934Y0179186D02*
X0339620Y0179186D01*
X0339620Y0180384D02*
X0330132Y0180384D01*
X0330520Y0181583D02*
X0339620Y0181583D01*
X0339620Y0182781D02*
X0330520Y0182781D01*
X0330520Y0183980D02*
X0339620Y0183980D01*
X0339620Y0185178D02*
X0330520Y0185178D01*
X0330520Y0186377D02*
X0339620Y0186377D01*
X0339620Y0187575D02*
X0330520Y0187575D01*
X0330520Y0188774D02*
X0339620Y0188774D01*
X0339620Y0189972D02*
X0330520Y0189972D01*
X0330520Y0191171D02*
X0339620Y0191171D01*
X0339620Y0192369D02*
X0330520Y0192369D01*
X0330520Y0193568D02*
X0339620Y0193568D01*
X0339620Y0194766D02*
X0330520Y0194766D01*
X0330520Y0195965D02*
X0339620Y0195965D01*
X0339620Y0197163D02*
X0330520Y0197163D01*
X0330520Y0198362D02*
X0339620Y0198362D01*
X0339620Y0199560D02*
X0330520Y0199560D01*
X0330520Y0200759D02*
X0339620Y0200759D01*
X0339620Y0201957D02*
X0330520Y0201957D01*
X0330520Y0203156D02*
X0339620Y0203156D01*
X0339620Y0204354D02*
X0330520Y0204354D01*
X0330520Y0205553D02*
X0339620Y0205553D01*
X0339620Y0206751D02*
X0330520Y0206751D01*
X0330520Y0207950D02*
X0339620Y0207950D01*
X0339620Y0209148D02*
X0330520Y0209148D01*
X0330520Y0210347D02*
X0339620Y0210347D01*
X0339620Y0211545D02*
X0330520Y0211545D01*
X0330520Y0212744D02*
X0339620Y0212744D01*
X0339620Y0213942D02*
X0330520Y0213942D01*
X0330520Y0215141D02*
X0339620Y0215141D01*
X0339620Y0216339D02*
X0330520Y0216339D01*
X0330520Y0217538D02*
X0339620Y0217538D01*
X0339620Y0218737D02*
X0330520Y0218737D01*
X0330520Y0219935D02*
X0339620Y0219935D01*
X0339620Y0221134D02*
X0330520Y0221134D01*
X0330520Y0222332D02*
X0339620Y0222332D01*
X0339620Y0223531D02*
X0330520Y0223531D01*
X0330520Y0224729D02*
X0339620Y0224729D01*
X0339620Y0225928D02*
X0330520Y0225928D01*
X0330520Y0227126D02*
X0339620Y0227126D01*
X0339620Y0228325D02*
X0330520Y0228325D01*
X0330520Y0229523D02*
X0339620Y0229523D01*
X0339620Y0230722D02*
X0330520Y0230722D01*
X0330520Y0231920D02*
X0339620Y0231920D01*
X0339620Y0233119D02*
X0330520Y0233119D01*
X0330520Y0234317D02*
X0339620Y0234317D01*
X0339620Y0235516D02*
X0330520Y0235516D01*
X0330520Y0236714D02*
X0339620Y0236714D01*
X0339620Y0237913D02*
X0330520Y0237913D01*
X0330520Y0239111D02*
X0339620Y0239111D01*
X0339620Y0240310D02*
X0330520Y0240310D01*
X0330520Y0241508D02*
X0339620Y0241508D01*
X0339620Y0242707D02*
X0330520Y0242707D01*
X0330520Y0243905D02*
X0339620Y0243905D01*
X0339620Y0245104D02*
X0330520Y0245104D01*
X0330520Y0246302D02*
X0339620Y0246302D01*
X0339620Y0247501D02*
X0330520Y0247501D01*
X0330520Y0248699D02*
X0339620Y0248699D01*
X0339620Y0249898D02*
X0330520Y0249898D01*
X0330520Y0251096D02*
X0339620Y0251096D01*
X0339620Y0252295D02*
X0330520Y0252295D01*
X0330520Y0253493D02*
X0339620Y0253493D01*
X0339620Y0254692D02*
X0330520Y0254692D01*
X0330520Y0255890D02*
X0339620Y0255890D01*
X0339620Y0257089D02*
X0330520Y0257089D01*
X0329661Y0258287D02*
X0339620Y0258287D01*
X0339620Y0259486D02*
X0328462Y0259486D01*
X0327264Y0260684D02*
X0339620Y0260684D01*
X0339620Y0261883D02*
X0326065Y0261883D01*
X0324867Y0263081D02*
X0339620Y0263081D01*
X0339620Y0264280D02*
X0321160Y0264280D01*
X0323520Y0261600D02*
X0318520Y0261600D01*
X0315879Y0264280D02*
X0205782Y0264280D01*
X0205782Y0264542D02*
X0204962Y0265362D01*
X0199078Y0265362D01*
X0198257Y0264542D01*
X0198257Y0258658D01*
X0199078Y0257838D01*
X0204962Y0257838D01*
X0205782Y0258658D01*
X0205782Y0264542D01*
X0205782Y0263081D02*
X0315061Y0263081D01*
X0314757Y0261883D02*
X0205782Y0261883D01*
X0205782Y0260684D02*
X0314827Y0260684D01*
X0315323Y0259486D02*
X0205782Y0259486D01*
X0205411Y0258287D02*
X0316686Y0258287D01*
X0317364Y0255410D02*
X0316643Y0255111D01*
X0315994Y0254678D01*
X0315442Y0254126D01*
X0315008Y0253477D01*
X0314710Y0252756D01*
X0314557Y0251990D01*
X0314557Y0251787D01*
X0318332Y0251787D01*
X0318332Y0251413D01*
X0314557Y0251413D01*
X0314557Y0251210D01*
X0314710Y0250444D01*
X0315008Y0249723D01*
X0315442Y0249074D01*
X0315994Y0248522D01*
X0316643Y0248089D01*
X0317364Y0247790D01*
X0318129Y0247638D01*
X0318332Y0247638D01*
X0318332Y0251413D01*
X0318707Y0251413D01*
X0318707Y0251787D01*
X0322482Y0251787D01*
X0322482Y0251990D01*
X0322330Y0252756D01*
X0322031Y0253477D01*
X0321597Y0254126D01*
X0321045Y0254678D01*
X0320396Y0255111D01*
X0319675Y0255410D01*
X0318910Y0255562D01*
X0318707Y0255562D01*
X0318707Y0251787D01*
X0318332Y0251787D01*
X0318332Y0255562D01*
X0318129Y0255562D01*
X0317364Y0255410D01*
X0318332Y0254692D02*
X0318707Y0254692D01*
X0318707Y0253493D02*
X0318332Y0253493D01*
X0318332Y0252295D02*
X0318707Y0252295D01*
X0318707Y0251413D02*
X0322482Y0251413D01*
X0322482Y0251210D01*
X0322330Y0250444D01*
X0322031Y0249723D01*
X0321597Y0249074D01*
X0321045Y0248522D01*
X0320396Y0248089D01*
X0319675Y0247790D01*
X0318910Y0247638D01*
X0318707Y0247638D01*
X0318707Y0251413D01*
X0318707Y0251096D02*
X0318332Y0251096D01*
X0318332Y0249898D02*
X0318707Y0249898D01*
X0318707Y0248699D02*
X0318332Y0248699D01*
X0315817Y0248699D02*
X0204440Y0248699D01*
X0204151Y0248411D02*
X0205209Y0249469D01*
X0205782Y0250852D01*
X0205782Y0252348D01*
X0205209Y0253731D01*
X0204151Y0254789D01*
X0202768Y0255362D01*
X0201271Y0255362D01*
X0199889Y0254789D01*
X0198830Y0253731D01*
X0198257Y0252348D01*
X0198257Y0250852D01*
X0198830Y0249469D01*
X0199889Y0248411D01*
X0201271Y0247838D01*
X0202768Y0247838D01*
X0204151Y0248411D01*
X0205387Y0249898D02*
X0314936Y0249898D01*
X0314580Y0251096D02*
X0205782Y0251096D01*
X0205782Y0252295D02*
X0314618Y0252295D01*
X0315019Y0253493D02*
X0205308Y0253493D01*
X0204248Y0254692D02*
X0316015Y0254692D01*
X0320353Y0258287D02*
X0324004Y0258287D01*
X0325202Y0257089D02*
X0174920Y0257089D01*
X0173520Y0256810D02*
X0177266Y0257555D01*
X0180442Y0259678D01*
X0182564Y0262854D01*
X0183309Y0266600D01*
X0182564Y0270346D01*
X0180442Y0273522D01*
X0177266Y0275645D01*
X0173520Y0276390D01*
X0173520Y0276390D01*
X0169773Y0275645D01*
X0166597Y0273522D01*
X0164475Y0270346D01*
X0163730Y0266600D01*
X0164475Y0262854D01*
X0164475Y0262854D01*
X0166597Y0259678D01*
X0166597Y0259678D01*
X0166597Y0259678D01*
X0169773Y0257555D01*
X0169773Y0257555D01*
X0173520Y0256810D01*
X0173520Y0256810D01*
X0172119Y0257089D02*
X0130520Y0257089D01*
X0130520Y0258287D02*
X0168678Y0258287D01*
X0166884Y0259486D02*
X0130462Y0259486D01*
X0129264Y0260684D02*
X0165925Y0260684D01*
X0165124Y0261883D02*
X0128065Y0261883D01*
X0126867Y0263081D02*
X0164430Y0263081D01*
X0164191Y0264280D02*
X0127270Y0264280D01*
X0127766Y0265478D02*
X0163953Y0265478D01*
X0163730Y0266600D02*
X0163730Y0266600D01*
X0163745Y0266677D02*
X0127872Y0266677D01*
X0127703Y0267875D02*
X0163984Y0267875D01*
X0164222Y0269074D02*
X0127201Y0269074D01*
X0126003Y0270272D02*
X0164460Y0270272D01*
X0164475Y0270346D02*
X0164475Y0270346D01*
X0165227Y0271471D02*
X0121477Y0271471D01*
X0120279Y0272670D02*
X0166027Y0272670D01*
X0166597Y0273522D02*
X0166597Y0273522D01*
X0166597Y0273522D01*
X0167115Y0273868D02*
X0113616Y0273868D01*
X0114815Y0275067D02*
X0168908Y0275067D01*
X0169773Y0275645D02*
X0169773Y0275645D01*
X0172893Y0276265D02*
X0116013Y0276265D01*
X0117212Y0277464D02*
X0339620Y0277464D01*
X0339620Y0278662D02*
X0118410Y0278662D01*
X0119609Y0279861D02*
X0339620Y0279861D01*
X0339620Y0281059D02*
X0120807Y0281059D01*
X0122006Y0282258D02*
X0339620Y0282258D01*
X0339620Y0283456D02*
X0123204Y0283456D01*
X0124403Y0284655D02*
X0339620Y0284655D01*
X0339620Y0285853D02*
X0125601Y0285853D01*
X0126800Y0287052D02*
X0339620Y0287052D01*
X0339620Y0288250D02*
X0127998Y0288250D01*
X0127520Y0290600D02*
X0197520Y0290600D01*
X0203520Y0296600D01*
X0199942Y0300235D02*
X0157097Y0300235D01*
X0158031Y0299037D02*
X0199009Y0299037D01*
X0198512Y0297838D02*
X0158527Y0297838D01*
X0158620Y0296640D02*
X0198420Y0296640D01*
X0198479Y0295441D02*
X0158560Y0295441D01*
X0158063Y0294243D02*
X0198334Y0294243D01*
X0197135Y0293044D02*
X0157176Y0293044D01*
X0149009Y0299037D02*
X0148226Y0299037D01*
X0147380Y0300235D02*
X0149942Y0300235D01*
X0151863Y0301434D02*
X0145707Y0301434D01*
X0143920Y0301434D02*
X0143120Y0301434D01*
X0143120Y0300235D02*
X0143920Y0300235D01*
X0143920Y0299037D02*
X0143120Y0299037D01*
X0143120Y0297838D02*
X0143920Y0297838D01*
X0141332Y0301434D02*
X0135177Y0301434D01*
X0137097Y0300235D02*
X0139660Y0300235D01*
X0138813Y0299037D02*
X0138031Y0299037D01*
X0131863Y0301434D02*
X0125177Y0301434D01*
X0127097Y0300235D02*
X0129942Y0300235D01*
X0129009Y0299037D02*
X0128031Y0299037D01*
X0121863Y0301434D02*
X0075177Y0301434D01*
X0074534Y0301700D02*
X0072505Y0301700D01*
X0070631Y0300924D01*
X0069196Y0299489D01*
X0068612Y0298079D01*
X0068431Y0298634D01*
X0068053Y0299378D01*
X0067562Y0300053D01*
X0066972Y0300643D01*
X0066297Y0301133D01*
X0065554Y0301512D01*
X0064761Y0301769D01*
X0063937Y0301900D01*
X0063920Y0301900D01*
X0063920Y0297000D01*
X0063120Y0297000D01*
X0063120Y0301900D01*
X0063103Y0301900D01*
X0062279Y0301769D01*
X0061485Y0301512D01*
X0060742Y0301133D01*
X0060067Y0300643D01*
X0059477Y0300053D01*
X0058987Y0299378D01*
X0058608Y0298634D01*
X0058427Y0298079D01*
X0057843Y0299489D01*
X0056409Y0300924D01*
X0054534Y0301700D01*
X0052505Y0301700D01*
X0050631Y0300924D01*
X0049196Y0299489D01*
X0048520Y0297856D01*
X0047843Y0299489D01*
X0046409Y0300924D01*
X0044534Y0301700D01*
X0042505Y0301700D01*
X0040631Y0300924D01*
X0039196Y0299489D01*
X0038420Y0297614D01*
X0038420Y0295586D01*
X0039196Y0293711D01*
X0040631Y0292276D01*
X0042505Y0291500D01*
X0044534Y0291500D01*
X0046409Y0292276D01*
X0047843Y0293711D01*
X0048520Y0295344D01*
X0049196Y0293711D01*
X0050631Y0292276D01*
X0052505Y0291500D01*
X0054534Y0291500D01*
X0056409Y0292276D01*
X0057843Y0293711D01*
X0058427Y0295121D01*
X0058608Y0294566D01*
X0058987Y0293822D01*
X0059477Y0293147D01*
X0060067Y0292557D01*
X0060742Y0292067D01*
X0061485Y0291688D01*
X0062279Y0291430D01*
X0063103Y0291300D01*
X0063120Y0291300D01*
X0063120Y0296200D01*
X0063920Y0296200D01*
X0063920Y0291300D01*
X0063937Y0291300D01*
X0064761Y0291430D01*
X0065554Y0291688D01*
X0066297Y0292067D01*
X0066972Y0292557D01*
X0067562Y0293147D01*
X0068053Y0293822D01*
X0068431Y0294566D01*
X0068612Y0295121D01*
X0069196Y0293711D01*
X0070631Y0292276D01*
X0072505Y0291500D01*
X0074534Y0291500D01*
X0076409Y0292276D01*
X0077843Y0293711D01*
X0078620Y0295586D01*
X0078620Y0297614D01*
X0077843Y0299489D01*
X0076409Y0300924D01*
X0074534Y0301700D01*
X0071863Y0301434D02*
X0065707Y0301434D01*
X0063920Y0301434D02*
X0063120Y0301434D01*
X0063120Y0300235D02*
X0063920Y0300235D01*
X0063920Y0299037D02*
X0063120Y0299037D01*
X0063120Y0297838D02*
X0063920Y0297838D01*
X0063920Y0295441D02*
X0063120Y0295441D01*
X0063120Y0294243D02*
X0063920Y0294243D01*
X0063920Y0293044D02*
X0063120Y0293044D01*
X0063120Y0291846D02*
X0063920Y0291846D01*
X0065863Y0291846D02*
X0071671Y0291846D01*
X0069863Y0293044D02*
X0067459Y0293044D01*
X0068267Y0294243D02*
X0068976Y0294243D01*
X0069009Y0299037D02*
X0068226Y0299037D01*
X0067380Y0300235D02*
X0069942Y0300235D01*
X0077097Y0300235D02*
X0119942Y0300235D01*
X0119009Y0299037D02*
X0078031Y0299037D01*
X0078527Y0297838D02*
X0118512Y0297838D01*
X0118420Y0296640D02*
X0078620Y0296640D01*
X0078560Y0295441D02*
X0118479Y0295441D01*
X0118976Y0294243D02*
X0078063Y0294243D01*
X0077176Y0293044D02*
X0119863Y0293044D01*
X0121671Y0291846D02*
X0075369Y0291846D01*
X0061176Y0291846D02*
X0055369Y0291846D01*
X0057176Y0293044D02*
X0059580Y0293044D01*
X0058772Y0294243D02*
X0058063Y0294243D01*
X0058031Y0299037D02*
X0058813Y0299037D01*
X0059660Y0300235D02*
X0057097Y0300235D01*
X0055177Y0301434D02*
X0061332Y0301434D01*
X0051863Y0301434D02*
X0045177Y0301434D01*
X0047097Y0300235D02*
X0049942Y0300235D01*
X0049009Y0299037D02*
X0048031Y0299037D01*
X0048063Y0294243D02*
X0048976Y0294243D01*
X0049863Y0293044D02*
X0047176Y0293044D01*
X0045369Y0291846D02*
X0051671Y0291846D01*
X0058520Y0286600D02*
X0016120Y0286600D01*
X0016120Y0309222D01*
X0017128Y0306957D01*
X0017128Y0306956D01*
X0017128Y0306956D01*
X0019570Y0304758D01*
X0022694Y0303743D01*
X0025961Y0304087D01*
X0028806Y0305729D01*
X0028806Y0305729D01*
X0030737Y0308387D01*
X0031420Y0311600D01*
X0030737Y0314813D01*
X0030737Y0314813D01*
X0028806Y0317471D01*
X0028806Y0317471D01*
X0028806Y0317471D01*
X0026225Y0318961D01*
X0330065Y0318961D01*
X0328467Y0318442D01*
X0326026Y0316243D01*
X0324690Y0313242D01*
X0324690Y0309957D01*
X0326026Y0306957D01*
X0326026Y0306956D01*
X0328467Y0304758D01*
X0331592Y0303743D01*
X0334859Y0304087D01*
X0337703Y0305729D01*
X0337703Y0305729D01*
X0339620Y0308368D01*
X0339620Y0014832D01*
X0337703Y0017471D01*
X0334859Y0019113D01*
X0334859Y0019113D01*
X0331592Y0019457D01*
X0328467Y0018442D01*
X0328467Y0018442D01*
X0328467Y0018442D01*
X0326026Y0016243D01*
X0324690Y0013242D01*
X0324690Y0009958D01*
X0326026Y0006957D01*
X0326026Y0006956D01*
X0328467Y0004758D01*
X0330186Y0004200D01*
X0026157Y0004200D01*
X0028806Y0005729D01*
X0028806Y0005729D01*
X0028806Y0005729D01*
X0030737Y0008387D01*
X0031420Y0011600D01*
X0030737Y0014813D01*
X0030737Y0014813D01*
X0028806Y0017471D01*
X0028806Y0017471D01*
X0028806Y0017471D01*
X0025961Y0019113D01*
X0025961Y0019113D01*
X0022694Y0019457D01*
X0019570Y0018442D01*
X0017128Y0016243D01*
X0016120Y0013978D01*
X0016120Y0226600D01*
X0058520Y0226600D01*
X0058520Y0286600D01*
X0058520Y0285853D02*
X0119944Y0285853D01*
X0118746Y0284655D02*
X0058520Y0284655D01*
X0058520Y0283456D02*
X0117547Y0283456D01*
X0116349Y0282258D02*
X0112130Y0282258D01*
X0110909Y0282258D02*
X0058520Y0282258D01*
X0058520Y0281059D02*
X0109214Y0281059D01*
X0108831Y0279861D02*
X0058520Y0279861D01*
X0058520Y0278662D02*
X0107753Y0278662D01*
X0106555Y0277464D02*
X0058520Y0277464D01*
X0058520Y0276265D02*
X0105356Y0276265D01*
X0104158Y0275067D02*
X0058520Y0275067D01*
X0058520Y0273868D02*
X0102959Y0273868D01*
X0101761Y0272670D02*
X0058520Y0272670D01*
X0058520Y0271471D02*
X0100562Y0271471D01*
X0099364Y0270272D02*
X0058520Y0270272D01*
X0058520Y0269074D02*
X0098165Y0269074D01*
X0096967Y0267875D02*
X0058520Y0267875D01*
X0058520Y0266677D02*
X0095768Y0266677D01*
X0094570Y0265478D02*
X0058520Y0265478D01*
X0058520Y0264280D02*
X0093371Y0264280D01*
X0092173Y0263081D02*
X0058520Y0263081D01*
X0058520Y0261883D02*
X0090974Y0261883D01*
X0089776Y0260684D02*
X0058520Y0260684D01*
X0058520Y0259486D02*
X0088577Y0259486D01*
X0087379Y0258287D02*
X0058520Y0258287D01*
X0058520Y0257089D02*
X0086180Y0257089D01*
X0084982Y0255890D02*
X0058520Y0255890D01*
X0058520Y0254692D02*
X0083783Y0254692D01*
X0083520Y0253493D02*
X0058520Y0253493D01*
X0058520Y0252295D02*
X0083520Y0252295D01*
X0083520Y0251096D02*
X0058520Y0251096D01*
X0058520Y0249898D02*
X0083520Y0249898D01*
X0083065Y0248699D02*
X0058520Y0248699D01*
X0058520Y0247501D02*
X0082831Y0247501D01*
X0083147Y0246302D02*
X0058520Y0246302D01*
X0058520Y0245104D02*
X0084520Y0245104D01*
X0086520Y0245104D02*
X0091520Y0245104D01*
X0091520Y0246302D02*
X0087893Y0246302D01*
X0088209Y0247501D02*
X0091520Y0247501D01*
X0091520Y0248699D02*
X0087975Y0248699D01*
X0087520Y0249898D02*
X0091520Y0249898D01*
X0091520Y0251096D02*
X0087520Y0251096D01*
X0087520Y0252295D02*
X0091520Y0252295D01*
X0091520Y0253493D02*
X0088241Y0253493D01*
X0089440Y0254692D02*
X0091520Y0254692D01*
X0091520Y0255890D02*
X0090638Y0255890D01*
X0093520Y0256600D02*
X0127520Y0290600D01*
X0125937Y0291846D02*
X0125369Y0291846D01*
X0124738Y0290647D02*
X0016120Y0290647D01*
X0016120Y0289449D02*
X0123540Y0289449D01*
X0122341Y0288250D02*
X0016120Y0288250D01*
X0016120Y0287052D02*
X0121143Y0287052D01*
X0115150Y0281059D02*
X0113826Y0281059D01*
X0111520Y0279600D02*
X0085520Y0253600D01*
X0085520Y0247600D01*
X0091520Y0243905D02*
X0058520Y0243905D01*
X0058520Y0242707D02*
X0091520Y0242707D01*
X0091520Y0241508D02*
X0058520Y0241508D01*
X0058520Y0240310D02*
X0091520Y0240310D01*
X0091520Y0239111D02*
X0058520Y0239111D01*
X0058520Y0237913D02*
X0091520Y0237913D01*
X0091520Y0236714D02*
X0058520Y0236714D01*
X0058520Y0235516D02*
X0091520Y0235516D01*
X0091520Y0234317D02*
X0058520Y0234317D01*
X0058520Y0233119D02*
X0091520Y0233119D01*
X0091520Y0231920D02*
X0058520Y0231920D01*
X0058520Y0230722D02*
X0091520Y0230722D01*
X0091520Y0229523D02*
X0058520Y0229523D01*
X0058520Y0228325D02*
X0091520Y0228325D01*
X0091520Y0227126D02*
X0058520Y0227126D01*
X0086025Y0207950D02*
X0091014Y0207950D01*
X0089824Y0209148D02*
X0087216Y0209148D01*
X0087712Y0210347D02*
X0089327Y0210347D01*
X0089167Y0211545D02*
X0087872Y0211545D01*
X0087757Y0212744D02*
X0089282Y0212744D01*
X0089779Y0213942D02*
X0087261Y0213942D01*
X0091520Y0217538D02*
X0016120Y0217538D01*
X0016120Y0218737D02*
X0091520Y0218737D01*
X0091520Y0219935D02*
X0016120Y0219935D01*
X0016120Y0221134D02*
X0091520Y0221134D01*
X0091520Y0222332D02*
X0016120Y0222332D01*
X0016120Y0223531D02*
X0091520Y0223531D01*
X0091520Y0224729D02*
X0016120Y0224729D01*
X0016120Y0225928D02*
X0091520Y0225928D01*
X0103135Y0215141D02*
X0103904Y0215141D01*
X0103904Y0213942D02*
X0103135Y0213942D01*
X0103135Y0212744D02*
X0103904Y0212744D01*
X0100798Y0207950D02*
X0099698Y0207950D01*
X0093520Y0211600D02*
X0093520Y0256600D01*
X0100520Y0251096D02*
X0116520Y0251096D01*
X0116520Y0249898D02*
X0116378Y0249898D01*
X0110662Y0249898D02*
X0100520Y0249898D01*
X0100520Y0248699D02*
X0109678Y0248699D01*
X0109181Y0247501D02*
X0100520Y0247501D01*
X0100520Y0246302D02*
X0109167Y0246302D01*
X0109428Y0245104D02*
X0100520Y0245104D01*
X0100520Y0243905D02*
X0110059Y0243905D01*
X0111545Y0242707D02*
X0100520Y0242707D01*
X0118520Y0261600D02*
X0125520Y0261600D01*
X0128520Y0258600D01*
X0128520Y0149600D01*
X0133520Y0144600D01*
X0133520Y0141600D01*
X0137556Y0143230D02*
X0339620Y0143230D01*
X0339620Y0142032D02*
X0137872Y0142032D01*
X0137872Y0140833D02*
X0339620Y0140833D01*
X0339620Y0139635D02*
X0137417Y0139635D01*
X0136512Y0138436D02*
X0339620Y0138436D01*
X0339620Y0137238D02*
X0087872Y0137238D01*
X0087872Y0137466D02*
X0087210Y0139066D01*
X0085985Y0140290D01*
X0084385Y0140953D01*
X0082654Y0140953D01*
X0081054Y0140290D01*
X0079830Y0139066D01*
X0079552Y0138396D01*
X0079348Y0138600D01*
X0077680Y0140269D01*
X0077872Y0140734D01*
X0077872Y0142466D01*
X0077210Y0144066D01*
X0075985Y0145290D01*
X0074385Y0145953D01*
X0072654Y0145953D01*
X0071054Y0145290D01*
X0070520Y0144756D01*
X0070520Y0145772D01*
X0072188Y0147440D01*
X0072654Y0147247D01*
X0074385Y0147247D01*
X0075985Y0147910D01*
X0077210Y0149134D01*
X0077872Y0150734D01*
X0077872Y0152466D01*
X0077210Y0154066D01*
X0075985Y0155290D01*
X0074385Y0155953D01*
X0072654Y0155953D01*
X0071054Y0155290D01*
X0069830Y0154066D01*
X0069167Y0152466D01*
X0069167Y0150734D01*
X0069360Y0150269D01*
X0068520Y0149428D01*
X0068520Y0153772D01*
X0072188Y0157440D01*
X0072654Y0157247D01*
X0074385Y0157247D01*
X0075985Y0157910D01*
X0077210Y0159134D01*
X0077872Y0160734D01*
X0077872Y0162466D01*
X0077210Y0164066D01*
X0075985Y0165290D01*
X0074385Y0165953D01*
X0072654Y0165953D01*
X0071054Y0165290D01*
X0069830Y0164066D01*
X0069167Y0162466D01*
X0069167Y0160734D01*
X0069360Y0160269D01*
X0065691Y0156600D01*
X0065520Y0156428D01*
X0065520Y0160772D01*
X0072188Y0167440D01*
X0072654Y0167247D01*
X0074385Y0167247D01*
X0075985Y0167910D01*
X0077210Y0169134D01*
X0077872Y0170734D01*
X0077872Y0172466D01*
X0077210Y0174066D01*
X0075985Y0175290D01*
X0074385Y0175953D01*
X0072654Y0175953D01*
X0071054Y0175290D01*
X0069830Y0174066D01*
X0069167Y0172466D01*
X0069167Y0170734D01*
X0069360Y0170269D01*
X0062691Y0163600D01*
X0061520Y0162428D01*
X0061520Y0040772D01*
X0071152Y0031139D01*
X0070631Y0030924D01*
X0069196Y0029489D01*
X0068520Y0027856D01*
X0067843Y0029489D01*
X0066409Y0030924D01*
X0064534Y0031700D01*
X0062505Y0031700D01*
X0060631Y0030924D01*
X0059196Y0029489D01*
X0058612Y0028079D01*
X0058431Y0028634D01*
X0058053Y0029378D01*
X0057562Y0030053D01*
X0056972Y0030643D01*
X0056297Y0031133D01*
X0055554Y0031512D01*
X0054761Y0031769D01*
X0053937Y0031900D01*
X0053920Y0031900D01*
X0053920Y0027000D01*
X0053120Y0027000D01*
X0053120Y0031900D01*
X0053103Y0031900D01*
X0052279Y0031769D01*
X0051485Y0031512D01*
X0050742Y0031133D01*
X0050067Y0030643D01*
X0049477Y0030053D01*
X0048987Y0029378D01*
X0048608Y0028634D01*
X0048427Y0028079D01*
X0047843Y0029489D01*
X0046409Y0030924D01*
X0044534Y0031700D01*
X0042505Y0031700D01*
X0040631Y0030924D01*
X0039196Y0029489D01*
X0038420Y0027614D01*
X0038420Y0025586D01*
X0039196Y0023711D01*
X0040631Y0022276D01*
X0042505Y0021500D01*
X0044534Y0021500D01*
X0046409Y0022276D01*
X0047843Y0023711D01*
X0048427Y0025121D01*
X0048608Y0024566D01*
X0048987Y0023822D01*
X0049477Y0023147D01*
X0050067Y0022557D01*
X0050742Y0022067D01*
X0051485Y0021688D01*
X0052279Y0021430D01*
X0053103Y0021300D01*
X0053120Y0021300D01*
X0053120Y0026200D01*
X0053920Y0026200D01*
X0053920Y0021300D01*
X0053937Y0021300D01*
X0054761Y0021430D01*
X0055554Y0021688D01*
X0056297Y0022067D01*
X0056972Y0022557D01*
X0057562Y0023147D01*
X0058053Y0023822D01*
X0058431Y0024566D01*
X0058612Y0025121D01*
X0059196Y0023711D01*
X0060631Y0022276D01*
X0062505Y0021500D01*
X0064534Y0021500D01*
X0066409Y0022276D01*
X0067843Y0023711D01*
X0068520Y0025344D01*
X0069196Y0023711D01*
X0070631Y0022276D01*
X0072505Y0021500D01*
X0074534Y0021500D01*
X0076409Y0022276D01*
X0077843Y0023711D01*
X0078620Y0025586D01*
X0078620Y0027614D01*
X0077843Y0029489D01*
X0076409Y0030924D01*
X0075520Y0031292D01*
X0075520Y0032428D01*
X0074348Y0033600D01*
X0065520Y0042428D01*
X0065520Y0043943D01*
X0065691Y0043772D01*
X0078591Y0030872D01*
X0079763Y0029700D01*
X0119407Y0029700D01*
X0119196Y0029489D01*
X0118420Y0027614D01*
X0118420Y0025586D01*
X0119196Y0023711D01*
X0120631Y0022276D01*
X0122505Y0021500D01*
X0124534Y0021500D01*
X0126409Y0022276D01*
X0127843Y0023711D01*
X0128427Y0025121D01*
X0128608Y0024566D01*
X0128987Y0023822D01*
X0129477Y0023147D01*
X0130067Y0022557D01*
X0130742Y0022067D01*
X0131485Y0021688D01*
X0132279Y0021430D01*
X0133103Y0021300D01*
X0133120Y0021300D01*
X0133120Y0026200D01*
X0133920Y0026200D01*
X0133920Y0021300D01*
X0133937Y0021300D01*
X0134761Y0021430D01*
X0135554Y0021688D01*
X0136297Y0022067D01*
X0136972Y0022557D01*
X0137562Y0023147D01*
X0138053Y0023822D01*
X0138431Y0024566D01*
X0138612Y0025121D01*
X0139196Y0023711D01*
X0140631Y0022276D01*
X0142505Y0021500D01*
X0144534Y0021500D01*
X0146409Y0022276D01*
X0147843Y0023711D01*
X0148520Y0025344D01*
X0149196Y0023711D01*
X0150631Y0022276D01*
X0152505Y0021500D01*
X0154534Y0021500D01*
X0156409Y0022276D01*
X0157843Y0023711D01*
X0158620Y0025586D01*
X0158620Y0027614D01*
X0157843Y0029489D01*
X0156409Y0030924D01*
X0154534Y0031700D01*
X0152505Y0031700D01*
X0150631Y0030924D01*
X0149934Y0030227D01*
X0148461Y0031700D01*
X0212065Y0031700D01*
X0211485Y0031512D01*
X0210742Y0031133D01*
X0210067Y0030643D01*
X0209477Y0030053D01*
X0208987Y0029378D01*
X0208608Y0028634D01*
X0208427Y0028079D01*
X0207843Y0029489D01*
X0206409Y0030924D01*
X0204534Y0031700D01*
X0202505Y0031700D01*
X0200631Y0030924D01*
X0199196Y0029489D01*
X0198420Y0027614D01*
X0198420Y0025586D01*
X0199196Y0023711D01*
X0200631Y0022276D01*
X0202505Y0021500D01*
X0204534Y0021500D01*
X0206409Y0022276D01*
X0207843Y0023711D01*
X0208427Y0025121D01*
X0208608Y0024566D01*
X0208987Y0023822D01*
X0209477Y0023147D01*
X0210067Y0022557D01*
X0210742Y0022067D01*
X0211485Y0021688D01*
X0212279Y0021430D01*
X0213103Y0021300D01*
X0213120Y0021300D01*
X0213120Y0026200D01*
X0213920Y0026200D01*
X0213920Y0021300D01*
X0213937Y0021300D01*
X0214761Y0021430D01*
X0215554Y0021688D01*
X0216297Y0022067D01*
X0216972Y0022557D01*
X0217562Y0023147D01*
X0218053Y0023822D01*
X0218431Y0024566D01*
X0218612Y0025121D01*
X0219196Y0023711D01*
X0220631Y0022276D01*
X0222505Y0021500D01*
X0224534Y0021500D01*
X0226409Y0022276D01*
X0227843Y0023711D01*
X0228520Y0025344D01*
X0229196Y0023711D01*
X0230631Y0022276D01*
X0232505Y0021500D01*
X0234534Y0021500D01*
X0236409Y0022276D01*
X0237843Y0023711D01*
X0238620Y0025586D01*
X0238620Y0027614D01*
X0237843Y0029489D01*
X0236409Y0030924D01*
X0234534Y0031700D01*
X0232505Y0031700D01*
X0230631Y0030924D01*
X0229934Y0030227D01*
X0225561Y0034600D01*
X0302691Y0034600D01*
X0306339Y0030952D01*
X0304534Y0031700D01*
X0302505Y0031700D01*
X0300631Y0030924D01*
X0299196Y0029489D01*
X0298612Y0028079D01*
X0298431Y0028634D01*
X0298053Y0029378D01*
X0297562Y0030053D01*
X0296972Y0030643D01*
X0296297Y0031133D01*
X0295554Y0031512D01*
X0294761Y0031769D01*
X0293937Y0031900D01*
X0293920Y0031900D01*
X0293920Y0027000D01*
X0293120Y0027000D01*
X0293120Y0031900D01*
X0293103Y0031900D01*
X0292279Y0031769D01*
X0291485Y0031512D01*
X0290742Y0031133D01*
X0290067Y0030643D01*
X0289477Y0030053D01*
X0288987Y0029378D01*
X0288608Y0028634D01*
X0288427Y0028079D01*
X0287843Y0029489D01*
X0286409Y0030924D01*
X0284534Y0031700D01*
X0282505Y0031700D01*
X0280631Y0030924D01*
X0279196Y0029489D01*
X0278420Y0027614D01*
X0278420Y0025586D01*
X0279196Y0023711D01*
X0280631Y0022276D01*
X0282505Y0021500D01*
X0284534Y0021500D01*
X0286409Y0022276D01*
X0287843Y0023711D01*
X0288427Y0025121D01*
X0288608Y0024566D01*
X0288987Y0023822D01*
X0289477Y0023147D01*
X0290067Y0022557D01*
X0290742Y0022067D01*
X0291485Y0021688D01*
X0292279Y0021430D01*
X0293103Y0021300D01*
X0293120Y0021300D01*
X0293120Y0026200D01*
X0293920Y0026200D01*
X0293920Y0021300D01*
X0293937Y0021300D01*
X0294761Y0021430D01*
X0295554Y0021688D01*
X0296297Y0022067D01*
X0296972Y0022557D01*
X0297562Y0023147D01*
X0298053Y0023822D01*
X0298431Y0024566D01*
X0298612Y0025121D01*
X0299196Y0023711D01*
X0300631Y0022276D01*
X0302505Y0021500D01*
X0304534Y0021500D01*
X0306409Y0022276D01*
X0307843Y0023711D01*
X0308520Y0025344D01*
X0309196Y0023711D01*
X0310631Y0022276D01*
X0312505Y0021500D01*
X0314534Y0021500D01*
X0316409Y0022276D01*
X0317843Y0023711D01*
X0318620Y0025586D01*
X0318620Y0027614D01*
X0317843Y0029489D01*
X0316409Y0030924D01*
X0314534Y0031700D01*
X0312505Y0031700D01*
X0311616Y0031332D01*
X0304348Y0038600D01*
X0084348Y0038600D01*
X0080520Y0042428D01*
X0080520Y0133444D01*
X0081054Y0132910D01*
X0082654Y0132247D01*
X0084385Y0132247D01*
X0085985Y0132910D01*
X0087210Y0134134D01*
X0087872Y0135734D01*
X0087872Y0137466D01*
X0087470Y0138436D02*
X0130528Y0138436D01*
X0129622Y0139635D02*
X0086641Y0139635D01*
X0084674Y0140833D02*
X0129167Y0140833D01*
X0129167Y0142032D02*
X0077872Y0142032D01*
X0077872Y0140833D02*
X0082365Y0140833D01*
X0082654Y0142247D02*
X0084385Y0142247D01*
X0085985Y0142910D01*
X0087210Y0144134D01*
X0087872Y0145734D01*
X0087872Y0147466D01*
X0087210Y0149066D01*
X0085985Y0150290D01*
X0084385Y0150953D01*
X0082654Y0150953D01*
X0081054Y0150290D01*
X0079830Y0149066D01*
X0079167Y0147466D01*
X0079167Y0145734D01*
X0079830Y0144134D01*
X0081054Y0142910D01*
X0082654Y0142247D01*
X0080734Y0143230D02*
X0077556Y0143230D01*
X0076847Y0144429D02*
X0079708Y0144429D01*
X0079211Y0145627D02*
X0075171Y0145627D01*
X0076100Y0148024D02*
X0079398Y0148024D01*
X0079167Y0146826D02*
X0071574Y0146826D01*
X0071868Y0145627D02*
X0070520Y0145627D01*
X0068520Y0146600D02*
X0073520Y0151600D01*
X0077872Y0151620D02*
X0126520Y0151620D01*
X0126520Y0152818D02*
X0077726Y0152818D01*
X0077230Y0154017D02*
X0126520Y0154017D01*
X0126520Y0155215D02*
X0076060Y0155215D01*
X0075267Y0157612D02*
X0126520Y0157612D01*
X0126520Y0156414D02*
X0071162Y0156414D01*
X0070979Y0155215D02*
X0069963Y0155215D01*
X0069809Y0154017D02*
X0068765Y0154017D01*
X0068520Y0152818D02*
X0069313Y0152818D01*
X0069167Y0151620D02*
X0068520Y0151620D01*
X0068520Y0150421D02*
X0069296Y0150421D01*
X0068520Y0146600D02*
X0068520Y0046600D01*
X0081420Y0033700D01*
X0223632Y0033700D01*
X0230732Y0026600D01*
X0233520Y0026600D01*
X0228837Y0024578D02*
X0228202Y0024578D01*
X0227511Y0023379D02*
X0229528Y0023379D01*
X0230862Y0022181D02*
X0226177Y0022181D01*
X0220862Y0022181D02*
X0216454Y0022181D01*
X0217731Y0023379D02*
X0219528Y0023379D01*
X0218837Y0024578D02*
X0218435Y0024578D01*
X0213920Y0024578D02*
X0213120Y0024578D01*
X0213120Y0025776D02*
X0213920Y0025776D01*
X0213920Y0023379D02*
X0213120Y0023379D01*
X0213120Y0022181D02*
X0213920Y0022181D01*
X0210585Y0022181D02*
X0206177Y0022181D01*
X0207511Y0023379D02*
X0209309Y0023379D01*
X0208604Y0024578D02*
X0208202Y0024578D01*
X0208388Y0028173D02*
X0208458Y0028173D01*
X0208984Y0029372D02*
X0207892Y0029372D01*
X0206762Y0030570D02*
X0209995Y0030570D01*
X0200277Y0030570D02*
X0156762Y0030570D01*
X0157892Y0029372D02*
X0199148Y0029372D01*
X0198651Y0028173D02*
X0158388Y0028173D01*
X0158620Y0026975D02*
X0198420Y0026975D01*
X0198420Y0025776D02*
X0158620Y0025776D01*
X0158202Y0024578D02*
X0198837Y0024578D01*
X0199528Y0023379D02*
X0157511Y0023379D01*
X0156177Y0022181D02*
X0200862Y0022181D01*
X0225995Y0034166D02*
X0303125Y0034166D01*
X0304324Y0032967D02*
X0227193Y0032967D01*
X0228392Y0031769D02*
X0292276Y0031769D01*
X0293120Y0031769D02*
X0293920Y0031769D01*
X0294763Y0031769D02*
X0305523Y0031769D01*
X0308782Y0034166D02*
X0339620Y0034166D01*
X0339620Y0035364D02*
X0307584Y0035364D01*
X0306385Y0036563D02*
X0339620Y0036563D01*
X0339620Y0037761D02*
X0305187Y0037761D01*
X0303520Y0036600D02*
X0313520Y0026600D01*
X0308837Y0024578D02*
X0308202Y0024578D01*
X0307511Y0023379D02*
X0309528Y0023379D01*
X0310862Y0022181D02*
X0306177Y0022181D01*
X0300862Y0022181D02*
X0296454Y0022181D01*
X0297731Y0023379D02*
X0299528Y0023379D01*
X0298837Y0024578D02*
X0298435Y0024578D01*
X0298581Y0028173D02*
X0298651Y0028173D01*
X0299148Y0029372D02*
X0298056Y0029372D01*
X0297045Y0030570D02*
X0300277Y0030570D01*
X0293920Y0030570D02*
X0293120Y0030570D01*
X0293120Y0029372D02*
X0293920Y0029372D01*
X0293920Y0028173D02*
X0293120Y0028173D01*
X0293120Y0025776D02*
X0293920Y0025776D01*
X0293920Y0024578D02*
X0293120Y0024578D01*
X0293120Y0023379D02*
X0293920Y0023379D01*
X0293920Y0022181D02*
X0293120Y0022181D01*
X0290585Y0022181D02*
X0286177Y0022181D01*
X0287511Y0023379D02*
X0289309Y0023379D01*
X0288604Y0024578D02*
X0288202Y0024578D01*
X0288388Y0028173D02*
X0288458Y0028173D01*
X0288984Y0029372D02*
X0287892Y0029372D01*
X0286762Y0030570D02*
X0289995Y0030570D01*
X0280277Y0030570D02*
X0236762Y0030570D01*
X0237892Y0029372D02*
X0279148Y0029372D01*
X0278651Y0028173D02*
X0238388Y0028173D01*
X0238620Y0026975D02*
X0278420Y0026975D01*
X0278420Y0025776D02*
X0238620Y0025776D01*
X0238202Y0024578D02*
X0278837Y0024578D01*
X0279528Y0023379D02*
X0237511Y0023379D01*
X0236177Y0022181D02*
X0280862Y0022181D01*
X0303520Y0036600D02*
X0083520Y0036600D01*
X0078520Y0041600D01*
X0078520Y0136600D01*
X0073520Y0141600D01*
X0078313Y0139635D02*
X0080399Y0139635D01*
X0079569Y0138436D02*
X0079512Y0138436D01*
X0080520Y0132444D02*
X0082180Y0132444D01*
X0080520Y0131245D02*
X0133135Y0131245D01*
X0133135Y0131216D02*
X0128971Y0131216D01*
X0129079Y0130534D01*
X0129300Y0129852D01*
X0129626Y0129214D01*
X0130047Y0128634D01*
X0130554Y0128127D01*
X0131134Y0127706D01*
X0131772Y0127381D01*
X0132454Y0127159D01*
X0133135Y0127051D01*
X0133135Y0131216D01*
X0133135Y0131984D01*
X0128971Y0131984D01*
X0129079Y0132666D01*
X0129300Y0133348D01*
X0129626Y0133986D01*
X0130047Y0134566D01*
X0130554Y0135073D01*
X0131134Y0135494D01*
X0131772Y0135819D01*
X0132454Y0136041D01*
X0133135Y0136149D01*
X0133135Y0131984D01*
X0133904Y0131984D01*
X0138068Y0131984D01*
X0137960Y0132666D01*
X0137739Y0133348D01*
X0137414Y0133986D01*
X0136992Y0134566D01*
X0136486Y0135073D01*
X0135906Y0135494D01*
X0135267Y0135819D01*
X0134586Y0136041D01*
X0133904Y0136149D01*
X0133904Y0131984D01*
X0133904Y0131216D01*
X0138068Y0131216D01*
X0137960Y0130534D01*
X0137739Y0129852D01*
X0137414Y0129214D01*
X0136992Y0128634D01*
X0136486Y0128127D01*
X0135906Y0127706D01*
X0135267Y0127381D01*
X0134586Y0127159D01*
X0133904Y0127051D01*
X0133904Y0131216D01*
X0133135Y0131216D01*
X0133904Y0131245D02*
X0339620Y0131245D01*
X0339620Y0130047D02*
X0137802Y0130047D01*
X0137148Y0128848D02*
X0339620Y0128848D01*
X0339620Y0127650D02*
X0135795Y0127650D01*
X0133904Y0127650D02*
X0133135Y0127650D01*
X0133135Y0128848D02*
X0133904Y0128848D01*
X0133904Y0130047D02*
X0133135Y0130047D01*
X0133135Y0132444D02*
X0133904Y0132444D01*
X0133904Y0133642D02*
X0133135Y0133642D01*
X0133135Y0134841D02*
X0133904Y0134841D01*
X0133904Y0136039D02*
X0133135Y0136039D01*
X0132449Y0136039D02*
X0087872Y0136039D01*
X0087502Y0134841D02*
X0130322Y0134841D01*
X0129451Y0133642D02*
X0086718Y0133642D01*
X0084860Y0132444D02*
X0129044Y0132444D01*
X0129237Y0130047D02*
X0080520Y0130047D01*
X0080520Y0128848D02*
X0129891Y0128848D01*
X0131244Y0127650D02*
X0080520Y0127650D01*
X0080520Y0126451D02*
X0339620Y0126451D01*
X0339620Y0125253D02*
X0136023Y0125253D01*
X0135985Y0125290D02*
X0134385Y0125953D01*
X0132654Y0125953D01*
X0131054Y0125290D01*
X0129830Y0124066D01*
X0129167Y0122466D01*
X0129167Y0120734D01*
X0129830Y0119134D01*
X0131054Y0117910D01*
X0132654Y0117247D01*
X0134385Y0117247D01*
X0135985Y0117910D01*
X0137210Y0119134D01*
X0137872Y0120734D01*
X0137872Y0122466D01*
X0137210Y0124066D01*
X0135985Y0125290D01*
X0137215Y0124054D02*
X0339620Y0124054D01*
X0339620Y0122856D02*
X0137711Y0122856D01*
X0137872Y0121657D02*
X0339620Y0121657D01*
X0339620Y0120459D02*
X0137758Y0120459D01*
X0137262Y0119260D02*
X0339620Y0119260D01*
X0339620Y0118062D02*
X0136137Y0118062D01*
X0135081Y0115665D02*
X0339620Y0115665D01*
X0339620Y0116863D02*
X0080520Y0116863D01*
X0080520Y0115665D02*
X0131958Y0115665D01*
X0132654Y0115953D02*
X0131054Y0115290D01*
X0129830Y0114066D01*
X0129167Y0112466D01*
X0129167Y0110734D01*
X0129830Y0109134D01*
X0131054Y0107910D01*
X0132654Y0107247D01*
X0134385Y0107247D01*
X0135985Y0107910D01*
X0137210Y0109134D01*
X0137872Y0110734D01*
X0137872Y0112466D01*
X0137210Y0114066D01*
X0135985Y0115290D01*
X0134385Y0115953D01*
X0132654Y0115953D01*
X0130902Y0118062D02*
X0080520Y0118062D01*
X0080520Y0119260D02*
X0129778Y0119260D01*
X0129281Y0120459D02*
X0080520Y0120459D01*
X0080520Y0121657D02*
X0129167Y0121657D01*
X0129328Y0122856D02*
X0080520Y0122856D01*
X0080520Y0124054D02*
X0129825Y0124054D01*
X0131017Y0125253D02*
X0080520Y0125253D01*
X0076520Y0118444D02*
X0076520Y0115039D01*
X0076486Y0115073D01*
X0075906Y0115494D01*
X0075267Y0115819D01*
X0074586Y0116041D01*
X0073904Y0116149D01*
X0073904Y0111984D01*
X0073135Y0111984D01*
X0073135Y0116149D01*
X0072454Y0116041D01*
X0071772Y0115819D01*
X0071134Y0115494D01*
X0070554Y0115073D01*
X0070520Y0115039D01*
X0070520Y0118444D01*
X0071054Y0117910D01*
X0072654Y0117247D01*
X0074385Y0117247D01*
X0075985Y0117910D01*
X0076520Y0118444D01*
X0076520Y0118062D02*
X0076137Y0118062D01*
X0076520Y0116863D02*
X0070520Y0116863D01*
X0070520Y0115665D02*
X0071468Y0115665D01*
X0073135Y0115665D02*
X0073904Y0115665D01*
X0073904Y0114466D02*
X0073135Y0114466D01*
X0073135Y0113268D02*
X0073904Y0113268D01*
X0073904Y0112069D02*
X0073135Y0112069D01*
X0073135Y0111216D02*
X0073904Y0111216D01*
X0073904Y0107051D01*
X0074586Y0107159D01*
X0075267Y0107381D01*
X0075906Y0107706D01*
X0076486Y0108127D01*
X0076520Y0108161D01*
X0076520Y0104756D01*
X0075985Y0105290D01*
X0074385Y0105953D01*
X0072654Y0105953D01*
X0071054Y0105290D01*
X0070520Y0104756D01*
X0070520Y0108161D01*
X0070554Y0108127D01*
X0071134Y0107706D01*
X0071772Y0107381D01*
X0072454Y0107159D01*
X0073135Y0107051D01*
X0073135Y0111216D01*
X0073135Y0110870D02*
X0073904Y0110870D01*
X0073904Y0109672D02*
X0073135Y0109672D01*
X0073135Y0108473D02*
X0073904Y0108473D01*
X0073904Y0107275D02*
X0073135Y0107275D01*
X0072098Y0107275D02*
X0070520Y0107275D01*
X0070520Y0106076D02*
X0076520Y0106076D01*
X0076520Y0104878D02*
X0076397Y0104878D01*
X0076520Y0107275D02*
X0074942Y0107275D01*
X0070642Y0104878D02*
X0070520Y0104878D01*
X0061520Y0104878D02*
X0053316Y0104878D01*
X0053287Y0104967D02*
X0052866Y0105795D01*
X0052320Y0106546D01*
X0051663Y0107203D01*
X0050912Y0107748D01*
X0050084Y0108170D01*
X0049201Y0108457D01*
X0048284Y0108602D01*
X0043707Y0108602D01*
X0043707Y0102890D01*
X0043332Y0102890D01*
X0043332Y0102515D01*
X0033320Y0102515D01*
X0033320Y0102238D01*
X0033465Y0101321D01*
X0033752Y0100438D01*
X0034174Y0099610D01*
X0034719Y0098859D01*
X0035376Y0098202D01*
X0036127Y0097656D01*
X0036955Y0097235D01*
X0037838Y0096948D01*
X0038755Y0096802D01*
X0043332Y0096802D01*
X0043332Y0102515D01*
X0043707Y0102515D01*
X0043707Y0096802D01*
X0048284Y0096802D01*
X0049201Y0096948D01*
X0050084Y0097235D01*
X0050912Y0097656D01*
X0051663Y0098202D01*
X0052320Y0098859D01*
X0052866Y0099610D01*
X0053287Y0100438D01*
X0053574Y0101321D01*
X0053720Y0102238D01*
X0053720Y0102515D01*
X0043707Y0102515D01*
X0043707Y0102890D01*
X0053720Y0102890D01*
X0053720Y0103167D01*
X0053574Y0104084D01*
X0053287Y0104967D01*
X0052661Y0106076D02*
X0061520Y0106076D01*
X0061520Y0107275D02*
X0051564Y0107275D01*
X0049098Y0108473D02*
X0061520Y0108473D01*
X0061520Y0109672D02*
X0016120Y0109672D01*
X0016120Y0110870D02*
X0061520Y0110870D01*
X0061520Y0112069D02*
X0057597Y0112069D01*
X0058559Y0112468D02*
X0060163Y0114071D01*
X0061031Y0116166D01*
X0061031Y0127034D01*
X0060163Y0129129D01*
X0058559Y0130732D01*
X0056465Y0131600D01*
X0054197Y0131600D01*
X0052102Y0130732D01*
X0050498Y0129129D01*
X0049631Y0127034D01*
X0049631Y0116166D01*
X0050498Y0114071D01*
X0052102Y0112468D01*
X0054197Y0111600D01*
X0056465Y0111600D01*
X0058559Y0112468D01*
X0059359Y0113268D02*
X0061520Y0113268D01*
X0061520Y0114466D02*
X0060326Y0114466D01*
X0060823Y0115665D02*
X0061520Y0115665D01*
X0061520Y0116863D02*
X0061031Y0116863D01*
X0061031Y0118062D02*
X0061520Y0118062D01*
X0061520Y0119260D02*
X0061031Y0119260D01*
X0061031Y0120459D02*
X0061520Y0120459D01*
X0061520Y0121657D02*
X0061031Y0121657D01*
X0061031Y0122856D02*
X0061520Y0122856D01*
X0061520Y0124054D02*
X0061031Y0124054D01*
X0061031Y0125253D02*
X0061520Y0125253D01*
X0061520Y0126451D02*
X0061031Y0126451D01*
X0060776Y0127650D02*
X0061520Y0127650D01*
X0061520Y0128848D02*
X0060279Y0128848D01*
X0059245Y0130047D02*
X0061520Y0130047D01*
X0061520Y0131245D02*
X0057321Y0131245D01*
X0053340Y0131245D02*
X0034214Y0131245D01*
X0033973Y0131368D02*
X0033090Y0131655D01*
X0032173Y0131800D01*
X0031896Y0131800D01*
X0031896Y0121787D01*
X0037609Y0121787D01*
X0037609Y0126364D01*
X0037463Y0127282D01*
X0037176Y0128165D01*
X0036755Y0128992D01*
X0036209Y0129744D01*
X0035552Y0130400D01*
X0034801Y0130946D01*
X0033973Y0131368D01*
X0031896Y0131245D02*
X0031521Y0131245D01*
X0031521Y0131800D02*
X0031244Y0131800D01*
X0030327Y0131655D01*
X0029444Y0131368D01*
X0028616Y0130946D01*
X0027865Y0130400D01*
X0027208Y0129744D01*
X0026663Y0128992D01*
X0026241Y0128165D01*
X0025954Y0127282D01*
X0025809Y0126364D01*
X0025809Y0121787D01*
X0031521Y0121787D01*
X0031521Y0121413D01*
X0025809Y0121413D01*
X0025809Y0116836D01*
X0025954Y0115918D01*
X0026241Y0115035D01*
X0026663Y0114208D01*
X0027208Y0113456D01*
X0027865Y0112800D01*
X0028616Y0112254D01*
X0029444Y0111832D01*
X0030327Y0111545D01*
X0031244Y0111400D01*
X0031521Y0111400D01*
X0031521Y0121413D01*
X0031896Y0121413D01*
X0031896Y0121787D01*
X0031521Y0121787D01*
X0031521Y0131800D01*
X0031521Y0130047D02*
X0031896Y0130047D01*
X0031896Y0128848D02*
X0031521Y0128848D01*
X0031521Y0127650D02*
X0031896Y0127650D01*
X0031896Y0126451D02*
X0031521Y0126451D01*
X0031521Y0125253D02*
X0031896Y0125253D01*
X0031896Y0124054D02*
X0031521Y0124054D01*
X0031521Y0122856D02*
X0031896Y0122856D01*
X0031896Y0121657D02*
X0049631Y0121657D01*
X0049631Y0120459D02*
X0037609Y0120459D01*
X0037609Y0121413D02*
X0031896Y0121413D01*
X0031896Y0111400D01*
X0032173Y0111400D01*
X0033090Y0111545D01*
X0033973Y0111832D01*
X0034801Y0112254D01*
X0035552Y0112800D01*
X0036209Y0113456D01*
X0036755Y0114208D01*
X0037176Y0115035D01*
X0037463Y0115918D01*
X0037609Y0116836D01*
X0037609Y0121413D01*
X0037609Y0122856D02*
X0049631Y0122856D01*
X0049631Y0124054D02*
X0037609Y0124054D01*
X0037609Y0125253D02*
X0049631Y0125253D01*
X0049631Y0126451D02*
X0037595Y0126451D01*
X0037344Y0127650D02*
X0049886Y0127650D01*
X0050382Y0128848D02*
X0036828Y0128848D01*
X0035906Y0130047D02*
X0051416Y0130047D01*
X0061520Y0132444D02*
X0016120Y0132444D01*
X0016120Y0133642D02*
X0061520Y0133642D01*
X0061520Y0134841D02*
X0016120Y0134841D01*
X0016120Y0136039D02*
X0061520Y0136039D01*
X0061520Y0137238D02*
X0016120Y0137238D01*
X0016120Y0138436D02*
X0061520Y0138436D01*
X0061520Y0139635D02*
X0016120Y0139635D01*
X0016120Y0140833D02*
X0061520Y0140833D01*
X0061520Y0142032D02*
X0016120Y0142032D01*
X0016120Y0143230D02*
X0061520Y0143230D01*
X0061520Y0144429D02*
X0016120Y0144429D01*
X0016120Y0145627D02*
X0061520Y0145627D01*
X0061520Y0146826D02*
X0016120Y0146826D01*
X0016120Y0148024D02*
X0061520Y0148024D01*
X0061520Y0149223D02*
X0016120Y0149223D01*
X0016120Y0150421D02*
X0061520Y0150421D01*
X0061520Y0151620D02*
X0016120Y0151620D01*
X0016120Y0152818D02*
X0061520Y0152818D01*
X0061520Y0154017D02*
X0016120Y0154017D01*
X0016120Y0155215D02*
X0061520Y0155215D01*
X0061520Y0156414D02*
X0016120Y0156414D01*
X0016120Y0157612D02*
X0061520Y0157612D01*
X0061520Y0158811D02*
X0016120Y0158811D01*
X0016120Y0160009D02*
X0061520Y0160009D01*
X0061520Y0161208D02*
X0016120Y0161208D01*
X0016120Y0162406D02*
X0061520Y0162406D01*
X0062696Y0163605D02*
X0016120Y0163605D01*
X0016120Y0164803D02*
X0063895Y0164803D01*
X0065093Y0166002D02*
X0016120Y0166002D01*
X0016120Y0167201D02*
X0035265Y0167201D01*
X0035585Y0166968D02*
X0036370Y0166568D01*
X0037208Y0166295D01*
X0037970Y0166175D01*
X0037970Y0171207D01*
X0039070Y0171207D01*
X0039070Y0166175D01*
X0039831Y0166295D01*
X0040669Y0166568D01*
X0041455Y0166968D01*
X0042168Y0167486D01*
X0042791Y0168109D01*
X0043309Y0168822D01*
X0043709Y0169608D01*
X0043982Y0170446D01*
X0044102Y0171207D01*
X0039070Y0171207D01*
X0039070Y0172307D01*
X0044102Y0172307D01*
X0043982Y0173069D01*
X0043709Y0173907D01*
X0043309Y0174693D01*
X0042791Y0175406D01*
X0042168Y0176029D01*
X0041455Y0176547D01*
X0040669Y0176947D01*
X0039831Y0177220D01*
X0039070Y0177340D01*
X0039070Y0172308D01*
X0037970Y0172308D01*
X0037970Y0177340D01*
X0037208Y0177220D01*
X0036370Y0176947D01*
X0035585Y0176547D01*
X0034872Y0176029D01*
X0034248Y0175406D01*
X0033730Y0174693D01*
X0033330Y0173907D01*
X0033058Y0173069D01*
X0032937Y0172307D01*
X0037970Y0172307D01*
X0037970Y0171207D01*
X0032937Y0171207D01*
X0033058Y0170446D01*
X0033330Y0169608D01*
X0033730Y0168822D01*
X0034248Y0168109D01*
X0034872Y0167486D01*
X0035585Y0166968D01*
X0034038Y0168399D02*
X0016120Y0168399D01*
X0016120Y0169598D02*
X0033335Y0169598D01*
X0033002Y0170796D02*
X0016120Y0170796D01*
X0016120Y0171995D02*
X0037970Y0171995D01*
X0039070Y0171995D02*
X0069167Y0171995D01*
X0069167Y0170796D02*
X0044037Y0170796D01*
X0043704Y0169598D02*
X0068689Y0169598D01*
X0067490Y0168399D02*
X0043002Y0168399D01*
X0041775Y0167201D02*
X0066292Y0167201D01*
X0069552Y0164803D02*
X0070567Y0164803D01*
X0070750Y0166002D02*
X0126520Y0166002D01*
X0126520Y0167201D02*
X0071949Y0167201D01*
X0069639Y0163605D02*
X0068353Y0163605D01*
X0069167Y0162406D02*
X0067155Y0162406D01*
X0065956Y0161208D02*
X0069167Y0161208D01*
X0069101Y0160009D02*
X0065520Y0160009D01*
X0065520Y0158811D02*
X0067902Y0158811D01*
X0066704Y0157612D02*
X0065520Y0157612D01*
X0066520Y0154600D02*
X0066520Y0045772D01*
X0080591Y0031700D01*
X0145632Y0031700D01*
X0150732Y0026600D01*
X0153520Y0026600D01*
X0148837Y0024578D02*
X0148202Y0024578D01*
X0147511Y0023379D02*
X0149528Y0023379D01*
X0150862Y0022181D02*
X0146177Y0022181D01*
X0140862Y0022181D02*
X0136454Y0022181D01*
X0137731Y0023379D02*
X0139528Y0023379D01*
X0138837Y0024578D02*
X0138435Y0024578D01*
X0133920Y0024578D02*
X0133120Y0024578D01*
X0133120Y0025776D02*
X0133920Y0025776D01*
X0133920Y0023379D02*
X0133120Y0023379D01*
X0133120Y0022181D02*
X0133920Y0022181D01*
X0130585Y0022181D02*
X0126177Y0022181D01*
X0127511Y0023379D02*
X0129309Y0023379D01*
X0128604Y0024578D02*
X0128202Y0024578D01*
X0120862Y0022181D02*
X0076177Y0022181D01*
X0077511Y0023379D02*
X0119528Y0023379D01*
X0118837Y0024578D02*
X0078202Y0024578D01*
X0078620Y0025776D02*
X0118420Y0025776D01*
X0118420Y0026975D02*
X0078620Y0026975D01*
X0078388Y0028173D02*
X0118651Y0028173D01*
X0119148Y0029372D02*
X0077892Y0029372D01*
X0078893Y0030570D02*
X0076762Y0030570D01*
X0077694Y0031769D02*
X0075520Y0031769D01*
X0074981Y0032967D02*
X0076496Y0032967D01*
X0075297Y0034166D02*
X0073782Y0034166D01*
X0074099Y0035364D02*
X0072584Y0035364D01*
X0072900Y0036563D02*
X0071385Y0036563D01*
X0071702Y0037761D02*
X0070187Y0037761D01*
X0070503Y0038960D02*
X0068988Y0038960D01*
X0069304Y0040158D02*
X0067790Y0040158D01*
X0068106Y0041357D02*
X0066591Y0041357D01*
X0066907Y0042555D02*
X0065520Y0042555D01*
X0065520Y0043754D02*
X0065709Y0043754D01*
X0063520Y0041600D02*
X0073520Y0031600D01*
X0073520Y0026600D01*
X0070277Y0030570D02*
X0066762Y0030570D01*
X0067892Y0029372D02*
X0069148Y0029372D01*
X0068651Y0028173D02*
X0068388Y0028173D01*
X0068202Y0024578D02*
X0068837Y0024578D01*
X0069528Y0023379D02*
X0067511Y0023379D01*
X0066177Y0022181D02*
X0070862Y0022181D01*
X0070523Y0031769D02*
X0054763Y0031769D01*
X0053920Y0031769D02*
X0053120Y0031769D01*
X0052276Y0031769D02*
X0016120Y0031769D01*
X0016120Y0032967D02*
X0069324Y0032967D01*
X0068125Y0034166D02*
X0016120Y0034166D01*
X0016120Y0035364D02*
X0066927Y0035364D01*
X0065728Y0036563D02*
X0016120Y0036563D01*
X0016120Y0037761D02*
X0064530Y0037761D01*
X0063331Y0038960D02*
X0016120Y0038960D01*
X0016120Y0040158D02*
X0062133Y0040158D01*
X0061520Y0041357D02*
X0016120Y0041357D01*
X0016120Y0042555D02*
X0040210Y0042555D01*
X0040574Y0042192D02*
X0042485Y0041400D01*
X0044554Y0041400D01*
X0046465Y0042192D01*
X0047928Y0043654D01*
X0048720Y0045566D01*
X0048720Y0047634D01*
X0047928Y0049546D01*
X0046465Y0051008D01*
X0045287Y0051496D01*
X0045593Y0051596D01*
X0046350Y0051982D01*
X0047038Y0052481D01*
X0047639Y0053082D01*
X0048138Y0053770D01*
X0048524Y0054527D01*
X0048787Y0055335D01*
X0048920Y0056175D01*
X0048920Y0056413D01*
X0043707Y0056413D01*
X0043707Y0056787D01*
X0048920Y0056787D01*
X0048920Y0057025D01*
X0048787Y0057865D01*
X0048524Y0058673D01*
X0048138Y0059430D01*
X0047639Y0060118D01*
X0047038Y0060719D01*
X0046350Y0061218D01*
X0045593Y0061604D01*
X0045287Y0061704D01*
X0046465Y0062192D01*
X0047928Y0063654D01*
X0048720Y0065566D01*
X0048720Y0067634D01*
X0047928Y0069546D01*
X0046465Y0071008D01*
X0045037Y0071600D01*
X0046465Y0072192D01*
X0047928Y0073654D01*
X0048720Y0075566D01*
X0048720Y0077634D01*
X0047928Y0079546D01*
X0046465Y0081008D01*
X0044554Y0081800D01*
X0042485Y0081800D01*
X0040574Y0081008D01*
X0039111Y0079546D01*
X0038320Y0077634D01*
X0038320Y0075566D01*
X0039111Y0073654D01*
X0040574Y0072192D01*
X0042003Y0071600D01*
X0040574Y0071008D01*
X0039111Y0069546D01*
X0038320Y0067634D01*
X0038320Y0065566D01*
X0039111Y0063654D01*
X0040574Y0062192D01*
X0041752Y0061704D01*
X0041447Y0061604D01*
X0040689Y0061218D01*
X0040002Y0060719D01*
X0039401Y0060118D01*
X0038901Y0059430D01*
X0038515Y0058673D01*
X0038253Y0057865D01*
X0038120Y0057025D01*
X0038120Y0056787D01*
X0043332Y0056787D01*
X0043332Y0056413D01*
X0038120Y0056413D01*
X0038120Y0056175D01*
X0038253Y0055335D01*
X0038515Y0054527D01*
X0038901Y0053770D01*
X0039401Y0053082D01*
X0040002Y0052481D01*
X0040689Y0051982D01*
X0041447Y0051596D01*
X0041752Y0051496D01*
X0040574Y0051008D01*
X0039111Y0049546D01*
X0038320Y0047634D01*
X0038320Y0045566D01*
X0039111Y0043654D01*
X0040574Y0042192D01*
X0039070Y0043754D02*
X0016120Y0043754D01*
X0016120Y0044952D02*
X0038574Y0044952D01*
X0038320Y0046151D02*
X0016120Y0046151D01*
X0016120Y0047349D02*
X0038320Y0047349D01*
X0038698Y0048548D02*
X0016120Y0048548D01*
X0016120Y0049746D02*
X0039312Y0049746D01*
X0040511Y0050945D02*
X0016120Y0050945D01*
X0016120Y0052143D02*
X0040467Y0052143D01*
X0039212Y0053342D02*
X0016120Y0053342D01*
X0016120Y0054540D02*
X0038511Y0054540D01*
X0038189Y0055739D02*
X0016120Y0055739D01*
X0016120Y0056937D02*
X0038120Y0056937D01*
X0038341Y0058136D02*
X0016120Y0058136D01*
X0016120Y0059334D02*
X0038852Y0059334D01*
X0039816Y0060533D02*
X0016120Y0060533D01*
X0016120Y0061732D02*
X0041685Y0061732D01*
X0039836Y0062930D02*
X0016120Y0062930D01*
X0016120Y0064129D02*
X0038915Y0064129D01*
X0038419Y0065327D02*
X0016120Y0065327D01*
X0016120Y0066526D02*
X0038320Y0066526D01*
X0038357Y0067724D02*
X0016120Y0067724D01*
X0016120Y0068923D02*
X0038853Y0068923D01*
X0039687Y0070121D02*
X0016120Y0070121D01*
X0016120Y0071320D02*
X0041326Y0071320D01*
X0040248Y0072518D02*
X0016120Y0072518D01*
X0016120Y0073717D02*
X0039086Y0073717D01*
X0038589Y0074915D02*
X0016120Y0074915D01*
X0016120Y0076114D02*
X0038320Y0076114D01*
X0038320Y0077312D02*
X0016120Y0077312D01*
X0016120Y0078511D02*
X0038683Y0078511D01*
X0039275Y0079709D02*
X0016120Y0079709D01*
X0016120Y0080908D02*
X0040473Y0080908D01*
X0046566Y0080908D02*
X0061520Y0080908D01*
X0061520Y0082106D02*
X0016120Y0082106D01*
X0016120Y0083305D02*
X0061520Y0083305D01*
X0061520Y0084503D02*
X0016120Y0084503D01*
X0016120Y0085702D02*
X0061520Y0085702D01*
X0061520Y0086900D02*
X0016120Y0086900D01*
X0016120Y0088099D02*
X0061520Y0088099D01*
X0061520Y0089297D02*
X0016120Y0089297D01*
X0016120Y0090496D02*
X0061520Y0090496D01*
X0061520Y0091694D02*
X0016120Y0091694D01*
X0016120Y0092893D02*
X0061520Y0092893D01*
X0061520Y0094091D02*
X0016120Y0094091D01*
X0016120Y0095290D02*
X0061520Y0095290D01*
X0061520Y0096488D02*
X0016120Y0096488D01*
X0016120Y0097687D02*
X0036085Y0097687D01*
X0034700Y0098885D02*
X0016120Y0098885D01*
X0016120Y0100084D02*
X0033932Y0100084D01*
X0033477Y0101282D02*
X0016120Y0101282D01*
X0016120Y0102481D02*
X0033320Y0102481D01*
X0033320Y0102890D02*
X0043332Y0102890D01*
X0043332Y0108602D01*
X0038755Y0108602D01*
X0037838Y0108457D01*
X0036955Y0108170D01*
X0036127Y0107748D01*
X0035376Y0107203D01*
X0034719Y0106546D01*
X0034174Y0105795D01*
X0033752Y0104967D01*
X0033465Y0104084D01*
X0033320Y0103167D01*
X0033320Y0102890D01*
X0033401Y0103679D02*
X0016120Y0103679D01*
X0016120Y0104878D02*
X0033723Y0104878D01*
X0034378Y0106076D02*
X0016120Y0106076D01*
X0016120Y0107275D02*
X0035476Y0107275D01*
X0037942Y0108473D02*
X0016120Y0108473D01*
X0016120Y0112069D02*
X0028979Y0112069D01*
X0027397Y0113268D02*
X0016120Y0113268D01*
X0016120Y0114466D02*
X0026531Y0114466D01*
X0026036Y0115665D02*
X0016120Y0115665D01*
X0016120Y0116863D02*
X0025809Y0116863D01*
X0025809Y0118062D02*
X0016120Y0118062D01*
X0016120Y0119260D02*
X0025809Y0119260D01*
X0025809Y0120459D02*
X0016120Y0120459D01*
X0016120Y0121657D02*
X0031521Y0121657D01*
X0031521Y0120459D02*
X0031896Y0120459D01*
X0031896Y0119260D02*
X0031521Y0119260D01*
X0031521Y0118062D02*
X0031896Y0118062D01*
X0031896Y0116863D02*
X0031521Y0116863D01*
X0031521Y0115665D02*
X0031896Y0115665D01*
X0031896Y0114466D02*
X0031521Y0114466D01*
X0031521Y0113268D02*
X0031896Y0113268D01*
X0031896Y0112069D02*
X0031521Y0112069D01*
X0034438Y0112069D02*
X0053065Y0112069D01*
X0051302Y0113268D02*
X0036020Y0113268D01*
X0036886Y0114466D02*
X0050335Y0114466D01*
X0049838Y0115665D02*
X0037381Y0115665D01*
X0037609Y0116863D02*
X0049631Y0116863D01*
X0049631Y0118062D02*
X0037609Y0118062D01*
X0037609Y0119260D02*
X0049631Y0119260D01*
X0043707Y0108473D02*
X0043332Y0108473D01*
X0043332Y0107275D02*
X0043707Y0107275D01*
X0043707Y0106076D02*
X0043332Y0106076D01*
X0043332Y0104878D02*
X0043707Y0104878D01*
X0043707Y0103679D02*
X0043332Y0103679D01*
X0043332Y0102481D02*
X0043707Y0102481D01*
X0043707Y0101282D02*
X0043332Y0101282D01*
X0043332Y0100084D02*
X0043707Y0100084D01*
X0043707Y0098885D02*
X0043332Y0098885D01*
X0043332Y0097687D02*
X0043707Y0097687D01*
X0050954Y0097687D02*
X0061520Y0097687D01*
X0061520Y0098885D02*
X0052339Y0098885D01*
X0053107Y0100084D02*
X0061520Y0100084D01*
X0061520Y0101282D02*
X0053562Y0101282D01*
X0053720Y0102481D02*
X0061520Y0102481D01*
X0061520Y0103679D02*
X0053638Y0103679D01*
X0070520Y0118062D02*
X0070902Y0118062D01*
X0075571Y0115665D02*
X0076520Y0115665D01*
X0080520Y0114466D02*
X0130230Y0114466D01*
X0129499Y0113268D02*
X0080520Y0113268D01*
X0080520Y0112069D02*
X0129167Y0112069D01*
X0129167Y0110870D02*
X0080520Y0110870D01*
X0080520Y0109672D02*
X0129607Y0109672D01*
X0130490Y0108473D02*
X0080520Y0108473D01*
X0080520Y0107275D02*
X0132587Y0107275D01*
X0132654Y0105953D02*
X0131054Y0105290D01*
X0129830Y0104066D01*
X0129167Y0102466D01*
X0129167Y0100734D01*
X0129830Y0099134D01*
X0131054Y0097910D01*
X0132654Y0097247D01*
X0134385Y0097247D01*
X0135985Y0097910D01*
X0137210Y0099134D01*
X0137872Y0100734D01*
X0137872Y0102466D01*
X0137210Y0104066D01*
X0135985Y0105290D01*
X0134385Y0105953D01*
X0132654Y0105953D01*
X0134452Y0107275D02*
X0339620Y0107275D01*
X0339620Y0108473D02*
X0136549Y0108473D01*
X0137432Y0109672D02*
X0339620Y0109672D01*
X0339620Y0110870D02*
X0137872Y0110870D01*
X0137872Y0112069D02*
X0339620Y0112069D01*
X0339620Y0113268D02*
X0137540Y0113268D01*
X0136809Y0114466D02*
X0339620Y0114466D01*
X0339620Y0106076D02*
X0080520Y0106076D01*
X0080520Y0104878D02*
X0130642Y0104878D01*
X0129670Y0103679D02*
X0080520Y0103679D01*
X0080520Y0102481D02*
X0129173Y0102481D01*
X0129167Y0101282D02*
X0080520Y0101282D01*
X0080520Y0100084D02*
X0129436Y0100084D01*
X0130079Y0098885D02*
X0080520Y0098885D01*
X0080520Y0097687D02*
X0131593Y0097687D01*
X0135447Y0097687D02*
X0339620Y0097687D01*
X0339620Y0098885D02*
X0136961Y0098885D01*
X0137603Y0100084D02*
X0339620Y0100084D01*
X0339620Y0101282D02*
X0137872Y0101282D01*
X0137866Y0102481D02*
X0339620Y0102481D01*
X0339620Y0103679D02*
X0137370Y0103679D01*
X0136397Y0104878D02*
X0339620Y0104878D01*
X0339620Y0096488D02*
X0080520Y0096488D01*
X0080520Y0095290D02*
X0339620Y0095290D01*
X0339620Y0094091D02*
X0080520Y0094091D01*
X0080520Y0092893D02*
X0339620Y0092893D01*
X0339620Y0091694D02*
X0080520Y0091694D01*
X0080520Y0090496D02*
X0339620Y0090496D01*
X0339620Y0089297D02*
X0080520Y0089297D01*
X0080520Y0088099D02*
X0339620Y0088099D01*
X0339620Y0086900D02*
X0080520Y0086900D01*
X0080520Y0085702D02*
X0339620Y0085702D01*
X0339620Y0084503D02*
X0080520Y0084503D01*
X0080520Y0083305D02*
X0339620Y0083305D01*
X0339620Y0082106D02*
X0080520Y0082106D01*
X0080520Y0080908D02*
X0171096Y0080908D01*
X0169773Y0080645D02*
X0169773Y0080645D01*
X0166597Y0078522D01*
X0164475Y0075346D01*
X0163730Y0071600D01*
X0164475Y0067854D01*
X0164475Y0067854D01*
X0166597Y0064678D01*
X0166597Y0064678D01*
X0166597Y0064678D01*
X0169773Y0062555D01*
X0169773Y0062555D01*
X0173520Y0061810D01*
X0177266Y0062555D01*
X0180442Y0064678D01*
X0182564Y0067854D01*
X0183309Y0071600D01*
X0182564Y0075346D01*
X0182564Y0075346D01*
X0180442Y0078522D01*
X0180442Y0078522D01*
X0177266Y0080645D01*
X0173520Y0081390D01*
X0173520Y0081390D01*
X0169773Y0080645D01*
X0168373Y0079709D02*
X0080520Y0079709D01*
X0080520Y0078511D02*
X0166589Y0078511D01*
X0166597Y0078522D02*
X0166597Y0078522D01*
X0166597Y0078522D01*
X0165789Y0077312D02*
X0080520Y0077312D01*
X0080520Y0076114D02*
X0164988Y0076114D01*
X0164475Y0075346D02*
X0164475Y0075346D01*
X0164389Y0074915D02*
X0080520Y0074915D01*
X0080520Y0073717D02*
X0164151Y0073717D01*
X0163913Y0072518D02*
X0080520Y0072518D01*
X0080520Y0071320D02*
X0163786Y0071320D01*
X0163730Y0071600D02*
X0163730Y0071600D01*
X0164024Y0070121D02*
X0080520Y0070121D01*
X0080520Y0068923D02*
X0164262Y0068923D01*
X0164562Y0067724D02*
X0080520Y0067724D01*
X0080520Y0066526D02*
X0165362Y0066526D01*
X0166163Y0065327D02*
X0080520Y0065327D01*
X0080520Y0064129D02*
X0167419Y0064129D01*
X0169213Y0062930D02*
X0080520Y0062930D01*
X0080520Y0061732D02*
X0339620Y0061732D01*
X0339620Y0062930D02*
X0177827Y0062930D01*
X0177266Y0062555D02*
X0177266Y0062555D01*
X0179620Y0064129D02*
X0339620Y0064129D01*
X0339620Y0065327D02*
X0180876Y0065327D01*
X0180442Y0064678D02*
X0180442Y0064678D01*
X0181677Y0066526D02*
X0339620Y0066526D01*
X0339620Y0067724D02*
X0182478Y0067724D01*
X0182564Y0067854D02*
X0182564Y0067854D01*
X0182777Y0068923D02*
X0339620Y0068923D01*
X0339620Y0070121D02*
X0183015Y0070121D01*
X0183254Y0071320D02*
X0339620Y0071320D01*
X0339620Y0072518D02*
X0183127Y0072518D01*
X0182888Y0073717D02*
X0339620Y0073717D01*
X0339620Y0074915D02*
X0182650Y0074915D01*
X0182052Y0076114D02*
X0339620Y0076114D01*
X0339620Y0077312D02*
X0181251Y0077312D01*
X0180450Y0078511D02*
X0339620Y0078511D01*
X0339620Y0079709D02*
X0178666Y0079709D01*
X0177266Y0080645D02*
X0177266Y0080645D01*
X0175943Y0080908D02*
X0339620Y0080908D01*
X0339620Y0060533D02*
X0080520Y0060533D01*
X0080520Y0059334D02*
X0339620Y0059334D01*
X0339620Y0058136D02*
X0080520Y0058136D01*
X0080520Y0056937D02*
X0339620Y0056937D01*
X0339620Y0055739D02*
X0080520Y0055739D01*
X0080520Y0054540D02*
X0339620Y0054540D01*
X0339620Y0053342D02*
X0080520Y0053342D01*
X0080520Y0052143D02*
X0339620Y0052143D01*
X0339620Y0050945D02*
X0080520Y0050945D01*
X0080520Y0049746D02*
X0339620Y0049746D01*
X0339620Y0048548D02*
X0080520Y0048548D01*
X0080520Y0047349D02*
X0339620Y0047349D01*
X0339620Y0046151D02*
X0080520Y0046151D01*
X0080520Y0044952D02*
X0339620Y0044952D01*
X0339620Y0043754D02*
X0080520Y0043754D01*
X0080520Y0042555D02*
X0339620Y0042555D01*
X0339620Y0041357D02*
X0081591Y0041357D01*
X0082790Y0040158D02*
X0339620Y0040158D01*
X0339620Y0038960D02*
X0083988Y0038960D01*
X0063520Y0041600D02*
X0063520Y0161600D01*
X0073520Y0171600D01*
X0077571Y0173193D02*
X0126520Y0173193D01*
X0126520Y0171995D02*
X0077872Y0171995D01*
X0077872Y0170796D02*
X0126520Y0170796D01*
X0126520Y0169598D02*
X0077402Y0169598D01*
X0076474Y0168399D02*
X0126520Y0168399D01*
X0126520Y0174392D02*
X0076884Y0174392D01*
X0075261Y0175590D02*
X0126520Y0175590D01*
X0126520Y0176789D02*
X0040981Y0176789D01*
X0039070Y0176789D02*
X0037970Y0176789D01*
X0037970Y0175590D02*
X0039070Y0175590D01*
X0039070Y0174392D02*
X0037970Y0174392D01*
X0037970Y0173193D02*
X0039070Y0173193D01*
X0039070Y0170796D02*
X0037970Y0170796D01*
X0037970Y0169598D02*
X0039070Y0169598D01*
X0039070Y0168399D02*
X0037970Y0168399D01*
X0037970Y0167201D02*
X0039070Y0167201D01*
X0043941Y0173193D02*
X0069468Y0173193D01*
X0070156Y0174392D02*
X0043463Y0174392D01*
X0042607Y0175590D02*
X0071778Y0175590D01*
X0070977Y0177987D02*
X0016120Y0177987D01*
X0016120Y0176789D02*
X0036059Y0176789D01*
X0034433Y0175590D02*
X0016120Y0175590D01*
X0016120Y0174392D02*
X0033577Y0174392D01*
X0033098Y0173193D02*
X0016120Y0173193D01*
X0016120Y0179186D02*
X0069808Y0179186D01*
X0069312Y0180384D02*
X0016120Y0180384D01*
X0016120Y0181583D02*
X0069167Y0181583D01*
X0069298Y0182781D02*
X0016120Y0182781D01*
X0016120Y0183980D02*
X0069794Y0183980D01*
X0070942Y0185178D02*
X0016120Y0185178D01*
X0016120Y0186377D02*
X0033606Y0186377D01*
X0033120Y0187575D02*
X0016120Y0187575D01*
X0016120Y0188774D02*
X0033120Y0188774D01*
X0033120Y0189972D02*
X0016120Y0189972D01*
X0016120Y0191171D02*
X0033120Y0191171D01*
X0033120Y0192369D02*
X0016120Y0192369D01*
X0016120Y0193568D02*
X0033120Y0193568D01*
X0033120Y0194766D02*
X0016120Y0194766D01*
X0066520Y0154600D02*
X0073520Y0161600D01*
X0077572Y0160009D02*
X0126520Y0160009D01*
X0126520Y0158811D02*
X0076886Y0158811D01*
X0077872Y0161208D02*
X0126520Y0161208D01*
X0126520Y0162406D02*
X0077872Y0162406D01*
X0077401Y0163605D02*
X0126520Y0163605D01*
X0126520Y0164803D02*
X0076472Y0164803D01*
X0077743Y0150421D02*
X0081371Y0150421D01*
X0079987Y0149223D02*
X0077246Y0149223D01*
X0085668Y0150421D02*
X0126520Y0150421D01*
X0126520Y0149223D02*
X0087053Y0149223D01*
X0087641Y0148024D02*
X0127267Y0148024D01*
X0128465Y0146826D02*
X0087872Y0146826D01*
X0087828Y0145627D02*
X0129664Y0145627D01*
X0130193Y0144429D02*
X0087332Y0144429D01*
X0086306Y0143230D02*
X0129484Y0143230D01*
X0134122Y0146826D02*
X0310825Y0146826D01*
X0309627Y0148024D02*
X0136100Y0148024D01*
X0137246Y0149223D02*
X0308428Y0149223D01*
X0308880Y0151600D02*
X0312161Y0148319D01*
X0314879Y0148319D01*
X0318160Y0151600D01*
X0318520Y0151600D01*
X0321458Y0152818D02*
X0339620Y0152818D01*
X0339620Y0151620D02*
X0321701Y0151620D01*
X0321475Y0150421D02*
X0339620Y0150421D01*
X0339620Y0149223D02*
X0320641Y0149223D01*
X0317413Y0148024D02*
X0339620Y0148024D01*
X0339620Y0146826D02*
X0316214Y0146826D01*
X0310581Y0152818D02*
X0310490Y0152818D01*
X0311438Y0154017D02*
X0137230Y0154017D01*
X0136060Y0155215D02*
X0310650Y0155215D01*
X0310339Y0156414D02*
X0130520Y0156414D01*
X0130520Y0157612D02*
X0131772Y0157612D01*
X0130979Y0155215D02*
X0130520Y0155215D01*
X0133520Y0151600D02*
X0308880Y0151600D01*
X0310496Y0157612D02*
X0135267Y0157612D01*
X0136886Y0158811D02*
X0311232Y0158811D01*
X0310735Y0160009D02*
X0137572Y0160009D01*
X0137872Y0161208D02*
X0310339Y0161208D01*
X0310411Y0162406D02*
X0137872Y0162406D01*
X0137401Y0163605D02*
X0311026Y0163605D01*
X0310654Y0164803D02*
X0136472Y0164803D01*
X0130567Y0164803D02*
X0130520Y0164803D01*
X0126520Y0177987D02*
X0076063Y0177987D01*
X0077231Y0179186D02*
X0126520Y0179186D01*
X0137872Y0191171D02*
X0326520Y0191171D01*
X0326520Y0192369D02*
X0137872Y0192369D01*
X0138316Y0193568D02*
X0326520Y0193568D01*
X0326520Y0194766D02*
X0139514Y0194766D01*
X0140713Y0195965D02*
X0326520Y0195965D01*
X0326520Y0197163D02*
X0141911Y0197163D01*
X0143110Y0198362D02*
X0326520Y0198362D01*
X0326520Y0199560D02*
X0144308Y0199560D01*
X0145507Y0200759D02*
X0326520Y0200759D01*
X0326520Y0201957D02*
X0146705Y0201957D01*
X0147904Y0203156D02*
X0326520Y0203156D01*
X0326520Y0204354D02*
X0149102Y0204354D01*
X0150301Y0205553D02*
X0326520Y0205553D01*
X0326520Y0206751D02*
X0151499Y0206751D01*
X0152698Y0207950D02*
X0326520Y0207950D01*
X0326520Y0209148D02*
X0153897Y0209148D01*
X0155095Y0210347D02*
X0326520Y0210347D01*
X0326520Y0211545D02*
X0156294Y0211545D01*
X0157492Y0212744D02*
X0326520Y0212744D01*
X0326520Y0213942D02*
X0158691Y0213942D01*
X0159889Y0215141D02*
X0326520Y0215141D01*
X0326520Y0216339D02*
X0161088Y0216339D01*
X0162286Y0217538D02*
X0326520Y0217538D01*
X0326520Y0218737D02*
X0204477Y0218737D01*
X0204151Y0218411D02*
X0205209Y0219469D01*
X0205782Y0220852D01*
X0205782Y0222348D01*
X0205209Y0223731D01*
X0204151Y0224789D01*
X0202768Y0225362D01*
X0201271Y0225362D01*
X0199889Y0224789D01*
X0198830Y0223731D01*
X0198257Y0222348D01*
X0198257Y0220852D01*
X0198830Y0219469D01*
X0199889Y0218411D01*
X0201271Y0217838D01*
X0202768Y0217838D01*
X0204151Y0218411D01*
X0205402Y0219935D02*
X0326520Y0219935D01*
X0326520Y0221134D02*
X0205782Y0221134D01*
X0205782Y0222332D02*
X0326520Y0222332D01*
X0326520Y0223531D02*
X0205292Y0223531D01*
X0204211Y0224729D02*
X0326520Y0224729D01*
X0326520Y0225928D02*
X0170676Y0225928D01*
X0171874Y0227126D02*
X0326520Y0227126D01*
X0326520Y0228325D02*
X0320443Y0228325D01*
X0320651Y0228411D02*
X0321709Y0229469D01*
X0322282Y0230852D01*
X0322282Y0232348D01*
X0321709Y0233731D01*
X0320651Y0234789D01*
X0319268Y0235362D01*
X0317771Y0235362D01*
X0316389Y0234789D01*
X0315330Y0233731D01*
X0314757Y0232348D01*
X0314757Y0230852D01*
X0315330Y0229469D01*
X0316389Y0228411D01*
X0317771Y0227838D01*
X0319268Y0227838D01*
X0320651Y0228411D01*
X0321732Y0229523D02*
X0326520Y0229523D01*
X0326520Y0230722D02*
X0322228Y0230722D01*
X0322282Y0231920D02*
X0326520Y0231920D01*
X0326520Y0233119D02*
X0321963Y0233119D01*
X0321123Y0234317D02*
X0326520Y0234317D01*
X0326520Y0235516D02*
X0180264Y0235516D01*
X0181462Y0236714D02*
X0326520Y0236714D01*
X0326520Y0237913D02*
X0319449Y0237913D01*
X0319268Y0237838D02*
X0320651Y0238411D01*
X0321709Y0239469D01*
X0322282Y0240852D01*
X0322282Y0242348D01*
X0321709Y0243731D01*
X0320651Y0244789D01*
X0319268Y0245362D01*
X0317771Y0245362D01*
X0316389Y0244789D01*
X0315330Y0243731D01*
X0314757Y0242348D01*
X0314757Y0240852D01*
X0315330Y0239469D01*
X0316389Y0238411D01*
X0317771Y0237838D01*
X0319268Y0237838D01*
X0317591Y0237913D02*
X0202949Y0237913D01*
X0201091Y0237913D02*
X0182661Y0237913D01*
X0183859Y0239111D02*
X0199188Y0239111D01*
X0202020Y0241600D02*
X0183520Y0241600D01*
X0179065Y0234317D02*
X0199416Y0234317D01*
X0199889Y0234789D02*
X0198830Y0233731D01*
X0198257Y0232348D01*
X0198257Y0230852D01*
X0198830Y0229469D01*
X0199889Y0228411D01*
X0201271Y0227838D01*
X0202768Y0227838D01*
X0204151Y0228411D01*
X0205209Y0229469D01*
X0205782Y0230852D01*
X0205782Y0232348D01*
X0205209Y0233731D01*
X0204151Y0234789D01*
X0202768Y0235362D01*
X0201271Y0235362D01*
X0199889Y0234789D01*
X0198577Y0233119D02*
X0177867Y0233119D01*
X0176668Y0231920D02*
X0198257Y0231920D01*
X0198311Y0230722D02*
X0175470Y0230722D01*
X0174271Y0229523D02*
X0198808Y0229523D01*
X0200096Y0228325D02*
X0173073Y0228325D01*
X0169813Y0230722D02*
X0130520Y0230722D01*
X0130520Y0231920D02*
X0171011Y0231920D01*
X0172210Y0233119D02*
X0130520Y0233119D01*
X0130520Y0234317D02*
X0173408Y0234317D01*
X0174607Y0235516D02*
X0130520Y0235516D01*
X0130520Y0236714D02*
X0175805Y0236714D01*
X0168614Y0229523D02*
X0130520Y0229523D01*
X0130520Y0228325D02*
X0167416Y0228325D01*
X0166217Y0227126D02*
X0130520Y0227126D01*
X0130520Y0225928D02*
X0165019Y0225928D01*
X0163820Y0224729D02*
X0130520Y0224729D01*
X0130520Y0223531D02*
X0162622Y0223531D01*
X0161423Y0222332D02*
X0130520Y0222332D01*
X0130520Y0221134D02*
X0160225Y0221134D01*
X0159026Y0219935D02*
X0130520Y0219935D01*
X0130520Y0218737D02*
X0157828Y0218737D01*
X0156629Y0217538D02*
X0130520Y0217538D01*
X0130520Y0216339D02*
X0155431Y0216339D01*
X0154232Y0215141D02*
X0136134Y0215141D01*
X0137261Y0213942D02*
X0153034Y0213942D01*
X0151835Y0212744D02*
X0137757Y0212744D01*
X0137872Y0211545D02*
X0150637Y0211545D01*
X0149438Y0210347D02*
X0137712Y0210347D01*
X0137216Y0209148D02*
X0148240Y0209148D01*
X0147041Y0207950D02*
X0136025Y0207950D01*
X0135351Y0205553D02*
X0144644Y0205553D01*
X0143446Y0204354D02*
X0136921Y0204354D01*
X0137587Y0203156D02*
X0142247Y0203156D01*
X0141049Y0201957D02*
X0137872Y0201957D01*
X0137872Y0200759D02*
X0139850Y0200759D01*
X0138652Y0199560D02*
X0137386Y0199560D01*
X0137453Y0198362D02*
X0136437Y0198362D01*
X0136255Y0197163D02*
X0130520Y0197163D01*
X0130520Y0195965D02*
X0135056Y0195965D01*
X0130530Y0194766D02*
X0130520Y0194766D01*
X0130520Y0198362D02*
X0130602Y0198362D01*
X0130520Y0205553D02*
X0131688Y0205553D01*
X0130520Y0206751D02*
X0145843Y0206751D01*
X0131014Y0207950D02*
X0130520Y0207950D01*
X0130520Y0215141D02*
X0130905Y0215141D01*
X0130520Y0243905D02*
X0199004Y0243905D01*
X0200647Y0245104D02*
X0130520Y0245104D01*
X0130520Y0246302D02*
X0326520Y0246302D01*
X0326520Y0245104D02*
X0319892Y0245104D01*
X0321535Y0243905D02*
X0326520Y0243905D01*
X0326520Y0242707D02*
X0322133Y0242707D01*
X0322282Y0241508D02*
X0326520Y0241508D01*
X0326520Y0240310D02*
X0322057Y0240310D01*
X0321351Y0239111D02*
X0326520Y0239111D01*
X0326520Y0247501D02*
X0130520Y0247501D01*
X0130520Y0248699D02*
X0199600Y0248699D01*
X0198653Y0249898D02*
X0130520Y0249898D01*
X0130520Y0251096D02*
X0198257Y0251096D01*
X0198257Y0252295D02*
X0130520Y0252295D01*
X0130520Y0253493D02*
X0198732Y0253493D01*
X0199791Y0254692D02*
X0130520Y0254692D01*
X0130520Y0255890D02*
X0326401Y0255890D01*
X0326520Y0254692D02*
X0321024Y0254692D01*
X0322020Y0253493D02*
X0326520Y0253493D01*
X0326520Y0252295D02*
X0322421Y0252295D01*
X0322459Y0251096D02*
X0326520Y0251096D01*
X0326520Y0249898D02*
X0322103Y0249898D01*
X0321222Y0248699D02*
X0326520Y0248699D01*
X0328520Y0256600D02*
X0328520Y0181600D01*
X0318520Y0171600D01*
X0321848Y0166002D02*
X0339620Y0166002D01*
X0339620Y0164803D02*
X0321386Y0164803D01*
X0321013Y0163605D02*
X0339620Y0163605D01*
X0339620Y0162406D02*
X0321629Y0162406D01*
X0321701Y0161208D02*
X0339620Y0161208D01*
X0339620Y0160009D02*
X0321304Y0160009D01*
X0320807Y0158811D02*
X0339620Y0158811D01*
X0339620Y0157612D02*
X0321544Y0157612D01*
X0321701Y0156414D02*
X0339620Y0156414D01*
X0339620Y0155215D02*
X0321389Y0155215D01*
X0320602Y0154017D02*
X0339620Y0154017D01*
X0339620Y0145627D02*
X0135321Y0145627D01*
X0136847Y0144429D02*
X0339620Y0144429D01*
X0339620Y0136039D02*
X0134590Y0136039D01*
X0136718Y0134841D02*
X0339620Y0134841D01*
X0339620Y0133642D02*
X0137589Y0133642D01*
X0137996Y0132444D02*
X0339620Y0132444D01*
X0313520Y0166600D02*
X0313520Y0166600D01*
X0310139Y0166600D01*
X0316596Y0228325D02*
X0203943Y0228325D01*
X0205232Y0229523D02*
X0315308Y0229523D01*
X0314811Y0230722D02*
X0205728Y0230722D01*
X0205782Y0231920D02*
X0314757Y0231920D01*
X0315077Y0233119D02*
X0205463Y0233119D01*
X0204623Y0234317D02*
X0315916Y0234317D01*
X0315688Y0239111D02*
X0204851Y0239111D01*
X0205557Y0240310D02*
X0314982Y0240310D01*
X0314757Y0241508D02*
X0205782Y0241508D01*
X0205633Y0242707D02*
X0314906Y0242707D01*
X0315504Y0243905D02*
X0205035Y0243905D01*
X0203392Y0245104D02*
X0317147Y0245104D01*
X0328520Y0256600D02*
X0323520Y0261600D01*
X0322805Y0259486D02*
X0321716Y0259486D01*
X0339620Y0265478D02*
X0183086Y0265478D01*
X0183309Y0266600D02*
X0183309Y0266600D01*
X0183294Y0266677D02*
X0339620Y0266677D01*
X0339620Y0267875D02*
X0183056Y0267875D01*
X0182817Y0269074D02*
X0339620Y0269074D01*
X0339620Y0270272D02*
X0182579Y0270272D01*
X0181813Y0271471D02*
X0339620Y0271471D01*
X0339620Y0272670D02*
X0181012Y0272670D01*
X0180442Y0273522D02*
X0180442Y0273522D01*
X0179925Y0273868D02*
X0339620Y0273868D01*
X0339620Y0275067D02*
X0178131Y0275067D01*
X0177266Y0275645D02*
X0177266Y0275645D01*
X0174147Y0276265D02*
X0339620Y0276265D01*
X0339620Y0289449D02*
X0199197Y0289449D01*
X0199520Y0289772D02*
X0199520Y0289772D01*
X0200395Y0290647D02*
X0339620Y0290647D01*
X0339620Y0291846D02*
X0315369Y0291846D01*
X0314534Y0291500D02*
X0316409Y0292276D01*
X0317843Y0293711D01*
X0318620Y0295586D01*
X0318620Y0297614D01*
X0317843Y0299489D01*
X0316409Y0300924D01*
X0314534Y0301700D01*
X0312505Y0301700D01*
X0310631Y0300924D01*
X0309196Y0299489D01*
X0308612Y0298079D01*
X0308431Y0298634D01*
X0308053Y0299378D01*
X0307562Y0300053D01*
X0306972Y0300643D01*
X0306297Y0301133D01*
X0305554Y0301512D01*
X0304761Y0301769D01*
X0303937Y0301900D01*
X0303920Y0301900D01*
X0303920Y0297000D01*
X0303120Y0297000D01*
X0303120Y0301900D01*
X0303103Y0301900D01*
X0302279Y0301769D01*
X0301485Y0301512D01*
X0300742Y0301133D01*
X0300067Y0300643D01*
X0299477Y0300053D01*
X0298987Y0299378D01*
X0298608Y0298634D01*
X0298427Y0298079D01*
X0297843Y0299489D01*
X0296409Y0300924D01*
X0294534Y0301700D01*
X0292505Y0301700D01*
X0290631Y0300924D01*
X0289196Y0299489D01*
X0288520Y0297856D01*
X0287843Y0299489D01*
X0286409Y0300924D01*
X0284534Y0301700D01*
X0282505Y0301700D01*
X0280631Y0300924D01*
X0279196Y0299489D01*
X0278420Y0297614D01*
X0278420Y0295586D01*
X0279196Y0293711D01*
X0280631Y0292276D01*
X0282505Y0291500D01*
X0284534Y0291500D01*
X0286409Y0292276D01*
X0287843Y0293711D01*
X0288520Y0295344D01*
X0289196Y0293711D01*
X0290631Y0292276D01*
X0292505Y0291500D01*
X0294534Y0291500D01*
X0296409Y0292276D01*
X0297843Y0293711D01*
X0298427Y0295121D01*
X0298608Y0294566D01*
X0298987Y0293822D01*
X0299477Y0293147D01*
X0300067Y0292557D01*
X0300742Y0292067D01*
X0301485Y0291688D01*
X0302279Y0291430D01*
X0303103Y0291300D01*
X0303120Y0291300D01*
X0303120Y0296200D01*
X0303920Y0296200D01*
X0303920Y0291300D01*
X0303937Y0291300D01*
X0304761Y0291430D01*
X0305554Y0291688D01*
X0306297Y0292067D01*
X0306972Y0292557D01*
X0307562Y0293147D01*
X0308053Y0293822D01*
X0308431Y0294566D01*
X0308612Y0295121D01*
X0309196Y0293711D01*
X0310631Y0292276D01*
X0312505Y0291500D01*
X0314534Y0291500D01*
X0311671Y0291846D02*
X0305863Y0291846D01*
X0303920Y0291846D02*
X0303120Y0291846D01*
X0303120Y0293044D02*
X0303920Y0293044D01*
X0303920Y0294243D02*
X0303120Y0294243D01*
X0303120Y0295441D02*
X0303920Y0295441D01*
X0303920Y0297838D02*
X0303120Y0297838D01*
X0303120Y0299037D02*
X0303920Y0299037D01*
X0303920Y0300235D02*
X0303120Y0300235D01*
X0303120Y0301434D02*
X0303920Y0301434D01*
X0305707Y0301434D02*
X0311863Y0301434D01*
X0309942Y0300235D02*
X0307380Y0300235D01*
X0308226Y0299037D02*
X0309009Y0299037D01*
X0308976Y0294243D02*
X0308267Y0294243D01*
X0307459Y0293044D02*
X0309863Y0293044D01*
X0317176Y0293044D02*
X0339620Y0293044D01*
X0339620Y0294243D02*
X0318063Y0294243D01*
X0318560Y0295441D02*
X0339620Y0295441D01*
X0339620Y0296640D02*
X0318620Y0296640D01*
X0318527Y0297838D02*
X0339620Y0297838D01*
X0339620Y0299037D02*
X0318031Y0299037D01*
X0317097Y0300235D02*
X0339620Y0300235D01*
X0339620Y0301434D02*
X0315177Y0301434D01*
X0325817Y0307426D02*
X0030039Y0307426D01*
X0030737Y0308387D02*
X0030737Y0308387D01*
X0030787Y0308625D02*
X0325283Y0308625D01*
X0324750Y0309823D02*
X0031042Y0309823D01*
X0031297Y0311022D02*
X0324690Y0311022D01*
X0324690Y0312220D02*
X0031288Y0312220D01*
X0031033Y0313419D02*
X0324769Y0313419D01*
X0325302Y0314617D02*
X0030778Y0314617D01*
X0030008Y0315816D02*
X0325836Y0315816D01*
X0326026Y0316243D02*
X0326026Y0316243D01*
X0326882Y0317014D02*
X0029137Y0317014D01*
X0027520Y0318213D02*
X0328213Y0318213D01*
X0328467Y0318442D02*
X0328467Y0318442D01*
X0338937Y0307426D02*
X0339620Y0307426D01*
X0339620Y0306228D02*
X0338066Y0306228D01*
X0337703Y0305729D02*
X0337703Y0305729D01*
X0336491Y0305029D02*
X0339620Y0305029D01*
X0339620Y0303831D02*
X0332424Y0303831D01*
X0331592Y0303743D02*
X0331592Y0303743D01*
X0331322Y0303831D02*
X0023527Y0303831D01*
X0022694Y0303743D02*
X0022694Y0303743D01*
X0022425Y0303831D02*
X0016120Y0303831D01*
X0016120Y0305029D02*
X0019269Y0305029D01*
X0019570Y0304758D02*
X0019570Y0304758D01*
X0017938Y0306228D02*
X0016120Y0306228D01*
X0016120Y0307426D02*
X0016919Y0307426D01*
X0016386Y0308625D02*
X0016120Y0308625D01*
X0016120Y0302632D02*
X0339620Y0302632D01*
X0334859Y0304087D02*
X0334859Y0304087D01*
X0328467Y0304758D02*
X0328467Y0304758D01*
X0328166Y0305029D02*
X0027594Y0305029D01*
X0029168Y0306228D02*
X0326835Y0306228D01*
X0301332Y0301434D02*
X0295177Y0301434D01*
X0297097Y0300235D02*
X0299660Y0300235D01*
X0298813Y0299037D02*
X0298031Y0299037D01*
X0298063Y0294243D02*
X0298772Y0294243D01*
X0299580Y0293044D02*
X0297176Y0293044D01*
X0295369Y0291846D02*
X0301176Y0291846D01*
X0291671Y0291846D02*
X0285369Y0291846D01*
X0287176Y0293044D02*
X0289863Y0293044D01*
X0288976Y0294243D02*
X0288063Y0294243D01*
X0288031Y0299037D02*
X0289009Y0299037D01*
X0289942Y0300235D02*
X0287097Y0300235D01*
X0285177Y0301434D02*
X0291863Y0301434D01*
X0281863Y0301434D02*
X0235177Y0301434D01*
X0237097Y0300235D02*
X0279942Y0300235D01*
X0279009Y0299037D02*
X0238031Y0299037D01*
X0238527Y0297838D02*
X0278512Y0297838D01*
X0278420Y0296640D02*
X0238620Y0296640D01*
X0238560Y0295441D02*
X0278479Y0295441D01*
X0278976Y0294243D02*
X0238063Y0294243D01*
X0237176Y0293044D02*
X0279863Y0293044D01*
X0281671Y0291846D02*
X0235369Y0291846D01*
X0231671Y0291846D02*
X0225863Y0291846D01*
X0223920Y0291846D02*
X0223120Y0291846D01*
X0223120Y0293044D02*
X0223920Y0293044D01*
X0223920Y0294243D02*
X0223120Y0294243D01*
X0223120Y0295441D02*
X0223920Y0295441D01*
X0223920Y0297838D02*
X0223120Y0297838D01*
X0223120Y0299037D02*
X0223920Y0299037D01*
X0223920Y0300235D02*
X0223120Y0300235D01*
X0223120Y0301434D02*
X0223920Y0301434D01*
X0225707Y0301434D02*
X0231863Y0301434D01*
X0229942Y0300235D02*
X0227380Y0300235D01*
X0228226Y0299037D02*
X0229009Y0299037D01*
X0228976Y0294243D02*
X0228267Y0294243D01*
X0227459Y0293044D02*
X0229863Y0293044D01*
X0221176Y0291846D02*
X0215369Y0291846D01*
X0217176Y0293044D02*
X0219580Y0293044D01*
X0218772Y0294243D02*
X0218063Y0294243D01*
X0218031Y0299037D02*
X0218813Y0299037D01*
X0219660Y0300235D02*
X0217097Y0300235D01*
X0215177Y0301434D02*
X0221332Y0301434D01*
X0211863Y0301434D02*
X0205177Y0301434D01*
X0207097Y0300235D02*
X0209942Y0300235D01*
X0209009Y0299037D02*
X0208031Y0299037D01*
X0208063Y0294243D02*
X0208976Y0294243D01*
X0209863Y0293044D02*
X0207176Y0293044D01*
X0205369Y0291846D02*
X0211671Y0291846D01*
X0201671Y0291846D02*
X0201594Y0291846D01*
X0201863Y0301434D02*
X0155177Y0301434D01*
X0123520Y0266600D02*
X0118520Y0271600D01*
X0111520Y0271600D01*
X0164683Y0219935D02*
X0198637Y0219935D01*
X0198257Y0221134D02*
X0165882Y0221134D01*
X0167080Y0222332D02*
X0198257Y0222332D01*
X0198747Y0223531D02*
X0168279Y0223531D01*
X0169477Y0224729D02*
X0199828Y0224729D01*
X0199563Y0218737D02*
X0163485Y0218737D01*
X0177266Y0257555D02*
X0177266Y0257555D01*
X0178361Y0258287D02*
X0198628Y0258287D01*
X0198257Y0259486D02*
X0180155Y0259486D01*
X0180442Y0259678D02*
X0180442Y0259678D01*
X0180442Y0259678D01*
X0181115Y0260684D02*
X0198257Y0260684D01*
X0198257Y0261883D02*
X0181916Y0261883D01*
X0182564Y0262854D02*
X0182564Y0262854D01*
X0182610Y0263081D02*
X0198257Y0263081D01*
X0198257Y0264280D02*
X0182848Y0264280D01*
X0089659Y0193568D02*
X0085316Y0193568D01*
X0084117Y0192369D02*
X0088461Y0192369D01*
X0087262Y0191171D02*
X0082919Y0191171D01*
X0081720Y0189972D02*
X0086063Y0189972D01*
X0084865Y0188774D02*
X0076849Y0188774D01*
X0076097Y0185178D02*
X0081269Y0185178D01*
X0080071Y0183980D02*
X0077245Y0183980D01*
X0080520Y0181600D02*
X0073520Y0181600D01*
X0029203Y0131245D02*
X0016120Y0131245D01*
X0016120Y0130047D02*
X0027511Y0130047D01*
X0026589Y0128848D02*
X0016120Y0128848D01*
X0016120Y0127650D02*
X0026074Y0127650D01*
X0025822Y0126451D02*
X0016120Y0126451D01*
X0016120Y0125253D02*
X0025809Y0125253D01*
X0025809Y0124054D02*
X0016120Y0124054D01*
X0016120Y0122856D02*
X0025809Y0122856D01*
X0047764Y0079709D02*
X0061520Y0079709D01*
X0061520Y0078511D02*
X0048357Y0078511D01*
X0048720Y0077312D02*
X0061520Y0077312D01*
X0061520Y0076114D02*
X0048720Y0076114D01*
X0048450Y0074915D02*
X0061520Y0074915D01*
X0061520Y0073717D02*
X0047954Y0073717D01*
X0046792Y0072518D02*
X0061520Y0072518D01*
X0061520Y0071320D02*
X0045714Y0071320D01*
X0047352Y0070121D02*
X0061520Y0070121D01*
X0061520Y0068923D02*
X0048186Y0068923D01*
X0048683Y0067724D02*
X0061520Y0067724D01*
X0061520Y0066526D02*
X0048720Y0066526D01*
X0048621Y0065327D02*
X0061520Y0065327D01*
X0061520Y0064129D02*
X0048124Y0064129D01*
X0047204Y0062930D02*
X0061520Y0062930D01*
X0061520Y0061732D02*
X0045354Y0061732D01*
X0047223Y0060533D02*
X0061520Y0060533D01*
X0061520Y0059334D02*
X0048187Y0059334D01*
X0048699Y0058136D02*
X0061520Y0058136D01*
X0061520Y0056937D02*
X0048920Y0056937D01*
X0048851Y0055739D02*
X0061520Y0055739D01*
X0061520Y0054540D02*
X0048528Y0054540D01*
X0047827Y0053342D02*
X0061520Y0053342D01*
X0061520Y0052143D02*
X0046573Y0052143D01*
X0046529Y0050945D02*
X0061520Y0050945D01*
X0061520Y0049746D02*
X0047727Y0049746D01*
X0048341Y0048548D02*
X0061520Y0048548D01*
X0061520Y0047349D02*
X0048720Y0047349D01*
X0048720Y0046151D02*
X0061520Y0046151D01*
X0061520Y0044952D02*
X0048466Y0044952D01*
X0047969Y0043754D02*
X0061520Y0043754D01*
X0061520Y0042555D02*
X0046829Y0042555D01*
X0046762Y0030570D02*
X0049995Y0030570D01*
X0048984Y0029372D02*
X0047892Y0029372D01*
X0048388Y0028173D02*
X0048458Y0028173D01*
X0048604Y0024578D02*
X0048202Y0024578D01*
X0047511Y0023379D02*
X0049309Y0023379D01*
X0050585Y0022181D02*
X0046177Y0022181D01*
X0040862Y0022181D02*
X0016120Y0022181D01*
X0016120Y0023379D02*
X0039528Y0023379D01*
X0038837Y0024578D02*
X0016120Y0024578D01*
X0016120Y0025776D02*
X0038420Y0025776D01*
X0038420Y0026975D02*
X0016120Y0026975D01*
X0016120Y0028173D02*
X0038651Y0028173D01*
X0039148Y0029372D02*
X0016120Y0029372D01*
X0016120Y0030570D02*
X0040277Y0030570D01*
X0053120Y0030570D02*
X0053920Y0030570D01*
X0053920Y0029372D02*
X0053120Y0029372D01*
X0053120Y0028173D02*
X0053920Y0028173D01*
X0053920Y0025776D02*
X0053120Y0025776D01*
X0053120Y0024578D02*
X0053920Y0024578D01*
X0053920Y0023379D02*
X0053120Y0023379D01*
X0053120Y0022181D02*
X0053920Y0022181D01*
X0056454Y0022181D02*
X0060862Y0022181D01*
X0059528Y0023379D02*
X0057731Y0023379D01*
X0058435Y0024578D02*
X0058837Y0024578D01*
X0058651Y0028173D02*
X0058581Y0028173D01*
X0058056Y0029372D02*
X0059148Y0029372D01*
X0060277Y0030570D02*
X0057045Y0030570D01*
X0031209Y0012593D02*
X0324690Y0012593D01*
X0324690Y0011394D02*
X0031376Y0011394D01*
X0031121Y0010196D02*
X0324690Y0010196D01*
X0325118Y0008997D02*
X0030866Y0008997D01*
X0030737Y0008387D02*
X0030737Y0008387D01*
X0030309Y0007799D02*
X0325651Y0007799D01*
X0326422Y0006600D02*
X0029438Y0006600D01*
X0028238Y0005401D02*
X0327753Y0005401D01*
X0328467Y0004758D02*
X0328467Y0004758D01*
X0330177Y0004203D02*
X0026162Y0004203D01*
X0030954Y0013791D02*
X0324934Y0013791D01*
X0325468Y0014990D02*
X0030609Y0014990D01*
X0029738Y0016188D02*
X0326001Y0016188D01*
X0327296Y0017387D02*
X0028867Y0017387D01*
X0026876Y0018585D02*
X0328909Y0018585D01*
X0331592Y0019457D02*
X0331592Y0019457D01*
X0335773Y0018585D02*
X0339620Y0018585D01*
X0339620Y0017387D02*
X0337765Y0017387D01*
X0337703Y0017471D02*
X0337703Y0017471D01*
X0338635Y0016188D02*
X0339620Y0016188D01*
X0339620Y0014990D02*
X0339506Y0014990D01*
X0339620Y0019784D02*
X0016120Y0019784D01*
X0016120Y0020982D02*
X0339620Y0020982D01*
X0339620Y0022181D02*
X0316177Y0022181D01*
X0317511Y0023379D02*
X0339620Y0023379D01*
X0339620Y0024578D02*
X0318202Y0024578D01*
X0318620Y0025776D02*
X0339620Y0025776D01*
X0339620Y0026975D02*
X0318620Y0026975D01*
X0318388Y0028173D02*
X0339620Y0028173D01*
X0339620Y0029372D02*
X0317892Y0029372D01*
X0316762Y0030570D02*
X0339620Y0030570D01*
X0339620Y0031769D02*
X0311179Y0031769D01*
X0309981Y0032967D02*
X0339620Y0032967D01*
X0230277Y0030570D02*
X0229590Y0030570D01*
X0180442Y0078522D02*
X0180442Y0078522D01*
X0173520Y0061810D02*
X0173520Y0061810D01*
X0150277Y0030570D02*
X0149590Y0030570D01*
X0022694Y0019457D02*
X0022694Y0019457D01*
X0020011Y0018585D02*
X0016120Y0018585D01*
X0016120Y0017387D02*
X0018398Y0017387D01*
X0019570Y0018442D02*
X0019570Y0018442D01*
X0017128Y0016243D02*
X0017128Y0016243D01*
X0017104Y0016188D02*
X0016120Y0016188D01*
X0016120Y0014990D02*
X0016570Y0014990D01*
X0016120Y0291846D02*
X0041671Y0291846D01*
X0039863Y0293044D02*
X0016120Y0293044D01*
X0016120Y0294243D02*
X0038976Y0294243D01*
X0038479Y0295441D02*
X0016120Y0295441D01*
X0016120Y0296640D02*
X0038420Y0296640D01*
X0038512Y0297838D02*
X0016120Y0297838D01*
X0016120Y0299037D02*
X0039009Y0299037D01*
X0039942Y0300235D02*
X0016120Y0300235D01*
X0016120Y0301434D02*
X0041863Y0301434D01*
D23*
X0063520Y0301600D02*
X0063520Y0296600D01*
X0063520Y0301600D02*
X0068520Y0306600D01*
X0138520Y0306600D01*
X0143520Y0301600D01*
X0143520Y0296600D01*
X0143520Y0301600D02*
X0148520Y0306600D01*
X0218520Y0306600D01*
X0223520Y0301600D01*
X0223520Y0296600D01*
X0223520Y0301600D02*
X0228520Y0306600D01*
X0298520Y0306600D01*
X0303520Y0301600D01*
X0303520Y0296600D01*
X0303520Y0291600D01*
X0308520Y0286600D01*
X0308520Y0261600D01*
X0318520Y0251600D01*
X0308520Y0241600D01*
X0308520Y0171600D01*
X0313520Y0166600D01*
X0313520Y0171600D02*
X0318520Y0171600D01*
X0293520Y0026600D02*
X0293520Y0021600D01*
X0288520Y0016600D01*
X0218520Y0016600D01*
X0213520Y0021600D01*
X0213520Y0026600D01*
X0213520Y0021600D02*
X0208520Y0016600D01*
X0138520Y0016600D01*
X0133520Y0021600D01*
X0133520Y0026600D01*
X0133520Y0021600D02*
X0128520Y0016600D01*
X0058520Y0016600D01*
X0053520Y0021600D01*
X0048520Y0016600D01*
X0038520Y0016600D01*
X0033520Y0021600D01*
X0033520Y0051600D01*
X0038520Y0056600D01*
X0043520Y0056600D01*
X0053520Y0026600D02*
X0053520Y0021600D01*
X0044622Y0101600D02*
X0043520Y0102702D01*
D24*
X0085520Y0247600D03*
X0111520Y0279600D03*
M02*
