G75*
%MOIN*%
%OFA0B0*%
%FSLAX25Y25*%
%IPPOS*%
%LPD*%
%AMOC8*
5,1,8,0,0,1.08239X$1,22.5*
%
%ADD10C,0.00000*%
%ADD11C,0.00600*%
%ADD12C,0.00300*%
D10*
X0013520Y0011600D02*
X0013520Y0311561D01*
X0013523Y0311803D01*
X0013532Y0312044D01*
X0013546Y0312285D01*
X0013567Y0312526D01*
X0013593Y0312766D01*
X0013625Y0313006D01*
X0013663Y0313245D01*
X0013706Y0313482D01*
X0013756Y0313719D01*
X0013811Y0313954D01*
X0013871Y0314188D01*
X0013938Y0314420D01*
X0014009Y0314651D01*
X0014087Y0314880D01*
X0014170Y0315107D01*
X0014258Y0315332D01*
X0014352Y0315555D01*
X0014451Y0315775D01*
X0014556Y0315993D01*
X0014665Y0316208D01*
X0014780Y0316421D01*
X0014900Y0316631D01*
X0015025Y0316837D01*
X0015155Y0317041D01*
X0015290Y0317242D01*
X0015430Y0317439D01*
X0015574Y0317633D01*
X0015723Y0317823D01*
X0015877Y0318009D01*
X0016035Y0318192D01*
X0016197Y0318371D01*
X0016364Y0318546D01*
X0016535Y0318717D01*
X0016710Y0318884D01*
X0016889Y0319046D01*
X0017072Y0319204D01*
X0017258Y0319358D01*
X0017448Y0319507D01*
X0017642Y0319651D01*
X0017839Y0319791D01*
X0018040Y0319926D01*
X0018244Y0320056D01*
X0018450Y0320181D01*
X0018660Y0320301D01*
X0018873Y0320416D01*
X0019088Y0320525D01*
X0019306Y0320630D01*
X0019526Y0320729D01*
X0019749Y0320823D01*
X0019974Y0320911D01*
X0020201Y0320994D01*
X0020430Y0321072D01*
X0020661Y0321143D01*
X0020893Y0321210D01*
X0021127Y0321270D01*
X0021362Y0321325D01*
X0021599Y0321375D01*
X0021836Y0321418D01*
X0022075Y0321456D01*
X0022315Y0321488D01*
X0022555Y0321514D01*
X0022796Y0321535D01*
X0023037Y0321549D01*
X0023278Y0321558D01*
X0023520Y0321561D01*
X0332260Y0321561D01*
X0332501Y0321558D01*
X0332741Y0321549D01*
X0332982Y0321535D01*
X0333221Y0321514D01*
X0333461Y0321488D01*
X0333699Y0321456D01*
X0333937Y0321419D01*
X0334174Y0321375D01*
X0334409Y0321326D01*
X0334644Y0321272D01*
X0334877Y0321211D01*
X0335108Y0321145D01*
X0335338Y0321073D01*
X0335566Y0320996D01*
X0335792Y0320914D01*
X0336016Y0320826D01*
X0336238Y0320732D01*
X0336458Y0320633D01*
X0336675Y0320529D01*
X0336889Y0320420D01*
X0337101Y0320306D01*
X0337310Y0320186D01*
X0337516Y0320062D01*
X0337719Y0319932D01*
X0337918Y0319798D01*
X0338115Y0319659D01*
X0338308Y0319515D01*
X0338497Y0319366D01*
X0338683Y0319213D01*
X0338865Y0319056D01*
X0339044Y0318894D01*
X0339218Y0318728D01*
X0339388Y0318558D01*
X0339554Y0318384D01*
X0339716Y0318205D01*
X0339873Y0318023D01*
X0340026Y0317837D01*
X0340175Y0317648D01*
X0340319Y0317455D01*
X0340458Y0317258D01*
X0340592Y0317059D01*
X0340722Y0316856D01*
X0340846Y0316650D01*
X0340966Y0316441D01*
X0341080Y0316229D01*
X0341189Y0316015D01*
X0341293Y0315798D01*
X0341392Y0315578D01*
X0341486Y0315356D01*
X0341574Y0315132D01*
X0341656Y0314906D01*
X0341733Y0314678D01*
X0341805Y0314448D01*
X0341871Y0314217D01*
X0341932Y0313984D01*
X0341986Y0313749D01*
X0342035Y0313514D01*
X0342079Y0313277D01*
X0342116Y0313039D01*
X0342148Y0312801D01*
X0342174Y0312561D01*
X0342195Y0312322D01*
X0342209Y0312081D01*
X0342218Y0311841D01*
X0342221Y0311600D01*
X0342220Y0311600D02*
X0342220Y0010301D01*
X0342221Y0010301D02*
X0342218Y0010091D01*
X0342211Y0009881D01*
X0342198Y0009671D01*
X0342180Y0009461D01*
X0342158Y0009252D01*
X0342130Y0009044D01*
X0342097Y0008836D01*
X0342059Y0008629D01*
X0342016Y0008423D01*
X0341968Y0008219D01*
X0341915Y0008015D01*
X0341858Y0007813D01*
X0341795Y0007612D01*
X0341728Y0007413D01*
X0341656Y0007216D01*
X0341579Y0007020D01*
X0341497Y0006826D01*
X0341411Y0006634D01*
X0341320Y0006445D01*
X0341224Y0006257D01*
X0341124Y0006072D01*
X0341020Y0005890D01*
X0340911Y0005710D01*
X0340798Y0005533D01*
X0340681Y0005358D01*
X0340559Y0005187D01*
X0340434Y0005018D01*
X0340304Y0004853D01*
X0340170Y0004690D01*
X0340033Y0004531D01*
X0339891Y0004375D01*
X0339746Y0004223D01*
X0339598Y0004075D01*
X0339446Y0003930D01*
X0339290Y0003788D01*
X0339131Y0003651D01*
X0338968Y0003517D01*
X0338803Y0003387D01*
X0338634Y0003262D01*
X0338463Y0003140D01*
X0338288Y0003023D01*
X0338111Y0002910D01*
X0337931Y0002801D01*
X0337749Y0002697D01*
X0337564Y0002597D01*
X0337376Y0002501D01*
X0337187Y0002410D01*
X0336995Y0002324D01*
X0336801Y0002242D01*
X0336605Y0002165D01*
X0336408Y0002093D01*
X0336209Y0002026D01*
X0336008Y0001963D01*
X0335806Y0001906D01*
X0335602Y0001853D01*
X0335398Y0001805D01*
X0335192Y0001762D01*
X0334985Y0001724D01*
X0334777Y0001691D01*
X0334569Y0001663D01*
X0334360Y0001641D01*
X0334150Y0001623D01*
X0333940Y0001610D01*
X0333730Y0001603D01*
X0333520Y0001600D01*
X0023520Y0001600D01*
X0023278Y0001603D01*
X0023037Y0001612D01*
X0022796Y0001626D01*
X0022555Y0001647D01*
X0022315Y0001673D01*
X0022075Y0001705D01*
X0021836Y0001743D01*
X0021599Y0001786D01*
X0021362Y0001836D01*
X0021127Y0001891D01*
X0020893Y0001951D01*
X0020661Y0002018D01*
X0020430Y0002089D01*
X0020201Y0002167D01*
X0019974Y0002250D01*
X0019749Y0002338D01*
X0019526Y0002432D01*
X0019306Y0002531D01*
X0019088Y0002636D01*
X0018873Y0002745D01*
X0018660Y0002860D01*
X0018450Y0002980D01*
X0018244Y0003105D01*
X0018040Y0003235D01*
X0017839Y0003370D01*
X0017642Y0003510D01*
X0017448Y0003654D01*
X0017258Y0003803D01*
X0017072Y0003957D01*
X0016889Y0004115D01*
X0016710Y0004277D01*
X0016535Y0004444D01*
X0016364Y0004615D01*
X0016197Y0004790D01*
X0016035Y0004969D01*
X0015877Y0005152D01*
X0015723Y0005338D01*
X0015574Y0005528D01*
X0015430Y0005722D01*
X0015290Y0005919D01*
X0015155Y0006120D01*
X0015025Y0006324D01*
X0014900Y0006530D01*
X0014780Y0006740D01*
X0014665Y0006953D01*
X0014556Y0007168D01*
X0014451Y0007386D01*
X0014352Y0007606D01*
X0014258Y0007829D01*
X0014170Y0008054D01*
X0014087Y0008281D01*
X0014009Y0008510D01*
X0013938Y0008741D01*
X0013871Y0008973D01*
X0013811Y0009207D01*
X0013756Y0009442D01*
X0013706Y0009679D01*
X0013663Y0009916D01*
X0013625Y0010155D01*
X0013593Y0010395D01*
X0013567Y0010635D01*
X0013546Y0010876D01*
X0013532Y0011117D01*
X0013523Y0011358D01*
X0013520Y0011600D01*
D11*
X0018520Y0011600D02*
X0018522Y0011741D01*
X0018528Y0011882D01*
X0018538Y0012022D01*
X0018552Y0012162D01*
X0018570Y0012302D01*
X0018591Y0012441D01*
X0018617Y0012580D01*
X0018646Y0012718D01*
X0018680Y0012854D01*
X0018717Y0012990D01*
X0018758Y0013125D01*
X0018803Y0013259D01*
X0018852Y0013391D01*
X0018904Y0013522D01*
X0018960Y0013651D01*
X0019020Y0013778D01*
X0019083Y0013904D01*
X0019149Y0014028D01*
X0019220Y0014151D01*
X0019293Y0014271D01*
X0019370Y0014389D01*
X0019450Y0014505D01*
X0019534Y0014618D01*
X0019620Y0014729D01*
X0019710Y0014838D01*
X0019803Y0014944D01*
X0019898Y0015047D01*
X0019997Y0015148D01*
X0020098Y0015246D01*
X0020202Y0015341D01*
X0020309Y0015433D01*
X0020418Y0015522D01*
X0020530Y0015607D01*
X0020644Y0015690D01*
X0020760Y0015770D01*
X0020879Y0015846D01*
X0021000Y0015918D01*
X0021122Y0015988D01*
X0021247Y0016053D01*
X0021373Y0016116D01*
X0021501Y0016174D01*
X0021631Y0016229D01*
X0021762Y0016281D01*
X0021895Y0016328D01*
X0022029Y0016372D01*
X0022164Y0016413D01*
X0022300Y0016449D01*
X0022437Y0016481D01*
X0022575Y0016510D01*
X0022713Y0016535D01*
X0022853Y0016555D01*
X0022993Y0016572D01*
X0023133Y0016585D01*
X0023274Y0016594D01*
X0023414Y0016599D01*
X0023555Y0016600D01*
X0023696Y0016597D01*
X0023837Y0016590D01*
X0023977Y0016579D01*
X0024117Y0016564D01*
X0024257Y0016545D01*
X0024396Y0016523D01*
X0024534Y0016496D01*
X0024672Y0016466D01*
X0024808Y0016431D01*
X0024944Y0016393D01*
X0025078Y0016351D01*
X0025212Y0016305D01*
X0025344Y0016256D01*
X0025474Y0016202D01*
X0025603Y0016145D01*
X0025730Y0016085D01*
X0025856Y0016021D01*
X0025979Y0015953D01*
X0026101Y0015882D01*
X0026221Y0015808D01*
X0026338Y0015730D01*
X0026453Y0015649D01*
X0026566Y0015565D01*
X0026677Y0015478D01*
X0026785Y0015387D01*
X0026890Y0015294D01*
X0026993Y0015197D01*
X0027093Y0015098D01*
X0027190Y0014996D01*
X0027284Y0014891D01*
X0027375Y0014784D01*
X0027463Y0014674D01*
X0027548Y0014562D01*
X0027630Y0014447D01*
X0027709Y0014330D01*
X0027784Y0014211D01*
X0027856Y0014090D01*
X0027924Y0013967D01*
X0027989Y0013842D01*
X0028051Y0013715D01*
X0028108Y0013586D01*
X0028163Y0013456D01*
X0028213Y0013325D01*
X0028260Y0013192D01*
X0028303Y0013058D01*
X0028342Y0012922D01*
X0028377Y0012786D01*
X0028409Y0012649D01*
X0028436Y0012511D01*
X0028460Y0012372D01*
X0028480Y0012232D01*
X0028496Y0012092D01*
X0028508Y0011952D01*
X0028516Y0011811D01*
X0028520Y0011670D01*
X0028520Y0011530D01*
X0028516Y0011389D01*
X0028508Y0011248D01*
X0028496Y0011108D01*
X0028480Y0010968D01*
X0028460Y0010828D01*
X0028436Y0010689D01*
X0028409Y0010551D01*
X0028377Y0010414D01*
X0028342Y0010278D01*
X0028303Y0010142D01*
X0028260Y0010008D01*
X0028213Y0009875D01*
X0028163Y0009744D01*
X0028108Y0009614D01*
X0028051Y0009485D01*
X0027989Y0009358D01*
X0027924Y0009233D01*
X0027856Y0009110D01*
X0027784Y0008989D01*
X0027709Y0008870D01*
X0027630Y0008753D01*
X0027548Y0008638D01*
X0027463Y0008526D01*
X0027375Y0008416D01*
X0027284Y0008309D01*
X0027190Y0008204D01*
X0027093Y0008102D01*
X0026993Y0008003D01*
X0026890Y0007906D01*
X0026785Y0007813D01*
X0026677Y0007722D01*
X0026566Y0007635D01*
X0026453Y0007551D01*
X0026338Y0007470D01*
X0026221Y0007392D01*
X0026101Y0007318D01*
X0025979Y0007247D01*
X0025856Y0007179D01*
X0025730Y0007115D01*
X0025603Y0007055D01*
X0025474Y0006998D01*
X0025344Y0006944D01*
X0025212Y0006895D01*
X0025078Y0006849D01*
X0024944Y0006807D01*
X0024808Y0006769D01*
X0024672Y0006734D01*
X0024534Y0006704D01*
X0024396Y0006677D01*
X0024257Y0006655D01*
X0024117Y0006636D01*
X0023977Y0006621D01*
X0023837Y0006610D01*
X0023696Y0006603D01*
X0023555Y0006600D01*
X0023414Y0006601D01*
X0023274Y0006606D01*
X0023133Y0006615D01*
X0022993Y0006628D01*
X0022853Y0006645D01*
X0022713Y0006665D01*
X0022575Y0006690D01*
X0022437Y0006719D01*
X0022300Y0006751D01*
X0022164Y0006787D01*
X0022029Y0006828D01*
X0021895Y0006872D01*
X0021762Y0006919D01*
X0021631Y0006971D01*
X0021501Y0007026D01*
X0021373Y0007084D01*
X0021247Y0007147D01*
X0021122Y0007212D01*
X0021000Y0007282D01*
X0020879Y0007354D01*
X0020760Y0007430D01*
X0020644Y0007510D01*
X0020530Y0007593D01*
X0020418Y0007678D01*
X0020309Y0007767D01*
X0020202Y0007859D01*
X0020098Y0007954D01*
X0019997Y0008052D01*
X0019898Y0008153D01*
X0019803Y0008256D01*
X0019710Y0008362D01*
X0019620Y0008471D01*
X0019534Y0008582D01*
X0019450Y0008695D01*
X0019370Y0008811D01*
X0019293Y0008929D01*
X0019220Y0009049D01*
X0019149Y0009172D01*
X0019083Y0009296D01*
X0019020Y0009422D01*
X0018960Y0009549D01*
X0018904Y0009678D01*
X0018852Y0009809D01*
X0018803Y0009941D01*
X0018758Y0010075D01*
X0018717Y0010210D01*
X0018680Y0010346D01*
X0018646Y0010482D01*
X0018617Y0010620D01*
X0018591Y0010759D01*
X0018570Y0010898D01*
X0018552Y0011038D01*
X0018538Y0011178D01*
X0018528Y0011318D01*
X0018522Y0011459D01*
X0018520Y0011600D01*
X0033520Y0019100D02*
X0033520Y0001600D01*
X0033520Y0019100D02*
X0083520Y0019100D01*
X0083520Y0001600D01*
X0113520Y0001600D02*
X0113520Y0019100D01*
X0163520Y0019100D01*
X0163520Y0001600D01*
X0193520Y0001600D02*
X0193520Y0019100D01*
X0243520Y0019100D01*
X0243520Y0001600D01*
X0273520Y0001600D02*
X0273520Y0019100D01*
X0323520Y0019100D01*
X0323520Y0001600D01*
X0327417Y0011600D02*
X0327419Y0011741D01*
X0327425Y0011882D01*
X0327435Y0012022D01*
X0327449Y0012162D01*
X0327467Y0012302D01*
X0327488Y0012441D01*
X0327514Y0012580D01*
X0327543Y0012718D01*
X0327577Y0012854D01*
X0327614Y0012990D01*
X0327655Y0013125D01*
X0327700Y0013259D01*
X0327749Y0013391D01*
X0327801Y0013522D01*
X0327857Y0013651D01*
X0327917Y0013778D01*
X0327980Y0013904D01*
X0328046Y0014028D01*
X0328117Y0014151D01*
X0328190Y0014271D01*
X0328267Y0014389D01*
X0328347Y0014505D01*
X0328431Y0014618D01*
X0328517Y0014729D01*
X0328607Y0014838D01*
X0328700Y0014944D01*
X0328795Y0015047D01*
X0328894Y0015148D01*
X0328995Y0015246D01*
X0329099Y0015341D01*
X0329206Y0015433D01*
X0329315Y0015522D01*
X0329427Y0015607D01*
X0329541Y0015690D01*
X0329657Y0015770D01*
X0329776Y0015846D01*
X0329897Y0015918D01*
X0330019Y0015988D01*
X0330144Y0016053D01*
X0330270Y0016116D01*
X0330398Y0016174D01*
X0330528Y0016229D01*
X0330659Y0016281D01*
X0330792Y0016328D01*
X0330926Y0016372D01*
X0331061Y0016413D01*
X0331197Y0016449D01*
X0331334Y0016481D01*
X0331472Y0016510D01*
X0331610Y0016535D01*
X0331750Y0016555D01*
X0331890Y0016572D01*
X0332030Y0016585D01*
X0332171Y0016594D01*
X0332311Y0016599D01*
X0332452Y0016600D01*
X0332593Y0016597D01*
X0332734Y0016590D01*
X0332874Y0016579D01*
X0333014Y0016564D01*
X0333154Y0016545D01*
X0333293Y0016523D01*
X0333431Y0016496D01*
X0333569Y0016466D01*
X0333705Y0016431D01*
X0333841Y0016393D01*
X0333975Y0016351D01*
X0334109Y0016305D01*
X0334241Y0016256D01*
X0334371Y0016202D01*
X0334500Y0016145D01*
X0334627Y0016085D01*
X0334753Y0016021D01*
X0334876Y0015953D01*
X0334998Y0015882D01*
X0335118Y0015808D01*
X0335235Y0015730D01*
X0335350Y0015649D01*
X0335463Y0015565D01*
X0335574Y0015478D01*
X0335682Y0015387D01*
X0335787Y0015294D01*
X0335890Y0015197D01*
X0335990Y0015098D01*
X0336087Y0014996D01*
X0336181Y0014891D01*
X0336272Y0014784D01*
X0336360Y0014674D01*
X0336445Y0014562D01*
X0336527Y0014447D01*
X0336606Y0014330D01*
X0336681Y0014211D01*
X0336753Y0014090D01*
X0336821Y0013967D01*
X0336886Y0013842D01*
X0336948Y0013715D01*
X0337005Y0013586D01*
X0337060Y0013456D01*
X0337110Y0013325D01*
X0337157Y0013192D01*
X0337200Y0013058D01*
X0337239Y0012922D01*
X0337274Y0012786D01*
X0337306Y0012649D01*
X0337333Y0012511D01*
X0337357Y0012372D01*
X0337377Y0012232D01*
X0337393Y0012092D01*
X0337405Y0011952D01*
X0337413Y0011811D01*
X0337417Y0011670D01*
X0337417Y0011530D01*
X0337413Y0011389D01*
X0337405Y0011248D01*
X0337393Y0011108D01*
X0337377Y0010968D01*
X0337357Y0010828D01*
X0337333Y0010689D01*
X0337306Y0010551D01*
X0337274Y0010414D01*
X0337239Y0010278D01*
X0337200Y0010142D01*
X0337157Y0010008D01*
X0337110Y0009875D01*
X0337060Y0009744D01*
X0337005Y0009614D01*
X0336948Y0009485D01*
X0336886Y0009358D01*
X0336821Y0009233D01*
X0336753Y0009110D01*
X0336681Y0008989D01*
X0336606Y0008870D01*
X0336527Y0008753D01*
X0336445Y0008638D01*
X0336360Y0008526D01*
X0336272Y0008416D01*
X0336181Y0008309D01*
X0336087Y0008204D01*
X0335990Y0008102D01*
X0335890Y0008003D01*
X0335787Y0007906D01*
X0335682Y0007813D01*
X0335574Y0007722D01*
X0335463Y0007635D01*
X0335350Y0007551D01*
X0335235Y0007470D01*
X0335118Y0007392D01*
X0334998Y0007318D01*
X0334876Y0007247D01*
X0334753Y0007179D01*
X0334627Y0007115D01*
X0334500Y0007055D01*
X0334371Y0006998D01*
X0334241Y0006944D01*
X0334109Y0006895D01*
X0333975Y0006849D01*
X0333841Y0006807D01*
X0333705Y0006769D01*
X0333569Y0006734D01*
X0333431Y0006704D01*
X0333293Y0006677D01*
X0333154Y0006655D01*
X0333014Y0006636D01*
X0332874Y0006621D01*
X0332734Y0006610D01*
X0332593Y0006603D01*
X0332452Y0006600D01*
X0332311Y0006601D01*
X0332171Y0006606D01*
X0332030Y0006615D01*
X0331890Y0006628D01*
X0331750Y0006645D01*
X0331610Y0006665D01*
X0331472Y0006690D01*
X0331334Y0006719D01*
X0331197Y0006751D01*
X0331061Y0006787D01*
X0330926Y0006828D01*
X0330792Y0006872D01*
X0330659Y0006919D01*
X0330528Y0006971D01*
X0330398Y0007026D01*
X0330270Y0007084D01*
X0330144Y0007147D01*
X0330019Y0007212D01*
X0329897Y0007282D01*
X0329776Y0007354D01*
X0329657Y0007430D01*
X0329541Y0007510D01*
X0329427Y0007593D01*
X0329315Y0007678D01*
X0329206Y0007767D01*
X0329099Y0007859D01*
X0328995Y0007954D01*
X0328894Y0008052D01*
X0328795Y0008153D01*
X0328700Y0008256D01*
X0328607Y0008362D01*
X0328517Y0008471D01*
X0328431Y0008582D01*
X0328347Y0008695D01*
X0328267Y0008811D01*
X0328190Y0008929D01*
X0328117Y0009049D01*
X0328046Y0009172D01*
X0327980Y0009296D01*
X0327917Y0009422D01*
X0327857Y0009549D01*
X0327801Y0009678D01*
X0327749Y0009809D01*
X0327700Y0009941D01*
X0327655Y0010075D01*
X0327614Y0010210D01*
X0327577Y0010346D01*
X0327543Y0010482D01*
X0327514Y0010620D01*
X0327488Y0010759D01*
X0327467Y0010898D01*
X0327449Y0011038D01*
X0327435Y0011178D01*
X0327425Y0011318D01*
X0327419Y0011459D01*
X0327417Y0011600D01*
X0166630Y0071600D02*
X0166632Y0071769D01*
X0166638Y0071938D01*
X0166649Y0072107D01*
X0166663Y0072275D01*
X0166682Y0072443D01*
X0166705Y0072611D01*
X0166731Y0072778D01*
X0166762Y0072944D01*
X0166797Y0073110D01*
X0166836Y0073274D01*
X0166880Y0073438D01*
X0166927Y0073600D01*
X0166978Y0073761D01*
X0167033Y0073921D01*
X0167092Y0074080D01*
X0167154Y0074237D01*
X0167221Y0074392D01*
X0167292Y0074546D01*
X0167366Y0074698D01*
X0167444Y0074848D01*
X0167525Y0074996D01*
X0167610Y0075142D01*
X0167699Y0075286D01*
X0167791Y0075428D01*
X0167887Y0075567D01*
X0167986Y0075704D01*
X0168088Y0075839D01*
X0168194Y0075971D01*
X0168303Y0076100D01*
X0168415Y0076227D01*
X0168530Y0076351D01*
X0168648Y0076472D01*
X0168769Y0076590D01*
X0168893Y0076705D01*
X0169020Y0076817D01*
X0169149Y0076926D01*
X0169281Y0077032D01*
X0169416Y0077134D01*
X0169553Y0077233D01*
X0169692Y0077329D01*
X0169834Y0077421D01*
X0169978Y0077510D01*
X0170124Y0077595D01*
X0170272Y0077676D01*
X0170422Y0077754D01*
X0170574Y0077828D01*
X0170728Y0077899D01*
X0170883Y0077966D01*
X0171040Y0078028D01*
X0171199Y0078087D01*
X0171359Y0078142D01*
X0171520Y0078193D01*
X0171682Y0078240D01*
X0171846Y0078284D01*
X0172010Y0078323D01*
X0172176Y0078358D01*
X0172342Y0078389D01*
X0172509Y0078415D01*
X0172677Y0078438D01*
X0172845Y0078457D01*
X0173013Y0078471D01*
X0173182Y0078482D01*
X0173351Y0078488D01*
X0173520Y0078490D01*
X0173689Y0078488D01*
X0173858Y0078482D01*
X0174027Y0078471D01*
X0174195Y0078457D01*
X0174363Y0078438D01*
X0174531Y0078415D01*
X0174698Y0078389D01*
X0174864Y0078358D01*
X0175030Y0078323D01*
X0175194Y0078284D01*
X0175358Y0078240D01*
X0175520Y0078193D01*
X0175681Y0078142D01*
X0175841Y0078087D01*
X0176000Y0078028D01*
X0176157Y0077966D01*
X0176312Y0077899D01*
X0176466Y0077828D01*
X0176618Y0077754D01*
X0176768Y0077676D01*
X0176916Y0077595D01*
X0177062Y0077510D01*
X0177206Y0077421D01*
X0177348Y0077329D01*
X0177487Y0077233D01*
X0177624Y0077134D01*
X0177759Y0077032D01*
X0177891Y0076926D01*
X0178020Y0076817D01*
X0178147Y0076705D01*
X0178271Y0076590D01*
X0178392Y0076472D01*
X0178510Y0076351D01*
X0178625Y0076227D01*
X0178737Y0076100D01*
X0178846Y0075971D01*
X0178952Y0075839D01*
X0179054Y0075704D01*
X0179153Y0075567D01*
X0179249Y0075428D01*
X0179341Y0075286D01*
X0179430Y0075142D01*
X0179515Y0074996D01*
X0179596Y0074848D01*
X0179674Y0074698D01*
X0179748Y0074546D01*
X0179819Y0074392D01*
X0179886Y0074237D01*
X0179948Y0074080D01*
X0180007Y0073921D01*
X0180062Y0073761D01*
X0180113Y0073600D01*
X0180160Y0073438D01*
X0180204Y0073274D01*
X0180243Y0073110D01*
X0180278Y0072944D01*
X0180309Y0072778D01*
X0180335Y0072611D01*
X0180358Y0072443D01*
X0180377Y0072275D01*
X0180391Y0072107D01*
X0180402Y0071938D01*
X0180408Y0071769D01*
X0180410Y0071600D01*
X0180408Y0071431D01*
X0180402Y0071262D01*
X0180391Y0071093D01*
X0180377Y0070925D01*
X0180358Y0070757D01*
X0180335Y0070589D01*
X0180309Y0070422D01*
X0180278Y0070256D01*
X0180243Y0070090D01*
X0180204Y0069926D01*
X0180160Y0069762D01*
X0180113Y0069600D01*
X0180062Y0069439D01*
X0180007Y0069279D01*
X0179948Y0069120D01*
X0179886Y0068963D01*
X0179819Y0068808D01*
X0179748Y0068654D01*
X0179674Y0068502D01*
X0179596Y0068352D01*
X0179515Y0068204D01*
X0179430Y0068058D01*
X0179341Y0067914D01*
X0179249Y0067772D01*
X0179153Y0067633D01*
X0179054Y0067496D01*
X0178952Y0067361D01*
X0178846Y0067229D01*
X0178737Y0067100D01*
X0178625Y0066973D01*
X0178510Y0066849D01*
X0178392Y0066728D01*
X0178271Y0066610D01*
X0178147Y0066495D01*
X0178020Y0066383D01*
X0177891Y0066274D01*
X0177759Y0066168D01*
X0177624Y0066066D01*
X0177487Y0065967D01*
X0177348Y0065871D01*
X0177206Y0065779D01*
X0177062Y0065690D01*
X0176916Y0065605D01*
X0176768Y0065524D01*
X0176618Y0065446D01*
X0176466Y0065372D01*
X0176312Y0065301D01*
X0176157Y0065234D01*
X0176000Y0065172D01*
X0175841Y0065113D01*
X0175681Y0065058D01*
X0175520Y0065007D01*
X0175358Y0064960D01*
X0175194Y0064916D01*
X0175030Y0064877D01*
X0174864Y0064842D01*
X0174698Y0064811D01*
X0174531Y0064785D01*
X0174363Y0064762D01*
X0174195Y0064743D01*
X0174027Y0064729D01*
X0173858Y0064718D01*
X0173689Y0064712D01*
X0173520Y0064710D01*
X0173351Y0064712D01*
X0173182Y0064718D01*
X0173013Y0064729D01*
X0172845Y0064743D01*
X0172677Y0064762D01*
X0172509Y0064785D01*
X0172342Y0064811D01*
X0172176Y0064842D01*
X0172010Y0064877D01*
X0171846Y0064916D01*
X0171682Y0064960D01*
X0171520Y0065007D01*
X0171359Y0065058D01*
X0171199Y0065113D01*
X0171040Y0065172D01*
X0170883Y0065234D01*
X0170728Y0065301D01*
X0170574Y0065372D01*
X0170422Y0065446D01*
X0170272Y0065524D01*
X0170124Y0065605D01*
X0169978Y0065690D01*
X0169834Y0065779D01*
X0169692Y0065871D01*
X0169553Y0065967D01*
X0169416Y0066066D01*
X0169281Y0066168D01*
X0169149Y0066274D01*
X0169020Y0066383D01*
X0168893Y0066495D01*
X0168769Y0066610D01*
X0168648Y0066728D01*
X0168530Y0066849D01*
X0168415Y0066973D01*
X0168303Y0067100D01*
X0168194Y0067229D01*
X0168088Y0067361D01*
X0167986Y0067496D01*
X0167887Y0067633D01*
X0167791Y0067772D01*
X0167699Y0067914D01*
X0167610Y0068058D01*
X0167525Y0068204D01*
X0167444Y0068352D01*
X0167366Y0068502D01*
X0167292Y0068654D01*
X0167221Y0068808D01*
X0167154Y0068963D01*
X0167092Y0069120D01*
X0167033Y0069279D01*
X0166978Y0069439D01*
X0166927Y0069600D01*
X0166880Y0069762D01*
X0166836Y0069926D01*
X0166797Y0070090D01*
X0166762Y0070256D01*
X0166731Y0070422D01*
X0166705Y0070589D01*
X0166682Y0070757D01*
X0166663Y0070925D01*
X0166649Y0071093D01*
X0166638Y0071262D01*
X0166632Y0071431D01*
X0166630Y0071600D01*
X0166630Y0266600D02*
X0166632Y0266769D01*
X0166638Y0266938D01*
X0166649Y0267107D01*
X0166663Y0267275D01*
X0166682Y0267443D01*
X0166705Y0267611D01*
X0166731Y0267778D01*
X0166762Y0267944D01*
X0166797Y0268110D01*
X0166836Y0268274D01*
X0166880Y0268438D01*
X0166927Y0268600D01*
X0166978Y0268761D01*
X0167033Y0268921D01*
X0167092Y0269080D01*
X0167154Y0269237D01*
X0167221Y0269392D01*
X0167292Y0269546D01*
X0167366Y0269698D01*
X0167444Y0269848D01*
X0167525Y0269996D01*
X0167610Y0270142D01*
X0167699Y0270286D01*
X0167791Y0270428D01*
X0167887Y0270567D01*
X0167986Y0270704D01*
X0168088Y0270839D01*
X0168194Y0270971D01*
X0168303Y0271100D01*
X0168415Y0271227D01*
X0168530Y0271351D01*
X0168648Y0271472D01*
X0168769Y0271590D01*
X0168893Y0271705D01*
X0169020Y0271817D01*
X0169149Y0271926D01*
X0169281Y0272032D01*
X0169416Y0272134D01*
X0169553Y0272233D01*
X0169692Y0272329D01*
X0169834Y0272421D01*
X0169978Y0272510D01*
X0170124Y0272595D01*
X0170272Y0272676D01*
X0170422Y0272754D01*
X0170574Y0272828D01*
X0170728Y0272899D01*
X0170883Y0272966D01*
X0171040Y0273028D01*
X0171199Y0273087D01*
X0171359Y0273142D01*
X0171520Y0273193D01*
X0171682Y0273240D01*
X0171846Y0273284D01*
X0172010Y0273323D01*
X0172176Y0273358D01*
X0172342Y0273389D01*
X0172509Y0273415D01*
X0172677Y0273438D01*
X0172845Y0273457D01*
X0173013Y0273471D01*
X0173182Y0273482D01*
X0173351Y0273488D01*
X0173520Y0273490D01*
X0173689Y0273488D01*
X0173858Y0273482D01*
X0174027Y0273471D01*
X0174195Y0273457D01*
X0174363Y0273438D01*
X0174531Y0273415D01*
X0174698Y0273389D01*
X0174864Y0273358D01*
X0175030Y0273323D01*
X0175194Y0273284D01*
X0175358Y0273240D01*
X0175520Y0273193D01*
X0175681Y0273142D01*
X0175841Y0273087D01*
X0176000Y0273028D01*
X0176157Y0272966D01*
X0176312Y0272899D01*
X0176466Y0272828D01*
X0176618Y0272754D01*
X0176768Y0272676D01*
X0176916Y0272595D01*
X0177062Y0272510D01*
X0177206Y0272421D01*
X0177348Y0272329D01*
X0177487Y0272233D01*
X0177624Y0272134D01*
X0177759Y0272032D01*
X0177891Y0271926D01*
X0178020Y0271817D01*
X0178147Y0271705D01*
X0178271Y0271590D01*
X0178392Y0271472D01*
X0178510Y0271351D01*
X0178625Y0271227D01*
X0178737Y0271100D01*
X0178846Y0270971D01*
X0178952Y0270839D01*
X0179054Y0270704D01*
X0179153Y0270567D01*
X0179249Y0270428D01*
X0179341Y0270286D01*
X0179430Y0270142D01*
X0179515Y0269996D01*
X0179596Y0269848D01*
X0179674Y0269698D01*
X0179748Y0269546D01*
X0179819Y0269392D01*
X0179886Y0269237D01*
X0179948Y0269080D01*
X0180007Y0268921D01*
X0180062Y0268761D01*
X0180113Y0268600D01*
X0180160Y0268438D01*
X0180204Y0268274D01*
X0180243Y0268110D01*
X0180278Y0267944D01*
X0180309Y0267778D01*
X0180335Y0267611D01*
X0180358Y0267443D01*
X0180377Y0267275D01*
X0180391Y0267107D01*
X0180402Y0266938D01*
X0180408Y0266769D01*
X0180410Y0266600D01*
X0180408Y0266431D01*
X0180402Y0266262D01*
X0180391Y0266093D01*
X0180377Y0265925D01*
X0180358Y0265757D01*
X0180335Y0265589D01*
X0180309Y0265422D01*
X0180278Y0265256D01*
X0180243Y0265090D01*
X0180204Y0264926D01*
X0180160Y0264762D01*
X0180113Y0264600D01*
X0180062Y0264439D01*
X0180007Y0264279D01*
X0179948Y0264120D01*
X0179886Y0263963D01*
X0179819Y0263808D01*
X0179748Y0263654D01*
X0179674Y0263502D01*
X0179596Y0263352D01*
X0179515Y0263204D01*
X0179430Y0263058D01*
X0179341Y0262914D01*
X0179249Y0262772D01*
X0179153Y0262633D01*
X0179054Y0262496D01*
X0178952Y0262361D01*
X0178846Y0262229D01*
X0178737Y0262100D01*
X0178625Y0261973D01*
X0178510Y0261849D01*
X0178392Y0261728D01*
X0178271Y0261610D01*
X0178147Y0261495D01*
X0178020Y0261383D01*
X0177891Y0261274D01*
X0177759Y0261168D01*
X0177624Y0261066D01*
X0177487Y0260967D01*
X0177348Y0260871D01*
X0177206Y0260779D01*
X0177062Y0260690D01*
X0176916Y0260605D01*
X0176768Y0260524D01*
X0176618Y0260446D01*
X0176466Y0260372D01*
X0176312Y0260301D01*
X0176157Y0260234D01*
X0176000Y0260172D01*
X0175841Y0260113D01*
X0175681Y0260058D01*
X0175520Y0260007D01*
X0175358Y0259960D01*
X0175194Y0259916D01*
X0175030Y0259877D01*
X0174864Y0259842D01*
X0174698Y0259811D01*
X0174531Y0259785D01*
X0174363Y0259762D01*
X0174195Y0259743D01*
X0174027Y0259729D01*
X0173858Y0259718D01*
X0173689Y0259712D01*
X0173520Y0259710D01*
X0173351Y0259712D01*
X0173182Y0259718D01*
X0173013Y0259729D01*
X0172845Y0259743D01*
X0172677Y0259762D01*
X0172509Y0259785D01*
X0172342Y0259811D01*
X0172176Y0259842D01*
X0172010Y0259877D01*
X0171846Y0259916D01*
X0171682Y0259960D01*
X0171520Y0260007D01*
X0171359Y0260058D01*
X0171199Y0260113D01*
X0171040Y0260172D01*
X0170883Y0260234D01*
X0170728Y0260301D01*
X0170574Y0260372D01*
X0170422Y0260446D01*
X0170272Y0260524D01*
X0170124Y0260605D01*
X0169978Y0260690D01*
X0169834Y0260779D01*
X0169692Y0260871D01*
X0169553Y0260967D01*
X0169416Y0261066D01*
X0169281Y0261168D01*
X0169149Y0261274D01*
X0169020Y0261383D01*
X0168893Y0261495D01*
X0168769Y0261610D01*
X0168648Y0261728D01*
X0168530Y0261849D01*
X0168415Y0261973D01*
X0168303Y0262100D01*
X0168194Y0262229D01*
X0168088Y0262361D01*
X0167986Y0262496D01*
X0167887Y0262633D01*
X0167791Y0262772D01*
X0167699Y0262914D01*
X0167610Y0263058D01*
X0167525Y0263204D01*
X0167444Y0263352D01*
X0167366Y0263502D01*
X0167292Y0263654D01*
X0167221Y0263808D01*
X0167154Y0263963D01*
X0167092Y0264120D01*
X0167033Y0264279D01*
X0166978Y0264439D01*
X0166927Y0264600D01*
X0166880Y0264762D01*
X0166836Y0264926D01*
X0166797Y0265090D01*
X0166762Y0265256D01*
X0166731Y0265422D01*
X0166705Y0265589D01*
X0166682Y0265757D01*
X0166663Y0265925D01*
X0166649Y0266093D01*
X0166638Y0266262D01*
X0166632Y0266431D01*
X0166630Y0266600D01*
X0163520Y0304100D02*
X0163520Y0321600D01*
X0163520Y0304100D02*
X0113520Y0304100D01*
X0113520Y0321600D01*
X0083520Y0321600D02*
X0083520Y0304100D01*
X0033520Y0304100D01*
X0033520Y0321600D01*
X0018520Y0311600D02*
X0018522Y0311741D01*
X0018528Y0311882D01*
X0018538Y0312022D01*
X0018552Y0312162D01*
X0018570Y0312302D01*
X0018591Y0312441D01*
X0018617Y0312580D01*
X0018646Y0312718D01*
X0018680Y0312854D01*
X0018717Y0312990D01*
X0018758Y0313125D01*
X0018803Y0313259D01*
X0018852Y0313391D01*
X0018904Y0313522D01*
X0018960Y0313651D01*
X0019020Y0313778D01*
X0019083Y0313904D01*
X0019149Y0314028D01*
X0019220Y0314151D01*
X0019293Y0314271D01*
X0019370Y0314389D01*
X0019450Y0314505D01*
X0019534Y0314618D01*
X0019620Y0314729D01*
X0019710Y0314838D01*
X0019803Y0314944D01*
X0019898Y0315047D01*
X0019997Y0315148D01*
X0020098Y0315246D01*
X0020202Y0315341D01*
X0020309Y0315433D01*
X0020418Y0315522D01*
X0020530Y0315607D01*
X0020644Y0315690D01*
X0020760Y0315770D01*
X0020879Y0315846D01*
X0021000Y0315918D01*
X0021122Y0315988D01*
X0021247Y0316053D01*
X0021373Y0316116D01*
X0021501Y0316174D01*
X0021631Y0316229D01*
X0021762Y0316281D01*
X0021895Y0316328D01*
X0022029Y0316372D01*
X0022164Y0316413D01*
X0022300Y0316449D01*
X0022437Y0316481D01*
X0022575Y0316510D01*
X0022713Y0316535D01*
X0022853Y0316555D01*
X0022993Y0316572D01*
X0023133Y0316585D01*
X0023274Y0316594D01*
X0023414Y0316599D01*
X0023555Y0316600D01*
X0023696Y0316597D01*
X0023837Y0316590D01*
X0023977Y0316579D01*
X0024117Y0316564D01*
X0024257Y0316545D01*
X0024396Y0316523D01*
X0024534Y0316496D01*
X0024672Y0316466D01*
X0024808Y0316431D01*
X0024944Y0316393D01*
X0025078Y0316351D01*
X0025212Y0316305D01*
X0025344Y0316256D01*
X0025474Y0316202D01*
X0025603Y0316145D01*
X0025730Y0316085D01*
X0025856Y0316021D01*
X0025979Y0315953D01*
X0026101Y0315882D01*
X0026221Y0315808D01*
X0026338Y0315730D01*
X0026453Y0315649D01*
X0026566Y0315565D01*
X0026677Y0315478D01*
X0026785Y0315387D01*
X0026890Y0315294D01*
X0026993Y0315197D01*
X0027093Y0315098D01*
X0027190Y0314996D01*
X0027284Y0314891D01*
X0027375Y0314784D01*
X0027463Y0314674D01*
X0027548Y0314562D01*
X0027630Y0314447D01*
X0027709Y0314330D01*
X0027784Y0314211D01*
X0027856Y0314090D01*
X0027924Y0313967D01*
X0027989Y0313842D01*
X0028051Y0313715D01*
X0028108Y0313586D01*
X0028163Y0313456D01*
X0028213Y0313325D01*
X0028260Y0313192D01*
X0028303Y0313058D01*
X0028342Y0312922D01*
X0028377Y0312786D01*
X0028409Y0312649D01*
X0028436Y0312511D01*
X0028460Y0312372D01*
X0028480Y0312232D01*
X0028496Y0312092D01*
X0028508Y0311952D01*
X0028516Y0311811D01*
X0028520Y0311670D01*
X0028520Y0311530D01*
X0028516Y0311389D01*
X0028508Y0311248D01*
X0028496Y0311108D01*
X0028480Y0310968D01*
X0028460Y0310828D01*
X0028436Y0310689D01*
X0028409Y0310551D01*
X0028377Y0310414D01*
X0028342Y0310278D01*
X0028303Y0310142D01*
X0028260Y0310008D01*
X0028213Y0309875D01*
X0028163Y0309744D01*
X0028108Y0309614D01*
X0028051Y0309485D01*
X0027989Y0309358D01*
X0027924Y0309233D01*
X0027856Y0309110D01*
X0027784Y0308989D01*
X0027709Y0308870D01*
X0027630Y0308753D01*
X0027548Y0308638D01*
X0027463Y0308526D01*
X0027375Y0308416D01*
X0027284Y0308309D01*
X0027190Y0308204D01*
X0027093Y0308102D01*
X0026993Y0308003D01*
X0026890Y0307906D01*
X0026785Y0307813D01*
X0026677Y0307722D01*
X0026566Y0307635D01*
X0026453Y0307551D01*
X0026338Y0307470D01*
X0026221Y0307392D01*
X0026101Y0307318D01*
X0025979Y0307247D01*
X0025856Y0307179D01*
X0025730Y0307115D01*
X0025603Y0307055D01*
X0025474Y0306998D01*
X0025344Y0306944D01*
X0025212Y0306895D01*
X0025078Y0306849D01*
X0024944Y0306807D01*
X0024808Y0306769D01*
X0024672Y0306734D01*
X0024534Y0306704D01*
X0024396Y0306677D01*
X0024257Y0306655D01*
X0024117Y0306636D01*
X0023977Y0306621D01*
X0023837Y0306610D01*
X0023696Y0306603D01*
X0023555Y0306600D01*
X0023414Y0306601D01*
X0023274Y0306606D01*
X0023133Y0306615D01*
X0022993Y0306628D01*
X0022853Y0306645D01*
X0022713Y0306665D01*
X0022575Y0306690D01*
X0022437Y0306719D01*
X0022300Y0306751D01*
X0022164Y0306787D01*
X0022029Y0306828D01*
X0021895Y0306872D01*
X0021762Y0306919D01*
X0021631Y0306971D01*
X0021501Y0307026D01*
X0021373Y0307084D01*
X0021247Y0307147D01*
X0021122Y0307212D01*
X0021000Y0307282D01*
X0020879Y0307354D01*
X0020760Y0307430D01*
X0020644Y0307510D01*
X0020530Y0307593D01*
X0020418Y0307678D01*
X0020309Y0307767D01*
X0020202Y0307859D01*
X0020098Y0307954D01*
X0019997Y0308052D01*
X0019898Y0308153D01*
X0019803Y0308256D01*
X0019710Y0308362D01*
X0019620Y0308471D01*
X0019534Y0308582D01*
X0019450Y0308695D01*
X0019370Y0308811D01*
X0019293Y0308929D01*
X0019220Y0309049D01*
X0019149Y0309172D01*
X0019083Y0309296D01*
X0019020Y0309422D01*
X0018960Y0309549D01*
X0018904Y0309678D01*
X0018852Y0309809D01*
X0018803Y0309941D01*
X0018758Y0310075D01*
X0018717Y0310210D01*
X0018680Y0310346D01*
X0018646Y0310482D01*
X0018617Y0310620D01*
X0018591Y0310759D01*
X0018570Y0310898D01*
X0018552Y0311038D01*
X0018538Y0311178D01*
X0018528Y0311318D01*
X0018522Y0311459D01*
X0018520Y0311600D01*
X0193520Y0304100D02*
X0193520Y0321600D01*
X0193520Y0304100D02*
X0243520Y0304100D01*
X0243520Y0321600D01*
X0273520Y0321600D02*
X0273520Y0304100D01*
X0323520Y0304100D01*
X0323520Y0321600D01*
X0327417Y0311600D02*
X0327419Y0311741D01*
X0327425Y0311882D01*
X0327435Y0312022D01*
X0327449Y0312162D01*
X0327467Y0312302D01*
X0327488Y0312441D01*
X0327514Y0312580D01*
X0327543Y0312718D01*
X0327577Y0312854D01*
X0327614Y0312990D01*
X0327655Y0313125D01*
X0327700Y0313259D01*
X0327749Y0313391D01*
X0327801Y0313522D01*
X0327857Y0313651D01*
X0327917Y0313778D01*
X0327980Y0313904D01*
X0328046Y0314028D01*
X0328117Y0314151D01*
X0328190Y0314271D01*
X0328267Y0314389D01*
X0328347Y0314505D01*
X0328431Y0314618D01*
X0328517Y0314729D01*
X0328607Y0314838D01*
X0328700Y0314944D01*
X0328795Y0315047D01*
X0328894Y0315148D01*
X0328995Y0315246D01*
X0329099Y0315341D01*
X0329206Y0315433D01*
X0329315Y0315522D01*
X0329427Y0315607D01*
X0329541Y0315690D01*
X0329657Y0315770D01*
X0329776Y0315846D01*
X0329897Y0315918D01*
X0330019Y0315988D01*
X0330144Y0316053D01*
X0330270Y0316116D01*
X0330398Y0316174D01*
X0330528Y0316229D01*
X0330659Y0316281D01*
X0330792Y0316328D01*
X0330926Y0316372D01*
X0331061Y0316413D01*
X0331197Y0316449D01*
X0331334Y0316481D01*
X0331472Y0316510D01*
X0331610Y0316535D01*
X0331750Y0316555D01*
X0331890Y0316572D01*
X0332030Y0316585D01*
X0332171Y0316594D01*
X0332311Y0316599D01*
X0332452Y0316600D01*
X0332593Y0316597D01*
X0332734Y0316590D01*
X0332874Y0316579D01*
X0333014Y0316564D01*
X0333154Y0316545D01*
X0333293Y0316523D01*
X0333431Y0316496D01*
X0333569Y0316466D01*
X0333705Y0316431D01*
X0333841Y0316393D01*
X0333975Y0316351D01*
X0334109Y0316305D01*
X0334241Y0316256D01*
X0334371Y0316202D01*
X0334500Y0316145D01*
X0334627Y0316085D01*
X0334753Y0316021D01*
X0334876Y0315953D01*
X0334998Y0315882D01*
X0335118Y0315808D01*
X0335235Y0315730D01*
X0335350Y0315649D01*
X0335463Y0315565D01*
X0335574Y0315478D01*
X0335682Y0315387D01*
X0335787Y0315294D01*
X0335890Y0315197D01*
X0335990Y0315098D01*
X0336087Y0314996D01*
X0336181Y0314891D01*
X0336272Y0314784D01*
X0336360Y0314674D01*
X0336445Y0314562D01*
X0336527Y0314447D01*
X0336606Y0314330D01*
X0336681Y0314211D01*
X0336753Y0314090D01*
X0336821Y0313967D01*
X0336886Y0313842D01*
X0336948Y0313715D01*
X0337005Y0313586D01*
X0337060Y0313456D01*
X0337110Y0313325D01*
X0337157Y0313192D01*
X0337200Y0313058D01*
X0337239Y0312922D01*
X0337274Y0312786D01*
X0337306Y0312649D01*
X0337333Y0312511D01*
X0337357Y0312372D01*
X0337377Y0312232D01*
X0337393Y0312092D01*
X0337405Y0311952D01*
X0337413Y0311811D01*
X0337417Y0311670D01*
X0337417Y0311530D01*
X0337413Y0311389D01*
X0337405Y0311248D01*
X0337393Y0311108D01*
X0337377Y0310968D01*
X0337357Y0310828D01*
X0337333Y0310689D01*
X0337306Y0310551D01*
X0337274Y0310414D01*
X0337239Y0310278D01*
X0337200Y0310142D01*
X0337157Y0310008D01*
X0337110Y0309875D01*
X0337060Y0309744D01*
X0337005Y0309614D01*
X0336948Y0309485D01*
X0336886Y0309358D01*
X0336821Y0309233D01*
X0336753Y0309110D01*
X0336681Y0308989D01*
X0336606Y0308870D01*
X0336527Y0308753D01*
X0336445Y0308638D01*
X0336360Y0308526D01*
X0336272Y0308416D01*
X0336181Y0308309D01*
X0336087Y0308204D01*
X0335990Y0308102D01*
X0335890Y0308003D01*
X0335787Y0307906D01*
X0335682Y0307813D01*
X0335574Y0307722D01*
X0335463Y0307635D01*
X0335350Y0307551D01*
X0335235Y0307470D01*
X0335118Y0307392D01*
X0334998Y0307318D01*
X0334876Y0307247D01*
X0334753Y0307179D01*
X0334627Y0307115D01*
X0334500Y0307055D01*
X0334371Y0306998D01*
X0334241Y0306944D01*
X0334109Y0306895D01*
X0333975Y0306849D01*
X0333841Y0306807D01*
X0333705Y0306769D01*
X0333569Y0306734D01*
X0333431Y0306704D01*
X0333293Y0306677D01*
X0333154Y0306655D01*
X0333014Y0306636D01*
X0332874Y0306621D01*
X0332734Y0306610D01*
X0332593Y0306603D01*
X0332452Y0306600D01*
X0332311Y0306601D01*
X0332171Y0306606D01*
X0332030Y0306615D01*
X0331890Y0306628D01*
X0331750Y0306645D01*
X0331610Y0306665D01*
X0331472Y0306690D01*
X0331334Y0306719D01*
X0331197Y0306751D01*
X0331061Y0306787D01*
X0330926Y0306828D01*
X0330792Y0306872D01*
X0330659Y0306919D01*
X0330528Y0306971D01*
X0330398Y0307026D01*
X0330270Y0307084D01*
X0330144Y0307147D01*
X0330019Y0307212D01*
X0329897Y0307282D01*
X0329776Y0307354D01*
X0329657Y0307430D01*
X0329541Y0307510D01*
X0329427Y0307593D01*
X0329315Y0307678D01*
X0329206Y0307767D01*
X0329099Y0307859D01*
X0328995Y0307954D01*
X0328894Y0308052D01*
X0328795Y0308153D01*
X0328700Y0308256D01*
X0328607Y0308362D01*
X0328517Y0308471D01*
X0328431Y0308582D01*
X0328347Y0308695D01*
X0328267Y0308811D01*
X0328190Y0308929D01*
X0328117Y0309049D01*
X0328046Y0309172D01*
X0327980Y0309296D01*
X0327917Y0309422D01*
X0327857Y0309549D01*
X0327801Y0309678D01*
X0327749Y0309809D01*
X0327700Y0309941D01*
X0327655Y0310075D01*
X0327614Y0310210D01*
X0327577Y0310346D01*
X0327543Y0310482D01*
X0327514Y0310620D01*
X0327488Y0310759D01*
X0327467Y0310898D01*
X0327449Y0311038D01*
X0327435Y0311178D01*
X0327425Y0311318D01*
X0327419Y0311459D01*
X0327417Y0311600D01*
D12*
X0318370Y0312950D02*
X0318370Y0309250D01*
X0317136Y0310894D02*
X0315903Y0312950D01*
X0315903Y0309250D01*
X0317136Y0310894D02*
X0318370Y0312950D01*
X0314001Y0311922D02*
X0314001Y0310278D01*
X0313999Y0310215D01*
X0313993Y0310152D01*
X0313983Y0310089D01*
X0313970Y0310027D01*
X0313953Y0309966D01*
X0313932Y0309907D01*
X0313907Y0309848D01*
X0313879Y0309792D01*
X0313847Y0309737D01*
X0313812Y0309684D01*
X0313774Y0309634D01*
X0313733Y0309585D01*
X0313689Y0309540D01*
X0313642Y0309497D01*
X0313593Y0309458D01*
X0313541Y0309421D01*
X0313487Y0309388D01*
X0313431Y0309358D01*
X0313374Y0309331D01*
X0313315Y0309308D01*
X0313254Y0309289D01*
X0313193Y0309274D01*
X0313131Y0309262D01*
X0313068Y0309254D01*
X0313005Y0309250D01*
X0312941Y0309250D01*
X0312878Y0309254D01*
X0312815Y0309262D01*
X0312753Y0309274D01*
X0312692Y0309289D01*
X0312631Y0309308D01*
X0312572Y0309331D01*
X0312515Y0309358D01*
X0312459Y0309388D01*
X0312405Y0309421D01*
X0312353Y0309458D01*
X0312304Y0309497D01*
X0312257Y0309540D01*
X0312213Y0309585D01*
X0312172Y0309634D01*
X0312134Y0309684D01*
X0312099Y0309737D01*
X0312067Y0309792D01*
X0312039Y0309848D01*
X0312014Y0309907D01*
X0311993Y0309966D01*
X0311976Y0310027D01*
X0311963Y0310089D01*
X0311953Y0310152D01*
X0311947Y0310215D01*
X0311945Y0310278D01*
X0311945Y0311922D01*
X0311947Y0311985D01*
X0311953Y0312048D01*
X0311963Y0312111D01*
X0311976Y0312173D01*
X0311993Y0312234D01*
X0312014Y0312293D01*
X0312039Y0312352D01*
X0312067Y0312408D01*
X0312099Y0312463D01*
X0312134Y0312516D01*
X0312172Y0312566D01*
X0312213Y0312615D01*
X0312257Y0312660D01*
X0312304Y0312703D01*
X0312353Y0312742D01*
X0312405Y0312779D01*
X0312459Y0312812D01*
X0312515Y0312842D01*
X0312572Y0312869D01*
X0312631Y0312892D01*
X0312692Y0312911D01*
X0312753Y0312926D01*
X0312815Y0312938D01*
X0312878Y0312946D01*
X0312941Y0312950D01*
X0313005Y0312950D01*
X0313068Y0312946D01*
X0313131Y0312938D01*
X0313193Y0312926D01*
X0313254Y0312911D01*
X0313315Y0312892D01*
X0313374Y0312869D01*
X0313431Y0312842D01*
X0313487Y0312812D01*
X0313541Y0312779D01*
X0313593Y0312742D01*
X0313642Y0312703D01*
X0313689Y0312660D01*
X0313733Y0312615D01*
X0313774Y0312566D01*
X0313812Y0312516D01*
X0313847Y0312463D01*
X0313879Y0312408D01*
X0313907Y0312352D01*
X0313932Y0312293D01*
X0313953Y0312234D01*
X0313970Y0312173D01*
X0313983Y0312111D01*
X0313993Y0312048D01*
X0313999Y0311985D01*
X0314001Y0311922D01*
X0312356Y0310072D02*
X0311534Y0309250D01*
X0308170Y0311408D02*
X0307040Y0310792D01*
X0307451Y0309250D02*
X0307532Y0309252D01*
X0307612Y0309257D01*
X0307692Y0309267D01*
X0307772Y0309280D01*
X0307851Y0309297D01*
X0307929Y0309317D01*
X0308006Y0309341D01*
X0308082Y0309369D01*
X0308156Y0309400D01*
X0308229Y0309434D01*
X0308300Y0309472D01*
X0308370Y0309513D01*
X0308437Y0309557D01*
X0308503Y0309604D01*
X0308566Y0309655D01*
X0308626Y0309708D01*
X0308684Y0309764D01*
X0307040Y0310791D02*
X0306994Y0310762D01*
X0306951Y0310730D01*
X0306909Y0310696D01*
X0306870Y0310658D01*
X0306833Y0310619D01*
X0306799Y0310577D01*
X0306767Y0310532D01*
X0306739Y0310486D01*
X0306714Y0310438D01*
X0306691Y0310389D01*
X0306673Y0310338D01*
X0306657Y0310286D01*
X0306645Y0310234D01*
X0306636Y0310180D01*
X0306631Y0310126D01*
X0306629Y0310072D01*
X0306631Y0310016D01*
X0306637Y0309960D01*
X0306646Y0309905D01*
X0306659Y0309850D01*
X0306676Y0309797D01*
X0306697Y0309745D01*
X0306721Y0309694D01*
X0306749Y0309645D01*
X0306779Y0309598D01*
X0306813Y0309553D01*
X0306850Y0309511D01*
X0306890Y0309471D01*
X0306932Y0309434D01*
X0306977Y0309400D01*
X0307024Y0309370D01*
X0307073Y0309342D01*
X0307124Y0309318D01*
X0307176Y0309297D01*
X0307229Y0309280D01*
X0307284Y0309267D01*
X0307339Y0309258D01*
X0307395Y0309252D01*
X0307451Y0309250D01*
X0306834Y0312642D02*
X0306896Y0312686D01*
X0306960Y0312727D01*
X0307026Y0312765D01*
X0307095Y0312799D01*
X0307164Y0312831D01*
X0307235Y0312858D01*
X0307308Y0312882D01*
X0307381Y0312903D01*
X0307456Y0312920D01*
X0307531Y0312933D01*
X0307607Y0312942D01*
X0307683Y0312948D01*
X0307759Y0312950D01*
X0307815Y0312948D01*
X0307871Y0312942D01*
X0307926Y0312933D01*
X0307981Y0312920D01*
X0308034Y0312903D01*
X0308086Y0312882D01*
X0308137Y0312858D01*
X0308186Y0312830D01*
X0308233Y0312800D01*
X0308278Y0312766D01*
X0308320Y0312729D01*
X0308360Y0312689D01*
X0308397Y0312647D01*
X0308431Y0312602D01*
X0308461Y0312555D01*
X0308489Y0312506D01*
X0308513Y0312455D01*
X0308534Y0312403D01*
X0308551Y0312350D01*
X0308564Y0312295D01*
X0308573Y0312240D01*
X0308579Y0312184D01*
X0308581Y0312128D01*
X0308579Y0312074D01*
X0308574Y0312020D01*
X0308565Y0311966D01*
X0308553Y0311914D01*
X0308537Y0311862D01*
X0308519Y0311811D01*
X0308496Y0311762D01*
X0308471Y0311714D01*
X0308443Y0311668D01*
X0308411Y0311623D01*
X0308377Y0311581D01*
X0308340Y0311542D01*
X0308301Y0311504D01*
X0308259Y0311470D01*
X0308216Y0311438D01*
X0308170Y0311409D01*
X0305239Y0310894D02*
X0305239Y0309867D01*
X0305239Y0310483D02*
X0303594Y0310483D01*
X0303594Y0310894D01*
X0303596Y0310950D01*
X0303602Y0311006D01*
X0303611Y0311061D01*
X0303624Y0311116D01*
X0303641Y0311169D01*
X0303662Y0311221D01*
X0303686Y0311272D01*
X0303714Y0311321D01*
X0303744Y0311368D01*
X0303778Y0311413D01*
X0303815Y0311455D01*
X0303855Y0311495D01*
X0303897Y0311532D01*
X0303942Y0311566D01*
X0303989Y0311596D01*
X0304038Y0311624D01*
X0304089Y0311648D01*
X0304141Y0311669D01*
X0304194Y0311686D01*
X0304249Y0311699D01*
X0304304Y0311708D01*
X0304360Y0311714D01*
X0304416Y0311716D01*
X0304472Y0311714D01*
X0304528Y0311708D01*
X0304583Y0311699D01*
X0304638Y0311686D01*
X0304691Y0311669D01*
X0304743Y0311648D01*
X0304794Y0311624D01*
X0304843Y0311596D01*
X0304890Y0311566D01*
X0304935Y0311532D01*
X0304977Y0311495D01*
X0305017Y0311455D01*
X0305054Y0311413D01*
X0305088Y0311368D01*
X0305118Y0311321D01*
X0305146Y0311272D01*
X0305170Y0311221D01*
X0305191Y0311169D01*
X0305208Y0311116D01*
X0305221Y0311061D01*
X0305230Y0311006D01*
X0305236Y0310950D01*
X0305238Y0310894D01*
X0305239Y0309867D02*
X0305237Y0309819D01*
X0305231Y0309770D01*
X0305222Y0309723D01*
X0305209Y0309676D01*
X0305192Y0309631D01*
X0305172Y0309587D01*
X0305148Y0309545D01*
X0305121Y0309504D01*
X0305091Y0309466D01*
X0305058Y0309431D01*
X0305023Y0309398D01*
X0304985Y0309368D01*
X0304944Y0309341D01*
X0304902Y0309317D01*
X0304858Y0309297D01*
X0304813Y0309280D01*
X0304766Y0309267D01*
X0304719Y0309258D01*
X0304670Y0309252D01*
X0304622Y0309250D01*
X0303594Y0309250D01*
X0301999Y0309250D02*
X0301999Y0311717D01*
X0300971Y0311717D01*
X0300923Y0311715D01*
X0300874Y0311709D01*
X0300827Y0311700D01*
X0300780Y0311687D01*
X0300735Y0311670D01*
X0300691Y0311650D01*
X0300649Y0311626D01*
X0300608Y0311599D01*
X0300570Y0311569D01*
X0300535Y0311536D01*
X0300502Y0311501D01*
X0300472Y0311463D01*
X0300445Y0311422D01*
X0300421Y0311380D01*
X0300401Y0311336D01*
X0300384Y0311291D01*
X0300371Y0311244D01*
X0300362Y0311197D01*
X0300356Y0311148D01*
X0300354Y0311100D01*
X0300354Y0309250D01*
X0298245Y0311717D02*
X0298149Y0311713D01*
X0298054Y0311706D01*
X0297959Y0311695D01*
X0297865Y0311680D01*
X0297772Y0311661D01*
X0297679Y0311639D01*
X0297587Y0311612D01*
X0297497Y0311582D01*
X0297408Y0311549D01*
X0297320Y0311511D01*
X0298244Y0311717D02*
X0298289Y0311716D01*
X0298334Y0311711D01*
X0298378Y0311702D01*
X0298421Y0311690D01*
X0298463Y0311674D01*
X0298503Y0311654D01*
X0298542Y0311631D01*
X0298578Y0311606D01*
X0298612Y0311577D01*
X0298644Y0311545D01*
X0298673Y0311511D01*
X0298699Y0311474D01*
X0298722Y0311436D01*
X0298741Y0311395D01*
X0298757Y0311353D01*
X0298770Y0311310D01*
X0298779Y0311266D01*
X0298784Y0311222D01*
X0298785Y0311177D01*
X0298782Y0311132D01*
X0298776Y0311088D01*
X0298766Y0311044D01*
X0298753Y0311002D01*
X0298736Y0310960D01*
X0298715Y0310920D01*
X0298691Y0310882D01*
X0298665Y0310847D01*
X0298635Y0310813D01*
X0298602Y0310782D01*
X0298567Y0310754D01*
X0298530Y0310729D01*
X0298491Y0310708D01*
X0298450Y0310689D01*
X0297423Y0310278D01*
X0297382Y0310259D01*
X0297343Y0310238D01*
X0297306Y0310213D01*
X0297271Y0310185D01*
X0297238Y0310154D01*
X0297208Y0310120D01*
X0297182Y0310085D01*
X0297158Y0310047D01*
X0297137Y0310007D01*
X0297120Y0309965D01*
X0297107Y0309923D01*
X0297097Y0309879D01*
X0297091Y0309835D01*
X0297088Y0309790D01*
X0297089Y0309745D01*
X0297094Y0309701D01*
X0297103Y0309657D01*
X0297116Y0309614D01*
X0297132Y0309572D01*
X0297151Y0309531D01*
X0297174Y0309493D01*
X0297200Y0309456D01*
X0297229Y0309422D01*
X0297261Y0309390D01*
X0297295Y0309361D01*
X0297331Y0309336D01*
X0297370Y0309313D01*
X0297410Y0309293D01*
X0297452Y0309277D01*
X0297495Y0309265D01*
X0297539Y0309256D01*
X0297584Y0309251D01*
X0297629Y0309250D01*
X0295639Y0310072D02*
X0295639Y0310894D01*
X0295638Y0310894D02*
X0295636Y0310950D01*
X0295630Y0311006D01*
X0295621Y0311061D01*
X0295608Y0311116D01*
X0295591Y0311169D01*
X0295570Y0311221D01*
X0295546Y0311272D01*
X0295518Y0311321D01*
X0295488Y0311368D01*
X0295454Y0311413D01*
X0295417Y0311455D01*
X0295377Y0311495D01*
X0295335Y0311532D01*
X0295290Y0311566D01*
X0295243Y0311596D01*
X0295194Y0311624D01*
X0295143Y0311648D01*
X0295091Y0311669D01*
X0295038Y0311686D01*
X0294983Y0311699D01*
X0294928Y0311708D01*
X0294872Y0311714D01*
X0294816Y0311716D01*
X0294760Y0311714D01*
X0294704Y0311708D01*
X0294649Y0311699D01*
X0294594Y0311686D01*
X0294541Y0311669D01*
X0294489Y0311648D01*
X0294438Y0311624D01*
X0294389Y0311596D01*
X0294342Y0311566D01*
X0294297Y0311532D01*
X0294255Y0311495D01*
X0294215Y0311455D01*
X0294178Y0311413D01*
X0294144Y0311368D01*
X0294114Y0311321D01*
X0294086Y0311272D01*
X0294062Y0311221D01*
X0294041Y0311169D01*
X0294024Y0311116D01*
X0294011Y0311061D01*
X0294002Y0311006D01*
X0293996Y0310950D01*
X0293994Y0310894D01*
X0293994Y0310072D01*
X0293996Y0310016D01*
X0294002Y0309960D01*
X0294011Y0309905D01*
X0294024Y0309850D01*
X0294041Y0309797D01*
X0294062Y0309745D01*
X0294086Y0309694D01*
X0294114Y0309645D01*
X0294144Y0309598D01*
X0294178Y0309553D01*
X0294215Y0309511D01*
X0294255Y0309471D01*
X0294297Y0309434D01*
X0294342Y0309400D01*
X0294389Y0309370D01*
X0294438Y0309342D01*
X0294489Y0309318D01*
X0294541Y0309297D01*
X0294594Y0309280D01*
X0294649Y0309267D01*
X0294704Y0309258D01*
X0294760Y0309252D01*
X0294816Y0309250D01*
X0294872Y0309252D01*
X0294928Y0309258D01*
X0294983Y0309267D01*
X0295038Y0309280D01*
X0295091Y0309297D01*
X0295143Y0309318D01*
X0295194Y0309342D01*
X0295243Y0309370D01*
X0295290Y0309400D01*
X0295335Y0309434D01*
X0295377Y0309471D01*
X0295417Y0309511D01*
X0295454Y0309553D01*
X0295488Y0309598D01*
X0295518Y0309645D01*
X0295546Y0309694D01*
X0295570Y0309745D01*
X0295591Y0309797D01*
X0295608Y0309850D01*
X0295621Y0309905D01*
X0295630Y0309960D01*
X0295636Y0310016D01*
X0295638Y0310072D01*
X0297628Y0309249D02*
X0297743Y0309253D01*
X0297858Y0309260D01*
X0297973Y0309271D01*
X0298088Y0309286D01*
X0298202Y0309305D01*
X0298315Y0309328D01*
X0298427Y0309354D01*
X0298539Y0309384D01*
X0298649Y0309418D01*
X0298758Y0309455D01*
X0292378Y0309250D02*
X0292378Y0311717D01*
X0291145Y0311717D01*
X0291145Y0311306D01*
X0288044Y0311306D02*
X0288044Y0312950D01*
X0285989Y0312950D01*
X0286811Y0311306D02*
X0288044Y0311306D01*
X0286811Y0311305D02*
X0286755Y0311303D01*
X0286699Y0311297D01*
X0286644Y0311288D01*
X0286589Y0311275D01*
X0286536Y0311258D01*
X0286484Y0311237D01*
X0286433Y0311213D01*
X0286384Y0311185D01*
X0286337Y0311155D01*
X0286292Y0311121D01*
X0286250Y0311084D01*
X0286210Y0311044D01*
X0286173Y0311002D01*
X0286139Y0310957D01*
X0286109Y0310910D01*
X0286081Y0310861D01*
X0286057Y0310810D01*
X0286036Y0310758D01*
X0286019Y0310705D01*
X0286006Y0310650D01*
X0285997Y0310595D01*
X0285991Y0310539D01*
X0285989Y0310483D01*
X0285989Y0310072D01*
X0285991Y0310016D01*
X0285997Y0309960D01*
X0286006Y0309905D01*
X0286019Y0309850D01*
X0286036Y0309797D01*
X0286057Y0309745D01*
X0286081Y0309694D01*
X0286109Y0309645D01*
X0286139Y0309598D01*
X0286173Y0309553D01*
X0286210Y0309511D01*
X0286250Y0309471D01*
X0286292Y0309434D01*
X0286337Y0309400D01*
X0286384Y0309370D01*
X0286433Y0309342D01*
X0286484Y0309318D01*
X0286536Y0309297D01*
X0286589Y0309280D01*
X0286644Y0309267D01*
X0286699Y0309258D01*
X0286755Y0309252D01*
X0286811Y0309250D01*
X0288044Y0309250D01*
X0238370Y0309250D02*
X0238370Y0312950D01*
X0237136Y0310894D01*
X0235903Y0312950D01*
X0235903Y0309250D01*
X0234001Y0310278D02*
X0234001Y0311922D01*
X0233999Y0311985D01*
X0233993Y0312048D01*
X0233983Y0312111D01*
X0233970Y0312173D01*
X0233953Y0312234D01*
X0233932Y0312293D01*
X0233907Y0312352D01*
X0233879Y0312408D01*
X0233847Y0312463D01*
X0233812Y0312516D01*
X0233774Y0312566D01*
X0233733Y0312615D01*
X0233689Y0312660D01*
X0233642Y0312703D01*
X0233593Y0312742D01*
X0233541Y0312779D01*
X0233487Y0312812D01*
X0233431Y0312842D01*
X0233374Y0312869D01*
X0233315Y0312892D01*
X0233254Y0312911D01*
X0233193Y0312926D01*
X0233131Y0312938D01*
X0233068Y0312946D01*
X0233005Y0312950D01*
X0232941Y0312950D01*
X0232878Y0312946D01*
X0232815Y0312938D01*
X0232753Y0312926D01*
X0232692Y0312911D01*
X0232631Y0312892D01*
X0232572Y0312869D01*
X0232515Y0312842D01*
X0232459Y0312812D01*
X0232405Y0312779D01*
X0232353Y0312742D01*
X0232304Y0312703D01*
X0232257Y0312660D01*
X0232213Y0312615D01*
X0232172Y0312566D01*
X0232134Y0312516D01*
X0232099Y0312463D01*
X0232067Y0312408D01*
X0232039Y0312352D01*
X0232014Y0312293D01*
X0231993Y0312234D01*
X0231976Y0312173D01*
X0231963Y0312111D01*
X0231953Y0312048D01*
X0231947Y0311985D01*
X0231945Y0311922D01*
X0231945Y0310278D01*
X0232356Y0310072D02*
X0231534Y0309250D01*
X0231945Y0310278D02*
X0231947Y0310215D01*
X0231953Y0310152D01*
X0231963Y0310089D01*
X0231976Y0310027D01*
X0231993Y0309966D01*
X0232014Y0309907D01*
X0232039Y0309848D01*
X0232067Y0309792D01*
X0232099Y0309737D01*
X0232134Y0309684D01*
X0232172Y0309634D01*
X0232213Y0309585D01*
X0232257Y0309540D01*
X0232304Y0309497D01*
X0232353Y0309458D01*
X0232405Y0309421D01*
X0232459Y0309388D01*
X0232515Y0309358D01*
X0232572Y0309331D01*
X0232631Y0309308D01*
X0232692Y0309289D01*
X0232753Y0309274D01*
X0232815Y0309262D01*
X0232878Y0309254D01*
X0232941Y0309250D01*
X0233005Y0309250D01*
X0233068Y0309254D01*
X0233131Y0309262D01*
X0233193Y0309274D01*
X0233254Y0309289D01*
X0233315Y0309308D01*
X0233374Y0309331D01*
X0233431Y0309358D01*
X0233487Y0309388D01*
X0233541Y0309421D01*
X0233593Y0309458D01*
X0233642Y0309497D01*
X0233689Y0309540D01*
X0233733Y0309585D01*
X0233774Y0309634D01*
X0233812Y0309684D01*
X0233847Y0309737D01*
X0233879Y0309792D01*
X0233907Y0309848D01*
X0233932Y0309907D01*
X0233953Y0309966D01*
X0233970Y0310027D01*
X0233983Y0310089D01*
X0233993Y0310152D01*
X0233999Y0310215D01*
X0234001Y0310278D01*
X0228170Y0311408D02*
X0227040Y0310792D01*
X0227451Y0309250D02*
X0227532Y0309252D01*
X0227612Y0309257D01*
X0227692Y0309267D01*
X0227772Y0309280D01*
X0227851Y0309297D01*
X0227929Y0309317D01*
X0228006Y0309341D01*
X0228082Y0309369D01*
X0228156Y0309400D01*
X0228229Y0309434D01*
X0228300Y0309472D01*
X0228370Y0309513D01*
X0228437Y0309557D01*
X0228503Y0309604D01*
X0228566Y0309655D01*
X0228626Y0309708D01*
X0228684Y0309764D01*
X0227040Y0310791D02*
X0226994Y0310762D01*
X0226951Y0310730D01*
X0226909Y0310696D01*
X0226870Y0310658D01*
X0226833Y0310619D01*
X0226799Y0310577D01*
X0226767Y0310532D01*
X0226739Y0310486D01*
X0226714Y0310438D01*
X0226691Y0310389D01*
X0226673Y0310338D01*
X0226657Y0310286D01*
X0226645Y0310234D01*
X0226636Y0310180D01*
X0226631Y0310126D01*
X0226629Y0310072D01*
X0226631Y0310016D01*
X0226637Y0309960D01*
X0226646Y0309905D01*
X0226659Y0309850D01*
X0226676Y0309797D01*
X0226697Y0309745D01*
X0226721Y0309694D01*
X0226749Y0309645D01*
X0226779Y0309598D01*
X0226813Y0309553D01*
X0226850Y0309511D01*
X0226890Y0309471D01*
X0226932Y0309434D01*
X0226977Y0309400D01*
X0227024Y0309370D01*
X0227073Y0309342D01*
X0227124Y0309318D01*
X0227176Y0309297D01*
X0227229Y0309280D01*
X0227284Y0309267D01*
X0227339Y0309258D01*
X0227395Y0309252D01*
X0227451Y0309250D01*
X0226834Y0312642D02*
X0226896Y0312686D01*
X0226960Y0312727D01*
X0227026Y0312765D01*
X0227095Y0312799D01*
X0227164Y0312831D01*
X0227235Y0312858D01*
X0227308Y0312882D01*
X0227381Y0312903D01*
X0227456Y0312920D01*
X0227531Y0312933D01*
X0227607Y0312942D01*
X0227683Y0312948D01*
X0227759Y0312950D01*
X0227815Y0312948D01*
X0227871Y0312942D01*
X0227926Y0312933D01*
X0227981Y0312920D01*
X0228034Y0312903D01*
X0228086Y0312882D01*
X0228137Y0312858D01*
X0228186Y0312830D01*
X0228233Y0312800D01*
X0228278Y0312766D01*
X0228320Y0312729D01*
X0228360Y0312689D01*
X0228397Y0312647D01*
X0228431Y0312602D01*
X0228461Y0312555D01*
X0228489Y0312506D01*
X0228513Y0312455D01*
X0228534Y0312403D01*
X0228551Y0312350D01*
X0228564Y0312295D01*
X0228573Y0312240D01*
X0228579Y0312184D01*
X0228581Y0312128D01*
X0228579Y0312074D01*
X0228574Y0312020D01*
X0228565Y0311966D01*
X0228553Y0311914D01*
X0228537Y0311862D01*
X0228519Y0311811D01*
X0228496Y0311762D01*
X0228471Y0311714D01*
X0228443Y0311668D01*
X0228411Y0311623D01*
X0228377Y0311581D01*
X0228340Y0311542D01*
X0228301Y0311504D01*
X0228259Y0311470D01*
X0228216Y0311438D01*
X0228170Y0311409D01*
X0225239Y0310894D02*
X0225239Y0309867D01*
X0225239Y0310483D02*
X0223594Y0310483D01*
X0223594Y0310894D01*
X0223596Y0310950D01*
X0223602Y0311006D01*
X0223611Y0311061D01*
X0223624Y0311116D01*
X0223641Y0311169D01*
X0223662Y0311221D01*
X0223686Y0311272D01*
X0223714Y0311321D01*
X0223744Y0311368D01*
X0223778Y0311413D01*
X0223815Y0311455D01*
X0223855Y0311495D01*
X0223897Y0311532D01*
X0223942Y0311566D01*
X0223989Y0311596D01*
X0224038Y0311624D01*
X0224089Y0311648D01*
X0224141Y0311669D01*
X0224194Y0311686D01*
X0224249Y0311699D01*
X0224304Y0311708D01*
X0224360Y0311714D01*
X0224416Y0311716D01*
X0224472Y0311714D01*
X0224528Y0311708D01*
X0224583Y0311699D01*
X0224638Y0311686D01*
X0224691Y0311669D01*
X0224743Y0311648D01*
X0224794Y0311624D01*
X0224843Y0311596D01*
X0224890Y0311566D01*
X0224935Y0311532D01*
X0224977Y0311495D01*
X0225017Y0311455D01*
X0225054Y0311413D01*
X0225088Y0311368D01*
X0225118Y0311321D01*
X0225146Y0311272D01*
X0225170Y0311221D01*
X0225191Y0311169D01*
X0225208Y0311116D01*
X0225221Y0311061D01*
X0225230Y0311006D01*
X0225236Y0310950D01*
X0225238Y0310894D01*
X0225239Y0309867D02*
X0225237Y0309819D01*
X0225231Y0309770D01*
X0225222Y0309723D01*
X0225209Y0309676D01*
X0225192Y0309631D01*
X0225172Y0309587D01*
X0225148Y0309545D01*
X0225121Y0309504D01*
X0225091Y0309466D01*
X0225058Y0309431D01*
X0225023Y0309398D01*
X0224985Y0309368D01*
X0224944Y0309341D01*
X0224902Y0309317D01*
X0224858Y0309297D01*
X0224813Y0309280D01*
X0224766Y0309267D01*
X0224719Y0309258D01*
X0224670Y0309252D01*
X0224622Y0309250D01*
X0223594Y0309250D01*
X0221999Y0309250D02*
X0221999Y0311717D01*
X0220971Y0311717D01*
X0220923Y0311715D01*
X0220874Y0311709D01*
X0220827Y0311700D01*
X0220780Y0311687D01*
X0220735Y0311670D01*
X0220691Y0311650D01*
X0220649Y0311626D01*
X0220608Y0311599D01*
X0220570Y0311569D01*
X0220535Y0311536D01*
X0220502Y0311501D01*
X0220472Y0311463D01*
X0220445Y0311422D01*
X0220421Y0311380D01*
X0220401Y0311336D01*
X0220384Y0311291D01*
X0220371Y0311244D01*
X0220362Y0311197D01*
X0220356Y0311148D01*
X0220354Y0311100D01*
X0220354Y0309250D01*
X0218245Y0311717D02*
X0218149Y0311713D01*
X0218054Y0311706D01*
X0217959Y0311695D01*
X0217865Y0311680D01*
X0217772Y0311661D01*
X0217679Y0311639D01*
X0217587Y0311612D01*
X0217497Y0311582D01*
X0217408Y0311549D01*
X0217320Y0311511D01*
X0218244Y0311717D02*
X0218289Y0311716D01*
X0218334Y0311711D01*
X0218378Y0311702D01*
X0218421Y0311690D01*
X0218463Y0311674D01*
X0218503Y0311654D01*
X0218542Y0311631D01*
X0218578Y0311606D01*
X0218612Y0311577D01*
X0218644Y0311545D01*
X0218673Y0311511D01*
X0218699Y0311474D01*
X0218722Y0311436D01*
X0218741Y0311395D01*
X0218757Y0311353D01*
X0218770Y0311310D01*
X0218779Y0311266D01*
X0218784Y0311222D01*
X0218785Y0311177D01*
X0218782Y0311132D01*
X0218776Y0311088D01*
X0218766Y0311044D01*
X0218753Y0311002D01*
X0218736Y0310960D01*
X0218715Y0310920D01*
X0218691Y0310882D01*
X0218665Y0310847D01*
X0218635Y0310813D01*
X0218602Y0310782D01*
X0218567Y0310754D01*
X0218530Y0310729D01*
X0218491Y0310708D01*
X0218450Y0310689D01*
X0217423Y0310278D01*
X0217382Y0310259D01*
X0217343Y0310238D01*
X0217306Y0310213D01*
X0217271Y0310185D01*
X0217238Y0310154D01*
X0217208Y0310120D01*
X0217182Y0310085D01*
X0217158Y0310047D01*
X0217137Y0310007D01*
X0217120Y0309965D01*
X0217107Y0309923D01*
X0217097Y0309879D01*
X0217091Y0309835D01*
X0217088Y0309790D01*
X0217089Y0309745D01*
X0217094Y0309701D01*
X0217103Y0309657D01*
X0217116Y0309614D01*
X0217132Y0309572D01*
X0217151Y0309531D01*
X0217174Y0309493D01*
X0217200Y0309456D01*
X0217229Y0309422D01*
X0217261Y0309390D01*
X0217295Y0309361D01*
X0217331Y0309336D01*
X0217370Y0309313D01*
X0217410Y0309293D01*
X0217452Y0309277D01*
X0217495Y0309265D01*
X0217539Y0309256D01*
X0217584Y0309251D01*
X0217629Y0309250D01*
X0215639Y0310072D02*
X0215639Y0310894D01*
X0215638Y0310894D02*
X0215636Y0310950D01*
X0215630Y0311006D01*
X0215621Y0311061D01*
X0215608Y0311116D01*
X0215591Y0311169D01*
X0215570Y0311221D01*
X0215546Y0311272D01*
X0215518Y0311321D01*
X0215488Y0311368D01*
X0215454Y0311413D01*
X0215417Y0311455D01*
X0215377Y0311495D01*
X0215335Y0311532D01*
X0215290Y0311566D01*
X0215243Y0311596D01*
X0215194Y0311624D01*
X0215143Y0311648D01*
X0215091Y0311669D01*
X0215038Y0311686D01*
X0214983Y0311699D01*
X0214928Y0311708D01*
X0214872Y0311714D01*
X0214816Y0311716D01*
X0214760Y0311714D01*
X0214704Y0311708D01*
X0214649Y0311699D01*
X0214594Y0311686D01*
X0214541Y0311669D01*
X0214489Y0311648D01*
X0214438Y0311624D01*
X0214389Y0311596D01*
X0214342Y0311566D01*
X0214297Y0311532D01*
X0214255Y0311495D01*
X0214215Y0311455D01*
X0214178Y0311413D01*
X0214144Y0311368D01*
X0214114Y0311321D01*
X0214086Y0311272D01*
X0214062Y0311221D01*
X0214041Y0311169D01*
X0214024Y0311116D01*
X0214011Y0311061D01*
X0214002Y0311006D01*
X0213996Y0310950D01*
X0213994Y0310894D01*
X0213994Y0310072D01*
X0213996Y0310016D01*
X0214002Y0309960D01*
X0214011Y0309905D01*
X0214024Y0309850D01*
X0214041Y0309797D01*
X0214062Y0309745D01*
X0214086Y0309694D01*
X0214114Y0309645D01*
X0214144Y0309598D01*
X0214178Y0309553D01*
X0214215Y0309511D01*
X0214255Y0309471D01*
X0214297Y0309434D01*
X0214342Y0309400D01*
X0214389Y0309370D01*
X0214438Y0309342D01*
X0214489Y0309318D01*
X0214541Y0309297D01*
X0214594Y0309280D01*
X0214649Y0309267D01*
X0214704Y0309258D01*
X0214760Y0309252D01*
X0214816Y0309250D01*
X0214872Y0309252D01*
X0214928Y0309258D01*
X0214983Y0309267D01*
X0215038Y0309280D01*
X0215091Y0309297D01*
X0215143Y0309318D01*
X0215194Y0309342D01*
X0215243Y0309370D01*
X0215290Y0309400D01*
X0215335Y0309434D01*
X0215377Y0309471D01*
X0215417Y0309511D01*
X0215454Y0309553D01*
X0215488Y0309598D01*
X0215518Y0309645D01*
X0215546Y0309694D01*
X0215570Y0309745D01*
X0215591Y0309797D01*
X0215608Y0309850D01*
X0215621Y0309905D01*
X0215630Y0309960D01*
X0215636Y0310016D01*
X0215638Y0310072D01*
X0217628Y0309249D02*
X0217743Y0309253D01*
X0217858Y0309260D01*
X0217973Y0309271D01*
X0218088Y0309286D01*
X0218202Y0309305D01*
X0218315Y0309328D01*
X0218427Y0309354D01*
X0218539Y0309384D01*
X0218649Y0309418D01*
X0218758Y0309455D01*
X0212378Y0309250D02*
X0212378Y0311717D01*
X0211145Y0311717D01*
X0211145Y0311306D01*
X0208044Y0311306D02*
X0208044Y0310278D01*
X0208045Y0310278D02*
X0208043Y0310215D01*
X0208037Y0310152D01*
X0208027Y0310089D01*
X0208014Y0310027D01*
X0207997Y0309966D01*
X0207976Y0309907D01*
X0207951Y0309848D01*
X0207923Y0309792D01*
X0207891Y0309737D01*
X0207856Y0309684D01*
X0207818Y0309634D01*
X0207777Y0309585D01*
X0207733Y0309540D01*
X0207686Y0309497D01*
X0207637Y0309458D01*
X0207585Y0309421D01*
X0207531Y0309388D01*
X0207475Y0309358D01*
X0207418Y0309331D01*
X0207359Y0309308D01*
X0207298Y0309289D01*
X0207237Y0309274D01*
X0207175Y0309262D01*
X0207112Y0309254D01*
X0207049Y0309250D01*
X0206985Y0309250D01*
X0206922Y0309254D01*
X0206859Y0309262D01*
X0206797Y0309274D01*
X0206736Y0309289D01*
X0206675Y0309308D01*
X0206616Y0309331D01*
X0206559Y0309358D01*
X0206503Y0309388D01*
X0206449Y0309421D01*
X0206397Y0309458D01*
X0206348Y0309497D01*
X0206301Y0309540D01*
X0206257Y0309585D01*
X0206216Y0309634D01*
X0206178Y0309684D01*
X0206143Y0309737D01*
X0206111Y0309792D01*
X0206083Y0309848D01*
X0206058Y0309907D01*
X0206037Y0309966D01*
X0206020Y0310027D01*
X0206007Y0310089D01*
X0205997Y0310152D01*
X0205991Y0310215D01*
X0205989Y0310278D01*
X0205989Y0310483D01*
X0205991Y0310539D01*
X0205997Y0310595D01*
X0206006Y0310650D01*
X0206019Y0310705D01*
X0206036Y0310758D01*
X0206057Y0310810D01*
X0206081Y0310861D01*
X0206109Y0310910D01*
X0206139Y0310957D01*
X0206173Y0311002D01*
X0206210Y0311044D01*
X0206250Y0311084D01*
X0206292Y0311121D01*
X0206337Y0311155D01*
X0206384Y0311185D01*
X0206433Y0311213D01*
X0206484Y0311237D01*
X0206536Y0311258D01*
X0206589Y0311275D01*
X0206644Y0311288D01*
X0206699Y0311297D01*
X0206755Y0311303D01*
X0206811Y0311305D01*
X0206811Y0311306D02*
X0208044Y0311306D01*
X0208042Y0311384D01*
X0208037Y0311462D01*
X0208027Y0311540D01*
X0208014Y0311617D01*
X0207998Y0311694D01*
X0207977Y0311769D01*
X0207954Y0311844D01*
X0207926Y0311917D01*
X0207895Y0311989D01*
X0207861Y0312059D01*
X0207824Y0312128D01*
X0207783Y0312195D01*
X0207739Y0312260D01*
X0207692Y0312322D01*
X0207642Y0312383D01*
X0207590Y0312440D01*
X0207534Y0312496D01*
X0207477Y0312548D01*
X0207416Y0312598D01*
X0207354Y0312645D01*
X0207289Y0312689D01*
X0207222Y0312730D01*
X0207153Y0312767D01*
X0207083Y0312801D01*
X0207011Y0312832D01*
X0206938Y0312860D01*
X0206863Y0312883D01*
X0206788Y0312904D01*
X0206711Y0312920D01*
X0206634Y0312933D01*
X0206556Y0312943D01*
X0206478Y0312948D01*
X0206400Y0312950D01*
X0158370Y0312950D02*
X0158370Y0309250D01*
X0157136Y0310894D02*
X0155903Y0312950D01*
X0155903Y0309250D01*
X0157136Y0310894D02*
X0158370Y0312950D01*
X0154001Y0311922D02*
X0154001Y0310278D01*
X0153999Y0310215D01*
X0153993Y0310152D01*
X0153983Y0310089D01*
X0153970Y0310027D01*
X0153953Y0309966D01*
X0153932Y0309907D01*
X0153907Y0309848D01*
X0153879Y0309792D01*
X0153847Y0309737D01*
X0153812Y0309684D01*
X0153774Y0309634D01*
X0153733Y0309585D01*
X0153689Y0309540D01*
X0153642Y0309497D01*
X0153593Y0309458D01*
X0153541Y0309421D01*
X0153487Y0309388D01*
X0153431Y0309358D01*
X0153374Y0309331D01*
X0153315Y0309308D01*
X0153254Y0309289D01*
X0153193Y0309274D01*
X0153131Y0309262D01*
X0153068Y0309254D01*
X0153005Y0309250D01*
X0152941Y0309250D01*
X0152878Y0309254D01*
X0152815Y0309262D01*
X0152753Y0309274D01*
X0152692Y0309289D01*
X0152631Y0309308D01*
X0152572Y0309331D01*
X0152515Y0309358D01*
X0152459Y0309388D01*
X0152405Y0309421D01*
X0152353Y0309458D01*
X0152304Y0309497D01*
X0152257Y0309540D01*
X0152213Y0309585D01*
X0152172Y0309634D01*
X0152134Y0309684D01*
X0152099Y0309737D01*
X0152067Y0309792D01*
X0152039Y0309848D01*
X0152014Y0309907D01*
X0151993Y0309966D01*
X0151976Y0310027D01*
X0151963Y0310089D01*
X0151953Y0310152D01*
X0151947Y0310215D01*
X0151945Y0310278D01*
X0151945Y0311922D01*
X0151947Y0311985D01*
X0151953Y0312048D01*
X0151963Y0312111D01*
X0151976Y0312173D01*
X0151993Y0312234D01*
X0152014Y0312293D01*
X0152039Y0312352D01*
X0152067Y0312408D01*
X0152099Y0312463D01*
X0152134Y0312516D01*
X0152172Y0312566D01*
X0152213Y0312615D01*
X0152257Y0312660D01*
X0152304Y0312703D01*
X0152353Y0312742D01*
X0152405Y0312779D01*
X0152459Y0312812D01*
X0152515Y0312842D01*
X0152572Y0312869D01*
X0152631Y0312892D01*
X0152692Y0312911D01*
X0152753Y0312926D01*
X0152815Y0312938D01*
X0152878Y0312946D01*
X0152941Y0312950D01*
X0153005Y0312950D01*
X0153068Y0312946D01*
X0153131Y0312938D01*
X0153193Y0312926D01*
X0153254Y0312911D01*
X0153315Y0312892D01*
X0153374Y0312869D01*
X0153431Y0312842D01*
X0153487Y0312812D01*
X0153541Y0312779D01*
X0153593Y0312742D01*
X0153642Y0312703D01*
X0153689Y0312660D01*
X0153733Y0312615D01*
X0153774Y0312566D01*
X0153812Y0312516D01*
X0153847Y0312463D01*
X0153879Y0312408D01*
X0153907Y0312352D01*
X0153932Y0312293D01*
X0153953Y0312234D01*
X0153970Y0312173D01*
X0153983Y0312111D01*
X0153993Y0312048D01*
X0153999Y0311985D01*
X0154001Y0311922D01*
X0152356Y0310072D02*
X0151534Y0309250D01*
X0148170Y0311408D02*
X0147040Y0310792D01*
X0147451Y0309250D02*
X0147532Y0309252D01*
X0147612Y0309257D01*
X0147692Y0309267D01*
X0147772Y0309280D01*
X0147851Y0309297D01*
X0147929Y0309317D01*
X0148006Y0309341D01*
X0148082Y0309369D01*
X0148156Y0309400D01*
X0148229Y0309434D01*
X0148300Y0309472D01*
X0148370Y0309513D01*
X0148437Y0309557D01*
X0148503Y0309604D01*
X0148566Y0309655D01*
X0148626Y0309708D01*
X0148684Y0309764D01*
X0147040Y0310791D02*
X0146994Y0310762D01*
X0146951Y0310730D01*
X0146909Y0310696D01*
X0146870Y0310658D01*
X0146833Y0310619D01*
X0146799Y0310577D01*
X0146767Y0310532D01*
X0146739Y0310486D01*
X0146714Y0310438D01*
X0146691Y0310389D01*
X0146673Y0310338D01*
X0146657Y0310286D01*
X0146645Y0310234D01*
X0146636Y0310180D01*
X0146631Y0310126D01*
X0146629Y0310072D01*
X0146631Y0310016D01*
X0146637Y0309960D01*
X0146646Y0309905D01*
X0146659Y0309850D01*
X0146676Y0309797D01*
X0146697Y0309745D01*
X0146721Y0309694D01*
X0146749Y0309645D01*
X0146779Y0309598D01*
X0146813Y0309553D01*
X0146850Y0309511D01*
X0146890Y0309471D01*
X0146932Y0309434D01*
X0146977Y0309400D01*
X0147024Y0309370D01*
X0147073Y0309342D01*
X0147124Y0309318D01*
X0147176Y0309297D01*
X0147229Y0309280D01*
X0147284Y0309267D01*
X0147339Y0309258D01*
X0147395Y0309252D01*
X0147451Y0309250D01*
X0146834Y0312642D02*
X0146896Y0312686D01*
X0146960Y0312727D01*
X0147026Y0312765D01*
X0147095Y0312799D01*
X0147164Y0312831D01*
X0147235Y0312858D01*
X0147308Y0312882D01*
X0147381Y0312903D01*
X0147456Y0312920D01*
X0147531Y0312933D01*
X0147607Y0312942D01*
X0147683Y0312948D01*
X0147759Y0312950D01*
X0147815Y0312948D01*
X0147871Y0312942D01*
X0147926Y0312933D01*
X0147981Y0312920D01*
X0148034Y0312903D01*
X0148086Y0312882D01*
X0148137Y0312858D01*
X0148186Y0312830D01*
X0148233Y0312800D01*
X0148278Y0312766D01*
X0148320Y0312729D01*
X0148360Y0312689D01*
X0148397Y0312647D01*
X0148431Y0312602D01*
X0148461Y0312555D01*
X0148489Y0312506D01*
X0148513Y0312455D01*
X0148534Y0312403D01*
X0148551Y0312350D01*
X0148564Y0312295D01*
X0148573Y0312240D01*
X0148579Y0312184D01*
X0148581Y0312128D01*
X0148579Y0312074D01*
X0148574Y0312020D01*
X0148565Y0311966D01*
X0148553Y0311914D01*
X0148537Y0311862D01*
X0148519Y0311811D01*
X0148496Y0311762D01*
X0148471Y0311714D01*
X0148443Y0311668D01*
X0148411Y0311623D01*
X0148377Y0311581D01*
X0148340Y0311542D01*
X0148301Y0311504D01*
X0148259Y0311470D01*
X0148216Y0311438D01*
X0148170Y0311409D01*
X0145239Y0310894D02*
X0145239Y0309867D01*
X0145239Y0310483D02*
X0143594Y0310483D01*
X0143594Y0310894D01*
X0143596Y0310950D01*
X0143602Y0311006D01*
X0143611Y0311061D01*
X0143624Y0311116D01*
X0143641Y0311169D01*
X0143662Y0311221D01*
X0143686Y0311272D01*
X0143714Y0311321D01*
X0143744Y0311368D01*
X0143778Y0311413D01*
X0143815Y0311455D01*
X0143855Y0311495D01*
X0143897Y0311532D01*
X0143942Y0311566D01*
X0143989Y0311596D01*
X0144038Y0311624D01*
X0144089Y0311648D01*
X0144141Y0311669D01*
X0144194Y0311686D01*
X0144249Y0311699D01*
X0144304Y0311708D01*
X0144360Y0311714D01*
X0144416Y0311716D01*
X0144472Y0311714D01*
X0144528Y0311708D01*
X0144583Y0311699D01*
X0144638Y0311686D01*
X0144691Y0311669D01*
X0144743Y0311648D01*
X0144794Y0311624D01*
X0144843Y0311596D01*
X0144890Y0311566D01*
X0144935Y0311532D01*
X0144977Y0311495D01*
X0145017Y0311455D01*
X0145054Y0311413D01*
X0145088Y0311368D01*
X0145118Y0311321D01*
X0145146Y0311272D01*
X0145170Y0311221D01*
X0145191Y0311169D01*
X0145208Y0311116D01*
X0145221Y0311061D01*
X0145230Y0311006D01*
X0145236Y0310950D01*
X0145238Y0310894D01*
X0145239Y0309867D02*
X0145237Y0309819D01*
X0145231Y0309770D01*
X0145222Y0309723D01*
X0145209Y0309676D01*
X0145192Y0309631D01*
X0145172Y0309587D01*
X0145148Y0309545D01*
X0145121Y0309504D01*
X0145091Y0309466D01*
X0145058Y0309431D01*
X0145023Y0309398D01*
X0144985Y0309368D01*
X0144944Y0309341D01*
X0144902Y0309317D01*
X0144858Y0309297D01*
X0144813Y0309280D01*
X0144766Y0309267D01*
X0144719Y0309258D01*
X0144670Y0309252D01*
X0144622Y0309250D01*
X0143594Y0309250D01*
X0141999Y0309250D02*
X0141999Y0311717D01*
X0140971Y0311717D01*
X0140923Y0311715D01*
X0140874Y0311709D01*
X0140827Y0311700D01*
X0140780Y0311687D01*
X0140735Y0311670D01*
X0140691Y0311650D01*
X0140649Y0311626D01*
X0140608Y0311599D01*
X0140570Y0311569D01*
X0140535Y0311536D01*
X0140502Y0311501D01*
X0140472Y0311463D01*
X0140445Y0311422D01*
X0140421Y0311380D01*
X0140401Y0311336D01*
X0140384Y0311291D01*
X0140371Y0311244D01*
X0140362Y0311197D01*
X0140356Y0311148D01*
X0140354Y0311100D01*
X0140354Y0309250D01*
X0138245Y0311717D02*
X0138149Y0311713D01*
X0138054Y0311706D01*
X0137959Y0311695D01*
X0137865Y0311680D01*
X0137772Y0311661D01*
X0137679Y0311639D01*
X0137587Y0311612D01*
X0137497Y0311582D01*
X0137408Y0311549D01*
X0137320Y0311511D01*
X0138244Y0311717D02*
X0138289Y0311716D01*
X0138334Y0311711D01*
X0138378Y0311702D01*
X0138421Y0311690D01*
X0138463Y0311674D01*
X0138503Y0311654D01*
X0138542Y0311631D01*
X0138578Y0311606D01*
X0138612Y0311577D01*
X0138644Y0311545D01*
X0138673Y0311511D01*
X0138699Y0311474D01*
X0138722Y0311436D01*
X0138741Y0311395D01*
X0138757Y0311353D01*
X0138770Y0311310D01*
X0138779Y0311266D01*
X0138784Y0311222D01*
X0138785Y0311177D01*
X0138782Y0311132D01*
X0138776Y0311088D01*
X0138766Y0311044D01*
X0138753Y0311002D01*
X0138736Y0310960D01*
X0138715Y0310920D01*
X0138691Y0310882D01*
X0138665Y0310847D01*
X0138635Y0310813D01*
X0138602Y0310782D01*
X0138567Y0310754D01*
X0138530Y0310729D01*
X0138491Y0310708D01*
X0138450Y0310689D01*
X0137423Y0310278D01*
X0137382Y0310259D01*
X0137343Y0310238D01*
X0137306Y0310213D01*
X0137271Y0310185D01*
X0137238Y0310154D01*
X0137208Y0310120D01*
X0137182Y0310085D01*
X0137158Y0310047D01*
X0137137Y0310007D01*
X0137120Y0309965D01*
X0137107Y0309923D01*
X0137097Y0309879D01*
X0137091Y0309835D01*
X0137088Y0309790D01*
X0137089Y0309745D01*
X0137094Y0309701D01*
X0137103Y0309657D01*
X0137116Y0309614D01*
X0137132Y0309572D01*
X0137151Y0309531D01*
X0137174Y0309493D01*
X0137200Y0309456D01*
X0137229Y0309422D01*
X0137261Y0309390D01*
X0137295Y0309361D01*
X0137331Y0309336D01*
X0137370Y0309313D01*
X0137410Y0309293D01*
X0137452Y0309277D01*
X0137495Y0309265D01*
X0137539Y0309256D01*
X0137584Y0309251D01*
X0137629Y0309250D01*
X0135639Y0310072D02*
X0135639Y0310894D01*
X0135638Y0310894D02*
X0135636Y0310950D01*
X0135630Y0311006D01*
X0135621Y0311061D01*
X0135608Y0311116D01*
X0135591Y0311169D01*
X0135570Y0311221D01*
X0135546Y0311272D01*
X0135518Y0311321D01*
X0135488Y0311368D01*
X0135454Y0311413D01*
X0135417Y0311455D01*
X0135377Y0311495D01*
X0135335Y0311532D01*
X0135290Y0311566D01*
X0135243Y0311596D01*
X0135194Y0311624D01*
X0135143Y0311648D01*
X0135091Y0311669D01*
X0135038Y0311686D01*
X0134983Y0311699D01*
X0134928Y0311708D01*
X0134872Y0311714D01*
X0134816Y0311716D01*
X0134760Y0311714D01*
X0134704Y0311708D01*
X0134649Y0311699D01*
X0134594Y0311686D01*
X0134541Y0311669D01*
X0134489Y0311648D01*
X0134438Y0311624D01*
X0134389Y0311596D01*
X0134342Y0311566D01*
X0134297Y0311532D01*
X0134255Y0311495D01*
X0134215Y0311455D01*
X0134178Y0311413D01*
X0134144Y0311368D01*
X0134114Y0311321D01*
X0134086Y0311272D01*
X0134062Y0311221D01*
X0134041Y0311169D01*
X0134024Y0311116D01*
X0134011Y0311061D01*
X0134002Y0311006D01*
X0133996Y0310950D01*
X0133994Y0310894D01*
X0133994Y0310072D01*
X0133996Y0310016D01*
X0134002Y0309960D01*
X0134011Y0309905D01*
X0134024Y0309850D01*
X0134041Y0309797D01*
X0134062Y0309745D01*
X0134086Y0309694D01*
X0134114Y0309645D01*
X0134144Y0309598D01*
X0134178Y0309553D01*
X0134215Y0309511D01*
X0134255Y0309471D01*
X0134297Y0309434D01*
X0134342Y0309400D01*
X0134389Y0309370D01*
X0134438Y0309342D01*
X0134489Y0309318D01*
X0134541Y0309297D01*
X0134594Y0309280D01*
X0134649Y0309267D01*
X0134704Y0309258D01*
X0134760Y0309252D01*
X0134816Y0309250D01*
X0134872Y0309252D01*
X0134928Y0309258D01*
X0134983Y0309267D01*
X0135038Y0309280D01*
X0135091Y0309297D01*
X0135143Y0309318D01*
X0135194Y0309342D01*
X0135243Y0309370D01*
X0135290Y0309400D01*
X0135335Y0309434D01*
X0135377Y0309471D01*
X0135417Y0309511D01*
X0135454Y0309553D01*
X0135488Y0309598D01*
X0135518Y0309645D01*
X0135546Y0309694D01*
X0135570Y0309745D01*
X0135591Y0309797D01*
X0135608Y0309850D01*
X0135621Y0309905D01*
X0135630Y0309960D01*
X0135636Y0310016D01*
X0135638Y0310072D01*
X0137628Y0309249D02*
X0137743Y0309253D01*
X0137858Y0309260D01*
X0137973Y0309271D01*
X0138088Y0309286D01*
X0138202Y0309305D01*
X0138315Y0309328D01*
X0138427Y0309354D01*
X0138539Y0309384D01*
X0138649Y0309418D01*
X0138758Y0309455D01*
X0132378Y0309250D02*
X0132378Y0311717D01*
X0131145Y0311717D01*
X0131145Y0311306D01*
X0128044Y0312539D02*
X0128044Y0312950D01*
X0125989Y0312950D01*
X0127017Y0309250D01*
X0078370Y0309250D02*
X0078370Y0312950D01*
X0077136Y0310894D01*
X0075903Y0312950D01*
X0075903Y0309250D01*
X0074001Y0310278D02*
X0074001Y0311922D01*
X0073999Y0311985D01*
X0073993Y0312048D01*
X0073983Y0312111D01*
X0073970Y0312173D01*
X0073953Y0312234D01*
X0073932Y0312293D01*
X0073907Y0312352D01*
X0073879Y0312408D01*
X0073847Y0312463D01*
X0073812Y0312516D01*
X0073774Y0312566D01*
X0073733Y0312615D01*
X0073689Y0312660D01*
X0073642Y0312703D01*
X0073593Y0312742D01*
X0073541Y0312779D01*
X0073487Y0312812D01*
X0073431Y0312842D01*
X0073374Y0312869D01*
X0073315Y0312892D01*
X0073254Y0312911D01*
X0073193Y0312926D01*
X0073131Y0312938D01*
X0073068Y0312946D01*
X0073005Y0312950D01*
X0072941Y0312950D01*
X0072878Y0312946D01*
X0072815Y0312938D01*
X0072753Y0312926D01*
X0072692Y0312911D01*
X0072631Y0312892D01*
X0072572Y0312869D01*
X0072515Y0312842D01*
X0072459Y0312812D01*
X0072405Y0312779D01*
X0072353Y0312742D01*
X0072304Y0312703D01*
X0072257Y0312660D01*
X0072213Y0312615D01*
X0072172Y0312566D01*
X0072134Y0312516D01*
X0072099Y0312463D01*
X0072067Y0312408D01*
X0072039Y0312352D01*
X0072014Y0312293D01*
X0071993Y0312234D01*
X0071976Y0312173D01*
X0071963Y0312111D01*
X0071953Y0312048D01*
X0071947Y0311985D01*
X0071945Y0311922D01*
X0071945Y0310278D01*
X0072356Y0310072D02*
X0071534Y0309250D01*
X0071945Y0310278D02*
X0071947Y0310215D01*
X0071953Y0310152D01*
X0071963Y0310089D01*
X0071976Y0310027D01*
X0071993Y0309966D01*
X0072014Y0309907D01*
X0072039Y0309848D01*
X0072067Y0309792D01*
X0072099Y0309737D01*
X0072134Y0309684D01*
X0072172Y0309634D01*
X0072213Y0309585D01*
X0072257Y0309540D01*
X0072304Y0309497D01*
X0072353Y0309458D01*
X0072405Y0309421D01*
X0072459Y0309388D01*
X0072515Y0309358D01*
X0072572Y0309331D01*
X0072631Y0309308D01*
X0072692Y0309289D01*
X0072753Y0309274D01*
X0072815Y0309262D01*
X0072878Y0309254D01*
X0072941Y0309250D01*
X0073005Y0309250D01*
X0073068Y0309254D01*
X0073131Y0309262D01*
X0073193Y0309274D01*
X0073254Y0309289D01*
X0073315Y0309308D01*
X0073374Y0309331D01*
X0073431Y0309358D01*
X0073487Y0309388D01*
X0073541Y0309421D01*
X0073593Y0309458D01*
X0073642Y0309497D01*
X0073689Y0309540D01*
X0073733Y0309585D01*
X0073774Y0309634D01*
X0073812Y0309684D01*
X0073847Y0309737D01*
X0073879Y0309792D01*
X0073907Y0309848D01*
X0073932Y0309907D01*
X0073953Y0309966D01*
X0073970Y0310027D01*
X0073983Y0310089D01*
X0073993Y0310152D01*
X0073999Y0310215D01*
X0074001Y0310278D01*
X0068170Y0311408D02*
X0067040Y0310792D01*
X0067451Y0309250D02*
X0067532Y0309252D01*
X0067612Y0309257D01*
X0067692Y0309267D01*
X0067772Y0309280D01*
X0067851Y0309297D01*
X0067929Y0309317D01*
X0068006Y0309341D01*
X0068082Y0309369D01*
X0068156Y0309400D01*
X0068229Y0309434D01*
X0068300Y0309472D01*
X0068370Y0309513D01*
X0068437Y0309557D01*
X0068503Y0309604D01*
X0068566Y0309655D01*
X0068626Y0309708D01*
X0068684Y0309764D01*
X0067040Y0310791D02*
X0066994Y0310762D01*
X0066951Y0310730D01*
X0066909Y0310696D01*
X0066870Y0310658D01*
X0066833Y0310619D01*
X0066799Y0310577D01*
X0066767Y0310532D01*
X0066739Y0310486D01*
X0066714Y0310438D01*
X0066691Y0310389D01*
X0066673Y0310338D01*
X0066657Y0310286D01*
X0066645Y0310234D01*
X0066636Y0310180D01*
X0066631Y0310126D01*
X0066629Y0310072D01*
X0066631Y0310016D01*
X0066637Y0309960D01*
X0066646Y0309905D01*
X0066659Y0309850D01*
X0066676Y0309797D01*
X0066697Y0309745D01*
X0066721Y0309694D01*
X0066749Y0309645D01*
X0066779Y0309598D01*
X0066813Y0309553D01*
X0066850Y0309511D01*
X0066890Y0309471D01*
X0066932Y0309434D01*
X0066977Y0309400D01*
X0067024Y0309370D01*
X0067073Y0309342D01*
X0067124Y0309318D01*
X0067176Y0309297D01*
X0067229Y0309280D01*
X0067284Y0309267D01*
X0067339Y0309258D01*
X0067395Y0309252D01*
X0067451Y0309250D01*
X0066834Y0312642D02*
X0066896Y0312686D01*
X0066960Y0312727D01*
X0067026Y0312765D01*
X0067095Y0312799D01*
X0067164Y0312831D01*
X0067235Y0312858D01*
X0067308Y0312882D01*
X0067381Y0312903D01*
X0067456Y0312920D01*
X0067531Y0312933D01*
X0067607Y0312942D01*
X0067683Y0312948D01*
X0067759Y0312950D01*
X0067815Y0312948D01*
X0067871Y0312942D01*
X0067926Y0312933D01*
X0067981Y0312920D01*
X0068034Y0312903D01*
X0068086Y0312882D01*
X0068137Y0312858D01*
X0068186Y0312830D01*
X0068233Y0312800D01*
X0068278Y0312766D01*
X0068320Y0312729D01*
X0068360Y0312689D01*
X0068397Y0312647D01*
X0068431Y0312602D01*
X0068461Y0312555D01*
X0068489Y0312506D01*
X0068513Y0312455D01*
X0068534Y0312403D01*
X0068551Y0312350D01*
X0068564Y0312295D01*
X0068573Y0312240D01*
X0068579Y0312184D01*
X0068581Y0312128D01*
X0068579Y0312074D01*
X0068574Y0312020D01*
X0068565Y0311966D01*
X0068553Y0311914D01*
X0068537Y0311862D01*
X0068519Y0311811D01*
X0068496Y0311762D01*
X0068471Y0311714D01*
X0068443Y0311668D01*
X0068411Y0311623D01*
X0068377Y0311581D01*
X0068340Y0311542D01*
X0068301Y0311504D01*
X0068259Y0311470D01*
X0068216Y0311438D01*
X0068170Y0311409D01*
X0065239Y0310894D02*
X0065239Y0309867D01*
X0065239Y0310483D02*
X0063594Y0310483D01*
X0063594Y0310894D01*
X0063596Y0310950D01*
X0063602Y0311006D01*
X0063611Y0311061D01*
X0063624Y0311116D01*
X0063641Y0311169D01*
X0063662Y0311221D01*
X0063686Y0311272D01*
X0063714Y0311321D01*
X0063744Y0311368D01*
X0063778Y0311413D01*
X0063815Y0311455D01*
X0063855Y0311495D01*
X0063897Y0311532D01*
X0063942Y0311566D01*
X0063989Y0311596D01*
X0064038Y0311624D01*
X0064089Y0311648D01*
X0064141Y0311669D01*
X0064194Y0311686D01*
X0064249Y0311699D01*
X0064304Y0311708D01*
X0064360Y0311714D01*
X0064416Y0311716D01*
X0064472Y0311714D01*
X0064528Y0311708D01*
X0064583Y0311699D01*
X0064638Y0311686D01*
X0064691Y0311669D01*
X0064743Y0311648D01*
X0064794Y0311624D01*
X0064843Y0311596D01*
X0064890Y0311566D01*
X0064935Y0311532D01*
X0064977Y0311495D01*
X0065017Y0311455D01*
X0065054Y0311413D01*
X0065088Y0311368D01*
X0065118Y0311321D01*
X0065146Y0311272D01*
X0065170Y0311221D01*
X0065191Y0311169D01*
X0065208Y0311116D01*
X0065221Y0311061D01*
X0065230Y0311006D01*
X0065236Y0310950D01*
X0065238Y0310894D01*
X0065239Y0309867D02*
X0065237Y0309819D01*
X0065231Y0309770D01*
X0065222Y0309723D01*
X0065209Y0309676D01*
X0065192Y0309631D01*
X0065172Y0309587D01*
X0065148Y0309545D01*
X0065121Y0309504D01*
X0065091Y0309466D01*
X0065058Y0309431D01*
X0065023Y0309398D01*
X0064985Y0309368D01*
X0064944Y0309341D01*
X0064902Y0309317D01*
X0064858Y0309297D01*
X0064813Y0309280D01*
X0064766Y0309267D01*
X0064719Y0309258D01*
X0064670Y0309252D01*
X0064622Y0309250D01*
X0063594Y0309250D01*
X0061999Y0309250D02*
X0061999Y0311717D01*
X0060971Y0311717D01*
X0060923Y0311715D01*
X0060874Y0311709D01*
X0060827Y0311700D01*
X0060780Y0311687D01*
X0060735Y0311670D01*
X0060691Y0311650D01*
X0060649Y0311626D01*
X0060608Y0311599D01*
X0060570Y0311569D01*
X0060535Y0311536D01*
X0060502Y0311501D01*
X0060472Y0311463D01*
X0060445Y0311422D01*
X0060421Y0311380D01*
X0060401Y0311336D01*
X0060384Y0311291D01*
X0060371Y0311244D01*
X0060362Y0311197D01*
X0060356Y0311148D01*
X0060354Y0311100D01*
X0060354Y0309250D01*
X0058245Y0311717D02*
X0058149Y0311713D01*
X0058054Y0311706D01*
X0057959Y0311695D01*
X0057865Y0311680D01*
X0057772Y0311661D01*
X0057679Y0311639D01*
X0057587Y0311612D01*
X0057497Y0311582D01*
X0057408Y0311549D01*
X0057320Y0311511D01*
X0058244Y0311717D02*
X0058289Y0311716D01*
X0058334Y0311711D01*
X0058378Y0311702D01*
X0058421Y0311690D01*
X0058463Y0311674D01*
X0058503Y0311654D01*
X0058542Y0311631D01*
X0058578Y0311606D01*
X0058612Y0311577D01*
X0058644Y0311545D01*
X0058673Y0311511D01*
X0058699Y0311474D01*
X0058722Y0311436D01*
X0058741Y0311395D01*
X0058757Y0311353D01*
X0058770Y0311310D01*
X0058779Y0311266D01*
X0058784Y0311222D01*
X0058785Y0311177D01*
X0058782Y0311132D01*
X0058776Y0311088D01*
X0058766Y0311044D01*
X0058753Y0311002D01*
X0058736Y0310960D01*
X0058715Y0310920D01*
X0058691Y0310882D01*
X0058665Y0310847D01*
X0058635Y0310813D01*
X0058602Y0310782D01*
X0058567Y0310754D01*
X0058530Y0310729D01*
X0058491Y0310708D01*
X0058450Y0310689D01*
X0057423Y0310278D01*
X0057382Y0310259D01*
X0057343Y0310238D01*
X0057306Y0310213D01*
X0057271Y0310185D01*
X0057238Y0310154D01*
X0057208Y0310120D01*
X0057182Y0310085D01*
X0057158Y0310047D01*
X0057137Y0310007D01*
X0057120Y0309965D01*
X0057107Y0309923D01*
X0057097Y0309879D01*
X0057091Y0309835D01*
X0057088Y0309790D01*
X0057089Y0309745D01*
X0057094Y0309701D01*
X0057103Y0309657D01*
X0057116Y0309614D01*
X0057132Y0309572D01*
X0057151Y0309531D01*
X0057174Y0309493D01*
X0057200Y0309456D01*
X0057229Y0309422D01*
X0057261Y0309390D01*
X0057295Y0309361D01*
X0057331Y0309336D01*
X0057370Y0309313D01*
X0057410Y0309293D01*
X0057452Y0309277D01*
X0057495Y0309265D01*
X0057539Y0309256D01*
X0057584Y0309251D01*
X0057629Y0309250D01*
X0055639Y0310072D02*
X0055639Y0310894D01*
X0055638Y0310894D02*
X0055636Y0310950D01*
X0055630Y0311006D01*
X0055621Y0311061D01*
X0055608Y0311116D01*
X0055591Y0311169D01*
X0055570Y0311221D01*
X0055546Y0311272D01*
X0055518Y0311321D01*
X0055488Y0311368D01*
X0055454Y0311413D01*
X0055417Y0311455D01*
X0055377Y0311495D01*
X0055335Y0311532D01*
X0055290Y0311566D01*
X0055243Y0311596D01*
X0055194Y0311624D01*
X0055143Y0311648D01*
X0055091Y0311669D01*
X0055038Y0311686D01*
X0054983Y0311699D01*
X0054928Y0311708D01*
X0054872Y0311714D01*
X0054816Y0311716D01*
X0054760Y0311714D01*
X0054704Y0311708D01*
X0054649Y0311699D01*
X0054594Y0311686D01*
X0054541Y0311669D01*
X0054489Y0311648D01*
X0054438Y0311624D01*
X0054389Y0311596D01*
X0054342Y0311566D01*
X0054297Y0311532D01*
X0054255Y0311495D01*
X0054215Y0311455D01*
X0054178Y0311413D01*
X0054144Y0311368D01*
X0054114Y0311321D01*
X0054086Y0311272D01*
X0054062Y0311221D01*
X0054041Y0311169D01*
X0054024Y0311116D01*
X0054011Y0311061D01*
X0054002Y0311006D01*
X0053996Y0310950D01*
X0053994Y0310894D01*
X0053994Y0310072D01*
X0053996Y0310016D01*
X0054002Y0309960D01*
X0054011Y0309905D01*
X0054024Y0309850D01*
X0054041Y0309797D01*
X0054062Y0309745D01*
X0054086Y0309694D01*
X0054114Y0309645D01*
X0054144Y0309598D01*
X0054178Y0309553D01*
X0054215Y0309511D01*
X0054255Y0309471D01*
X0054297Y0309434D01*
X0054342Y0309400D01*
X0054389Y0309370D01*
X0054438Y0309342D01*
X0054489Y0309318D01*
X0054541Y0309297D01*
X0054594Y0309280D01*
X0054649Y0309267D01*
X0054704Y0309258D01*
X0054760Y0309252D01*
X0054816Y0309250D01*
X0054872Y0309252D01*
X0054928Y0309258D01*
X0054983Y0309267D01*
X0055038Y0309280D01*
X0055091Y0309297D01*
X0055143Y0309318D01*
X0055194Y0309342D01*
X0055243Y0309370D01*
X0055290Y0309400D01*
X0055335Y0309434D01*
X0055377Y0309471D01*
X0055417Y0309511D01*
X0055454Y0309553D01*
X0055488Y0309598D01*
X0055518Y0309645D01*
X0055546Y0309694D01*
X0055570Y0309745D01*
X0055591Y0309797D01*
X0055608Y0309850D01*
X0055621Y0309905D01*
X0055630Y0309960D01*
X0055636Y0310016D01*
X0055638Y0310072D01*
X0057628Y0309249D02*
X0057743Y0309253D01*
X0057858Y0309260D01*
X0057973Y0309271D01*
X0058088Y0309286D01*
X0058202Y0309305D01*
X0058315Y0309328D01*
X0058427Y0309354D01*
X0058539Y0309384D01*
X0058649Y0309418D01*
X0058758Y0309455D01*
X0052378Y0309250D02*
X0052378Y0311717D01*
X0051145Y0311717D01*
X0051145Y0311306D01*
X0047839Y0312128D02*
X0047837Y0312072D01*
X0047831Y0312016D01*
X0047822Y0311961D01*
X0047809Y0311906D01*
X0047792Y0311853D01*
X0047771Y0311801D01*
X0047747Y0311750D01*
X0047719Y0311701D01*
X0047689Y0311654D01*
X0047655Y0311609D01*
X0047618Y0311567D01*
X0047578Y0311527D01*
X0047536Y0311490D01*
X0047491Y0311456D01*
X0047444Y0311426D01*
X0047395Y0311398D01*
X0047344Y0311374D01*
X0047292Y0311353D01*
X0047239Y0311336D01*
X0047184Y0311323D01*
X0047129Y0311314D01*
X0047073Y0311308D01*
X0047017Y0311306D01*
X0046961Y0311308D01*
X0046905Y0311314D01*
X0046850Y0311323D01*
X0046795Y0311336D01*
X0046742Y0311353D01*
X0046690Y0311374D01*
X0046639Y0311398D01*
X0046590Y0311426D01*
X0046543Y0311456D01*
X0046498Y0311490D01*
X0046456Y0311527D01*
X0046416Y0311567D01*
X0046379Y0311609D01*
X0046345Y0311654D01*
X0046315Y0311701D01*
X0046287Y0311750D01*
X0046263Y0311801D01*
X0046242Y0311853D01*
X0046225Y0311906D01*
X0046212Y0311961D01*
X0046203Y0312016D01*
X0046197Y0312072D01*
X0046195Y0312128D01*
X0046197Y0312184D01*
X0046203Y0312240D01*
X0046212Y0312295D01*
X0046225Y0312350D01*
X0046242Y0312403D01*
X0046263Y0312455D01*
X0046287Y0312506D01*
X0046315Y0312555D01*
X0046345Y0312602D01*
X0046379Y0312647D01*
X0046416Y0312689D01*
X0046456Y0312729D01*
X0046498Y0312766D01*
X0046543Y0312800D01*
X0046590Y0312830D01*
X0046639Y0312858D01*
X0046690Y0312882D01*
X0046742Y0312903D01*
X0046795Y0312920D01*
X0046850Y0312933D01*
X0046905Y0312942D01*
X0046961Y0312948D01*
X0047017Y0312950D01*
X0047073Y0312948D01*
X0047129Y0312942D01*
X0047184Y0312933D01*
X0047239Y0312920D01*
X0047292Y0312903D01*
X0047344Y0312882D01*
X0047395Y0312858D01*
X0047444Y0312830D01*
X0047491Y0312800D01*
X0047536Y0312766D01*
X0047578Y0312729D01*
X0047618Y0312689D01*
X0047655Y0312647D01*
X0047689Y0312602D01*
X0047719Y0312555D01*
X0047747Y0312506D01*
X0047771Y0312455D01*
X0047792Y0312403D01*
X0047809Y0312350D01*
X0047822Y0312295D01*
X0047831Y0312240D01*
X0047837Y0312184D01*
X0047839Y0312128D01*
X0048045Y0310278D02*
X0048043Y0310215D01*
X0048037Y0310152D01*
X0048027Y0310089D01*
X0048014Y0310027D01*
X0047997Y0309966D01*
X0047976Y0309907D01*
X0047951Y0309848D01*
X0047923Y0309792D01*
X0047891Y0309737D01*
X0047856Y0309684D01*
X0047818Y0309634D01*
X0047777Y0309585D01*
X0047733Y0309540D01*
X0047686Y0309497D01*
X0047637Y0309458D01*
X0047585Y0309421D01*
X0047531Y0309388D01*
X0047475Y0309358D01*
X0047418Y0309331D01*
X0047359Y0309308D01*
X0047298Y0309289D01*
X0047237Y0309274D01*
X0047175Y0309262D01*
X0047112Y0309254D01*
X0047049Y0309250D01*
X0046985Y0309250D01*
X0046922Y0309254D01*
X0046859Y0309262D01*
X0046797Y0309274D01*
X0046736Y0309289D01*
X0046675Y0309308D01*
X0046616Y0309331D01*
X0046559Y0309358D01*
X0046503Y0309388D01*
X0046449Y0309421D01*
X0046397Y0309458D01*
X0046348Y0309497D01*
X0046301Y0309540D01*
X0046257Y0309585D01*
X0046216Y0309634D01*
X0046178Y0309684D01*
X0046143Y0309737D01*
X0046111Y0309792D01*
X0046083Y0309848D01*
X0046058Y0309907D01*
X0046037Y0309966D01*
X0046020Y0310027D01*
X0046007Y0310089D01*
X0045997Y0310152D01*
X0045991Y0310215D01*
X0045989Y0310278D01*
X0045991Y0310341D01*
X0045997Y0310404D01*
X0046007Y0310467D01*
X0046020Y0310529D01*
X0046037Y0310590D01*
X0046058Y0310649D01*
X0046083Y0310708D01*
X0046111Y0310764D01*
X0046143Y0310819D01*
X0046178Y0310872D01*
X0046216Y0310922D01*
X0046257Y0310971D01*
X0046301Y0311016D01*
X0046348Y0311059D01*
X0046397Y0311098D01*
X0046449Y0311135D01*
X0046503Y0311168D01*
X0046559Y0311198D01*
X0046616Y0311225D01*
X0046675Y0311248D01*
X0046736Y0311267D01*
X0046797Y0311282D01*
X0046859Y0311294D01*
X0046922Y0311302D01*
X0046985Y0311306D01*
X0047049Y0311306D01*
X0047112Y0311302D01*
X0047175Y0311294D01*
X0047237Y0311282D01*
X0047298Y0311267D01*
X0047359Y0311248D01*
X0047418Y0311225D01*
X0047475Y0311198D01*
X0047531Y0311168D01*
X0047585Y0311135D01*
X0047637Y0311098D01*
X0047686Y0311059D01*
X0047733Y0311016D01*
X0047777Y0310971D01*
X0047818Y0310922D01*
X0047856Y0310872D01*
X0047891Y0310819D01*
X0047923Y0310764D01*
X0047951Y0310708D01*
X0047976Y0310649D01*
X0047997Y0310590D01*
X0048014Y0310529D01*
X0048027Y0310467D01*
X0048037Y0310404D01*
X0048043Y0310341D01*
X0048045Y0310278D01*
X0039697Y0013950D02*
X0039697Y0010250D01*
X0038670Y0010250D02*
X0040725Y0010250D01*
X0040725Y0013128D02*
X0039697Y0013950D01*
X0043826Y0012717D02*
X0043826Y0012306D01*
X0043826Y0012717D02*
X0045059Y0012717D01*
X0045059Y0010250D01*
X0046675Y0011072D02*
X0046675Y0011894D01*
X0046677Y0011950D01*
X0046683Y0012006D01*
X0046692Y0012061D01*
X0046705Y0012116D01*
X0046722Y0012169D01*
X0046743Y0012221D01*
X0046767Y0012272D01*
X0046795Y0012321D01*
X0046825Y0012368D01*
X0046859Y0012413D01*
X0046896Y0012455D01*
X0046936Y0012495D01*
X0046978Y0012532D01*
X0047023Y0012566D01*
X0047070Y0012596D01*
X0047119Y0012624D01*
X0047170Y0012648D01*
X0047222Y0012669D01*
X0047275Y0012686D01*
X0047330Y0012699D01*
X0047385Y0012708D01*
X0047441Y0012714D01*
X0047497Y0012716D01*
X0047553Y0012714D01*
X0047609Y0012708D01*
X0047664Y0012699D01*
X0047719Y0012686D01*
X0047772Y0012669D01*
X0047824Y0012648D01*
X0047875Y0012624D01*
X0047924Y0012596D01*
X0047971Y0012566D01*
X0048016Y0012532D01*
X0048058Y0012495D01*
X0048098Y0012455D01*
X0048135Y0012413D01*
X0048169Y0012368D01*
X0048199Y0012321D01*
X0048227Y0012272D01*
X0048251Y0012221D01*
X0048272Y0012169D01*
X0048289Y0012116D01*
X0048302Y0012061D01*
X0048311Y0012006D01*
X0048317Y0011950D01*
X0048319Y0011894D01*
X0048320Y0011894D02*
X0048320Y0011072D01*
X0048319Y0011072D02*
X0048317Y0011016D01*
X0048311Y0010960D01*
X0048302Y0010905D01*
X0048289Y0010850D01*
X0048272Y0010797D01*
X0048251Y0010745D01*
X0048227Y0010694D01*
X0048199Y0010645D01*
X0048169Y0010598D01*
X0048135Y0010553D01*
X0048098Y0010511D01*
X0048058Y0010471D01*
X0048016Y0010434D01*
X0047971Y0010400D01*
X0047924Y0010370D01*
X0047875Y0010342D01*
X0047824Y0010318D01*
X0047772Y0010297D01*
X0047719Y0010280D01*
X0047664Y0010267D01*
X0047609Y0010258D01*
X0047553Y0010252D01*
X0047497Y0010250D01*
X0047441Y0010252D01*
X0047385Y0010258D01*
X0047330Y0010267D01*
X0047275Y0010280D01*
X0047222Y0010297D01*
X0047170Y0010318D01*
X0047119Y0010342D01*
X0047070Y0010370D01*
X0047023Y0010400D01*
X0046978Y0010434D01*
X0046936Y0010471D01*
X0046896Y0010511D01*
X0046859Y0010553D01*
X0046825Y0010598D01*
X0046795Y0010645D01*
X0046767Y0010694D01*
X0046743Y0010745D01*
X0046722Y0010797D01*
X0046705Y0010850D01*
X0046692Y0010905D01*
X0046683Y0010960D01*
X0046677Y0011016D01*
X0046675Y0011072D01*
X0050104Y0011278D02*
X0051131Y0011689D01*
X0051172Y0011708D01*
X0051211Y0011729D01*
X0051248Y0011754D01*
X0051283Y0011782D01*
X0051316Y0011813D01*
X0051346Y0011847D01*
X0051372Y0011882D01*
X0051396Y0011920D01*
X0051417Y0011960D01*
X0051434Y0012002D01*
X0051447Y0012044D01*
X0051457Y0012088D01*
X0051463Y0012132D01*
X0051466Y0012177D01*
X0051465Y0012222D01*
X0051460Y0012266D01*
X0051451Y0012310D01*
X0051438Y0012353D01*
X0051422Y0012395D01*
X0051403Y0012436D01*
X0051380Y0012474D01*
X0051354Y0012511D01*
X0051325Y0012545D01*
X0051293Y0012577D01*
X0051259Y0012606D01*
X0051223Y0012631D01*
X0051184Y0012654D01*
X0051144Y0012674D01*
X0051102Y0012690D01*
X0051059Y0012702D01*
X0051015Y0012711D01*
X0050970Y0012716D01*
X0050925Y0012717D01*
X0051439Y0010455D02*
X0051330Y0010418D01*
X0051220Y0010384D01*
X0051108Y0010354D01*
X0050996Y0010328D01*
X0050883Y0010305D01*
X0050769Y0010286D01*
X0050654Y0010271D01*
X0050539Y0010260D01*
X0050424Y0010253D01*
X0050309Y0010249D01*
X0050309Y0010250D02*
X0050264Y0010251D01*
X0050219Y0010256D01*
X0050175Y0010265D01*
X0050132Y0010277D01*
X0050090Y0010293D01*
X0050050Y0010313D01*
X0050011Y0010336D01*
X0049975Y0010361D01*
X0049941Y0010390D01*
X0049909Y0010422D01*
X0049880Y0010456D01*
X0049854Y0010493D01*
X0049831Y0010531D01*
X0049812Y0010572D01*
X0049796Y0010614D01*
X0049783Y0010657D01*
X0049774Y0010701D01*
X0049769Y0010745D01*
X0049768Y0010790D01*
X0049771Y0010835D01*
X0049777Y0010879D01*
X0049787Y0010923D01*
X0049800Y0010965D01*
X0049817Y0011007D01*
X0049838Y0011047D01*
X0049862Y0011085D01*
X0049888Y0011120D01*
X0049918Y0011154D01*
X0049951Y0011185D01*
X0049986Y0011213D01*
X0050023Y0011238D01*
X0050062Y0011259D01*
X0050103Y0011278D01*
X0050001Y0012511D02*
X0050089Y0012549D01*
X0050178Y0012582D01*
X0050268Y0012612D01*
X0050360Y0012639D01*
X0050453Y0012661D01*
X0050546Y0012680D01*
X0050640Y0012695D01*
X0050735Y0012706D01*
X0050830Y0012713D01*
X0050926Y0012717D01*
X0053035Y0012100D02*
X0053035Y0010250D01*
X0054680Y0010250D02*
X0054680Y0012717D01*
X0053652Y0012717D01*
X0053604Y0012715D01*
X0053555Y0012709D01*
X0053508Y0012700D01*
X0053461Y0012687D01*
X0053416Y0012670D01*
X0053372Y0012650D01*
X0053330Y0012626D01*
X0053289Y0012599D01*
X0053251Y0012569D01*
X0053216Y0012536D01*
X0053183Y0012501D01*
X0053153Y0012463D01*
X0053126Y0012422D01*
X0053102Y0012380D01*
X0053082Y0012336D01*
X0053065Y0012291D01*
X0053052Y0012244D01*
X0053043Y0012197D01*
X0053037Y0012148D01*
X0053035Y0012100D01*
X0056275Y0011894D02*
X0056275Y0011483D01*
X0057920Y0011483D01*
X0057920Y0011894D02*
X0057920Y0010867D01*
X0057918Y0010819D01*
X0057912Y0010770D01*
X0057903Y0010723D01*
X0057890Y0010676D01*
X0057873Y0010631D01*
X0057853Y0010587D01*
X0057829Y0010545D01*
X0057802Y0010504D01*
X0057772Y0010466D01*
X0057739Y0010431D01*
X0057704Y0010398D01*
X0057666Y0010368D01*
X0057625Y0010341D01*
X0057583Y0010317D01*
X0057539Y0010297D01*
X0057494Y0010280D01*
X0057447Y0010267D01*
X0057400Y0010258D01*
X0057351Y0010252D01*
X0057303Y0010250D01*
X0056275Y0010250D01*
X0056275Y0011894D02*
X0056277Y0011950D01*
X0056283Y0012006D01*
X0056292Y0012061D01*
X0056305Y0012116D01*
X0056322Y0012169D01*
X0056343Y0012221D01*
X0056367Y0012272D01*
X0056395Y0012321D01*
X0056425Y0012368D01*
X0056459Y0012413D01*
X0056496Y0012455D01*
X0056536Y0012495D01*
X0056578Y0012532D01*
X0056623Y0012566D01*
X0056670Y0012596D01*
X0056719Y0012624D01*
X0056770Y0012648D01*
X0056822Y0012669D01*
X0056875Y0012686D01*
X0056930Y0012699D01*
X0056985Y0012708D01*
X0057041Y0012714D01*
X0057097Y0012716D01*
X0057153Y0012714D01*
X0057209Y0012708D01*
X0057264Y0012699D01*
X0057319Y0012686D01*
X0057372Y0012669D01*
X0057424Y0012648D01*
X0057475Y0012624D01*
X0057524Y0012596D01*
X0057571Y0012566D01*
X0057616Y0012532D01*
X0057658Y0012495D01*
X0057698Y0012455D01*
X0057735Y0012413D01*
X0057769Y0012368D01*
X0057799Y0012321D01*
X0057827Y0012272D01*
X0057851Y0012221D01*
X0057872Y0012169D01*
X0057889Y0012116D01*
X0057902Y0012061D01*
X0057911Y0012006D01*
X0057917Y0011950D01*
X0057919Y0011894D01*
X0059721Y0011792D02*
X0060851Y0012408D01*
X0060440Y0013950D02*
X0060364Y0013948D01*
X0060288Y0013942D01*
X0060212Y0013933D01*
X0060137Y0013920D01*
X0060062Y0013903D01*
X0059989Y0013882D01*
X0059916Y0013858D01*
X0059845Y0013831D01*
X0059776Y0013799D01*
X0059707Y0013765D01*
X0059641Y0013727D01*
X0059577Y0013686D01*
X0059515Y0013642D01*
X0060851Y0012409D02*
X0060897Y0012438D01*
X0060940Y0012470D01*
X0060982Y0012504D01*
X0061021Y0012542D01*
X0061058Y0012581D01*
X0061092Y0012623D01*
X0061124Y0012668D01*
X0061152Y0012714D01*
X0061177Y0012762D01*
X0061200Y0012811D01*
X0061218Y0012862D01*
X0061234Y0012914D01*
X0061246Y0012966D01*
X0061255Y0013020D01*
X0061260Y0013074D01*
X0061262Y0013128D01*
X0061260Y0013184D01*
X0061254Y0013240D01*
X0061245Y0013295D01*
X0061232Y0013350D01*
X0061215Y0013403D01*
X0061194Y0013455D01*
X0061170Y0013506D01*
X0061142Y0013555D01*
X0061112Y0013602D01*
X0061078Y0013647D01*
X0061041Y0013689D01*
X0061001Y0013729D01*
X0060959Y0013766D01*
X0060914Y0013800D01*
X0060867Y0013830D01*
X0060818Y0013858D01*
X0060767Y0013882D01*
X0060715Y0013903D01*
X0060662Y0013920D01*
X0060607Y0013933D01*
X0060552Y0013942D01*
X0060496Y0013948D01*
X0060440Y0013950D01*
X0061365Y0010764D02*
X0061307Y0010708D01*
X0061247Y0010655D01*
X0061184Y0010604D01*
X0061118Y0010557D01*
X0061051Y0010513D01*
X0060981Y0010472D01*
X0060910Y0010434D01*
X0060837Y0010400D01*
X0060763Y0010369D01*
X0060687Y0010341D01*
X0060610Y0010317D01*
X0060532Y0010297D01*
X0060453Y0010280D01*
X0060373Y0010267D01*
X0060293Y0010257D01*
X0060213Y0010252D01*
X0060132Y0010250D01*
X0060076Y0010252D01*
X0060020Y0010258D01*
X0059965Y0010267D01*
X0059910Y0010280D01*
X0059857Y0010297D01*
X0059805Y0010318D01*
X0059754Y0010342D01*
X0059705Y0010370D01*
X0059658Y0010400D01*
X0059613Y0010434D01*
X0059571Y0010471D01*
X0059531Y0010511D01*
X0059494Y0010553D01*
X0059460Y0010598D01*
X0059430Y0010645D01*
X0059402Y0010694D01*
X0059378Y0010745D01*
X0059357Y0010797D01*
X0059340Y0010850D01*
X0059327Y0010905D01*
X0059318Y0010960D01*
X0059312Y0011016D01*
X0059310Y0011072D01*
X0059312Y0011126D01*
X0059317Y0011180D01*
X0059326Y0011234D01*
X0059338Y0011286D01*
X0059354Y0011338D01*
X0059372Y0011389D01*
X0059395Y0011438D01*
X0059420Y0011486D01*
X0059448Y0011532D01*
X0059480Y0011577D01*
X0059514Y0011619D01*
X0059551Y0011658D01*
X0059590Y0011696D01*
X0059632Y0011730D01*
X0059675Y0011762D01*
X0059721Y0011791D01*
X0064215Y0010250D02*
X0065037Y0011072D01*
X0064626Y0011278D02*
X0064626Y0012922D01*
X0064628Y0012985D01*
X0064634Y0013048D01*
X0064644Y0013111D01*
X0064657Y0013173D01*
X0064674Y0013234D01*
X0064695Y0013293D01*
X0064720Y0013352D01*
X0064748Y0013408D01*
X0064780Y0013463D01*
X0064815Y0013516D01*
X0064853Y0013566D01*
X0064894Y0013615D01*
X0064938Y0013660D01*
X0064985Y0013703D01*
X0065034Y0013742D01*
X0065086Y0013779D01*
X0065140Y0013812D01*
X0065196Y0013842D01*
X0065253Y0013869D01*
X0065312Y0013892D01*
X0065373Y0013911D01*
X0065434Y0013926D01*
X0065496Y0013938D01*
X0065559Y0013946D01*
X0065622Y0013950D01*
X0065686Y0013950D01*
X0065749Y0013946D01*
X0065812Y0013938D01*
X0065874Y0013926D01*
X0065935Y0013911D01*
X0065996Y0013892D01*
X0066055Y0013869D01*
X0066112Y0013842D01*
X0066168Y0013812D01*
X0066222Y0013779D01*
X0066274Y0013742D01*
X0066323Y0013703D01*
X0066370Y0013660D01*
X0066414Y0013615D01*
X0066455Y0013566D01*
X0066493Y0013516D01*
X0066528Y0013463D01*
X0066560Y0013408D01*
X0066588Y0013352D01*
X0066613Y0013293D01*
X0066634Y0013234D01*
X0066651Y0013173D01*
X0066664Y0013111D01*
X0066674Y0013048D01*
X0066680Y0012985D01*
X0066682Y0012922D01*
X0066682Y0011278D01*
X0066680Y0011215D01*
X0066674Y0011152D01*
X0066664Y0011089D01*
X0066651Y0011027D01*
X0066634Y0010966D01*
X0066613Y0010907D01*
X0066588Y0010848D01*
X0066560Y0010792D01*
X0066528Y0010737D01*
X0066493Y0010684D01*
X0066455Y0010634D01*
X0066414Y0010585D01*
X0066370Y0010540D01*
X0066323Y0010497D01*
X0066274Y0010458D01*
X0066222Y0010421D01*
X0066168Y0010388D01*
X0066112Y0010358D01*
X0066055Y0010331D01*
X0065996Y0010308D01*
X0065935Y0010289D01*
X0065874Y0010274D01*
X0065812Y0010262D01*
X0065749Y0010254D01*
X0065686Y0010250D01*
X0065622Y0010250D01*
X0065559Y0010254D01*
X0065496Y0010262D01*
X0065434Y0010274D01*
X0065373Y0010289D01*
X0065312Y0010308D01*
X0065253Y0010331D01*
X0065196Y0010358D01*
X0065140Y0010388D01*
X0065086Y0010421D01*
X0065034Y0010458D01*
X0064985Y0010497D01*
X0064938Y0010540D01*
X0064894Y0010585D01*
X0064853Y0010634D01*
X0064815Y0010684D01*
X0064780Y0010737D01*
X0064748Y0010792D01*
X0064720Y0010848D01*
X0064695Y0010907D01*
X0064674Y0010966D01*
X0064657Y0011027D01*
X0064644Y0011089D01*
X0064634Y0011152D01*
X0064628Y0011215D01*
X0064626Y0011278D01*
X0068584Y0010250D02*
X0068584Y0013950D01*
X0069817Y0011894D01*
X0071051Y0013950D01*
X0071051Y0010250D01*
X0118670Y0010250D02*
X0120725Y0010250D01*
X0118978Y0012306D01*
X0119595Y0013950D02*
X0119663Y0013948D01*
X0119731Y0013942D01*
X0119798Y0013933D01*
X0119864Y0013919D01*
X0119930Y0013902D01*
X0119995Y0013881D01*
X0120058Y0013856D01*
X0120120Y0013828D01*
X0120180Y0013796D01*
X0120238Y0013761D01*
X0120294Y0013723D01*
X0120348Y0013681D01*
X0120399Y0013637D01*
X0120447Y0013589D01*
X0120493Y0013539D01*
X0120536Y0013487D01*
X0120576Y0013432D01*
X0120613Y0013375D01*
X0120646Y0013316D01*
X0120676Y0013255D01*
X0120702Y0013192D01*
X0120725Y0013128D01*
X0118977Y0012305D02*
X0118934Y0012349D01*
X0118893Y0012396D01*
X0118856Y0012445D01*
X0118821Y0012496D01*
X0118790Y0012550D01*
X0118762Y0012605D01*
X0118738Y0012662D01*
X0118717Y0012720D01*
X0118700Y0012780D01*
X0118686Y0012840D01*
X0118677Y0012901D01*
X0118671Y0012963D01*
X0118669Y0013025D01*
X0118670Y0013025D02*
X0118672Y0013083D01*
X0118677Y0013141D01*
X0118686Y0013198D01*
X0118699Y0013255D01*
X0118715Y0013311D01*
X0118735Y0013366D01*
X0118758Y0013419D01*
X0118784Y0013471D01*
X0118814Y0013521D01*
X0118847Y0013569D01*
X0118882Y0013615D01*
X0118921Y0013658D01*
X0118962Y0013699D01*
X0119005Y0013738D01*
X0119051Y0013773D01*
X0119099Y0013806D01*
X0119149Y0013836D01*
X0119201Y0013862D01*
X0119254Y0013885D01*
X0119309Y0013905D01*
X0119365Y0013921D01*
X0119422Y0013934D01*
X0119479Y0013943D01*
X0119537Y0013948D01*
X0119595Y0013950D01*
X0123826Y0012717D02*
X0123826Y0012306D01*
X0123826Y0012717D02*
X0125059Y0012717D01*
X0125059Y0010250D01*
X0126675Y0011072D02*
X0126675Y0011894D01*
X0126677Y0011950D01*
X0126683Y0012006D01*
X0126692Y0012061D01*
X0126705Y0012116D01*
X0126722Y0012169D01*
X0126743Y0012221D01*
X0126767Y0012272D01*
X0126795Y0012321D01*
X0126825Y0012368D01*
X0126859Y0012413D01*
X0126896Y0012455D01*
X0126936Y0012495D01*
X0126978Y0012532D01*
X0127023Y0012566D01*
X0127070Y0012596D01*
X0127119Y0012624D01*
X0127170Y0012648D01*
X0127222Y0012669D01*
X0127275Y0012686D01*
X0127330Y0012699D01*
X0127385Y0012708D01*
X0127441Y0012714D01*
X0127497Y0012716D01*
X0127553Y0012714D01*
X0127609Y0012708D01*
X0127664Y0012699D01*
X0127719Y0012686D01*
X0127772Y0012669D01*
X0127824Y0012648D01*
X0127875Y0012624D01*
X0127924Y0012596D01*
X0127971Y0012566D01*
X0128016Y0012532D01*
X0128058Y0012495D01*
X0128098Y0012455D01*
X0128135Y0012413D01*
X0128169Y0012368D01*
X0128199Y0012321D01*
X0128227Y0012272D01*
X0128251Y0012221D01*
X0128272Y0012169D01*
X0128289Y0012116D01*
X0128302Y0012061D01*
X0128311Y0012006D01*
X0128317Y0011950D01*
X0128319Y0011894D01*
X0128320Y0011894D02*
X0128320Y0011072D01*
X0128319Y0011072D02*
X0128317Y0011016D01*
X0128311Y0010960D01*
X0128302Y0010905D01*
X0128289Y0010850D01*
X0128272Y0010797D01*
X0128251Y0010745D01*
X0128227Y0010694D01*
X0128199Y0010645D01*
X0128169Y0010598D01*
X0128135Y0010553D01*
X0128098Y0010511D01*
X0128058Y0010471D01*
X0128016Y0010434D01*
X0127971Y0010400D01*
X0127924Y0010370D01*
X0127875Y0010342D01*
X0127824Y0010318D01*
X0127772Y0010297D01*
X0127719Y0010280D01*
X0127664Y0010267D01*
X0127609Y0010258D01*
X0127553Y0010252D01*
X0127497Y0010250D01*
X0127441Y0010252D01*
X0127385Y0010258D01*
X0127330Y0010267D01*
X0127275Y0010280D01*
X0127222Y0010297D01*
X0127170Y0010318D01*
X0127119Y0010342D01*
X0127070Y0010370D01*
X0127023Y0010400D01*
X0126978Y0010434D01*
X0126936Y0010471D01*
X0126896Y0010511D01*
X0126859Y0010553D01*
X0126825Y0010598D01*
X0126795Y0010645D01*
X0126767Y0010694D01*
X0126743Y0010745D01*
X0126722Y0010797D01*
X0126705Y0010850D01*
X0126692Y0010905D01*
X0126683Y0010960D01*
X0126677Y0011016D01*
X0126675Y0011072D01*
X0130104Y0011278D02*
X0131131Y0011689D01*
X0131172Y0011708D01*
X0131211Y0011729D01*
X0131248Y0011754D01*
X0131283Y0011782D01*
X0131316Y0011813D01*
X0131346Y0011847D01*
X0131372Y0011882D01*
X0131396Y0011920D01*
X0131417Y0011960D01*
X0131434Y0012002D01*
X0131447Y0012044D01*
X0131457Y0012088D01*
X0131463Y0012132D01*
X0131466Y0012177D01*
X0131465Y0012222D01*
X0131460Y0012266D01*
X0131451Y0012310D01*
X0131438Y0012353D01*
X0131422Y0012395D01*
X0131403Y0012436D01*
X0131380Y0012474D01*
X0131354Y0012511D01*
X0131325Y0012545D01*
X0131293Y0012577D01*
X0131259Y0012606D01*
X0131223Y0012631D01*
X0131184Y0012654D01*
X0131144Y0012674D01*
X0131102Y0012690D01*
X0131059Y0012702D01*
X0131015Y0012711D01*
X0130970Y0012716D01*
X0130925Y0012717D01*
X0131439Y0010455D02*
X0131330Y0010418D01*
X0131220Y0010384D01*
X0131108Y0010354D01*
X0130996Y0010328D01*
X0130883Y0010305D01*
X0130769Y0010286D01*
X0130654Y0010271D01*
X0130539Y0010260D01*
X0130424Y0010253D01*
X0130309Y0010249D01*
X0130309Y0010250D02*
X0130264Y0010251D01*
X0130219Y0010256D01*
X0130175Y0010265D01*
X0130132Y0010277D01*
X0130090Y0010293D01*
X0130050Y0010313D01*
X0130011Y0010336D01*
X0129975Y0010361D01*
X0129941Y0010390D01*
X0129909Y0010422D01*
X0129880Y0010456D01*
X0129854Y0010493D01*
X0129831Y0010531D01*
X0129812Y0010572D01*
X0129796Y0010614D01*
X0129783Y0010657D01*
X0129774Y0010701D01*
X0129769Y0010745D01*
X0129768Y0010790D01*
X0129771Y0010835D01*
X0129777Y0010879D01*
X0129787Y0010923D01*
X0129800Y0010965D01*
X0129817Y0011007D01*
X0129838Y0011047D01*
X0129862Y0011085D01*
X0129888Y0011120D01*
X0129918Y0011154D01*
X0129951Y0011185D01*
X0129986Y0011213D01*
X0130023Y0011238D01*
X0130062Y0011259D01*
X0130103Y0011278D01*
X0130001Y0012511D02*
X0130089Y0012549D01*
X0130178Y0012582D01*
X0130268Y0012612D01*
X0130360Y0012639D01*
X0130453Y0012661D01*
X0130546Y0012680D01*
X0130640Y0012695D01*
X0130735Y0012706D01*
X0130830Y0012713D01*
X0130926Y0012717D01*
X0133035Y0012100D02*
X0133035Y0010250D01*
X0134680Y0010250D02*
X0134680Y0012717D01*
X0133652Y0012717D01*
X0133604Y0012715D01*
X0133555Y0012709D01*
X0133508Y0012700D01*
X0133461Y0012687D01*
X0133416Y0012670D01*
X0133372Y0012650D01*
X0133330Y0012626D01*
X0133289Y0012599D01*
X0133251Y0012569D01*
X0133216Y0012536D01*
X0133183Y0012501D01*
X0133153Y0012463D01*
X0133126Y0012422D01*
X0133102Y0012380D01*
X0133082Y0012336D01*
X0133065Y0012291D01*
X0133052Y0012244D01*
X0133043Y0012197D01*
X0133037Y0012148D01*
X0133035Y0012100D01*
X0136275Y0011894D02*
X0136275Y0011483D01*
X0137920Y0011483D01*
X0137920Y0011894D02*
X0137920Y0010867D01*
X0137918Y0010819D01*
X0137912Y0010770D01*
X0137903Y0010723D01*
X0137890Y0010676D01*
X0137873Y0010631D01*
X0137853Y0010587D01*
X0137829Y0010545D01*
X0137802Y0010504D01*
X0137772Y0010466D01*
X0137739Y0010431D01*
X0137704Y0010398D01*
X0137666Y0010368D01*
X0137625Y0010341D01*
X0137583Y0010317D01*
X0137539Y0010297D01*
X0137494Y0010280D01*
X0137447Y0010267D01*
X0137400Y0010258D01*
X0137351Y0010252D01*
X0137303Y0010250D01*
X0136275Y0010250D01*
X0136275Y0011894D02*
X0136277Y0011950D01*
X0136283Y0012006D01*
X0136292Y0012061D01*
X0136305Y0012116D01*
X0136322Y0012169D01*
X0136343Y0012221D01*
X0136367Y0012272D01*
X0136395Y0012321D01*
X0136425Y0012368D01*
X0136459Y0012413D01*
X0136496Y0012455D01*
X0136536Y0012495D01*
X0136578Y0012532D01*
X0136623Y0012566D01*
X0136670Y0012596D01*
X0136719Y0012624D01*
X0136770Y0012648D01*
X0136822Y0012669D01*
X0136875Y0012686D01*
X0136930Y0012699D01*
X0136985Y0012708D01*
X0137041Y0012714D01*
X0137097Y0012716D01*
X0137153Y0012714D01*
X0137209Y0012708D01*
X0137264Y0012699D01*
X0137319Y0012686D01*
X0137372Y0012669D01*
X0137424Y0012648D01*
X0137475Y0012624D01*
X0137524Y0012596D01*
X0137571Y0012566D01*
X0137616Y0012532D01*
X0137658Y0012495D01*
X0137698Y0012455D01*
X0137735Y0012413D01*
X0137769Y0012368D01*
X0137799Y0012321D01*
X0137827Y0012272D01*
X0137851Y0012221D01*
X0137872Y0012169D01*
X0137889Y0012116D01*
X0137902Y0012061D01*
X0137911Y0012006D01*
X0137917Y0011950D01*
X0137919Y0011894D01*
X0139721Y0011792D02*
X0140851Y0012408D01*
X0140440Y0013950D02*
X0140364Y0013948D01*
X0140288Y0013942D01*
X0140212Y0013933D01*
X0140137Y0013920D01*
X0140062Y0013903D01*
X0139989Y0013882D01*
X0139916Y0013858D01*
X0139845Y0013831D01*
X0139776Y0013799D01*
X0139707Y0013765D01*
X0139641Y0013727D01*
X0139577Y0013686D01*
X0139515Y0013642D01*
X0140851Y0012409D02*
X0140897Y0012438D01*
X0140940Y0012470D01*
X0140982Y0012504D01*
X0141021Y0012542D01*
X0141058Y0012581D01*
X0141092Y0012623D01*
X0141124Y0012668D01*
X0141152Y0012714D01*
X0141177Y0012762D01*
X0141200Y0012811D01*
X0141218Y0012862D01*
X0141234Y0012914D01*
X0141246Y0012966D01*
X0141255Y0013020D01*
X0141260Y0013074D01*
X0141262Y0013128D01*
X0141260Y0013184D01*
X0141254Y0013240D01*
X0141245Y0013295D01*
X0141232Y0013350D01*
X0141215Y0013403D01*
X0141194Y0013455D01*
X0141170Y0013506D01*
X0141142Y0013555D01*
X0141112Y0013602D01*
X0141078Y0013647D01*
X0141041Y0013689D01*
X0141001Y0013729D01*
X0140959Y0013766D01*
X0140914Y0013800D01*
X0140867Y0013830D01*
X0140818Y0013858D01*
X0140767Y0013882D01*
X0140715Y0013903D01*
X0140662Y0013920D01*
X0140607Y0013933D01*
X0140552Y0013942D01*
X0140496Y0013948D01*
X0140440Y0013950D01*
X0141365Y0010764D02*
X0141307Y0010708D01*
X0141247Y0010655D01*
X0141184Y0010604D01*
X0141118Y0010557D01*
X0141051Y0010513D01*
X0140981Y0010472D01*
X0140910Y0010434D01*
X0140837Y0010400D01*
X0140763Y0010369D01*
X0140687Y0010341D01*
X0140610Y0010317D01*
X0140532Y0010297D01*
X0140453Y0010280D01*
X0140373Y0010267D01*
X0140293Y0010257D01*
X0140213Y0010252D01*
X0140132Y0010250D01*
X0140076Y0010252D01*
X0140020Y0010258D01*
X0139965Y0010267D01*
X0139910Y0010280D01*
X0139857Y0010297D01*
X0139805Y0010318D01*
X0139754Y0010342D01*
X0139705Y0010370D01*
X0139658Y0010400D01*
X0139613Y0010434D01*
X0139571Y0010471D01*
X0139531Y0010511D01*
X0139494Y0010553D01*
X0139460Y0010598D01*
X0139430Y0010645D01*
X0139402Y0010694D01*
X0139378Y0010745D01*
X0139357Y0010797D01*
X0139340Y0010850D01*
X0139327Y0010905D01*
X0139318Y0010960D01*
X0139312Y0011016D01*
X0139310Y0011072D01*
X0139312Y0011126D01*
X0139317Y0011180D01*
X0139326Y0011234D01*
X0139338Y0011286D01*
X0139354Y0011338D01*
X0139372Y0011389D01*
X0139395Y0011438D01*
X0139420Y0011486D01*
X0139448Y0011532D01*
X0139480Y0011577D01*
X0139514Y0011619D01*
X0139551Y0011658D01*
X0139590Y0011696D01*
X0139632Y0011730D01*
X0139675Y0011762D01*
X0139721Y0011791D01*
X0144215Y0010250D02*
X0145037Y0011072D01*
X0144626Y0011278D02*
X0144626Y0012922D01*
X0144628Y0012985D01*
X0144634Y0013048D01*
X0144644Y0013111D01*
X0144657Y0013173D01*
X0144674Y0013234D01*
X0144695Y0013293D01*
X0144720Y0013352D01*
X0144748Y0013408D01*
X0144780Y0013463D01*
X0144815Y0013516D01*
X0144853Y0013566D01*
X0144894Y0013615D01*
X0144938Y0013660D01*
X0144985Y0013703D01*
X0145034Y0013742D01*
X0145086Y0013779D01*
X0145140Y0013812D01*
X0145196Y0013842D01*
X0145253Y0013869D01*
X0145312Y0013892D01*
X0145373Y0013911D01*
X0145434Y0013926D01*
X0145496Y0013938D01*
X0145559Y0013946D01*
X0145622Y0013950D01*
X0145686Y0013950D01*
X0145749Y0013946D01*
X0145812Y0013938D01*
X0145874Y0013926D01*
X0145935Y0013911D01*
X0145996Y0013892D01*
X0146055Y0013869D01*
X0146112Y0013842D01*
X0146168Y0013812D01*
X0146222Y0013779D01*
X0146274Y0013742D01*
X0146323Y0013703D01*
X0146370Y0013660D01*
X0146414Y0013615D01*
X0146455Y0013566D01*
X0146493Y0013516D01*
X0146528Y0013463D01*
X0146560Y0013408D01*
X0146588Y0013352D01*
X0146613Y0013293D01*
X0146634Y0013234D01*
X0146651Y0013173D01*
X0146664Y0013111D01*
X0146674Y0013048D01*
X0146680Y0012985D01*
X0146682Y0012922D01*
X0146682Y0011278D01*
X0146680Y0011215D01*
X0146674Y0011152D01*
X0146664Y0011089D01*
X0146651Y0011027D01*
X0146634Y0010966D01*
X0146613Y0010907D01*
X0146588Y0010848D01*
X0146560Y0010792D01*
X0146528Y0010737D01*
X0146493Y0010684D01*
X0146455Y0010634D01*
X0146414Y0010585D01*
X0146370Y0010540D01*
X0146323Y0010497D01*
X0146274Y0010458D01*
X0146222Y0010421D01*
X0146168Y0010388D01*
X0146112Y0010358D01*
X0146055Y0010331D01*
X0145996Y0010308D01*
X0145935Y0010289D01*
X0145874Y0010274D01*
X0145812Y0010262D01*
X0145749Y0010254D01*
X0145686Y0010250D01*
X0145622Y0010250D01*
X0145559Y0010254D01*
X0145496Y0010262D01*
X0145434Y0010274D01*
X0145373Y0010289D01*
X0145312Y0010308D01*
X0145253Y0010331D01*
X0145196Y0010358D01*
X0145140Y0010388D01*
X0145086Y0010421D01*
X0145034Y0010458D01*
X0144985Y0010497D01*
X0144938Y0010540D01*
X0144894Y0010585D01*
X0144853Y0010634D01*
X0144815Y0010684D01*
X0144780Y0010737D01*
X0144748Y0010792D01*
X0144720Y0010848D01*
X0144695Y0010907D01*
X0144674Y0010966D01*
X0144657Y0011027D01*
X0144644Y0011089D01*
X0144634Y0011152D01*
X0144628Y0011215D01*
X0144626Y0011278D01*
X0148584Y0010250D02*
X0148584Y0013950D01*
X0149817Y0011894D01*
X0151051Y0013950D01*
X0151051Y0010250D01*
X0199492Y0012306D02*
X0200314Y0012306D01*
X0199492Y0012306D02*
X0199436Y0012308D01*
X0199380Y0012314D01*
X0199325Y0012323D01*
X0199270Y0012336D01*
X0199217Y0012353D01*
X0199165Y0012374D01*
X0199114Y0012398D01*
X0199065Y0012426D01*
X0199018Y0012456D01*
X0198973Y0012490D01*
X0198931Y0012527D01*
X0198891Y0012567D01*
X0198854Y0012609D01*
X0198820Y0012654D01*
X0198790Y0012701D01*
X0198762Y0012750D01*
X0198738Y0012801D01*
X0198717Y0012853D01*
X0198700Y0012906D01*
X0198687Y0012961D01*
X0198678Y0013016D01*
X0198672Y0013072D01*
X0198670Y0013128D01*
X0198672Y0013184D01*
X0198678Y0013240D01*
X0198687Y0013295D01*
X0198700Y0013350D01*
X0198717Y0013403D01*
X0198738Y0013455D01*
X0198762Y0013506D01*
X0198790Y0013555D01*
X0198820Y0013602D01*
X0198854Y0013647D01*
X0198891Y0013689D01*
X0198931Y0013729D01*
X0198973Y0013766D01*
X0199018Y0013800D01*
X0199065Y0013830D01*
X0199114Y0013858D01*
X0199165Y0013882D01*
X0199217Y0013903D01*
X0199270Y0013920D01*
X0199325Y0013933D01*
X0199380Y0013942D01*
X0199436Y0013948D01*
X0199492Y0013950D01*
X0200725Y0013950D01*
X0199697Y0012306D02*
X0199634Y0012304D01*
X0199571Y0012298D01*
X0199508Y0012288D01*
X0199446Y0012275D01*
X0199385Y0012258D01*
X0199326Y0012237D01*
X0199267Y0012212D01*
X0199211Y0012184D01*
X0199156Y0012152D01*
X0199103Y0012117D01*
X0199053Y0012079D01*
X0199004Y0012038D01*
X0198959Y0011994D01*
X0198916Y0011947D01*
X0198877Y0011898D01*
X0198840Y0011846D01*
X0198807Y0011792D01*
X0198777Y0011736D01*
X0198750Y0011679D01*
X0198727Y0011620D01*
X0198708Y0011559D01*
X0198693Y0011498D01*
X0198681Y0011436D01*
X0198673Y0011373D01*
X0198669Y0011310D01*
X0198669Y0011246D01*
X0198673Y0011183D01*
X0198681Y0011120D01*
X0198693Y0011058D01*
X0198708Y0010997D01*
X0198727Y0010936D01*
X0198750Y0010877D01*
X0198777Y0010820D01*
X0198807Y0010764D01*
X0198840Y0010710D01*
X0198877Y0010658D01*
X0198916Y0010609D01*
X0198959Y0010562D01*
X0199004Y0010518D01*
X0199053Y0010477D01*
X0199103Y0010439D01*
X0199156Y0010404D01*
X0199211Y0010372D01*
X0199267Y0010344D01*
X0199326Y0010319D01*
X0199385Y0010298D01*
X0199446Y0010281D01*
X0199508Y0010268D01*
X0199571Y0010258D01*
X0199634Y0010252D01*
X0199697Y0010250D01*
X0200725Y0010250D01*
X0203826Y0012306D02*
X0203826Y0012717D01*
X0205059Y0012717D01*
X0205059Y0010250D01*
X0206675Y0011072D02*
X0206675Y0011894D01*
X0206677Y0011950D01*
X0206683Y0012006D01*
X0206692Y0012061D01*
X0206705Y0012116D01*
X0206722Y0012169D01*
X0206743Y0012221D01*
X0206767Y0012272D01*
X0206795Y0012321D01*
X0206825Y0012368D01*
X0206859Y0012413D01*
X0206896Y0012455D01*
X0206936Y0012495D01*
X0206978Y0012532D01*
X0207023Y0012566D01*
X0207070Y0012596D01*
X0207119Y0012624D01*
X0207170Y0012648D01*
X0207222Y0012669D01*
X0207275Y0012686D01*
X0207330Y0012699D01*
X0207385Y0012708D01*
X0207441Y0012714D01*
X0207497Y0012716D01*
X0207553Y0012714D01*
X0207609Y0012708D01*
X0207664Y0012699D01*
X0207719Y0012686D01*
X0207772Y0012669D01*
X0207824Y0012648D01*
X0207875Y0012624D01*
X0207924Y0012596D01*
X0207971Y0012566D01*
X0208016Y0012532D01*
X0208058Y0012495D01*
X0208098Y0012455D01*
X0208135Y0012413D01*
X0208169Y0012368D01*
X0208199Y0012321D01*
X0208227Y0012272D01*
X0208251Y0012221D01*
X0208272Y0012169D01*
X0208289Y0012116D01*
X0208302Y0012061D01*
X0208311Y0012006D01*
X0208317Y0011950D01*
X0208319Y0011894D01*
X0208320Y0011894D02*
X0208320Y0011072D01*
X0208319Y0011072D02*
X0208317Y0011016D01*
X0208311Y0010960D01*
X0208302Y0010905D01*
X0208289Y0010850D01*
X0208272Y0010797D01*
X0208251Y0010745D01*
X0208227Y0010694D01*
X0208199Y0010645D01*
X0208169Y0010598D01*
X0208135Y0010553D01*
X0208098Y0010511D01*
X0208058Y0010471D01*
X0208016Y0010434D01*
X0207971Y0010400D01*
X0207924Y0010370D01*
X0207875Y0010342D01*
X0207824Y0010318D01*
X0207772Y0010297D01*
X0207719Y0010280D01*
X0207664Y0010267D01*
X0207609Y0010258D01*
X0207553Y0010252D01*
X0207497Y0010250D01*
X0207441Y0010252D01*
X0207385Y0010258D01*
X0207330Y0010267D01*
X0207275Y0010280D01*
X0207222Y0010297D01*
X0207170Y0010318D01*
X0207119Y0010342D01*
X0207070Y0010370D01*
X0207023Y0010400D01*
X0206978Y0010434D01*
X0206936Y0010471D01*
X0206896Y0010511D01*
X0206859Y0010553D01*
X0206825Y0010598D01*
X0206795Y0010645D01*
X0206767Y0010694D01*
X0206743Y0010745D01*
X0206722Y0010797D01*
X0206705Y0010850D01*
X0206692Y0010905D01*
X0206683Y0010960D01*
X0206677Y0011016D01*
X0206675Y0011072D01*
X0210104Y0011278D02*
X0211131Y0011689D01*
X0211172Y0011708D01*
X0211211Y0011729D01*
X0211248Y0011754D01*
X0211283Y0011782D01*
X0211316Y0011813D01*
X0211346Y0011847D01*
X0211372Y0011882D01*
X0211396Y0011920D01*
X0211417Y0011960D01*
X0211434Y0012002D01*
X0211447Y0012044D01*
X0211457Y0012088D01*
X0211463Y0012132D01*
X0211466Y0012177D01*
X0211465Y0012222D01*
X0211460Y0012266D01*
X0211451Y0012310D01*
X0211438Y0012353D01*
X0211422Y0012395D01*
X0211403Y0012436D01*
X0211380Y0012474D01*
X0211354Y0012511D01*
X0211325Y0012545D01*
X0211293Y0012577D01*
X0211259Y0012606D01*
X0211223Y0012631D01*
X0211184Y0012654D01*
X0211144Y0012674D01*
X0211102Y0012690D01*
X0211059Y0012702D01*
X0211015Y0012711D01*
X0210970Y0012716D01*
X0210925Y0012717D01*
X0211439Y0010455D02*
X0211330Y0010418D01*
X0211220Y0010384D01*
X0211108Y0010354D01*
X0210996Y0010328D01*
X0210883Y0010305D01*
X0210769Y0010286D01*
X0210654Y0010271D01*
X0210539Y0010260D01*
X0210424Y0010253D01*
X0210309Y0010249D01*
X0210309Y0010250D02*
X0210264Y0010251D01*
X0210219Y0010256D01*
X0210175Y0010265D01*
X0210132Y0010277D01*
X0210090Y0010293D01*
X0210050Y0010313D01*
X0210011Y0010336D01*
X0209975Y0010361D01*
X0209941Y0010390D01*
X0209909Y0010422D01*
X0209880Y0010456D01*
X0209854Y0010493D01*
X0209831Y0010531D01*
X0209812Y0010572D01*
X0209796Y0010614D01*
X0209783Y0010657D01*
X0209774Y0010701D01*
X0209769Y0010745D01*
X0209768Y0010790D01*
X0209771Y0010835D01*
X0209777Y0010879D01*
X0209787Y0010923D01*
X0209800Y0010965D01*
X0209817Y0011007D01*
X0209838Y0011047D01*
X0209862Y0011085D01*
X0209888Y0011120D01*
X0209918Y0011154D01*
X0209951Y0011185D01*
X0209986Y0011213D01*
X0210023Y0011238D01*
X0210062Y0011259D01*
X0210103Y0011278D01*
X0210001Y0012511D02*
X0210089Y0012549D01*
X0210178Y0012582D01*
X0210268Y0012612D01*
X0210360Y0012639D01*
X0210453Y0012661D01*
X0210546Y0012680D01*
X0210640Y0012695D01*
X0210735Y0012706D01*
X0210830Y0012713D01*
X0210926Y0012717D01*
X0213035Y0012100D02*
X0213035Y0010250D01*
X0214680Y0010250D02*
X0214680Y0012717D01*
X0213652Y0012717D01*
X0213604Y0012715D01*
X0213555Y0012709D01*
X0213508Y0012700D01*
X0213461Y0012687D01*
X0213416Y0012670D01*
X0213372Y0012650D01*
X0213330Y0012626D01*
X0213289Y0012599D01*
X0213251Y0012569D01*
X0213216Y0012536D01*
X0213183Y0012501D01*
X0213153Y0012463D01*
X0213126Y0012422D01*
X0213102Y0012380D01*
X0213082Y0012336D01*
X0213065Y0012291D01*
X0213052Y0012244D01*
X0213043Y0012197D01*
X0213037Y0012148D01*
X0213035Y0012100D01*
X0216275Y0011894D02*
X0216275Y0011483D01*
X0217920Y0011483D01*
X0217920Y0011894D02*
X0217920Y0010867D01*
X0217918Y0010819D01*
X0217912Y0010770D01*
X0217903Y0010723D01*
X0217890Y0010676D01*
X0217873Y0010631D01*
X0217853Y0010587D01*
X0217829Y0010545D01*
X0217802Y0010504D01*
X0217772Y0010466D01*
X0217739Y0010431D01*
X0217704Y0010398D01*
X0217666Y0010368D01*
X0217625Y0010341D01*
X0217583Y0010317D01*
X0217539Y0010297D01*
X0217494Y0010280D01*
X0217447Y0010267D01*
X0217400Y0010258D01*
X0217351Y0010252D01*
X0217303Y0010250D01*
X0216275Y0010250D01*
X0216275Y0011894D02*
X0216277Y0011950D01*
X0216283Y0012006D01*
X0216292Y0012061D01*
X0216305Y0012116D01*
X0216322Y0012169D01*
X0216343Y0012221D01*
X0216367Y0012272D01*
X0216395Y0012321D01*
X0216425Y0012368D01*
X0216459Y0012413D01*
X0216496Y0012455D01*
X0216536Y0012495D01*
X0216578Y0012532D01*
X0216623Y0012566D01*
X0216670Y0012596D01*
X0216719Y0012624D01*
X0216770Y0012648D01*
X0216822Y0012669D01*
X0216875Y0012686D01*
X0216930Y0012699D01*
X0216985Y0012708D01*
X0217041Y0012714D01*
X0217097Y0012716D01*
X0217153Y0012714D01*
X0217209Y0012708D01*
X0217264Y0012699D01*
X0217319Y0012686D01*
X0217372Y0012669D01*
X0217424Y0012648D01*
X0217475Y0012624D01*
X0217524Y0012596D01*
X0217571Y0012566D01*
X0217616Y0012532D01*
X0217658Y0012495D01*
X0217698Y0012455D01*
X0217735Y0012413D01*
X0217769Y0012368D01*
X0217799Y0012321D01*
X0217827Y0012272D01*
X0217851Y0012221D01*
X0217872Y0012169D01*
X0217889Y0012116D01*
X0217902Y0012061D01*
X0217911Y0012006D01*
X0217917Y0011950D01*
X0217919Y0011894D01*
X0219721Y0011792D02*
X0220851Y0012408D01*
X0220440Y0013950D02*
X0220364Y0013948D01*
X0220288Y0013942D01*
X0220212Y0013933D01*
X0220137Y0013920D01*
X0220062Y0013903D01*
X0219989Y0013882D01*
X0219916Y0013858D01*
X0219845Y0013831D01*
X0219776Y0013799D01*
X0219707Y0013765D01*
X0219641Y0013727D01*
X0219577Y0013686D01*
X0219515Y0013642D01*
X0220851Y0012409D02*
X0220897Y0012438D01*
X0220940Y0012470D01*
X0220982Y0012504D01*
X0221021Y0012542D01*
X0221058Y0012581D01*
X0221092Y0012623D01*
X0221124Y0012668D01*
X0221152Y0012714D01*
X0221177Y0012762D01*
X0221200Y0012811D01*
X0221218Y0012862D01*
X0221234Y0012914D01*
X0221246Y0012966D01*
X0221255Y0013020D01*
X0221260Y0013074D01*
X0221262Y0013128D01*
X0221260Y0013184D01*
X0221254Y0013240D01*
X0221245Y0013295D01*
X0221232Y0013350D01*
X0221215Y0013403D01*
X0221194Y0013455D01*
X0221170Y0013506D01*
X0221142Y0013555D01*
X0221112Y0013602D01*
X0221078Y0013647D01*
X0221041Y0013689D01*
X0221001Y0013729D01*
X0220959Y0013766D01*
X0220914Y0013800D01*
X0220867Y0013830D01*
X0220818Y0013858D01*
X0220767Y0013882D01*
X0220715Y0013903D01*
X0220662Y0013920D01*
X0220607Y0013933D01*
X0220552Y0013942D01*
X0220496Y0013948D01*
X0220440Y0013950D01*
X0221365Y0010764D02*
X0221307Y0010708D01*
X0221247Y0010655D01*
X0221184Y0010604D01*
X0221118Y0010557D01*
X0221051Y0010513D01*
X0220981Y0010472D01*
X0220910Y0010434D01*
X0220837Y0010400D01*
X0220763Y0010369D01*
X0220687Y0010341D01*
X0220610Y0010317D01*
X0220532Y0010297D01*
X0220453Y0010280D01*
X0220373Y0010267D01*
X0220293Y0010257D01*
X0220213Y0010252D01*
X0220132Y0010250D01*
X0220076Y0010252D01*
X0220020Y0010258D01*
X0219965Y0010267D01*
X0219910Y0010280D01*
X0219857Y0010297D01*
X0219805Y0010318D01*
X0219754Y0010342D01*
X0219705Y0010370D01*
X0219658Y0010400D01*
X0219613Y0010434D01*
X0219571Y0010471D01*
X0219531Y0010511D01*
X0219494Y0010553D01*
X0219460Y0010598D01*
X0219430Y0010645D01*
X0219402Y0010694D01*
X0219378Y0010745D01*
X0219357Y0010797D01*
X0219340Y0010850D01*
X0219327Y0010905D01*
X0219318Y0010960D01*
X0219312Y0011016D01*
X0219310Y0011072D01*
X0219312Y0011126D01*
X0219317Y0011180D01*
X0219326Y0011234D01*
X0219338Y0011286D01*
X0219354Y0011338D01*
X0219372Y0011389D01*
X0219395Y0011438D01*
X0219420Y0011486D01*
X0219448Y0011532D01*
X0219480Y0011577D01*
X0219514Y0011619D01*
X0219551Y0011658D01*
X0219590Y0011696D01*
X0219632Y0011730D01*
X0219675Y0011762D01*
X0219721Y0011791D01*
X0224215Y0010250D02*
X0225037Y0011072D01*
X0224626Y0011278D02*
X0224626Y0012922D01*
X0224628Y0012985D01*
X0224634Y0013048D01*
X0224644Y0013111D01*
X0224657Y0013173D01*
X0224674Y0013234D01*
X0224695Y0013293D01*
X0224720Y0013352D01*
X0224748Y0013408D01*
X0224780Y0013463D01*
X0224815Y0013516D01*
X0224853Y0013566D01*
X0224894Y0013615D01*
X0224938Y0013660D01*
X0224985Y0013703D01*
X0225034Y0013742D01*
X0225086Y0013779D01*
X0225140Y0013812D01*
X0225196Y0013842D01*
X0225253Y0013869D01*
X0225312Y0013892D01*
X0225373Y0013911D01*
X0225434Y0013926D01*
X0225496Y0013938D01*
X0225559Y0013946D01*
X0225622Y0013950D01*
X0225686Y0013950D01*
X0225749Y0013946D01*
X0225812Y0013938D01*
X0225874Y0013926D01*
X0225935Y0013911D01*
X0225996Y0013892D01*
X0226055Y0013869D01*
X0226112Y0013842D01*
X0226168Y0013812D01*
X0226222Y0013779D01*
X0226274Y0013742D01*
X0226323Y0013703D01*
X0226370Y0013660D01*
X0226414Y0013615D01*
X0226455Y0013566D01*
X0226493Y0013516D01*
X0226528Y0013463D01*
X0226560Y0013408D01*
X0226588Y0013352D01*
X0226613Y0013293D01*
X0226634Y0013234D01*
X0226651Y0013173D01*
X0226664Y0013111D01*
X0226674Y0013048D01*
X0226680Y0012985D01*
X0226682Y0012922D01*
X0226682Y0011278D01*
X0226680Y0011215D01*
X0226674Y0011152D01*
X0226664Y0011089D01*
X0226651Y0011027D01*
X0226634Y0010966D01*
X0226613Y0010907D01*
X0226588Y0010848D01*
X0226560Y0010792D01*
X0226528Y0010737D01*
X0226493Y0010684D01*
X0226455Y0010634D01*
X0226414Y0010585D01*
X0226370Y0010540D01*
X0226323Y0010497D01*
X0226274Y0010458D01*
X0226222Y0010421D01*
X0226168Y0010388D01*
X0226112Y0010358D01*
X0226055Y0010331D01*
X0225996Y0010308D01*
X0225935Y0010289D01*
X0225874Y0010274D01*
X0225812Y0010262D01*
X0225749Y0010254D01*
X0225686Y0010250D01*
X0225622Y0010250D01*
X0225559Y0010254D01*
X0225496Y0010262D01*
X0225434Y0010274D01*
X0225373Y0010289D01*
X0225312Y0010308D01*
X0225253Y0010331D01*
X0225196Y0010358D01*
X0225140Y0010388D01*
X0225086Y0010421D01*
X0225034Y0010458D01*
X0224985Y0010497D01*
X0224938Y0010540D01*
X0224894Y0010585D01*
X0224853Y0010634D01*
X0224815Y0010684D01*
X0224780Y0010737D01*
X0224748Y0010792D01*
X0224720Y0010848D01*
X0224695Y0010907D01*
X0224674Y0010966D01*
X0224657Y0011027D01*
X0224644Y0011089D01*
X0224634Y0011152D01*
X0224628Y0011215D01*
X0224626Y0011278D01*
X0228584Y0010250D02*
X0228584Y0013950D01*
X0229817Y0011894D01*
X0231051Y0013950D01*
X0231051Y0010250D01*
X0278670Y0011072D02*
X0280725Y0011072D01*
X0279903Y0013950D01*
X0279286Y0011894D02*
X0279286Y0010250D01*
X0283826Y0012306D02*
X0283826Y0012717D01*
X0285059Y0012717D01*
X0285059Y0010250D01*
X0286675Y0011072D02*
X0286675Y0011894D01*
X0286677Y0011950D01*
X0286683Y0012006D01*
X0286692Y0012061D01*
X0286705Y0012116D01*
X0286722Y0012169D01*
X0286743Y0012221D01*
X0286767Y0012272D01*
X0286795Y0012321D01*
X0286825Y0012368D01*
X0286859Y0012413D01*
X0286896Y0012455D01*
X0286936Y0012495D01*
X0286978Y0012532D01*
X0287023Y0012566D01*
X0287070Y0012596D01*
X0287119Y0012624D01*
X0287170Y0012648D01*
X0287222Y0012669D01*
X0287275Y0012686D01*
X0287330Y0012699D01*
X0287385Y0012708D01*
X0287441Y0012714D01*
X0287497Y0012716D01*
X0287553Y0012714D01*
X0287609Y0012708D01*
X0287664Y0012699D01*
X0287719Y0012686D01*
X0287772Y0012669D01*
X0287824Y0012648D01*
X0287875Y0012624D01*
X0287924Y0012596D01*
X0287971Y0012566D01*
X0288016Y0012532D01*
X0288058Y0012495D01*
X0288098Y0012455D01*
X0288135Y0012413D01*
X0288169Y0012368D01*
X0288199Y0012321D01*
X0288227Y0012272D01*
X0288251Y0012221D01*
X0288272Y0012169D01*
X0288289Y0012116D01*
X0288302Y0012061D01*
X0288311Y0012006D01*
X0288317Y0011950D01*
X0288319Y0011894D01*
X0288320Y0011894D02*
X0288320Y0011072D01*
X0288319Y0011072D02*
X0288317Y0011016D01*
X0288311Y0010960D01*
X0288302Y0010905D01*
X0288289Y0010850D01*
X0288272Y0010797D01*
X0288251Y0010745D01*
X0288227Y0010694D01*
X0288199Y0010645D01*
X0288169Y0010598D01*
X0288135Y0010553D01*
X0288098Y0010511D01*
X0288058Y0010471D01*
X0288016Y0010434D01*
X0287971Y0010400D01*
X0287924Y0010370D01*
X0287875Y0010342D01*
X0287824Y0010318D01*
X0287772Y0010297D01*
X0287719Y0010280D01*
X0287664Y0010267D01*
X0287609Y0010258D01*
X0287553Y0010252D01*
X0287497Y0010250D01*
X0287441Y0010252D01*
X0287385Y0010258D01*
X0287330Y0010267D01*
X0287275Y0010280D01*
X0287222Y0010297D01*
X0287170Y0010318D01*
X0287119Y0010342D01*
X0287070Y0010370D01*
X0287023Y0010400D01*
X0286978Y0010434D01*
X0286936Y0010471D01*
X0286896Y0010511D01*
X0286859Y0010553D01*
X0286825Y0010598D01*
X0286795Y0010645D01*
X0286767Y0010694D01*
X0286743Y0010745D01*
X0286722Y0010797D01*
X0286705Y0010850D01*
X0286692Y0010905D01*
X0286683Y0010960D01*
X0286677Y0011016D01*
X0286675Y0011072D01*
X0290104Y0011278D02*
X0291131Y0011689D01*
X0291172Y0011708D01*
X0291211Y0011729D01*
X0291248Y0011754D01*
X0291283Y0011782D01*
X0291316Y0011813D01*
X0291346Y0011847D01*
X0291372Y0011882D01*
X0291396Y0011920D01*
X0291417Y0011960D01*
X0291434Y0012002D01*
X0291447Y0012044D01*
X0291457Y0012088D01*
X0291463Y0012132D01*
X0291466Y0012177D01*
X0291465Y0012222D01*
X0291460Y0012266D01*
X0291451Y0012310D01*
X0291438Y0012353D01*
X0291422Y0012395D01*
X0291403Y0012436D01*
X0291380Y0012474D01*
X0291354Y0012511D01*
X0291325Y0012545D01*
X0291293Y0012577D01*
X0291259Y0012606D01*
X0291223Y0012631D01*
X0291184Y0012654D01*
X0291144Y0012674D01*
X0291102Y0012690D01*
X0291059Y0012702D01*
X0291015Y0012711D01*
X0290970Y0012716D01*
X0290925Y0012717D01*
X0291439Y0010455D02*
X0291330Y0010418D01*
X0291220Y0010384D01*
X0291108Y0010354D01*
X0290996Y0010328D01*
X0290883Y0010305D01*
X0290769Y0010286D01*
X0290654Y0010271D01*
X0290539Y0010260D01*
X0290424Y0010253D01*
X0290309Y0010249D01*
X0290309Y0010250D02*
X0290264Y0010251D01*
X0290219Y0010256D01*
X0290175Y0010265D01*
X0290132Y0010277D01*
X0290090Y0010293D01*
X0290050Y0010313D01*
X0290011Y0010336D01*
X0289975Y0010361D01*
X0289941Y0010390D01*
X0289909Y0010422D01*
X0289880Y0010456D01*
X0289854Y0010493D01*
X0289831Y0010531D01*
X0289812Y0010572D01*
X0289796Y0010614D01*
X0289783Y0010657D01*
X0289774Y0010701D01*
X0289769Y0010745D01*
X0289768Y0010790D01*
X0289771Y0010835D01*
X0289777Y0010879D01*
X0289787Y0010923D01*
X0289800Y0010965D01*
X0289817Y0011007D01*
X0289838Y0011047D01*
X0289862Y0011085D01*
X0289888Y0011120D01*
X0289918Y0011154D01*
X0289951Y0011185D01*
X0289986Y0011213D01*
X0290023Y0011238D01*
X0290062Y0011259D01*
X0290103Y0011278D01*
X0290001Y0012511D02*
X0290089Y0012549D01*
X0290178Y0012582D01*
X0290268Y0012612D01*
X0290360Y0012639D01*
X0290453Y0012661D01*
X0290546Y0012680D01*
X0290640Y0012695D01*
X0290735Y0012706D01*
X0290830Y0012713D01*
X0290926Y0012717D01*
X0293035Y0012100D02*
X0293035Y0010250D01*
X0294680Y0010250D02*
X0294680Y0012717D01*
X0293652Y0012717D01*
X0293604Y0012715D01*
X0293555Y0012709D01*
X0293508Y0012700D01*
X0293461Y0012687D01*
X0293416Y0012670D01*
X0293372Y0012650D01*
X0293330Y0012626D01*
X0293289Y0012599D01*
X0293251Y0012569D01*
X0293216Y0012536D01*
X0293183Y0012501D01*
X0293153Y0012463D01*
X0293126Y0012422D01*
X0293102Y0012380D01*
X0293082Y0012336D01*
X0293065Y0012291D01*
X0293052Y0012244D01*
X0293043Y0012197D01*
X0293037Y0012148D01*
X0293035Y0012100D01*
X0296275Y0011894D02*
X0296275Y0011483D01*
X0297920Y0011483D01*
X0297920Y0011894D02*
X0297920Y0010867D01*
X0297918Y0010819D01*
X0297912Y0010770D01*
X0297903Y0010723D01*
X0297890Y0010676D01*
X0297873Y0010631D01*
X0297853Y0010587D01*
X0297829Y0010545D01*
X0297802Y0010504D01*
X0297772Y0010466D01*
X0297739Y0010431D01*
X0297704Y0010398D01*
X0297666Y0010368D01*
X0297625Y0010341D01*
X0297583Y0010317D01*
X0297539Y0010297D01*
X0297494Y0010280D01*
X0297447Y0010267D01*
X0297400Y0010258D01*
X0297351Y0010252D01*
X0297303Y0010250D01*
X0296275Y0010250D01*
X0296275Y0011894D02*
X0296277Y0011950D01*
X0296283Y0012006D01*
X0296292Y0012061D01*
X0296305Y0012116D01*
X0296322Y0012169D01*
X0296343Y0012221D01*
X0296367Y0012272D01*
X0296395Y0012321D01*
X0296425Y0012368D01*
X0296459Y0012413D01*
X0296496Y0012455D01*
X0296536Y0012495D01*
X0296578Y0012532D01*
X0296623Y0012566D01*
X0296670Y0012596D01*
X0296719Y0012624D01*
X0296770Y0012648D01*
X0296822Y0012669D01*
X0296875Y0012686D01*
X0296930Y0012699D01*
X0296985Y0012708D01*
X0297041Y0012714D01*
X0297097Y0012716D01*
X0297153Y0012714D01*
X0297209Y0012708D01*
X0297264Y0012699D01*
X0297319Y0012686D01*
X0297372Y0012669D01*
X0297424Y0012648D01*
X0297475Y0012624D01*
X0297524Y0012596D01*
X0297571Y0012566D01*
X0297616Y0012532D01*
X0297658Y0012495D01*
X0297698Y0012455D01*
X0297735Y0012413D01*
X0297769Y0012368D01*
X0297799Y0012321D01*
X0297827Y0012272D01*
X0297851Y0012221D01*
X0297872Y0012169D01*
X0297889Y0012116D01*
X0297902Y0012061D01*
X0297911Y0012006D01*
X0297917Y0011950D01*
X0297919Y0011894D01*
X0299721Y0011792D02*
X0300851Y0012408D01*
X0300440Y0013950D02*
X0300364Y0013948D01*
X0300288Y0013942D01*
X0300212Y0013933D01*
X0300137Y0013920D01*
X0300062Y0013903D01*
X0299989Y0013882D01*
X0299916Y0013858D01*
X0299845Y0013831D01*
X0299776Y0013799D01*
X0299707Y0013765D01*
X0299641Y0013727D01*
X0299577Y0013686D01*
X0299515Y0013642D01*
X0300851Y0012409D02*
X0300897Y0012438D01*
X0300940Y0012470D01*
X0300982Y0012504D01*
X0301021Y0012542D01*
X0301058Y0012581D01*
X0301092Y0012623D01*
X0301124Y0012668D01*
X0301152Y0012714D01*
X0301177Y0012762D01*
X0301200Y0012811D01*
X0301218Y0012862D01*
X0301234Y0012914D01*
X0301246Y0012966D01*
X0301255Y0013020D01*
X0301260Y0013074D01*
X0301262Y0013128D01*
X0301260Y0013184D01*
X0301254Y0013240D01*
X0301245Y0013295D01*
X0301232Y0013350D01*
X0301215Y0013403D01*
X0301194Y0013455D01*
X0301170Y0013506D01*
X0301142Y0013555D01*
X0301112Y0013602D01*
X0301078Y0013647D01*
X0301041Y0013689D01*
X0301001Y0013729D01*
X0300959Y0013766D01*
X0300914Y0013800D01*
X0300867Y0013830D01*
X0300818Y0013858D01*
X0300767Y0013882D01*
X0300715Y0013903D01*
X0300662Y0013920D01*
X0300607Y0013933D01*
X0300552Y0013942D01*
X0300496Y0013948D01*
X0300440Y0013950D01*
X0301365Y0010764D02*
X0301307Y0010708D01*
X0301247Y0010655D01*
X0301184Y0010604D01*
X0301118Y0010557D01*
X0301051Y0010513D01*
X0300981Y0010472D01*
X0300910Y0010434D01*
X0300837Y0010400D01*
X0300763Y0010369D01*
X0300687Y0010341D01*
X0300610Y0010317D01*
X0300532Y0010297D01*
X0300453Y0010280D01*
X0300373Y0010267D01*
X0300293Y0010257D01*
X0300213Y0010252D01*
X0300132Y0010250D01*
X0300076Y0010252D01*
X0300020Y0010258D01*
X0299965Y0010267D01*
X0299910Y0010280D01*
X0299857Y0010297D01*
X0299805Y0010318D01*
X0299754Y0010342D01*
X0299705Y0010370D01*
X0299658Y0010400D01*
X0299613Y0010434D01*
X0299571Y0010471D01*
X0299531Y0010511D01*
X0299494Y0010553D01*
X0299460Y0010598D01*
X0299430Y0010645D01*
X0299402Y0010694D01*
X0299378Y0010745D01*
X0299357Y0010797D01*
X0299340Y0010850D01*
X0299327Y0010905D01*
X0299318Y0010960D01*
X0299312Y0011016D01*
X0299310Y0011072D01*
X0299312Y0011126D01*
X0299317Y0011180D01*
X0299326Y0011234D01*
X0299338Y0011286D01*
X0299354Y0011338D01*
X0299372Y0011389D01*
X0299395Y0011438D01*
X0299420Y0011486D01*
X0299448Y0011532D01*
X0299480Y0011577D01*
X0299514Y0011619D01*
X0299551Y0011658D01*
X0299590Y0011696D01*
X0299632Y0011730D01*
X0299675Y0011762D01*
X0299721Y0011791D01*
X0304215Y0010250D02*
X0305037Y0011072D01*
X0304626Y0011278D02*
X0304626Y0012922D01*
X0304628Y0012985D01*
X0304634Y0013048D01*
X0304644Y0013111D01*
X0304657Y0013173D01*
X0304674Y0013234D01*
X0304695Y0013293D01*
X0304720Y0013352D01*
X0304748Y0013408D01*
X0304780Y0013463D01*
X0304815Y0013516D01*
X0304853Y0013566D01*
X0304894Y0013615D01*
X0304938Y0013660D01*
X0304985Y0013703D01*
X0305034Y0013742D01*
X0305086Y0013779D01*
X0305140Y0013812D01*
X0305196Y0013842D01*
X0305253Y0013869D01*
X0305312Y0013892D01*
X0305373Y0013911D01*
X0305434Y0013926D01*
X0305496Y0013938D01*
X0305559Y0013946D01*
X0305622Y0013950D01*
X0305686Y0013950D01*
X0305749Y0013946D01*
X0305812Y0013938D01*
X0305874Y0013926D01*
X0305935Y0013911D01*
X0305996Y0013892D01*
X0306055Y0013869D01*
X0306112Y0013842D01*
X0306168Y0013812D01*
X0306222Y0013779D01*
X0306274Y0013742D01*
X0306323Y0013703D01*
X0306370Y0013660D01*
X0306414Y0013615D01*
X0306455Y0013566D01*
X0306493Y0013516D01*
X0306528Y0013463D01*
X0306560Y0013408D01*
X0306588Y0013352D01*
X0306613Y0013293D01*
X0306634Y0013234D01*
X0306651Y0013173D01*
X0306664Y0013111D01*
X0306674Y0013048D01*
X0306680Y0012985D01*
X0306682Y0012922D01*
X0306682Y0011278D01*
X0306680Y0011215D01*
X0306674Y0011152D01*
X0306664Y0011089D01*
X0306651Y0011027D01*
X0306634Y0010966D01*
X0306613Y0010907D01*
X0306588Y0010848D01*
X0306560Y0010792D01*
X0306528Y0010737D01*
X0306493Y0010684D01*
X0306455Y0010634D01*
X0306414Y0010585D01*
X0306370Y0010540D01*
X0306323Y0010497D01*
X0306274Y0010458D01*
X0306222Y0010421D01*
X0306168Y0010388D01*
X0306112Y0010358D01*
X0306055Y0010331D01*
X0305996Y0010308D01*
X0305935Y0010289D01*
X0305874Y0010274D01*
X0305812Y0010262D01*
X0305749Y0010254D01*
X0305686Y0010250D01*
X0305622Y0010250D01*
X0305559Y0010254D01*
X0305496Y0010262D01*
X0305434Y0010274D01*
X0305373Y0010289D01*
X0305312Y0010308D01*
X0305253Y0010331D01*
X0305196Y0010358D01*
X0305140Y0010388D01*
X0305086Y0010421D01*
X0305034Y0010458D01*
X0304985Y0010497D01*
X0304938Y0010540D01*
X0304894Y0010585D01*
X0304853Y0010634D01*
X0304815Y0010684D01*
X0304780Y0010737D01*
X0304748Y0010792D01*
X0304720Y0010848D01*
X0304695Y0010907D01*
X0304674Y0010966D01*
X0304657Y0011027D01*
X0304644Y0011089D01*
X0304634Y0011152D01*
X0304628Y0011215D01*
X0304626Y0011278D01*
X0308584Y0010250D02*
X0308584Y0013950D01*
X0309817Y0011894D01*
X0311051Y0013950D01*
X0311051Y0010250D01*
M02*
