G75*
%MOIN*%
%OFA0B0*%
%FSLAX25Y25*%
%IPPOS*%
%LPD*%
%AMOC8*
5,1,8,0,0,1.08239X$1,22.5*
%
%ADD10C,0.00000*%
%ADD11C,0.00600*%
%ADD12R,0.10000X0.03000*%
%ADD13R,0.05118X0.05906*%
%ADD14R,0.04000X0.04724*%
D10*
X0013520Y0011600D02*
X0013520Y0311561D01*
X0013523Y0311803D01*
X0013532Y0312044D01*
X0013546Y0312285D01*
X0013567Y0312526D01*
X0013593Y0312766D01*
X0013625Y0313006D01*
X0013663Y0313245D01*
X0013706Y0313482D01*
X0013756Y0313719D01*
X0013811Y0313954D01*
X0013871Y0314188D01*
X0013938Y0314420D01*
X0014009Y0314651D01*
X0014087Y0314880D01*
X0014170Y0315107D01*
X0014258Y0315332D01*
X0014352Y0315555D01*
X0014451Y0315775D01*
X0014556Y0315993D01*
X0014665Y0316208D01*
X0014780Y0316421D01*
X0014900Y0316631D01*
X0015025Y0316837D01*
X0015155Y0317041D01*
X0015290Y0317242D01*
X0015430Y0317439D01*
X0015574Y0317633D01*
X0015723Y0317823D01*
X0015877Y0318009D01*
X0016035Y0318192D01*
X0016197Y0318371D01*
X0016364Y0318546D01*
X0016535Y0318717D01*
X0016710Y0318884D01*
X0016889Y0319046D01*
X0017072Y0319204D01*
X0017258Y0319358D01*
X0017448Y0319507D01*
X0017642Y0319651D01*
X0017839Y0319791D01*
X0018040Y0319926D01*
X0018244Y0320056D01*
X0018450Y0320181D01*
X0018660Y0320301D01*
X0018873Y0320416D01*
X0019088Y0320525D01*
X0019306Y0320630D01*
X0019526Y0320729D01*
X0019749Y0320823D01*
X0019974Y0320911D01*
X0020201Y0320994D01*
X0020430Y0321072D01*
X0020661Y0321143D01*
X0020893Y0321210D01*
X0021127Y0321270D01*
X0021362Y0321325D01*
X0021599Y0321375D01*
X0021836Y0321418D01*
X0022075Y0321456D01*
X0022315Y0321488D01*
X0022555Y0321514D01*
X0022796Y0321535D01*
X0023037Y0321549D01*
X0023278Y0321558D01*
X0023520Y0321561D01*
X0332260Y0321561D01*
X0332501Y0321558D01*
X0332741Y0321549D01*
X0332982Y0321535D01*
X0333221Y0321514D01*
X0333461Y0321488D01*
X0333699Y0321456D01*
X0333937Y0321419D01*
X0334174Y0321375D01*
X0334409Y0321326D01*
X0334644Y0321272D01*
X0334877Y0321211D01*
X0335108Y0321145D01*
X0335338Y0321073D01*
X0335566Y0320996D01*
X0335792Y0320914D01*
X0336016Y0320826D01*
X0336238Y0320732D01*
X0336458Y0320633D01*
X0336675Y0320529D01*
X0336889Y0320420D01*
X0337101Y0320306D01*
X0337310Y0320186D01*
X0337516Y0320062D01*
X0337719Y0319932D01*
X0337918Y0319798D01*
X0338115Y0319659D01*
X0338308Y0319515D01*
X0338497Y0319366D01*
X0338683Y0319213D01*
X0338865Y0319056D01*
X0339044Y0318894D01*
X0339218Y0318728D01*
X0339388Y0318558D01*
X0339554Y0318384D01*
X0339716Y0318205D01*
X0339873Y0318023D01*
X0340026Y0317837D01*
X0340175Y0317648D01*
X0340319Y0317455D01*
X0340458Y0317258D01*
X0340592Y0317059D01*
X0340722Y0316856D01*
X0340846Y0316650D01*
X0340966Y0316441D01*
X0341080Y0316229D01*
X0341189Y0316015D01*
X0341293Y0315798D01*
X0341392Y0315578D01*
X0341486Y0315356D01*
X0341574Y0315132D01*
X0341656Y0314906D01*
X0341733Y0314678D01*
X0341805Y0314448D01*
X0341871Y0314217D01*
X0341932Y0313984D01*
X0341986Y0313749D01*
X0342035Y0313514D01*
X0342079Y0313277D01*
X0342116Y0313039D01*
X0342148Y0312801D01*
X0342174Y0312561D01*
X0342195Y0312322D01*
X0342209Y0312081D01*
X0342218Y0311841D01*
X0342221Y0311600D01*
X0342220Y0311600D02*
X0342220Y0010301D01*
X0342221Y0010301D02*
X0342218Y0010091D01*
X0342211Y0009881D01*
X0342198Y0009671D01*
X0342180Y0009461D01*
X0342158Y0009252D01*
X0342130Y0009044D01*
X0342097Y0008836D01*
X0342059Y0008629D01*
X0342016Y0008423D01*
X0341968Y0008219D01*
X0341915Y0008015D01*
X0341858Y0007813D01*
X0341795Y0007612D01*
X0341728Y0007413D01*
X0341656Y0007216D01*
X0341579Y0007020D01*
X0341497Y0006826D01*
X0341411Y0006634D01*
X0341320Y0006445D01*
X0341224Y0006257D01*
X0341124Y0006072D01*
X0341020Y0005890D01*
X0340911Y0005710D01*
X0340798Y0005533D01*
X0340681Y0005358D01*
X0340559Y0005187D01*
X0340434Y0005018D01*
X0340304Y0004853D01*
X0340170Y0004690D01*
X0340033Y0004531D01*
X0339891Y0004375D01*
X0339746Y0004223D01*
X0339598Y0004075D01*
X0339446Y0003930D01*
X0339290Y0003788D01*
X0339131Y0003651D01*
X0338968Y0003517D01*
X0338803Y0003387D01*
X0338634Y0003262D01*
X0338463Y0003140D01*
X0338288Y0003023D01*
X0338111Y0002910D01*
X0337931Y0002801D01*
X0337749Y0002697D01*
X0337564Y0002597D01*
X0337376Y0002501D01*
X0337187Y0002410D01*
X0336995Y0002324D01*
X0336801Y0002242D01*
X0336605Y0002165D01*
X0336408Y0002093D01*
X0336209Y0002026D01*
X0336008Y0001963D01*
X0335806Y0001906D01*
X0335602Y0001853D01*
X0335398Y0001805D01*
X0335192Y0001762D01*
X0334985Y0001724D01*
X0334777Y0001691D01*
X0334569Y0001663D01*
X0334360Y0001641D01*
X0334150Y0001623D01*
X0333940Y0001610D01*
X0333730Y0001603D01*
X0333520Y0001600D01*
X0023520Y0001600D01*
X0023278Y0001603D01*
X0023037Y0001612D01*
X0022796Y0001626D01*
X0022555Y0001647D01*
X0022315Y0001673D01*
X0022075Y0001705D01*
X0021836Y0001743D01*
X0021599Y0001786D01*
X0021362Y0001836D01*
X0021127Y0001891D01*
X0020893Y0001951D01*
X0020661Y0002018D01*
X0020430Y0002089D01*
X0020201Y0002167D01*
X0019974Y0002250D01*
X0019749Y0002338D01*
X0019526Y0002432D01*
X0019306Y0002531D01*
X0019088Y0002636D01*
X0018873Y0002745D01*
X0018660Y0002860D01*
X0018450Y0002980D01*
X0018244Y0003105D01*
X0018040Y0003235D01*
X0017839Y0003370D01*
X0017642Y0003510D01*
X0017448Y0003654D01*
X0017258Y0003803D01*
X0017072Y0003957D01*
X0016889Y0004115D01*
X0016710Y0004277D01*
X0016535Y0004444D01*
X0016364Y0004615D01*
X0016197Y0004790D01*
X0016035Y0004969D01*
X0015877Y0005152D01*
X0015723Y0005338D01*
X0015574Y0005528D01*
X0015430Y0005722D01*
X0015290Y0005919D01*
X0015155Y0006120D01*
X0015025Y0006324D01*
X0014900Y0006530D01*
X0014780Y0006740D01*
X0014665Y0006953D01*
X0014556Y0007168D01*
X0014451Y0007386D01*
X0014352Y0007606D01*
X0014258Y0007829D01*
X0014170Y0008054D01*
X0014087Y0008281D01*
X0014009Y0008510D01*
X0013938Y0008741D01*
X0013871Y0008973D01*
X0013811Y0009207D01*
X0013756Y0009442D01*
X0013706Y0009679D01*
X0013663Y0009916D01*
X0013625Y0010155D01*
X0013593Y0010395D01*
X0013567Y0010635D01*
X0013546Y0010876D01*
X0013532Y0011117D01*
X0013523Y0011358D01*
X0013520Y0011600D01*
D11*
X0018520Y0011600D02*
X0018522Y0011741D01*
X0018528Y0011882D01*
X0018538Y0012022D01*
X0018552Y0012162D01*
X0018570Y0012302D01*
X0018591Y0012441D01*
X0018617Y0012580D01*
X0018646Y0012718D01*
X0018680Y0012854D01*
X0018717Y0012990D01*
X0018758Y0013125D01*
X0018803Y0013259D01*
X0018852Y0013391D01*
X0018904Y0013522D01*
X0018960Y0013651D01*
X0019020Y0013778D01*
X0019083Y0013904D01*
X0019149Y0014028D01*
X0019220Y0014151D01*
X0019293Y0014271D01*
X0019370Y0014389D01*
X0019450Y0014505D01*
X0019534Y0014618D01*
X0019620Y0014729D01*
X0019710Y0014838D01*
X0019803Y0014944D01*
X0019898Y0015047D01*
X0019997Y0015148D01*
X0020098Y0015246D01*
X0020202Y0015341D01*
X0020309Y0015433D01*
X0020418Y0015522D01*
X0020530Y0015607D01*
X0020644Y0015690D01*
X0020760Y0015770D01*
X0020879Y0015846D01*
X0021000Y0015918D01*
X0021122Y0015988D01*
X0021247Y0016053D01*
X0021373Y0016116D01*
X0021501Y0016174D01*
X0021631Y0016229D01*
X0021762Y0016281D01*
X0021895Y0016328D01*
X0022029Y0016372D01*
X0022164Y0016413D01*
X0022300Y0016449D01*
X0022437Y0016481D01*
X0022575Y0016510D01*
X0022713Y0016535D01*
X0022853Y0016555D01*
X0022993Y0016572D01*
X0023133Y0016585D01*
X0023274Y0016594D01*
X0023414Y0016599D01*
X0023555Y0016600D01*
X0023696Y0016597D01*
X0023837Y0016590D01*
X0023977Y0016579D01*
X0024117Y0016564D01*
X0024257Y0016545D01*
X0024396Y0016523D01*
X0024534Y0016496D01*
X0024672Y0016466D01*
X0024808Y0016431D01*
X0024944Y0016393D01*
X0025078Y0016351D01*
X0025212Y0016305D01*
X0025344Y0016256D01*
X0025474Y0016202D01*
X0025603Y0016145D01*
X0025730Y0016085D01*
X0025856Y0016021D01*
X0025979Y0015953D01*
X0026101Y0015882D01*
X0026221Y0015808D01*
X0026338Y0015730D01*
X0026453Y0015649D01*
X0026566Y0015565D01*
X0026677Y0015478D01*
X0026785Y0015387D01*
X0026890Y0015294D01*
X0026993Y0015197D01*
X0027093Y0015098D01*
X0027190Y0014996D01*
X0027284Y0014891D01*
X0027375Y0014784D01*
X0027463Y0014674D01*
X0027548Y0014562D01*
X0027630Y0014447D01*
X0027709Y0014330D01*
X0027784Y0014211D01*
X0027856Y0014090D01*
X0027924Y0013967D01*
X0027989Y0013842D01*
X0028051Y0013715D01*
X0028108Y0013586D01*
X0028163Y0013456D01*
X0028213Y0013325D01*
X0028260Y0013192D01*
X0028303Y0013058D01*
X0028342Y0012922D01*
X0028377Y0012786D01*
X0028409Y0012649D01*
X0028436Y0012511D01*
X0028460Y0012372D01*
X0028480Y0012232D01*
X0028496Y0012092D01*
X0028508Y0011952D01*
X0028516Y0011811D01*
X0028520Y0011670D01*
X0028520Y0011530D01*
X0028516Y0011389D01*
X0028508Y0011248D01*
X0028496Y0011108D01*
X0028480Y0010968D01*
X0028460Y0010828D01*
X0028436Y0010689D01*
X0028409Y0010551D01*
X0028377Y0010414D01*
X0028342Y0010278D01*
X0028303Y0010142D01*
X0028260Y0010008D01*
X0028213Y0009875D01*
X0028163Y0009744D01*
X0028108Y0009614D01*
X0028051Y0009485D01*
X0027989Y0009358D01*
X0027924Y0009233D01*
X0027856Y0009110D01*
X0027784Y0008989D01*
X0027709Y0008870D01*
X0027630Y0008753D01*
X0027548Y0008638D01*
X0027463Y0008526D01*
X0027375Y0008416D01*
X0027284Y0008309D01*
X0027190Y0008204D01*
X0027093Y0008102D01*
X0026993Y0008003D01*
X0026890Y0007906D01*
X0026785Y0007813D01*
X0026677Y0007722D01*
X0026566Y0007635D01*
X0026453Y0007551D01*
X0026338Y0007470D01*
X0026221Y0007392D01*
X0026101Y0007318D01*
X0025979Y0007247D01*
X0025856Y0007179D01*
X0025730Y0007115D01*
X0025603Y0007055D01*
X0025474Y0006998D01*
X0025344Y0006944D01*
X0025212Y0006895D01*
X0025078Y0006849D01*
X0024944Y0006807D01*
X0024808Y0006769D01*
X0024672Y0006734D01*
X0024534Y0006704D01*
X0024396Y0006677D01*
X0024257Y0006655D01*
X0024117Y0006636D01*
X0023977Y0006621D01*
X0023837Y0006610D01*
X0023696Y0006603D01*
X0023555Y0006600D01*
X0023414Y0006601D01*
X0023274Y0006606D01*
X0023133Y0006615D01*
X0022993Y0006628D01*
X0022853Y0006645D01*
X0022713Y0006665D01*
X0022575Y0006690D01*
X0022437Y0006719D01*
X0022300Y0006751D01*
X0022164Y0006787D01*
X0022029Y0006828D01*
X0021895Y0006872D01*
X0021762Y0006919D01*
X0021631Y0006971D01*
X0021501Y0007026D01*
X0021373Y0007084D01*
X0021247Y0007147D01*
X0021122Y0007212D01*
X0021000Y0007282D01*
X0020879Y0007354D01*
X0020760Y0007430D01*
X0020644Y0007510D01*
X0020530Y0007593D01*
X0020418Y0007678D01*
X0020309Y0007767D01*
X0020202Y0007859D01*
X0020098Y0007954D01*
X0019997Y0008052D01*
X0019898Y0008153D01*
X0019803Y0008256D01*
X0019710Y0008362D01*
X0019620Y0008471D01*
X0019534Y0008582D01*
X0019450Y0008695D01*
X0019370Y0008811D01*
X0019293Y0008929D01*
X0019220Y0009049D01*
X0019149Y0009172D01*
X0019083Y0009296D01*
X0019020Y0009422D01*
X0018960Y0009549D01*
X0018904Y0009678D01*
X0018852Y0009809D01*
X0018803Y0009941D01*
X0018758Y0010075D01*
X0018717Y0010210D01*
X0018680Y0010346D01*
X0018646Y0010482D01*
X0018617Y0010620D01*
X0018591Y0010759D01*
X0018570Y0010898D01*
X0018552Y0011038D01*
X0018538Y0011178D01*
X0018528Y0011318D01*
X0018522Y0011459D01*
X0018520Y0011600D01*
X0166630Y0071600D02*
X0166632Y0071769D01*
X0166638Y0071938D01*
X0166649Y0072107D01*
X0166663Y0072275D01*
X0166682Y0072443D01*
X0166705Y0072611D01*
X0166731Y0072778D01*
X0166762Y0072944D01*
X0166797Y0073110D01*
X0166836Y0073274D01*
X0166880Y0073438D01*
X0166927Y0073600D01*
X0166978Y0073761D01*
X0167033Y0073921D01*
X0167092Y0074080D01*
X0167154Y0074237D01*
X0167221Y0074392D01*
X0167292Y0074546D01*
X0167366Y0074698D01*
X0167444Y0074848D01*
X0167525Y0074996D01*
X0167610Y0075142D01*
X0167699Y0075286D01*
X0167791Y0075428D01*
X0167887Y0075567D01*
X0167986Y0075704D01*
X0168088Y0075839D01*
X0168194Y0075971D01*
X0168303Y0076100D01*
X0168415Y0076227D01*
X0168530Y0076351D01*
X0168648Y0076472D01*
X0168769Y0076590D01*
X0168893Y0076705D01*
X0169020Y0076817D01*
X0169149Y0076926D01*
X0169281Y0077032D01*
X0169416Y0077134D01*
X0169553Y0077233D01*
X0169692Y0077329D01*
X0169834Y0077421D01*
X0169978Y0077510D01*
X0170124Y0077595D01*
X0170272Y0077676D01*
X0170422Y0077754D01*
X0170574Y0077828D01*
X0170728Y0077899D01*
X0170883Y0077966D01*
X0171040Y0078028D01*
X0171199Y0078087D01*
X0171359Y0078142D01*
X0171520Y0078193D01*
X0171682Y0078240D01*
X0171846Y0078284D01*
X0172010Y0078323D01*
X0172176Y0078358D01*
X0172342Y0078389D01*
X0172509Y0078415D01*
X0172677Y0078438D01*
X0172845Y0078457D01*
X0173013Y0078471D01*
X0173182Y0078482D01*
X0173351Y0078488D01*
X0173520Y0078490D01*
X0173689Y0078488D01*
X0173858Y0078482D01*
X0174027Y0078471D01*
X0174195Y0078457D01*
X0174363Y0078438D01*
X0174531Y0078415D01*
X0174698Y0078389D01*
X0174864Y0078358D01*
X0175030Y0078323D01*
X0175194Y0078284D01*
X0175358Y0078240D01*
X0175520Y0078193D01*
X0175681Y0078142D01*
X0175841Y0078087D01*
X0176000Y0078028D01*
X0176157Y0077966D01*
X0176312Y0077899D01*
X0176466Y0077828D01*
X0176618Y0077754D01*
X0176768Y0077676D01*
X0176916Y0077595D01*
X0177062Y0077510D01*
X0177206Y0077421D01*
X0177348Y0077329D01*
X0177487Y0077233D01*
X0177624Y0077134D01*
X0177759Y0077032D01*
X0177891Y0076926D01*
X0178020Y0076817D01*
X0178147Y0076705D01*
X0178271Y0076590D01*
X0178392Y0076472D01*
X0178510Y0076351D01*
X0178625Y0076227D01*
X0178737Y0076100D01*
X0178846Y0075971D01*
X0178952Y0075839D01*
X0179054Y0075704D01*
X0179153Y0075567D01*
X0179249Y0075428D01*
X0179341Y0075286D01*
X0179430Y0075142D01*
X0179515Y0074996D01*
X0179596Y0074848D01*
X0179674Y0074698D01*
X0179748Y0074546D01*
X0179819Y0074392D01*
X0179886Y0074237D01*
X0179948Y0074080D01*
X0180007Y0073921D01*
X0180062Y0073761D01*
X0180113Y0073600D01*
X0180160Y0073438D01*
X0180204Y0073274D01*
X0180243Y0073110D01*
X0180278Y0072944D01*
X0180309Y0072778D01*
X0180335Y0072611D01*
X0180358Y0072443D01*
X0180377Y0072275D01*
X0180391Y0072107D01*
X0180402Y0071938D01*
X0180408Y0071769D01*
X0180410Y0071600D01*
X0180408Y0071431D01*
X0180402Y0071262D01*
X0180391Y0071093D01*
X0180377Y0070925D01*
X0180358Y0070757D01*
X0180335Y0070589D01*
X0180309Y0070422D01*
X0180278Y0070256D01*
X0180243Y0070090D01*
X0180204Y0069926D01*
X0180160Y0069762D01*
X0180113Y0069600D01*
X0180062Y0069439D01*
X0180007Y0069279D01*
X0179948Y0069120D01*
X0179886Y0068963D01*
X0179819Y0068808D01*
X0179748Y0068654D01*
X0179674Y0068502D01*
X0179596Y0068352D01*
X0179515Y0068204D01*
X0179430Y0068058D01*
X0179341Y0067914D01*
X0179249Y0067772D01*
X0179153Y0067633D01*
X0179054Y0067496D01*
X0178952Y0067361D01*
X0178846Y0067229D01*
X0178737Y0067100D01*
X0178625Y0066973D01*
X0178510Y0066849D01*
X0178392Y0066728D01*
X0178271Y0066610D01*
X0178147Y0066495D01*
X0178020Y0066383D01*
X0177891Y0066274D01*
X0177759Y0066168D01*
X0177624Y0066066D01*
X0177487Y0065967D01*
X0177348Y0065871D01*
X0177206Y0065779D01*
X0177062Y0065690D01*
X0176916Y0065605D01*
X0176768Y0065524D01*
X0176618Y0065446D01*
X0176466Y0065372D01*
X0176312Y0065301D01*
X0176157Y0065234D01*
X0176000Y0065172D01*
X0175841Y0065113D01*
X0175681Y0065058D01*
X0175520Y0065007D01*
X0175358Y0064960D01*
X0175194Y0064916D01*
X0175030Y0064877D01*
X0174864Y0064842D01*
X0174698Y0064811D01*
X0174531Y0064785D01*
X0174363Y0064762D01*
X0174195Y0064743D01*
X0174027Y0064729D01*
X0173858Y0064718D01*
X0173689Y0064712D01*
X0173520Y0064710D01*
X0173351Y0064712D01*
X0173182Y0064718D01*
X0173013Y0064729D01*
X0172845Y0064743D01*
X0172677Y0064762D01*
X0172509Y0064785D01*
X0172342Y0064811D01*
X0172176Y0064842D01*
X0172010Y0064877D01*
X0171846Y0064916D01*
X0171682Y0064960D01*
X0171520Y0065007D01*
X0171359Y0065058D01*
X0171199Y0065113D01*
X0171040Y0065172D01*
X0170883Y0065234D01*
X0170728Y0065301D01*
X0170574Y0065372D01*
X0170422Y0065446D01*
X0170272Y0065524D01*
X0170124Y0065605D01*
X0169978Y0065690D01*
X0169834Y0065779D01*
X0169692Y0065871D01*
X0169553Y0065967D01*
X0169416Y0066066D01*
X0169281Y0066168D01*
X0169149Y0066274D01*
X0169020Y0066383D01*
X0168893Y0066495D01*
X0168769Y0066610D01*
X0168648Y0066728D01*
X0168530Y0066849D01*
X0168415Y0066973D01*
X0168303Y0067100D01*
X0168194Y0067229D01*
X0168088Y0067361D01*
X0167986Y0067496D01*
X0167887Y0067633D01*
X0167791Y0067772D01*
X0167699Y0067914D01*
X0167610Y0068058D01*
X0167525Y0068204D01*
X0167444Y0068352D01*
X0167366Y0068502D01*
X0167292Y0068654D01*
X0167221Y0068808D01*
X0167154Y0068963D01*
X0167092Y0069120D01*
X0167033Y0069279D01*
X0166978Y0069439D01*
X0166927Y0069600D01*
X0166880Y0069762D01*
X0166836Y0069926D01*
X0166797Y0070090D01*
X0166762Y0070256D01*
X0166731Y0070422D01*
X0166705Y0070589D01*
X0166682Y0070757D01*
X0166663Y0070925D01*
X0166649Y0071093D01*
X0166638Y0071262D01*
X0166632Y0071431D01*
X0166630Y0071600D01*
X0327417Y0011600D02*
X0327419Y0011741D01*
X0327425Y0011882D01*
X0327435Y0012022D01*
X0327449Y0012162D01*
X0327467Y0012302D01*
X0327488Y0012441D01*
X0327514Y0012580D01*
X0327543Y0012718D01*
X0327577Y0012854D01*
X0327614Y0012990D01*
X0327655Y0013125D01*
X0327700Y0013259D01*
X0327749Y0013391D01*
X0327801Y0013522D01*
X0327857Y0013651D01*
X0327917Y0013778D01*
X0327980Y0013904D01*
X0328046Y0014028D01*
X0328117Y0014151D01*
X0328190Y0014271D01*
X0328267Y0014389D01*
X0328347Y0014505D01*
X0328431Y0014618D01*
X0328517Y0014729D01*
X0328607Y0014838D01*
X0328700Y0014944D01*
X0328795Y0015047D01*
X0328894Y0015148D01*
X0328995Y0015246D01*
X0329099Y0015341D01*
X0329206Y0015433D01*
X0329315Y0015522D01*
X0329427Y0015607D01*
X0329541Y0015690D01*
X0329657Y0015770D01*
X0329776Y0015846D01*
X0329897Y0015918D01*
X0330019Y0015988D01*
X0330144Y0016053D01*
X0330270Y0016116D01*
X0330398Y0016174D01*
X0330528Y0016229D01*
X0330659Y0016281D01*
X0330792Y0016328D01*
X0330926Y0016372D01*
X0331061Y0016413D01*
X0331197Y0016449D01*
X0331334Y0016481D01*
X0331472Y0016510D01*
X0331610Y0016535D01*
X0331750Y0016555D01*
X0331890Y0016572D01*
X0332030Y0016585D01*
X0332171Y0016594D01*
X0332311Y0016599D01*
X0332452Y0016600D01*
X0332593Y0016597D01*
X0332734Y0016590D01*
X0332874Y0016579D01*
X0333014Y0016564D01*
X0333154Y0016545D01*
X0333293Y0016523D01*
X0333431Y0016496D01*
X0333569Y0016466D01*
X0333705Y0016431D01*
X0333841Y0016393D01*
X0333975Y0016351D01*
X0334109Y0016305D01*
X0334241Y0016256D01*
X0334371Y0016202D01*
X0334500Y0016145D01*
X0334627Y0016085D01*
X0334753Y0016021D01*
X0334876Y0015953D01*
X0334998Y0015882D01*
X0335118Y0015808D01*
X0335235Y0015730D01*
X0335350Y0015649D01*
X0335463Y0015565D01*
X0335574Y0015478D01*
X0335682Y0015387D01*
X0335787Y0015294D01*
X0335890Y0015197D01*
X0335990Y0015098D01*
X0336087Y0014996D01*
X0336181Y0014891D01*
X0336272Y0014784D01*
X0336360Y0014674D01*
X0336445Y0014562D01*
X0336527Y0014447D01*
X0336606Y0014330D01*
X0336681Y0014211D01*
X0336753Y0014090D01*
X0336821Y0013967D01*
X0336886Y0013842D01*
X0336948Y0013715D01*
X0337005Y0013586D01*
X0337060Y0013456D01*
X0337110Y0013325D01*
X0337157Y0013192D01*
X0337200Y0013058D01*
X0337239Y0012922D01*
X0337274Y0012786D01*
X0337306Y0012649D01*
X0337333Y0012511D01*
X0337357Y0012372D01*
X0337377Y0012232D01*
X0337393Y0012092D01*
X0337405Y0011952D01*
X0337413Y0011811D01*
X0337417Y0011670D01*
X0337417Y0011530D01*
X0337413Y0011389D01*
X0337405Y0011248D01*
X0337393Y0011108D01*
X0337377Y0010968D01*
X0337357Y0010828D01*
X0337333Y0010689D01*
X0337306Y0010551D01*
X0337274Y0010414D01*
X0337239Y0010278D01*
X0337200Y0010142D01*
X0337157Y0010008D01*
X0337110Y0009875D01*
X0337060Y0009744D01*
X0337005Y0009614D01*
X0336948Y0009485D01*
X0336886Y0009358D01*
X0336821Y0009233D01*
X0336753Y0009110D01*
X0336681Y0008989D01*
X0336606Y0008870D01*
X0336527Y0008753D01*
X0336445Y0008638D01*
X0336360Y0008526D01*
X0336272Y0008416D01*
X0336181Y0008309D01*
X0336087Y0008204D01*
X0335990Y0008102D01*
X0335890Y0008003D01*
X0335787Y0007906D01*
X0335682Y0007813D01*
X0335574Y0007722D01*
X0335463Y0007635D01*
X0335350Y0007551D01*
X0335235Y0007470D01*
X0335118Y0007392D01*
X0334998Y0007318D01*
X0334876Y0007247D01*
X0334753Y0007179D01*
X0334627Y0007115D01*
X0334500Y0007055D01*
X0334371Y0006998D01*
X0334241Y0006944D01*
X0334109Y0006895D01*
X0333975Y0006849D01*
X0333841Y0006807D01*
X0333705Y0006769D01*
X0333569Y0006734D01*
X0333431Y0006704D01*
X0333293Y0006677D01*
X0333154Y0006655D01*
X0333014Y0006636D01*
X0332874Y0006621D01*
X0332734Y0006610D01*
X0332593Y0006603D01*
X0332452Y0006600D01*
X0332311Y0006601D01*
X0332171Y0006606D01*
X0332030Y0006615D01*
X0331890Y0006628D01*
X0331750Y0006645D01*
X0331610Y0006665D01*
X0331472Y0006690D01*
X0331334Y0006719D01*
X0331197Y0006751D01*
X0331061Y0006787D01*
X0330926Y0006828D01*
X0330792Y0006872D01*
X0330659Y0006919D01*
X0330528Y0006971D01*
X0330398Y0007026D01*
X0330270Y0007084D01*
X0330144Y0007147D01*
X0330019Y0007212D01*
X0329897Y0007282D01*
X0329776Y0007354D01*
X0329657Y0007430D01*
X0329541Y0007510D01*
X0329427Y0007593D01*
X0329315Y0007678D01*
X0329206Y0007767D01*
X0329099Y0007859D01*
X0328995Y0007954D01*
X0328894Y0008052D01*
X0328795Y0008153D01*
X0328700Y0008256D01*
X0328607Y0008362D01*
X0328517Y0008471D01*
X0328431Y0008582D01*
X0328347Y0008695D01*
X0328267Y0008811D01*
X0328190Y0008929D01*
X0328117Y0009049D01*
X0328046Y0009172D01*
X0327980Y0009296D01*
X0327917Y0009422D01*
X0327857Y0009549D01*
X0327801Y0009678D01*
X0327749Y0009809D01*
X0327700Y0009941D01*
X0327655Y0010075D01*
X0327614Y0010210D01*
X0327577Y0010346D01*
X0327543Y0010482D01*
X0327514Y0010620D01*
X0327488Y0010759D01*
X0327467Y0010898D01*
X0327449Y0011038D01*
X0327435Y0011178D01*
X0327425Y0011318D01*
X0327419Y0011459D01*
X0327417Y0011600D01*
X0166630Y0266600D02*
X0166632Y0266769D01*
X0166638Y0266938D01*
X0166649Y0267107D01*
X0166663Y0267275D01*
X0166682Y0267443D01*
X0166705Y0267611D01*
X0166731Y0267778D01*
X0166762Y0267944D01*
X0166797Y0268110D01*
X0166836Y0268274D01*
X0166880Y0268438D01*
X0166927Y0268600D01*
X0166978Y0268761D01*
X0167033Y0268921D01*
X0167092Y0269080D01*
X0167154Y0269237D01*
X0167221Y0269392D01*
X0167292Y0269546D01*
X0167366Y0269698D01*
X0167444Y0269848D01*
X0167525Y0269996D01*
X0167610Y0270142D01*
X0167699Y0270286D01*
X0167791Y0270428D01*
X0167887Y0270567D01*
X0167986Y0270704D01*
X0168088Y0270839D01*
X0168194Y0270971D01*
X0168303Y0271100D01*
X0168415Y0271227D01*
X0168530Y0271351D01*
X0168648Y0271472D01*
X0168769Y0271590D01*
X0168893Y0271705D01*
X0169020Y0271817D01*
X0169149Y0271926D01*
X0169281Y0272032D01*
X0169416Y0272134D01*
X0169553Y0272233D01*
X0169692Y0272329D01*
X0169834Y0272421D01*
X0169978Y0272510D01*
X0170124Y0272595D01*
X0170272Y0272676D01*
X0170422Y0272754D01*
X0170574Y0272828D01*
X0170728Y0272899D01*
X0170883Y0272966D01*
X0171040Y0273028D01*
X0171199Y0273087D01*
X0171359Y0273142D01*
X0171520Y0273193D01*
X0171682Y0273240D01*
X0171846Y0273284D01*
X0172010Y0273323D01*
X0172176Y0273358D01*
X0172342Y0273389D01*
X0172509Y0273415D01*
X0172677Y0273438D01*
X0172845Y0273457D01*
X0173013Y0273471D01*
X0173182Y0273482D01*
X0173351Y0273488D01*
X0173520Y0273490D01*
X0173689Y0273488D01*
X0173858Y0273482D01*
X0174027Y0273471D01*
X0174195Y0273457D01*
X0174363Y0273438D01*
X0174531Y0273415D01*
X0174698Y0273389D01*
X0174864Y0273358D01*
X0175030Y0273323D01*
X0175194Y0273284D01*
X0175358Y0273240D01*
X0175520Y0273193D01*
X0175681Y0273142D01*
X0175841Y0273087D01*
X0176000Y0273028D01*
X0176157Y0272966D01*
X0176312Y0272899D01*
X0176466Y0272828D01*
X0176618Y0272754D01*
X0176768Y0272676D01*
X0176916Y0272595D01*
X0177062Y0272510D01*
X0177206Y0272421D01*
X0177348Y0272329D01*
X0177487Y0272233D01*
X0177624Y0272134D01*
X0177759Y0272032D01*
X0177891Y0271926D01*
X0178020Y0271817D01*
X0178147Y0271705D01*
X0178271Y0271590D01*
X0178392Y0271472D01*
X0178510Y0271351D01*
X0178625Y0271227D01*
X0178737Y0271100D01*
X0178846Y0270971D01*
X0178952Y0270839D01*
X0179054Y0270704D01*
X0179153Y0270567D01*
X0179249Y0270428D01*
X0179341Y0270286D01*
X0179430Y0270142D01*
X0179515Y0269996D01*
X0179596Y0269848D01*
X0179674Y0269698D01*
X0179748Y0269546D01*
X0179819Y0269392D01*
X0179886Y0269237D01*
X0179948Y0269080D01*
X0180007Y0268921D01*
X0180062Y0268761D01*
X0180113Y0268600D01*
X0180160Y0268438D01*
X0180204Y0268274D01*
X0180243Y0268110D01*
X0180278Y0267944D01*
X0180309Y0267778D01*
X0180335Y0267611D01*
X0180358Y0267443D01*
X0180377Y0267275D01*
X0180391Y0267107D01*
X0180402Y0266938D01*
X0180408Y0266769D01*
X0180410Y0266600D01*
X0180408Y0266431D01*
X0180402Y0266262D01*
X0180391Y0266093D01*
X0180377Y0265925D01*
X0180358Y0265757D01*
X0180335Y0265589D01*
X0180309Y0265422D01*
X0180278Y0265256D01*
X0180243Y0265090D01*
X0180204Y0264926D01*
X0180160Y0264762D01*
X0180113Y0264600D01*
X0180062Y0264439D01*
X0180007Y0264279D01*
X0179948Y0264120D01*
X0179886Y0263963D01*
X0179819Y0263808D01*
X0179748Y0263654D01*
X0179674Y0263502D01*
X0179596Y0263352D01*
X0179515Y0263204D01*
X0179430Y0263058D01*
X0179341Y0262914D01*
X0179249Y0262772D01*
X0179153Y0262633D01*
X0179054Y0262496D01*
X0178952Y0262361D01*
X0178846Y0262229D01*
X0178737Y0262100D01*
X0178625Y0261973D01*
X0178510Y0261849D01*
X0178392Y0261728D01*
X0178271Y0261610D01*
X0178147Y0261495D01*
X0178020Y0261383D01*
X0177891Y0261274D01*
X0177759Y0261168D01*
X0177624Y0261066D01*
X0177487Y0260967D01*
X0177348Y0260871D01*
X0177206Y0260779D01*
X0177062Y0260690D01*
X0176916Y0260605D01*
X0176768Y0260524D01*
X0176618Y0260446D01*
X0176466Y0260372D01*
X0176312Y0260301D01*
X0176157Y0260234D01*
X0176000Y0260172D01*
X0175841Y0260113D01*
X0175681Y0260058D01*
X0175520Y0260007D01*
X0175358Y0259960D01*
X0175194Y0259916D01*
X0175030Y0259877D01*
X0174864Y0259842D01*
X0174698Y0259811D01*
X0174531Y0259785D01*
X0174363Y0259762D01*
X0174195Y0259743D01*
X0174027Y0259729D01*
X0173858Y0259718D01*
X0173689Y0259712D01*
X0173520Y0259710D01*
X0173351Y0259712D01*
X0173182Y0259718D01*
X0173013Y0259729D01*
X0172845Y0259743D01*
X0172677Y0259762D01*
X0172509Y0259785D01*
X0172342Y0259811D01*
X0172176Y0259842D01*
X0172010Y0259877D01*
X0171846Y0259916D01*
X0171682Y0259960D01*
X0171520Y0260007D01*
X0171359Y0260058D01*
X0171199Y0260113D01*
X0171040Y0260172D01*
X0170883Y0260234D01*
X0170728Y0260301D01*
X0170574Y0260372D01*
X0170422Y0260446D01*
X0170272Y0260524D01*
X0170124Y0260605D01*
X0169978Y0260690D01*
X0169834Y0260779D01*
X0169692Y0260871D01*
X0169553Y0260967D01*
X0169416Y0261066D01*
X0169281Y0261168D01*
X0169149Y0261274D01*
X0169020Y0261383D01*
X0168893Y0261495D01*
X0168769Y0261610D01*
X0168648Y0261728D01*
X0168530Y0261849D01*
X0168415Y0261973D01*
X0168303Y0262100D01*
X0168194Y0262229D01*
X0168088Y0262361D01*
X0167986Y0262496D01*
X0167887Y0262633D01*
X0167791Y0262772D01*
X0167699Y0262914D01*
X0167610Y0263058D01*
X0167525Y0263204D01*
X0167444Y0263352D01*
X0167366Y0263502D01*
X0167292Y0263654D01*
X0167221Y0263808D01*
X0167154Y0263963D01*
X0167092Y0264120D01*
X0167033Y0264279D01*
X0166978Y0264439D01*
X0166927Y0264600D01*
X0166880Y0264762D01*
X0166836Y0264926D01*
X0166797Y0265090D01*
X0166762Y0265256D01*
X0166731Y0265422D01*
X0166705Y0265589D01*
X0166682Y0265757D01*
X0166663Y0265925D01*
X0166649Y0266093D01*
X0166638Y0266262D01*
X0166632Y0266431D01*
X0166630Y0266600D01*
X0018520Y0311600D02*
X0018522Y0311741D01*
X0018528Y0311882D01*
X0018538Y0312022D01*
X0018552Y0312162D01*
X0018570Y0312302D01*
X0018591Y0312441D01*
X0018617Y0312580D01*
X0018646Y0312718D01*
X0018680Y0312854D01*
X0018717Y0312990D01*
X0018758Y0313125D01*
X0018803Y0313259D01*
X0018852Y0313391D01*
X0018904Y0313522D01*
X0018960Y0313651D01*
X0019020Y0313778D01*
X0019083Y0313904D01*
X0019149Y0314028D01*
X0019220Y0314151D01*
X0019293Y0314271D01*
X0019370Y0314389D01*
X0019450Y0314505D01*
X0019534Y0314618D01*
X0019620Y0314729D01*
X0019710Y0314838D01*
X0019803Y0314944D01*
X0019898Y0315047D01*
X0019997Y0315148D01*
X0020098Y0315246D01*
X0020202Y0315341D01*
X0020309Y0315433D01*
X0020418Y0315522D01*
X0020530Y0315607D01*
X0020644Y0315690D01*
X0020760Y0315770D01*
X0020879Y0315846D01*
X0021000Y0315918D01*
X0021122Y0315988D01*
X0021247Y0316053D01*
X0021373Y0316116D01*
X0021501Y0316174D01*
X0021631Y0316229D01*
X0021762Y0316281D01*
X0021895Y0316328D01*
X0022029Y0316372D01*
X0022164Y0316413D01*
X0022300Y0316449D01*
X0022437Y0316481D01*
X0022575Y0316510D01*
X0022713Y0316535D01*
X0022853Y0316555D01*
X0022993Y0316572D01*
X0023133Y0316585D01*
X0023274Y0316594D01*
X0023414Y0316599D01*
X0023555Y0316600D01*
X0023696Y0316597D01*
X0023837Y0316590D01*
X0023977Y0316579D01*
X0024117Y0316564D01*
X0024257Y0316545D01*
X0024396Y0316523D01*
X0024534Y0316496D01*
X0024672Y0316466D01*
X0024808Y0316431D01*
X0024944Y0316393D01*
X0025078Y0316351D01*
X0025212Y0316305D01*
X0025344Y0316256D01*
X0025474Y0316202D01*
X0025603Y0316145D01*
X0025730Y0316085D01*
X0025856Y0316021D01*
X0025979Y0315953D01*
X0026101Y0315882D01*
X0026221Y0315808D01*
X0026338Y0315730D01*
X0026453Y0315649D01*
X0026566Y0315565D01*
X0026677Y0315478D01*
X0026785Y0315387D01*
X0026890Y0315294D01*
X0026993Y0315197D01*
X0027093Y0315098D01*
X0027190Y0314996D01*
X0027284Y0314891D01*
X0027375Y0314784D01*
X0027463Y0314674D01*
X0027548Y0314562D01*
X0027630Y0314447D01*
X0027709Y0314330D01*
X0027784Y0314211D01*
X0027856Y0314090D01*
X0027924Y0313967D01*
X0027989Y0313842D01*
X0028051Y0313715D01*
X0028108Y0313586D01*
X0028163Y0313456D01*
X0028213Y0313325D01*
X0028260Y0313192D01*
X0028303Y0313058D01*
X0028342Y0312922D01*
X0028377Y0312786D01*
X0028409Y0312649D01*
X0028436Y0312511D01*
X0028460Y0312372D01*
X0028480Y0312232D01*
X0028496Y0312092D01*
X0028508Y0311952D01*
X0028516Y0311811D01*
X0028520Y0311670D01*
X0028520Y0311530D01*
X0028516Y0311389D01*
X0028508Y0311248D01*
X0028496Y0311108D01*
X0028480Y0310968D01*
X0028460Y0310828D01*
X0028436Y0310689D01*
X0028409Y0310551D01*
X0028377Y0310414D01*
X0028342Y0310278D01*
X0028303Y0310142D01*
X0028260Y0310008D01*
X0028213Y0309875D01*
X0028163Y0309744D01*
X0028108Y0309614D01*
X0028051Y0309485D01*
X0027989Y0309358D01*
X0027924Y0309233D01*
X0027856Y0309110D01*
X0027784Y0308989D01*
X0027709Y0308870D01*
X0027630Y0308753D01*
X0027548Y0308638D01*
X0027463Y0308526D01*
X0027375Y0308416D01*
X0027284Y0308309D01*
X0027190Y0308204D01*
X0027093Y0308102D01*
X0026993Y0308003D01*
X0026890Y0307906D01*
X0026785Y0307813D01*
X0026677Y0307722D01*
X0026566Y0307635D01*
X0026453Y0307551D01*
X0026338Y0307470D01*
X0026221Y0307392D01*
X0026101Y0307318D01*
X0025979Y0307247D01*
X0025856Y0307179D01*
X0025730Y0307115D01*
X0025603Y0307055D01*
X0025474Y0306998D01*
X0025344Y0306944D01*
X0025212Y0306895D01*
X0025078Y0306849D01*
X0024944Y0306807D01*
X0024808Y0306769D01*
X0024672Y0306734D01*
X0024534Y0306704D01*
X0024396Y0306677D01*
X0024257Y0306655D01*
X0024117Y0306636D01*
X0023977Y0306621D01*
X0023837Y0306610D01*
X0023696Y0306603D01*
X0023555Y0306600D01*
X0023414Y0306601D01*
X0023274Y0306606D01*
X0023133Y0306615D01*
X0022993Y0306628D01*
X0022853Y0306645D01*
X0022713Y0306665D01*
X0022575Y0306690D01*
X0022437Y0306719D01*
X0022300Y0306751D01*
X0022164Y0306787D01*
X0022029Y0306828D01*
X0021895Y0306872D01*
X0021762Y0306919D01*
X0021631Y0306971D01*
X0021501Y0307026D01*
X0021373Y0307084D01*
X0021247Y0307147D01*
X0021122Y0307212D01*
X0021000Y0307282D01*
X0020879Y0307354D01*
X0020760Y0307430D01*
X0020644Y0307510D01*
X0020530Y0307593D01*
X0020418Y0307678D01*
X0020309Y0307767D01*
X0020202Y0307859D01*
X0020098Y0307954D01*
X0019997Y0308052D01*
X0019898Y0308153D01*
X0019803Y0308256D01*
X0019710Y0308362D01*
X0019620Y0308471D01*
X0019534Y0308582D01*
X0019450Y0308695D01*
X0019370Y0308811D01*
X0019293Y0308929D01*
X0019220Y0309049D01*
X0019149Y0309172D01*
X0019083Y0309296D01*
X0019020Y0309422D01*
X0018960Y0309549D01*
X0018904Y0309678D01*
X0018852Y0309809D01*
X0018803Y0309941D01*
X0018758Y0310075D01*
X0018717Y0310210D01*
X0018680Y0310346D01*
X0018646Y0310482D01*
X0018617Y0310620D01*
X0018591Y0310759D01*
X0018570Y0310898D01*
X0018552Y0311038D01*
X0018538Y0311178D01*
X0018528Y0311318D01*
X0018522Y0311459D01*
X0018520Y0311600D01*
X0327417Y0311600D02*
X0327419Y0311741D01*
X0327425Y0311882D01*
X0327435Y0312022D01*
X0327449Y0312162D01*
X0327467Y0312302D01*
X0327488Y0312441D01*
X0327514Y0312580D01*
X0327543Y0312718D01*
X0327577Y0312854D01*
X0327614Y0312990D01*
X0327655Y0313125D01*
X0327700Y0313259D01*
X0327749Y0313391D01*
X0327801Y0313522D01*
X0327857Y0313651D01*
X0327917Y0313778D01*
X0327980Y0313904D01*
X0328046Y0314028D01*
X0328117Y0314151D01*
X0328190Y0314271D01*
X0328267Y0314389D01*
X0328347Y0314505D01*
X0328431Y0314618D01*
X0328517Y0314729D01*
X0328607Y0314838D01*
X0328700Y0314944D01*
X0328795Y0315047D01*
X0328894Y0315148D01*
X0328995Y0315246D01*
X0329099Y0315341D01*
X0329206Y0315433D01*
X0329315Y0315522D01*
X0329427Y0315607D01*
X0329541Y0315690D01*
X0329657Y0315770D01*
X0329776Y0315846D01*
X0329897Y0315918D01*
X0330019Y0315988D01*
X0330144Y0316053D01*
X0330270Y0316116D01*
X0330398Y0316174D01*
X0330528Y0316229D01*
X0330659Y0316281D01*
X0330792Y0316328D01*
X0330926Y0316372D01*
X0331061Y0316413D01*
X0331197Y0316449D01*
X0331334Y0316481D01*
X0331472Y0316510D01*
X0331610Y0316535D01*
X0331750Y0316555D01*
X0331890Y0316572D01*
X0332030Y0316585D01*
X0332171Y0316594D01*
X0332311Y0316599D01*
X0332452Y0316600D01*
X0332593Y0316597D01*
X0332734Y0316590D01*
X0332874Y0316579D01*
X0333014Y0316564D01*
X0333154Y0316545D01*
X0333293Y0316523D01*
X0333431Y0316496D01*
X0333569Y0316466D01*
X0333705Y0316431D01*
X0333841Y0316393D01*
X0333975Y0316351D01*
X0334109Y0316305D01*
X0334241Y0316256D01*
X0334371Y0316202D01*
X0334500Y0316145D01*
X0334627Y0316085D01*
X0334753Y0316021D01*
X0334876Y0315953D01*
X0334998Y0315882D01*
X0335118Y0315808D01*
X0335235Y0315730D01*
X0335350Y0315649D01*
X0335463Y0315565D01*
X0335574Y0315478D01*
X0335682Y0315387D01*
X0335787Y0315294D01*
X0335890Y0315197D01*
X0335990Y0315098D01*
X0336087Y0314996D01*
X0336181Y0314891D01*
X0336272Y0314784D01*
X0336360Y0314674D01*
X0336445Y0314562D01*
X0336527Y0314447D01*
X0336606Y0314330D01*
X0336681Y0314211D01*
X0336753Y0314090D01*
X0336821Y0313967D01*
X0336886Y0313842D01*
X0336948Y0313715D01*
X0337005Y0313586D01*
X0337060Y0313456D01*
X0337110Y0313325D01*
X0337157Y0313192D01*
X0337200Y0313058D01*
X0337239Y0312922D01*
X0337274Y0312786D01*
X0337306Y0312649D01*
X0337333Y0312511D01*
X0337357Y0312372D01*
X0337377Y0312232D01*
X0337393Y0312092D01*
X0337405Y0311952D01*
X0337413Y0311811D01*
X0337417Y0311670D01*
X0337417Y0311530D01*
X0337413Y0311389D01*
X0337405Y0311248D01*
X0337393Y0311108D01*
X0337377Y0310968D01*
X0337357Y0310828D01*
X0337333Y0310689D01*
X0337306Y0310551D01*
X0337274Y0310414D01*
X0337239Y0310278D01*
X0337200Y0310142D01*
X0337157Y0310008D01*
X0337110Y0309875D01*
X0337060Y0309744D01*
X0337005Y0309614D01*
X0336948Y0309485D01*
X0336886Y0309358D01*
X0336821Y0309233D01*
X0336753Y0309110D01*
X0336681Y0308989D01*
X0336606Y0308870D01*
X0336527Y0308753D01*
X0336445Y0308638D01*
X0336360Y0308526D01*
X0336272Y0308416D01*
X0336181Y0308309D01*
X0336087Y0308204D01*
X0335990Y0308102D01*
X0335890Y0308003D01*
X0335787Y0307906D01*
X0335682Y0307813D01*
X0335574Y0307722D01*
X0335463Y0307635D01*
X0335350Y0307551D01*
X0335235Y0307470D01*
X0335118Y0307392D01*
X0334998Y0307318D01*
X0334876Y0307247D01*
X0334753Y0307179D01*
X0334627Y0307115D01*
X0334500Y0307055D01*
X0334371Y0306998D01*
X0334241Y0306944D01*
X0334109Y0306895D01*
X0333975Y0306849D01*
X0333841Y0306807D01*
X0333705Y0306769D01*
X0333569Y0306734D01*
X0333431Y0306704D01*
X0333293Y0306677D01*
X0333154Y0306655D01*
X0333014Y0306636D01*
X0332874Y0306621D01*
X0332734Y0306610D01*
X0332593Y0306603D01*
X0332452Y0306600D01*
X0332311Y0306601D01*
X0332171Y0306606D01*
X0332030Y0306615D01*
X0331890Y0306628D01*
X0331750Y0306645D01*
X0331610Y0306665D01*
X0331472Y0306690D01*
X0331334Y0306719D01*
X0331197Y0306751D01*
X0331061Y0306787D01*
X0330926Y0306828D01*
X0330792Y0306872D01*
X0330659Y0306919D01*
X0330528Y0306971D01*
X0330398Y0307026D01*
X0330270Y0307084D01*
X0330144Y0307147D01*
X0330019Y0307212D01*
X0329897Y0307282D01*
X0329776Y0307354D01*
X0329657Y0307430D01*
X0329541Y0307510D01*
X0329427Y0307593D01*
X0329315Y0307678D01*
X0329206Y0307767D01*
X0329099Y0307859D01*
X0328995Y0307954D01*
X0328894Y0308052D01*
X0328795Y0308153D01*
X0328700Y0308256D01*
X0328607Y0308362D01*
X0328517Y0308471D01*
X0328431Y0308582D01*
X0328347Y0308695D01*
X0328267Y0308811D01*
X0328190Y0308929D01*
X0328117Y0309049D01*
X0328046Y0309172D01*
X0327980Y0309296D01*
X0327917Y0309422D01*
X0327857Y0309549D01*
X0327801Y0309678D01*
X0327749Y0309809D01*
X0327700Y0309941D01*
X0327655Y0310075D01*
X0327614Y0310210D01*
X0327577Y0310346D01*
X0327543Y0310482D01*
X0327514Y0310620D01*
X0327488Y0310759D01*
X0327467Y0310898D01*
X0327449Y0311038D01*
X0327435Y0311178D01*
X0327425Y0311318D01*
X0327419Y0311459D01*
X0327417Y0311600D01*
D12*
X0093520Y0276600D03*
X0093520Y0271600D03*
X0093520Y0266600D03*
X0093520Y0261600D03*
X0093520Y0256600D03*
X0093520Y0251600D03*
X0093520Y0246600D03*
X0093520Y0241600D03*
D13*
X0094780Y0226600D03*
X0102260Y0226600D03*
X0082260Y0226600D03*
X0074780Y0226600D03*
X0149780Y0181600D03*
X0157260Y0181600D03*
X0169780Y0181600D03*
X0177260Y0181600D03*
X0177260Y0166600D03*
X0169780Y0166600D03*
X0157260Y0166600D03*
X0149780Y0166600D03*
X0149780Y0151600D03*
X0157260Y0151600D03*
X0169780Y0151600D03*
X0177260Y0151600D03*
D14*
X0118520Y0217427D03*
X0122260Y0225773D03*
X0114780Y0225773D03*
M02*
