G75*
%MOIN*%
%OFA0B0*%
%FSLAX25Y25*%
%IPPOS*%
%LPD*%
%AMOC8*
5,1,8,0,0,1.08239X$1,22.5*
%
%ADD10C,0.00000*%
%ADD11C,0.07400*%
%ADD12C,0.00600*%
D10*
X0001300Y0001300D02*
X0001300Y0151261D01*
X0066300Y0151300D01*
X0066300Y0001300D01*
X0001300Y0001300D01*
X0026800Y0086300D02*
X0026802Y0086472D01*
X0026808Y0086643D01*
X0026819Y0086815D01*
X0026834Y0086986D01*
X0026853Y0087157D01*
X0026876Y0087327D01*
X0026903Y0087497D01*
X0026935Y0087666D01*
X0026970Y0087834D01*
X0027010Y0088001D01*
X0027054Y0088167D01*
X0027101Y0088332D01*
X0027153Y0088496D01*
X0027209Y0088658D01*
X0027269Y0088819D01*
X0027333Y0088979D01*
X0027401Y0089137D01*
X0027472Y0089293D01*
X0027547Y0089447D01*
X0027627Y0089600D01*
X0027709Y0089750D01*
X0027796Y0089899D01*
X0027886Y0090045D01*
X0027980Y0090189D01*
X0028077Y0090331D01*
X0028178Y0090470D01*
X0028282Y0090607D01*
X0028389Y0090741D01*
X0028500Y0090872D01*
X0028613Y0091001D01*
X0028730Y0091127D01*
X0028850Y0091250D01*
X0028973Y0091370D01*
X0029099Y0091487D01*
X0029228Y0091600D01*
X0029359Y0091711D01*
X0029493Y0091818D01*
X0029630Y0091922D01*
X0029769Y0092023D01*
X0029911Y0092120D01*
X0030055Y0092214D01*
X0030201Y0092304D01*
X0030350Y0092391D01*
X0030500Y0092473D01*
X0030653Y0092553D01*
X0030807Y0092628D01*
X0030963Y0092699D01*
X0031121Y0092767D01*
X0031281Y0092831D01*
X0031442Y0092891D01*
X0031604Y0092947D01*
X0031768Y0092999D01*
X0031933Y0093046D01*
X0032099Y0093090D01*
X0032266Y0093130D01*
X0032434Y0093165D01*
X0032603Y0093197D01*
X0032773Y0093224D01*
X0032943Y0093247D01*
X0033114Y0093266D01*
X0033285Y0093281D01*
X0033457Y0093292D01*
X0033628Y0093298D01*
X0033800Y0093300D01*
X0033972Y0093298D01*
X0034143Y0093292D01*
X0034315Y0093281D01*
X0034486Y0093266D01*
X0034657Y0093247D01*
X0034827Y0093224D01*
X0034997Y0093197D01*
X0035166Y0093165D01*
X0035334Y0093130D01*
X0035501Y0093090D01*
X0035667Y0093046D01*
X0035832Y0092999D01*
X0035996Y0092947D01*
X0036158Y0092891D01*
X0036319Y0092831D01*
X0036479Y0092767D01*
X0036637Y0092699D01*
X0036793Y0092628D01*
X0036947Y0092553D01*
X0037100Y0092473D01*
X0037250Y0092391D01*
X0037399Y0092304D01*
X0037545Y0092214D01*
X0037689Y0092120D01*
X0037831Y0092023D01*
X0037970Y0091922D01*
X0038107Y0091818D01*
X0038241Y0091711D01*
X0038372Y0091600D01*
X0038501Y0091487D01*
X0038627Y0091370D01*
X0038750Y0091250D01*
X0038870Y0091127D01*
X0038987Y0091001D01*
X0039100Y0090872D01*
X0039211Y0090741D01*
X0039318Y0090607D01*
X0039422Y0090470D01*
X0039523Y0090331D01*
X0039620Y0090189D01*
X0039714Y0090045D01*
X0039804Y0089899D01*
X0039891Y0089750D01*
X0039973Y0089600D01*
X0040053Y0089447D01*
X0040128Y0089293D01*
X0040199Y0089137D01*
X0040267Y0088979D01*
X0040331Y0088819D01*
X0040391Y0088658D01*
X0040447Y0088496D01*
X0040499Y0088332D01*
X0040546Y0088167D01*
X0040590Y0088001D01*
X0040630Y0087834D01*
X0040665Y0087666D01*
X0040697Y0087497D01*
X0040724Y0087327D01*
X0040747Y0087157D01*
X0040766Y0086986D01*
X0040781Y0086815D01*
X0040792Y0086643D01*
X0040798Y0086472D01*
X0040800Y0086300D01*
X0040798Y0086128D01*
X0040792Y0085957D01*
X0040781Y0085785D01*
X0040766Y0085614D01*
X0040747Y0085443D01*
X0040724Y0085273D01*
X0040697Y0085103D01*
X0040665Y0084934D01*
X0040630Y0084766D01*
X0040590Y0084599D01*
X0040546Y0084433D01*
X0040499Y0084268D01*
X0040447Y0084104D01*
X0040391Y0083942D01*
X0040331Y0083781D01*
X0040267Y0083621D01*
X0040199Y0083463D01*
X0040128Y0083307D01*
X0040053Y0083153D01*
X0039973Y0083000D01*
X0039891Y0082850D01*
X0039804Y0082701D01*
X0039714Y0082555D01*
X0039620Y0082411D01*
X0039523Y0082269D01*
X0039422Y0082130D01*
X0039318Y0081993D01*
X0039211Y0081859D01*
X0039100Y0081728D01*
X0038987Y0081599D01*
X0038870Y0081473D01*
X0038750Y0081350D01*
X0038627Y0081230D01*
X0038501Y0081113D01*
X0038372Y0081000D01*
X0038241Y0080889D01*
X0038107Y0080782D01*
X0037970Y0080678D01*
X0037831Y0080577D01*
X0037689Y0080480D01*
X0037545Y0080386D01*
X0037399Y0080296D01*
X0037250Y0080209D01*
X0037100Y0080127D01*
X0036947Y0080047D01*
X0036793Y0079972D01*
X0036637Y0079901D01*
X0036479Y0079833D01*
X0036319Y0079769D01*
X0036158Y0079709D01*
X0035996Y0079653D01*
X0035832Y0079601D01*
X0035667Y0079554D01*
X0035501Y0079510D01*
X0035334Y0079470D01*
X0035166Y0079435D01*
X0034997Y0079403D01*
X0034827Y0079376D01*
X0034657Y0079353D01*
X0034486Y0079334D01*
X0034315Y0079319D01*
X0034143Y0079308D01*
X0033972Y0079302D01*
X0033800Y0079300D01*
X0033628Y0079302D01*
X0033457Y0079308D01*
X0033285Y0079319D01*
X0033114Y0079334D01*
X0032943Y0079353D01*
X0032773Y0079376D01*
X0032603Y0079403D01*
X0032434Y0079435D01*
X0032266Y0079470D01*
X0032099Y0079510D01*
X0031933Y0079554D01*
X0031768Y0079601D01*
X0031604Y0079653D01*
X0031442Y0079709D01*
X0031281Y0079769D01*
X0031121Y0079833D01*
X0030963Y0079901D01*
X0030807Y0079972D01*
X0030653Y0080047D01*
X0030500Y0080127D01*
X0030350Y0080209D01*
X0030201Y0080296D01*
X0030055Y0080386D01*
X0029911Y0080480D01*
X0029769Y0080577D01*
X0029630Y0080678D01*
X0029493Y0080782D01*
X0029359Y0080889D01*
X0029228Y0081000D01*
X0029099Y0081113D01*
X0028973Y0081230D01*
X0028850Y0081350D01*
X0028730Y0081473D01*
X0028613Y0081599D01*
X0028500Y0081728D01*
X0028389Y0081859D01*
X0028282Y0081993D01*
X0028178Y0082130D01*
X0028077Y0082269D01*
X0027980Y0082411D01*
X0027886Y0082555D01*
X0027796Y0082701D01*
X0027709Y0082850D01*
X0027627Y0083000D01*
X0027547Y0083153D01*
X0027472Y0083307D01*
X0027401Y0083463D01*
X0027333Y0083621D01*
X0027269Y0083781D01*
X0027209Y0083942D01*
X0027153Y0084104D01*
X0027101Y0084268D01*
X0027054Y0084433D01*
X0027010Y0084599D01*
X0026970Y0084766D01*
X0026935Y0084934D01*
X0026903Y0085103D01*
X0026876Y0085273D01*
X0026853Y0085443D01*
X0026834Y0085614D01*
X0026819Y0085785D01*
X0026808Y0085957D01*
X0026802Y0086128D01*
X0026800Y0086300D01*
D11*
X0023800Y0061300D03*
X0023800Y0051300D03*
X0023800Y0041300D03*
X0023800Y0031300D03*
X0018800Y0011300D03*
X0008800Y0011300D03*
X0028800Y0011300D03*
X0038800Y0011300D03*
X0043800Y0031300D03*
X0043800Y0041300D03*
X0043800Y0051300D03*
X0043800Y0061300D03*
X0043800Y0111300D03*
X0043800Y0121300D03*
X0043800Y0131300D03*
X0043800Y0141300D03*
X0023800Y0141300D03*
X0023800Y0131300D03*
X0023800Y0121300D03*
X0023800Y0111300D03*
X0048800Y0011300D03*
X0058800Y0011300D03*
D12*
X0058800Y0016300D01*
X0043800Y0031300D01*
X0041957Y0035515D02*
X0040000Y0035515D01*
X0040000Y0034917D02*
X0040912Y0034917D01*
X0041194Y0035200D02*
X0040000Y0034005D01*
X0040000Y0038595D01*
X0041194Y0037400D01*
X0042885Y0036700D01*
X0044715Y0036700D01*
X0046406Y0037400D01*
X0047700Y0038694D01*
X0048400Y0040385D01*
X0048400Y0042215D01*
X0047700Y0043906D01*
X0046406Y0045200D01*
X0044715Y0045900D01*
X0042885Y0045900D01*
X0041194Y0045200D01*
X0040000Y0044005D01*
X0040000Y0048029D01*
X0040543Y0047486D01*
X0041179Y0047024D01*
X0041881Y0046666D01*
X0042629Y0046423D01*
X0043406Y0046300D01*
X0043500Y0046300D01*
X0043500Y0051000D01*
X0044100Y0051000D01*
X0044100Y0051600D01*
X0043500Y0051600D01*
X0043500Y0056300D01*
X0043406Y0056300D01*
X0042629Y0056177D01*
X0041881Y0055934D01*
X0041179Y0055576D01*
X0040543Y0055114D01*
X0040000Y0054571D01*
X0040000Y0058595D01*
X0041194Y0057400D01*
X0042885Y0056700D01*
X0044715Y0056700D01*
X0046406Y0057400D01*
X0047700Y0058694D01*
X0048400Y0060385D01*
X0048400Y0062215D01*
X0047818Y0063621D01*
X0054297Y0070100D01*
X0055000Y0070803D01*
X0055000Y0131797D01*
X0047818Y0138979D01*
X0048400Y0140385D01*
X0048400Y0142215D01*
X0047700Y0143906D01*
X0046406Y0145200D01*
X0044715Y0145900D01*
X0042885Y0145900D01*
X0041194Y0145200D01*
X0039900Y0143906D01*
X0039200Y0142215D01*
X0039200Y0140385D01*
X0039900Y0138694D01*
X0041194Y0137400D01*
X0042885Y0136700D01*
X0044715Y0136700D01*
X0046121Y0137282D01*
X0052600Y0130803D01*
X0052600Y0071797D01*
X0046121Y0065318D01*
X0044715Y0065900D01*
X0042885Y0065900D01*
X0041194Y0065200D01*
X0040000Y0064005D01*
X0040000Y0065803D01*
X0050000Y0075803D01*
X0050000Y0109297D01*
X0049297Y0110000D01*
X0048400Y0110897D01*
X0048400Y0112215D01*
X0047700Y0113906D01*
X0046406Y0115200D01*
X0044715Y0115900D01*
X0042885Y0115900D01*
X0041194Y0115200D01*
X0039900Y0113906D01*
X0039200Y0112215D01*
X0039200Y0110385D01*
X0039900Y0108694D01*
X0041194Y0107400D01*
X0042885Y0106700D01*
X0044715Y0106700D01*
X0046406Y0107400D01*
X0047454Y0108449D01*
X0047600Y0108303D01*
X0047600Y0076797D01*
X0037600Y0066797D01*
X0037600Y0020803D01*
X0038303Y0020100D01*
X0044782Y0013621D01*
X0044200Y0012215D01*
X0044200Y0010385D01*
X0044900Y0008694D01*
X0046194Y0007400D01*
X0047885Y0006700D01*
X0049715Y0006700D01*
X0051406Y0007400D01*
X0052700Y0008694D01*
X0053400Y0010385D01*
X0053400Y0012215D01*
X0052700Y0013906D01*
X0051406Y0015200D01*
X0049715Y0015900D01*
X0047885Y0015900D01*
X0046479Y0015318D01*
X0040000Y0021797D01*
X0040000Y0028595D01*
X0041194Y0027400D01*
X0042885Y0026700D01*
X0044715Y0026700D01*
X0046121Y0027282D01*
X0057600Y0015803D01*
X0057600Y0015782D01*
X0056194Y0015200D01*
X0054900Y0013906D01*
X0054200Y0012215D01*
X0054200Y0010385D01*
X0054900Y0008694D01*
X0056194Y0007400D01*
X0057885Y0006700D01*
X0059715Y0006700D01*
X0061406Y0007400D01*
X0062000Y0007995D01*
X0062000Y0005600D01*
X0005600Y0005600D01*
X0005600Y0007995D01*
X0006194Y0007400D01*
X0007885Y0006700D01*
X0009715Y0006700D01*
X0011406Y0007400D01*
X0012700Y0008694D01*
X0013400Y0010385D01*
X0013400Y0012215D01*
X0012700Y0013906D01*
X0011406Y0015200D01*
X0010000Y0015782D01*
X0010000Y0015803D01*
X0021479Y0027282D01*
X0022885Y0026700D01*
X0024715Y0026700D01*
X0026406Y0027400D01*
X0027600Y0028595D01*
X0027600Y0015782D01*
X0026194Y0015200D01*
X0024900Y0013906D01*
X0024200Y0012215D01*
X0024200Y0010385D01*
X0024900Y0008694D01*
X0026194Y0007400D01*
X0027885Y0006700D01*
X0029715Y0006700D01*
X0031406Y0007400D01*
X0032700Y0008694D01*
X0033400Y0010385D01*
X0033400Y0012215D01*
X0032700Y0013906D01*
X0031406Y0015200D01*
X0030000Y0015782D01*
X0030000Y0056797D01*
X0029297Y0057500D01*
X0027818Y0058979D01*
X0028400Y0060385D01*
X0028400Y0062215D01*
X0027700Y0063906D01*
X0026406Y0065200D01*
X0024715Y0065900D01*
X0022885Y0065900D01*
X0021194Y0065200D01*
X0019900Y0063906D01*
X0019200Y0062215D01*
X0019200Y0060385D01*
X0019900Y0058694D01*
X0021194Y0057400D01*
X0022885Y0056700D01*
X0024715Y0056700D01*
X0026121Y0057282D01*
X0027600Y0055803D01*
X0027600Y0054005D01*
X0026406Y0055200D01*
X0024715Y0055900D01*
X0022885Y0055900D01*
X0021194Y0055200D01*
X0019900Y0053906D01*
X0019200Y0052215D01*
X0019200Y0050385D01*
X0019900Y0048694D01*
X0021194Y0047400D01*
X0022885Y0046700D01*
X0024715Y0046700D01*
X0026406Y0047400D01*
X0027600Y0048595D01*
X0027600Y0044571D01*
X0027057Y0045114D01*
X0026421Y0045576D01*
X0025719Y0045934D01*
X0024971Y0046177D01*
X0024194Y0046300D01*
X0024100Y0046300D01*
X0024100Y0041600D01*
X0023500Y0041600D01*
X0023500Y0046300D01*
X0023406Y0046300D01*
X0022629Y0046177D01*
X0021881Y0045934D01*
X0021179Y0045576D01*
X0020543Y0045114D01*
X0019986Y0044557D01*
X0019524Y0043921D01*
X0019166Y0043219D01*
X0018923Y0042471D01*
X0018800Y0041694D01*
X0018800Y0041600D01*
X0023500Y0041600D01*
X0023500Y0041000D01*
X0024100Y0041000D01*
X0024100Y0036300D01*
X0024194Y0036300D01*
X0024971Y0036423D01*
X0025719Y0036666D01*
X0026421Y0037024D01*
X0027057Y0037486D01*
X0027600Y0038029D01*
X0027600Y0034005D01*
X0026406Y0035200D01*
X0024715Y0035900D01*
X0022885Y0035900D01*
X0021479Y0035318D01*
X0015000Y0041797D01*
X0015000Y0100803D01*
X0021479Y0107282D01*
X0022885Y0106700D01*
X0024715Y0106700D01*
X0026406Y0107400D01*
X0027700Y0108694D01*
X0028400Y0110385D01*
X0028400Y0112215D01*
X0027700Y0113906D01*
X0026406Y0115200D01*
X0024715Y0115900D01*
X0022885Y0115900D01*
X0021194Y0115200D01*
X0019900Y0113906D01*
X0019200Y0112215D01*
X0019200Y0110385D01*
X0019782Y0108979D01*
X0012600Y0101797D01*
X0012600Y0040803D01*
X0013303Y0040100D01*
X0019782Y0033621D01*
X0019200Y0032215D01*
X0019200Y0030385D01*
X0019782Y0028979D01*
X0007600Y0016797D01*
X0007600Y0015782D01*
X0006194Y0015200D01*
X0005600Y0014605D01*
X0005600Y0146963D01*
X0062000Y0146997D01*
X0062000Y0014605D01*
X0061406Y0015200D01*
X0060000Y0015782D01*
X0060000Y0016797D01*
X0047818Y0028979D01*
X0048400Y0030385D01*
X0048400Y0032215D01*
X0047700Y0033906D01*
X0046406Y0035200D01*
X0044715Y0035900D01*
X0042885Y0035900D01*
X0041194Y0035200D01*
X0040313Y0034318D02*
X0040000Y0034318D01*
X0040000Y0036114D02*
X0062000Y0036114D01*
X0062000Y0036712D02*
X0044745Y0036712D01*
X0045643Y0035515D02*
X0062000Y0035515D01*
X0062000Y0034917D02*
X0046688Y0034917D01*
X0047287Y0034318D02*
X0062000Y0034318D01*
X0062000Y0033720D02*
X0047777Y0033720D01*
X0048025Y0033121D02*
X0062000Y0033121D01*
X0062000Y0032523D02*
X0048272Y0032523D01*
X0048400Y0031924D02*
X0062000Y0031924D01*
X0062000Y0031326D02*
X0048400Y0031326D01*
X0048400Y0030727D02*
X0062000Y0030727D01*
X0062000Y0030129D02*
X0048294Y0030129D01*
X0048046Y0029530D02*
X0062000Y0029530D01*
X0062000Y0028932D02*
X0047865Y0028932D01*
X0048464Y0028333D02*
X0062000Y0028333D01*
X0062000Y0027735D02*
X0049062Y0027735D01*
X0049661Y0027136D02*
X0062000Y0027136D01*
X0062000Y0026538D02*
X0050259Y0026538D01*
X0050858Y0025939D02*
X0062000Y0025939D01*
X0062000Y0025341D02*
X0051456Y0025341D01*
X0052055Y0024742D02*
X0062000Y0024742D01*
X0062000Y0024144D02*
X0052653Y0024144D01*
X0053252Y0023545D02*
X0062000Y0023545D01*
X0062000Y0022947D02*
X0053850Y0022947D01*
X0054449Y0022348D02*
X0062000Y0022348D01*
X0062000Y0021750D02*
X0055047Y0021750D01*
X0055646Y0021151D02*
X0062000Y0021151D01*
X0062000Y0020553D02*
X0056244Y0020553D01*
X0056843Y0019954D02*
X0062000Y0019954D01*
X0062000Y0019356D02*
X0057441Y0019356D01*
X0058040Y0018757D02*
X0062000Y0018757D01*
X0062000Y0018159D02*
X0058638Y0018159D01*
X0059237Y0017560D02*
X0062000Y0017560D01*
X0062000Y0016962D02*
X0059835Y0016962D01*
X0060000Y0016363D02*
X0062000Y0016363D01*
X0062000Y0015765D02*
X0060042Y0015765D01*
X0061439Y0015166D02*
X0062000Y0015166D01*
X0061989Y0007984D02*
X0062000Y0007984D01*
X0062000Y0007385D02*
X0061370Y0007385D01*
X0062000Y0006787D02*
X0059925Y0006787D01*
X0062000Y0006188D02*
X0005600Y0006188D01*
X0005600Y0006787D02*
X0007675Y0006787D01*
X0006230Y0007385D02*
X0005600Y0007385D01*
X0005600Y0007984D02*
X0005611Y0007984D01*
X0005600Y0015166D02*
X0006161Y0015166D01*
X0005600Y0015765D02*
X0007558Y0015765D01*
X0007600Y0016363D02*
X0005600Y0016363D01*
X0005600Y0016962D02*
X0007765Y0016962D01*
X0008363Y0017560D02*
X0005600Y0017560D01*
X0005600Y0018159D02*
X0008962Y0018159D01*
X0009560Y0018757D02*
X0005600Y0018757D01*
X0005600Y0019356D02*
X0010159Y0019356D01*
X0010757Y0019954D02*
X0005600Y0019954D01*
X0005600Y0020553D02*
X0011356Y0020553D01*
X0011954Y0021151D02*
X0005600Y0021151D01*
X0005600Y0021750D02*
X0012553Y0021750D01*
X0013151Y0022348D02*
X0005600Y0022348D01*
X0005600Y0022947D02*
X0013750Y0022947D01*
X0014348Y0023545D02*
X0005600Y0023545D01*
X0005600Y0024144D02*
X0014947Y0024144D01*
X0015545Y0024742D02*
X0005600Y0024742D01*
X0005600Y0025341D02*
X0016144Y0025341D01*
X0016742Y0025939D02*
X0005600Y0025939D01*
X0005600Y0026538D02*
X0017341Y0026538D01*
X0017939Y0027136D02*
X0005600Y0027136D01*
X0005600Y0027735D02*
X0018538Y0027735D01*
X0019136Y0028333D02*
X0005600Y0028333D01*
X0005600Y0028932D02*
X0019735Y0028932D01*
X0019554Y0029530D02*
X0005600Y0029530D01*
X0005600Y0030129D02*
X0019306Y0030129D01*
X0019200Y0030727D02*
X0005600Y0030727D01*
X0005600Y0031326D02*
X0019200Y0031326D01*
X0019200Y0031924D02*
X0005600Y0031924D01*
X0005600Y0032523D02*
X0019328Y0032523D01*
X0019575Y0033121D02*
X0005600Y0033121D01*
X0005600Y0033720D02*
X0019683Y0033720D01*
X0019085Y0034318D02*
X0005600Y0034318D01*
X0005600Y0034917D02*
X0018486Y0034917D01*
X0017888Y0035515D02*
X0005600Y0035515D01*
X0005600Y0036114D02*
X0017289Y0036114D01*
X0016691Y0036712D02*
X0005600Y0036712D01*
X0005600Y0037311D02*
X0016092Y0037311D01*
X0015493Y0037909D02*
X0005600Y0037909D01*
X0005600Y0038508D02*
X0014895Y0038508D01*
X0014296Y0039106D02*
X0005600Y0039106D01*
X0005600Y0039705D02*
X0013698Y0039705D01*
X0013099Y0040303D02*
X0005600Y0040303D01*
X0005600Y0040902D02*
X0012600Y0040902D01*
X0012600Y0041501D02*
X0005600Y0041501D01*
X0005600Y0042099D02*
X0012600Y0042099D01*
X0012600Y0042698D02*
X0005600Y0042698D01*
X0005600Y0043296D02*
X0012600Y0043296D01*
X0012600Y0043895D02*
X0005600Y0043895D01*
X0005600Y0044493D02*
X0012600Y0044493D01*
X0012600Y0045092D02*
X0005600Y0045092D01*
X0005600Y0045690D02*
X0012600Y0045690D01*
X0012600Y0046289D02*
X0005600Y0046289D01*
X0005600Y0046887D02*
X0012600Y0046887D01*
X0012600Y0047486D02*
X0005600Y0047486D01*
X0005600Y0048084D02*
X0012600Y0048084D01*
X0012600Y0048683D02*
X0005600Y0048683D01*
X0005600Y0049281D02*
X0012600Y0049281D01*
X0012600Y0049880D02*
X0005600Y0049880D01*
X0005600Y0050478D02*
X0012600Y0050478D01*
X0012600Y0051077D02*
X0005600Y0051077D01*
X0005600Y0051675D02*
X0012600Y0051675D01*
X0012600Y0052274D02*
X0005600Y0052274D01*
X0005600Y0052872D02*
X0012600Y0052872D01*
X0012600Y0053471D02*
X0005600Y0053471D01*
X0005600Y0054069D02*
X0012600Y0054069D01*
X0012600Y0054668D02*
X0005600Y0054668D01*
X0005600Y0055266D02*
X0012600Y0055266D01*
X0012600Y0055865D02*
X0005600Y0055865D01*
X0005600Y0056463D02*
X0012600Y0056463D01*
X0012600Y0057062D02*
X0005600Y0057062D01*
X0005600Y0057660D02*
X0012600Y0057660D01*
X0012600Y0058259D02*
X0005600Y0058259D01*
X0005600Y0058857D02*
X0012600Y0058857D01*
X0012600Y0059456D02*
X0005600Y0059456D01*
X0005600Y0060054D02*
X0012600Y0060054D01*
X0012600Y0060653D02*
X0005600Y0060653D01*
X0005600Y0061251D02*
X0012600Y0061251D01*
X0012600Y0061850D02*
X0005600Y0061850D01*
X0005600Y0062448D02*
X0012600Y0062448D01*
X0012600Y0063047D02*
X0005600Y0063047D01*
X0005600Y0063645D02*
X0012600Y0063645D01*
X0012600Y0064244D02*
X0005600Y0064244D01*
X0005600Y0064842D02*
X0012600Y0064842D01*
X0012600Y0065441D02*
X0005600Y0065441D01*
X0005600Y0066039D02*
X0012600Y0066039D01*
X0012600Y0066638D02*
X0005600Y0066638D01*
X0005600Y0067237D02*
X0012600Y0067237D01*
X0012600Y0067835D02*
X0005600Y0067835D01*
X0005600Y0068434D02*
X0012600Y0068434D01*
X0012600Y0069032D02*
X0005600Y0069032D01*
X0005600Y0069631D02*
X0012600Y0069631D01*
X0012600Y0070229D02*
X0005600Y0070229D01*
X0005600Y0070828D02*
X0012600Y0070828D01*
X0012600Y0071426D02*
X0005600Y0071426D01*
X0005600Y0072025D02*
X0012600Y0072025D01*
X0012600Y0072623D02*
X0005600Y0072623D01*
X0005600Y0073222D02*
X0012600Y0073222D01*
X0012600Y0073820D02*
X0005600Y0073820D01*
X0005600Y0074419D02*
X0012600Y0074419D01*
X0012600Y0075017D02*
X0005600Y0075017D01*
X0005600Y0075616D02*
X0012600Y0075616D01*
X0012600Y0076214D02*
X0005600Y0076214D01*
X0005600Y0076813D02*
X0012600Y0076813D01*
X0012600Y0077411D02*
X0005600Y0077411D01*
X0005600Y0078010D02*
X0012600Y0078010D01*
X0012600Y0078608D02*
X0005600Y0078608D01*
X0005600Y0079207D02*
X0012600Y0079207D01*
X0012600Y0079805D02*
X0005600Y0079805D01*
X0005600Y0080404D02*
X0012600Y0080404D01*
X0012600Y0081002D02*
X0005600Y0081002D01*
X0005600Y0081601D02*
X0012600Y0081601D01*
X0012600Y0082199D02*
X0005600Y0082199D01*
X0005600Y0082798D02*
X0012600Y0082798D01*
X0012600Y0083396D02*
X0005600Y0083396D01*
X0005600Y0083995D02*
X0012600Y0083995D01*
X0012600Y0084593D02*
X0005600Y0084593D01*
X0005600Y0085192D02*
X0012600Y0085192D01*
X0012600Y0085790D02*
X0005600Y0085790D01*
X0005600Y0086389D02*
X0012600Y0086389D01*
X0012600Y0086987D02*
X0005600Y0086987D01*
X0005600Y0087586D02*
X0012600Y0087586D01*
X0012600Y0088184D02*
X0005600Y0088184D01*
X0005600Y0088783D02*
X0012600Y0088783D01*
X0012600Y0089381D02*
X0005600Y0089381D01*
X0005600Y0089980D02*
X0012600Y0089980D01*
X0012600Y0090578D02*
X0005600Y0090578D01*
X0005600Y0091177D02*
X0012600Y0091177D01*
X0012600Y0091775D02*
X0005600Y0091775D01*
X0005600Y0092374D02*
X0012600Y0092374D01*
X0012600Y0092972D02*
X0005600Y0092972D01*
X0005600Y0093571D02*
X0012600Y0093571D01*
X0012600Y0094170D02*
X0005600Y0094170D01*
X0005600Y0094768D02*
X0012600Y0094768D01*
X0012600Y0095367D02*
X0005600Y0095367D01*
X0005600Y0095965D02*
X0012600Y0095965D01*
X0012600Y0096564D02*
X0005600Y0096564D01*
X0005600Y0097162D02*
X0012600Y0097162D01*
X0012600Y0097761D02*
X0005600Y0097761D01*
X0005600Y0098359D02*
X0012600Y0098359D01*
X0012600Y0098958D02*
X0005600Y0098958D01*
X0005600Y0099556D02*
X0012600Y0099556D01*
X0012600Y0100155D02*
X0005600Y0100155D01*
X0005600Y0100753D02*
X0012600Y0100753D01*
X0012600Y0101352D02*
X0005600Y0101352D01*
X0005600Y0101950D02*
X0012753Y0101950D01*
X0013352Y0102549D02*
X0005600Y0102549D01*
X0005600Y0103147D02*
X0013950Y0103147D01*
X0014549Y0103746D02*
X0005600Y0103746D01*
X0005600Y0104344D02*
X0015147Y0104344D01*
X0015746Y0104943D02*
X0005600Y0104943D01*
X0005600Y0105541D02*
X0016344Y0105541D01*
X0016943Y0106140D02*
X0005600Y0106140D01*
X0005600Y0106738D02*
X0017541Y0106738D01*
X0018140Y0107337D02*
X0005600Y0107337D01*
X0005600Y0107935D02*
X0018738Y0107935D01*
X0019337Y0108534D02*
X0005600Y0108534D01*
X0005600Y0109132D02*
X0019719Y0109132D01*
X0019471Y0109731D02*
X0005600Y0109731D01*
X0005600Y0110329D02*
X0019223Y0110329D01*
X0019200Y0110928D02*
X0005600Y0110928D01*
X0005600Y0111526D02*
X0019200Y0111526D01*
X0019200Y0112125D02*
X0005600Y0112125D01*
X0005600Y0112723D02*
X0019411Y0112723D01*
X0019658Y0113322D02*
X0005600Y0113322D01*
X0005600Y0113920D02*
X0019915Y0113920D01*
X0020514Y0114519D02*
X0005600Y0114519D01*
X0005600Y0115117D02*
X0021112Y0115117D01*
X0021881Y0116666D02*
X0021179Y0117024D01*
X0020543Y0117486D01*
X0019986Y0118043D01*
X0019524Y0118679D01*
X0019166Y0119381D01*
X0018923Y0120129D01*
X0018800Y0120906D01*
X0018800Y0121000D01*
X0023500Y0121000D01*
X0024100Y0121000D01*
X0024100Y0121600D01*
X0028800Y0121600D01*
X0028800Y0121694D01*
X0028677Y0122471D01*
X0028434Y0123219D01*
X0028076Y0123921D01*
X0027614Y0124557D01*
X0027057Y0125114D01*
X0026421Y0125576D01*
X0025719Y0125934D01*
X0024971Y0126177D01*
X0024194Y0126300D01*
X0024100Y0126300D01*
X0024100Y0121600D01*
X0023500Y0121600D01*
X0023500Y0126300D01*
X0023406Y0126300D01*
X0022629Y0126177D01*
X0021881Y0125934D01*
X0021179Y0125576D01*
X0020543Y0125114D01*
X0019986Y0124557D01*
X0019524Y0123921D01*
X0019166Y0123219D01*
X0018923Y0122471D01*
X0018800Y0121694D01*
X0018800Y0121600D01*
X0023500Y0121600D01*
X0023500Y0121000D01*
X0023500Y0116300D01*
X0023406Y0116300D01*
X0022629Y0116423D01*
X0021881Y0116666D01*
X0021397Y0116913D02*
X0005600Y0116913D01*
X0005600Y0117511D02*
X0020517Y0117511D01*
X0019937Y0118110D02*
X0005600Y0118110D01*
X0005600Y0118708D02*
X0019509Y0118708D01*
X0019204Y0119307D02*
X0005600Y0119307D01*
X0005600Y0119905D02*
X0018996Y0119905D01*
X0018864Y0120504D02*
X0005600Y0120504D01*
X0005600Y0121103D02*
X0023500Y0121103D01*
X0023500Y0121701D02*
X0024100Y0121701D01*
X0024100Y0121103D02*
X0032600Y0121103D01*
X0032600Y0121701D02*
X0028799Y0121701D01*
X0028704Y0122300D02*
X0032600Y0122300D01*
X0032600Y0122898D02*
X0028538Y0122898D01*
X0028292Y0123497D02*
X0032600Y0123497D01*
X0032600Y0124095D02*
X0027950Y0124095D01*
X0027477Y0124694D02*
X0032600Y0124694D01*
X0032600Y0125292D02*
X0026812Y0125292D01*
X0025804Y0125891D02*
X0032600Y0125891D01*
X0032600Y0126489D02*
X0005600Y0126489D01*
X0005600Y0125891D02*
X0021796Y0125891D01*
X0021949Y0127088D02*
X0005600Y0127088D01*
X0005600Y0127686D02*
X0020908Y0127686D01*
X0021194Y0127400D02*
X0019900Y0128694D01*
X0019200Y0130385D01*
X0019200Y0132215D01*
X0019900Y0133906D01*
X0021194Y0135200D01*
X0022885Y0135900D01*
X0024715Y0135900D01*
X0026406Y0135200D01*
X0027700Y0133906D01*
X0028400Y0132215D01*
X0028400Y0130385D01*
X0027700Y0128694D01*
X0026406Y0127400D01*
X0024715Y0126700D01*
X0022885Y0126700D01*
X0021194Y0127400D01*
X0020310Y0128285D02*
X0005600Y0128285D01*
X0005600Y0128883D02*
X0019822Y0128883D01*
X0019574Y0129482D02*
X0005600Y0129482D01*
X0005600Y0130080D02*
X0019326Y0130080D01*
X0019200Y0130679D02*
X0005600Y0130679D01*
X0005600Y0131277D02*
X0019200Y0131277D01*
X0019200Y0131876D02*
X0005600Y0131876D01*
X0005600Y0132474D02*
X0019307Y0132474D01*
X0019555Y0133073D02*
X0005600Y0133073D01*
X0005600Y0133671D02*
X0019803Y0133671D01*
X0020264Y0134270D02*
X0005600Y0134270D01*
X0005600Y0134868D02*
X0020863Y0134868D01*
X0021527Y0137262D02*
X0005600Y0137262D01*
X0005600Y0136664D02*
X0026739Y0136664D01*
X0026141Y0137262D02*
X0026073Y0137262D01*
X0026121Y0137282D02*
X0032600Y0130803D01*
X0032600Y0109297D01*
X0018303Y0095000D01*
X0017600Y0094297D01*
X0017600Y0078303D01*
X0032600Y0063303D01*
X0032600Y0020803D01*
X0033303Y0020100D01*
X0037600Y0015803D01*
X0037600Y0015782D01*
X0036194Y0015200D01*
X0034900Y0013906D01*
X0034200Y0012215D01*
X0034200Y0010385D01*
X0034900Y0008694D01*
X0036194Y0007400D01*
X0037885Y0006700D01*
X0039715Y0006700D01*
X0041406Y0007400D01*
X0042700Y0008694D01*
X0043400Y0010385D01*
X0043400Y0012215D01*
X0042700Y0013906D01*
X0041406Y0015200D01*
X0040000Y0015782D01*
X0040000Y0016797D01*
X0035000Y0021797D01*
X0035000Y0064297D01*
X0020000Y0079297D01*
X0020000Y0093303D01*
X0035000Y0108303D01*
X0035000Y0131797D01*
X0027818Y0138979D01*
X0028400Y0140385D01*
X0028400Y0142215D01*
X0027700Y0143906D01*
X0026406Y0145200D01*
X0024715Y0145900D01*
X0022885Y0145900D01*
X0021194Y0145200D01*
X0019900Y0143906D01*
X0019200Y0142215D01*
X0019200Y0140385D01*
X0019900Y0138694D01*
X0021194Y0137400D01*
X0022885Y0136700D01*
X0024715Y0136700D01*
X0026121Y0137282D01*
X0025761Y0135467D02*
X0027936Y0135467D01*
X0027338Y0136065D02*
X0005600Y0136065D01*
X0005600Y0135467D02*
X0021839Y0135467D01*
X0020734Y0137861D02*
X0005600Y0137861D01*
X0005600Y0138459D02*
X0020135Y0138459D01*
X0019750Y0139058D02*
X0005600Y0139058D01*
X0005600Y0139656D02*
X0019502Y0139656D01*
X0019254Y0140255D02*
X0005600Y0140255D01*
X0005600Y0140853D02*
X0019200Y0140853D01*
X0019200Y0141452D02*
X0005600Y0141452D01*
X0005600Y0142050D02*
X0019200Y0142050D01*
X0019380Y0142649D02*
X0005600Y0142649D01*
X0005600Y0143247D02*
X0019628Y0143247D01*
X0019876Y0143846D02*
X0005600Y0143846D01*
X0005600Y0144444D02*
X0020439Y0144444D01*
X0021038Y0145043D02*
X0005600Y0145043D01*
X0005600Y0145641D02*
X0022261Y0145641D01*
X0023800Y0141300D02*
X0033800Y0131300D01*
X0033800Y0108800D01*
X0018800Y0093800D01*
X0018800Y0078800D01*
X0033800Y0063800D01*
X0033800Y0021300D01*
X0038800Y0016300D01*
X0038800Y0011300D01*
X0037558Y0015765D02*
X0030042Y0015765D01*
X0030000Y0016363D02*
X0037040Y0016363D01*
X0036441Y0016962D02*
X0030000Y0016962D01*
X0030000Y0017560D02*
X0035843Y0017560D01*
X0035244Y0018159D02*
X0030000Y0018159D01*
X0030000Y0018757D02*
X0034646Y0018757D01*
X0034047Y0019356D02*
X0030000Y0019356D01*
X0030000Y0019954D02*
X0033449Y0019954D01*
X0032850Y0020553D02*
X0030000Y0020553D01*
X0030000Y0021151D02*
X0032600Y0021151D01*
X0032600Y0021750D02*
X0030000Y0021750D01*
X0030000Y0022348D02*
X0032600Y0022348D01*
X0032600Y0022947D02*
X0030000Y0022947D01*
X0030000Y0023545D02*
X0032600Y0023545D01*
X0032600Y0024144D02*
X0030000Y0024144D01*
X0030000Y0024742D02*
X0032600Y0024742D01*
X0032600Y0025341D02*
X0030000Y0025341D01*
X0030000Y0025939D02*
X0032600Y0025939D01*
X0032600Y0026538D02*
X0030000Y0026538D01*
X0030000Y0027136D02*
X0032600Y0027136D01*
X0032600Y0027735D02*
X0030000Y0027735D01*
X0030000Y0028333D02*
X0032600Y0028333D01*
X0032600Y0028932D02*
X0030000Y0028932D01*
X0030000Y0029530D02*
X0032600Y0029530D01*
X0032600Y0030129D02*
X0030000Y0030129D01*
X0030000Y0030727D02*
X0032600Y0030727D01*
X0032600Y0031326D02*
X0030000Y0031326D01*
X0030000Y0031924D02*
X0032600Y0031924D01*
X0032600Y0032523D02*
X0030000Y0032523D01*
X0030000Y0033121D02*
X0032600Y0033121D01*
X0032600Y0033720D02*
X0030000Y0033720D01*
X0030000Y0034318D02*
X0032600Y0034318D01*
X0032600Y0034917D02*
X0030000Y0034917D01*
X0030000Y0035515D02*
X0032600Y0035515D01*
X0032600Y0036114D02*
X0030000Y0036114D01*
X0030000Y0036712D02*
X0032600Y0036712D01*
X0032600Y0037311D02*
X0030000Y0037311D01*
X0030000Y0037909D02*
X0032600Y0037909D01*
X0032600Y0038508D02*
X0030000Y0038508D01*
X0030000Y0039106D02*
X0032600Y0039106D01*
X0032600Y0039705D02*
X0030000Y0039705D01*
X0030000Y0040303D02*
X0032600Y0040303D01*
X0032600Y0040902D02*
X0030000Y0040902D01*
X0030000Y0041501D02*
X0032600Y0041501D01*
X0032600Y0042099D02*
X0030000Y0042099D01*
X0030000Y0042698D02*
X0032600Y0042698D01*
X0032600Y0043296D02*
X0030000Y0043296D01*
X0030000Y0043895D02*
X0032600Y0043895D01*
X0032600Y0044493D02*
X0030000Y0044493D01*
X0030000Y0045092D02*
X0032600Y0045092D01*
X0032600Y0045690D02*
X0030000Y0045690D01*
X0030000Y0046289D02*
X0032600Y0046289D01*
X0032600Y0046887D02*
X0030000Y0046887D01*
X0030000Y0047486D02*
X0032600Y0047486D01*
X0032600Y0048084D02*
X0030000Y0048084D01*
X0030000Y0048683D02*
X0032600Y0048683D01*
X0032600Y0049281D02*
X0030000Y0049281D01*
X0030000Y0049880D02*
X0032600Y0049880D01*
X0032600Y0050478D02*
X0030000Y0050478D01*
X0030000Y0051077D02*
X0032600Y0051077D01*
X0032600Y0051675D02*
X0030000Y0051675D01*
X0030000Y0052274D02*
X0032600Y0052274D01*
X0032600Y0052872D02*
X0030000Y0052872D01*
X0030000Y0053471D02*
X0032600Y0053471D01*
X0032600Y0054069D02*
X0030000Y0054069D01*
X0030000Y0054668D02*
X0032600Y0054668D01*
X0032600Y0055266D02*
X0030000Y0055266D01*
X0030000Y0055865D02*
X0032600Y0055865D01*
X0032600Y0056463D02*
X0030000Y0056463D01*
X0029735Y0057062D02*
X0032600Y0057062D01*
X0032600Y0057660D02*
X0029137Y0057660D01*
X0028538Y0058259D02*
X0032600Y0058259D01*
X0032600Y0058857D02*
X0027940Y0058857D01*
X0028015Y0059456D02*
X0032600Y0059456D01*
X0032600Y0060054D02*
X0028263Y0060054D01*
X0028400Y0060653D02*
X0032600Y0060653D01*
X0032600Y0061251D02*
X0028400Y0061251D01*
X0028400Y0061850D02*
X0032600Y0061850D01*
X0032600Y0062448D02*
X0028303Y0062448D01*
X0028055Y0063047D02*
X0032600Y0063047D01*
X0032258Y0063645D02*
X0027807Y0063645D01*
X0027361Y0064244D02*
X0031659Y0064244D01*
X0031060Y0064842D02*
X0026763Y0064842D01*
X0025823Y0065441D02*
X0030462Y0065441D01*
X0029863Y0066039D02*
X0015000Y0066039D01*
X0015000Y0065441D02*
X0021777Y0065441D01*
X0020837Y0064842D02*
X0015000Y0064842D01*
X0015000Y0064244D02*
X0020239Y0064244D01*
X0019793Y0063645D02*
X0015000Y0063645D01*
X0015000Y0063047D02*
X0019545Y0063047D01*
X0019297Y0062448D02*
X0015000Y0062448D01*
X0015000Y0061850D02*
X0019200Y0061850D01*
X0019200Y0061251D02*
X0015000Y0061251D01*
X0015000Y0060653D02*
X0019200Y0060653D01*
X0019337Y0060054D02*
X0015000Y0060054D01*
X0015000Y0059456D02*
X0019585Y0059456D01*
X0019833Y0058857D02*
X0015000Y0058857D01*
X0015000Y0058259D02*
X0020336Y0058259D01*
X0020934Y0057660D02*
X0015000Y0057660D01*
X0015000Y0057062D02*
X0022012Y0057062D01*
X0022800Y0055865D02*
X0015000Y0055865D01*
X0015000Y0056463D02*
X0026940Y0056463D01*
X0027538Y0055865D02*
X0024800Y0055865D01*
X0025588Y0057062D02*
X0026341Y0057062D01*
X0026245Y0055266D02*
X0027600Y0055266D01*
X0027600Y0054668D02*
X0026938Y0054668D01*
X0027536Y0054069D02*
X0027600Y0054069D01*
X0028800Y0056300D02*
X0028800Y0011300D01*
X0027558Y0015765D02*
X0021051Y0015765D01*
X0020719Y0015934D02*
X0021421Y0015576D01*
X0022057Y0015114D01*
X0022614Y0014557D01*
X0023076Y0013921D01*
X0023434Y0013219D01*
X0023677Y0012471D01*
X0023800Y0011694D01*
X0023800Y0011600D01*
X0019100Y0011600D01*
X0018500Y0011600D01*
X0018500Y0016300D01*
X0018406Y0016300D01*
X0017629Y0016177D01*
X0016881Y0015934D01*
X0016179Y0015576D01*
X0015543Y0015114D01*
X0014986Y0014557D01*
X0014524Y0013921D01*
X0014166Y0013219D01*
X0013923Y0012471D01*
X0013800Y0011694D01*
X0013800Y0011600D01*
X0018500Y0011600D01*
X0018500Y0011000D01*
X0013800Y0011000D01*
X0013800Y0010906D01*
X0013923Y0010129D01*
X0014166Y0009381D01*
X0014524Y0008679D01*
X0014986Y0008043D01*
X0015543Y0007486D01*
X0016179Y0007024D01*
X0016881Y0006666D01*
X0017629Y0006423D01*
X0018406Y0006300D01*
X0018500Y0006300D01*
X0018500Y0011000D01*
X0019100Y0011000D01*
X0019100Y0011600D01*
X0019100Y0016300D01*
X0019194Y0016300D01*
X0019971Y0016177D01*
X0020719Y0015934D01*
X0021985Y0015166D02*
X0026161Y0015166D01*
X0025562Y0014568D02*
X0022604Y0014568D01*
X0023041Y0013969D02*
X0024964Y0013969D01*
X0024679Y0013370D02*
X0023357Y0013370D01*
X0023579Y0012772D02*
X0024431Y0012772D01*
X0024200Y0012173D02*
X0023724Y0012173D01*
X0024200Y0011575D02*
X0019100Y0011575D01*
X0019100Y0011000D02*
X0023800Y0011000D01*
X0023800Y0010906D01*
X0023677Y0010129D01*
X0023434Y0009381D01*
X0023076Y0008679D01*
X0022614Y0008043D01*
X0022057Y0007486D01*
X0021421Y0007024D01*
X0020719Y0006666D01*
X0019971Y0006423D01*
X0019194Y0006300D01*
X0019100Y0006300D01*
X0019100Y0011000D01*
X0019100Y0010976D02*
X0018500Y0010976D01*
X0018500Y0010378D02*
X0019100Y0010378D01*
X0019100Y0009779D02*
X0018500Y0009779D01*
X0018500Y0009181D02*
X0019100Y0009181D01*
X0019100Y0008582D02*
X0018500Y0008582D01*
X0018500Y0007984D02*
X0019100Y0007984D01*
X0019100Y0007385D02*
X0018500Y0007385D01*
X0018500Y0006787D02*
X0019100Y0006787D01*
X0020956Y0006787D02*
X0027675Y0006787D01*
X0026230Y0007385D02*
X0021918Y0007385D01*
X0022555Y0007984D02*
X0025611Y0007984D01*
X0025012Y0008582D02*
X0023006Y0008582D01*
X0023332Y0009181D02*
X0024699Y0009181D01*
X0024451Y0009779D02*
X0023563Y0009779D01*
X0023716Y0010378D02*
X0024203Y0010378D01*
X0024200Y0010976D02*
X0023800Y0010976D01*
X0027600Y0016363D02*
X0010560Y0016363D01*
X0010042Y0015765D02*
X0016549Y0015765D01*
X0015615Y0015166D02*
X0011439Y0015166D01*
X0012038Y0014568D02*
X0014996Y0014568D01*
X0014559Y0013969D02*
X0012636Y0013969D01*
X0012921Y0013370D02*
X0014243Y0013370D01*
X0014021Y0012772D02*
X0013169Y0012772D01*
X0013400Y0012173D02*
X0013876Y0012173D01*
X0013400Y0011575D02*
X0018500Y0011575D01*
X0018500Y0012173D02*
X0019100Y0012173D01*
X0019100Y0012772D02*
X0018500Y0012772D01*
X0018500Y0013370D02*
X0019100Y0013370D01*
X0019100Y0013969D02*
X0018500Y0013969D01*
X0018500Y0014568D02*
X0019100Y0014568D01*
X0019100Y0015166D02*
X0018500Y0015166D01*
X0018500Y0015765D02*
X0019100Y0015765D01*
X0016545Y0022348D02*
X0027600Y0022348D01*
X0027600Y0021750D02*
X0015947Y0021750D01*
X0015348Y0021151D02*
X0027600Y0021151D01*
X0027600Y0020553D02*
X0014750Y0020553D01*
X0014151Y0019954D02*
X0027600Y0019954D01*
X0027600Y0019356D02*
X0013553Y0019356D01*
X0012954Y0018757D02*
X0027600Y0018757D01*
X0027600Y0018159D02*
X0012356Y0018159D01*
X0011757Y0017560D02*
X0027600Y0017560D01*
X0027600Y0016962D02*
X0011159Y0016962D01*
X0008800Y0016300D02*
X0023800Y0031300D01*
X0013800Y0041300D01*
X0013800Y0101300D01*
X0023800Y0111300D01*
X0022441Y0115716D02*
X0005600Y0115716D01*
X0005600Y0116314D02*
X0023315Y0116314D01*
X0023500Y0116314D02*
X0024100Y0116314D01*
X0024100Y0116300D02*
X0024194Y0116300D01*
X0024971Y0116423D01*
X0025719Y0116666D01*
X0026421Y0117024D01*
X0027057Y0117486D01*
X0027614Y0118043D01*
X0028076Y0118679D01*
X0028434Y0119381D01*
X0028677Y0120129D01*
X0028800Y0120906D01*
X0028800Y0121000D01*
X0024100Y0121000D01*
X0024100Y0116300D01*
X0024285Y0116314D02*
X0032600Y0116314D01*
X0032600Y0115716D02*
X0025159Y0115716D01*
X0026203Y0116913D02*
X0032600Y0116913D01*
X0032600Y0117511D02*
X0027083Y0117511D01*
X0027663Y0118110D02*
X0032600Y0118110D01*
X0032600Y0118708D02*
X0028091Y0118708D01*
X0028396Y0119307D02*
X0032600Y0119307D01*
X0032600Y0119905D02*
X0028604Y0119905D01*
X0028736Y0120504D02*
X0032600Y0120504D01*
X0035000Y0120504D02*
X0039200Y0120504D01*
X0039200Y0120385D02*
X0039900Y0118694D01*
X0041194Y0117400D01*
X0042885Y0116700D01*
X0044715Y0116700D01*
X0046406Y0117400D01*
X0047700Y0118694D01*
X0048400Y0120385D01*
X0048400Y0122215D01*
X0047700Y0123906D01*
X0046406Y0125200D01*
X0044715Y0125900D01*
X0042885Y0125900D01*
X0041194Y0125200D01*
X0039900Y0123906D01*
X0039200Y0122215D01*
X0039200Y0120385D01*
X0039399Y0119905D02*
X0035000Y0119905D01*
X0035000Y0119307D02*
X0039647Y0119307D01*
X0039894Y0118708D02*
X0035000Y0118708D01*
X0035000Y0118110D02*
X0040485Y0118110D01*
X0041083Y0117511D02*
X0035000Y0117511D01*
X0035000Y0116913D02*
X0042371Y0116913D01*
X0042441Y0115716D02*
X0035000Y0115716D01*
X0035000Y0116314D02*
X0052600Y0116314D01*
X0052600Y0115716D02*
X0045159Y0115716D01*
X0045229Y0116913D02*
X0052600Y0116913D01*
X0052600Y0117511D02*
X0046517Y0117511D01*
X0047115Y0118110D02*
X0052600Y0118110D01*
X0052600Y0118708D02*
X0047706Y0118708D01*
X0047953Y0119307D02*
X0052600Y0119307D01*
X0052600Y0119905D02*
X0048201Y0119905D01*
X0048400Y0120504D02*
X0052600Y0120504D01*
X0052600Y0121103D02*
X0048400Y0121103D01*
X0048400Y0121701D02*
X0052600Y0121701D01*
X0052600Y0122300D02*
X0048365Y0122300D01*
X0048117Y0122898D02*
X0052600Y0122898D01*
X0052600Y0123497D02*
X0047869Y0123497D01*
X0047510Y0124095D02*
X0052600Y0124095D01*
X0052600Y0124694D02*
X0046912Y0124694D01*
X0046183Y0125292D02*
X0052600Y0125292D01*
X0052600Y0125891D02*
X0044738Y0125891D01*
X0044971Y0126423D02*
X0045719Y0126666D01*
X0046421Y0127024D01*
X0047057Y0127486D01*
X0047614Y0128043D01*
X0048076Y0128679D01*
X0048434Y0129381D01*
X0048677Y0130129D01*
X0048800Y0130906D01*
X0048800Y0131000D01*
X0044100Y0131000D01*
X0044100Y0131600D01*
X0048800Y0131600D01*
X0048800Y0131694D01*
X0048677Y0132471D01*
X0048434Y0133219D01*
X0048076Y0133921D01*
X0047614Y0134557D01*
X0047057Y0135114D01*
X0046421Y0135576D01*
X0045719Y0135934D01*
X0044971Y0136177D01*
X0044194Y0136300D01*
X0044100Y0136300D01*
X0044100Y0131600D01*
X0043500Y0131600D01*
X0043500Y0136300D01*
X0043406Y0136300D01*
X0042629Y0136177D01*
X0041881Y0135934D01*
X0041179Y0135576D01*
X0040543Y0135114D01*
X0039986Y0134557D01*
X0039524Y0133921D01*
X0039166Y0133219D01*
X0038923Y0132471D01*
X0038800Y0131694D01*
X0038800Y0131600D01*
X0043500Y0131600D01*
X0043500Y0131000D01*
X0044100Y0131000D01*
X0044100Y0126300D01*
X0044194Y0126300D01*
X0044971Y0126423D01*
X0045174Y0126489D02*
X0052600Y0126489D01*
X0052600Y0127088D02*
X0046509Y0127088D01*
X0047257Y0127686D02*
X0052600Y0127686D01*
X0052600Y0128285D02*
X0047790Y0128285D01*
X0048180Y0128883D02*
X0052600Y0128883D01*
X0052600Y0129482D02*
X0048466Y0129482D01*
X0048661Y0130080D02*
X0052600Y0130080D01*
X0052600Y0130679D02*
X0048764Y0130679D01*
X0048771Y0131876D02*
X0051527Y0131876D01*
X0050929Y0132474D02*
X0048676Y0132474D01*
X0048481Y0133073D02*
X0050330Y0133073D01*
X0049732Y0133671D02*
X0048203Y0133671D01*
X0047823Y0134270D02*
X0049133Y0134270D01*
X0048535Y0134868D02*
X0047303Y0134868D01*
X0047936Y0135467D02*
X0046571Y0135467D01*
X0047338Y0136065D02*
X0045314Y0136065D01*
X0046073Y0137262D02*
X0046141Y0137262D01*
X0046739Y0136664D02*
X0030133Y0136664D01*
X0029535Y0137262D02*
X0041527Y0137262D01*
X0040734Y0137861D02*
X0028936Y0137861D01*
X0028338Y0138459D02*
X0040135Y0138459D01*
X0039750Y0139058D02*
X0027850Y0139058D01*
X0028098Y0139656D02*
X0039502Y0139656D01*
X0039254Y0140255D02*
X0028346Y0140255D01*
X0028400Y0140853D02*
X0039200Y0140853D01*
X0039200Y0141452D02*
X0028400Y0141452D01*
X0028400Y0142050D02*
X0039200Y0142050D01*
X0039380Y0142649D02*
X0028220Y0142649D01*
X0027972Y0143247D02*
X0039628Y0143247D01*
X0039876Y0143846D02*
X0027724Y0143846D01*
X0027161Y0144444D02*
X0040439Y0144444D01*
X0041038Y0145043D02*
X0026562Y0145043D01*
X0025339Y0145641D02*
X0042261Y0145641D01*
X0043800Y0141300D02*
X0053800Y0131300D01*
X0053800Y0071300D01*
X0043800Y0061300D01*
X0045588Y0057062D02*
X0062000Y0057062D01*
X0062000Y0057660D02*
X0046666Y0057660D01*
X0047264Y0058259D02*
X0062000Y0058259D01*
X0062000Y0058857D02*
X0047767Y0058857D01*
X0048015Y0059456D02*
X0062000Y0059456D01*
X0062000Y0060054D02*
X0048263Y0060054D01*
X0048400Y0060653D02*
X0062000Y0060653D01*
X0062000Y0061251D02*
X0048400Y0061251D01*
X0048400Y0061850D02*
X0062000Y0061850D01*
X0062000Y0062448D02*
X0048303Y0062448D01*
X0048055Y0063047D02*
X0062000Y0063047D01*
X0062000Y0063645D02*
X0047842Y0063645D01*
X0048441Y0064244D02*
X0062000Y0064244D01*
X0062000Y0064842D02*
X0049040Y0064842D01*
X0049638Y0065441D02*
X0062000Y0065441D01*
X0062000Y0066039D02*
X0050237Y0066039D01*
X0050835Y0066638D02*
X0062000Y0066638D01*
X0062000Y0067237D02*
X0051434Y0067237D01*
X0052032Y0067835D02*
X0062000Y0067835D01*
X0062000Y0068434D02*
X0052631Y0068434D01*
X0053229Y0069032D02*
X0062000Y0069032D01*
X0062000Y0069631D02*
X0053828Y0069631D01*
X0054426Y0070229D02*
X0062000Y0070229D01*
X0062000Y0070828D02*
X0055000Y0070828D01*
X0055000Y0071426D02*
X0062000Y0071426D01*
X0062000Y0072025D02*
X0055000Y0072025D01*
X0055000Y0072623D02*
X0062000Y0072623D01*
X0062000Y0073222D02*
X0055000Y0073222D01*
X0055000Y0073820D02*
X0062000Y0073820D01*
X0062000Y0074419D02*
X0055000Y0074419D01*
X0055000Y0075017D02*
X0062000Y0075017D01*
X0062000Y0075616D02*
X0055000Y0075616D01*
X0055000Y0076214D02*
X0062000Y0076214D01*
X0062000Y0076813D02*
X0055000Y0076813D01*
X0055000Y0077411D02*
X0062000Y0077411D01*
X0062000Y0078010D02*
X0055000Y0078010D01*
X0055000Y0078608D02*
X0062000Y0078608D01*
X0062000Y0079207D02*
X0055000Y0079207D01*
X0055000Y0079805D02*
X0062000Y0079805D01*
X0062000Y0080404D02*
X0055000Y0080404D01*
X0055000Y0081002D02*
X0062000Y0081002D01*
X0062000Y0081601D02*
X0055000Y0081601D01*
X0055000Y0082199D02*
X0062000Y0082199D01*
X0062000Y0082798D02*
X0055000Y0082798D01*
X0055000Y0083396D02*
X0062000Y0083396D01*
X0062000Y0083995D02*
X0055000Y0083995D01*
X0055000Y0084593D02*
X0062000Y0084593D01*
X0062000Y0085192D02*
X0055000Y0085192D01*
X0055000Y0085790D02*
X0062000Y0085790D01*
X0062000Y0086389D02*
X0055000Y0086389D01*
X0055000Y0086987D02*
X0062000Y0086987D01*
X0062000Y0087586D02*
X0055000Y0087586D01*
X0055000Y0088184D02*
X0062000Y0088184D01*
X0062000Y0088783D02*
X0055000Y0088783D01*
X0055000Y0089381D02*
X0062000Y0089381D01*
X0062000Y0089980D02*
X0055000Y0089980D01*
X0055000Y0090578D02*
X0062000Y0090578D01*
X0062000Y0091177D02*
X0055000Y0091177D01*
X0055000Y0091775D02*
X0062000Y0091775D01*
X0062000Y0092374D02*
X0055000Y0092374D01*
X0055000Y0092972D02*
X0062000Y0092972D01*
X0062000Y0093571D02*
X0055000Y0093571D01*
X0055000Y0094170D02*
X0062000Y0094170D01*
X0062000Y0094768D02*
X0055000Y0094768D01*
X0055000Y0095367D02*
X0062000Y0095367D01*
X0062000Y0095965D02*
X0055000Y0095965D01*
X0055000Y0096564D02*
X0062000Y0096564D01*
X0062000Y0097162D02*
X0055000Y0097162D01*
X0055000Y0097761D02*
X0062000Y0097761D01*
X0062000Y0098359D02*
X0055000Y0098359D01*
X0055000Y0098958D02*
X0062000Y0098958D01*
X0062000Y0099556D02*
X0055000Y0099556D01*
X0055000Y0100155D02*
X0062000Y0100155D01*
X0062000Y0100753D02*
X0055000Y0100753D01*
X0055000Y0101352D02*
X0062000Y0101352D01*
X0062000Y0101950D02*
X0055000Y0101950D01*
X0055000Y0102549D02*
X0062000Y0102549D01*
X0062000Y0103147D02*
X0055000Y0103147D01*
X0055000Y0103746D02*
X0062000Y0103746D01*
X0062000Y0104344D02*
X0055000Y0104344D01*
X0055000Y0104943D02*
X0062000Y0104943D01*
X0062000Y0105541D02*
X0055000Y0105541D01*
X0055000Y0106140D02*
X0062000Y0106140D01*
X0062000Y0106738D02*
X0055000Y0106738D01*
X0055000Y0107337D02*
X0062000Y0107337D01*
X0062000Y0107935D02*
X0055000Y0107935D01*
X0055000Y0108534D02*
X0062000Y0108534D01*
X0062000Y0109132D02*
X0055000Y0109132D01*
X0055000Y0109731D02*
X0062000Y0109731D01*
X0062000Y0110329D02*
X0055000Y0110329D01*
X0055000Y0110928D02*
X0062000Y0110928D01*
X0062000Y0111526D02*
X0055000Y0111526D01*
X0055000Y0112125D02*
X0062000Y0112125D01*
X0062000Y0112723D02*
X0055000Y0112723D01*
X0055000Y0113322D02*
X0062000Y0113322D01*
X0062000Y0113920D02*
X0055000Y0113920D01*
X0055000Y0114519D02*
X0062000Y0114519D01*
X0062000Y0115117D02*
X0055000Y0115117D01*
X0055000Y0115716D02*
X0062000Y0115716D01*
X0062000Y0116314D02*
X0055000Y0116314D01*
X0055000Y0116913D02*
X0062000Y0116913D01*
X0062000Y0117511D02*
X0055000Y0117511D01*
X0055000Y0118110D02*
X0062000Y0118110D01*
X0062000Y0118708D02*
X0055000Y0118708D01*
X0055000Y0119307D02*
X0062000Y0119307D01*
X0062000Y0119905D02*
X0055000Y0119905D01*
X0055000Y0120504D02*
X0062000Y0120504D01*
X0062000Y0121103D02*
X0055000Y0121103D01*
X0055000Y0121701D02*
X0062000Y0121701D01*
X0062000Y0122300D02*
X0055000Y0122300D01*
X0055000Y0122898D02*
X0062000Y0122898D01*
X0062000Y0123497D02*
X0055000Y0123497D01*
X0055000Y0124095D02*
X0062000Y0124095D01*
X0062000Y0124694D02*
X0055000Y0124694D01*
X0055000Y0125292D02*
X0062000Y0125292D01*
X0062000Y0125891D02*
X0055000Y0125891D01*
X0055000Y0126489D02*
X0062000Y0126489D01*
X0062000Y0127088D02*
X0055000Y0127088D01*
X0055000Y0127686D02*
X0062000Y0127686D01*
X0062000Y0128285D02*
X0055000Y0128285D01*
X0055000Y0128883D02*
X0062000Y0128883D01*
X0062000Y0129482D02*
X0055000Y0129482D01*
X0055000Y0130080D02*
X0062000Y0130080D01*
X0062000Y0130679D02*
X0055000Y0130679D01*
X0055000Y0131277D02*
X0062000Y0131277D01*
X0062000Y0131876D02*
X0054921Y0131876D01*
X0054323Y0132474D02*
X0062000Y0132474D01*
X0062000Y0133073D02*
X0053724Y0133073D01*
X0053126Y0133671D02*
X0062000Y0133671D01*
X0062000Y0134270D02*
X0052527Y0134270D01*
X0051929Y0134868D02*
X0062000Y0134868D01*
X0062000Y0135467D02*
X0051330Y0135467D01*
X0050732Y0136065D02*
X0062000Y0136065D01*
X0062000Y0136664D02*
X0050133Y0136664D01*
X0049535Y0137262D02*
X0062000Y0137262D01*
X0062000Y0137861D02*
X0048936Y0137861D01*
X0048338Y0138459D02*
X0062000Y0138459D01*
X0062000Y0139058D02*
X0047850Y0139058D01*
X0048098Y0139656D02*
X0062000Y0139656D01*
X0062000Y0140255D02*
X0048346Y0140255D01*
X0048400Y0140853D02*
X0062000Y0140853D01*
X0062000Y0141452D02*
X0048400Y0141452D01*
X0048400Y0142050D02*
X0062000Y0142050D01*
X0062000Y0142649D02*
X0048220Y0142649D01*
X0047972Y0143247D02*
X0062000Y0143247D01*
X0062000Y0143846D02*
X0047724Y0143846D01*
X0047161Y0144444D02*
X0062000Y0144444D01*
X0062000Y0145043D02*
X0046562Y0145043D01*
X0045339Y0145641D02*
X0062000Y0145641D01*
X0062000Y0146240D02*
X0005600Y0146240D01*
X0005600Y0146839D02*
X0062000Y0146839D01*
X0052126Y0131277D02*
X0044100Y0131277D01*
X0044100Y0130679D02*
X0043500Y0130679D01*
X0043500Y0131000D02*
X0043500Y0126300D01*
X0043406Y0126300D01*
X0042629Y0126423D01*
X0041881Y0126666D01*
X0041179Y0127024D01*
X0040543Y0127486D01*
X0039986Y0128043D01*
X0039524Y0128679D01*
X0039166Y0129381D01*
X0038923Y0130129D01*
X0038800Y0130906D01*
X0038800Y0131000D01*
X0043500Y0131000D01*
X0043500Y0131277D02*
X0035000Y0131277D01*
X0035000Y0130679D02*
X0038836Y0130679D01*
X0038939Y0130080D02*
X0035000Y0130080D01*
X0035000Y0129482D02*
X0039133Y0129482D01*
X0039420Y0128883D02*
X0035000Y0128883D01*
X0035000Y0128285D02*
X0039810Y0128285D01*
X0040343Y0127686D02*
X0035000Y0127686D01*
X0035000Y0127088D02*
X0041091Y0127088D01*
X0041417Y0125292D02*
X0035000Y0125292D01*
X0035000Y0124694D02*
X0040688Y0124694D01*
X0040090Y0124095D02*
X0035000Y0124095D01*
X0035000Y0123497D02*
X0039731Y0123497D01*
X0039483Y0122898D02*
X0035000Y0122898D01*
X0035000Y0122300D02*
X0039235Y0122300D01*
X0039200Y0121701D02*
X0035000Y0121701D01*
X0035000Y0121103D02*
X0039200Y0121103D01*
X0041112Y0115117D02*
X0035000Y0115117D01*
X0035000Y0114519D02*
X0040514Y0114519D01*
X0039915Y0113920D02*
X0035000Y0113920D01*
X0035000Y0113322D02*
X0039658Y0113322D01*
X0039411Y0112723D02*
X0035000Y0112723D01*
X0035000Y0112125D02*
X0039200Y0112125D01*
X0039200Y0111526D02*
X0035000Y0111526D01*
X0035000Y0110928D02*
X0039200Y0110928D01*
X0039223Y0110329D02*
X0035000Y0110329D01*
X0035000Y0109731D02*
X0039471Y0109731D01*
X0039719Y0109132D02*
X0035000Y0109132D01*
X0035000Y0108534D02*
X0040061Y0108534D01*
X0040659Y0107935D02*
X0034632Y0107935D01*
X0034034Y0107337D02*
X0041348Y0107337D01*
X0042793Y0106738D02*
X0033435Y0106738D01*
X0032837Y0106140D02*
X0047600Y0106140D01*
X0047600Y0106738D02*
X0044807Y0106738D01*
X0046252Y0107337D02*
X0047600Y0107337D01*
X0047600Y0107935D02*
X0046941Y0107935D01*
X0047600Y0105541D02*
X0032238Y0105541D01*
X0031640Y0104943D02*
X0047600Y0104943D01*
X0047600Y0104344D02*
X0031041Y0104344D01*
X0030443Y0103746D02*
X0047600Y0103746D01*
X0047600Y0103147D02*
X0029844Y0103147D01*
X0029246Y0102549D02*
X0047600Y0102549D01*
X0047600Y0101950D02*
X0028647Y0101950D01*
X0028049Y0101352D02*
X0047600Y0101352D01*
X0047600Y0100753D02*
X0027450Y0100753D01*
X0026852Y0100155D02*
X0047600Y0100155D01*
X0047600Y0099556D02*
X0026253Y0099556D01*
X0025655Y0098958D02*
X0047600Y0098958D01*
X0047600Y0098359D02*
X0025056Y0098359D01*
X0024458Y0097761D02*
X0047600Y0097761D01*
X0047600Y0097162D02*
X0036922Y0097162D01*
X0038162Y0096830D02*
X0035288Y0097600D01*
X0032312Y0097600D01*
X0029438Y0096830D01*
X0026862Y0095342D01*
X0024758Y0093238D01*
X0023270Y0090662D01*
X0022500Y0087788D01*
X0022500Y0084812D01*
X0023270Y0081938D01*
X0024758Y0079362D01*
X0026862Y0077258D01*
X0029438Y0075770D01*
X0032312Y0075000D01*
X0035288Y0075000D01*
X0038162Y0075770D01*
X0040738Y0077258D01*
X0042842Y0079362D01*
X0044330Y0081938D01*
X0045100Y0084812D01*
X0045100Y0087788D01*
X0044330Y0090662D01*
X0042842Y0093238D01*
X0040738Y0095342D01*
X0038162Y0096830D01*
X0038623Y0096564D02*
X0047600Y0096564D01*
X0047600Y0095965D02*
X0039660Y0095965D01*
X0040696Y0095367D02*
X0047600Y0095367D01*
X0047600Y0094768D02*
X0041313Y0094768D01*
X0041911Y0094170D02*
X0047600Y0094170D01*
X0047600Y0093571D02*
X0042510Y0093571D01*
X0042996Y0092972D02*
X0047600Y0092972D01*
X0047600Y0092374D02*
X0043341Y0092374D01*
X0043687Y0091775D02*
X0047600Y0091775D01*
X0047600Y0091177D02*
X0044032Y0091177D01*
X0044352Y0090578D02*
X0047600Y0090578D01*
X0047600Y0089980D02*
X0044513Y0089980D01*
X0044673Y0089381D02*
X0047600Y0089381D01*
X0047600Y0088783D02*
X0044833Y0088783D01*
X0044994Y0088184D02*
X0047600Y0088184D01*
X0047600Y0087586D02*
X0045100Y0087586D01*
X0045100Y0086987D02*
X0047600Y0086987D01*
X0047600Y0086389D02*
X0045100Y0086389D01*
X0045100Y0085790D02*
X0047600Y0085790D01*
X0047600Y0085192D02*
X0045100Y0085192D01*
X0045041Y0084593D02*
X0047600Y0084593D01*
X0047600Y0083995D02*
X0044881Y0083995D01*
X0044721Y0083396D02*
X0047600Y0083396D01*
X0047600Y0082798D02*
X0044560Y0082798D01*
X0044400Y0082199D02*
X0047600Y0082199D01*
X0047600Y0081601D02*
X0044135Y0081601D01*
X0043789Y0081002D02*
X0047600Y0081002D01*
X0047600Y0080404D02*
X0043444Y0080404D01*
X0043098Y0079805D02*
X0047600Y0079805D01*
X0047600Y0079207D02*
X0042687Y0079207D01*
X0042089Y0078608D02*
X0047600Y0078608D01*
X0047600Y0078010D02*
X0041490Y0078010D01*
X0040892Y0077411D02*
X0047600Y0077411D01*
X0047600Y0076813D02*
X0039967Y0076813D01*
X0038931Y0076214D02*
X0047017Y0076214D01*
X0046419Y0075616D02*
X0037585Y0075616D01*
X0035352Y0075017D02*
X0045820Y0075017D01*
X0045222Y0074419D02*
X0024878Y0074419D01*
X0024280Y0075017D02*
X0032248Y0075017D01*
X0030015Y0075616D02*
X0023681Y0075616D01*
X0023083Y0076214D02*
X0028669Y0076214D01*
X0027633Y0076813D02*
X0022484Y0076813D01*
X0021886Y0077411D02*
X0026708Y0077411D01*
X0026110Y0078010D02*
X0021287Y0078010D01*
X0020689Y0078608D02*
X0025511Y0078608D01*
X0024913Y0079207D02*
X0020090Y0079207D01*
X0020000Y0079805D02*
X0024502Y0079805D01*
X0024156Y0080404D02*
X0020000Y0080404D01*
X0020000Y0081002D02*
X0023811Y0081002D01*
X0023465Y0081601D02*
X0020000Y0081601D01*
X0020000Y0082199D02*
X0023200Y0082199D01*
X0023040Y0082798D02*
X0020000Y0082798D01*
X0020000Y0083396D02*
X0022879Y0083396D01*
X0022719Y0083995D02*
X0020000Y0083995D01*
X0020000Y0084593D02*
X0022559Y0084593D01*
X0022500Y0085192D02*
X0020000Y0085192D01*
X0020000Y0085790D02*
X0022500Y0085790D01*
X0022500Y0086389D02*
X0020000Y0086389D01*
X0020000Y0086987D02*
X0022500Y0086987D01*
X0022500Y0087586D02*
X0020000Y0087586D01*
X0020000Y0088184D02*
X0022606Y0088184D01*
X0022767Y0088783D02*
X0020000Y0088783D01*
X0020000Y0089381D02*
X0022927Y0089381D01*
X0023087Y0089980D02*
X0020000Y0089980D01*
X0020000Y0090578D02*
X0023248Y0090578D01*
X0023568Y0091177D02*
X0020000Y0091177D01*
X0020000Y0091775D02*
X0023913Y0091775D01*
X0024259Y0092374D02*
X0020000Y0092374D01*
X0020000Y0092972D02*
X0024604Y0092972D01*
X0025090Y0093571D02*
X0020268Y0093571D01*
X0020867Y0094170D02*
X0025689Y0094170D01*
X0026287Y0094768D02*
X0021465Y0094768D01*
X0022064Y0095367D02*
X0026904Y0095367D01*
X0027940Y0095965D02*
X0022662Y0095965D01*
X0023261Y0096564D02*
X0028977Y0096564D01*
X0030678Y0097162D02*
X0023859Y0097162D01*
X0022859Y0099556D02*
X0015000Y0099556D01*
X0015000Y0098958D02*
X0022261Y0098958D01*
X0021662Y0098359D02*
X0015000Y0098359D01*
X0015000Y0097761D02*
X0021064Y0097761D01*
X0020465Y0097162D02*
X0015000Y0097162D01*
X0015000Y0096564D02*
X0019867Y0096564D01*
X0019268Y0095965D02*
X0015000Y0095965D01*
X0015000Y0095367D02*
X0018669Y0095367D01*
X0018071Y0094768D02*
X0015000Y0094768D01*
X0015000Y0094170D02*
X0017600Y0094170D01*
X0017600Y0093571D02*
X0015000Y0093571D01*
X0015000Y0092972D02*
X0017600Y0092972D01*
X0017600Y0092374D02*
X0015000Y0092374D01*
X0015000Y0091775D02*
X0017600Y0091775D01*
X0017600Y0091177D02*
X0015000Y0091177D01*
X0015000Y0090578D02*
X0017600Y0090578D01*
X0017600Y0089980D02*
X0015000Y0089980D01*
X0015000Y0089381D02*
X0017600Y0089381D01*
X0017600Y0088783D02*
X0015000Y0088783D01*
X0015000Y0088184D02*
X0017600Y0088184D01*
X0017600Y0087586D02*
X0015000Y0087586D01*
X0015000Y0086987D02*
X0017600Y0086987D01*
X0017600Y0086389D02*
X0015000Y0086389D01*
X0015000Y0085790D02*
X0017600Y0085790D01*
X0017600Y0085192D02*
X0015000Y0085192D01*
X0015000Y0084593D02*
X0017600Y0084593D01*
X0017600Y0083995D02*
X0015000Y0083995D01*
X0015000Y0083396D02*
X0017600Y0083396D01*
X0017600Y0082798D02*
X0015000Y0082798D01*
X0015000Y0082199D02*
X0017600Y0082199D01*
X0017600Y0081601D02*
X0015000Y0081601D01*
X0015000Y0081002D02*
X0017600Y0081002D01*
X0017600Y0080404D02*
X0015000Y0080404D01*
X0015000Y0079805D02*
X0017600Y0079805D01*
X0017600Y0079207D02*
X0015000Y0079207D01*
X0015000Y0078608D02*
X0017600Y0078608D01*
X0017893Y0078010D02*
X0015000Y0078010D01*
X0015000Y0077411D02*
X0018492Y0077411D01*
X0019090Y0076813D02*
X0015000Y0076813D01*
X0015000Y0076214D02*
X0019689Y0076214D01*
X0020287Y0075616D02*
X0015000Y0075616D01*
X0015000Y0075017D02*
X0020886Y0075017D01*
X0021484Y0074419D02*
X0015000Y0074419D01*
X0015000Y0073820D02*
X0022083Y0073820D01*
X0022681Y0073222D02*
X0015000Y0073222D01*
X0015000Y0072623D02*
X0023280Y0072623D01*
X0023878Y0072025D02*
X0015000Y0072025D01*
X0015000Y0071426D02*
X0024477Y0071426D01*
X0025075Y0070828D02*
X0015000Y0070828D01*
X0015000Y0070229D02*
X0025674Y0070229D01*
X0026272Y0069631D02*
X0015000Y0069631D01*
X0015000Y0069032D02*
X0026871Y0069032D01*
X0027469Y0068434D02*
X0015000Y0068434D01*
X0015000Y0067835D02*
X0028068Y0067835D01*
X0028666Y0067237D02*
X0015000Y0067237D01*
X0015000Y0066638D02*
X0029265Y0066638D01*
X0030864Y0068434D02*
X0039236Y0068434D01*
X0039835Y0069032D02*
X0030265Y0069032D01*
X0029666Y0069631D02*
X0040434Y0069631D01*
X0041032Y0070229D02*
X0029068Y0070229D01*
X0028469Y0070828D02*
X0041631Y0070828D01*
X0042229Y0071426D02*
X0027871Y0071426D01*
X0027272Y0072025D02*
X0042828Y0072025D01*
X0043426Y0072623D02*
X0026674Y0072623D01*
X0026075Y0073222D02*
X0044025Y0073222D01*
X0044623Y0073820D02*
X0025477Y0073820D01*
X0023800Y0061300D02*
X0028800Y0056300D01*
X0027600Y0048084D02*
X0027090Y0048084D01*
X0027600Y0047486D02*
X0026491Y0047486D01*
X0027600Y0046887D02*
X0025167Y0046887D01*
X0026197Y0045690D02*
X0027600Y0045690D01*
X0027600Y0045092D02*
X0027079Y0045092D01*
X0027600Y0046289D02*
X0024265Y0046289D01*
X0024100Y0046289D02*
X0023500Y0046289D01*
X0023335Y0046289D02*
X0015000Y0046289D01*
X0015000Y0046887D02*
X0022433Y0046887D01*
X0023500Y0045690D02*
X0024100Y0045690D01*
X0024100Y0045092D02*
X0023500Y0045092D01*
X0023500Y0044493D02*
X0024100Y0044493D01*
X0024100Y0043895D02*
X0023500Y0043895D01*
X0023500Y0043296D02*
X0024100Y0043296D01*
X0024100Y0042698D02*
X0023500Y0042698D01*
X0023500Y0042099D02*
X0024100Y0042099D01*
X0023500Y0041501D02*
X0015297Y0041501D01*
X0015000Y0042099D02*
X0018864Y0042099D01*
X0018997Y0042698D02*
X0015000Y0042698D01*
X0015000Y0043296D02*
X0019205Y0043296D01*
X0019510Y0043895D02*
X0015000Y0043895D01*
X0015000Y0044493D02*
X0019940Y0044493D01*
X0020521Y0045092D02*
X0015000Y0045092D01*
X0015000Y0045690D02*
X0021403Y0045690D01*
X0021109Y0047486D02*
X0015000Y0047486D01*
X0015000Y0048084D02*
X0020510Y0048084D01*
X0019912Y0048683D02*
X0015000Y0048683D01*
X0015000Y0049281D02*
X0019657Y0049281D01*
X0019409Y0049880D02*
X0015000Y0049880D01*
X0015000Y0050478D02*
X0019200Y0050478D01*
X0019200Y0051077D02*
X0015000Y0051077D01*
X0015000Y0051675D02*
X0019200Y0051675D01*
X0019224Y0052274D02*
X0015000Y0052274D01*
X0015000Y0052872D02*
X0019472Y0052872D01*
X0019720Y0053471D02*
X0015000Y0053471D01*
X0015000Y0054069D02*
X0020064Y0054069D01*
X0020662Y0054668D02*
X0015000Y0054668D01*
X0015000Y0055266D02*
X0021355Y0055266D01*
X0023500Y0041000D02*
X0018800Y0041000D01*
X0018800Y0040906D01*
X0018923Y0040129D01*
X0019166Y0039381D01*
X0019524Y0038679D01*
X0019986Y0038043D01*
X0020543Y0037486D01*
X0021179Y0037024D01*
X0021881Y0036666D01*
X0022629Y0036423D01*
X0023406Y0036300D01*
X0023500Y0036300D01*
X0023500Y0041000D01*
X0023500Y0040902D02*
X0024100Y0040902D01*
X0024100Y0040303D02*
X0023500Y0040303D01*
X0023500Y0039705D02*
X0024100Y0039705D01*
X0024100Y0039106D02*
X0023500Y0039106D01*
X0023500Y0038508D02*
X0024100Y0038508D01*
X0024100Y0037909D02*
X0023500Y0037909D01*
X0023500Y0037311D02*
X0024100Y0037311D01*
X0024100Y0036712D02*
X0023500Y0036712D01*
X0021790Y0036712D02*
X0020085Y0036712D01*
X0020683Y0036114D02*
X0027600Y0036114D01*
X0027600Y0036712D02*
X0025810Y0036712D01*
X0026816Y0037311D02*
X0027600Y0037311D01*
X0027600Y0037909D02*
X0027480Y0037909D01*
X0027600Y0035515D02*
X0025643Y0035515D01*
X0026688Y0034917D02*
X0027600Y0034917D01*
X0027600Y0034318D02*
X0027287Y0034318D01*
X0027339Y0028333D02*
X0027600Y0028333D01*
X0027600Y0027735D02*
X0026740Y0027735D01*
X0027600Y0027136D02*
X0025768Y0027136D01*
X0027600Y0026538D02*
X0020735Y0026538D01*
X0021333Y0027136D02*
X0021832Y0027136D01*
X0020136Y0025939D02*
X0027600Y0025939D01*
X0027600Y0025341D02*
X0019538Y0025341D01*
X0018939Y0024742D02*
X0027600Y0024742D01*
X0027600Y0024144D02*
X0018341Y0024144D01*
X0017742Y0023545D02*
X0027600Y0023545D01*
X0027600Y0022947D02*
X0017144Y0022947D01*
X0013800Y0010976D02*
X0013400Y0010976D01*
X0013397Y0010378D02*
X0013884Y0010378D01*
X0014037Y0009779D02*
X0013149Y0009779D01*
X0012901Y0009181D02*
X0014268Y0009181D01*
X0014594Y0008582D02*
X0012588Y0008582D01*
X0011989Y0007984D02*
X0015045Y0007984D01*
X0015681Y0007385D02*
X0011370Y0007385D01*
X0009925Y0006787D02*
X0016644Y0006787D01*
X0008800Y0011300D02*
X0008800Y0016300D01*
X0018888Y0037909D02*
X0020119Y0037909D01*
X0019648Y0038508D02*
X0018289Y0038508D01*
X0017691Y0039106D02*
X0019306Y0039106D01*
X0019061Y0039705D02*
X0017092Y0039705D01*
X0016494Y0040303D02*
X0018895Y0040303D01*
X0018801Y0040902D02*
X0015895Y0040902D01*
X0019486Y0037311D02*
X0020784Y0037311D01*
X0021282Y0035515D02*
X0021957Y0035515D01*
X0031439Y0015166D02*
X0036161Y0015166D01*
X0035562Y0014568D02*
X0032038Y0014568D01*
X0032636Y0013969D02*
X0034964Y0013969D01*
X0034679Y0013370D02*
X0032921Y0013370D01*
X0033169Y0012772D02*
X0034431Y0012772D01*
X0034200Y0012173D02*
X0033400Y0012173D01*
X0033400Y0011575D02*
X0034200Y0011575D01*
X0034200Y0010976D02*
X0033400Y0010976D01*
X0033397Y0010378D02*
X0034203Y0010378D01*
X0034451Y0009779D02*
X0033149Y0009779D01*
X0032901Y0009181D02*
X0034699Y0009181D01*
X0035012Y0008582D02*
X0032588Y0008582D01*
X0031989Y0007984D02*
X0035611Y0007984D01*
X0036230Y0007385D02*
X0031370Y0007385D01*
X0029925Y0006787D02*
X0037675Y0006787D01*
X0039925Y0006787D02*
X0047675Y0006787D01*
X0046230Y0007385D02*
X0041370Y0007385D01*
X0041989Y0007984D02*
X0045611Y0007984D01*
X0045012Y0008582D02*
X0042588Y0008582D01*
X0042901Y0009181D02*
X0044699Y0009181D01*
X0044451Y0009779D02*
X0043149Y0009779D01*
X0043397Y0010378D02*
X0044203Y0010378D01*
X0044200Y0010976D02*
X0043400Y0010976D01*
X0043400Y0011575D02*
X0044200Y0011575D01*
X0044200Y0012173D02*
X0043400Y0012173D01*
X0043169Y0012772D02*
X0044431Y0012772D01*
X0044679Y0013370D02*
X0042921Y0013370D01*
X0042636Y0013969D02*
X0044434Y0013969D01*
X0043835Y0014568D02*
X0042038Y0014568D01*
X0041439Y0015166D02*
X0043237Y0015166D01*
X0042638Y0015765D02*
X0040042Y0015765D01*
X0040000Y0016363D02*
X0042040Y0016363D01*
X0041441Y0016962D02*
X0039835Y0016962D01*
X0039237Y0017560D02*
X0040843Y0017560D01*
X0040244Y0018159D02*
X0038638Y0018159D01*
X0038040Y0018757D02*
X0039646Y0018757D01*
X0039047Y0019356D02*
X0037441Y0019356D01*
X0036843Y0019954D02*
X0038449Y0019954D01*
X0037850Y0020553D02*
X0036244Y0020553D01*
X0035646Y0021151D02*
X0037600Y0021151D01*
X0037600Y0021750D02*
X0035047Y0021750D01*
X0035000Y0022348D02*
X0037600Y0022348D01*
X0037600Y0022947D02*
X0035000Y0022947D01*
X0035000Y0023545D02*
X0037600Y0023545D01*
X0037600Y0024144D02*
X0035000Y0024144D01*
X0035000Y0024742D02*
X0037600Y0024742D01*
X0037600Y0025341D02*
X0035000Y0025341D01*
X0035000Y0025939D02*
X0037600Y0025939D01*
X0037600Y0026538D02*
X0035000Y0026538D01*
X0035000Y0027136D02*
X0037600Y0027136D01*
X0037600Y0027735D02*
X0035000Y0027735D01*
X0035000Y0028333D02*
X0037600Y0028333D01*
X0037600Y0028932D02*
X0035000Y0028932D01*
X0035000Y0029530D02*
X0037600Y0029530D01*
X0037600Y0030129D02*
X0035000Y0030129D01*
X0035000Y0030727D02*
X0037600Y0030727D01*
X0037600Y0031326D02*
X0035000Y0031326D01*
X0035000Y0031924D02*
X0037600Y0031924D01*
X0037600Y0032523D02*
X0035000Y0032523D01*
X0035000Y0033121D02*
X0037600Y0033121D01*
X0037600Y0033720D02*
X0035000Y0033720D01*
X0035000Y0034318D02*
X0037600Y0034318D01*
X0037600Y0034917D02*
X0035000Y0034917D01*
X0035000Y0035515D02*
X0037600Y0035515D01*
X0037600Y0036114D02*
X0035000Y0036114D01*
X0035000Y0036712D02*
X0037600Y0036712D01*
X0037600Y0037311D02*
X0035000Y0037311D01*
X0035000Y0037909D02*
X0037600Y0037909D01*
X0037600Y0038508D02*
X0035000Y0038508D01*
X0035000Y0039106D02*
X0037600Y0039106D01*
X0037600Y0039705D02*
X0035000Y0039705D01*
X0035000Y0040303D02*
X0037600Y0040303D01*
X0037600Y0040902D02*
X0035000Y0040902D01*
X0035000Y0041501D02*
X0037600Y0041501D01*
X0037600Y0042099D02*
X0035000Y0042099D01*
X0035000Y0042698D02*
X0037600Y0042698D01*
X0037600Y0043296D02*
X0035000Y0043296D01*
X0035000Y0043895D02*
X0037600Y0043895D01*
X0037600Y0044493D02*
X0035000Y0044493D01*
X0035000Y0045092D02*
X0037600Y0045092D01*
X0037600Y0045690D02*
X0035000Y0045690D01*
X0035000Y0046289D02*
X0037600Y0046289D01*
X0037600Y0046887D02*
X0035000Y0046887D01*
X0035000Y0047486D02*
X0037600Y0047486D01*
X0037600Y0048084D02*
X0035000Y0048084D01*
X0035000Y0048683D02*
X0037600Y0048683D01*
X0037600Y0049281D02*
X0035000Y0049281D01*
X0035000Y0049880D02*
X0037600Y0049880D01*
X0037600Y0050478D02*
X0035000Y0050478D01*
X0035000Y0051077D02*
X0037600Y0051077D01*
X0037600Y0051675D02*
X0035000Y0051675D01*
X0035000Y0052274D02*
X0037600Y0052274D01*
X0037600Y0052872D02*
X0035000Y0052872D01*
X0035000Y0053471D02*
X0037600Y0053471D01*
X0037600Y0054069D02*
X0035000Y0054069D01*
X0035000Y0054668D02*
X0037600Y0054668D01*
X0037600Y0055266D02*
X0035000Y0055266D01*
X0035000Y0055865D02*
X0037600Y0055865D01*
X0037600Y0056463D02*
X0035000Y0056463D01*
X0035000Y0057062D02*
X0037600Y0057062D01*
X0037600Y0057660D02*
X0035000Y0057660D01*
X0035000Y0058259D02*
X0037600Y0058259D01*
X0037600Y0058857D02*
X0035000Y0058857D01*
X0035000Y0059456D02*
X0037600Y0059456D01*
X0037600Y0060054D02*
X0035000Y0060054D01*
X0035000Y0060653D02*
X0037600Y0060653D01*
X0037600Y0061251D02*
X0035000Y0061251D01*
X0035000Y0061850D02*
X0037600Y0061850D01*
X0037600Y0062448D02*
X0035000Y0062448D01*
X0035000Y0063047D02*
X0037600Y0063047D01*
X0037600Y0063645D02*
X0035000Y0063645D01*
X0035000Y0064244D02*
X0037600Y0064244D01*
X0037600Y0064842D02*
X0034455Y0064842D01*
X0033856Y0065441D02*
X0037600Y0065441D01*
X0037600Y0066039D02*
X0033258Y0066039D01*
X0032659Y0066638D02*
X0037600Y0066638D01*
X0038039Y0067237D02*
X0032061Y0067237D01*
X0031462Y0067835D02*
X0038638Y0067835D01*
X0038800Y0066300D02*
X0048800Y0076300D01*
X0048800Y0108800D01*
X0046300Y0111300D01*
X0043800Y0111300D01*
X0046488Y0115117D02*
X0052600Y0115117D01*
X0052600Y0114519D02*
X0047086Y0114519D01*
X0047685Y0113920D02*
X0052600Y0113920D01*
X0052600Y0113322D02*
X0047942Y0113322D01*
X0048189Y0112723D02*
X0052600Y0112723D01*
X0052600Y0112125D02*
X0048400Y0112125D01*
X0048400Y0111526D02*
X0052600Y0111526D01*
X0052600Y0110928D02*
X0048400Y0110928D01*
X0048968Y0110329D02*
X0052600Y0110329D01*
X0052600Y0109731D02*
X0049566Y0109731D01*
X0050000Y0109132D02*
X0052600Y0109132D01*
X0052600Y0108534D02*
X0050000Y0108534D01*
X0050000Y0107935D02*
X0052600Y0107935D01*
X0052600Y0107337D02*
X0050000Y0107337D01*
X0050000Y0106738D02*
X0052600Y0106738D01*
X0052600Y0106140D02*
X0050000Y0106140D01*
X0050000Y0105541D02*
X0052600Y0105541D01*
X0052600Y0104943D02*
X0050000Y0104943D01*
X0050000Y0104344D02*
X0052600Y0104344D01*
X0052600Y0103746D02*
X0050000Y0103746D01*
X0050000Y0103147D02*
X0052600Y0103147D01*
X0052600Y0102549D02*
X0050000Y0102549D01*
X0050000Y0101950D02*
X0052600Y0101950D01*
X0052600Y0101352D02*
X0050000Y0101352D01*
X0050000Y0100753D02*
X0052600Y0100753D01*
X0052600Y0100155D02*
X0050000Y0100155D01*
X0050000Y0099556D02*
X0052600Y0099556D01*
X0052600Y0098958D02*
X0050000Y0098958D01*
X0050000Y0098359D02*
X0052600Y0098359D01*
X0052600Y0097761D02*
X0050000Y0097761D01*
X0050000Y0097162D02*
X0052600Y0097162D01*
X0052600Y0096564D02*
X0050000Y0096564D01*
X0050000Y0095965D02*
X0052600Y0095965D01*
X0052600Y0095367D02*
X0050000Y0095367D01*
X0050000Y0094768D02*
X0052600Y0094768D01*
X0052600Y0094170D02*
X0050000Y0094170D01*
X0050000Y0093571D02*
X0052600Y0093571D01*
X0052600Y0092972D02*
X0050000Y0092972D01*
X0050000Y0092374D02*
X0052600Y0092374D01*
X0052600Y0091775D02*
X0050000Y0091775D01*
X0050000Y0091177D02*
X0052600Y0091177D01*
X0052600Y0090578D02*
X0050000Y0090578D01*
X0050000Y0089980D02*
X0052600Y0089980D01*
X0052600Y0089381D02*
X0050000Y0089381D01*
X0050000Y0088783D02*
X0052600Y0088783D01*
X0052600Y0088184D02*
X0050000Y0088184D01*
X0050000Y0087586D02*
X0052600Y0087586D01*
X0052600Y0086987D02*
X0050000Y0086987D01*
X0050000Y0086389D02*
X0052600Y0086389D01*
X0052600Y0085790D02*
X0050000Y0085790D01*
X0050000Y0085192D02*
X0052600Y0085192D01*
X0052600Y0084593D02*
X0050000Y0084593D01*
X0050000Y0083995D02*
X0052600Y0083995D01*
X0052600Y0083396D02*
X0050000Y0083396D01*
X0050000Y0082798D02*
X0052600Y0082798D01*
X0052600Y0082199D02*
X0050000Y0082199D01*
X0050000Y0081601D02*
X0052600Y0081601D01*
X0052600Y0081002D02*
X0050000Y0081002D01*
X0050000Y0080404D02*
X0052600Y0080404D01*
X0052600Y0079805D02*
X0050000Y0079805D01*
X0050000Y0079207D02*
X0052600Y0079207D01*
X0052600Y0078608D02*
X0050000Y0078608D01*
X0050000Y0078010D02*
X0052600Y0078010D01*
X0052600Y0077411D02*
X0050000Y0077411D01*
X0050000Y0076813D02*
X0052600Y0076813D01*
X0052600Y0076214D02*
X0050000Y0076214D01*
X0049813Y0075616D02*
X0052600Y0075616D01*
X0052600Y0075017D02*
X0049214Y0075017D01*
X0048616Y0074419D02*
X0052600Y0074419D01*
X0052600Y0073820D02*
X0048017Y0073820D01*
X0047419Y0073222D02*
X0052600Y0073222D01*
X0052600Y0072623D02*
X0046820Y0072623D01*
X0046222Y0072025D02*
X0052600Y0072025D01*
X0052229Y0071426D02*
X0045623Y0071426D01*
X0045025Y0070828D02*
X0051631Y0070828D01*
X0051032Y0070229D02*
X0044426Y0070229D01*
X0043828Y0069631D02*
X0050434Y0069631D01*
X0049835Y0069032D02*
X0043229Y0069032D01*
X0042631Y0068434D02*
X0049236Y0068434D01*
X0048638Y0067835D02*
X0042032Y0067835D01*
X0041434Y0067237D02*
X0048039Y0067237D01*
X0047441Y0066638D02*
X0040835Y0066638D01*
X0040237Y0066039D02*
X0046842Y0066039D01*
X0046244Y0065441D02*
X0045823Y0065441D01*
X0042012Y0057062D02*
X0040000Y0057062D01*
X0040000Y0057660D02*
X0040934Y0057660D01*
X0040336Y0058259D02*
X0040000Y0058259D01*
X0040000Y0056463D02*
X0062000Y0056463D01*
X0062000Y0055865D02*
X0045855Y0055865D01*
X0045719Y0055934D02*
X0044971Y0056177D01*
X0044194Y0056300D01*
X0044100Y0056300D01*
X0044100Y0051600D01*
X0048800Y0051600D01*
X0048800Y0051694D01*
X0048677Y0052471D01*
X0048434Y0053219D01*
X0048076Y0053921D01*
X0047614Y0054557D01*
X0047057Y0055114D01*
X0046421Y0055576D01*
X0045719Y0055934D01*
X0046847Y0055266D02*
X0062000Y0055266D01*
X0062000Y0054668D02*
X0047503Y0054668D01*
X0047968Y0054069D02*
X0062000Y0054069D01*
X0062000Y0053471D02*
X0048306Y0053471D01*
X0048546Y0052872D02*
X0062000Y0052872D01*
X0062000Y0052274D02*
X0048708Y0052274D01*
X0048800Y0051675D02*
X0062000Y0051675D01*
X0062000Y0051077D02*
X0044100Y0051077D01*
X0044100Y0051000D02*
X0048800Y0051000D01*
X0048800Y0050906D01*
X0048677Y0050129D01*
X0048434Y0049381D01*
X0048076Y0048679D01*
X0047614Y0048043D01*
X0047057Y0047486D01*
X0046421Y0047024D01*
X0045719Y0046666D01*
X0044971Y0046423D01*
X0044194Y0046300D01*
X0044100Y0046300D01*
X0044100Y0051000D01*
X0044100Y0050478D02*
X0043500Y0050478D01*
X0043500Y0049880D02*
X0044100Y0049880D01*
X0044100Y0049281D02*
X0043500Y0049281D01*
X0043500Y0048683D02*
X0044100Y0048683D01*
X0044100Y0048084D02*
X0043500Y0048084D01*
X0043500Y0047486D02*
X0044100Y0047486D01*
X0044100Y0046887D02*
X0043500Y0046887D01*
X0042378Y0045690D02*
X0040000Y0045690D01*
X0040000Y0045092D02*
X0041086Y0045092D01*
X0040488Y0044493D02*
X0040000Y0044493D01*
X0040000Y0046289D02*
X0062000Y0046289D01*
X0062000Y0046887D02*
X0046153Y0046887D01*
X0047056Y0047486D02*
X0062000Y0047486D01*
X0062000Y0048084D02*
X0047644Y0048084D01*
X0048078Y0048683D02*
X0062000Y0048683D01*
X0062000Y0049281D02*
X0048383Y0049281D01*
X0048596Y0049880D02*
X0062000Y0049880D01*
X0062000Y0050478D02*
X0048732Y0050478D01*
X0046514Y0045092D02*
X0062000Y0045092D01*
X0062000Y0045690D02*
X0045222Y0045690D01*
X0047112Y0044493D02*
X0062000Y0044493D01*
X0062000Y0043895D02*
X0047704Y0043895D01*
X0047952Y0043296D02*
X0062000Y0043296D01*
X0062000Y0042698D02*
X0048200Y0042698D01*
X0048400Y0042099D02*
X0062000Y0042099D01*
X0062000Y0041501D02*
X0048400Y0041501D01*
X0048400Y0040902D02*
X0062000Y0040902D01*
X0062000Y0040303D02*
X0048366Y0040303D01*
X0048118Y0039705D02*
X0062000Y0039705D01*
X0062000Y0039106D02*
X0047870Y0039106D01*
X0047513Y0038508D02*
X0062000Y0038508D01*
X0062000Y0037909D02*
X0046915Y0037909D01*
X0046190Y0037311D02*
X0062000Y0037311D01*
X0053449Y0019954D02*
X0041843Y0019954D01*
X0042441Y0019356D02*
X0054047Y0019356D01*
X0054646Y0018757D02*
X0043040Y0018757D01*
X0043638Y0018159D02*
X0055244Y0018159D01*
X0055843Y0017560D02*
X0044237Y0017560D01*
X0044835Y0016962D02*
X0056441Y0016962D01*
X0057040Y0016363D02*
X0045434Y0016363D01*
X0046033Y0015765D02*
X0047558Y0015765D01*
X0048800Y0011300D02*
X0038800Y0021300D01*
X0038800Y0066300D01*
X0040000Y0065441D02*
X0041777Y0065441D01*
X0040837Y0064842D02*
X0040000Y0064842D01*
X0040000Y0064244D02*
X0040239Y0064244D01*
X0040000Y0055865D02*
X0041745Y0055865D01*
X0040753Y0055266D02*
X0040000Y0055266D01*
X0040000Y0054668D02*
X0040097Y0054668D01*
X0040000Y0047486D02*
X0040544Y0047486D01*
X0040000Y0046887D02*
X0041447Y0046887D01*
X0043500Y0051675D02*
X0044100Y0051675D01*
X0044100Y0052274D02*
X0043500Y0052274D01*
X0043500Y0052872D02*
X0044100Y0052872D01*
X0044100Y0053471D02*
X0043500Y0053471D01*
X0043500Y0054069D02*
X0044100Y0054069D01*
X0044100Y0054668D02*
X0043500Y0054668D01*
X0043500Y0055266D02*
X0044100Y0055266D01*
X0044100Y0055865D02*
X0043500Y0055865D01*
X0040087Y0038508D02*
X0040000Y0038508D01*
X0040000Y0037909D02*
X0040685Y0037909D01*
X0040000Y0037311D02*
X0041410Y0037311D01*
X0040000Y0036712D02*
X0042855Y0036712D01*
X0040261Y0028333D02*
X0040000Y0028333D01*
X0040000Y0027735D02*
X0040860Y0027735D01*
X0040000Y0027136D02*
X0041832Y0027136D01*
X0040000Y0026538D02*
X0046865Y0026538D01*
X0046267Y0027136D02*
X0045768Y0027136D01*
X0047464Y0025939D02*
X0040000Y0025939D01*
X0040000Y0025341D02*
X0048062Y0025341D01*
X0048661Y0024742D02*
X0040000Y0024742D01*
X0040000Y0024144D02*
X0049259Y0024144D01*
X0049858Y0023545D02*
X0040000Y0023545D01*
X0040000Y0022947D02*
X0050456Y0022947D01*
X0051055Y0022348D02*
X0040000Y0022348D01*
X0040047Y0021750D02*
X0051653Y0021750D01*
X0052252Y0021151D02*
X0040646Y0021151D01*
X0041244Y0020553D02*
X0052850Y0020553D01*
X0050042Y0015765D02*
X0057558Y0015765D01*
X0056161Y0015166D02*
X0051439Y0015166D01*
X0052038Y0014568D02*
X0055562Y0014568D01*
X0054964Y0013969D02*
X0052636Y0013969D01*
X0052921Y0013370D02*
X0054679Y0013370D01*
X0054431Y0012772D02*
X0053169Y0012772D01*
X0053400Y0012173D02*
X0054200Y0012173D01*
X0054200Y0011575D02*
X0053400Y0011575D01*
X0053400Y0010976D02*
X0054200Y0010976D01*
X0054203Y0010378D02*
X0053397Y0010378D01*
X0053149Y0009779D02*
X0054451Y0009779D01*
X0054699Y0009181D02*
X0052901Y0009181D01*
X0052588Y0008582D02*
X0055012Y0008582D01*
X0055611Y0007984D02*
X0051989Y0007984D01*
X0051370Y0007385D02*
X0056230Y0007385D01*
X0057675Y0006787D02*
X0049925Y0006787D01*
X0023458Y0100155D02*
X0015000Y0100155D01*
X0015000Y0100753D02*
X0024056Y0100753D01*
X0024655Y0101352D02*
X0015549Y0101352D01*
X0016147Y0101950D02*
X0025253Y0101950D01*
X0025852Y0102549D02*
X0016746Y0102549D01*
X0017344Y0103147D02*
X0026450Y0103147D01*
X0027049Y0103746D02*
X0017943Y0103746D01*
X0018541Y0104344D02*
X0027647Y0104344D01*
X0028246Y0104943D02*
X0019140Y0104943D01*
X0019738Y0105541D02*
X0028844Y0105541D01*
X0029443Y0106140D02*
X0020337Y0106140D01*
X0020935Y0106738D02*
X0022793Y0106738D01*
X0024807Y0106738D02*
X0030041Y0106738D01*
X0030640Y0107337D02*
X0026252Y0107337D01*
X0026941Y0107935D02*
X0031238Y0107935D01*
X0031837Y0108534D02*
X0027539Y0108534D01*
X0027881Y0109132D02*
X0032435Y0109132D01*
X0032600Y0109731D02*
X0028129Y0109731D01*
X0028377Y0110329D02*
X0032600Y0110329D01*
X0032600Y0110928D02*
X0028400Y0110928D01*
X0028400Y0111526D02*
X0032600Y0111526D01*
X0032600Y0112125D02*
X0028400Y0112125D01*
X0028189Y0112723D02*
X0032600Y0112723D01*
X0032600Y0113322D02*
X0027942Y0113322D01*
X0027685Y0113920D02*
X0032600Y0113920D01*
X0032600Y0114519D02*
X0027086Y0114519D01*
X0026488Y0115117D02*
X0032600Y0115117D01*
X0035000Y0125891D02*
X0042862Y0125891D01*
X0042426Y0126489D02*
X0035000Y0126489D01*
X0032600Y0127088D02*
X0025651Y0127088D01*
X0026692Y0127686D02*
X0032600Y0127686D01*
X0032600Y0128285D02*
X0027290Y0128285D01*
X0027778Y0128883D02*
X0032600Y0128883D01*
X0032600Y0129482D02*
X0028026Y0129482D01*
X0028274Y0130080D02*
X0032600Y0130080D01*
X0032600Y0130679D02*
X0028400Y0130679D01*
X0028400Y0131277D02*
X0032126Y0131277D01*
X0031527Y0131876D02*
X0028400Y0131876D01*
X0028293Y0132474D02*
X0030929Y0132474D01*
X0030330Y0133073D02*
X0028045Y0133073D01*
X0027797Y0133671D02*
X0029732Y0133671D01*
X0029133Y0134270D02*
X0027336Y0134270D01*
X0026737Y0134868D02*
X0028535Y0134868D01*
X0030732Y0136065D02*
X0042286Y0136065D01*
X0043500Y0136065D02*
X0044100Y0136065D01*
X0044100Y0135467D02*
X0043500Y0135467D01*
X0043500Y0134868D02*
X0044100Y0134868D01*
X0044100Y0134270D02*
X0043500Y0134270D01*
X0043500Y0133671D02*
X0044100Y0133671D01*
X0044100Y0133073D02*
X0043500Y0133073D01*
X0043500Y0132474D02*
X0044100Y0132474D01*
X0044100Y0131876D02*
X0043500Y0131876D01*
X0043500Y0130080D02*
X0044100Y0130080D01*
X0044100Y0129482D02*
X0043500Y0129482D01*
X0043500Y0128883D02*
X0044100Y0128883D01*
X0044100Y0128285D02*
X0043500Y0128285D01*
X0043500Y0127686D02*
X0044100Y0127686D01*
X0044100Y0127088D02*
X0043500Y0127088D01*
X0043500Y0126489D02*
X0044100Y0126489D01*
X0040297Y0134868D02*
X0031929Y0134868D01*
X0032527Y0134270D02*
X0039777Y0134270D01*
X0039397Y0133671D02*
X0033126Y0133671D01*
X0033724Y0133073D02*
X0039119Y0133073D01*
X0038924Y0132474D02*
X0034323Y0132474D01*
X0034921Y0131876D02*
X0038829Y0131876D01*
X0041029Y0135467D02*
X0031330Y0135467D01*
X0024100Y0125891D02*
X0023500Y0125891D01*
X0023500Y0125292D02*
X0024100Y0125292D01*
X0024100Y0124694D02*
X0023500Y0124694D01*
X0023500Y0124095D02*
X0024100Y0124095D01*
X0024100Y0123497D02*
X0023500Y0123497D01*
X0023500Y0122898D02*
X0024100Y0122898D01*
X0024100Y0122300D02*
X0023500Y0122300D01*
X0023500Y0120504D02*
X0024100Y0120504D01*
X0024100Y0119905D02*
X0023500Y0119905D01*
X0023500Y0119307D02*
X0024100Y0119307D01*
X0024100Y0118708D02*
X0023500Y0118708D01*
X0023500Y0118110D02*
X0024100Y0118110D01*
X0024100Y0117511D02*
X0023500Y0117511D01*
X0023500Y0116913D02*
X0024100Y0116913D01*
X0019650Y0124095D02*
X0005600Y0124095D01*
X0005600Y0123497D02*
X0019308Y0123497D01*
X0019062Y0122898D02*
X0005600Y0122898D01*
X0005600Y0122300D02*
X0018896Y0122300D01*
X0018801Y0121701D02*
X0005600Y0121701D01*
X0005600Y0124694D02*
X0020123Y0124694D01*
X0020788Y0125292D02*
X0005600Y0125292D01*
M02*
