G75*
%MOIN*%
%OFA0B0*%
%FSLAX25Y25*%
%IPPOS*%
%LPD*%
%AMOC8*
5,1,8,0,0,1.08239X$1,22.5*
%
%ADD10C,0.00000*%
%ADD11C,0.00300*%
%ADD12C,0.00800*%
%ADD13C,0.00500*%
D10*
X0001300Y0001300D02*
X0001300Y0151261D01*
X0066300Y0151300D01*
X0066300Y0001300D01*
X0001300Y0001300D01*
X0026800Y0086300D02*
X0026802Y0086472D01*
X0026808Y0086643D01*
X0026819Y0086815D01*
X0026834Y0086986D01*
X0026853Y0087157D01*
X0026876Y0087327D01*
X0026903Y0087497D01*
X0026935Y0087666D01*
X0026970Y0087834D01*
X0027010Y0088001D01*
X0027054Y0088167D01*
X0027101Y0088332D01*
X0027153Y0088496D01*
X0027209Y0088658D01*
X0027269Y0088819D01*
X0027333Y0088979D01*
X0027401Y0089137D01*
X0027472Y0089293D01*
X0027547Y0089447D01*
X0027627Y0089600D01*
X0027709Y0089750D01*
X0027796Y0089899D01*
X0027886Y0090045D01*
X0027980Y0090189D01*
X0028077Y0090331D01*
X0028178Y0090470D01*
X0028282Y0090607D01*
X0028389Y0090741D01*
X0028500Y0090872D01*
X0028613Y0091001D01*
X0028730Y0091127D01*
X0028850Y0091250D01*
X0028973Y0091370D01*
X0029099Y0091487D01*
X0029228Y0091600D01*
X0029359Y0091711D01*
X0029493Y0091818D01*
X0029630Y0091922D01*
X0029769Y0092023D01*
X0029911Y0092120D01*
X0030055Y0092214D01*
X0030201Y0092304D01*
X0030350Y0092391D01*
X0030500Y0092473D01*
X0030653Y0092553D01*
X0030807Y0092628D01*
X0030963Y0092699D01*
X0031121Y0092767D01*
X0031281Y0092831D01*
X0031442Y0092891D01*
X0031604Y0092947D01*
X0031768Y0092999D01*
X0031933Y0093046D01*
X0032099Y0093090D01*
X0032266Y0093130D01*
X0032434Y0093165D01*
X0032603Y0093197D01*
X0032773Y0093224D01*
X0032943Y0093247D01*
X0033114Y0093266D01*
X0033285Y0093281D01*
X0033457Y0093292D01*
X0033628Y0093298D01*
X0033800Y0093300D01*
X0033972Y0093298D01*
X0034143Y0093292D01*
X0034315Y0093281D01*
X0034486Y0093266D01*
X0034657Y0093247D01*
X0034827Y0093224D01*
X0034997Y0093197D01*
X0035166Y0093165D01*
X0035334Y0093130D01*
X0035501Y0093090D01*
X0035667Y0093046D01*
X0035832Y0092999D01*
X0035996Y0092947D01*
X0036158Y0092891D01*
X0036319Y0092831D01*
X0036479Y0092767D01*
X0036637Y0092699D01*
X0036793Y0092628D01*
X0036947Y0092553D01*
X0037100Y0092473D01*
X0037250Y0092391D01*
X0037399Y0092304D01*
X0037545Y0092214D01*
X0037689Y0092120D01*
X0037831Y0092023D01*
X0037970Y0091922D01*
X0038107Y0091818D01*
X0038241Y0091711D01*
X0038372Y0091600D01*
X0038501Y0091487D01*
X0038627Y0091370D01*
X0038750Y0091250D01*
X0038870Y0091127D01*
X0038987Y0091001D01*
X0039100Y0090872D01*
X0039211Y0090741D01*
X0039318Y0090607D01*
X0039422Y0090470D01*
X0039523Y0090331D01*
X0039620Y0090189D01*
X0039714Y0090045D01*
X0039804Y0089899D01*
X0039891Y0089750D01*
X0039973Y0089600D01*
X0040053Y0089447D01*
X0040128Y0089293D01*
X0040199Y0089137D01*
X0040267Y0088979D01*
X0040331Y0088819D01*
X0040391Y0088658D01*
X0040447Y0088496D01*
X0040499Y0088332D01*
X0040546Y0088167D01*
X0040590Y0088001D01*
X0040630Y0087834D01*
X0040665Y0087666D01*
X0040697Y0087497D01*
X0040724Y0087327D01*
X0040747Y0087157D01*
X0040766Y0086986D01*
X0040781Y0086815D01*
X0040792Y0086643D01*
X0040798Y0086472D01*
X0040800Y0086300D01*
X0040798Y0086128D01*
X0040792Y0085957D01*
X0040781Y0085785D01*
X0040766Y0085614D01*
X0040747Y0085443D01*
X0040724Y0085273D01*
X0040697Y0085103D01*
X0040665Y0084934D01*
X0040630Y0084766D01*
X0040590Y0084599D01*
X0040546Y0084433D01*
X0040499Y0084268D01*
X0040447Y0084104D01*
X0040391Y0083942D01*
X0040331Y0083781D01*
X0040267Y0083621D01*
X0040199Y0083463D01*
X0040128Y0083307D01*
X0040053Y0083153D01*
X0039973Y0083000D01*
X0039891Y0082850D01*
X0039804Y0082701D01*
X0039714Y0082555D01*
X0039620Y0082411D01*
X0039523Y0082269D01*
X0039422Y0082130D01*
X0039318Y0081993D01*
X0039211Y0081859D01*
X0039100Y0081728D01*
X0038987Y0081599D01*
X0038870Y0081473D01*
X0038750Y0081350D01*
X0038627Y0081230D01*
X0038501Y0081113D01*
X0038372Y0081000D01*
X0038241Y0080889D01*
X0038107Y0080782D01*
X0037970Y0080678D01*
X0037831Y0080577D01*
X0037689Y0080480D01*
X0037545Y0080386D01*
X0037399Y0080296D01*
X0037250Y0080209D01*
X0037100Y0080127D01*
X0036947Y0080047D01*
X0036793Y0079972D01*
X0036637Y0079901D01*
X0036479Y0079833D01*
X0036319Y0079769D01*
X0036158Y0079709D01*
X0035996Y0079653D01*
X0035832Y0079601D01*
X0035667Y0079554D01*
X0035501Y0079510D01*
X0035334Y0079470D01*
X0035166Y0079435D01*
X0034997Y0079403D01*
X0034827Y0079376D01*
X0034657Y0079353D01*
X0034486Y0079334D01*
X0034315Y0079319D01*
X0034143Y0079308D01*
X0033972Y0079302D01*
X0033800Y0079300D01*
X0033628Y0079302D01*
X0033457Y0079308D01*
X0033285Y0079319D01*
X0033114Y0079334D01*
X0032943Y0079353D01*
X0032773Y0079376D01*
X0032603Y0079403D01*
X0032434Y0079435D01*
X0032266Y0079470D01*
X0032099Y0079510D01*
X0031933Y0079554D01*
X0031768Y0079601D01*
X0031604Y0079653D01*
X0031442Y0079709D01*
X0031281Y0079769D01*
X0031121Y0079833D01*
X0030963Y0079901D01*
X0030807Y0079972D01*
X0030653Y0080047D01*
X0030500Y0080127D01*
X0030350Y0080209D01*
X0030201Y0080296D01*
X0030055Y0080386D01*
X0029911Y0080480D01*
X0029769Y0080577D01*
X0029630Y0080678D01*
X0029493Y0080782D01*
X0029359Y0080889D01*
X0029228Y0081000D01*
X0029099Y0081113D01*
X0028973Y0081230D01*
X0028850Y0081350D01*
X0028730Y0081473D01*
X0028613Y0081599D01*
X0028500Y0081728D01*
X0028389Y0081859D01*
X0028282Y0081993D01*
X0028178Y0082130D01*
X0028077Y0082269D01*
X0027980Y0082411D01*
X0027886Y0082555D01*
X0027796Y0082701D01*
X0027709Y0082850D01*
X0027627Y0083000D01*
X0027547Y0083153D01*
X0027472Y0083307D01*
X0027401Y0083463D01*
X0027333Y0083621D01*
X0027269Y0083781D01*
X0027209Y0083942D01*
X0027153Y0084104D01*
X0027101Y0084268D01*
X0027054Y0084433D01*
X0027010Y0084599D01*
X0026970Y0084766D01*
X0026935Y0084934D01*
X0026903Y0085103D01*
X0026876Y0085273D01*
X0026853Y0085443D01*
X0026834Y0085614D01*
X0026819Y0085785D01*
X0026808Y0085957D01*
X0026802Y0086128D01*
X0026800Y0086300D01*
D11*
X0027211Y0093950D02*
X0025977Y0095184D01*
X0026594Y0095184D02*
X0024742Y0095184D01*
X0024742Y0093950D02*
X0024742Y0097653D01*
X0026594Y0097653D01*
X0027211Y0097036D01*
X0027211Y0095802D01*
X0026594Y0095184D01*
X0028425Y0094567D02*
X0029042Y0094567D01*
X0029042Y0093950D01*
X0028425Y0093950D01*
X0028425Y0094567D01*
X0029049Y0099950D02*
X0027198Y0099950D01*
X0027815Y0101184D02*
X0027198Y0101802D01*
X0027815Y0102419D01*
X0029666Y0102419D01*
X0029049Y0101184D02*
X0027815Y0101184D01*
X0029049Y0101184D02*
X0029666Y0100567D01*
X0029049Y0099950D01*
X0030881Y0100567D02*
X0031498Y0099950D01*
X0032732Y0099950D01*
X0033349Y0100567D01*
X0033349Y0101802D01*
X0032732Y0102419D01*
X0031498Y0102419D01*
X0030881Y0101802D01*
X0030881Y0100567D01*
X0033950Y0097653D02*
X0033950Y0093950D01*
X0033950Y0095184D02*
X0036419Y0097653D01*
X0037633Y0099950D02*
X0039485Y0099950D01*
X0040102Y0100567D01*
X0039485Y0101184D01*
X0038250Y0101184D01*
X0037633Y0101802D01*
X0038250Y0102419D01*
X0040102Y0102419D01*
X0041933Y0098270D02*
X0041933Y0097653D01*
X0041933Y0096419D02*
X0041933Y0093950D01*
X0041316Y0093950D02*
X0042551Y0093950D01*
X0043772Y0093950D02*
X0043772Y0096419D01*
X0045623Y0096419D01*
X0046240Y0095802D01*
X0046240Y0093950D01*
X0047455Y0093950D02*
X0047455Y0097653D01*
X0048072Y0096419D02*
X0047455Y0095802D01*
X0048072Y0096419D02*
X0049306Y0096419D01*
X0049924Y0095802D01*
X0049924Y0093950D01*
X0051138Y0094567D02*
X0051755Y0093950D01*
X0052990Y0093950D01*
X0053607Y0094567D01*
X0053607Y0095802D01*
X0052990Y0096419D01*
X0051755Y0096419D01*
X0051138Y0095802D01*
X0051138Y0094567D01*
X0050534Y0099950D02*
X0049300Y0099950D01*
X0048683Y0100567D01*
X0048683Y0101802D01*
X0049300Y0102419D01*
X0050534Y0102419D01*
X0051151Y0101802D01*
X0051151Y0100567D01*
X0050534Y0099950D01*
X0052366Y0100567D02*
X0052983Y0101184D01*
X0054834Y0101184D01*
X0054834Y0101802D02*
X0054834Y0099950D01*
X0052983Y0099950D01*
X0052366Y0100567D01*
X0052983Y0102419D02*
X0054217Y0102419D01*
X0054834Y0101802D01*
X0056049Y0102419D02*
X0056049Y0099950D01*
X0056049Y0101184D02*
X0057283Y0102419D01*
X0057900Y0102419D01*
X0059118Y0101802D02*
X0059118Y0100567D01*
X0059735Y0099950D01*
X0061587Y0099950D01*
X0061587Y0103653D01*
X0061587Y0102419D02*
X0059735Y0102419D01*
X0059118Y0101802D01*
X0059128Y0096419D02*
X0057894Y0096419D01*
X0057277Y0095802D01*
X0057277Y0094567D01*
X0057894Y0093950D01*
X0059128Y0093950D01*
X0059745Y0095184D02*
X0057277Y0095184D01*
X0056056Y0095802D02*
X0054821Y0095802D01*
X0055438Y0097036D02*
X0055438Y0093950D01*
X0055438Y0097036D02*
X0056056Y0097653D01*
X0059128Y0096419D02*
X0059745Y0095802D01*
X0059745Y0095184D01*
X0060960Y0095184D02*
X0062194Y0096419D01*
X0062811Y0096419D01*
X0060960Y0096419D02*
X0060960Y0093950D01*
X0056985Y0108950D02*
X0055750Y0108950D01*
X0055133Y0109567D01*
X0053919Y0108950D02*
X0053919Y0111419D01*
X0052684Y0112653D01*
X0051450Y0111419D01*
X0051450Y0108950D01*
X0051450Y0110802D02*
X0053919Y0110802D01*
X0055133Y0112036D02*
X0055750Y0112653D01*
X0056985Y0112653D01*
X0057602Y0112036D01*
X0057602Y0111419D01*
X0056985Y0110802D01*
X0057602Y0110184D01*
X0057602Y0109567D01*
X0056985Y0108950D01*
X0056985Y0110802D02*
X0056368Y0110802D01*
X0056985Y0118950D02*
X0055750Y0118950D01*
X0055133Y0119567D01*
X0055133Y0122036D02*
X0055750Y0122653D01*
X0056985Y0122653D01*
X0057602Y0122036D01*
X0057602Y0121419D01*
X0056985Y0120802D01*
X0057602Y0120184D01*
X0057602Y0119567D01*
X0056985Y0118950D01*
X0056985Y0120802D02*
X0056368Y0120802D01*
X0053919Y0119567D02*
X0053919Y0122036D01*
X0053302Y0122653D01*
X0051450Y0122653D01*
X0051450Y0118950D01*
X0053302Y0118950D01*
X0053919Y0119567D01*
X0053302Y0128950D02*
X0052067Y0128950D01*
X0051450Y0129567D01*
X0051450Y0132036D01*
X0052067Y0132653D01*
X0053302Y0132653D01*
X0053919Y0132036D01*
X0053919Y0130802D02*
X0052684Y0130802D01*
X0053919Y0129567D02*
X0053302Y0128950D01*
X0053919Y0129567D02*
X0053919Y0130802D01*
X0055133Y0132653D02*
X0055133Y0128950D01*
X0057602Y0128950D02*
X0055133Y0132653D01*
X0057602Y0132653D02*
X0057602Y0128950D01*
X0058816Y0128950D02*
X0058816Y0132653D01*
X0060668Y0132653D01*
X0061285Y0132036D01*
X0061285Y0129567D01*
X0060668Y0128950D01*
X0058816Y0128950D01*
X0059433Y0138950D02*
X0060668Y0138950D01*
X0061285Y0139567D01*
X0061285Y0142036D02*
X0060668Y0142653D01*
X0059433Y0142653D01*
X0058816Y0142036D01*
X0058816Y0139567D01*
X0059433Y0138950D01*
X0057602Y0139567D02*
X0056985Y0138950D01*
X0055750Y0138950D01*
X0055133Y0139567D01*
X0055133Y0142036D01*
X0055750Y0142653D01*
X0056985Y0142653D01*
X0057602Y0142036D01*
X0053919Y0142653D02*
X0053919Y0140184D01*
X0052684Y0138950D01*
X0051450Y0140184D01*
X0051450Y0142653D01*
X0046851Y0103653D02*
X0044999Y0103653D01*
X0044999Y0099950D01*
X0046851Y0099950D01*
X0047468Y0100567D01*
X0047468Y0101184D01*
X0046851Y0101802D01*
X0044999Y0101802D01*
X0046851Y0101802D02*
X0047468Y0102419D01*
X0047468Y0103036D01*
X0046851Y0103653D01*
X0041933Y0096419D02*
X0041316Y0096419D01*
X0040102Y0095802D02*
X0040102Y0093950D01*
X0038250Y0093950D01*
X0037633Y0094567D01*
X0038250Y0095184D01*
X0040102Y0095184D01*
X0040102Y0095802D02*
X0039485Y0096419D01*
X0038250Y0096419D01*
X0036419Y0093950D02*
X0034567Y0095802D01*
X0034564Y0099950D02*
X0034564Y0102419D01*
X0035798Y0102419D02*
X0034564Y0101184D01*
X0035798Y0102419D02*
X0036415Y0102419D01*
X0025983Y0101802D02*
X0025983Y0099950D01*
X0025983Y0101802D02*
X0025366Y0102419D01*
X0023514Y0102419D01*
X0023514Y0099950D01*
X0022300Y0101184D02*
X0019831Y0101184D01*
X0019831Y0100567D02*
X0019831Y0101802D01*
X0020448Y0102419D01*
X0021683Y0102419D01*
X0022300Y0101802D01*
X0022300Y0101184D01*
X0021683Y0099950D02*
X0020448Y0099950D01*
X0019831Y0100567D01*
X0018617Y0100567D02*
X0018000Y0099950D01*
X0016765Y0099950D01*
X0016148Y0100567D01*
X0016765Y0101802D02*
X0018000Y0101802D01*
X0018617Y0101184D01*
X0018617Y0100567D01*
X0018617Y0103036D02*
X0018000Y0103653D01*
X0016765Y0103653D01*
X0016148Y0103036D01*
X0016148Y0102419D01*
X0016765Y0101802D01*
X0017389Y0097653D02*
X0014920Y0097653D01*
X0017389Y0097036D02*
X0014920Y0094567D01*
X0014920Y0093950D01*
X0013706Y0093950D02*
X0011237Y0093950D01*
X0012472Y0093950D02*
X0012472Y0097653D01*
X0011237Y0096419D01*
X0010023Y0097036D02*
X0010023Y0094567D01*
X0009406Y0093950D01*
X0008171Y0093950D01*
X0007554Y0094567D01*
X0010023Y0097036D01*
X0009406Y0097653D01*
X0008171Y0097653D01*
X0007554Y0097036D01*
X0007554Y0094567D01*
X0006340Y0093950D02*
X0003871Y0093950D01*
X0006340Y0096419D01*
X0006340Y0097036D01*
X0005723Y0097653D01*
X0004488Y0097653D01*
X0003871Y0097036D01*
X0005099Y0099950D02*
X0005099Y0103653D01*
X0006333Y0102419D01*
X0007567Y0103653D01*
X0007567Y0099950D01*
X0008782Y0100567D02*
X0009399Y0099950D01*
X0010633Y0099950D01*
X0011251Y0100567D01*
X0011251Y0103036D01*
X0010633Y0103653D01*
X0009399Y0103653D01*
X0008782Y0103036D01*
X0008782Y0100567D01*
X0010016Y0101184D02*
X0011251Y0099950D01*
X0010750Y0109950D02*
X0010133Y0110567D01*
X0010133Y0113036D01*
X0010750Y0113653D01*
X0011985Y0113653D01*
X0012602Y0113036D01*
X0013816Y0113036D02*
X0013816Y0110567D01*
X0014433Y0109950D01*
X0015668Y0109950D01*
X0016285Y0110567D01*
X0016285Y0113036D02*
X0015668Y0113653D01*
X0014433Y0113653D01*
X0013816Y0113036D01*
X0012602Y0110567D02*
X0011985Y0109950D01*
X0010750Y0109950D01*
X0008919Y0111184D02*
X0008919Y0113653D01*
X0008919Y0111184D02*
X0007684Y0109950D01*
X0006450Y0111184D01*
X0006450Y0113653D01*
X0007067Y0119950D02*
X0008302Y0119950D01*
X0008919Y0120567D01*
X0008919Y0121802D01*
X0007684Y0121802D01*
X0006450Y0120567D02*
X0007067Y0119950D01*
X0006450Y0120567D02*
X0006450Y0123036D01*
X0007067Y0123653D01*
X0008302Y0123653D01*
X0008919Y0123036D01*
X0010133Y0123653D02*
X0012602Y0119950D01*
X0012602Y0123653D01*
X0013816Y0123653D02*
X0015668Y0123653D01*
X0016285Y0123036D01*
X0016285Y0120567D01*
X0015668Y0119950D01*
X0013816Y0119950D01*
X0013816Y0123653D01*
X0013816Y0129950D02*
X0016285Y0132419D01*
X0016285Y0133036D01*
X0015668Y0133653D01*
X0014433Y0133653D01*
X0013816Y0133036D01*
X0012602Y0133036D02*
X0012602Y0130567D01*
X0011985Y0129950D01*
X0010133Y0129950D01*
X0010133Y0133653D01*
X0011985Y0133653D01*
X0012602Y0133036D01*
X0013816Y0129950D02*
X0016285Y0129950D01*
X0016285Y0139950D02*
X0013816Y0139950D01*
X0016285Y0142419D01*
X0016285Y0143036D01*
X0015668Y0143653D01*
X0014433Y0143653D01*
X0013816Y0143036D01*
X0012602Y0142419D02*
X0012602Y0139950D01*
X0012602Y0141802D02*
X0010133Y0141802D01*
X0010133Y0142419D02*
X0010133Y0139950D01*
X0010133Y0142419D02*
X0011368Y0143653D01*
X0012602Y0142419D01*
X0010133Y0123653D02*
X0010133Y0119950D01*
X0017389Y0097653D02*
X0017389Y0097036D01*
X0019221Y0094567D02*
X0019221Y0093950D01*
X0019838Y0093950D01*
X0019838Y0094567D01*
X0019221Y0094567D01*
X0019838Y0093950D02*
X0018604Y0092716D01*
X0015051Y0063653D02*
X0015051Y0059950D01*
X0016285Y0059950D02*
X0013816Y0059950D01*
X0013816Y0062419D02*
X0015051Y0063653D01*
X0012602Y0062419D02*
X0012602Y0059950D01*
X0012602Y0061802D02*
X0010133Y0061802D01*
X0010133Y0062419D02*
X0011368Y0063653D01*
X0012602Y0062419D01*
X0010133Y0062419D02*
X0010133Y0059950D01*
X0010133Y0053653D02*
X0011985Y0053653D01*
X0012602Y0053036D01*
X0012602Y0050567D01*
X0011985Y0049950D01*
X0010133Y0049950D01*
X0010133Y0053653D01*
X0013816Y0052419D02*
X0015051Y0053653D01*
X0015051Y0049950D01*
X0016285Y0049950D02*
X0013816Y0049950D01*
X0013816Y0043653D02*
X0015668Y0043653D01*
X0016285Y0043036D01*
X0016285Y0040567D01*
X0015668Y0039950D01*
X0013816Y0039950D01*
X0013816Y0043653D01*
X0012602Y0043653D02*
X0012602Y0039950D01*
X0010133Y0043653D01*
X0010133Y0039950D01*
X0008919Y0040567D02*
X0008919Y0041802D01*
X0007684Y0041802D01*
X0006450Y0043036D02*
X0007067Y0043653D01*
X0008302Y0043653D01*
X0008919Y0043036D01*
X0008919Y0040567D02*
X0008302Y0039950D01*
X0007067Y0039950D01*
X0006450Y0040567D01*
X0006450Y0043036D01*
X0006450Y0033653D02*
X0006450Y0031184D01*
X0007684Y0029950D01*
X0008919Y0031184D01*
X0008919Y0033653D01*
X0010133Y0033036D02*
X0010133Y0030567D01*
X0010750Y0029950D01*
X0011985Y0029950D01*
X0012602Y0030567D01*
X0012602Y0033036D02*
X0011985Y0033653D01*
X0010750Y0033653D01*
X0010133Y0033036D01*
X0010533Y0026285D02*
X0011150Y0025668D01*
X0011150Y0024433D01*
X0010533Y0023816D01*
X0008064Y0023816D01*
X0007447Y0024433D01*
X0007447Y0025668D01*
X0008064Y0026285D01*
X0008064Y0022602D02*
X0007447Y0021985D01*
X0007447Y0020750D01*
X0008064Y0020133D01*
X0010533Y0020133D01*
X0011150Y0020750D01*
X0011150Y0021985D01*
X0010533Y0022602D01*
X0009916Y0018919D02*
X0007447Y0018919D01*
X0007447Y0016450D02*
X0009916Y0016450D01*
X0011150Y0017684D01*
X0009916Y0018919D01*
X0014433Y0029950D02*
X0015668Y0029950D01*
X0016285Y0030567D01*
X0016285Y0033036D02*
X0015668Y0033653D01*
X0014433Y0033653D01*
X0013816Y0033036D01*
X0013816Y0030567D01*
X0014433Y0029950D01*
X0018064Y0026285D02*
X0017447Y0025668D01*
X0017447Y0023816D01*
X0021150Y0023816D01*
X0021150Y0025668D01*
X0020533Y0026285D01*
X0018064Y0026285D01*
X0017447Y0022602D02*
X0021150Y0022602D01*
X0017447Y0020133D01*
X0021150Y0020133D01*
X0020533Y0018919D02*
X0019298Y0018919D01*
X0019298Y0017684D01*
X0018064Y0016450D02*
X0020533Y0016450D01*
X0021150Y0017067D01*
X0021150Y0018302D01*
X0020533Y0018919D01*
X0018064Y0018919D02*
X0017447Y0018302D01*
X0017447Y0017067D01*
X0018064Y0016450D01*
X0027447Y0017684D02*
X0028681Y0018919D01*
X0031150Y0018919D01*
X0031150Y0020133D02*
X0031150Y0022602D01*
X0031150Y0021368D02*
X0027447Y0021368D01*
X0028681Y0020133D01*
X0029298Y0018919D02*
X0029298Y0016450D01*
X0028681Y0016450D02*
X0027447Y0017684D01*
X0028681Y0016450D02*
X0031150Y0016450D01*
X0037447Y0017684D02*
X0038681Y0018919D01*
X0041150Y0018919D01*
X0041150Y0020133D02*
X0038681Y0022602D01*
X0038064Y0022602D01*
X0037447Y0021985D01*
X0037447Y0020750D01*
X0038064Y0020133D01*
X0039298Y0018919D02*
X0039298Y0016450D01*
X0038681Y0016450D02*
X0037447Y0017684D01*
X0038681Y0016450D02*
X0041150Y0016450D01*
X0041150Y0020133D02*
X0041150Y0022602D01*
X0047447Y0021985D02*
X0047447Y0020750D01*
X0048064Y0020133D01*
X0048681Y0018919D02*
X0051150Y0018919D01*
X0050533Y0020133D02*
X0051150Y0020750D01*
X0051150Y0021985D01*
X0050533Y0022602D01*
X0049916Y0022602D01*
X0049298Y0021985D01*
X0049298Y0021368D01*
X0049298Y0021985D02*
X0048681Y0022602D01*
X0048064Y0022602D01*
X0047447Y0021985D01*
X0048681Y0018919D02*
X0047447Y0017684D01*
X0048681Y0016450D01*
X0051150Y0016450D01*
X0049298Y0016450D02*
X0049298Y0018919D01*
X0051450Y0028950D02*
X0051450Y0031419D01*
X0052684Y0032653D01*
X0053919Y0031419D01*
X0053919Y0028950D01*
X0053919Y0030802D02*
X0051450Y0030802D01*
X0055133Y0030802D02*
X0057602Y0030802D01*
X0056985Y0032653D02*
X0055133Y0030802D01*
X0056985Y0032653D02*
X0056985Y0028950D01*
X0059298Y0022602D02*
X0059298Y0020133D01*
X0057447Y0021985D01*
X0061150Y0021985D01*
X0061150Y0018919D02*
X0058681Y0018919D01*
X0057447Y0017684D01*
X0058681Y0016450D01*
X0061150Y0016450D01*
X0059298Y0016450D02*
X0059298Y0018919D01*
X0056985Y0038950D02*
X0056985Y0042653D01*
X0055133Y0040802D01*
X0057602Y0040802D01*
X0053919Y0039567D02*
X0053919Y0042036D01*
X0053302Y0042653D01*
X0051450Y0042653D01*
X0051450Y0038950D01*
X0053302Y0038950D01*
X0053919Y0039567D01*
X0053302Y0048950D02*
X0052067Y0048950D01*
X0051450Y0049567D01*
X0051450Y0052036D01*
X0052067Y0052653D01*
X0053302Y0052653D01*
X0053919Y0052036D01*
X0053919Y0050802D02*
X0052684Y0050802D01*
X0053919Y0049567D02*
X0053302Y0048950D01*
X0053919Y0049567D02*
X0053919Y0050802D01*
X0055133Y0052653D02*
X0055133Y0048950D01*
X0057602Y0048950D02*
X0055133Y0052653D01*
X0057602Y0052653D02*
X0057602Y0048950D01*
X0058816Y0048950D02*
X0058816Y0052653D01*
X0060668Y0052653D01*
X0061285Y0052036D01*
X0061285Y0049567D01*
X0060668Y0048950D01*
X0058816Y0048950D01*
X0059433Y0058950D02*
X0060668Y0058950D01*
X0061285Y0059567D01*
X0061285Y0062036D02*
X0060668Y0062653D01*
X0059433Y0062653D01*
X0058816Y0062036D01*
X0058816Y0059567D01*
X0059433Y0058950D01*
X0057602Y0059567D02*
X0056985Y0058950D01*
X0055750Y0058950D01*
X0055133Y0059567D01*
X0055133Y0062036D01*
X0055750Y0062653D01*
X0056985Y0062653D01*
X0057602Y0062036D01*
X0053919Y0062653D02*
X0053919Y0060184D01*
X0052684Y0058950D01*
X0051450Y0060184D01*
X0051450Y0062653D01*
D12*
X0048800Y0063800D02*
X0048800Y0058800D01*
X0046300Y0056300D01*
X0048800Y0053800D01*
X0048800Y0048800D01*
X0046300Y0046300D01*
X0048800Y0043800D01*
X0048800Y0038800D01*
X0046300Y0036300D01*
X0048800Y0033800D01*
X0048800Y0028800D01*
X0046300Y0026300D01*
X0041300Y0026300D01*
X0038800Y0028800D01*
X0038800Y0033800D01*
X0041300Y0036300D01*
X0038800Y0038800D01*
X0038800Y0043800D01*
X0041300Y0046300D01*
X0038800Y0048800D01*
X0038800Y0053800D01*
X0041300Y0056300D01*
X0038800Y0058800D01*
X0038800Y0063800D01*
X0041300Y0066300D01*
X0046300Y0066300D01*
X0048800Y0063800D01*
X0046300Y0106300D02*
X0041300Y0106300D01*
X0038800Y0108800D01*
X0038800Y0113800D01*
X0041300Y0116300D01*
X0038800Y0118800D01*
X0038800Y0123800D01*
X0041300Y0126300D01*
X0038800Y0128800D01*
X0038800Y0133800D01*
X0041300Y0136300D01*
X0038800Y0138800D01*
X0038800Y0143800D01*
X0041300Y0146300D01*
X0046300Y0146300D01*
X0048800Y0143800D01*
X0048800Y0138800D01*
X0046300Y0136300D01*
X0048800Y0133800D01*
X0048800Y0128800D01*
X0046300Y0126300D01*
X0048800Y0123800D01*
X0048800Y0118800D01*
X0046300Y0116300D01*
X0048800Y0113800D01*
X0048800Y0108800D01*
X0046300Y0106300D01*
X0028800Y0108800D02*
X0028800Y0113800D01*
X0026300Y0116300D01*
X0028800Y0118800D01*
X0028800Y0123800D01*
X0026300Y0126300D01*
X0028800Y0128800D01*
X0028800Y0133800D01*
X0026300Y0136300D01*
X0028800Y0138800D01*
X0028800Y0143800D01*
X0026300Y0146300D01*
X0021300Y0146300D01*
X0018800Y0143800D01*
X0018800Y0138800D01*
X0021300Y0136300D01*
X0018800Y0133800D01*
X0018800Y0128800D01*
X0021300Y0126300D01*
X0018800Y0123800D01*
X0018800Y0118800D01*
X0021300Y0116300D01*
X0018800Y0113800D01*
X0018800Y0108800D01*
X0021300Y0106300D01*
X0026300Y0106300D01*
X0028800Y0108800D01*
X0026300Y0066300D02*
X0021300Y0066300D01*
X0018800Y0063800D01*
X0018800Y0058800D01*
X0021300Y0056300D01*
X0018800Y0053800D01*
X0018800Y0048800D01*
X0021300Y0046300D01*
X0018800Y0043800D01*
X0018800Y0038800D01*
X0021300Y0036300D01*
X0018800Y0033800D01*
X0018800Y0028800D01*
X0021300Y0026300D01*
X0026300Y0026300D01*
X0028800Y0028800D01*
X0028800Y0033800D01*
X0026300Y0036300D01*
X0028800Y0038800D01*
X0028800Y0043800D01*
X0026300Y0046300D01*
X0028800Y0048800D01*
X0028800Y0053800D01*
X0026300Y0056300D01*
X0028800Y0058800D01*
X0028800Y0063800D01*
X0026300Y0066300D01*
X0026300Y0016300D02*
X0031300Y0016300D01*
X0033800Y0013800D01*
X0036300Y0016300D01*
X0041300Y0016300D01*
X0043800Y0013800D01*
X0046300Y0016300D01*
X0051300Y0016300D01*
X0053800Y0013800D01*
X0056300Y0016300D01*
X0061300Y0016300D01*
X0063800Y0013800D01*
X0063800Y0008800D01*
X0061300Y0006300D01*
X0056300Y0006300D01*
X0053800Y0008800D01*
X0051300Y0006300D01*
X0046300Y0006300D01*
X0043800Y0008800D01*
X0041300Y0006300D01*
X0036300Y0006300D01*
X0033800Y0008800D01*
X0031300Y0006300D01*
X0026300Y0006300D01*
X0023800Y0008800D01*
X0021300Y0006300D01*
X0016300Y0006300D01*
X0013800Y0008800D01*
X0011300Y0006300D01*
X0006300Y0006300D01*
X0003800Y0008800D01*
X0003800Y0013800D01*
X0006300Y0016300D01*
X0011300Y0016300D01*
X0013800Y0013800D01*
X0016300Y0016300D01*
X0021300Y0016300D01*
X0023800Y0013800D01*
X0026300Y0016300D01*
D13*
X0018050Y0026550D02*
X0016148Y0026550D01*
X0016782Y0027184D01*
X0016148Y0027818D01*
X0018050Y0027818D01*
X0017733Y0028760D02*
X0018050Y0029077D01*
X0018050Y0029711D01*
X0017733Y0030028D01*
X0016465Y0030028D01*
X0016148Y0029711D01*
X0016148Y0029077D01*
X0016465Y0028760D01*
X0017733Y0028760D01*
X0017416Y0029394D02*
X0018050Y0030028D01*
X0018050Y0030970D02*
X0018050Y0032237D01*
X0018050Y0031604D02*
X0016148Y0031604D01*
X0016782Y0030970D01*
X0007528Y0017050D02*
X0006260Y0017050D01*
X0006894Y0017050D02*
X0006894Y0018952D01*
X0006260Y0018318D01*
X0005318Y0018952D02*
X0004684Y0018952D01*
X0005001Y0018952D02*
X0005001Y0017367D01*
X0004684Y0017050D01*
X0004367Y0017050D01*
X0004050Y0017367D01*
X0016148Y0106550D02*
X0016782Y0107184D01*
X0016148Y0107818D01*
X0018050Y0107818D01*
X0017733Y0108760D02*
X0018050Y0109077D01*
X0018050Y0109711D01*
X0017733Y0110028D01*
X0016465Y0110028D01*
X0016148Y0109711D01*
X0016148Y0109077D01*
X0016465Y0108760D01*
X0017733Y0108760D01*
X0017416Y0109394D02*
X0018050Y0110028D01*
X0018050Y0110970D02*
X0016782Y0112237D01*
X0016465Y0112237D01*
X0016148Y0111921D01*
X0016148Y0111287D01*
X0016465Y0110970D01*
X0018050Y0110970D02*
X0018050Y0112237D01*
X0018050Y0106550D02*
X0016148Y0106550D01*
X0049548Y0139920D02*
X0050182Y0140554D01*
X0049548Y0141188D01*
X0051450Y0141188D01*
X0051133Y0142130D02*
X0051450Y0142447D01*
X0051450Y0143081D01*
X0051133Y0143398D01*
X0049865Y0143398D01*
X0049548Y0143081D01*
X0049548Y0142447D01*
X0049865Y0142130D01*
X0051133Y0142130D01*
X0050816Y0142764D02*
X0051450Y0143398D01*
X0051133Y0144340D02*
X0051450Y0144657D01*
X0051450Y0145291D01*
X0051133Y0145608D01*
X0050816Y0145608D01*
X0050499Y0145291D01*
X0050499Y0144974D01*
X0050499Y0145291D02*
X0050182Y0145608D01*
X0049865Y0145608D01*
X0049548Y0145291D01*
X0049548Y0144657D01*
X0049865Y0144340D01*
X0049548Y0139920D02*
X0051450Y0139920D01*
X0050499Y0065608D02*
X0050499Y0064340D01*
X0049548Y0065291D01*
X0051450Y0065291D01*
X0051450Y0063398D02*
X0050816Y0062764D01*
X0051450Y0062447D02*
X0051133Y0062130D01*
X0049865Y0062130D01*
X0049548Y0062447D01*
X0049548Y0063081D01*
X0049865Y0063398D01*
X0051133Y0063398D01*
X0051450Y0063081D01*
X0051450Y0062447D01*
X0051450Y0061188D02*
X0049548Y0061188D01*
X0050182Y0060554D01*
X0049548Y0059920D01*
X0051450Y0059920D01*
M02*
