G75*
%MOIN*%
%OFA0B0*%
%FSLAX25Y25*%
%IPPOS*%
%LPD*%
%AMOC8*
5,1,8,0,0,1.08239X$1,22.5*
%
%ADD10C,0.00000*%
D10*
X0001300Y0001300D02*
X0001300Y0151261D01*
X0066300Y0151300D01*
X0066300Y0001300D01*
X0001300Y0001300D01*
X0026800Y0086300D02*
X0026802Y0086472D01*
X0026808Y0086643D01*
X0026819Y0086815D01*
X0026834Y0086986D01*
X0026853Y0087157D01*
X0026876Y0087327D01*
X0026903Y0087497D01*
X0026935Y0087666D01*
X0026970Y0087834D01*
X0027010Y0088001D01*
X0027054Y0088167D01*
X0027101Y0088332D01*
X0027153Y0088496D01*
X0027209Y0088658D01*
X0027269Y0088819D01*
X0027333Y0088979D01*
X0027401Y0089137D01*
X0027472Y0089293D01*
X0027547Y0089447D01*
X0027627Y0089600D01*
X0027709Y0089750D01*
X0027796Y0089899D01*
X0027886Y0090045D01*
X0027980Y0090189D01*
X0028077Y0090331D01*
X0028178Y0090470D01*
X0028282Y0090607D01*
X0028389Y0090741D01*
X0028500Y0090872D01*
X0028613Y0091001D01*
X0028730Y0091127D01*
X0028850Y0091250D01*
X0028973Y0091370D01*
X0029099Y0091487D01*
X0029228Y0091600D01*
X0029359Y0091711D01*
X0029493Y0091818D01*
X0029630Y0091922D01*
X0029769Y0092023D01*
X0029911Y0092120D01*
X0030055Y0092214D01*
X0030201Y0092304D01*
X0030350Y0092391D01*
X0030500Y0092473D01*
X0030653Y0092553D01*
X0030807Y0092628D01*
X0030963Y0092699D01*
X0031121Y0092767D01*
X0031281Y0092831D01*
X0031442Y0092891D01*
X0031604Y0092947D01*
X0031768Y0092999D01*
X0031933Y0093046D01*
X0032099Y0093090D01*
X0032266Y0093130D01*
X0032434Y0093165D01*
X0032603Y0093197D01*
X0032773Y0093224D01*
X0032943Y0093247D01*
X0033114Y0093266D01*
X0033285Y0093281D01*
X0033457Y0093292D01*
X0033628Y0093298D01*
X0033800Y0093300D01*
X0033972Y0093298D01*
X0034143Y0093292D01*
X0034315Y0093281D01*
X0034486Y0093266D01*
X0034657Y0093247D01*
X0034827Y0093224D01*
X0034997Y0093197D01*
X0035166Y0093165D01*
X0035334Y0093130D01*
X0035501Y0093090D01*
X0035667Y0093046D01*
X0035832Y0092999D01*
X0035996Y0092947D01*
X0036158Y0092891D01*
X0036319Y0092831D01*
X0036479Y0092767D01*
X0036637Y0092699D01*
X0036793Y0092628D01*
X0036947Y0092553D01*
X0037100Y0092473D01*
X0037250Y0092391D01*
X0037399Y0092304D01*
X0037545Y0092214D01*
X0037689Y0092120D01*
X0037831Y0092023D01*
X0037970Y0091922D01*
X0038107Y0091818D01*
X0038241Y0091711D01*
X0038372Y0091600D01*
X0038501Y0091487D01*
X0038627Y0091370D01*
X0038750Y0091250D01*
X0038870Y0091127D01*
X0038987Y0091001D01*
X0039100Y0090872D01*
X0039211Y0090741D01*
X0039318Y0090607D01*
X0039422Y0090470D01*
X0039523Y0090331D01*
X0039620Y0090189D01*
X0039714Y0090045D01*
X0039804Y0089899D01*
X0039891Y0089750D01*
X0039973Y0089600D01*
X0040053Y0089447D01*
X0040128Y0089293D01*
X0040199Y0089137D01*
X0040267Y0088979D01*
X0040331Y0088819D01*
X0040391Y0088658D01*
X0040447Y0088496D01*
X0040499Y0088332D01*
X0040546Y0088167D01*
X0040590Y0088001D01*
X0040630Y0087834D01*
X0040665Y0087666D01*
X0040697Y0087497D01*
X0040724Y0087327D01*
X0040747Y0087157D01*
X0040766Y0086986D01*
X0040781Y0086815D01*
X0040792Y0086643D01*
X0040798Y0086472D01*
X0040800Y0086300D01*
X0040798Y0086128D01*
X0040792Y0085957D01*
X0040781Y0085785D01*
X0040766Y0085614D01*
X0040747Y0085443D01*
X0040724Y0085273D01*
X0040697Y0085103D01*
X0040665Y0084934D01*
X0040630Y0084766D01*
X0040590Y0084599D01*
X0040546Y0084433D01*
X0040499Y0084268D01*
X0040447Y0084104D01*
X0040391Y0083942D01*
X0040331Y0083781D01*
X0040267Y0083621D01*
X0040199Y0083463D01*
X0040128Y0083307D01*
X0040053Y0083153D01*
X0039973Y0083000D01*
X0039891Y0082850D01*
X0039804Y0082701D01*
X0039714Y0082555D01*
X0039620Y0082411D01*
X0039523Y0082269D01*
X0039422Y0082130D01*
X0039318Y0081993D01*
X0039211Y0081859D01*
X0039100Y0081728D01*
X0038987Y0081599D01*
X0038870Y0081473D01*
X0038750Y0081350D01*
X0038627Y0081230D01*
X0038501Y0081113D01*
X0038372Y0081000D01*
X0038241Y0080889D01*
X0038107Y0080782D01*
X0037970Y0080678D01*
X0037831Y0080577D01*
X0037689Y0080480D01*
X0037545Y0080386D01*
X0037399Y0080296D01*
X0037250Y0080209D01*
X0037100Y0080127D01*
X0036947Y0080047D01*
X0036793Y0079972D01*
X0036637Y0079901D01*
X0036479Y0079833D01*
X0036319Y0079769D01*
X0036158Y0079709D01*
X0035996Y0079653D01*
X0035832Y0079601D01*
X0035667Y0079554D01*
X0035501Y0079510D01*
X0035334Y0079470D01*
X0035166Y0079435D01*
X0034997Y0079403D01*
X0034827Y0079376D01*
X0034657Y0079353D01*
X0034486Y0079334D01*
X0034315Y0079319D01*
X0034143Y0079308D01*
X0033972Y0079302D01*
X0033800Y0079300D01*
X0033628Y0079302D01*
X0033457Y0079308D01*
X0033285Y0079319D01*
X0033114Y0079334D01*
X0032943Y0079353D01*
X0032773Y0079376D01*
X0032603Y0079403D01*
X0032434Y0079435D01*
X0032266Y0079470D01*
X0032099Y0079510D01*
X0031933Y0079554D01*
X0031768Y0079601D01*
X0031604Y0079653D01*
X0031442Y0079709D01*
X0031281Y0079769D01*
X0031121Y0079833D01*
X0030963Y0079901D01*
X0030807Y0079972D01*
X0030653Y0080047D01*
X0030500Y0080127D01*
X0030350Y0080209D01*
X0030201Y0080296D01*
X0030055Y0080386D01*
X0029911Y0080480D01*
X0029769Y0080577D01*
X0029630Y0080678D01*
X0029493Y0080782D01*
X0029359Y0080889D01*
X0029228Y0081000D01*
X0029099Y0081113D01*
X0028973Y0081230D01*
X0028850Y0081350D01*
X0028730Y0081473D01*
X0028613Y0081599D01*
X0028500Y0081728D01*
X0028389Y0081859D01*
X0028282Y0081993D01*
X0028178Y0082130D01*
X0028077Y0082269D01*
X0027980Y0082411D01*
X0027886Y0082555D01*
X0027796Y0082701D01*
X0027709Y0082850D01*
X0027627Y0083000D01*
X0027547Y0083153D01*
X0027472Y0083307D01*
X0027401Y0083463D01*
X0027333Y0083621D01*
X0027269Y0083781D01*
X0027209Y0083942D01*
X0027153Y0084104D01*
X0027101Y0084268D01*
X0027054Y0084433D01*
X0027010Y0084599D01*
X0026970Y0084766D01*
X0026935Y0084934D01*
X0026903Y0085103D01*
X0026876Y0085273D01*
X0026853Y0085443D01*
X0026834Y0085614D01*
X0026819Y0085785D01*
X0026808Y0085957D01*
X0026802Y0086128D01*
X0026800Y0086300D01*
M02*
