%
M48
M72
T01C0.04000
T02C0.14000
%
T01
X8800Y11300
X18800Y11300
X23800Y31300
X23800Y41300
X23800Y51300
X23800Y61300
X43800Y61300
X43800Y51300
X43800Y41300
X43800Y31300
X38800Y11300
X28800Y11300
X48800Y11300
X58800Y11300
X43800Y111300
X43800Y121300
X43800Y131300
X43800Y141300
X23800Y141300
X23800Y131300
X23800Y121300
X23800Y111300
T02
X33800Y86300
M30
